  0
SECTION
  2
BLOCKS
  0
ENDSEC
  0
SECTION
  2
ENTITIES
  0
LINE
  8
0
 10
-4
 11
-3.968
 20
0
 21
0.501
  0
LINE
  8
0
 10
-3.968
 11
-3.874
 20
0.501
 21
0.995
  0
LINE
  8
0
 10
-3.874
 11
-3.719
 20
0.995
 21
1.472
  0
LINE
  8
0
 10
-3.719
 11
-3.505
 20
1.472
 21
1.927
  0
LINE
  8
0
 10
-3.505
 11
-3.236
 20
1.927
 21
2.351
  0
LINE
  8
0
 10
-3.236
 11
-2.916
 20
2.351
 21
2.738
  0
LINE
  8
0
 10
-2.916
 11
-2.55
 20
2.738
 21
3.082
  0
LINE
  8
0
 10
-2.55
 11
-2.143
 20
3.082
 21
3.377
  0
LINE
  8
0
 10
-2.143
 11
-1.703
 20
3.377
 21
3.619
  0
LINE
  8
0
 10
-1.703
 11
-1.236
 20
3.619
 21
3.804
  0
LINE
  8
0
 10
-1.236
 11
-0.75
 20
3.804
 21
3.929
  0
LINE
  8
0
 10
-0.75
 11
-0.251
 20
3.929
 21
3.992
  0
LINE
  8
0
 10
-0.251
 11
0.251
 20
3.992
 21
3.992
  0
LINE
  8
0
 10
0.251
 11
0.75
 20
3.992
 21
3.929
  0
LINE
  8
0
 10
0.75
 11
1.236
 20
3.929
 21
3.804
  0
LINE
  8
0
 10
1.236
 11
1.703
 20
3.804
 21
3.619
  0
LINE
  8
0
 10
1.703
 11
2.143
 20
3.619
 21
3.377
  0
LINE
  8
0
 10
2.143
 11
2.55
 20
3.377
 21
3.082
  0
LINE
  8
0
 10
2.55
 11
2.916
 20
3.082
 21
2.738
  0
LINE
  8
0
 10
2.916
 11
3.236
 20
2.738
 21
2.351
  0
LINE
  8
0
 10
3.236
 11
3.505
 20
2.351
 21
1.927
  0
LINE
  8
0
 10
3.505
 11
3.719
 20
1.927
 21
1.472
  0
LINE
  8
0
 10
3.719
 11
3.874
 20
1.472
 21
0.995
  0
LINE
  8
0
 10
3.874
 11
3.968
 20
0.995
 21
0.501
  0
LINE
  8
0
 10
3.968
 11
4
 20
0.501
 21
0
  0
LINE
  8
0
 10
4
 11
3.968
 20
0
 21
-0.501
  0
LINE
  8
0
 10
3.968
 11
3.874
 20
-0.501
 21
-0.995
  0
LINE
  8
0
 10
3.874
 11
3.719
 20
-0.995
 21
-1.472
  0
LINE
  8
0
 10
3.719
 11
3.505
 20
-1.472
 21
-1.927
  0
LINE
  8
0
 10
3.505
 11
3.236
 20
-1.927
 21
-2.351
  0
LINE
  8
0
 10
3.236
 11
2.916
 20
-2.351
 21
-2.738
  0
LINE
  8
0
 10
2.916
 11
2.55
 20
-2.738
 21
-3.082
  0
LINE
  8
0
 10
2.55
 11
2.143
 20
-3.082
 21
-3.377
  0
LINE
  8
0
 10
2.143
 11
1.703
 20
-3.377
 21
-3.619
  0
LINE
  8
0
 10
1.703
 11
1.236
 20
-3.619
 21
-3.804
  0
LINE
  8
0
 10
1.236
 11
0.75
 20
-3.804
 21
-3.929
  0
LINE
  8
0
 10
0.75
 11
0.251
 20
-3.929
 21
-3.992
  0
LINE
  8
0
 10
0.251
 11
-0.251
 20
-3.992
 21
-3.992
  0
LINE
  8
0
 10
-0.251
 11
-0.75
 20
-3.992
 21
-3.929
  0
LINE
  8
0
 10
-0.75
 11
-1.236
 20
-3.929
 21
-3.804
  0
LINE
  8
0
 10
-1.236
 11
-1.703
 20
-3.804
 21
-3.619
  0
LINE
  8
0
 10
-1.703
 11
-2.143
 20
-3.619
 21
-3.377
  0
LINE
  8
0
 10
-2.143
 11
-2.55
 20
-3.377
 21
-3.082
  0
LINE
  8
0
 10
-2.55
 11
-2.916
 20
-3.082
 21
-2.738
  0
LINE
  8
0
 10
-2.916
 11
-3.236
 20
-2.738
 21
-2.351
  0
LINE
  8
0
 10
-3.236
 11
-3.505
 20
-2.351
 21
-1.927
  0
LINE
  8
0
 10
-3.505
 11
-3.719
 20
-1.927
 21
-1.472
  0
LINE
  8
0
 10
-3.719
 11
-3.874
 20
-1.472
 21
-0.995
  0
LINE
  8
0
 10
-3.874
 11
-3.968
 20
-0.995
 21
-0.501
  0
LINE
  8
0
 10
-3.968
 11
-4
 20
-0.501
 21
0
  0
LINE
  8
0
 10
-4
 11
-3.968
 20
8.2
 21
8.701
  0
LINE
  8
0
 10
-3.968
 11
-3.874
 20
8.701
 21
9.195
  0
LINE
  8
0
 10
-3.874
 11
-3.719
 20
9.195
 21
9.672
  0
LINE
  8
0
 10
-3.719
 11
-3.505
 20
9.672
 21
10.127
  0
LINE
  8
0
 10
-3.505
 11
-3.236
 20
10.127
 21
10.551
  0
LINE
  8
0
 10
-3.236
 11
-2.916
 20
10.551
 21
10.938
  0
LINE
  8
0
 10
-2.916
 11
-2.55
 20
10.938
 21
11.282
  0
LINE
  8
0
 10
-2.55
 11
-2.143
 20
11.282
 21
11.577
  0
LINE
  8
0
 10
-2.143
 11
-1.703
 20
11.577
 21
11.819
  0
LINE
  8
0
 10
-1.703
 11
-1.236
 20
11.819
 21
12.004
  0
LINE
  8
0
 10
-1.236
 11
-0.75
 20
12.004
 21
12.129
  0
LINE
  8
0
 10
-0.75
 11
-0.251
 20
12.129
 21
12.192
  0
LINE
  8
0
 10
-0.251
 11
0.251
 20
12.192
 21
12.192
  0
LINE
  8
0
 10
0.251
 11
0.75
 20
12.192
 21
12.129
  0
LINE
  8
0
 10
0.75
 11
1.236
 20
12.129
 21
12.004
  0
LINE
  8
0
 10
1.236
 11
1.703
 20
12.004
 21
11.819
  0
LINE
  8
0
 10
1.703
 11
2.143
 20
11.819
 21
11.577
  0
LINE
  8
0
 10
2.143
 11
2.55
 20
11.577
 21
11.282
  0
LINE
  8
0
 10
2.55
 11
2.916
 20
11.282
 21
10.938
  0
LINE
  8
0
 10
2.916
 11
3.236
 20
10.938
 21
10.551
  0
LINE
  8
0
 10
3.236
 11
3.505
 20
10.551
 21
10.127
  0
LINE
  8
0
 10
3.505
 11
3.719
 20
10.127
 21
9.672
  0
LINE
  8
0
 10
3.719
 11
3.874
 20
9.672
 21
9.195
  0
LINE
  8
0
 10
3.874
 11
3.968
 20
9.195
 21
8.701
  0
LINE
  8
0
 10
3.968
 11
4
 20
8.701
 21
8.2
  0
LINE
  8
0
 10
4
 11
3.968
 20
8.2
 21
7.699
  0
LINE
  8
0
 10
3.968
 11
3.874
 20
7.699
 21
7.205
  0
LINE
  8
0
 10
3.874
 11
3.719
 20
7.205
 21
6.728
  0
LINE
  8
0
 10
3.719
 11
3.505
 20
6.728
 21
6.273
  0
LINE
  8
0
 10
3.505
 11
3.236
 20
6.273
 21
5.849
  0
LINE
  8
0
 10
3.236
 11
2.916
 20
5.849
 21
5.462
  0
LINE
  8
0
 10
2.916
 11
2.55
 20
5.462
 21
5.118
  0
LINE
  8
0
 10
2.55
 11
2.143
 20
5.118
 21
4.823
  0
LINE
  8
0
 10
2.143
 11
1.703
 20
4.823
 21
4.581
  0
LINE
  8
0
 10
1.703
 11
1.236
 20
4.581
 21
4.396
  0
LINE
  8
0
 10
1.236
 11
0.75
 20
4.396
 21
4.271
  0
LINE
  8
0
 10
0.75
 11
0.251
 20
4.271
 21
4.208
  0
LINE
  8
0
 10
0.251
 11
-0.251
 20
4.208
 21
4.208
  0
LINE
  8
0
 10
-0.251
 11
-0.75
 20
4.208
 21
4.271
  0
LINE
  8
0
 10
-0.75
 11
-1.236
 20
4.271
 21
4.396
  0
LINE
  8
0
 10
-1.236
 11
-1.703
 20
4.396
 21
4.581
  0
LINE
  8
0
 10
-1.703
 11
-2.143
 20
4.581
 21
4.823
  0
LINE
  8
0
 10
-2.143
 11
-2.55
 20
4.823
 21
5.118
  0
LINE
  8
0
 10
-2.55
 11
-2.916
 20
5.118
 21
5.462
  0
LINE
  8
0
 10
-2.916
 11
-3.236
 20
5.462
 21
5.849
  0
LINE
  8
0
 10
-3.236
 11
-3.505
 20
5.849
 21
6.273
  0
LINE
  8
0
 10
-3.505
 11
-3.719
 20
6.273
 21
6.728
  0
LINE
  8
0
 10
-3.719
 11
-3.874
 20
6.728
 21
7.205
  0
LINE
  8
0
 10
-3.874
 11
-3.968
 20
7.205
 21
7.699
  0
LINE
  8
0
 10
-3.968
 11
-4
 20
7.699
 21
8.2
  0
LINE
  8
0
 10
-4
 11
-3.968
 20
16.4
 21
16.901
  0
LINE
  8
0
 10
-3.968
 11
-3.874
 20
16.901
 21
17.395
  0
LINE
  8
0
 10
-3.874
 11
-3.719
 20
17.395
 21
17.872
  0
LINE
  8
0
 10
-3.719
 11
-3.505
 20
17.872
 21
18.327
  0
LINE
  8
0
 10
-3.505
 11
-3.236
 20
18.327
 21
18.751
  0
LINE
  8
0
 10
-3.236
 11
-2.916
 20
18.751
 21
19.138
  0
LINE
  8
0
 10
-2.916
 11
-2.55
 20
19.138
 21
19.482
  0
LINE
  8
0
 10
-2.55
 11
-2.143
 20
19.482
 21
19.777
  0
LINE
  8
0
 10
-2.143
 11
-1.703
 20
19.777
 21
20.019
  0
LINE
  8
0
 10
-1.703
 11
-1.236
 20
20.019
 21
20.204
  0
LINE
  8
0
 10
-1.236
 11
-0.75
 20
20.204
 21
20.329
  0
LINE
  8
0
 10
-0.75
 11
-0.251
 20
20.329
 21
20.392
  0
LINE
  8
0
 10
-0.251
 11
0.251
 20
20.392
 21
20.392
  0
LINE
  8
0
 10
0.251
 11
0.75
 20
20.392
 21
20.329
  0
LINE
  8
0
 10
0.75
 11
1.236
 20
20.329
 21
20.204
  0
LINE
  8
0
 10
1.236
 11
1.703
 20
20.204
 21
20.019
  0
LINE
  8
0
 10
1.703
 11
2.143
 20
20.019
 21
19.777
  0
LINE
  8
0
 10
2.143
 11
2.55
 20
19.777
 21
19.482
  0
LINE
  8
0
 10
2.55
 11
2.916
 20
19.482
 21
19.138
  0
LINE
  8
0
 10
2.916
 11
3.236
 20
19.138
 21
18.751
  0
LINE
  8
0
 10
3.236
 11
3.505
 20
18.751
 21
18.327
  0
LINE
  8
0
 10
3.505
 11
3.719
 20
18.327
 21
17.872
  0
LINE
  8
0
 10
3.719
 11
3.874
 20
17.872
 21
17.395
  0
LINE
  8
0
 10
3.874
 11
3.968
 20
17.395
 21
16.901
  0
LINE
  8
0
 10
3.968
 11
4
 20
16.901
 21
16.4
  0
LINE
  8
0
 10
4
 11
3.968
 20
16.4
 21
15.899
  0
LINE
  8
0
 10
3.968
 11
3.874
 20
15.899
 21
15.405
  0
LINE
  8
0
 10
3.874
 11
3.719
 20
15.405
 21
14.928
  0
LINE
  8
0
 10
3.719
 11
3.505
 20
14.928
 21
14.473
  0
LINE
  8
0
 10
3.505
 11
3.236
 20
14.473
 21
14.049
  0
LINE
  8
0
 10
3.236
 11
2.916
 20
14.049
 21
13.662
  0
LINE
  8
0
 10
2.916
 11
2.55
 20
13.662
 21
13.318
  0
LINE
  8
0
 10
2.55
 11
2.143
 20
13.318
 21
13.023
  0
LINE
  8
0
 10
2.143
 11
1.703
 20
13.023
 21
12.781
  0
LINE
  8
0
 10
1.703
 11
1.236
 20
12.781
 21
12.596
  0
LINE
  8
0
 10
1.236
 11
0.75
 20
12.596
 21
12.471
  0
LINE
  8
0
 10
0.75
 11
0.251
 20
12.471
 21
12.408
  0
LINE
  8
0
 10
0.251
 11
-0.251
 20
12.408
 21
12.408
  0
LINE
  8
0
 10
-0.251
 11
-0.75
 20
12.408
 21
12.471
  0
LINE
  8
0
 10
-0.75
 11
-1.236
 20
12.471
 21
12.596
  0
LINE
  8
0
 10
-1.236
 11
-1.703
 20
12.596
 21
12.781
  0
LINE
  8
0
 10
-1.703
 11
-2.143
 20
12.781
 21
13.023
  0
LINE
  8
0
 10
-2.143
 11
-2.55
 20
13.023
 21
13.318
  0
LINE
  8
0
 10
-2.55
 11
-2.916
 20
13.318
 21
13.662
  0
LINE
  8
0
 10
-2.916
 11
-3.236
 20
13.662
 21
14.049
  0
LINE
  8
0
 10
-3.236
 11
-3.505
 20
14.049
 21
14.473
  0
LINE
  8
0
 10
-3.505
 11
-3.719
 20
14.473
 21
14.928
  0
LINE
  8
0
 10
-3.719
 11
-3.874
 20
14.928
 21
15.405
  0
LINE
  8
0
 10
-3.874
 11
-3.968
 20
15.405
 21
15.899
  0
LINE
  8
0
 10
-3.968
 11
-4
 20
15.899
 21
16.4
  0
LINE
  8
0
 10
-4
 11
-3.968
 20
24.6
 21
25.101
  0
LINE
  8
0
 10
-3.968
 11
-3.874
 20
25.101
 21
25.595
  0
LINE
  8
0
 10
-3.874
 11
-3.719
 20
25.595
 21
26.072
  0
LINE
  8
0
 10
-3.719
 11
-3.505
 20
26.072
 21
26.527
  0
LINE
  8
0
 10
-3.505
 11
-3.236
 20
26.527
 21
26.951
  0
LINE
  8
0
 10
-3.236
 11
-2.916
 20
26.951
 21
27.338
  0
LINE
  8
0
 10
-2.916
 11
-2.55
 20
27.338
 21
27.682
  0
LINE
  8
0
 10
-2.55
 11
-2.143
 20
27.682
 21
27.977
  0
LINE
  8
0
 10
-2.143
 11
-1.703
 20
27.977
 21
28.219
  0
LINE
  8
0
 10
-1.703
 11
-1.236
 20
28.219
 21
28.404
  0
LINE
  8
0
 10
-1.236
 11
-0.75
 20
28.404
 21
28.529
  0
LINE
  8
0
 10
-0.75
 11
-0.251
 20
28.529
 21
28.592
  0
LINE
  8
0
 10
-0.251
 11
0.251
 20
28.592
 21
28.592
  0
LINE
  8
0
 10
0.251
 11
0.75
 20
28.592
 21
28.529
  0
LINE
  8
0
 10
0.75
 11
1.236
 20
28.529
 21
28.404
  0
LINE
  8
0
 10
1.236
 11
1.703
 20
28.404
 21
28.219
  0
LINE
  8
0
 10
1.703
 11
2.143
 20
28.219
 21
27.977
  0
LINE
  8
0
 10
2.143
 11
2.55
 20
27.977
 21
27.682
  0
LINE
  8
0
 10
2.55
 11
2.916
 20
27.682
 21
27.338
  0
LINE
  8
0
 10
2.916
 11
3.236
 20
27.338
 21
26.951
  0
LINE
  8
0
 10
3.236
 11
3.505
 20
26.951
 21
26.527
  0
LINE
  8
0
 10
3.505
 11
3.719
 20
26.527
 21
26.072
  0
LINE
  8
0
 10
3.719
 11
3.874
 20
26.072
 21
25.595
  0
LINE
  8
0
 10
3.874
 11
3.968
 20
25.595
 21
25.101
  0
LINE
  8
0
 10
3.968
 11
4
 20
25.101
 21
24.6
  0
LINE
  8
0
 10
4
 11
3.968
 20
24.6
 21
24.099
  0
LINE
  8
0
 10
3.968
 11
3.874
 20
24.099
 21
23.605
  0
LINE
  8
0
 10
3.874
 11
3.719
 20
23.605
 21
23.128
  0
LINE
  8
0
 10
3.719
 11
3.505
 20
23.128
 21
22.673
  0
LINE
  8
0
 10
3.505
 11
3.236
 20
22.673
 21
22.249
  0
LINE
  8
0
 10
3.236
 11
2.916
 20
22.249
 21
21.862
  0
LINE
  8
0
 10
2.916
 11
2.55
 20
21.862
 21
21.518
  0
LINE
  8
0
 10
2.55
 11
2.143
 20
21.518
 21
21.223
  0
LINE
  8
0
 10
2.143
 11
1.703
 20
21.223
 21
20.981
  0
LINE
  8
0
 10
1.703
 11
1.236
 20
20.981
 21
20.796
  0
LINE
  8
0
 10
1.236
 11
0.75
 20
20.796
 21
20.671
  0
LINE
  8
0
 10
0.75
 11
0.251
 20
20.671
 21
20.608
  0
LINE
  8
0
 10
0.251
 11
-0.251
 20
20.608
 21
20.608
  0
LINE
  8
0
 10
-0.251
 11
-0.75
 20
20.608
 21
20.671
  0
LINE
  8
0
 10
-0.75
 11
-1.236
 20
20.671
 21
20.796
  0
LINE
  8
0
 10
-1.236
 11
-1.703
 20
20.796
 21
20.981
  0
LINE
  8
0
 10
-1.703
 11
-2.143
 20
20.981
 21
21.223
  0
LINE
  8
0
 10
-2.143
 11
-2.55
 20
21.223
 21
21.518
  0
LINE
  8
0
 10
-2.55
 11
-2.916
 20
21.518
 21
21.862
  0
LINE
  8
0
 10
-2.916
 11
-3.236
 20
21.862
 21
22.249
  0
LINE
  8
0
 10
-3.236
 11
-3.505
 20
22.249
 21
22.673
  0
LINE
  8
0
 10
-3.505
 11
-3.719
 20
22.673
 21
23.128
  0
LINE
  8
0
 10
-3.719
 11
-3.874
 20
23.128
 21
23.605
  0
LINE
  8
0
 10
-3.874
 11
-3.968
 20
23.605
 21
24.099
  0
LINE
  8
0
 10
-3.968
 11
-4
 20
24.099
 21
24.6
  0
LINE
  8
0
 10
-4
 11
-3.968
 20
32.8
 21
33.301
  0
LINE
  8
0
 10
-3.968
 11
-3.874
 20
33.301
 21
33.795
  0
LINE
  8
0
 10
-3.874
 11
-3.719
 20
33.795
 21
34.272
  0
LINE
  8
0
 10
-3.719
 11
-3.505
 20
34.272
 21
34.727
  0
LINE
  8
0
 10
-3.505
 11
-3.236
 20
34.727
 21
35.151
  0
LINE
  8
0
 10
-3.236
 11
-2.916
 20
35.151
 21
35.538
  0
LINE
  8
0
 10
-2.916
 11
-2.55
 20
35.538
 21
35.882
  0
LINE
  8
0
 10
-2.55
 11
-2.143
 20
35.882
 21
36.177
  0
LINE
  8
0
 10
-2.143
 11
-1.703
 20
36.177
 21
36.419
  0
LINE
  8
0
 10
-1.703
 11
-1.236
 20
36.419
 21
36.604
  0
LINE
  8
0
 10
-1.236
 11
-0.75
 20
36.604
 21
36.729
  0
LINE
  8
0
 10
-0.75
 11
-0.251
 20
36.729
 21
36.792
  0
LINE
  8
0
 10
-0.251
 11
0.251
 20
36.792
 21
36.792
  0
LINE
  8
0
 10
0.251
 11
0.75
 20
36.792
 21
36.729
  0
LINE
  8
0
 10
0.75
 11
1.236
 20
36.729
 21
36.604
  0
LINE
  8
0
 10
1.236
 11
1.703
 20
36.604
 21
36.419
  0
LINE
  8
0
 10
1.703
 11
2.143
 20
36.419
 21
36.177
  0
LINE
  8
0
 10
2.143
 11
2.55
 20
36.177
 21
35.882
  0
LINE
  8
0
 10
2.55
 11
2.916
 20
35.882
 21
35.538
  0
LINE
  8
0
 10
2.916
 11
3.236
 20
35.538
 21
35.151
  0
LINE
  8
0
 10
3.236
 11
3.505
 20
35.151
 21
34.727
  0
LINE
  8
0
 10
3.505
 11
3.719
 20
34.727
 21
34.272
  0
LINE
  8
0
 10
3.719
 11
3.874
 20
34.272
 21
33.795
  0
LINE
  8
0
 10
3.874
 11
3.968
 20
33.795
 21
33.301
  0
LINE
  8
0
 10
3.968
 11
4
 20
33.301
 21
32.8
  0
LINE
  8
0
 10
4
 11
3.968
 20
32.8
 21
32.299
  0
LINE
  8
0
 10
3.968
 11
3.874
 20
32.299
 21
31.805
  0
LINE
  8
0
 10
3.874
 11
3.719
 20
31.805
 21
31.328
  0
LINE
  8
0
 10
3.719
 11
3.505
 20
31.328
 21
30.873
  0
LINE
  8
0
 10
3.505
 11
3.236
 20
30.873
 21
30.449
  0
LINE
  8
0
 10
3.236
 11
2.916
 20
30.449
 21
30.062
  0
LINE
  8
0
 10
2.916
 11
2.55
 20
30.062
 21
29.718
  0
LINE
  8
0
 10
2.55
 11
2.143
 20
29.718
 21
29.423
  0
LINE
  8
0
 10
2.143
 11
1.703
 20
29.423
 21
29.181
  0
LINE
  8
0
 10
1.703
 11
1.236
 20
29.181
 21
28.996
  0
LINE
  8
0
 10
1.236
 11
0.75
 20
28.996
 21
28.871
  0
LINE
  8
0
 10
0.75
 11
0.251
 20
28.871
 21
28.808
  0
LINE
  8
0
 10
0.251
 11
-0.251
 20
28.808
 21
28.808
  0
LINE
  8
0
 10
-0.251
 11
-0.75
 20
28.808
 21
28.871
  0
LINE
  8
0
 10
-0.75
 11
-1.236
 20
28.871
 21
28.996
  0
LINE
  8
0
 10
-1.236
 11
-1.703
 20
28.996
 21
29.181
  0
LINE
  8
0
 10
-1.703
 11
-2.143
 20
29.181
 21
29.423
  0
LINE
  8
0
 10
-2.143
 11
-2.55
 20
29.423
 21
29.718
  0
LINE
  8
0
 10
-2.55
 11
-2.916
 20
29.718
 21
30.062
  0
LINE
  8
0
 10
-2.916
 11
-3.236
 20
30.062
 21
30.449
  0
LINE
  8
0
 10
-3.236
 11
-3.505
 20
30.449
 21
30.873
  0
LINE
  8
0
 10
-3.505
 11
-3.719
 20
30.873
 21
31.328
  0
LINE
  8
0
 10
-3.719
 11
-3.874
 20
31.328
 21
31.805
  0
LINE
  8
0
 10
-3.874
 11
-3.968
 20
31.805
 21
32.299
  0
LINE
  8
0
 10
-3.968
 11
-4
 20
32.299
 21
32.8
  0
LINE
  8
0
 10
-4
 11
-3.968
 20
41
 21
41.501
  0
LINE
  8
0
 10
-3.968
 11
-3.874
 20
41.501
 21
41.995
  0
LINE
  8
0
 10
-3.874
 11
-3.719
 20
41.995
 21
42.472
  0
LINE
  8
0
 10
-3.719
 11
-3.505
 20
42.472
 21
42.927
  0
LINE
  8
0
 10
-3.505
 11
-3.236
 20
42.927
 21
43.351
  0
LINE
  8
0
 10
-3.236
 11
-2.916
 20
43.351
 21
43.738
  0
LINE
  8
0
 10
-2.916
 11
-2.55
 20
43.738
 21
44.082
  0
LINE
  8
0
 10
-2.55
 11
-2.143
 20
44.082
 21
44.377
  0
LINE
  8
0
 10
-2.143
 11
-1.703
 20
44.377
 21
44.619
  0
LINE
  8
0
 10
-1.703
 11
-1.236
 20
44.619
 21
44.804
  0
LINE
  8
0
 10
-1.236
 11
-0.75
 20
44.804
 21
44.929
  0
LINE
  8
0
 10
-0.75
 11
-0.251
 20
44.929
 21
44.992
  0
LINE
  8
0
 10
-0.251
 11
0.251
 20
44.992
 21
44.992
  0
LINE
  8
0
 10
0.251
 11
0.75
 20
44.992
 21
44.929
  0
LINE
  8
0
 10
0.75
 11
1.236
 20
44.929
 21
44.804
  0
LINE
  8
0
 10
1.236
 11
1.703
 20
44.804
 21
44.619
  0
LINE
  8
0
 10
1.703
 11
2.143
 20
44.619
 21
44.377
  0
LINE
  8
0
 10
2.143
 11
2.55
 20
44.377
 21
44.082
  0
LINE
  8
0
 10
2.55
 11
2.916
 20
44.082
 21
43.738
  0
LINE
  8
0
 10
2.916
 11
3.236
 20
43.738
 21
43.351
  0
LINE
  8
0
 10
3.236
 11
3.505
 20
43.351
 21
42.927
  0
LINE
  8
0
 10
3.505
 11
3.719
 20
42.927
 21
42.472
  0
LINE
  8
0
 10
3.719
 11
3.874
 20
42.472
 21
41.995
  0
LINE
  8
0
 10
3.874
 11
3.968
 20
41.995
 21
41.501
  0
LINE
  8
0
 10
3.968
 11
4
 20
41.501
 21
41
  0
LINE
  8
0
 10
4
 11
3.968
 20
41
 21
40.499
  0
LINE
  8
0
 10
3.968
 11
3.874
 20
40.499
 21
40.005
  0
LINE
  8
0
 10
3.874
 11
3.719
 20
40.005
 21
39.528
  0
LINE
  8
0
 10
3.719
 11
3.505
 20
39.528
 21
39.073
  0
LINE
  8
0
 10
3.505
 11
3.236
 20
39.073
 21
38.649
  0
LINE
  8
0
 10
3.236
 11
2.916
 20
38.649
 21
38.262
  0
LINE
  8
0
 10
2.916
 11
2.55
 20
38.262
 21
37.918
  0
LINE
  8
0
 10
2.55
 11
2.143
 20
37.918
 21
37.623
  0
LINE
  8
0
 10
2.143
 11
1.703
 20
37.623
 21
37.381
  0
LINE
  8
0
 10
1.703
 11
1.236
 20
37.381
 21
37.196
  0
LINE
  8
0
 10
1.236
 11
0.75
 20
37.196
 21
37.071
  0
LINE
  8
0
 10
0.75
 11
0.251
 20
37.071
 21
37.008
  0
LINE
  8
0
 10
0.251
 11
-0.251
 20
37.008
 21
37.008
  0
LINE
  8
0
 10
-0.251
 11
-0.75
 20
37.008
 21
37.071
  0
LINE
  8
0
 10
-0.75
 11
-1.236
 20
37.071
 21
37.196
  0
LINE
  8
0
 10
-1.236
 11
-1.703
 20
37.196
 21
37.381
  0
LINE
  8
0
 10
-1.703
 11
-2.143
 20
37.381
 21
37.623
  0
LINE
  8
0
 10
-2.143
 11
-2.55
 20
37.623
 21
37.918
  0
LINE
  8
0
 10
-2.55
 11
-2.916
 20
37.918
 21
38.262
  0
LINE
  8
0
 10
-2.916
 11
-3.236
 20
38.262
 21
38.649
  0
LINE
  8
0
 10
-3.236
 11
-3.505
 20
38.649
 21
39.073
  0
LINE
  8
0
 10
-3.505
 11
-3.719
 20
39.073
 21
39.528
  0
LINE
  8
0
 10
-3.719
 11
-3.874
 20
39.528
 21
40.005
  0
LINE
  8
0
 10
-3.874
 11
-3.968
 20
40.005
 21
40.499
  0
LINE
  8
0
 10
-3.968
 11
-4
 20
40.499
 21
41
  0
LINE
  8
0
 10
-2
 11
-1.984
 20
0
 21
0.251
  0
LINE
  8
0
 10
-1.984
 11
-1.937
 20
0.251
 21
0.497
  0
LINE
  8
0
 10
-1.937
 11
-1.86
 20
0.497
 21
0.736
  0
LINE
  8
0
 10
-1.86
 11
-1.753
 20
0.736
 21
0.964
  0
LINE
  8
0
 10
-1.753
 11
-1.618
 20
0.964
 21
1.176
  0
LINE
  8
0
 10
-1.618
 11
-1.458
 20
1.176
 21
1.369
  0
LINE
  8
0
 10
-1.458
 11
-1.275
 20
1.369
 21
1.541
  0
LINE
  8
0
 10
-1.275
 11
-1.072
 20
1.541
 21
1.689
  0
LINE
  8
0
 10
-1.072
 11
-0.852
 20
1.689
 21
1.81
  0
LINE
  8
0
 10
-0.852
 11
-0.618
 20
1.81
 21
1.902
  0
LINE
  8
0
 10
-0.618
 11
-0.375
 20
1.902
 21
1.965
  0
LINE
  8
0
 10
-0.375
 11
-0.126
 20
1.965
 21
1.996
  0
LINE
  8
0
 10
-0.126
 11
0.126
 20
1.996
 21
1.996
  0
LINE
  8
0
 10
0.126
 11
0.375
 20
1.996
 21
1.965
  0
LINE
  8
0
 10
0.375
 11
0.618
 20
1.965
 21
1.902
  0
LINE
  8
0
 10
0.618
 11
0.852
 20
1.902
 21
1.81
  0
LINE
  8
0
 10
0.852
 11
1.072
 20
1.81
 21
1.689
  0
LINE
  8
0
 10
1.072
 11
1.275
 20
1.689
 21
1.541
  0
LINE
  8
0
 10
1.275
 11
1.458
 20
1.541
 21
1.369
  0
LINE
  8
0
 10
1.458
 11
1.618
 20
1.369
 21
1.176
  0
LINE
  8
0
 10
1.618
 11
1.753
 20
1.176
 21
0.964
  0
LINE
  8
0
 10
1.753
 11
1.86
 20
0.964
 21
0.736
  0
LINE
  8
0
 10
1.86
 11
1.937
 20
0.736
 21
0.497
  0
LINE
  8
0
 10
1.937
 11
1.984
 20
0.497
 21
0.251
  0
LINE
  8
0
 10
1.984
 11
2
 20
0.251
 21
0
  0
LINE
  8
0
 10
2
 11
1.984
 20
0
 21
-0.251
  0
LINE
  8
0
 10
1.984
 11
1.937
 20
-0.251
 21
-0.497
  0
LINE
  8
0
 10
1.937
 11
1.86
 20
-0.497
 21
-0.736
  0
LINE
  8
0
 10
1.86
 11
1.753
 20
-0.736
 21
-0.964
  0
LINE
  8
0
 10
1.753
 11
1.618
 20
-0.964
 21
-1.176
  0
LINE
  8
0
 10
1.618
 11
1.458
 20
-1.176
 21
-1.369
  0
LINE
  8
0
 10
1.458
 11
1.275
 20
-1.369
 21
-1.541
  0
LINE
  8
0
 10
1.275
 11
1.072
 20
-1.541
 21
-1.689
  0
LINE
  8
0
 10
1.072
 11
0.852
 20
-1.689
 21
-1.81
  0
LINE
  8
0
 10
0.852
 11
0.618
 20
-1.81
 21
-1.902
  0
LINE
  8
0
 10
0.618
 11
0.375
 20
-1.902
 21
-1.965
  0
LINE
  8
0
 10
0.375
 11
0.126
 20
-1.965
 21
-1.996
  0
LINE
  8
0
 10
0.126
 11
-0.126
 20
-1.996
 21
-1.996
  0
LINE
  8
0
 10
-0.126
 11
-0.375
 20
-1.996
 21
-1.965
  0
LINE
  8
0
 10
-0.375
 11
-0.618
 20
-1.965
 21
-1.902
  0
LINE
  8
0
 10
-0.618
 11
-0.852
 20
-1.902
 21
-1.81
  0
LINE
  8
0
 10
-0.852
 11
-1.072
 20
-1.81
 21
-1.689
  0
LINE
  8
0
 10
-1.072
 11
-1.275
 20
-1.689
 21
-1.541
  0
LINE
  8
0
 10
-1.275
 11
-1.458
 20
-1.541
 21
-1.369
  0
LINE
  8
0
 10
-1.458
 11
-1.618
 20
-1.369
 21
-1.176
  0
LINE
  8
0
 10
-1.618
 11
-1.753
 20
-1.176
 21
-0.964
  0
LINE
  8
0
 10
-1.753
 11
-1.86
 20
-0.964
 21
-0.736
  0
LINE
  8
0
 10
-1.86
 11
-1.937
 20
-0.736
 21
-0.497
  0
LINE
  8
0
 10
-1.937
 11
-1.984
 20
-0.497
 21
-0.251
  0
LINE
  8
0
 10
-1.984
 11
-2
 20
-0.251
 21
0
  0
LINE
  8
0
 10
-2
 11
-1.984
 20
8.2
 21
8.451
  0
LINE
  8
0
 10
-1.984
 11
-1.937
 20
8.451
 21
8.697
  0
LINE
  8
0
 10
-1.937
 11
-1.86
 20
8.697
 21
8.936
  0
LINE
  8
0
 10
-1.86
 11
-1.753
 20
8.936
 21
9.164
  0
LINE
  8
0
 10
-1.753
 11
-1.618
 20
9.164
 21
9.376
  0
LINE
  8
0
 10
-1.618
 11
-1.458
 20
9.376
 21
9.569
  0
LINE
  8
0
 10
-1.458
 11
-1.275
 20
9.569
 21
9.741
  0
LINE
  8
0
 10
-1.275
 11
-1.072
 20
9.741
 21
9.889
  0
LINE
  8
0
 10
-1.072
 11
-0.852
 20
9.889
 21
10.01
  0
LINE
  8
0
 10
-0.852
 11
-0.618
 20
10.01
 21
10.102
  0
LINE
  8
0
 10
-0.618
 11
-0.375
 20
10.102
 21
10.165
  0
LINE
  8
0
 10
-0.375
 11
-0.126
 20
10.165
 21
10.196
  0
LINE
  8
0
 10
-0.126
 11
0.126
 20
10.196
 21
10.196
  0
LINE
  8
0
 10
0.126
 11
0.375
 20
10.196
 21
10.165
  0
LINE
  8
0
 10
0.375
 11
0.618
 20
10.165
 21
10.102
  0
LINE
  8
0
 10
0.618
 11
0.852
 20
10.102
 21
10.01
  0
LINE
  8
0
 10
0.852
 11
1.072
 20
10.01
 21
9.889
  0
LINE
  8
0
 10
1.072
 11
1.275
 20
9.889
 21
9.741
  0
LINE
  8
0
 10
1.275
 11
1.458
 20
9.741
 21
9.569
  0
LINE
  8
0
 10
1.458
 11
1.618
 20
9.569
 21
9.376
  0
LINE
  8
0
 10
1.618
 11
1.753
 20
9.376
 21
9.164
  0
LINE
  8
0
 10
1.753
 11
1.86
 20
9.164
 21
8.936
  0
LINE
  8
0
 10
1.86
 11
1.937
 20
8.936
 21
8.697
  0
LINE
  8
0
 10
1.937
 11
1.984
 20
8.697
 21
8.451
  0
LINE
  8
0
 10
1.984
 11
2
 20
8.451
 21
8.2
  0
LINE
  8
0
 10
2
 11
1.984
 20
8.2
 21
7.949
  0
LINE
  8
0
 10
1.984
 11
1.937
 20
7.949
 21
7.703
  0
LINE
  8
0
 10
1.937
 11
1.86
 20
7.703
 21
7.464
  0
LINE
  8
0
 10
1.86
 11
1.753
 20
7.464
 21
7.236
  0
LINE
  8
0
 10
1.753
 11
1.618
 20
7.236
 21
7.024
  0
LINE
  8
0
 10
1.618
 11
1.458
 20
7.024
 21
6.831
  0
LINE
  8
0
 10
1.458
 11
1.275
 20
6.831
 21
6.659
  0
LINE
  8
0
 10
1.275
 11
1.072
 20
6.659
 21
6.511
  0
LINE
  8
0
 10
1.072
 11
0.852
 20
6.511
 21
6.39
  0
LINE
  8
0
 10
0.852
 11
0.618
 20
6.39
 21
6.298
  0
LINE
  8
0
 10
0.618
 11
0.375
 20
6.298
 21
6.235
  0
LINE
  8
0
 10
0.375
 11
0.126
 20
6.235
 21
6.204
  0
LINE
  8
0
 10
0.126
 11
-0.126
 20
6.204
 21
6.204
  0
LINE
  8
0
 10
-0.126
 11
-0.375
 20
6.204
 21
6.235
  0
LINE
  8
0
 10
-0.375
 11
-0.618
 20
6.235
 21
6.298
  0
LINE
  8
0
 10
-0.618
 11
-0.852
 20
6.298
 21
6.39
  0
LINE
  8
0
 10
-0.852
 11
-1.072
 20
6.39
 21
6.511
  0
LINE
  8
0
 10
-1.072
 11
-1.275
 20
6.511
 21
6.659
  0
LINE
  8
0
 10
-1.275
 11
-1.458
 20
6.659
 21
6.831
  0
LINE
  8
0
 10
-1.458
 11
-1.618
 20
6.831
 21
7.024
  0
LINE
  8
0
 10
-1.618
 11
-1.753
 20
7.024
 21
7.236
  0
LINE
  8
0
 10
-1.753
 11
-1.86
 20
7.236
 21
7.464
  0
LINE
  8
0
 10
-1.86
 11
-1.937
 20
7.464
 21
7.703
  0
LINE
  8
0
 10
-1.937
 11
-1.984
 20
7.703
 21
7.949
  0
LINE
  8
0
 10
-1.984
 11
-2
 20
7.949
 21
8.2
  0
LINE
  8
0
 10
-2
 11
-1.984
 20
16.4
 21
16.651
  0
LINE
  8
0
 10
-1.984
 11
-1.937
 20
16.651
 21
16.897
  0
LINE
  8
0
 10
-1.937
 11
-1.86
 20
16.897
 21
17.136
  0
LINE
  8
0
 10
-1.86
 11
-1.753
 20
17.136
 21
17.364
  0
LINE
  8
0
 10
-1.753
 11
-1.618
 20
17.364
 21
17.576
  0
LINE
  8
0
 10
-1.618
 11
-1.458
 20
17.576
 21
17.769
  0
LINE
  8
0
 10
-1.458
 11
-1.275
 20
17.769
 21
17.941
  0
LINE
  8
0
 10
-1.275
 11
-1.072
 20
17.941
 21
18.089
  0
LINE
  8
0
 10
-1.072
 11
-0.852
 20
18.089
 21
18.21
  0
LINE
  8
0
 10
-0.852
 11
-0.618
 20
18.21
 21
18.302
  0
LINE
  8
0
 10
-0.618
 11
-0.375
 20
18.302
 21
18.365
  0
LINE
  8
0
 10
-0.375
 11
-0.126
 20
18.365
 21
18.396
  0
LINE
  8
0
 10
-0.126
 11
0.126
 20
18.396
 21
18.396
  0
LINE
  8
0
 10
0.126
 11
0.375
 20
18.396
 21
18.365
  0
LINE
  8
0
 10
0.375
 11
0.618
 20
18.365
 21
18.302
  0
LINE
  8
0
 10
0.618
 11
0.852
 20
18.302
 21
18.21
  0
LINE
  8
0
 10
0.852
 11
1.072
 20
18.21
 21
18.089
  0
LINE
  8
0
 10
1.072
 11
1.275
 20
18.089
 21
17.941
  0
LINE
  8
0
 10
1.275
 11
1.458
 20
17.941
 21
17.769
  0
LINE
  8
0
 10
1.458
 11
1.618
 20
17.769
 21
17.576
  0
LINE
  8
0
 10
1.618
 11
1.753
 20
17.576
 21
17.364
  0
LINE
  8
0
 10
1.753
 11
1.86
 20
17.364
 21
17.136
  0
LINE
  8
0
 10
1.86
 11
1.937
 20
17.136
 21
16.897
  0
LINE
  8
0
 10
1.937
 11
1.984
 20
16.897
 21
16.651
  0
LINE
  8
0
 10
1.984
 11
2
 20
16.651
 21
16.4
  0
LINE
  8
0
 10
2
 11
1.984
 20
16.4
 21
16.149
  0
LINE
  8
0
 10
1.984
 11
1.937
 20
16.149
 21
15.903
  0
LINE
  8
0
 10
1.937
 11
1.86
 20
15.903
 21
15.664
  0
LINE
  8
0
 10
1.86
 11
1.753
 20
15.664
 21
15.436
  0
LINE
  8
0
 10
1.753
 11
1.618
 20
15.436
 21
15.224
  0
LINE
  8
0
 10
1.618
 11
1.458
 20
15.224
 21
15.031
  0
LINE
  8
0
 10
1.458
 11
1.275
 20
15.031
 21
14.859
  0
LINE
  8
0
 10
1.275
 11
1.072
 20
14.859
 21
14.711
  0
LINE
  8
0
 10
1.072
 11
0.852
 20
14.711
 21
14.59
  0
LINE
  8
0
 10
0.852
 11
0.618
 20
14.59
 21
14.498
  0
LINE
  8
0
 10
0.618
 11
0.375
 20
14.498
 21
14.435
  0
LINE
  8
0
 10
0.375
 11
0.126
 20
14.435
 21
14.404
  0
LINE
  8
0
 10
0.126
 11
-0.126
 20
14.404
 21
14.404
  0
LINE
  8
0
 10
-0.126
 11
-0.375
 20
14.404
 21
14.435
  0
LINE
  8
0
 10
-0.375
 11
-0.618
 20
14.435
 21
14.498
  0
LINE
  8
0
 10
-0.618
 11
-0.852
 20
14.498
 21
14.59
  0
LINE
  8
0
 10
-0.852
 11
-1.072
 20
14.59
 21
14.711
  0
LINE
  8
0
 10
-1.072
 11
-1.275
 20
14.711
 21
14.859
  0
LINE
  8
0
 10
-1.275
 11
-1.458
 20
14.859
 21
15.031
  0
LINE
  8
0
 10
-1.458
 11
-1.618
 20
15.031
 21
15.224
  0
LINE
  8
0
 10
-1.618
 11
-1.753
 20
15.224
 21
15.436
  0
LINE
  8
0
 10
-1.753
 11
-1.86
 20
15.436
 21
15.664
  0
LINE
  8
0
 10
-1.86
 11
-1.937
 20
15.664
 21
15.903
  0
LINE
  8
0
 10
-1.937
 11
-1.984
 20
15.903
 21
16.149
  0
LINE
  8
0
 10
-1.984
 11
-2
 20
16.149
 21
16.4
  0
LINE
  8
0
 10
-2
 11
-1.984
 20
24.6
 21
24.851
  0
LINE
  8
0
 10
-1.984
 11
-1.937
 20
24.851
 21
25.097
  0
LINE
  8
0
 10
-1.937
 11
-1.86
 20
25.097
 21
25.336
  0
LINE
  8
0
 10
-1.86
 11
-1.753
 20
25.336
 21
25.564
  0
LINE
  8
0
 10
-1.753
 11
-1.618
 20
25.564
 21
25.776
  0
LINE
  8
0
 10
-1.618
 11
-1.458
 20
25.776
 21
25.969
  0
LINE
  8
0
 10
-1.458
 11
-1.275
 20
25.969
 21
26.141
  0
LINE
  8
0
 10
-1.275
 11
-1.072
 20
26.141
 21
26.289
  0
LINE
  8
0
 10
-1.072
 11
-0.852
 20
26.289
 21
26.41
  0
LINE
  8
0
 10
-0.852
 11
-0.618
 20
26.41
 21
26.502
  0
LINE
  8
0
 10
-0.618
 11
-0.375
 20
26.502
 21
26.565
  0
LINE
  8
0
 10
-0.375
 11
-0.126
 20
26.565
 21
26.596
  0
LINE
  8
0
 10
-0.126
 11
0.126
 20
26.596
 21
26.596
  0
LINE
  8
0
 10
0.126
 11
0.375
 20
26.596
 21
26.565
  0
LINE
  8
0
 10
0.375
 11
0.618
 20
26.565
 21
26.502
  0
LINE
  8
0
 10
0.618
 11
0.852
 20
26.502
 21
26.41
  0
LINE
  8
0
 10
0.852
 11
1.072
 20
26.41
 21
26.289
  0
LINE
  8
0
 10
1.072
 11
1.275
 20
26.289
 21
26.141
  0
LINE
  8
0
 10
1.275
 11
1.458
 20
26.141
 21
25.969
  0
LINE
  8
0
 10
1.458
 11
1.618
 20
25.969
 21
25.776
  0
LINE
  8
0
 10
1.618
 11
1.753
 20
25.776
 21
25.564
  0
LINE
  8
0
 10
1.753
 11
1.86
 20
25.564
 21
25.336
  0
LINE
  8
0
 10
1.86
 11
1.937
 20
25.336
 21
25.097
  0
LINE
  8
0
 10
1.937
 11
1.984
 20
25.097
 21
24.851
  0
LINE
  8
0
 10
1.984
 11
2
 20
24.851
 21
24.6
  0
LINE
  8
0
 10
2
 11
1.984
 20
24.6
 21
24.349
  0
LINE
  8
0
 10
1.984
 11
1.937
 20
24.349
 21
24.103
  0
LINE
  8
0
 10
1.937
 11
1.86
 20
24.103
 21
23.864
  0
LINE
  8
0
 10
1.86
 11
1.753
 20
23.864
 21
23.636
  0
LINE
  8
0
 10
1.753
 11
1.618
 20
23.636
 21
23.424
  0
LINE
  8
0
 10
1.618
 11
1.458
 20
23.424
 21
23.231
  0
LINE
  8
0
 10
1.458
 11
1.275
 20
23.231
 21
23.059
  0
LINE
  8
0
 10
1.275
 11
1.072
 20
23.059
 21
22.911
  0
LINE
  8
0
 10
1.072
 11
0.852
 20
22.911
 21
22.79
  0
LINE
  8
0
 10
0.852
 11
0.618
 20
22.79
 21
22.698
  0
LINE
  8
0
 10
0.618
 11
0.375
 20
22.698
 21
22.635
  0
LINE
  8
0
 10
0.375
 11
0.126
 20
22.635
 21
22.604
  0
LINE
  8
0
 10
0.126
 11
-0.126
 20
22.604
 21
22.604
  0
LINE
  8
0
 10
-0.126
 11
-0.375
 20
22.604
 21
22.635
  0
LINE
  8
0
 10
-0.375
 11
-0.618
 20
22.635
 21
22.698
  0
LINE
  8
0
 10
-0.618
 11
-0.852
 20
22.698
 21
22.79
  0
LINE
  8
0
 10
-0.852
 11
-1.072
 20
22.79
 21
22.911
  0
LINE
  8
0
 10
-1.072
 11
-1.275
 20
22.911
 21
23.059
  0
LINE
  8
0
 10
-1.275
 11
-1.458
 20
23.059
 21
23.231
  0
LINE
  8
0
 10
-1.458
 11
-1.618
 20
23.231
 21
23.424
  0
LINE
  8
0
 10
-1.618
 11
-1.753
 20
23.424
 21
23.636
  0
LINE
  8
0
 10
-1.753
 11
-1.86
 20
23.636
 21
23.864
  0
LINE
  8
0
 10
-1.86
 11
-1.937
 20
23.864
 21
24.103
  0
LINE
  8
0
 10
-1.937
 11
-1.984
 20
24.103
 21
24.349
  0
LINE
  8
0
 10
-1.984
 11
-2
 20
24.349
 21
24.6
  0
LINE
  8
0
 10
-2
 11
-1.984
 20
32.8
 21
33.051
  0
LINE
  8
0
 10
-1.984
 11
-1.937
 20
33.051
 21
33.297
  0
LINE
  8
0
 10
-1.937
 11
-1.86
 20
33.297
 21
33.536
  0
LINE
  8
0
 10
-1.86
 11
-1.753
 20
33.536
 21
33.764
  0
LINE
  8
0
 10
-1.753
 11
-1.618
 20
33.764
 21
33.976
  0
LINE
  8
0
 10
-1.618
 11
-1.458
 20
33.976
 21
34.169
  0
LINE
  8
0
 10
-1.458
 11
-1.275
 20
34.169
 21
34.341
  0
LINE
  8
0
 10
-1.275
 11
-1.072
 20
34.341
 21
34.489
  0
LINE
  8
0
 10
-1.072
 11
-0.852
 20
34.489
 21
34.61
  0
LINE
  8
0
 10
-0.852
 11
-0.618
 20
34.61
 21
34.702
  0
LINE
  8
0
 10
-0.618
 11
-0.375
 20
34.702
 21
34.765
  0
LINE
  8
0
 10
-0.375
 11
-0.126
 20
34.765
 21
34.796
  0
LINE
  8
0
 10
-0.126
 11
0.126
 20
34.796
 21
34.796
  0
LINE
  8
0
 10
0.126
 11
0.375
 20
34.796
 21
34.765
  0
LINE
  8
0
 10
0.375
 11
0.618
 20
34.765
 21
34.702
  0
LINE
  8
0
 10
0.618
 11
0.852
 20
34.702
 21
34.61
  0
LINE
  8
0
 10
0.852
 11
1.072
 20
34.61
 21
34.489
  0
LINE
  8
0
 10
1.072
 11
1.275
 20
34.489
 21
34.341
  0
LINE
  8
0
 10
1.275
 11
1.458
 20
34.341
 21
34.169
  0
LINE
  8
0
 10
1.458
 11
1.618
 20
34.169
 21
33.976
  0
LINE
  8
0
 10
1.618
 11
1.753
 20
33.976
 21
33.764
  0
LINE
  8
0
 10
1.753
 11
1.86
 20
33.764
 21
33.536
  0
LINE
  8
0
 10
1.86
 11
1.937
 20
33.536
 21
33.297
  0
LINE
  8
0
 10
1.937
 11
1.984
 20
33.297
 21
33.051
  0
LINE
  8
0
 10
1.984
 11
2
 20
33.051
 21
32.8
  0
LINE
  8
0
 10
2
 11
1.984
 20
32.8
 21
32.549
  0
LINE
  8
0
 10
1.984
 11
1.937
 20
32.549
 21
32.303
  0
LINE
  8
0
 10
1.937
 11
1.86
 20
32.303
 21
32.064
  0
LINE
  8
0
 10
1.86
 11
1.753
 20
32.064
 21
31.836
  0
LINE
  8
0
 10
1.753
 11
1.618
 20
31.836
 21
31.624
  0
LINE
  8
0
 10
1.618
 11
1.458
 20
31.624
 21
31.431
  0
LINE
  8
0
 10
1.458
 11
1.275
 20
31.431
 21
31.259
  0
LINE
  8
0
 10
1.275
 11
1.072
 20
31.259
 21
31.111
  0
LINE
  8
0
 10
1.072
 11
0.852
 20
31.111
 21
30.99
  0
LINE
  8
0
 10
0.852
 11
0.618
 20
30.99
 21
30.898
  0
LINE
  8
0
 10
0.618
 11
0.375
 20
30.898
 21
30.835
  0
LINE
  8
0
 10
0.375
 11
0.126
 20
30.835
 21
30.804
  0
LINE
  8
0
 10
0.126
 11
-0.126
 20
30.804
 21
30.804
  0
LINE
  8
0
 10
-0.126
 11
-0.375
 20
30.804
 21
30.835
  0
LINE
  8
0
 10
-0.375
 11
-0.618
 20
30.835
 21
30.898
  0
LINE
  8
0
 10
-0.618
 11
-0.852
 20
30.898
 21
30.99
  0
LINE
  8
0
 10
-0.852
 11
-1.072
 20
30.99
 21
31.111
  0
LINE
  8
0
 10
-1.072
 11
-1.275
 20
31.111
 21
31.259
  0
LINE
  8
0
 10
-1.275
 11
-1.458
 20
31.259
 21
31.431
  0
LINE
  8
0
 10
-1.458
 11
-1.618
 20
31.431
 21
31.624
  0
LINE
  8
0
 10
-1.618
 11
-1.753
 20
31.624
 21
31.836
  0
LINE
  8
0
 10
-1.753
 11
-1.86
 20
31.836
 21
32.064
  0
LINE
  8
0
 10
-1.86
 11
-1.937
 20
32.064
 21
32.303
  0
LINE
  8
0
 10
-1.937
 11
-1.984
 20
32.303
 21
32.549
  0
LINE
  8
0
 10
-1.984
 11
-2
 20
32.549
 21
32.8
  0
LINE
  8
0
 10
-2
 11
-1.984
 20
41
 21
41.251
  0
LINE
  8
0
 10
-1.984
 11
-1.937
 20
41.251
 21
41.497
  0
LINE
  8
0
 10
-1.937
 11
-1.86
 20
41.497
 21
41.736
  0
LINE
  8
0
 10
-1.86
 11
-1.753
 20
41.736
 21
41.964
  0
LINE
  8
0
 10
-1.753
 11
-1.618
 20
41.964
 21
42.176
  0
LINE
  8
0
 10
-1.618
 11
-1.458
 20
42.176
 21
42.369
  0
LINE
  8
0
 10
-1.458
 11
-1.275
 20
42.369
 21
42.541
  0
LINE
  8
0
 10
-1.275
 11
-1.072
 20
42.541
 21
42.689
  0
LINE
  8
0
 10
-1.072
 11
-0.852
 20
42.689
 21
42.81
  0
LINE
  8
0
 10
-0.852
 11
-0.618
 20
42.81
 21
42.902
  0
LINE
  8
0
 10
-0.618
 11
-0.375
 20
42.902
 21
42.965
  0
LINE
  8
0
 10
-0.375
 11
-0.126
 20
42.965
 21
42.996
  0
LINE
  8
0
 10
-0.126
 11
0.126
 20
42.996
 21
42.996
  0
LINE
  8
0
 10
0.126
 11
0.375
 20
42.996
 21
42.965
  0
LINE
  8
0
 10
0.375
 11
0.618
 20
42.965
 21
42.902
  0
LINE
  8
0
 10
0.618
 11
0.852
 20
42.902
 21
42.81
  0
LINE
  8
0
 10
0.852
 11
1.072
 20
42.81
 21
42.689
  0
LINE
  8
0
 10
1.072
 11
1.275
 20
42.689
 21
42.541
  0
LINE
  8
0
 10
1.275
 11
1.458
 20
42.541
 21
42.369
  0
LINE
  8
0
 10
1.458
 11
1.618
 20
42.369
 21
42.176
  0
LINE
  8
0
 10
1.618
 11
1.753
 20
42.176
 21
41.964
  0
LINE
  8
0
 10
1.753
 11
1.86
 20
41.964
 21
41.736
  0
LINE
  8
0
 10
1.86
 11
1.937
 20
41.736
 21
41.497
  0
LINE
  8
0
 10
1.937
 11
1.984
 20
41.497
 21
41.251
  0
LINE
  8
0
 10
1.984
 11
2
 20
41.251
 21
41
  0
LINE
  8
0
 10
2
 11
1.984
 20
41
 21
40.749
  0
LINE
  8
0
 10
1.984
 11
1.937
 20
40.749
 21
40.503
  0
LINE
  8
0
 10
1.937
 11
1.86
 20
40.503
 21
40.264
  0
LINE
  8
0
 10
1.86
 11
1.753
 20
40.264
 21
40.036
  0
LINE
  8
0
 10
1.753
 11
1.618
 20
40.036
 21
39.824
  0
LINE
  8
0
 10
1.618
 11
1.458
 20
39.824
 21
39.631
  0
LINE
  8
0
 10
1.458
 11
1.275
 20
39.631
 21
39.459
  0
LINE
  8
0
 10
1.275
 11
1.072
 20
39.459
 21
39.311
  0
LINE
  8
0
 10
1.072
 11
0.852
 20
39.311
 21
39.19
  0
LINE
  8
0
 10
0.852
 11
0.618
 20
39.19
 21
39.098
  0
LINE
  8
0
 10
0.618
 11
0.375
 20
39.098
 21
39.035
  0
LINE
  8
0
 10
0.375
 11
0.126
 20
39.035
 21
39.004
  0
LINE
  8
0
 10
0.126
 11
-0.126
 20
39.004
 21
39.004
  0
LINE
  8
0
 10
-0.126
 11
-0.375
 20
39.004
 21
39.035
  0
LINE
  8
0
 10
-0.375
 11
-0.618
 20
39.035
 21
39.098
  0
LINE
  8
0
 10
-0.618
 11
-0.852
 20
39.098
 21
39.19
  0
LINE
  8
0
 10
-0.852
 11
-1.072
 20
39.19
 21
39.311
  0
LINE
  8
0
 10
-1.072
 11
-1.275
 20
39.311
 21
39.459
  0
LINE
  8
0
 10
-1.275
 11
-1.458
 20
39.459
 21
39.631
  0
LINE
  8
0
 10
-1.458
 11
-1.618
 20
39.631
 21
39.824
  0
LINE
  8
0
 10
-1.618
 11
-1.753
 20
39.824
 21
40.036
  0
LINE
  8
0
 10
-1.753
 11
-1.86
 20
40.036
 21
40.264
  0
LINE
  8
0
 10
-1.86
 11
-1.937
 20
40.264
 21
40.503
  0
LINE
  8
0
 10
-1.937
 11
-1.984
 20
40.503
 21
40.749
  0
LINE
  8
0
 10
-1.984
 11
-2
 20
40.749
 21
41
  0
LINE
  8
0
 10
4.2
 11
4.232
 20
0
 21
0.501
  0
LINE
  8
0
 10
4.232
 11
4.326
 20
0.501
 21
0.995
  0
LINE
  8
0
 10
4.326
 11
4.481
 20
0.995
 21
1.472
  0
LINE
  8
0
 10
4.481
 11
4.695
 20
1.472
 21
1.927
  0
LINE
  8
0
 10
4.695
 11
4.964
 20
1.927
 21
2.351
  0
LINE
  8
0
 10
4.964
 11
5.284
 20
2.351
 21
2.738
  0
LINE
  8
0
 10
5.284
 11
5.65
 20
2.738
 21
3.082
  0
LINE
  8
0
 10
5.65
 11
6.057
 20
3.082
 21
3.377
  0
LINE
  8
0
 10
6.057
 11
6.497
 20
3.377
 21
3.619
  0
LINE
  8
0
 10
6.497
 11
6.964
 20
3.619
 21
3.804
  0
LINE
  8
0
 10
6.964
 11
7.45
 20
3.804
 21
3.929
  0
LINE
  8
0
 10
7.45
 11
7.949
 20
3.929
 21
3.992
  0
LINE
  8
0
 10
7.949
 11
8.451
 20
3.992
 21
3.992
  0
LINE
  8
0
 10
8.451
 11
8.95
 20
3.992
 21
3.929
  0
LINE
  8
0
 10
8.95
 11
9.436
 20
3.929
 21
3.804
  0
LINE
  8
0
 10
9.436
 11
9.903
 20
3.804
 21
3.619
  0
LINE
  8
0
 10
9.903
 11
10.343
 20
3.619
 21
3.377
  0
LINE
  8
0
 10
10.343
 11
10.75
 20
3.377
 21
3.082
  0
LINE
  8
0
 10
10.75
 11
11.116
 20
3.082
 21
2.738
  0
LINE
  8
0
 10
11.116
 11
11.436
 20
2.738
 21
2.351
  0
LINE
  8
0
 10
11.436
 11
11.705
 20
2.351
 21
1.927
  0
LINE
  8
0
 10
11.705
 11
11.919
 20
1.927
 21
1.472
  0
LINE
  8
0
 10
11.919
 11
12.074
 20
1.472
 21
0.995
  0
LINE
  8
0
 10
12.074
 11
12.168
 20
0.995
 21
0.501
  0
LINE
  8
0
 10
12.168
 11
12.2
 20
0.501
 21
0
  0
LINE
  8
0
 10
12.2
 11
12.168
 20
0
 21
-0.501
  0
LINE
  8
0
 10
12.168
 11
12.074
 20
-0.501
 21
-0.995
  0
LINE
  8
0
 10
12.074
 11
11.919
 20
-0.995
 21
-1.472
  0
LINE
  8
0
 10
11.919
 11
11.705
 20
-1.472
 21
-1.927
  0
LINE
  8
0
 10
11.705
 11
11.436
 20
-1.927
 21
-2.351
  0
LINE
  8
0
 10
11.436
 11
11.116
 20
-2.351
 21
-2.738
  0
LINE
  8
0
 10
11.116
 11
10.75
 20
-2.738
 21
-3.082
  0
LINE
  8
0
 10
10.75
 11
10.343
 20
-3.082
 21
-3.377
  0
LINE
  8
0
 10
10.343
 11
9.903
 20
-3.377
 21
-3.619
  0
LINE
  8
0
 10
9.903
 11
9.436
 20
-3.619
 21
-3.804
  0
LINE
  8
0
 10
9.436
 11
8.95
 20
-3.804
 21
-3.929
  0
LINE
  8
0
 10
8.95
 11
8.451
 20
-3.929
 21
-3.992
  0
LINE
  8
0
 10
8.451
 11
7.949
 20
-3.992
 21
-3.992
  0
LINE
  8
0
 10
7.949
 11
7.45
 20
-3.992
 21
-3.929
  0
LINE
  8
0
 10
7.45
 11
6.964
 20
-3.929
 21
-3.804
  0
LINE
  8
0
 10
6.964
 11
6.497
 20
-3.804
 21
-3.619
  0
LINE
  8
0
 10
6.497
 11
6.057
 20
-3.619
 21
-3.377
  0
LINE
  8
0
 10
6.057
 11
5.65
 20
-3.377
 21
-3.082
  0
LINE
  8
0
 10
5.65
 11
5.284
 20
-3.082
 21
-2.738
  0
LINE
  8
0
 10
5.284
 11
4.964
 20
-2.738
 21
-2.351
  0
LINE
  8
0
 10
4.964
 11
4.695
 20
-2.351
 21
-1.927
  0
LINE
  8
0
 10
4.695
 11
4.481
 20
-1.927
 21
-1.472
  0
LINE
  8
0
 10
4.481
 11
4.326
 20
-1.472
 21
-0.995
  0
LINE
  8
0
 10
4.326
 11
4.232
 20
-0.995
 21
-0.501
  0
LINE
  8
0
 10
4.232
 11
4.2
 20
-0.501
 21
0
  0
LINE
  8
0
 10
4.2
 11
4.232
 20
8.2
 21
8.701
  0
LINE
  8
0
 10
4.232
 11
4.326
 20
8.701
 21
9.195
  0
LINE
  8
0
 10
4.326
 11
4.481
 20
9.195
 21
9.672
  0
LINE
  8
0
 10
4.481
 11
4.695
 20
9.672
 21
10.127
  0
LINE
  8
0
 10
4.695
 11
4.964
 20
10.127
 21
10.551
  0
LINE
  8
0
 10
4.964
 11
5.284
 20
10.551
 21
10.938
  0
LINE
  8
0
 10
5.284
 11
5.65
 20
10.938
 21
11.282
  0
LINE
  8
0
 10
5.65
 11
6.057
 20
11.282
 21
11.577
  0
LINE
  8
0
 10
6.057
 11
6.497
 20
11.577
 21
11.819
  0
LINE
  8
0
 10
6.497
 11
6.964
 20
11.819
 21
12.004
  0
LINE
  8
0
 10
6.964
 11
7.45
 20
12.004
 21
12.129
  0
LINE
  8
0
 10
7.45
 11
7.949
 20
12.129
 21
12.192
  0
LINE
  8
0
 10
7.949
 11
8.451
 20
12.192
 21
12.192
  0
LINE
  8
0
 10
8.451
 11
8.95
 20
12.192
 21
12.129
  0
LINE
  8
0
 10
8.95
 11
9.436
 20
12.129
 21
12.004
  0
LINE
  8
0
 10
9.436
 11
9.903
 20
12.004
 21
11.819
  0
LINE
  8
0
 10
9.903
 11
10.343
 20
11.819
 21
11.577
  0
LINE
  8
0
 10
10.343
 11
10.75
 20
11.577
 21
11.282
  0
LINE
  8
0
 10
10.75
 11
11.116
 20
11.282
 21
10.938
  0
LINE
  8
0
 10
11.116
 11
11.436
 20
10.938
 21
10.551
  0
LINE
  8
0
 10
11.436
 11
11.705
 20
10.551
 21
10.127
  0
LINE
  8
0
 10
11.705
 11
11.919
 20
10.127
 21
9.672
  0
LINE
  8
0
 10
11.919
 11
12.074
 20
9.672
 21
9.195
  0
LINE
  8
0
 10
12.074
 11
12.168
 20
9.195
 21
8.701
  0
LINE
  8
0
 10
12.168
 11
12.2
 20
8.701
 21
8.2
  0
LINE
  8
0
 10
12.2
 11
12.168
 20
8.2
 21
7.699
  0
LINE
  8
0
 10
12.168
 11
12.074
 20
7.699
 21
7.205
  0
LINE
  8
0
 10
12.074
 11
11.919
 20
7.205
 21
6.728
  0
LINE
  8
0
 10
11.919
 11
11.705
 20
6.728
 21
6.273
  0
LINE
  8
0
 10
11.705
 11
11.436
 20
6.273
 21
5.849
  0
LINE
  8
0
 10
11.436
 11
11.116
 20
5.849
 21
5.462
  0
LINE
  8
0
 10
11.116
 11
10.75
 20
5.462
 21
5.118
  0
LINE
  8
0
 10
10.75
 11
10.343
 20
5.118
 21
4.823
  0
LINE
  8
0
 10
10.343
 11
9.903
 20
4.823
 21
4.581
  0
LINE
  8
0
 10
9.903
 11
9.436
 20
4.581
 21
4.396
  0
LINE
  8
0
 10
9.436
 11
8.95
 20
4.396
 21
4.271
  0
LINE
  8
0
 10
8.95
 11
8.451
 20
4.271
 21
4.208
  0
LINE
  8
0
 10
8.451
 11
7.949
 20
4.208
 21
4.208
  0
LINE
  8
0
 10
7.949
 11
7.45
 20
4.208
 21
4.271
  0
LINE
  8
0
 10
7.45
 11
6.964
 20
4.271
 21
4.396
  0
LINE
  8
0
 10
6.964
 11
6.497
 20
4.396
 21
4.581
  0
LINE
  8
0
 10
6.497
 11
6.057
 20
4.581
 21
4.823
  0
LINE
  8
0
 10
6.057
 11
5.65
 20
4.823
 21
5.118
  0
LINE
  8
0
 10
5.65
 11
5.284
 20
5.118
 21
5.462
  0
LINE
  8
0
 10
5.284
 11
4.964
 20
5.462
 21
5.849
  0
LINE
  8
0
 10
4.964
 11
4.695
 20
5.849
 21
6.273
  0
LINE
  8
0
 10
4.695
 11
4.481
 20
6.273
 21
6.728
  0
LINE
  8
0
 10
4.481
 11
4.326
 20
6.728
 21
7.205
  0
LINE
  8
0
 10
4.326
 11
4.232
 20
7.205
 21
7.699
  0
LINE
  8
0
 10
4.232
 11
4.2
 20
7.699
 21
8.2
  0
LINE
  8
0
 10
4.2
 11
4.232
 20
16.4
 21
16.901
  0
LINE
  8
0
 10
4.232
 11
4.326
 20
16.901
 21
17.395
  0
LINE
  8
0
 10
4.326
 11
4.481
 20
17.395
 21
17.872
  0
LINE
  8
0
 10
4.481
 11
4.695
 20
17.872
 21
18.327
  0
LINE
  8
0
 10
4.695
 11
4.964
 20
18.327
 21
18.751
  0
LINE
  8
0
 10
4.964
 11
5.284
 20
18.751
 21
19.138
  0
LINE
  8
0
 10
5.284
 11
5.65
 20
19.138
 21
19.482
  0
LINE
  8
0
 10
5.65
 11
6.057
 20
19.482
 21
19.777
  0
LINE
  8
0
 10
6.057
 11
6.497
 20
19.777
 21
20.019
  0
LINE
  8
0
 10
6.497
 11
6.964
 20
20.019
 21
20.204
  0
LINE
  8
0
 10
6.964
 11
7.45
 20
20.204
 21
20.329
  0
LINE
  8
0
 10
7.45
 11
7.949
 20
20.329
 21
20.392
  0
LINE
  8
0
 10
7.949
 11
8.451
 20
20.392
 21
20.392
  0
LINE
  8
0
 10
8.451
 11
8.95
 20
20.392
 21
20.329
  0
LINE
  8
0
 10
8.95
 11
9.436
 20
20.329
 21
20.204
  0
LINE
  8
0
 10
9.436
 11
9.903
 20
20.204
 21
20.019
  0
LINE
  8
0
 10
9.903
 11
10.343
 20
20.019
 21
19.777
  0
LINE
  8
0
 10
10.343
 11
10.75
 20
19.777
 21
19.482
  0
LINE
  8
0
 10
10.75
 11
11.116
 20
19.482
 21
19.138
  0
LINE
  8
0
 10
11.116
 11
11.436
 20
19.138
 21
18.751
  0
LINE
  8
0
 10
11.436
 11
11.705
 20
18.751
 21
18.327
  0
LINE
  8
0
 10
11.705
 11
11.919
 20
18.327
 21
17.872
  0
LINE
  8
0
 10
11.919
 11
12.074
 20
17.872
 21
17.395
  0
LINE
  8
0
 10
12.074
 11
12.168
 20
17.395
 21
16.901
  0
LINE
  8
0
 10
12.168
 11
12.2
 20
16.901
 21
16.4
  0
LINE
  8
0
 10
12.2
 11
12.168
 20
16.4
 21
15.899
  0
LINE
  8
0
 10
12.168
 11
12.074
 20
15.899
 21
15.405
  0
LINE
  8
0
 10
12.074
 11
11.919
 20
15.405
 21
14.928
  0
LINE
  8
0
 10
11.919
 11
11.705
 20
14.928
 21
14.473
  0
LINE
  8
0
 10
11.705
 11
11.436
 20
14.473
 21
14.049
  0
LINE
  8
0
 10
11.436
 11
11.116
 20
14.049
 21
13.662
  0
LINE
  8
0
 10
11.116
 11
10.75
 20
13.662
 21
13.318
  0
LINE
  8
0
 10
10.75
 11
10.343
 20
13.318
 21
13.023
  0
LINE
  8
0
 10
10.343
 11
9.903
 20
13.023
 21
12.781
  0
LINE
  8
0
 10
9.903
 11
9.436
 20
12.781
 21
12.596
  0
LINE
  8
0
 10
9.436
 11
8.95
 20
12.596
 21
12.471
  0
LINE
  8
0
 10
8.95
 11
8.451
 20
12.471
 21
12.408
  0
LINE
  8
0
 10
8.451
 11
7.949
 20
12.408
 21
12.408
  0
LINE
  8
0
 10
7.949
 11
7.45
 20
12.408
 21
12.471
  0
LINE
  8
0
 10
7.45
 11
6.964
 20
12.471
 21
12.596
  0
LINE
  8
0
 10
6.964
 11
6.497
 20
12.596
 21
12.781
  0
LINE
  8
0
 10
6.497
 11
6.057
 20
12.781
 21
13.023
  0
LINE
  8
0
 10
6.057
 11
5.65
 20
13.023
 21
13.318
  0
LINE
  8
0
 10
5.65
 11
5.284
 20
13.318
 21
13.662
  0
LINE
  8
0
 10
5.284
 11
4.964
 20
13.662
 21
14.049
  0
LINE
  8
0
 10
4.964
 11
4.695
 20
14.049
 21
14.473
  0
LINE
  8
0
 10
4.695
 11
4.481
 20
14.473
 21
14.928
  0
LINE
  8
0
 10
4.481
 11
4.326
 20
14.928
 21
15.405
  0
LINE
  8
0
 10
4.326
 11
4.232
 20
15.405
 21
15.899
  0
LINE
  8
0
 10
4.232
 11
4.2
 20
15.899
 21
16.4
  0
LINE
  8
0
 10
4.2
 11
4.232
 20
24.6
 21
25.101
  0
LINE
  8
0
 10
4.232
 11
4.326
 20
25.101
 21
25.595
  0
LINE
  8
0
 10
4.326
 11
4.481
 20
25.595
 21
26.072
  0
LINE
  8
0
 10
4.481
 11
4.695
 20
26.072
 21
26.527
  0
LINE
  8
0
 10
4.695
 11
4.964
 20
26.527
 21
26.951
  0
LINE
  8
0
 10
4.964
 11
5.284
 20
26.951
 21
27.338
  0
LINE
  8
0
 10
5.284
 11
5.65
 20
27.338
 21
27.682
  0
LINE
  8
0
 10
5.65
 11
6.057
 20
27.682
 21
27.977
  0
LINE
  8
0
 10
6.057
 11
6.497
 20
27.977
 21
28.219
  0
LINE
  8
0
 10
6.497
 11
6.964
 20
28.219
 21
28.404
  0
LINE
  8
0
 10
6.964
 11
7.45
 20
28.404
 21
28.529
  0
LINE
  8
0
 10
7.45
 11
7.949
 20
28.529
 21
28.592
  0
LINE
  8
0
 10
7.949
 11
8.451
 20
28.592
 21
28.592
  0
LINE
  8
0
 10
8.451
 11
8.95
 20
28.592
 21
28.529
  0
LINE
  8
0
 10
8.95
 11
9.436
 20
28.529
 21
28.404
  0
LINE
  8
0
 10
9.436
 11
9.903
 20
28.404
 21
28.219
  0
LINE
  8
0
 10
9.903
 11
10.343
 20
28.219
 21
27.977
  0
LINE
  8
0
 10
10.343
 11
10.75
 20
27.977
 21
27.682
  0
LINE
  8
0
 10
10.75
 11
11.116
 20
27.682
 21
27.338
  0
LINE
  8
0
 10
11.116
 11
11.436
 20
27.338
 21
26.951
  0
LINE
  8
0
 10
11.436
 11
11.705
 20
26.951
 21
26.527
  0
LINE
  8
0
 10
11.705
 11
11.919
 20
26.527
 21
26.072
  0
LINE
  8
0
 10
11.919
 11
12.074
 20
26.072
 21
25.595
  0
LINE
  8
0
 10
12.074
 11
12.168
 20
25.595
 21
25.101
  0
LINE
  8
0
 10
12.168
 11
12.2
 20
25.101
 21
24.6
  0
LINE
  8
0
 10
12.2
 11
12.168
 20
24.6
 21
24.099
  0
LINE
  8
0
 10
12.168
 11
12.074
 20
24.099
 21
23.605
  0
LINE
  8
0
 10
12.074
 11
11.919
 20
23.605
 21
23.128
  0
LINE
  8
0
 10
11.919
 11
11.705
 20
23.128
 21
22.673
  0
LINE
  8
0
 10
11.705
 11
11.436
 20
22.673
 21
22.249
  0
LINE
  8
0
 10
11.436
 11
11.116
 20
22.249
 21
21.862
  0
LINE
  8
0
 10
11.116
 11
10.75
 20
21.862
 21
21.518
  0
LINE
  8
0
 10
10.75
 11
10.343
 20
21.518
 21
21.223
  0
LINE
  8
0
 10
10.343
 11
9.903
 20
21.223
 21
20.981
  0
LINE
  8
0
 10
9.903
 11
9.436
 20
20.981
 21
20.796
  0
LINE
  8
0
 10
9.436
 11
8.95
 20
20.796
 21
20.671
  0
LINE
  8
0
 10
8.95
 11
8.451
 20
20.671
 21
20.608
  0
LINE
  8
0
 10
8.451
 11
7.949
 20
20.608
 21
20.608
  0
LINE
  8
0
 10
7.949
 11
7.45
 20
20.608
 21
20.671
  0
LINE
  8
0
 10
7.45
 11
6.964
 20
20.671
 21
20.796
  0
LINE
  8
0
 10
6.964
 11
6.497
 20
20.796
 21
20.981
  0
LINE
  8
0
 10
6.497
 11
6.057
 20
20.981
 21
21.223
  0
LINE
  8
0
 10
6.057
 11
5.65
 20
21.223
 21
21.518
  0
LINE
  8
0
 10
5.65
 11
5.284
 20
21.518
 21
21.862
  0
LINE
  8
0
 10
5.284
 11
4.964
 20
21.862
 21
22.249
  0
LINE
  8
0
 10
4.964
 11
4.695
 20
22.249
 21
22.673
  0
LINE
  8
0
 10
4.695
 11
4.481
 20
22.673
 21
23.128
  0
LINE
  8
0
 10
4.481
 11
4.326
 20
23.128
 21
23.605
  0
LINE
  8
0
 10
4.326
 11
4.232
 20
23.605
 21
24.099
  0
LINE
  8
0
 10
4.232
 11
4.2
 20
24.099
 21
24.6
  0
LINE
  8
0
 10
4.2
 11
4.232
 20
32.8
 21
33.301
  0
LINE
  8
0
 10
4.232
 11
4.326
 20
33.301
 21
33.795
  0
LINE
  8
0
 10
4.326
 11
4.481
 20
33.795
 21
34.272
  0
LINE
  8
0
 10
4.481
 11
4.695
 20
34.272
 21
34.727
  0
LINE
  8
0
 10
4.695
 11
4.964
 20
34.727
 21
35.151
  0
LINE
  8
0
 10
4.964
 11
5.284
 20
35.151
 21
35.538
  0
LINE
  8
0
 10
5.284
 11
5.65
 20
35.538
 21
35.882
  0
LINE
  8
0
 10
5.65
 11
6.057
 20
35.882
 21
36.177
  0
LINE
  8
0
 10
6.057
 11
6.497
 20
36.177
 21
36.419
  0
LINE
  8
0
 10
6.497
 11
6.964
 20
36.419
 21
36.604
  0
LINE
  8
0
 10
6.964
 11
7.45
 20
36.604
 21
36.729
  0
LINE
  8
0
 10
7.45
 11
7.949
 20
36.729
 21
36.792
  0
LINE
  8
0
 10
7.949
 11
8.451
 20
36.792
 21
36.792
  0
LINE
  8
0
 10
8.451
 11
8.95
 20
36.792
 21
36.729
  0
LINE
  8
0
 10
8.95
 11
9.436
 20
36.729
 21
36.604
  0
LINE
  8
0
 10
9.436
 11
9.903
 20
36.604
 21
36.419
  0
LINE
  8
0
 10
9.903
 11
10.343
 20
36.419
 21
36.177
  0
LINE
  8
0
 10
10.343
 11
10.75
 20
36.177
 21
35.882
  0
LINE
  8
0
 10
10.75
 11
11.116
 20
35.882
 21
35.538
  0
LINE
  8
0
 10
11.116
 11
11.436
 20
35.538
 21
35.151
  0
LINE
  8
0
 10
11.436
 11
11.705
 20
35.151
 21
34.727
  0
LINE
  8
0
 10
11.705
 11
11.919
 20
34.727
 21
34.272
  0
LINE
  8
0
 10
11.919
 11
12.074
 20
34.272
 21
33.795
  0
LINE
  8
0
 10
12.074
 11
12.168
 20
33.795
 21
33.301
  0
LINE
  8
0
 10
12.168
 11
12.2
 20
33.301
 21
32.8
  0
LINE
  8
0
 10
12.2
 11
12.168
 20
32.8
 21
32.299
  0
LINE
  8
0
 10
12.168
 11
12.074
 20
32.299
 21
31.805
  0
LINE
  8
0
 10
12.074
 11
11.919
 20
31.805
 21
31.328
  0
LINE
  8
0
 10
11.919
 11
11.705
 20
31.328
 21
30.873
  0
LINE
  8
0
 10
11.705
 11
11.436
 20
30.873
 21
30.449
  0
LINE
  8
0
 10
11.436
 11
11.116
 20
30.449
 21
30.062
  0
LINE
  8
0
 10
11.116
 11
10.75
 20
30.062
 21
29.718
  0
LINE
  8
0
 10
10.75
 11
10.343
 20
29.718
 21
29.423
  0
LINE
  8
0
 10
10.343
 11
9.903
 20
29.423
 21
29.181
  0
LINE
  8
0
 10
9.903
 11
9.436
 20
29.181
 21
28.996
  0
LINE
  8
0
 10
9.436
 11
8.95
 20
28.996
 21
28.871
  0
LINE
  8
0
 10
8.95
 11
8.451
 20
28.871
 21
28.808
  0
LINE
  8
0
 10
8.451
 11
7.949
 20
28.808
 21
28.808
  0
LINE
  8
0
 10
7.949
 11
7.45
 20
28.808
 21
28.871
  0
LINE
  8
0
 10
7.45
 11
6.964
 20
28.871
 21
28.996
  0
LINE
  8
0
 10
6.964
 11
6.497
 20
28.996
 21
29.181
  0
LINE
  8
0
 10
6.497
 11
6.057
 20
29.181
 21
29.423
  0
LINE
  8
0
 10
6.057
 11
5.65
 20
29.423
 21
29.718
  0
LINE
  8
0
 10
5.65
 11
5.284
 20
29.718
 21
30.062
  0
LINE
  8
0
 10
5.284
 11
4.964
 20
30.062
 21
30.449
  0
LINE
  8
0
 10
4.964
 11
4.695
 20
30.449
 21
30.873
  0
LINE
  8
0
 10
4.695
 11
4.481
 20
30.873
 21
31.328
  0
LINE
  8
0
 10
4.481
 11
4.326
 20
31.328
 21
31.805
  0
LINE
  8
0
 10
4.326
 11
4.232
 20
31.805
 21
32.299
  0
LINE
  8
0
 10
4.232
 11
4.2
 20
32.299
 21
32.8
  0
LINE
  8
0
 10
4.2
 11
4.232
 20
41
 21
41.501
  0
LINE
  8
0
 10
4.232
 11
4.326
 20
41.501
 21
41.995
  0
LINE
  8
0
 10
4.326
 11
4.481
 20
41.995
 21
42.472
  0
LINE
  8
0
 10
4.481
 11
4.695
 20
42.472
 21
42.927
  0
LINE
  8
0
 10
4.695
 11
4.964
 20
42.927
 21
43.351
  0
LINE
  8
0
 10
4.964
 11
5.284
 20
43.351
 21
43.738
  0
LINE
  8
0
 10
5.284
 11
5.65
 20
43.738
 21
44.082
  0
LINE
  8
0
 10
5.65
 11
6.057
 20
44.082
 21
44.377
  0
LINE
  8
0
 10
6.057
 11
6.497
 20
44.377
 21
44.619
  0
LINE
  8
0
 10
6.497
 11
6.964
 20
44.619
 21
44.804
  0
LINE
  8
0
 10
6.964
 11
7.45
 20
44.804
 21
44.929
  0
LINE
  8
0
 10
7.45
 11
7.949
 20
44.929
 21
44.992
  0
LINE
  8
0
 10
7.949
 11
8.451
 20
44.992
 21
44.992
  0
LINE
  8
0
 10
8.451
 11
8.95
 20
44.992
 21
44.929
  0
LINE
  8
0
 10
8.95
 11
9.436
 20
44.929
 21
44.804
  0
LINE
  8
0
 10
9.436
 11
9.903
 20
44.804
 21
44.619
  0
LINE
  8
0
 10
9.903
 11
10.343
 20
44.619
 21
44.377
  0
LINE
  8
0
 10
10.343
 11
10.75
 20
44.377
 21
44.082
  0
LINE
  8
0
 10
10.75
 11
11.116
 20
44.082
 21
43.738
  0
LINE
  8
0
 10
11.116
 11
11.436
 20
43.738
 21
43.351
  0
LINE
  8
0
 10
11.436
 11
11.705
 20
43.351
 21
42.927
  0
LINE
  8
0
 10
11.705
 11
11.919
 20
42.927
 21
42.472
  0
LINE
  8
0
 10
11.919
 11
12.074
 20
42.472
 21
41.995
  0
LINE
  8
0
 10
12.074
 11
12.168
 20
41.995
 21
41.501
  0
LINE
  8
0
 10
12.168
 11
12.2
 20
41.501
 21
41
  0
LINE
  8
0
 10
12.2
 11
12.168
 20
41
 21
40.499
  0
LINE
  8
0
 10
12.168
 11
12.074
 20
40.499
 21
40.005
  0
LINE
  8
0
 10
12.074
 11
11.919
 20
40.005
 21
39.528
  0
LINE
  8
0
 10
11.919
 11
11.705
 20
39.528
 21
39.073
  0
LINE
  8
0
 10
11.705
 11
11.436
 20
39.073
 21
38.649
  0
LINE
  8
0
 10
11.436
 11
11.116
 20
38.649
 21
38.262
  0
LINE
  8
0
 10
11.116
 11
10.75
 20
38.262
 21
37.918
  0
LINE
  8
0
 10
10.75
 11
10.343
 20
37.918
 21
37.623
  0
LINE
  8
0
 10
10.343
 11
9.903
 20
37.623
 21
37.381
  0
LINE
  8
0
 10
9.903
 11
9.436
 20
37.381
 21
37.196
  0
LINE
  8
0
 10
9.436
 11
8.95
 20
37.196
 21
37.071
  0
LINE
  8
0
 10
8.95
 11
8.451
 20
37.071
 21
37.008
  0
LINE
  8
0
 10
8.451
 11
7.949
 20
37.008
 21
37.008
  0
LINE
  8
0
 10
7.949
 11
7.45
 20
37.008
 21
37.071
  0
LINE
  8
0
 10
7.45
 11
6.964
 20
37.071
 21
37.196
  0
LINE
  8
0
 10
6.964
 11
6.497
 20
37.196
 21
37.381
  0
LINE
  8
0
 10
6.497
 11
6.057
 20
37.381
 21
37.623
  0
LINE
  8
0
 10
6.057
 11
5.65
 20
37.623
 21
37.918
  0
LINE
  8
0
 10
5.65
 11
5.284
 20
37.918
 21
38.262
  0
LINE
  8
0
 10
5.284
 11
4.964
 20
38.262
 21
38.649
  0
LINE
  8
0
 10
4.964
 11
4.695
 20
38.649
 21
39.073
  0
LINE
  8
0
 10
4.695
 11
4.481
 20
39.073
 21
39.528
  0
LINE
  8
0
 10
4.481
 11
4.326
 20
39.528
 21
40.005
  0
LINE
  8
0
 10
4.326
 11
4.232
 20
40.005
 21
40.499
  0
LINE
  8
0
 10
4.232
 11
4.2
 20
40.499
 21
41
  0
LINE
  8
0
 10
6.2
 11
6.216
 20
0
 21
0.251
  0
LINE
  8
0
 10
6.216
 11
6.263
 20
0.251
 21
0.497
  0
LINE
  8
0
 10
6.263
 11
6.34
 20
0.497
 21
0.736
  0
LINE
  8
0
 10
6.34
 11
6.447
 20
0.736
 21
0.964
  0
LINE
  8
0
 10
6.447
 11
6.582
 20
0.964
 21
1.176
  0
LINE
  8
0
 10
6.582
 11
6.742
 20
1.176
 21
1.369
  0
LINE
  8
0
 10
6.742
 11
6.925
 20
1.369
 21
1.541
  0
LINE
  8
0
 10
6.925
 11
7.128
 20
1.541
 21
1.689
  0
LINE
  8
0
 10
7.128
 11
7.348
 20
1.689
 21
1.81
  0
LINE
  8
0
 10
7.348
 11
7.582
 20
1.81
 21
1.902
  0
LINE
  8
0
 10
7.582
 11
7.825
 20
1.902
 21
1.965
  0
LINE
  8
0
 10
7.825
 11
8.074
 20
1.965
 21
1.996
  0
LINE
  8
0
 10
8.074
 11
8.326
 20
1.996
 21
1.996
  0
LINE
  8
0
 10
8.326
 11
8.575
 20
1.996
 21
1.965
  0
LINE
  8
0
 10
8.575
 11
8.818
 20
1.965
 21
1.902
  0
LINE
  8
0
 10
8.818
 11
9.052
 20
1.902
 21
1.81
  0
LINE
  8
0
 10
9.052
 11
9.272
 20
1.81
 21
1.689
  0
LINE
  8
0
 10
9.272
 11
9.475
 20
1.689
 21
1.541
  0
LINE
  8
0
 10
9.475
 11
9.658
 20
1.541
 21
1.369
  0
LINE
  8
0
 10
9.658
 11
9.818
 20
1.369
 21
1.176
  0
LINE
  8
0
 10
9.818
 11
9.953
 20
1.176
 21
0.964
  0
LINE
  8
0
 10
9.953
 11
10.06
 20
0.964
 21
0.736
  0
LINE
  8
0
 10
10.06
 11
10.137
 20
0.736
 21
0.497
  0
LINE
  8
0
 10
10.137
 11
10.184
 20
0.497
 21
0.251
  0
LINE
  8
0
 10
10.184
 11
10.2
 20
0.251
 21
0
  0
LINE
  8
0
 10
10.2
 11
10.184
 20
0
 21
-0.251
  0
LINE
  8
0
 10
10.184
 11
10.137
 20
-0.251
 21
-0.497
  0
LINE
  8
0
 10
10.137
 11
10.06
 20
-0.497
 21
-0.736
  0
LINE
  8
0
 10
10.06
 11
9.953
 20
-0.736
 21
-0.964
  0
LINE
  8
0
 10
9.953
 11
9.818
 20
-0.964
 21
-1.176
  0
LINE
  8
0
 10
9.818
 11
9.658
 20
-1.176
 21
-1.369
  0
LINE
  8
0
 10
9.658
 11
9.475
 20
-1.369
 21
-1.541
  0
LINE
  8
0
 10
9.475
 11
9.272
 20
-1.541
 21
-1.689
  0
LINE
  8
0
 10
9.272
 11
9.052
 20
-1.689
 21
-1.81
  0
LINE
  8
0
 10
9.052
 11
8.818
 20
-1.81
 21
-1.902
  0
LINE
  8
0
 10
8.818
 11
8.575
 20
-1.902
 21
-1.965
  0
LINE
  8
0
 10
8.575
 11
8.326
 20
-1.965
 21
-1.996
  0
LINE
  8
0
 10
8.326
 11
8.074
 20
-1.996
 21
-1.996
  0
LINE
  8
0
 10
8.074
 11
7.825
 20
-1.996
 21
-1.965
  0
LINE
  8
0
 10
7.825
 11
7.582
 20
-1.965
 21
-1.902
  0
LINE
  8
0
 10
7.582
 11
7.348
 20
-1.902
 21
-1.81
  0
LINE
  8
0
 10
7.348
 11
7.128
 20
-1.81
 21
-1.689
  0
LINE
  8
0
 10
7.128
 11
6.925
 20
-1.689
 21
-1.541
  0
LINE
  8
0
 10
6.925
 11
6.742
 20
-1.541
 21
-1.369
  0
LINE
  8
0
 10
6.742
 11
6.582
 20
-1.369
 21
-1.176
  0
LINE
  8
0
 10
6.582
 11
6.447
 20
-1.176
 21
-0.964
  0
LINE
  8
0
 10
6.447
 11
6.34
 20
-0.964
 21
-0.736
  0
LINE
  8
0
 10
6.34
 11
6.263
 20
-0.736
 21
-0.497
  0
LINE
  8
0
 10
6.263
 11
6.216
 20
-0.497
 21
-0.251
  0
LINE
  8
0
 10
6.216
 11
6.2
 20
-0.251
 21
0
  0
LINE
  8
0
 10
6.2
 11
6.216
 20
8.2
 21
8.451
  0
LINE
  8
0
 10
6.216
 11
6.263
 20
8.451
 21
8.697
  0
LINE
  8
0
 10
6.263
 11
6.34
 20
8.697
 21
8.936
  0
LINE
  8
0
 10
6.34
 11
6.447
 20
8.936
 21
9.164
  0
LINE
  8
0
 10
6.447
 11
6.582
 20
9.164
 21
9.376
  0
LINE
  8
0
 10
6.582
 11
6.742
 20
9.376
 21
9.569
  0
LINE
  8
0
 10
6.742
 11
6.925
 20
9.569
 21
9.741
  0
LINE
  8
0
 10
6.925
 11
7.128
 20
9.741
 21
9.889
  0
LINE
  8
0
 10
7.128
 11
7.348
 20
9.889
 21
10.01
  0
LINE
  8
0
 10
7.348
 11
7.582
 20
10.01
 21
10.102
  0
LINE
  8
0
 10
7.582
 11
7.825
 20
10.102
 21
10.165
  0
LINE
  8
0
 10
7.825
 11
8.074
 20
10.165
 21
10.196
  0
LINE
  8
0
 10
8.074
 11
8.326
 20
10.196
 21
10.196
  0
LINE
  8
0
 10
8.326
 11
8.575
 20
10.196
 21
10.165
  0
LINE
  8
0
 10
8.575
 11
8.818
 20
10.165
 21
10.102
  0
LINE
  8
0
 10
8.818
 11
9.052
 20
10.102
 21
10.01
  0
LINE
  8
0
 10
9.052
 11
9.272
 20
10.01
 21
9.889
  0
LINE
  8
0
 10
9.272
 11
9.475
 20
9.889
 21
9.741
  0
LINE
  8
0
 10
9.475
 11
9.658
 20
9.741
 21
9.569
  0
LINE
  8
0
 10
9.658
 11
9.818
 20
9.569
 21
9.376
  0
LINE
  8
0
 10
9.818
 11
9.953
 20
9.376
 21
9.164
  0
LINE
  8
0
 10
9.953
 11
10.06
 20
9.164
 21
8.936
  0
LINE
  8
0
 10
10.06
 11
10.137
 20
8.936
 21
8.697
  0
LINE
  8
0
 10
10.137
 11
10.184
 20
8.697
 21
8.451
  0
LINE
  8
0
 10
10.184
 11
10.2
 20
8.451
 21
8.2
  0
LINE
  8
0
 10
10.2
 11
10.184
 20
8.2
 21
7.949
  0
LINE
  8
0
 10
10.184
 11
10.137
 20
7.949
 21
7.703
  0
LINE
  8
0
 10
10.137
 11
10.06
 20
7.703
 21
7.464
  0
LINE
  8
0
 10
10.06
 11
9.953
 20
7.464
 21
7.236
  0
LINE
  8
0
 10
9.953
 11
9.818
 20
7.236
 21
7.024
  0
LINE
  8
0
 10
9.818
 11
9.658
 20
7.024
 21
6.831
  0
LINE
  8
0
 10
9.658
 11
9.475
 20
6.831
 21
6.659
  0
LINE
  8
0
 10
9.475
 11
9.272
 20
6.659
 21
6.511
  0
LINE
  8
0
 10
9.272
 11
9.052
 20
6.511
 21
6.39
  0
LINE
  8
0
 10
9.052
 11
8.818
 20
6.39
 21
6.298
  0
LINE
  8
0
 10
8.818
 11
8.575
 20
6.298
 21
6.235
  0
LINE
  8
0
 10
8.575
 11
8.326
 20
6.235
 21
6.204
  0
LINE
  8
0
 10
8.326
 11
8.074
 20
6.204
 21
6.204
  0
LINE
  8
0
 10
8.074
 11
7.825
 20
6.204
 21
6.235
  0
LINE
  8
0
 10
7.825
 11
7.582
 20
6.235
 21
6.298
  0
LINE
  8
0
 10
7.582
 11
7.348
 20
6.298
 21
6.39
  0
LINE
  8
0
 10
7.348
 11
7.128
 20
6.39
 21
6.511
  0
LINE
  8
0
 10
7.128
 11
6.925
 20
6.511
 21
6.659
  0
LINE
  8
0
 10
6.925
 11
6.742
 20
6.659
 21
6.831
  0
LINE
  8
0
 10
6.742
 11
6.582
 20
6.831
 21
7.024
  0
LINE
  8
0
 10
6.582
 11
6.447
 20
7.024
 21
7.236
  0
LINE
  8
0
 10
6.447
 11
6.34
 20
7.236
 21
7.464
  0
LINE
  8
0
 10
6.34
 11
6.263
 20
7.464
 21
7.703
  0
LINE
  8
0
 10
6.263
 11
6.216
 20
7.703
 21
7.949
  0
LINE
  8
0
 10
6.216
 11
6.2
 20
7.949
 21
8.2
  0
LINE
  8
0
 10
6.2
 11
6.216
 20
16.4
 21
16.651
  0
LINE
  8
0
 10
6.216
 11
6.263
 20
16.651
 21
16.897
  0
LINE
  8
0
 10
6.263
 11
6.34
 20
16.897
 21
17.136
  0
LINE
  8
0
 10
6.34
 11
6.447
 20
17.136
 21
17.364
  0
LINE
  8
0
 10
6.447
 11
6.582
 20
17.364
 21
17.576
  0
LINE
  8
0
 10
6.582
 11
6.742
 20
17.576
 21
17.769
  0
LINE
  8
0
 10
6.742
 11
6.925
 20
17.769
 21
17.941
  0
LINE
  8
0
 10
6.925
 11
7.128
 20
17.941
 21
18.089
  0
LINE
  8
0
 10
7.128
 11
7.348
 20
18.089
 21
18.21
  0
LINE
  8
0
 10
7.348
 11
7.582
 20
18.21
 21
18.302
  0
LINE
  8
0
 10
7.582
 11
7.825
 20
18.302
 21
18.365
  0
LINE
  8
0
 10
7.825
 11
8.074
 20
18.365
 21
18.396
  0
LINE
  8
0
 10
8.074
 11
8.326
 20
18.396
 21
18.396
  0
LINE
  8
0
 10
8.326
 11
8.575
 20
18.396
 21
18.365
  0
LINE
  8
0
 10
8.575
 11
8.818
 20
18.365
 21
18.302
  0
LINE
  8
0
 10
8.818
 11
9.052
 20
18.302
 21
18.21
  0
LINE
  8
0
 10
9.052
 11
9.272
 20
18.21
 21
18.089
  0
LINE
  8
0
 10
9.272
 11
9.475
 20
18.089
 21
17.941
  0
LINE
  8
0
 10
9.475
 11
9.658
 20
17.941
 21
17.769
  0
LINE
  8
0
 10
9.658
 11
9.818
 20
17.769
 21
17.576
  0
LINE
  8
0
 10
9.818
 11
9.953
 20
17.576
 21
17.364
  0
LINE
  8
0
 10
9.953
 11
10.06
 20
17.364
 21
17.136
  0
LINE
  8
0
 10
10.06
 11
10.137
 20
17.136
 21
16.897
  0
LINE
  8
0
 10
10.137
 11
10.184
 20
16.897
 21
16.651
  0
LINE
  8
0
 10
10.184
 11
10.2
 20
16.651
 21
16.4
  0
LINE
  8
0
 10
10.2
 11
10.184
 20
16.4
 21
16.149
  0
LINE
  8
0
 10
10.184
 11
10.137
 20
16.149
 21
15.903
  0
LINE
  8
0
 10
10.137
 11
10.06
 20
15.903
 21
15.664
  0
LINE
  8
0
 10
10.06
 11
9.953
 20
15.664
 21
15.436
  0
LINE
  8
0
 10
9.953
 11
9.818
 20
15.436
 21
15.224
  0
LINE
  8
0
 10
9.818
 11
9.658
 20
15.224
 21
15.031
  0
LINE
  8
0
 10
9.658
 11
9.475
 20
15.031
 21
14.859
  0
LINE
  8
0
 10
9.475
 11
9.272
 20
14.859
 21
14.711
  0
LINE
  8
0
 10
9.272
 11
9.052
 20
14.711
 21
14.59
  0
LINE
  8
0
 10
9.052
 11
8.818
 20
14.59
 21
14.498
  0
LINE
  8
0
 10
8.818
 11
8.575
 20
14.498
 21
14.435
  0
LINE
  8
0
 10
8.575
 11
8.326
 20
14.435
 21
14.404
  0
LINE
  8
0
 10
8.326
 11
8.074
 20
14.404
 21
14.404
  0
LINE
  8
0
 10
8.074
 11
7.825
 20
14.404
 21
14.435
  0
LINE
  8
0
 10
7.825
 11
7.582
 20
14.435
 21
14.498
  0
LINE
  8
0
 10
7.582
 11
7.348
 20
14.498
 21
14.59
  0
LINE
  8
0
 10
7.348
 11
7.128
 20
14.59
 21
14.711
  0
LINE
  8
0
 10
7.128
 11
6.925
 20
14.711
 21
14.859
  0
LINE
  8
0
 10
6.925
 11
6.742
 20
14.859
 21
15.031
  0
LINE
  8
0
 10
6.742
 11
6.582
 20
15.031
 21
15.224
  0
LINE
  8
0
 10
6.582
 11
6.447
 20
15.224
 21
15.436
  0
LINE
  8
0
 10
6.447
 11
6.34
 20
15.436
 21
15.664
  0
LINE
  8
0
 10
6.34
 11
6.263
 20
15.664
 21
15.903
  0
LINE
  8
0
 10
6.263
 11
6.216
 20
15.903
 21
16.149
  0
LINE
  8
0
 10
6.216
 11
6.2
 20
16.149
 21
16.4
  0
LINE
  8
0
 10
6.2
 11
6.216
 20
24.6
 21
24.851
  0
LINE
  8
0
 10
6.216
 11
6.263
 20
24.851
 21
25.097
  0
LINE
  8
0
 10
6.263
 11
6.34
 20
25.097
 21
25.336
  0
LINE
  8
0
 10
6.34
 11
6.447
 20
25.336
 21
25.564
  0
LINE
  8
0
 10
6.447
 11
6.582
 20
25.564
 21
25.776
  0
LINE
  8
0
 10
6.582
 11
6.742
 20
25.776
 21
25.969
  0
LINE
  8
0
 10
6.742
 11
6.925
 20
25.969
 21
26.141
  0
LINE
  8
0
 10
6.925
 11
7.128
 20
26.141
 21
26.289
  0
LINE
  8
0
 10
7.128
 11
7.348
 20
26.289
 21
26.41
  0
LINE
  8
0
 10
7.348
 11
7.582
 20
26.41
 21
26.502
  0
LINE
  8
0
 10
7.582
 11
7.825
 20
26.502
 21
26.565
  0
LINE
  8
0
 10
7.825
 11
8.074
 20
26.565
 21
26.596
  0
LINE
  8
0
 10
8.074
 11
8.326
 20
26.596
 21
26.596
  0
LINE
  8
0
 10
8.326
 11
8.575
 20
26.596
 21
26.565
  0
LINE
  8
0
 10
8.575
 11
8.818
 20
26.565
 21
26.502
  0
LINE
  8
0
 10
8.818
 11
9.052
 20
26.502
 21
26.41
  0
LINE
  8
0
 10
9.052
 11
9.272
 20
26.41
 21
26.289
  0
LINE
  8
0
 10
9.272
 11
9.475
 20
26.289
 21
26.141
  0
LINE
  8
0
 10
9.475
 11
9.658
 20
26.141
 21
25.969
  0
LINE
  8
0
 10
9.658
 11
9.818
 20
25.969
 21
25.776
  0
LINE
  8
0
 10
9.818
 11
9.953
 20
25.776
 21
25.564
  0
LINE
  8
0
 10
9.953
 11
10.06
 20
25.564
 21
25.336
  0
LINE
  8
0
 10
10.06
 11
10.137
 20
25.336
 21
25.097
  0
LINE
  8
0
 10
10.137
 11
10.184
 20
25.097
 21
24.851
  0
LINE
  8
0
 10
10.184
 11
10.2
 20
24.851
 21
24.6
  0
LINE
  8
0
 10
10.2
 11
10.184
 20
24.6
 21
24.349
  0
LINE
  8
0
 10
10.184
 11
10.137
 20
24.349
 21
24.103
  0
LINE
  8
0
 10
10.137
 11
10.06
 20
24.103
 21
23.864
  0
LINE
  8
0
 10
10.06
 11
9.953
 20
23.864
 21
23.636
  0
LINE
  8
0
 10
9.953
 11
9.818
 20
23.636
 21
23.424
  0
LINE
  8
0
 10
9.818
 11
9.658
 20
23.424
 21
23.231
  0
LINE
  8
0
 10
9.658
 11
9.475
 20
23.231
 21
23.059
  0
LINE
  8
0
 10
9.475
 11
9.272
 20
23.059
 21
22.911
  0
LINE
  8
0
 10
9.272
 11
9.052
 20
22.911
 21
22.79
  0
LINE
  8
0
 10
9.052
 11
8.818
 20
22.79
 21
22.698
  0
LINE
  8
0
 10
8.818
 11
8.575
 20
22.698
 21
22.635
  0
LINE
  8
0
 10
8.575
 11
8.326
 20
22.635
 21
22.604
  0
LINE
  8
0
 10
8.326
 11
8.074
 20
22.604
 21
22.604
  0
LINE
  8
0
 10
8.074
 11
7.825
 20
22.604
 21
22.635
  0
LINE
  8
0
 10
7.825
 11
7.582
 20
22.635
 21
22.698
  0
LINE
  8
0
 10
7.582
 11
7.348
 20
22.698
 21
22.79
  0
LINE
  8
0
 10
7.348
 11
7.128
 20
22.79
 21
22.911
  0
LINE
  8
0
 10
7.128
 11
6.925
 20
22.911
 21
23.059
  0
LINE
  8
0
 10
6.925
 11
6.742
 20
23.059
 21
23.231
  0
LINE
  8
0
 10
6.742
 11
6.582
 20
23.231
 21
23.424
  0
LINE
  8
0
 10
6.582
 11
6.447
 20
23.424
 21
23.636
  0
LINE
  8
0
 10
6.447
 11
6.34
 20
23.636
 21
23.864
  0
LINE
  8
0
 10
6.34
 11
6.263
 20
23.864
 21
24.103
  0
LINE
  8
0
 10
6.263
 11
6.216
 20
24.103
 21
24.349
  0
LINE
  8
0
 10
6.216
 11
6.2
 20
24.349
 21
24.6
  0
LINE
  8
0
 10
6.2
 11
6.216
 20
32.8
 21
33.051
  0
LINE
  8
0
 10
6.216
 11
6.263
 20
33.051
 21
33.297
  0
LINE
  8
0
 10
6.263
 11
6.34
 20
33.297
 21
33.536
  0
LINE
  8
0
 10
6.34
 11
6.447
 20
33.536
 21
33.764
  0
LINE
  8
0
 10
6.447
 11
6.582
 20
33.764
 21
33.976
  0
LINE
  8
0
 10
6.582
 11
6.742
 20
33.976
 21
34.169
  0
LINE
  8
0
 10
6.742
 11
6.925
 20
34.169
 21
34.341
  0
LINE
  8
0
 10
6.925
 11
7.128
 20
34.341
 21
34.489
  0
LINE
  8
0
 10
7.128
 11
7.348
 20
34.489
 21
34.61
  0
LINE
  8
0
 10
7.348
 11
7.582
 20
34.61
 21
34.702
  0
LINE
  8
0
 10
7.582
 11
7.825
 20
34.702
 21
34.765
  0
LINE
  8
0
 10
7.825
 11
8.074
 20
34.765
 21
34.796
  0
LINE
  8
0
 10
8.074
 11
8.326
 20
34.796
 21
34.796
  0
LINE
  8
0
 10
8.326
 11
8.575
 20
34.796
 21
34.765
  0
LINE
  8
0
 10
8.575
 11
8.818
 20
34.765
 21
34.702
  0
LINE
  8
0
 10
8.818
 11
9.052
 20
34.702
 21
34.61
  0
LINE
  8
0
 10
9.052
 11
9.272
 20
34.61
 21
34.489
  0
LINE
  8
0
 10
9.272
 11
9.475
 20
34.489
 21
34.341
  0
LINE
  8
0
 10
9.475
 11
9.658
 20
34.341
 21
34.169
  0
LINE
  8
0
 10
9.658
 11
9.818
 20
34.169
 21
33.976
  0
LINE
  8
0
 10
9.818
 11
9.953
 20
33.976
 21
33.764
  0
LINE
  8
0
 10
9.953
 11
10.06
 20
33.764
 21
33.536
  0
LINE
  8
0
 10
10.06
 11
10.137
 20
33.536
 21
33.297
  0
LINE
  8
0
 10
10.137
 11
10.184
 20
33.297
 21
33.051
  0
LINE
  8
0
 10
10.184
 11
10.2
 20
33.051
 21
32.8
  0
LINE
  8
0
 10
10.2
 11
10.184
 20
32.8
 21
32.549
  0
LINE
  8
0
 10
10.184
 11
10.137
 20
32.549
 21
32.303
  0
LINE
  8
0
 10
10.137
 11
10.06
 20
32.303
 21
32.064
  0
LINE
  8
0
 10
10.06
 11
9.953
 20
32.064
 21
31.836
  0
LINE
  8
0
 10
9.953
 11
9.818
 20
31.836
 21
31.624
  0
LINE
  8
0
 10
9.818
 11
9.658
 20
31.624
 21
31.431
  0
LINE
  8
0
 10
9.658
 11
9.475
 20
31.431
 21
31.259
  0
LINE
  8
0
 10
9.475
 11
9.272
 20
31.259
 21
31.111
  0
LINE
  8
0
 10
9.272
 11
9.052
 20
31.111
 21
30.99
  0
LINE
  8
0
 10
9.052
 11
8.818
 20
30.99
 21
30.898
  0
LINE
  8
0
 10
8.818
 11
8.575
 20
30.898
 21
30.835
  0
LINE
  8
0
 10
8.575
 11
8.326
 20
30.835
 21
30.804
  0
LINE
  8
0
 10
8.326
 11
8.074
 20
30.804
 21
30.804
  0
LINE
  8
0
 10
8.074
 11
7.825
 20
30.804
 21
30.835
  0
LINE
  8
0
 10
7.825
 11
7.582
 20
30.835
 21
30.898
  0
LINE
  8
0
 10
7.582
 11
7.348
 20
30.898
 21
30.99
  0
LINE
  8
0
 10
7.348
 11
7.128
 20
30.99
 21
31.111
  0
LINE
  8
0
 10
7.128
 11
6.925
 20
31.111
 21
31.259
  0
LINE
  8
0
 10
6.925
 11
6.742
 20
31.259
 21
31.431
  0
LINE
  8
0
 10
6.742
 11
6.582
 20
31.431
 21
31.624
  0
LINE
  8
0
 10
6.582
 11
6.447
 20
31.624
 21
31.836
  0
LINE
  8
0
 10
6.447
 11
6.34
 20
31.836
 21
32.064
  0
LINE
  8
0
 10
6.34
 11
6.263
 20
32.064
 21
32.303
  0
LINE
  8
0
 10
6.263
 11
6.216
 20
32.303
 21
32.549
  0
LINE
  8
0
 10
6.216
 11
6.2
 20
32.549
 21
32.8
  0
LINE
  8
0
 10
6.2
 11
6.216
 20
41
 21
41.251
  0
LINE
  8
0
 10
6.216
 11
6.263
 20
41.251
 21
41.497
  0
LINE
  8
0
 10
6.263
 11
6.34
 20
41.497
 21
41.736
  0
LINE
  8
0
 10
6.34
 11
6.447
 20
41.736
 21
41.964
  0
LINE
  8
0
 10
6.447
 11
6.582
 20
41.964
 21
42.176
  0
LINE
  8
0
 10
6.582
 11
6.742
 20
42.176
 21
42.369
  0
LINE
  8
0
 10
6.742
 11
6.925
 20
42.369
 21
42.541
  0
LINE
  8
0
 10
6.925
 11
7.128
 20
42.541
 21
42.689
  0
LINE
  8
0
 10
7.128
 11
7.348
 20
42.689
 21
42.81
  0
LINE
  8
0
 10
7.348
 11
7.582
 20
42.81
 21
42.902
  0
LINE
  8
0
 10
7.582
 11
7.825
 20
42.902
 21
42.965
  0
LINE
  8
0
 10
7.825
 11
8.074
 20
42.965
 21
42.996
  0
LINE
  8
0
 10
8.074
 11
8.326
 20
42.996
 21
42.996
  0
LINE
  8
0
 10
8.326
 11
8.575
 20
42.996
 21
42.965
  0
LINE
  8
0
 10
8.575
 11
8.818
 20
42.965
 21
42.902
  0
LINE
  8
0
 10
8.818
 11
9.052
 20
42.902
 21
42.81
  0
LINE
  8
0
 10
9.052
 11
9.272
 20
42.81
 21
42.689
  0
LINE
  8
0
 10
9.272
 11
9.475
 20
42.689
 21
42.541
  0
LINE
  8
0
 10
9.475
 11
9.658
 20
42.541
 21
42.369
  0
LINE
  8
0
 10
9.658
 11
9.818
 20
42.369
 21
42.176
  0
LINE
  8
0
 10
9.818
 11
9.953
 20
42.176
 21
41.964
  0
LINE
  8
0
 10
9.953
 11
10.06
 20
41.964
 21
41.736
  0
LINE
  8
0
 10
10.06
 11
10.137
 20
41.736
 21
41.497
  0
LINE
  8
0
 10
10.137
 11
10.184
 20
41.497
 21
41.251
  0
LINE
  8
0
 10
10.184
 11
10.2
 20
41.251
 21
41
  0
LINE
  8
0
 10
10.2
 11
10.184
 20
41
 21
40.749
  0
LINE
  8
0
 10
10.184
 11
10.137
 20
40.749
 21
40.503
  0
LINE
  8
0
 10
10.137
 11
10.06
 20
40.503
 21
40.264
  0
LINE
  8
0
 10
10.06
 11
9.953
 20
40.264
 21
40.036
  0
LINE
  8
0
 10
9.953
 11
9.818
 20
40.036
 21
39.824
  0
LINE
  8
0
 10
9.818
 11
9.658
 20
39.824
 21
39.631
  0
LINE
  8
0
 10
9.658
 11
9.475
 20
39.631
 21
39.459
  0
LINE
  8
0
 10
9.475
 11
9.272
 20
39.459
 21
39.311
  0
LINE
  8
0
 10
9.272
 11
9.052
 20
39.311
 21
39.19
  0
LINE
  8
0
 10
9.052
 11
8.818
 20
39.19
 21
39.098
  0
LINE
  8
0
 10
8.818
 11
8.575
 20
39.098
 21
39.035
  0
LINE
  8
0
 10
8.575
 11
8.326
 20
39.035
 21
39.004
  0
LINE
  8
0
 10
8.326
 11
8.074
 20
39.004
 21
39.004
  0
LINE
  8
0
 10
8.074
 11
7.825
 20
39.004
 21
39.035
  0
LINE
  8
0
 10
7.825
 11
7.582
 20
39.035
 21
39.098
  0
LINE
  8
0
 10
7.582
 11
7.348
 20
39.098
 21
39.19
  0
LINE
  8
0
 10
7.348
 11
7.128
 20
39.19
 21
39.311
  0
LINE
  8
0
 10
7.128
 11
6.925
 20
39.311
 21
39.459
  0
LINE
  8
0
 10
6.925
 11
6.742
 20
39.459
 21
39.631
  0
LINE
  8
0
 10
6.742
 11
6.582
 20
39.631
 21
39.824
  0
LINE
  8
0
 10
6.582
 11
6.447
 20
39.824
 21
40.036
  0
LINE
  8
0
 10
6.447
 11
6.34
 20
40.036
 21
40.264
  0
LINE
  8
0
 10
6.34
 11
6.263
 20
40.264
 21
40.503
  0
LINE
  8
0
 10
6.263
 11
6.216
 20
40.503
 21
40.749
  0
LINE
  8
0
 10
6.216
 11
6.2
 20
40.749
 21
41
  0
LINE
  8
0
 10
12.4
 11
12.432
 20
0
 21
0.501
  0
LINE
  8
0
 10
12.432
 11
12.526
 20
0.501
 21
0.995
  0
LINE
  8
0
 10
12.526
 11
12.681
 20
0.995
 21
1.472
  0
LINE
  8
0
 10
12.681
 11
12.895
 20
1.472
 21
1.927
  0
LINE
  8
0
 10
12.895
 11
13.164
 20
1.927
 21
2.351
  0
LINE
  8
0
 10
13.164
 11
13.484
 20
2.351
 21
2.738
  0
LINE
  8
0
 10
13.484
 11
13.85
 20
2.738
 21
3.082
  0
LINE
  8
0
 10
13.85
 11
14.257
 20
3.082
 21
3.377
  0
LINE
  8
0
 10
14.257
 11
14.697
 20
3.377
 21
3.619
  0
LINE
  8
0
 10
14.697
 11
15.164
 20
3.619
 21
3.804
  0
LINE
  8
0
 10
15.164
 11
15.65
 20
3.804
 21
3.929
  0
LINE
  8
0
 10
15.65
 11
16.149
 20
3.929
 21
3.992
  0
LINE
  8
0
 10
16.149
 11
16.651
 20
3.992
 21
3.992
  0
LINE
  8
0
 10
16.651
 11
17.15
 20
3.992
 21
3.929
  0
LINE
  8
0
 10
17.15
 11
17.636
 20
3.929
 21
3.804
  0
LINE
  8
0
 10
17.636
 11
18.103
 20
3.804
 21
3.619
  0
LINE
  8
0
 10
18.103
 11
18.543
 20
3.619
 21
3.377
  0
LINE
  8
0
 10
18.543
 11
18.95
 20
3.377
 21
3.082
  0
LINE
  8
0
 10
18.95
 11
19.316
 20
3.082
 21
2.738
  0
LINE
  8
0
 10
19.316
 11
19.636
 20
2.738
 21
2.351
  0
LINE
  8
0
 10
19.636
 11
19.905
 20
2.351
 21
1.927
  0
LINE
  8
0
 10
19.905
 11
20.119
 20
1.927
 21
1.472
  0
LINE
  8
0
 10
20.119
 11
20.274
 20
1.472
 21
0.995
  0
LINE
  8
0
 10
20.274
 11
20.368
 20
0.995
 21
0.501
  0
LINE
  8
0
 10
20.368
 11
20.4
 20
0.501
 21
0
  0
LINE
  8
0
 10
20.4
 11
20.368
 20
0
 21
-0.501
  0
LINE
  8
0
 10
20.368
 11
20.274
 20
-0.501
 21
-0.995
  0
LINE
  8
0
 10
20.274
 11
20.119
 20
-0.995
 21
-1.472
  0
LINE
  8
0
 10
20.119
 11
19.905
 20
-1.472
 21
-1.927
  0
LINE
  8
0
 10
19.905
 11
19.636
 20
-1.927
 21
-2.351
  0
LINE
  8
0
 10
19.636
 11
19.316
 20
-2.351
 21
-2.738
  0
LINE
  8
0
 10
19.316
 11
18.95
 20
-2.738
 21
-3.082
  0
LINE
  8
0
 10
18.95
 11
18.543
 20
-3.082
 21
-3.377
  0
LINE
  8
0
 10
18.543
 11
18.103
 20
-3.377
 21
-3.619
  0
LINE
  8
0
 10
18.103
 11
17.636
 20
-3.619
 21
-3.804
  0
LINE
  8
0
 10
17.636
 11
17.15
 20
-3.804
 21
-3.929
  0
LINE
  8
0
 10
17.15
 11
16.651
 20
-3.929
 21
-3.992
  0
LINE
  8
0
 10
16.651
 11
16.149
 20
-3.992
 21
-3.992
  0
LINE
  8
0
 10
16.149
 11
15.65
 20
-3.992
 21
-3.929
  0
LINE
  8
0
 10
15.65
 11
15.164
 20
-3.929
 21
-3.804
  0
LINE
  8
0
 10
15.164
 11
14.697
 20
-3.804
 21
-3.619
  0
LINE
  8
0
 10
14.697
 11
14.257
 20
-3.619
 21
-3.377
  0
LINE
  8
0
 10
14.257
 11
13.85
 20
-3.377
 21
-3.082
  0
LINE
  8
0
 10
13.85
 11
13.484
 20
-3.082
 21
-2.738
  0
LINE
  8
0
 10
13.484
 11
13.164
 20
-2.738
 21
-2.351
  0
LINE
  8
0
 10
13.164
 11
12.895
 20
-2.351
 21
-1.927
  0
LINE
  8
0
 10
12.895
 11
12.681
 20
-1.927
 21
-1.472
  0
LINE
  8
0
 10
12.681
 11
12.526
 20
-1.472
 21
-0.995
  0
LINE
  8
0
 10
12.526
 11
12.432
 20
-0.995
 21
-0.501
  0
LINE
  8
0
 10
12.432
 11
12.4
 20
-0.501
 21
0
  0
LINE
  8
0
 10
12.4
 11
12.432
 20
8.2
 21
8.701
  0
LINE
  8
0
 10
12.432
 11
12.526
 20
8.701
 21
9.195
  0
LINE
  8
0
 10
12.526
 11
12.681
 20
9.195
 21
9.672
  0
LINE
  8
0
 10
12.681
 11
12.895
 20
9.672
 21
10.127
  0
LINE
  8
0
 10
12.895
 11
13.164
 20
10.127
 21
10.551
  0
LINE
  8
0
 10
13.164
 11
13.484
 20
10.551
 21
10.938
  0
LINE
  8
0
 10
13.484
 11
13.85
 20
10.938
 21
11.282
  0
LINE
  8
0
 10
13.85
 11
14.257
 20
11.282
 21
11.577
  0
LINE
  8
0
 10
14.257
 11
14.697
 20
11.577
 21
11.819
  0
LINE
  8
0
 10
14.697
 11
15.164
 20
11.819
 21
12.004
  0
LINE
  8
0
 10
15.164
 11
15.65
 20
12.004
 21
12.129
  0
LINE
  8
0
 10
15.65
 11
16.149
 20
12.129
 21
12.192
  0
LINE
  8
0
 10
16.149
 11
16.651
 20
12.192
 21
12.192
  0
LINE
  8
0
 10
16.651
 11
17.15
 20
12.192
 21
12.129
  0
LINE
  8
0
 10
17.15
 11
17.636
 20
12.129
 21
12.004
  0
LINE
  8
0
 10
17.636
 11
18.103
 20
12.004
 21
11.819
  0
LINE
  8
0
 10
18.103
 11
18.543
 20
11.819
 21
11.577
  0
LINE
  8
0
 10
18.543
 11
18.95
 20
11.577
 21
11.282
  0
LINE
  8
0
 10
18.95
 11
19.316
 20
11.282
 21
10.938
  0
LINE
  8
0
 10
19.316
 11
19.636
 20
10.938
 21
10.551
  0
LINE
  8
0
 10
19.636
 11
19.905
 20
10.551
 21
10.127
  0
LINE
  8
0
 10
19.905
 11
20.119
 20
10.127
 21
9.672
  0
LINE
  8
0
 10
20.119
 11
20.274
 20
9.672
 21
9.195
  0
LINE
  8
0
 10
20.274
 11
20.368
 20
9.195
 21
8.701
  0
LINE
  8
0
 10
20.368
 11
20.4
 20
8.701
 21
8.2
  0
LINE
  8
0
 10
20.4
 11
20.368
 20
8.2
 21
7.699
  0
LINE
  8
0
 10
20.368
 11
20.274
 20
7.699
 21
7.205
  0
LINE
  8
0
 10
20.274
 11
20.119
 20
7.205
 21
6.728
  0
LINE
  8
0
 10
20.119
 11
19.905
 20
6.728
 21
6.273
  0
LINE
  8
0
 10
19.905
 11
19.636
 20
6.273
 21
5.849
  0
LINE
  8
0
 10
19.636
 11
19.316
 20
5.849
 21
5.462
  0
LINE
  8
0
 10
19.316
 11
18.95
 20
5.462
 21
5.118
  0
LINE
  8
0
 10
18.95
 11
18.543
 20
5.118
 21
4.823
  0
LINE
  8
0
 10
18.543
 11
18.103
 20
4.823
 21
4.581
  0
LINE
  8
0
 10
18.103
 11
17.636
 20
4.581
 21
4.396
  0
LINE
  8
0
 10
17.636
 11
17.15
 20
4.396
 21
4.271
  0
LINE
  8
0
 10
17.15
 11
16.651
 20
4.271
 21
4.208
  0
LINE
  8
0
 10
16.651
 11
16.149
 20
4.208
 21
4.208
  0
LINE
  8
0
 10
16.149
 11
15.65
 20
4.208
 21
4.271
  0
LINE
  8
0
 10
15.65
 11
15.164
 20
4.271
 21
4.396
  0
LINE
  8
0
 10
15.164
 11
14.697
 20
4.396
 21
4.581
  0
LINE
  8
0
 10
14.697
 11
14.257
 20
4.581
 21
4.823
  0
LINE
  8
0
 10
14.257
 11
13.85
 20
4.823
 21
5.118
  0
LINE
  8
0
 10
13.85
 11
13.484
 20
5.118
 21
5.462
  0
LINE
  8
0
 10
13.484
 11
13.164
 20
5.462
 21
5.849
  0
LINE
  8
0
 10
13.164
 11
12.895
 20
5.849
 21
6.273
  0
LINE
  8
0
 10
12.895
 11
12.681
 20
6.273
 21
6.728
  0
LINE
  8
0
 10
12.681
 11
12.526
 20
6.728
 21
7.205
  0
LINE
  8
0
 10
12.526
 11
12.432
 20
7.205
 21
7.699
  0
LINE
  8
0
 10
12.432
 11
12.4
 20
7.699
 21
8.2
  0
LINE
  8
0
 10
12.4
 11
12.432
 20
16.4
 21
16.901
  0
LINE
  8
0
 10
12.432
 11
12.526
 20
16.901
 21
17.395
  0
LINE
  8
0
 10
12.526
 11
12.681
 20
17.395
 21
17.872
  0
LINE
  8
0
 10
12.681
 11
12.895
 20
17.872
 21
18.327
  0
LINE
  8
0
 10
12.895
 11
13.164
 20
18.327
 21
18.751
  0
LINE
  8
0
 10
13.164
 11
13.484
 20
18.751
 21
19.138
  0
LINE
  8
0
 10
13.484
 11
13.85
 20
19.138
 21
19.482
  0
LINE
  8
0
 10
13.85
 11
14.257
 20
19.482
 21
19.777
  0
LINE
  8
0
 10
14.257
 11
14.697
 20
19.777
 21
20.019
  0
LINE
  8
0
 10
14.697
 11
15.164
 20
20.019
 21
20.204
  0
LINE
  8
0
 10
15.164
 11
15.65
 20
20.204
 21
20.329
  0
LINE
  8
0
 10
15.65
 11
16.149
 20
20.329
 21
20.392
  0
LINE
  8
0
 10
16.149
 11
16.651
 20
20.392
 21
20.392
  0
LINE
  8
0
 10
16.651
 11
17.15
 20
20.392
 21
20.329
  0
LINE
  8
0
 10
17.15
 11
17.636
 20
20.329
 21
20.204
  0
LINE
  8
0
 10
17.636
 11
18.103
 20
20.204
 21
20.019
  0
LINE
  8
0
 10
18.103
 11
18.543
 20
20.019
 21
19.777
  0
LINE
  8
0
 10
18.543
 11
18.95
 20
19.777
 21
19.482
  0
LINE
  8
0
 10
18.95
 11
19.316
 20
19.482
 21
19.138
  0
LINE
  8
0
 10
19.316
 11
19.636
 20
19.138
 21
18.751
  0
LINE
  8
0
 10
19.636
 11
19.905
 20
18.751
 21
18.327
  0
LINE
  8
0
 10
19.905
 11
20.119
 20
18.327
 21
17.872
  0
LINE
  8
0
 10
20.119
 11
20.274
 20
17.872
 21
17.395
  0
LINE
  8
0
 10
20.274
 11
20.368
 20
17.395
 21
16.901
  0
LINE
  8
0
 10
20.368
 11
20.4
 20
16.901
 21
16.4
  0
LINE
  8
0
 10
20.4
 11
20.368
 20
16.4
 21
15.899
  0
LINE
  8
0
 10
20.368
 11
20.274
 20
15.899
 21
15.405
  0
LINE
  8
0
 10
20.274
 11
20.119
 20
15.405
 21
14.928
  0
LINE
  8
0
 10
20.119
 11
19.905
 20
14.928
 21
14.473
  0
LINE
  8
0
 10
19.905
 11
19.636
 20
14.473
 21
14.049
  0
LINE
  8
0
 10
19.636
 11
19.316
 20
14.049
 21
13.662
  0
LINE
  8
0
 10
19.316
 11
18.95
 20
13.662
 21
13.318
  0
LINE
  8
0
 10
18.95
 11
18.543
 20
13.318
 21
13.023
  0
LINE
  8
0
 10
18.543
 11
18.103
 20
13.023
 21
12.781
  0
LINE
  8
0
 10
18.103
 11
17.636
 20
12.781
 21
12.596
  0
LINE
  8
0
 10
17.636
 11
17.15
 20
12.596
 21
12.471
  0
LINE
  8
0
 10
17.15
 11
16.651
 20
12.471
 21
12.408
  0
LINE
  8
0
 10
16.651
 11
16.149
 20
12.408
 21
12.408
  0
LINE
  8
0
 10
16.149
 11
15.65
 20
12.408
 21
12.471
  0
LINE
  8
0
 10
15.65
 11
15.164
 20
12.471
 21
12.596
  0
LINE
  8
0
 10
15.164
 11
14.697
 20
12.596
 21
12.781
  0
LINE
  8
0
 10
14.697
 11
14.257
 20
12.781
 21
13.023
  0
LINE
  8
0
 10
14.257
 11
13.85
 20
13.023
 21
13.318
  0
LINE
  8
0
 10
13.85
 11
13.484
 20
13.318
 21
13.662
  0
LINE
  8
0
 10
13.484
 11
13.164
 20
13.662
 21
14.049
  0
LINE
  8
0
 10
13.164
 11
12.895
 20
14.049
 21
14.473
  0
LINE
  8
0
 10
12.895
 11
12.681
 20
14.473
 21
14.928
  0
LINE
  8
0
 10
12.681
 11
12.526
 20
14.928
 21
15.405
  0
LINE
  8
0
 10
12.526
 11
12.432
 20
15.405
 21
15.899
  0
LINE
  8
0
 10
12.432
 11
12.4
 20
15.899
 21
16.4
  0
LINE
  8
0
 10
12.4
 11
12.432
 20
24.6
 21
25.101
  0
LINE
  8
0
 10
12.432
 11
12.526
 20
25.101
 21
25.595
  0
LINE
  8
0
 10
12.526
 11
12.681
 20
25.595
 21
26.072
  0
LINE
  8
0
 10
12.681
 11
12.895
 20
26.072
 21
26.527
  0
LINE
  8
0
 10
12.895
 11
13.164
 20
26.527
 21
26.951
  0
LINE
  8
0
 10
13.164
 11
13.484
 20
26.951
 21
27.338
  0
LINE
  8
0
 10
13.484
 11
13.85
 20
27.338
 21
27.682
  0
LINE
  8
0
 10
13.85
 11
14.257
 20
27.682
 21
27.977
  0
LINE
  8
0
 10
14.257
 11
14.697
 20
27.977
 21
28.219
  0
LINE
  8
0
 10
14.697
 11
15.164
 20
28.219
 21
28.404
  0
LINE
  8
0
 10
15.164
 11
15.65
 20
28.404
 21
28.529
  0
LINE
  8
0
 10
15.65
 11
16.149
 20
28.529
 21
28.592
  0
LINE
  8
0
 10
16.149
 11
16.651
 20
28.592
 21
28.592
  0
LINE
  8
0
 10
16.651
 11
17.15
 20
28.592
 21
28.529
  0
LINE
  8
0
 10
17.15
 11
17.636
 20
28.529
 21
28.404
  0
LINE
  8
0
 10
17.636
 11
18.103
 20
28.404
 21
28.219
  0
LINE
  8
0
 10
18.103
 11
18.543
 20
28.219
 21
27.977
  0
LINE
  8
0
 10
18.543
 11
18.95
 20
27.977
 21
27.682
  0
LINE
  8
0
 10
18.95
 11
19.316
 20
27.682
 21
27.338
  0
LINE
  8
0
 10
19.316
 11
19.636
 20
27.338
 21
26.951
  0
LINE
  8
0
 10
19.636
 11
19.905
 20
26.951
 21
26.527
  0
LINE
  8
0
 10
19.905
 11
20.119
 20
26.527
 21
26.072
  0
LINE
  8
0
 10
20.119
 11
20.274
 20
26.072
 21
25.595
  0
LINE
  8
0
 10
20.274
 11
20.368
 20
25.595
 21
25.101
  0
LINE
  8
0
 10
20.368
 11
20.4
 20
25.101
 21
24.6
  0
LINE
  8
0
 10
20.4
 11
20.368
 20
24.6
 21
24.099
  0
LINE
  8
0
 10
20.368
 11
20.274
 20
24.099
 21
23.605
  0
LINE
  8
0
 10
20.274
 11
20.119
 20
23.605
 21
23.128
  0
LINE
  8
0
 10
20.119
 11
19.905
 20
23.128
 21
22.673
  0
LINE
  8
0
 10
19.905
 11
19.636
 20
22.673
 21
22.249
  0
LINE
  8
0
 10
19.636
 11
19.316
 20
22.249
 21
21.862
  0
LINE
  8
0
 10
19.316
 11
18.95
 20
21.862
 21
21.518
  0
LINE
  8
0
 10
18.95
 11
18.543
 20
21.518
 21
21.223
  0
LINE
  8
0
 10
18.543
 11
18.103
 20
21.223
 21
20.981
  0
LINE
  8
0
 10
18.103
 11
17.636
 20
20.981
 21
20.796
  0
LINE
  8
0
 10
17.636
 11
17.15
 20
20.796
 21
20.671
  0
LINE
  8
0
 10
17.15
 11
16.651
 20
20.671
 21
20.608
  0
LINE
  8
0
 10
16.651
 11
16.149
 20
20.608
 21
20.608
  0
LINE
  8
0
 10
16.149
 11
15.65
 20
20.608
 21
20.671
  0
LINE
  8
0
 10
15.65
 11
15.164
 20
20.671
 21
20.796
  0
LINE
  8
0
 10
15.164
 11
14.697
 20
20.796
 21
20.981
  0
LINE
  8
0
 10
14.697
 11
14.257
 20
20.981
 21
21.223
  0
LINE
  8
0
 10
14.257
 11
13.85
 20
21.223
 21
21.518
  0
LINE
  8
0
 10
13.85
 11
13.484
 20
21.518
 21
21.862
  0
LINE
  8
0
 10
13.484
 11
13.164
 20
21.862
 21
22.249
  0
LINE
  8
0
 10
13.164
 11
12.895
 20
22.249
 21
22.673
  0
LINE
  8
0
 10
12.895
 11
12.681
 20
22.673
 21
23.128
  0
LINE
  8
0
 10
12.681
 11
12.526
 20
23.128
 21
23.605
  0
LINE
  8
0
 10
12.526
 11
12.432
 20
23.605
 21
24.099
  0
LINE
  8
0
 10
12.432
 11
12.4
 20
24.099
 21
24.6
  0
LINE
  8
0
 10
12.4
 11
12.432
 20
32.8
 21
33.301
  0
LINE
  8
0
 10
12.432
 11
12.526
 20
33.301
 21
33.795
  0
LINE
  8
0
 10
12.526
 11
12.681
 20
33.795
 21
34.272
  0
LINE
  8
0
 10
12.681
 11
12.895
 20
34.272
 21
34.727
  0
LINE
  8
0
 10
12.895
 11
13.164
 20
34.727
 21
35.151
  0
LINE
  8
0
 10
13.164
 11
13.484
 20
35.151
 21
35.538
  0
LINE
  8
0
 10
13.484
 11
13.85
 20
35.538
 21
35.882
  0
LINE
  8
0
 10
13.85
 11
14.257
 20
35.882
 21
36.177
  0
LINE
  8
0
 10
14.257
 11
14.697
 20
36.177
 21
36.419
  0
LINE
  8
0
 10
14.697
 11
15.164
 20
36.419
 21
36.604
  0
LINE
  8
0
 10
15.164
 11
15.65
 20
36.604
 21
36.729
  0
LINE
  8
0
 10
15.65
 11
16.149
 20
36.729
 21
36.792
  0
LINE
  8
0
 10
16.149
 11
16.651
 20
36.792
 21
36.792
  0
LINE
  8
0
 10
16.651
 11
17.15
 20
36.792
 21
36.729
  0
LINE
  8
0
 10
17.15
 11
17.636
 20
36.729
 21
36.604
  0
LINE
  8
0
 10
17.636
 11
18.103
 20
36.604
 21
36.419
  0
LINE
  8
0
 10
18.103
 11
18.543
 20
36.419
 21
36.177
  0
LINE
  8
0
 10
18.543
 11
18.95
 20
36.177
 21
35.882
  0
LINE
  8
0
 10
18.95
 11
19.316
 20
35.882
 21
35.538
  0
LINE
  8
0
 10
19.316
 11
19.636
 20
35.538
 21
35.151
  0
LINE
  8
0
 10
19.636
 11
19.905
 20
35.151
 21
34.727
  0
LINE
  8
0
 10
19.905
 11
20.119
 20
34.727
 21
34.272
  0
LINE
  8
0
 10
20.119
 11
20.274
 20
34.272
 21
33.795
  0
LINE
  8
0
 10
20.274
 11
20.368
 20
33.795
 21
33.301
  0
LINE
  8
0
 10
20.368
 11
20.4
 20
33.301
 21
32.8
  0
LINE
  8
0
 10
20.4
 11
20.368
 20
32.8
 21
32.299
  0
LINE
  8
0
 10
20.368
 11
20.274
 20
32.299
 21
31.805
  0
LINE
  8
0
 10
20.274
 11
20.119
 20
31.805
 21
31.328
  0
LINE
  8
0
 10
20.119
 11
19.905
 20
31.328
 21
30.873
  0
LINE
  8
0
 10
19.905
 11
19.636
 20
30.873
 21
30.449
  0
LINE
  8
0
 10
19.636
 11
19.316
 20
30.449
 21
30.062
  0
LINE
  8
0
 10
19.316
 11
18.95
 20
30.062
 21
29.718
  0
LINE
  8
0
 10
18.95
 11
18.543
 20
29.718
 21
29.423
  0
LINE
  8
0
 10
18.543
 11
18.103
 20
29.423
 21
29.181
  0
LINE
  8
0
 10
18.103
 11
17.636
 20
29.181
 21
28.996
  0
LINE
  8
0
 10
17.636
 11
17.15
 20
28.996
 21
28.871
  0
LINE
  8
0
 10
17.15
 11
16.651
 20
28.871
 21
28.808
  0
LINE
  8
0
 10
16.651
 11
16.149
 20
28.808
 21
28.808
  0
LINE
  8
0
 10
16.149
 11
15.65
 20
28.808
 21
28.871
  0
LINE
  8
0
 10
15.65
 11
15.164
 20
28.871
 21
28.996
  0
LINE
  8
0
 10
15.164
 11
14.697
 20
28.996
 21
29.181
  0
LINE
  8
0
 10
14.697
 11
14.257
 20
29.181
 21
29.423
  0
LINE
  8
0
 10
14.257
 11
13.85
 20
29.423
 21
29.718
  0
LINE
  8
0
 10
13.85
 11
13.484
 20
29.718
 21
30.062
  0
LINE
  8
0
 10
13.484
 11
13.164
 20
30.062
 21
30.449
  0
LINE
  8
0
 10
13.164
 11
12.895
 20
30.449
 21
30.873
  0
LINE
  8
0
 10
12.895
 11
12.681
 20
30.873
 21
31.328
  0
LINE
  8
0
 10
12.681
 11
12.526
 20
31.328
 21
31.805
  0
LINE
  8
0
 10
12.526
 11
12.432
 20
31.805
 21
32.299
  0
LINE
  8
0
 10
12.432
 11
12.4
 20
32.299
 21
32.8
  0
LINE
  8
0
 10
12.4
 11
12.432
 20
41
 21
41.501
  0
LINE
  8
0
 10
12.432
 11
12.526
 20
41.501
 21
41.995
  0
LINE
  8
0
 10
12.526
 11
12.681
 20
41.995
 21
42.472
  0
LINE
  8
0
 10
12.681
 11
12.895
 20
42.472
 21
42.927
  0
LINE
  8
0
 10
12.895
 11
13.164
 20
42.927
 21
43.351
  0
LINE
  8
0
 10
13.164
 11
13.484
 20
43.351
 21
43.738
  0
LINE
  8
0
 10
13.484
 11
13.85
 20
43.738
 21
44.082
  0
LINE
  8
0
 10
13.85
 11
14.257
 20
44.082
 21
44.377
  0
LINE
  8
0
 10
14.257
 11
14.697
 20
44.377
 21
44.619
  0
LINE
  8
0
 10
14.697
 11
15.164
 20
44.619
 21
44.804
  0
LINE
  8
0
 10
15.164
 11
15.65
 20
44.804
 21
44.929
  0
LINE
  8
0
 10
15.65
 11
16.149
 20
44.929
 21
44.992
  0
LINE
  8
0
 10
16.149
 11
16.651
 20
44.992
 21
44.992
  0
LINE
  8
0
 10
16.651
 11
17.15
 20
44.992
 21
44.929
  0
LINE
  8
0
 10
17.15
 11
17.636
 20
44.929
 21
44.804
  0
LINE
  8
0
 10
17.636
 11
18.103
 20
44.804
 21
44.619
  0
LINE
  8
0
 10
18.103
 11
18.543
 20
44.619
 21
44.377
  0
LINE
  8
0
 10
18.543
 11
18.95
 20
44.377
 21
44.082
  0
LINE
  8
0
 10
18.95
 11
19.316
 20
44.082
 21
43.738
  0
LINE
  8
0
 10
19.316
 11
19.636
 20
43.738
 21
43.351
  0
LINE
  8
0
 10
19.636
 11
19.905
 20
43.351
 21
42.927
  0
LINE
  8
0
 10
19.905
 11
20.119
 20
42.927
 21
42.472
  0
LINE
  8
0
 10
20.119
 11
20.274
 20
42.472
 21
41.995
  0
LINE
  8
0
 10
20.274
 11
20.368
 20
41.995
 21
41.501
  0
LINE
  8
0
 10
20.368
 11
20.4
 20
41.501
 21
41
  0
LINE
  8
0
 10
20.4
 11
20.368
 20
41
 21
40.499
  0
LINE
  8
0
 10
20.368
 11
20.274
 20
40.499
 21
40.005
  0
LINE
  8
0
 10
20.274
 11
20.119
 20
40.005
 21
39.528
  0
LINE
  8
0
 10
20.119
 11
19.905
 20
39.528
 21
39.073
  0
LINE
  8
0
 10
19.905
 11
19.636
 20
39.073
 21
38.649
  0
LINE
  8
0
 10
19.636
 11
19.316
 20
38.649
 21
38.262
  0
LINE
  8
0
 10
19.316
 11
18.95
 20
38.262
 21
37.918
  0
LINE
  8
0
 10
18.95
 11
18.543
 20
37.918
 21
37.623
  0
LINE
  8
0
 10
18.543
 11
18.103
 20
37.623
 21
37.381
  0
LINE
  8
0
 10
18.103
 11
17.636
 20
37.381
 21
37.196
  0
LINE
  8
0
 10
17.636
 11
17.15
 20
37.196
 21
37.071
  0
LINE
  8
0
 10
17.15
 11
16.651
 20
37.071
 21
37.008
  0
LINE
  8
0
 10
16.651
 11
16.149
 20
37.008
 21
37.008
  0
LINE
  8
0
 10
16.149
 11
15.65
 20
37.008
 21
37.071
  0
LINE
  8
0
 10
15.65
 11
15.164
 20
37.071
 21
37.196
  0
LINE
  8
0
 10
15.164
 11
14.697
 20
37.196
 21
37.381
  0
LINE
  8
0
 10
14.697
 11
14.257
 20
37.381
 21
37.623
  0
LINE
  8
0
 10
14.257
 11
13.85
 20
37.623
 21
37.918
  0
LINE
  8
0
 10
13.85
 11
13.484
 20
37.918
 21
38.262
  0
LINE
  8
0
 10
13.484
 11
13.164
 20
38.262
 21
38.649
  0
LINE
  8
0
 10
13.164
 11
12.895
 20
38.649
 21
39.073
  0
LINE
  8
0
 10
12.895
 11
12.681
 20
39.073
 21
39.528
  0
LINE
  8
0
 10
12.681
 11
12.526
 20
39.528
 21
40.005
  0
LINE
  8
0
 10
12.526
 11
12.432
 20
40.005
 21
40.499
  0
LINE
  8
0
 10
12.432
 11
12.4
 20
40.499
 21
41
  0
LINE
  8
0
 10
14.4
 11
14.416
 20
0
 21
0.251
  0
LINE
  8
0
 10
14.416
 11
14.463
 20
0.251
 21
0.497
  0
LINE
  8
0
 10
14.463
 11
14.54
 20
0.497
 21
0.736
  0
LINE
  8
0
 10
14.54
 11
14.647
 20
0.736
 21
0.964
  0
LINE
  8
0
 10
14.647
 11
14.782
 20
0.964
 21
1.176
  0
LINE
  8
0
 10
14.782
 11
14.942
 20
1.176
 21
1.369
  0
LINE
  8
0
 10
14.942
 11
15.125
 20
1.369
 21
1.541
  0
LINE
  8
0
 10
15.125
 11
15.328
 20
1.541
 21
1.689
  0
LINE
  8
0
 10
15.328
 11
15.548
 20
1.689
 21
1.81
  0
LINE
  8
0
 10
15.548
 11
15.782
 20
1.81
 21
1.902
  0
LINE
  8
0
 10
15.782
 11
16.025
 20
1.902
 21
1.965
  0
LINE
  8
0
 10
16.025
 11
16.274
 20
1.965
 21
1.996
  0
LINE
  8
0
 10
16.274
 11
16.526
 20
1.996
 21
1.996
  0
LINE
  8
0
 10
16.526
 11
16.775
 20
1.996
 21
1.965
  0
LINE
  8
0
 10
16.775
 11
17.018
 20
1.965
 21
1.902
  0
LINE
  8
0
 10
17.018
 11
17.252
 20
1.902
 21
1.81
  0
LINE
  8
0
 10
17.252
 11
17.472
 20
1.81
 21
1.689
  0
LINE
  8
0
 10
17.472
 11
17.675
 20
1.689
 21
1.541
  0
LINE
  8
0
 10
17.675
 11
17.858
 20
1.541
 21
1.369
  0
LINE
  8
0
 10
17.858
 11
18.018
 20
1.369
 21
1.176
  0
LINE
  8
0
 10
18.018
 11
18.153
 20
1.176
 21
0.964
  0
LINE
  8
0
 10
18.153
 11
18.26
 20
0.964
 21
0.736
  0
LINE
  8
0
 10
18.26
 11
18.337
 20
0.736
 21
0.497
  0
LINE
  8
0
 10
18.337
 11
18.384
 20
0.497
 21
0.251
  0
LINE
  8
0
 10
18.384
 11
18.4
 20
0.251
 21
0
  0
LINE
  8
0
 10
18.4
 11
18.384
 20
0
 21
-0.251
  0
LINE
  8
0
 10
18.384
 11
18.337
 20
-0.251
 21
-0.497
  0
LINE
  8
0
 10
18.337
 11
18.26
 20
-0.497
 21
-0.736
  0
LINE
  8
0
 10
18.26
 11
18.153
 20
-0.736
 21
-0.964
  0
LINE
  8
0
 10
18.153
 11
18.018
 20
-0.964
 21
-1.176
  0
LINE
  8
0
 10
18.018
 11
17.858
 20
-1.176
 21
-1.369
  0
LINE
  8
0
 10
17.858
 11
17.675
 20
-1.369
 21
-1.541
  0
LINE
  8
0
 10
17.675
 11
17.472
 20
-1.541
 21
-1.689
  0
LINE
  8
0
 10
17.472
 11
17.252
 20
-1.689
 21
-1.81
  0
LINE
  8
0
 10
17.252
 11
17.018
 20
-1.81
 21
-1.902
  0
LINE
  8
0
 10
17.018
 11
16.775
 20
-1.902
 21
-1.965
  0
LINE
  8
0
 10
16.775
 11
16.526
 20
-1.965
 21
-1.996
  0
LINE
  8
0
 10
16.526
 11
16.274
 20
-1.996
 21
-1.996
  0
LINE
  8
0
 10
16.274
 11
16.025
 20
-1.996
 21
-1.965
  0
LINE
  8
0
 10
16.025
 11
15.782
 20
-1.965
 21
-1.902
  0
LINE
  8
0
 10
15.782
 11
15.548
 20
-1.902
 21
-1.81
  0
LINE
  8
0
 10
15.548
 11
15.328
 20
-1.81
 21
-1.689
  0
LINE
  8
0
 10
15.328
 11
15.125
 20
-1.689
 21
-1.541
  0
LINE
  8
0
 10
15.125
 11
14.942
 20
-1.541
 21
-1.369
  0
LINE
  8
0
 10
14.942
 11
14.782
 20
-1.369
 21
-1.176
  0
LINE
  8
0
 10
14.782
 11
14.647
 20
-1.176
 21
-0.964
  0
LINE
  8
0
 10
14.647
 11
14.54
 20
-0.964
 21
-0.736
  0
LINE
  8
0
 10
14.54
 11
14.463
 20
-0.736
 21
-0.497
  0
LINE
  8
0
 10
14.463
 11
14.416
 20
-0.497
 21
-0.251
  0
LINE
  8
0
 10
14.416
 11
14.4
 20
-0.251
 21
0
  0
LINE
  8
0
 10
14.4
 11
14.416
 20
8.2
 21
8.451
  0
LINE
  8
0
 10
14.416
 11
14.463
 20
8.451
 21
8.697
  0
LINE
  8
0
 10
14.463
 11
14.54
 20
8.697
 21
8.936
  0
LINE
  8
0
 10
14.54
 11
14.647
 20
8.936
 21
9.164
  0
LINE
  8
0
 10
14.647
 11
14.782
 20
9.164
 21
9.376
  0
LINE
  8
0
 10
14.782
 11
14.942
 20
9.376
 21
9.569
  0
LINE
  8
0
 10
14.942
 11
15.125
 20
9.569
 21
9.741
  0
LINE
  8
0
 10
15.125
 11
15.328
 20
9.741
 21
9.889
  0
LINE
  8
0
 10
15.328
 11
15.548
 20
9.889
 21
10.01
  0
LINE
  8
0
 10
15.548
 11
15.782
 20
10.01
 21
10.102
  0
LINE
  8
0
 10
15.782
 11
16.025
 20
10.102
 21
10.165
  0
LINE
  8
0
 10
16.025
 11
16.274
 20
10.165
 21
10.196
  0
LINE
  8
0
 10
16.274
 11
16.526
 20
10.196
 21
10.196
  0
LINE
  8
0
 10
16.526
 11
16.775
 20
10.196
 21
10.165
  0
LINE
  8
0
 10
16.775
 11
17.018
 20
10.165
 21
10.102
  0
LINE
  8
0
 10
17.018
 11
17.252
 20
10.102
 21
10.01
  0
LINE
  8
0
 10
17.252
 11
17.472
 20
10.01
 21
9.889
  0
LINE
  8
0
 10
17.472
 11
17.675
 20
9.889
 21
9.741
  0
LINE
  8
0
 10
17.675
 11
17.858
 20
9.741
 21
9.569
  0
LINE
  8
0
 10
17.858
 11
18.018
 20
9.569
 21
9.376
  0
LINE
  8
0
 10
18.018
 11
18.153
 20
9.376
 21
9.164
  0
LINE
  8
0
 10
18.153
 11
18.26
 20
9.164
 21
8.936
  0
LINE
  8
0
 10
18.26
 11
18.337
 20
8.936
 21
8.697
  0
LINE
  8
0
 10
18.337
 11
18.384
 20
8.697
 21
8.451
  0
LINE
  8
0
 10
18.384
 11
18.4
 20
8.451
 21
8.2
  0
LINE
  8
0
 10
18.4
 11
18.384
 20
8.2
 21
7.949
  0
LINE
  8
0
 10
18.384
 11
18.337
 20
7.949
 21
7.703
  0
LINE
  8
0
 10
18.337
 11
18.26
 20
7.703
 21
7.464
  0
LINE
  8
0
 10
18.26
 11
18.153
 20
7.464
 21
7.236
  0
LINE
  8
0
 10
18.153
 11
18.018
 20
7.236
 21
7.024
  0
LINE
  8
0
 10
18.018
 11
17.858
 20
7.024
 21
6.831
  0
LINE
  8
0
 10
17.858
 11
17.675
 20
6.831
 21
6.659
  0
LINE
  8
0
 10
17.675
 11
17.472
 20
6.659
 21
6.511
  0
LINE
  8
0
 10
17.472
 11
17.252
 20
6.511
 21
6.39
  0
LINE
  8
0
 10
17.252
 11
17.018
 20
6.39
 21
6.298
  0
LINE
  8
0
 10
17.018
 11
16.775
 20
6.298
 21
6.235
  0
LINE
  8
0
 10
16.775
 11
16.526
 20
6.235
 21
6.204
  0
LINE
  8
0
 10
16.526
 11
16.274
 20
6.204
 21
6.204
  0
LINE
  8
0
 10
16.274
 11
16.025
 20
6.204
 21
6.235
  0
LINE
  8
0
 10
16.025
 11
15.782
 20
6.235
 21
6.298
  0
LINE
  8
0
 10
15.782
 11
15.548
 20
6.298
 21
6.39
  0
LINE
  8
0
 10
15.548
 11
15.328
 20
6.39
 21
6.511
  0
LINE
  8
0
 10
15.328
 11
15.125
 20
6.511
 21
6.659
  0
LINE
  8
0
 10
15.125
 11
14.942
 20
6.659
 21
6.831
  0
LINE
  8
0
 10
14.942
 11
14.782
 20
6.831
 21
7.024
  0
LINE
  8
0
 10
14.782
 11
14.647
 20
7.024
 21
7.236
  0
LINE
  8
0
 10
14.647
 11
14.54
 20
7.236
 21
7.464
  0
LINE
  8
0
 10
14.54
 11
14.463
 20
7.464
 21
7.703
  0
LINE
  8
0
 10
14.463
 11
14.416
 20
7.703
 21
7.949
  0
LINE
  8
0
 10
14.416
 11
14.4
 20
7.949
 21
8.2
  0
LINE
  8
0
 10
14.4
 11
14.416
 20
16.4
 21
16.651
  0
LINE
  8
0
 10
14.416
 11
14.463
 20
16.651
 21
16.897
  0
LINE
  8
0
 10
14.463
 11
14.54
 20
16.897
 21
17.136
  0
LINE
  8
0
 10
14.54
 11
14.647
 20
17.136
 21
17.364
  0
LINE
  8
0
 10
14.647
 11
14.782
 20
17.364
 21
17.576
  0
LINE
  8
0
 10
14.782
 11
14.942
 20
17.576
 21
17.769
  0
LINE
  8
0
 10
14.942
 11
15.125
 20
17.769
 21
17.941
  0
LINE
  8
0
 10
15.125
 11
15.328
 20
17.941
 21
18.089
  0
LINE
  8
0
 10
15.328
 11
15.548
 20
18.089
 21
18.21
  0
LINE
  8
0
 10
15.548
 11
15.782
 20
18.21
 21
18.302
  0
LINE
  8
0
 10
15.782
 11
16.025
 20
18.302
 21
18.365
  0
LINE
  8
0
 10
16.025
 11
16.274
 20
18.365
 21
18.396
  0
LINE
  8
0
 10
16.274
 11
16.526
 20
18.396
 21
18.396
  0
LINE
  8
0
 10
16.526
 11
16.775
 20
18.396
 21
18.365
  0
LINE
  8
0
 10
16.775
 11
17.018
 20
18.365
 21
18.302
  0
LINE
  8
0
 10
17.018
 11
17.252
 20
18.302
 21
18.21
  0
LINE
  8
0
 10
17.252
 11
17.472
 20
18.21
 21
18.089
  0
LINE
  8
0
 10
17.472
 11
17.675
 20
18.089
 21
17.941
  0
LINE
  8
0
 10
17.675
 11
17.858
 20
17.941
 21
17.769
  0
LINE
  8
0
 10
17.858
 11
18.018
 20
17.769
 21
17.576
  0
LINE
  8
0
 10
18.018
 11
18.153
 20
17.576
 21
17.364
  0
LINE
  8
0
 10
18.153
 11
18.26
 20
17.364
 21
17.136
  0
LINE
  8
0
 10
18.26
 11
18.337
 20
17.136
 21
16.897
  0
LINE
  8
0
 10
18.337
 11
18.384
 20
16.897
 21
16.651
  0
LINE
  8
0
 10
18.384
 11
18.4
 20
16.651
 21
16.4
  0
LINE
  8
0
 10
18.4
 11
18.384
 20
16.4
 21
16.149
  0
LINE
  8
0
 10
18.384
 11
18.337
 20
16.149
 21
15.903
  0
LINE
  8
0
 10
18.337
 11
18.26
 20
15.903
 21
15.664
  0
LINE
  8
0
 10
18.26
 11
18.153
 20
15.664
 21
15.436
  0
LINE
  8
0
 10
18.153
 11
18.018
 20
15.436
 21
15.224
  0
LINE
  8
0
 10
18.018
 11
17.858
 20
15.224
 21
15.031
  0
LINE
  8
0
 10
17.858
 11
17.675
 20
15.031
 21
14.859
  0
LINE
  8
0
 10
17.675
 11
17.472
 20
14.859
 21
14.711
  0
LINE
  8
0
 10
17.472
 11
17.252
 20
14.711
 21
14.59
  0
LINE
  8
0
 10
17.252
 11
17.018
 20
14.59
 21
14.498
  0
LINE
  8
0
 10
17.018
 11
16.775
 20
14.498
 21
14.435
  0
LINE
  8
0
 10
16.775
 11
16.526
 20
14.435
 21
14.404
  0
LINE
  8
0
 10
16.526
 11
16.274
 20
14.404
 21
14.404
  0
LINE
  8
0
 10
16.274
 11
16.025
 20
14.404
 21
14.435
  0
LINE
  8
0
 10
16.025
 11
15.782
 20
14.435
 21
14.498
  0
LINE
  8
0
 10
15.782
 11
15.548
 20
14.498
 21
14.59
  0
LINE
  8
0
 10
15.548
 11
15.328
 20
14.59
 21
14.711
  0
LINE
  8
0
 10
15.328
 11
15.125
 20
14.711
 21
14.859
  0
LINE
  8
0
 10
15.125
 11
14.942
 20
14.859
 21
15.031
  0
LINE
  8
0
 10
14.942
 11
14.782
 20
15.031
 21
15.224
  0
LINE
  8
0
 10
14.782
 11
14.647
 20
15.224
 21
15.436
  0
LINE
  8
0
 10
14.647
 11
14.54
 20
15.436
 21
15.664
  0
LINE
  8
0
 10
14.54
 11
14.463
 20
15.664
 21
15.903
  0
LINE
  8
0
 10
14.463
 11
14.416
 20
15.903
 21
16.149
  0
LINE
  8
0
 10
14.416
 11
14.4
 20
16.149
 21
16.4
  0
LINE
  8
0
 10
14.4
 11
14.416
 20
24.6
 21
24.851
  0
LINE
  8
0
 10
14.416
 11
14.463
 20
24.851
 21
25.097
  0
LINE
  8
0
 10
14.463
 11
14.54
 20
25.097
 21
25.336
  0
LINE
  8
0
 10
14.54
 11
14.647
 20
25.336
 21
25.564
  0
LINE
  8
0
 10
14.647
 11
14.782
 20
25.564
 21
25.776
  0
LINE
  8
0
 10
14.782
 11
14.942
 20
25.776
 21
25.969
  0
LINE
  8
0
 10
14.942
 11
15.125
 20
25.969
 21
26.141
  0
LINE
  8
0
 10
15.125
 11
15.328
 20
26.141
 21
26.289
  0
LINE
  8
0
 10
15.328
 11
15.548
 20
26.289
 21
26.41
  0
LINE
  8
0
 10
15.548
 11
15.782
 20
26.41
 21
26.502
  0
LINE
  8
0
 10
15.782
 11
16.025
 20
26.502
 21
26.565
  0
LINE
  8
0
 10
16.025
 11
16.274
 20
26.565
 21
26.596
  0
LINE
  8
0
 10
16.274
 11
16.526
 20
26.596
 21
26.596
  0
LINE
  8
0
 10
16.526
 11
16.775
 20
26.596
 21
26.565
  0
LINE
  8
0
 10
16.775
 11
17.018
 20
26.565
 21
26.502
  0
LINE
  8
0
 10
17.018
 11
17.252
 20
26.502
 21
26.41
  0
LINE
  8
0
 10
17.252
 11
17.472
 20
26.41
 21
26.289
  0
LINE
  8
0
 10
17.472
 11
17.675
 20
26.289
 21
26.141
  0
LINE
  8
0
 10
17.675
 11
17.858
 20
26.141
 21
25.969
  0
LINE
  8
0
 10
17.858
 11
18.018
 20
25.969
 21
25.776
  0
LINE
  8
0
 10
18.018
 11
18.153
 20
25.776
 21
25.564
  0
LINE
  8
0
 10
18.153
 11
18.26
 20
25.564
 21
25.336
  0
LINE
  8
0
 10
18.26
 11
18.337
 20
25.336
 21
25.097
  0
LINE
  8
0
 10
18.337
 11
18.384
 20
25.097
 21
24.851
  0
LINE
  8
0
 10
18.384
 11
18.4
 20
24.851
 21
24.6
  0
LINE
  8
0
 10
18.4
 11
18.384
 20
24.6
 21
24.349
  0
LINE
  8
0
 10
18.384
 11
18.337
 20
24.349
 21
24.103
  0
LINE
  8
0
 10
18.337
 11
18.26
 20
24.103
 21
23.864
  0
LINE
  8
0
 10
18.26
 11
18.153
 20
23.864
 21
23.636
  0
LINE
  8
0
 10
18.153
 11
18.018
 20
23.636
 21
23.424
  0
LINE
  8
0
 10
18.018
 11
17.858
 20
23.424
 21
23.231
  0
LINE
  8
0
 10
17.858
 11
17.675
 20
23.231
 21
23.059
  0
LINE
  8
0
 10
17.675
 11
17.472
 20
23.059
 21
22.911
  0
LINE
  8
0
 10
17.472
 11
17.252
 20
22.911
 21
22.79
  0
LINE
  8
0
 10
17.252
 11
17.018
 20
22.79
 21
22.698
  0
LINE
  8
0
 10
17.018
 11
16.775
 20
22.698
 21
22.635
  0
LINE
  8
0
 10
16.775
 11
16.526
 20
22.635
 21
22.604
  0
LINE
  8
0
 10
16.526
 11
16.274
 20
22.604
 21
22.604
  0
LINE
  8
0
 10
16.274
 11
16.025
 20
22.604
 21
22.635
  0
LINE
  8
0
 10
16.025
 11
15.782
 20
22.635
 21
22.698
  0
LINE
  8
0
 10
15.782
 11
15.548
 20
22.698
 21
22.79
  0
LINE
  8
0
 10
15.548
 11
15.328
 20
22.79
 21
22.911
  0
LINE
  8
0
 10
15.328
 11
15.125
 20
22.911
 21
23.059
  0
LINE
  8
0
 10
15.125
 11
14.942
 20
23.059
 21
23.231
  0
LINE
  8
0
 10
14.942
 11
14.782
 20
23.231
 21
23.424
  0
LINE
  8
0
 10
14.782
 11
14.647
 20
23.424
 21
23.636
  0
LINE
  8
0
 10
14.647
 11
14.54
 20
23.636
 21
23.864
  0
LINE
  8
0
 10
14.54
 11
14.463
 20
23.864
 21
24.103
  0
LINE
  8
0
 10
14.463
 11
14.416
 20
24.103
 21
24.349
  0
LINE
  8
0
 10
14.416
 11
14.4
 20
24.349
 21
24.6
  0
LINE
  8
0
 10
14.4
 11
14.416
 20
32.8
 21
33.051
  0
LINE
  8
0
 10
14.416
 11
14.463
 20
33.051
 21
33.297
  0
LINE
  8
0
 10
14.463
 11
14.54
 20
33.297
 21
33.536
  0
LINE
  8
0
 10
14.54
 11
14.647
 20
33.536
 21
33.764
  0
LINE
  8
0
 10
14.647
 11
14.782
 20
33.764
 21
33.976
  0
LINE
  8
0
 10
14.782
 11
14.942
 20
33.976
 21
34.169
  0
LINE
  8
0
 10
14.942
 11
15.125
 20
34.169
 21
34.341
  0
LINE
  8
0
 10
15.125
 11
15.328
 20
34.341
 21
34.489
  0
LINE
  8
0
 10
15.328
 11
15.548
 20
34.489
 21
34.61
  0
LINE
  8
0
 10
15.548
 11
15.782
 20
34.61
 21
34.702
  0
LINE
  8
0
 10
15.782
 11
16.025
 20
34.702
 21
34.765
  0
LINE
  8
0
 10
16.025
 11
16.274
 20
34.765
 21
34.796
  0
LINE
  8
0
 10
16.274
 11
16.526
 20
34.796
 21
34.796
  0
LINE
  8
0
 10
16.526
 11
16.775
 20
34.796
 21
34.765
  0
LINE
  8
0
 10
16.775
 11
17.018
 20
34.765
 21
34.702
  0
LINE
  8
0
 10
17.018
 11
17.252
 20
34.702
 21
34.61
  0
LINE
  8
0
 10
17.252
 11
17.472
 20
34.61
 21
34.489
  0
LINE
  8
0
 10
17.472
 11
17.675
 20
34.489
 21
34.341
  0
LINE
  8
0
 10
17.675
 11
17.858
 20
34.341
 21
34.169
  0
LINE
  8
0
 10
17.858
 11
18.018
 20
34.169
 21
33.976
  0
LINE
  8
0
 10
18.018
 11
18.153
 20
33.976
 21
33.764
  0
LINE
  8
0
 10
18.153
 11
18.26
 20
33.764
 21
33.536
  0
LINE
  8
0
 10
18.26
 11
18.337
 20
33.536
 21
33.297
  0
LINE
  8
0
 10
18.337
 11
18.384
 20
33.297
 21
33.051
  0
LINE
  8
0
 10
18.384
 11
18.4
 20
33.051
 21
32.8
  0
LINE
  8
0
 10
18.4
 11
18.384
 20
32.8
 21
32.549
  0
LINE
  8
0
 10
18.384
 11
18.337
 20
32.549
 21
32.303
  0
LINE
  8
0
 10
18.337
 11
18.26
 20
32.303
 21
32.064
  0
LINE
  8
0
 10
18.26
 11
18.153
 20
32.064
 21
31.836
  0
LINE
  8
0
 10
18.153
 11
18.018
 20
31.836
 21
31.624
  0
LINE
  8
0
 10
18.018
 11
17.858
 20
31.624
 21
31.431
  0
LINE
  8
0
 10
17.858
 11
17.675
 20
31.431
 21
31.259
  0
LINE
  8
0
 10
17.675
 11
17.472
 20
31.259
 21
31.111
  0
LINE
  8
0
 10
17.472
 11
17.252
 20
31.111
 21
30.99
  0
LINE
  8
0
 10
17.252
 11
17.018
 20
30.99
 21
30.898
  0
LINE
  8
0
 10
17.018
 11
16.775
 20
30.898
 21
30.835
  0
LINE
  8
0
 10
16.775
 11
16.526
 20
30.835
 21
30.804
  0
LINE
  8
0
 10
16.526
 11
16.274
 20
30.804
 21
30.804
  0
LINE
  8
0
 10
16.274
 11
16.025
 20
30.804
 21
30.835
  0
LINE
  8
0
 10
16.025
 11
15.782
 20
30.835
 21
30.898
  0
LINE
  8
0
 10
15.782
 11
15.548
 20
30.898
 21
30.99
  0
LINE
  8
0
 10
15.548
 11
15.328
 20
30.99
 21
31.111
  0
LINE
  8
0
 10
15.328
 11
15.125
 20
31.111
 21
31.259
  0
LINE
  8
0
 10
15.125
 11
14.942
 20
31.259
 21
31.431
  0
LINE
  8
0
 10
14.942
 11
14.782
 20
31.431
 21
31.624
  0
LINE
  8
0
 10
14.782
 11
14.647
 20
31.624
 21
31.836
  0
LINE
  8
0
 10
14.647
 11
14.54
 20
31.836
 21
32.064
  0
LINE
  8
0
 10
14.54
 11
14.463
 20
32.064
 21
32.303
  0
LINE
  8
0
 10
14.463
 11
14.416
 20
32.303
 21
32.549
  0
LINE
  8
0
 10
14.416
 11
14.4
 20
32.549
 21
32.8
  0
LINE
  8
0
 10
14.4
 11
14.416
 20
41
 21
41.251
  0
LINE
  8
0
 10
14.416
 11
14.463
 20
41.251
 21
41.497
  0
LINE
  8
0
 10
14.463
 11
14.54
 20
41.497
 21
41.736
  0
LINE
  8
0
 10
14.54
 11
14.647
 20
41.736
 21
41.964
  0
LINE
  8
0
 10
14.647
 11
14.782
 20
41.964
 21
42.176
  0
LINE
  8
0
 10
14.782
 11
14.942
 20
42.176
 21
42.369
  0
LINE
  8
0
 10
14.942
 11
15.125
 20
42.369
 21
42.541
  0
LINE
  8
0
 10
15.125
 11
15.328
 20
42.541
 21
42.689
  0
LINE
  8
0
 10
15.328
 11
15.548
 20
42.689
 21
42.81
  0
LINE
  8
0
 10
15.548
 11
15.782
 20
42.81
 21
42.902
  0
LINE
  8
0
 10
15.782
 11
16.025
 20
42.902
 21
42.965
  0
LINE
  8
0
 10
16.025
 11
16.274
 20
42.965
 21
42.996
  0
LINE
  8
0
 10
16.274
 11
16.526
 20
42.996
 21
42.996
  0
LINE
  8
0
 10
16.526
 11
16.775
 20
42.996
 21
42.965
  0
LINE
  8
0
 10
16.775
 11
17.018
 20
42.965
 21
42.902
  0
LINE
  8
0
 10
17.018
 11
17.252
 20
42.902
 21
42.81
  0
LINE
  8
0
 10
17.252
 11
17.472
 20
42.81
 21
42.689
  0
LINE
  8
0
 10
17.472
 11
17.675
 20
42.689
 21
42.541
  0
LINE
  8
0
 10
17.675
 11
17.858
 20
42.541
 21
42.369
  0
LINE
  8
0
 10
17.858
 11
18.018
 20
42.369
 21
42.176
  0
LINE
  8
0
 10
18.018
 11
18.153
 20
42.176
 21
41.964
  0
LINE
  8
0
 10
18.153
 11
18.26
 20
41.964
 21
41.736
  0
LINE
  8
0
 10
18.26
 11
18.337
 20
41.736
 21
41.497
  0
LINE
  8
0
 10
18.337
 11
18.384
 20
41.497
 21
41.251
  0
LINE
  8
0
 10
18.384
 11
18.4
 20
41.251
 21
41
  0
LINE
  8
0
 10
18.4
 11
18.384
 20
41
 21
40.749
  0
LINE
  8
0
 10
18.384
 11
18.337
 20
40.749
 21
40.503
  0
LINE
  8
0
 10
18.337
 11
18.26
 20
40.503
 21
40.264
  0
LINE
  8
0
 10
18.26
 11
18.153
 20
40.264
 21
40.036
  0
LINE
  8
0
 10
18.153
 11
18.018
 20
40.036
 21
39.824
  0
LINE
  8
0
 10
18.018
 11
17.858
 20
39.824
 21
39.631
  0
LINE
  8
0
 10
17.858
 11
17.675
 20
39.631
 21
39.459
  0
LINE
  8
0
 10
17.675
 11
17.472
 20
39.459
 21
39.311
  0
LINE
  8
0
 10
17.472
 11
17.252
 20
39.311
 21
39.19
  0
LINE
  8
0
 10
17.252
 11
17.018
 20
39.19
 21
39.098
  0
LINE
  8
0
 10
17.018
 11
16.775
 20
39.098
 21
39.035
  0
LINE
  8
0
 10
16.775
 11
16.526
 20
39.035
 21
39.004
  0
LINE
  8
0
 10
16.526
 11
16.274
 20
39.004
 21
39.004
  0
LINE
  8
0
 10
16.274
 11
16.025
 20
39.004
 21
39.035
  0
LINE
  8
0
 10
16.025
 11
15.782
 20
39.035
 21
39.098
  0
LINE
  8
0
 10
15.782
 11
15.548
 20
39.098
 21
39.19
  0
LINE
  8
0
 10
15.548
 11
15.328
 20
39.19
 21
39.311
  0
LINE
  8
0
 10
15.328
 11
15.125
 20
39.311
 21
39.459
  0
LINE
  8
0
 10
15.125
 11
14.942
 20
39.459
 21
39.631
  0
LINE
  8
0
 10
14.942
 11
14.782
 20
39.631
 21
39.824
  0
LINE
  8
0
 10
14.782
 11
14.647
 20
39.824
 21
40.036
  0
LINE
  8
0
 10
14.647
 11
14.54
 20
40.036
 21
40.264
  0
LINE
  8
0
 10
14.54
 11
14.463
 20
40.264
 21
40.503
  0
LINE
  8
0
 10
14.463
 11
14.416
 20
40.503
 21
40.749
  0
LINE
  8
0
 10
14.416
 11
14.4
 20
40.749
 21
41
  0
LINE
  8
0
 10
20.6
 11
20.632
 20
0
 21
0.501
  0
LINE
  8
0
 10
20.632
 11
20.726
 20
0.501
 21
0.995
  0
LINE
  8
0
 10
20.726
 11
20.881
 20
0.995
 21
1.472
  0
LINE
  8
0
 10
20.881
 11
21.095
 20
1.472
 21
1.927
  0
LINE
  8
0
 10
21.095
 11
21.364
 20
1.927
 21
2.351
  0
LINE
  8
0
 10
21.364
 11
21.684
 20
2.351
 21
2.738
  0
LINE
  8
0
 10
21.684
 11
22.05
 20
2.738
 21
3.082
  0
LINE
  8
0
 10
22.05
 11
22.457
 20
3.082
 21
3.377
  0
LINE
  8
0
 10
22.457
 11
22.897
 20
3.377
 21
3.619
  0
LINE
  8
0
 10
22.897
 11
23.364
 20
3.619
 21
3.804
  0
LINE
  8
0
 10
23.364
 11
23.85
 20
3.804
 21
3.929
  0
LINE
  8
0
 10
23.85
 11
24.349
 20
3.929
 21
3.992
  0
LINE
  8
0
 10
24.349
 11
24.851
 20
3.992
 21
3.992
  0
LINE
  8
0
 10
24.851
 11
25.35
 20
3.992
 21
3.929
  0
LINE
  8
0
 10
25.35
 11
25.836
 20
3.929
 21
3.804
  0
LINE
  8
0
 10
25.836
 11
26.303
 20
3.804
 21
3.619
  0
LINE
  8
0
 10
26.303
 11
26.743
 20
3.619
 21
3.377
  0
LINE
  8
0
 10
26.743
 11
27.15
 20
3.377
 21
3.082
  0
LINE
  8
0
 10
27.15
 11
27.516
 20
3.082
 21
2.738
  0
LINE
  8
0
 10
27.516
 11
27.836
 20
2.738
 21
2.351
  0
LINE
  8
0
 10
27.836
 11
28.105
 20
2.351
 21
1.927
  0
LINE
  8
0
 10
28.105
 11
28.319
 20
1.927
 21
1.472
  0
LINE
  8
0
 10
28.319
 11
28.474
 20
1.472
 21
0.995
  0
LINE
  8
0
 10
28.474
 11
28.568
 20
0.995
 21
0.501
  0
LINE
  8
0
 10
28.568
 11
28.6
 20
0.501
 21
0
  0
LINE
  8
0
 10
28.6
 11
28.568
 20
0
 21
-0.501
  0
LINE
  8
0
 10
28.568
 11
28.474
 20
-0.501
 21
-0.995
  0
LINE
  8
0
 10
28.474
 11
28.319
 20
-0.995
 21
-1.472
  0
LINE
  8
0
 10
28.319
 11
28.105
 20
-1.472
 21
-1.927
  0
LINE
  8
0
 10
28.105
 11
27.836
 20
-1.927
 21
-2.351
  0
LINE
  8
0
 10
27.836
 11
27.516
 20
-2.351
 21
-2.738
  0
LINE
  8
0
 10
27.516
 11
27.15
 20
-2.738
 21
-3.082
  0
LINE
  8
0
 10
27.15
 11
26.743
 20
-3.082
 21
-3.377
  0
LINE
  8
0
 10
26.743
 11
26.303
 20
-3.377
 21
-3.619
  0
LINE
  8
0
 10
26.303
 11
25.836
 20
-3.619
 21
-3.804
  0
LINE
  8
0
 10
25.836
 11
25.35
 20
-3.804
 21
-3.929
  0
LINE
  8
0
 10
25.35
 11
24.851
 20
-3.929
 21
-3.992
  0
LINE
  8
0
 10
24.851
 11
24.349
 20
-3.992
 21
-3.992
  0
LINE
  8
0
 10
24.349
 11
23.85
 20
-3.992
 21
-3.929
  0
LINE
  8
0
 10
23.85
 11
23.364
 20
-3.929
 21
-3.804
  0
LINE
  8
0
 10
23.364
 11
22.897
 20
-3.804
 21
-3.619
  0
LINE
  8
0
 10
22.897
 11
22.457
 20
-3.619
 21
-3.377
  0
LINE
  8
0
 10
22.457
 11
22.05
 20
-3.377
 21
-3.082
  0
LINE
  8
0
 10
22.05
 11
21.684
 20
-3.082
 21
-2.738
  0
LINE
  8
0
 10
21.684
 11
21.364
 20
-2.738
 21
-2.351
  0
LINE
  8
0
 10
21.364
 11
21.095
 20
-2.351
 21
-1.927
  0
LINE
  8
0
 10
21.095
 11
20.881
 20
-1.927
 21
-1.472
  0
LINE
  8
0
 10
20.881
 11
20.726
 20
-1.472
 21
-0.995
  0
LINE
  8
0
 10
20.726
 11
20.632
 20
-0.995
 21
-0.501
  0
LINE
  8
0
 10
20.632
 11
20.6
 20
-0.501
 21
0
  0
LINE
  8
0
 10
20.6
 11
20.632
 20
8.2
 21
8.701
  0
LINE
  8
0
 10
20.632
 11
20.726
 20
8.701
 21
9.195
  0
LINE
  8
0
 10
20.726
 11
20.881
 20
9.195
 21
9.672
  0
LINE
  8
0
 10
20.881
 11
21.095
 20
9.672
 21
10.127
  0
LINE
  8
0
 10
21.095
 11
21.364
 20
10.127
 21
10.551
  0
LINE
  8
0
 10
21.364
 11
21.684
 20
10.551
 21
10.938
  0
LINE
  8
0
 10
21.684
 11
22.05
 20
10.938
 21
11.282
  0
LINE
  8
0
 10
22.05
 11
22.457
 20
11.282
 21
11.577
  0
LINE
  8
0
 10
22.457
 11
22.897
 20
11.577
 21
11.819
  0
LINE
  8
0
 10
22.897
 11
23.364
 20
11.819
 21
12.004
  0
LINE
  8
0
 10
23.364
 11
23.85
 20
12.004
 21
12.129
  0
LINE
  8
0
 10
23.85
 11
24.349
 20
12.129
 21
12.192
  0
LINE
  8
0
 10
24.349
 11
24.851
 20
12.192
 21
12.192
  0
LINE
  8
0
 10
24.851
 11
25.35
 20
12.192
 21
12.129
  0
LINE
  8
0
 10
25.35
 11
25.836
 20
12.129
 21
12.004
  0
LINE
  8
0
 10
25.836
 11
26.303
 20
12.004
 21
11.819
  0
LINE
  8
0
 10
26.303
 11
26.743
 20
11.819
 21
11.577
  0
LINE
  8
0
 10
26.743
 11
27.15
 20
11.577
 21
11.282
  0
LINE
  8
0
 10
27.15
 11
27.516
 20
11.282
 21
10.938
  0
LINE
  8
0
 10
27.516
 11
27.836
 20
10.938
 21
10.551
  0
LINE
  8
0
 10
27.836
 11
28.105
 20
10.551
 21
10.127
  0
LINE
  8
0
 10
28.105
 11
28.319
 20
10.127
 21
9.672
  0
LINE
  8
0
 10
28.319
 11
28.474
 20
9.672
 21
9.195
  0
LINE
  8
0
 10
28.474
 11
28.568
 20
9.195
 21
8.701
  0
LINE
  8
0
 10
28.568
 11
28.6
 20
8.701
 21
8.2
  0
LINE
  8
0
 10
28.6
 11
28.568
 20
8.2
 21
7.699
  0
LINE
  8
0
 10
28.568
 11
28.474
 20
7.699
 21
7.205
  0
LINE
  8
0
 10
28.474
 11
28.319
 20
7.205
 21
6.728
  0
LINE
  8
0
 10
28.319
 11
28.105
 20
6.728
 21
6.273
  0
LINE
  8
0
 10
28.105
 11
27.836
 20
6.273
 21
5.849
  0
LINE
  8
0
 10
27.836
 11
27.516
 20
5.849
 21
5.462
  0
LINE
  8
0
 10
27.516
 11
27.15
 20
5.462
 21
5.118
  0
LINE
  8
0
 10
27.15
 11
26.743
 20
5.118
 21
4.823
  0
LINE
  8
0
 10
26.743
 11
26.303
 20
4.823
 21
4.581
  0
LINE
  8
0
 10
26.303
 11
25.836
 20
4.581
 21
4.396
  0
LINE
  8
0
 10
25.836
 11
25.35
 20
4.396
 21
4.271
  0
LINE
  8
0
 10
25.35
 11
24.851
 20
4.271
 21
4.208
  0
LINE
  8
0
 10
24.851
 11
24.349
 20
4.208
 21
4.208
  0
LINE
  8
0
 10
24.349
 11
23.85
 20
4.208
 21
4.271
  0
LINE
  8
0
 10
23.85
 11
23.364
 20
4.271
 21
4.396
  0
LINE
  8
0
 10
23.364
 11
22.897
 20
4.396
 21
4.581
  0
LINE
  8
0
 10
22.897
 11
22.457
 20
4.581
 21
4.823
  0
LINE
  8
0
 10
22.457
 11
22.05
 20
4.823
 21
5.118
  0
LINE
  8
0
 10
22.05
 11
21.684
 20
5.118
 21
5.462
  0
LINE
  8
0
 10
21.684
 11
21.364
 20
5.462
 21
5.849
  0
LINE
  8
0
 10
21.364
 11
21.095
 20
5.849
 21
6.273
  0
LINE
  8
0
 10
21.095
 11
20.881
 20
6.273
 21
6.728
  0
LINE
  8
0
 10
20.881
 11
20.726
 20
6.728
 21
7.205
  0
LINE
  8
0
 10
20.726
 11
20.632
 20
7.205
 21
7.699
  0
LINE
  8
0
 10
20.632
 11
20.6
 20
7.699
 21
8.2
  0
LINE
  8
0
 10
20.6
 11
20.632
 20
16.4
 21
16.901
  0
LINE
  8
0
 10
20.632
 11
20.726
 20
16.901
 21
17.395
  0
LINE
  8
0
 10
20.726
 11
20.881
 20
17.395
 21
17.872
  0
LINE
  8
0
 10
20.881
 11
21.095
 20
17.872
 21
18.327
  0
LINE
  8
0
 10
21.095
 11
21.364
 20
18.327
 21
18.751
  0
LINE
  8
0
 10
21.364
 11
21.684
 20
18.751
 21
19.138
  0
LINE
  8
0
 10
21.684
 11
22.05
 20
19.138
 21
19.482
  0
LINE
  8
0
 10
22.05
 11
22.457
 20
19.482
 21
19.777
  0
LINE
  8
0
 10
22.457
 11
22.897
 20
19.777
 21
20.019
  0
LINE
  8
0
 10
22.897
 11
23.364
 20
20.019
 21
20.204
  0
LINE
  8
0
 10
23.364
 11
23.85
 20
20.204
 21
20.329
  0
LINE
  8
0
 10
23.85
 11
24.349
 20
20.329
 21
20.392
  0
LINE
  8
0
 10
24.349
 11
24.851
 20
20.392
 21
20.392
  0
LINE
  8
0
 10
24.851
 11
25.35
 20
20.392
 21
20.329
  0
LINE
  8
0
 10
25.35
 11
25.836
 20
20.329
 21
20.204
  0
LINE
  8
0
 10
25.836
 11
26.303
 20
20.204
 21
20.019
  0
LINE
  8
0
 10
26.303
 11
26.743
 20
20.019
 21
19.777
  0
LINE
  8
0
 10
26.743
 11
27.15
 20
19.777
 21
19.482
  0
LINE
  8
0
 10
27.15
 11
27.516
 20
19.482
 21
19.138
  0
LINE
  8
0
 10
27.516
 11
27.836
 20
19.138
 21
18.751
  0
LINE
  8
0
 10
27.836
 11
28.105
 20
18.751
 21
18.327
  0
LINE
  8
0
 10
28.105
 11
28.319
 20
18.327
 21
17.872
  0
LINE
  8
0
 10
28.319
 11
28.474
 20
17.872
 21
17.395
  0
LINE
  8
0
 10
28.474
 11
28.568
 20
17.395
 21
16.901
  0
LINE
  8
0
 10
28.568
 11
28.6
 20
16.901
 21
16.4
  0
LINE
  8
0
 10
28.6
 11
28.568
 20
16.4
 21
15.899
  0
LINE
  8
0
 10
28.568
 11
28.474
 20
15.899
 21
15.405
  0
LINE
  8
0
 10
28.474
 11
28.319
 20
15.405
 21
14.928
  0
LINE
  8
0
 10
28.319
 11
28.105
 20
14.928
 21
14.473
  0
LINE
  8
0
 10
28.105
 11
27.836
 20
14.473
 21
14.049
  0
LINE
  8
0
 10
27.836
 11
27.516
 20
14.049
 21
13.662
  0
LINE
  8
0
 10
27.516
 11
27.15
 20
13.662
 21
13.318
  0
LINE
  8
0
 10
27.15
 11
26.743
 20
13.318
 21
13.023
  0
LINE
  8
0
 10
26.743
 11
26.303
 20
13.023
 21
12.781
  0
LINE
  8
0
 10
26.303
 11
25.836
 20
12.781
 21
12.596
  0
LINE
  8
0
 10
25.836
 11
25.35
 20
12.596
 21
12.471
  0
LINE
  8
0
 10
25.35
 11
24.851
 20
12.471
 21
12.408
  0
LINE
  8
0
 10
24.851
 11
24.349
 20
12.408
 21
12.408
  0
LINE
  8
0
 10
24.349
 11
23.85
 20
12.408
 21
12.471
  0
LINE
  8
0
 10
23.85
 11
23.364
 20
12.471
 21
12.596
  0
LINE
  8
0
 10
23.364
 11
22.897
 20
12.596
 21
12.781
  0
LINE
  8
0
 10
22.897
 11
22.457
 20
12.781
 21
13.023
  0
LINE
  8
0
 10
22.457
 11
22.05
 20
13.023
 21
13.318
  0
LINE
  8
0
 10
22.05
 11
21.684
 20
13.318
 21
13.662
  0
LINE
  8
0
 10
21.684
 11
21.364
 20
13.662
 21
14.049
  0
LINE
  8
0
 10
21.364
 11
21.095
 20
14.049
 21
14.473
  0
LINE
  8
0
 10
21.095
 11
20.881
 20
14.473
 21
14.928
  0
LINE
  8
0
 10
20.881
 11
20.726
 20
14.928
 21
15.405
  0
LINE
  8
0
 10
20.726
 11
20.632
 20
15.405
 21
15.899
  0
LINE
  8
0
 10
20.632
 11
20.6
 20
15.899
 21
16.4
  0
LINE
  8
0
 10
20.6
 11
20.632
 20
24.6
 21
25.101
  0
LINE
  8
0
 10
20.632
 11
20.726
 20
25.101
 21
25.595
  0
LINE
  8
0
 10
20.726
 11
20.881
 20
25.595
 21
26.072
  0
LINE
  8
0
 10
20.881
 11
21.095
 20
26.072
 21
26.527
  0
LINE
  8
0
 10
21.095
 11
21.364
 20
26.527
 21
26.951
  0
LINE
  8
0
 10
21.364
 11
21.684
 20
26.951
 21
27.338
  0
LINE
  8
0
 10
21.684
 11
22.05
 20
27.338
 21
27.682
  0
LINE
  8
0
 10
22.05
 11
22.457
 20
27.682
 21
27.977
  0
LINE
  8
0
 10
22.457
 11
22.897
 20
27.977
 21
28.219
  0
LINE
  8
0
 10
22.897
 11
23.364
 20
28.219
 21
28.404
  0
LINE
  8
0
 10
23.364
 11
23.85
 20
28.404
 21
28.529
  0
LINE
  8
0
 10
23.85
 11
24.349
 20
28.529
 21
28.592
  0
LINE
  8
0
 10
24.349
 11
24.851
 20
28.592
 21
28.592
  0
LINE
  8
0
 10
24.851
 11
25.35
 20
28.592
 21
28.529
  0
LINE
  8
0
 10
25.35
 11
25.836
 20
28.529
 21
28.404
  0
LINE
  8
0
 10
25.836
 11
26.303
 20
28.404
 21
28.219
  0
LINE
  8
0
 10
26.303
 11
26.743
 20
28.219
 21
27.977
  0
LINE
  8
0
 10
26.743
 11
27.15
 20
27.977
 21
27.682
  0
LINE
  8
0
 10
27.15
 11
27.516
 20
27.682
 21
27.338
  0
LINE
  8
0
 10
27.516
 11
27.836
 20
27.338
 21
26.951
  0
LINE
  8
0
 10
27.836
 11
28.105
 20
26.951
 21
26.527
  0
LINE
  8
0
 10
28.105
 11
28.319
 20
26.527
 21
26.072
  0
LINE
  8
0
 10
28.319
 11
28.474
 20
26.072
 21
25.595
  0
LINE
  8
0
 10
28.474
 11
28.568
 20
25.595
 21
25.101
  0
LINE
  8
0
 10
28.568
 11
28.6
 20
25.101
 21
24.6
  0
LINE
  8
0
 10
28.6
 11
28.568
 20
24.6
 21
24.099
  0
LINE
  8
0
 10
28.568
 11
28.474
 20
24.099
 21
23.605
  0
LINE
  8
0
 10
28.474
 11
28.319
 20
23.605
 21
23.128
  0
LINE
  8
0
 10
28.319
 11
28.105
 20
23.128
 21
22.673
  0
LINE
  8
0
 10
28.105
 11
27.836
 20
22.673
 21
22.249
  0
LINE
  8
0
 10
27.836
 11
27.516
 20
22.249
 21
21.862
  0
LINE
  8
0
 10
27.516
 11
27.15
 20
21.862
 21
21.518
  0
LINE
  8
0
 10
27.15
 11
26.743
 20
21.518
 21
21.223
  0
LINE
  8
0
 10
26.743
 11
26.303
 20
21.223
 21
20.981
  0
LINE
  8
0
 10
26.303
 11
25.836
 20
20.981
 21
20.796
  0
LINE
  8
0
 10
25.836
 11
25.35
 20
20.796
 21
20.671
  0
LINE
  8
0
 10
25.35
 11
24.851
 20
20.671
 21
20.608
  0
LINE
  8
0
 10
24.851
 11
24.349
 20
20.608
 21
20.608
  0
LINE
  8
0
 10
24.349
 11
23.85
 20
20.608
 21
20.671
  0
LINE
  8
0
 10
23.85
 11
23.364
 20
20.671
 21
20.796
  0
LINE
  8
0
 10
23.364
 11
22.897
 20
20.796
 21
20.981
  0
LINE
  8
0
 10
22.897
 11
22.457
 20
20.981
 21
21.223
  0
LINE
  8
0
 10
22.457
 11
22.05
 20
21.223
 21
21.518
  0
LINE
  8
0
 10
22.05
 11
21.684
 20
21.518
 21
21.862
  0
LINE
  8
0
 10
21.684
 11
21.364
 20
21.862
 21
22.249
  0
LINE
  8
0
 10
21.364
 11
21.095
 20
22.249
 21
22.673
  0
LINE
  8
0
 10
21.095
 11
20.881
 20
22.673
 21
23.128
  0
LINE
  8
0
 10
20.881
 11
20.726
 20
23.128
 21
23.605
  0
LINE
  8
0
 10
20.726
 11
20.632
 20
23.605
 21
24.099
  0
LINE
  8
0
 10
20.632
 11
20.6
 20
24.099
 21
24.6
  0
LINE
  8
0
 10
20.6
 11
20.632
 20
32.8
 21
33.301
  0
LINE
  8
0
 10
20.632
 11
20.726
 20
33.301
 21
33.795
  0
LINE
  8
0
 10
20.726
 11
20.881
 20
33.795
 21
34.272
  0
LINE
  8
0
 10
20.881
 11
21.095
 20
34.272
 21
34.727
  0
LINE
  8
0
 10
21.095
 11
21.364
 20
34.727
 21
35.151
  0
LINE
  8
0
 10
21.364
 11
21.684
 20
35.151
 21
35.538
  0
LINE
  8
0
 10
21.684
 11
22.05
 20
35.538
 21
35.882
  0
LINE
  8
0
 10
22.05
 11
22.457
 20
35.882
 21
36.177
  0
LINE
  8
0
 10
22.457
 11
22.897
 20
36.177
 21
36.419
  0
LINE
  8
0
 10
22.897
 11
23.364
 20
36.419
 21
36.604
  0
LINE
  8
0
 10
23.364
 11
23.85
 20
36.604
 21
36.729
  0
LINE
  8
0
 10
23.85
 11
24.349
 20
36.729
 21
36.792
  0
LINE
  8
0
 10
24.349
 11
24.851
 20
36.792
 21
36.792
  0
LINE
  8
0
 10
24.851
 11
25.35
 20
36.792
 21
36.729
  0
LINE
  8
0
 10
25.35
 11
25.836
 20
36.729
 21
36.604
  0
LINE
  8
0
 10
25.836
 11
26.303
 20
36.604
 21
36.419
  0
LINE
  8
0
 10
26.303
 11
26.743
 20
36.419
 21
36.177
  0
LINE
  8
0
 10
26.743
 11
27.15
 20
36.177
 21
35.882
  0
LINE
  8
0
 10
27.15
 11
27.516
 20
35.882
 21
35.538
  0
LINE
  8
0
 10
27.516
 11
27.836
 20
35.538
 21
35.151
  0
LINE
  8
0
 10
27.836
 11
28.105
 20
35.151
 21
34.727
  0
LINE
  8
0
 10
28.105
 11
28.319
 20
34.727
 21
34.272
  0
LINE
  8
0
 10
28.319
 11
28.474
 20
34.272
 21
33.795
  0
LINE
  8
0
 10
28.474
 11
28.568
 20
33.795
 21
33.301
  0
LINE
  8
0
 10
28.568
 11
28.6
 20
33.301
 21
32.8
  0
LINE
  8
0
 10
28.6
 11
28.568
 20
32.8
 21
32.299
  0
LINE
  8
0
 10
28.568
 11
28.474
 20
32.299
 21
31.805
  0
LINE
  8
0
 10
28.474
 11
28.319
 20
31.805
 21
31.328
  0
LINE
  8
0
 10
28.319
 11
28.105
 20
31.328
 21
30.873
  0
LINE
  8
0
 10
28.105
 11
27.836
 20
30.873
 21
30.449
  0
LINE
  8
0
 10
27.836
 11
27.516
 20
30.449
 21
30.062
  0
LINE
  8
0
 10
27.516
 11
27.15
 20
30.062
 21
29.718
  0
LINE
  8
0
 10
27.15
 11
26.743
 20
29.718
 21
29.423
  0
LINE
  8
0
 10
26.743
 11
26.303
 20
29.423
 21
29.181
  0
LINE
  8
0
 10
26.303
 11
25.836
 20
29.181
 21
28.996
  0
LINE
  8
0
 10
25.836
 11
25.35
 20
28.996
 21
28.871
  0
LINE
  8
0
 10
25.35
 11
24.851
 20
28.871
 21
28.808
  0
LINE
  8
0
 10
24.851
 11
24.349
 20
28.808
 21
28.808
  0
LINE
  8
0
 10
24.349
 11
23.85
 20
28.808
 21
28.871
  0
LINE
  8
0
 10
23.85
 11
23.364
 20
28.871
 21
28.996
  0
LINE
  8
0
 10
23.364
 11
22.897
 20
28.996
 21
29.181
  0
LINE
  8
0
 10
22.897
 11
22.457
 20
29.181
 21
29.423
  0
LINE
  8
0
 10
22.457
 11
22.05
 20
29.423
 21
29.718
  0
LINE
  8
0
 10
22.05
 11
21.684
 20
29.718
 21
30.062
  0
LINE
  8
0
 10
21.684
 11
21.364
 20
30.062
 21
30.449
  0
LINE
  8
0
 10
21.364
 11
21.095
 20
30.449
 21
30.873
  0
LINE
  8
0
 10
21.095
 11
20.881
 20
30.873
 21
31.328
  0
LINE
  8
0
 10
20.881
 11
20.726
 20
31.328
 21
31.805
  0
LINE
  8
0
 10
20.726
 11
20.632
 20
31.805
 21
32.299
  0
LINE
  8
0
 10
20.632
 11
20.6
 20
32.299
 21
32.8
  0
LINE
  8
0
 10
20.6
 11
20.632
 20
41
 21
41.501
  0
LINE
  8
0
 10
20.632
 11
20.726
 20
41.501
 21
41.995
  0
LINE
  8
0
 10
20.726
 11
20.881
 20
41.995
 21
42.472
  0
LINE
  8
0
 10
20.881
 11
21.095
 20
42.472
 21
42.927
  0
LINE
  8
0
 10
21.095
 11
21.364
 20
42.927
 21
43.351
  0
LINE
  8
0
 10
21.364
 11
21.684
 20
43.351
 21
43.738
  0
LINE
  8
0
 10
21.684
 11
22.05
 20
43.738
 21
44.082
  0
LINE
  8
0
 10
22.05
 11
22.457
 20
44.082
 21
44.377
  0
LINE
  8
0
 10
22.457
 11
22.897
 20
44.377
 21
44.619
  0
LINE
  8
0
 10
22.897
 11
23.364
 20
44.619
 21
44.804
  0
LINE
  8
0
 10
23.364
 11
23.85
 20
44.804
 21
44.929
  0
LINE
  8
0
 10
23.85
 11
24.349
 20
44.929
 21
44.992
  0
LINE
  8
0
 10
24.349
 11
24.851
 20
44.992
 21
44.992
  0
LINE
  8
0
 10
24.851
 11
25.35
 20
44.992
 21
44.929
  0
LINE
  8
0
 10
25.35
 11
25.836
 20
44.929
 21
44.804
  0
LINE
  8
0
 10
25.836
 11
26.303
 20
44.804
 21
44.619
  0
LINE
  8
0
 10
26.303
 11
26.743
 20
44.619
 21
44.377
  0
LINE
  8
0
 10
26.743
 11
27.15
 20
44.377
 21
44.082
  0
LINE
  8
0
 10
27.15
 11
27.516
 20
44.082
 21
43.738
  0
LINE
  8
0
 10
27.516
 11
27.836
 20
43.738
 21
43.351
  0
LINE
  8
0
 10
27.836
 11
28.105
 20
43.351
 21
42.927
  0
LINE
  8
0
 10
28.105
 11
28.319
 20
42.927
 21
42.472
  0
LINE
  8
0
 10
28.319
 11
28.474
 20
42.472
 21
41.995
  0
LINE
  8
0
 10
28.474
 11
28.568
 20
41.995
 21
41.501
  0
LINE
  8
0
 10
28.568
 11
28.6
 20
41.501
 21
41
  0
LINE
  8
0
 10
28.6
 11
28.568
 20
41
 21
40.499
  0
LINE
  8
0
 10
28.568
 11
28.474
 20
40.499
 21
40.005
  0
LINE
  8
0
 10
28.474
 11
28.319
 20
40.005
 21
39.528
  0
LINE
  8
0
 10
28.319
 11
28.105
 20
39.528
 21
39.073
  0
LINE
  8
0
 10
28.105
 11
27.836
 20
39.073
 21
38.649
  0
LINE
  8
0
 10
27.836
 11
27.516
 20
38.649
 21
38.262
  0
LINE
  8
0
 10
27.516
 11
27.15
 20
38.262
 21
37.918
  0
LINE
  8
0
 10
27.15
 11
26.743
 20
37.918
 21
37.623
  0
LINE
  8
0
 10
26.743
 11
26.303
 20
37.623
 21
37.381
  0
LINE
  8
0
 10
26.303
 11
25.836
 20
37.381
 21
37.196
  0
LINE
  8
0
 10
25.836
 11
25.35
 20
37.196
 21
37.071
  0
LINE
  8
0
 10
25.35
 11
24.851
 20
37.071
 21
37.008
  0
LINE
  8
0
 10
24.851
 11
24.349
 20
37.008
 21
37.008
  0
LINE
  8
0
 10
24.349
 11
23.85
 20
37.008
 21
37.071
  0
LINE
  8
0
 10
23.85
 11
23.364
 20
37.071
 21
37.196
  0
LINE
  8
0
 10
23.364
 11
22.897
 20
37.196
 21
37.381
  0
LINE
  8
0
 10
22.897
 11
22.457
 20
37.381
 21
37.623
  0
LINE
  8
0
 10
22.457
 11
22.05
 20
37.623
 21
37.918
  0
LINE
  8
0
 10
22.05
 11
21.684
 20
37.918
 21
38.262
  0
LINE
  8
0
 10
21.684
 11
21.364
 20
38.262
 21
38.649
  0
LINE
  8
0
 10
21.364
 11
21.095
 20
38.649
 21
39.073
  0
LINE
  8
0
 10
21.095
 11
20.881
 20
39.073
 21
39.528
  0
LINE
  8
0
 10
20.881
 11
20.726
 20
39.528
 21
40.005
  0
LINE
  8
0
 10
20.726
 11
20.632
 20
40.005
 21
40.499
  0
LINE
  8
0
 10
20.632
 11
20.6
 20
40.499
 21
41
  0
LINE
  8
0
 10
22.6
 11
22.616
 20
0
 21
0.251
  0
LINE
  8
0
 10
22.616
 11
22.663
 20
0.251
 21
0.497
  0
LINE
  8
0
 10
22.663
 11
22.74
 20
0.497
 21
0.736
  0
LINE
  8
0
 10
22.74
 11
22.847
 20
0.736
 21
0.964
  0
LINE
  8
0
 10
22.847
 11
22.982
 20
0.964
 21
1.176
  0
LINE
  8
0
 10
22.982
 11
23.142
 20
1.176
 21
1.369
  0
LINE
  8
0
 10
23.142
 11
23.325
 20
1.369
 21
1.541
  0
LINE
  8
0
 10
23.325
 11
23.528
 20
1.541
 21
1.689
  0
LINE
  8
0
 10
23.528
 11
23.748
 20
1.689
 21
1.81
  0
LINE
  8
0
 10
23.748
 11
23.982
 20
1.81
 21
1.902
  0
LINE
  8
0
 10
23.982
 11
24.225
 20
1.902
 21
1.965
  0
LINE
  8
0
 10
24.225
 11
24.474
 20
1.965
 21
1.996
  0
LINE
  8
0
 10
24.474
 11
24.726
 20
1.996
 21
1.996
  0
LINE
  8
0
 10
24.726
 11
24.975
 20
1.996
 21
1.965
  0
LINE
  8
0
 10
24.975
 11
25.218
 20
1.965
 21
1.902
  0
LINE
  8
0
 10
25.218
 11
25.452
 20
1.902
 21
1.81
  0
LINE
  8
0
 10
25.452
 11
25.672
 20
1.81
 21
1.689
  0
LINE
  8
0
 10
25.672
 11
25.875
 20
1.689
 21
1.541
  0
LINE
  8
0
 10
25.875
 11
26.058
 20
1.541
 21
1.369
  0
LINE
  8
0
 10
26.058
 11
26.218
 20
1.369
 21
1.176
  0
LINE
  8
0
 10
26.218
 11
26.353
 20
1.176
 21
0.964
  0
LINE
  8
0
 10
26.353
 11
26.46
 20
0.964
 21
0.736
  0
LINE
  8
0
 10
26.46
 11
26.537
 20
0.736
 21
0.497
  0
LINE
  8
0
 10
26.537
 11
26.584
 20
0.497
 21
0.251
  0
LINE
  8
0
 10
26.584
 11
26.6
 20
0.251
 21
0
  0
LINE
  8
0
 10
26.6
 11
26.584
 20
0
 21
-0.251
  0
LINE
  8
0
 10
26.584
 11
26.537
 20
-0.251
 21
-0.497
  0
LINE
  8
0
 10
26.537
 11
26.46
 20
-0.497
 21
-0.736
  0
LINE
  8
0
 10
26.46
 11
26.353
 20
-0.736
 21
-0.964
  0
LINE
  8
0
 10
26.353
 11
26.218
 20
-0.964
 21
-1.176
  0
LINE
  8
0
 10
26.218
 11
26.058
 20
-1.176
 21
-1.369
  0
LINE
  8
0
 10
26.058
 11
25.875
 20
-1.369
 21
-1.541
  0
LINE
  8
0
 10
25.875
 11
25.672
 20
-1.541
 21
-1.689
  0
LINE
  8
0
 10
25.672
 11
25.452
 20
-1.689
 21
-1.81
  0
LINE
  8
0
 10
25.452
 11
25.218
 20
-1.81
 21
-1.902
  0
LINE
  8
0
 10
25.218
 11
24.975
 20
-1.902
 21
-1.965
  0
LINE
  8
0
 10
24.975
 11
24.726
 20
-1.965
 21
-1.996
  0
LINE
  8
0
 10
24.726
 11
24.474
 20
-1.996
 21
-1.996
  0
LINE
  8
0
 10
24.474
 11
24.225
 20
-1.996
 21
-1.965
  0
LINE
  8
0
 10
24.225
 11
23.982
 20
-1.965
 21
-1.902
  0
LINE
  8
0
 10
23.982
 11
23.748
 20
-1.902
 21
-1.81
  0
LINE
  8
0
 10
23.748
 11
23.528
 20
-1.81
 21
-1.689
  0
LINE
  8
0
 10
23.528
 11
23.325
 20
-1.689
 21
-1.541
  0
LINE
  8
0
 10
23.325
 11
23.142
 20
-1.541
 21
-1.369
  0
LINE
  8
0
 10
23.142
 11
22.982
 20
-1.369
 21
-1.176
  0
LINE
  8
0
 10
22.982
 11
22.847
 20
-1.176
 21
-0.964
  0
LINE
  8
0
 10
22.847
 11
22.74
 20
-0.964
 21
-0.736
  0
LINE
  8
0
 10
22.74
 11
22.663
 20
-0.736
 21
-0.497
  0
LINE
  8
0
 10
22.663
 11
22.616
 20
-0.497
 21
-0.251
  0
LINE
  8
0
 10
22.616
 11
22.6
 20
-0.251
 21
0
  0
LINE
  8
0
 10
22.6
 11
22.616
 20
8.2
 21
8.451
  0
LINE
  8
0
 10
22.616
 11
22.663
 20
8.451
 21
8.697
  0
LINE
  8
0
 10
22.663
 11
22.74
 20
8.697
 21
8.936
  0
LINE
  8
0
 10
22.74
 11
22.847
 20
8.936
 21
9.164
  0
LINE
  8
0
 10
22.847
 11
22.982
 20
9.164
 21
9.376
  0
LINE
  8
0
 10
22.982
 11
23.142
 20
9.376
 21
9.569
  0
LINE
  8
0
 10
23.142
 11
23.325
 20
9.569
 21
9.741
  0
LINE
  8
0
 10
23.325
 11
23.528
 20
9.741
 21
9.889
  0
LINE
  8
0
 10
23.528
 11
23.748
 20
9.889
 21
10.01
  0
LINE
  8
0
 10
23.748
 11
23.982
 20
10.01
 21
10.102
  0
LINE
  8
0
 10
23.982
 11
24.225
 20
10.102
 21
10.165
  0
LINE
  8
0
 10
24.225
 11
24.474
 20
10.165
 21
10.196
  0
LINE
  8
0
 10
24.474
 11
24.726
 20
10.196
 21
10.196
  0
LINE
  8
0
 10
24.726
 11
24.975
 20
10.196
 21
10.165
  0
LINE
  8
0
 10
24.975
 11
25.218
 20
10.165
 21
10.102
  0
LINE
  8
0
 10
25.218
 11
25.452
 20
10.102
 21
10.01
  0
LINE
  8
0
 10
25.452
 11
25.672
 20
10.01
 21
9.889
  0
LINE
  8
0
 10
25.672
 11
25.875
 20
9.889
 21
9.741
  0
LINE
  8
0
 10
25.875
 11
26.058
 20
9.741
 21
9.569
  0
LINE
  8
0
 10
26.058
 11
26.218
 20
9.569
 21
9.376
  0
LINE
  8
0
 10
26.218
 11
26.353
 20
9.376
 21
9.164
  0
LINE
  8
0
 10
26.353
 11
26.46
 20
9.164
 21
8.936
  0
LINE
  8
0
 10
26.46
 11
26.537
 20
8.936
 21
8.697
  0
LINE
  8
0
 10
26.537
 11
26.584
 20
8.697
 21
8.451
  0
LINE
  8
0
 10
26.584
 11
26.6
 20
8.451
 21
8.2
  0
LINE
  8
0
 10
26.6
 11
26.584
 20
8.2
 21
7.949
  0
LINE
  8
0
 10
26.584
 11
26.537
 20
7.949
 21
7.703
  0
LINE
  8
0
 10
26.537
 11
26.46
 20
7.703
 21
7.464
  0
LINE
  8
0
 10
26.46
 11
26.353
 20
7.464
 21
7.236
  0
LINE
  8
0
 10
26.353
 11
26.218
 20
7.236
 21
7.024
  0
LINE
  8
0
 10
26.218
 11
26.058
 20
7.024
 21
6.831
  0
LINE
  8
0
 10
26.058
 11
25.875
 20
6.831
 21
6.659
  0
LINE
  8
0
 10
25.875
 11
25.672
 20
6.659
 21
6.511
  0
LINE
  8
0
 10
25.672
 11
25.452
 20
6.511
 21
6.39
  0
LINE
  8
0
 10
25.452
 11
25.218
 20
6.39
 21
6.298
  0
LINE
  8
0
 10
25.218
 11
24.975
 20
6.298
 21
6.235
  0
LINE
  8
0
 10
24.975
 11
24.726
 20
6.235
 21
6.204
  0
LINE
  8
0
 10
24.726
 11
24.474
 20
6.204
 21
6.204
  0
LINE
  8
0
 10
24.474
 11
24.225
 20
6.204
 21
6.235
  0
LINE
  8
0
 10
24.225
 11
23.982
 20
6.235
 21
6.298
  0
LINE
  8
0
 10
23.982
 11
23.748
 20
6.298
 21
6.39
  0
LINE
  8
0
 10
23.748
 11
23.528
 20
6.39
 21
6.511
  0
LINE
  8
0
 10
23.528
 11
23.325
 20
6.511
 21
6.659
  0
LINE
  8
0
 10
23.325
 11
23.142
 20
6.659
 21
6.831
  0
LINE
  8
0
 10
23.142
 11
22.982
 20
6.831
 21
7.024
  0
LINE
  8
0
 10
22.982
 11
22.847
 20
7.024
 21
7.236
  0
LINE
  8
0
 10
22.847
 11
22.74
 20
7.236
 21
7.464
  0
LINE
  8
0
 10
22.74
 11
22.663
 20
7.464
 21
7.703
  0
LINE
  8
0
 10
22.663
 11
22.616
 20
7.703
 21
7.949
  0
LINE
  8
0
 10
22.616
 11
22.6
 20
7.949
 21
8.2
  0
LINE
  8
0
 10
22.6
 11
22.616
 20
16.4
 21
16.651
  0
LINE
  8
0
 10
22.616
 11
22.663
 20
16.651
 21
16.897
  0
LINE
  8
0
 10
22.663
 11
22.74
 20
16.897
 21
17.136
  0
LINE
  8
0
 10
22.74
 11
22.847
 20
17.136
 21
17.364
  0
LINE
  8
0
 10
22.847
 11
22.982
 20
17.364
 21
17.576
  0
LINE
  8
0
 10
22.982
 11
23.142
 20
17.576
 21
17.769
  0
LINE
  8
0
 10
23.142
 11
23.325
 20
17.769
 21
17.941
  0
LINE
  8
0
 10
23.325
 11
23.528
 20
17.941
 21
18.089
  0
LINE
  8
0
 10
23.528
 11
23.748
 20
18.089
 21
18.21
  0
LINE
  8
0
 10
23.748
 11
23.982
 20
18.21
 21
18.302
  0
LINE
  8
0
 10
23.982
 11
24.225
 20
18.302
 21
18.365
  0
LINE
  8
0
 10
24.225
 11
24.474
 20
18.365
 21
18.396
  0
LINE
  8
0
 10
24.474
 11
24.726
 20
18.396
 21
18.396
  0
LINE
  8
0
 10
24.726
 11
24.975
 20
18.396
 21
18.365
  0
LINE
  8
0
 10
24.975
 11
25.218
 20
18.365
 21
18.302
  0
LINE
  8
0
 10
25.218
 11
25.452
 20
18.302
 21
18.21
  0
LINE
  8
0
 10
25.452
 11
25.672
 20
18.21
 21
18.089
  0
LINE
  8
0
 10
25.672
 11
25.875
 20
18.089
 21
17.941
  0
LINE
  8
0
 10
25.875
 11
26.058
 20
17.941
 21
17.769
  0
LINE
  8
0
 10
26.058
 11
26.218
 20
17.769
 21
17.576
  0
LINE
  8
0
 10
26.218
 11
26.353
 20
17.576
 21
17.364
  0
LINE
  8
0
 10
26.353
 11
26.46
 20
17.364
 21
17.136
  0
LINE
  8
0
 10
26.46
 11
26.537
 20
17.136
 21
16.897
  0
LINE
  8
0
 10
26.537
 11
26.584
 20
16.897
 21
16.651
  0
LINE
  8
0
 10
26.584
 11
26.6
 20
16.651
 21
16.4
  0
LINE
  8
0
 10
26.6
 11
26.584
 20
16.4
 21
16.149
  0
LINE
  8
0
 10
26.584
 11
26.537
 20
16.149
 21
15.903
  0
LINE
  8
0
 10
26.537
 11
26.46
 20
15.903
 21
15.664
  0
LINE
  8
0
 10
26.46
 11
26.353
 20
15.664
 21
15.436
  0
LINE
  8
0
 10
26.353
 11
26.218
 20
15.436
 21
15.224
  0
LINE
  8
0
 10
26.218
 11
26.058
 20
15.224
 21
15.031
  0
LINE
  8
0
 10
26.058
 11
25.875
 20
15.031
 21
14.859
  0
LINE
  8
0
 10
25.875
 11
25.672
 20
14.859
 21
14.711
  0
LINE
  8
0
 10
25.672
 11
25.452
 20
14.711
 21
14.59
  0
LINE
  8
0
 10
25.452
 11
25.218
 20
14.59
 21
14.498
  0
LINE
  8
0
 10
25.218
 11
24.975
 20
14.498
 21
14.435
  0
LINE
  8
0
 10
24.975
 11
24.726
 20
14.435
 21
14.404
  0
LINE
  8
0
 10
24.726
 11
24.474
 20
14.404
 21
14.404
  0
LINE
  8
0
 10
24.474
 11
24.225
 20
14.404
 21
14.435
  0
LINE
  8
0
 10
24.225
 11
23.982
 20
14.435
 21
14.498
  0
LINE
  8
0
 10
23.982
 11
23.748
 20
14.498
 21
14.59
  0
LINE
  8
0
 10
23.748
 11
23.528
 20
14.59
 21
14.711
  0
LINE
  8
0
 10
23.528
 11
23.325
 20
14.711
 21
14.859
  0
LINE
  8
0
 10
23.325
 11
23.142
 20
14.859
 21
15.031
  0
LINE
  8
0
 10
23.142
 11
22.982
 20
15.031
 21
15.224
  0
LINE
  8
0
 10
22.982
 11
22.847
 20
15.224
 21
15.436
  0
LINE
  8
0
 10
22.847
 11
22.74
 20
15.436
 21
15.664
  0
LINE
  8
0
 10
22.74
 11
22.663
 20
15.664
 21
15.903
  0
LINE
  8
0
 10
22.663
 11
22.616
 20
15.903
 21
16.149
  0
LINE
  8
0
 10
22.616
 11
22.6
 20
16.149
 21
16.4
  0
LINE
  8
0
 10
22.6
 11
22.616
 20
24.6
 21
24.851
  0
LINE
  8
0
 10
22.616
 11
22.663
 20
24.851
 21
25.097
  0
LINE
  8
0
 10
22.663
 11
22.74
 20
25.097
 21
25.336
  0
LINE
  8
0
 10
22.74
 11
22.847
 20
25.336
 21
25.564
  0
LINE
  8
0
 10
22.847
 11
22.982
 20
25.564
 21
25.776
  0
LINE
  8
0
 10
22.982
 11
23.142
 20
25.776
 21
25.969
  0
LINE
  8
0
 10
23.142
 11
23.325
 20
25.969
 21
26.141
  0
LINE
  8
0
 10
23.325
 11
23.528
 20
26.141
 21
26.289
  0
LINE
  8
0
 10
23.528
 11
23.748
 20
26.289
 21
26.41
  0
LINE
  8
0
 10
23.748
 11
23.982
 20
26.41
 21
26.502
  0
LINE
  8
0
 10
23.982
 11
24.225
 20
26.502
 21
26.565
  0
LINE
  8
0
 10
24.225
 11
24.474
 20
26.565
 21
26.596
  0
LINE
  8
0
 10
24.474
 11
24.726
 20
26.596
 21
26.596
  0
LINE
  8
0
 10
24.726
 11
24.975
 20
26.596
 21
26.565
  0
LINE
  8
0
 10
24.975
 11
25.218
 20
26.565
 21
26.502
  0
LINE
  8
0
 10
25.218
 11
25.452
 20
26.502
 21
26.41
  0
LINE
  8
0
 10
25.452
 11
25.672
 20
26.41
 21
26.289
  0
LINE
  8
0
 10
25.672
 11
25.875
 20
26.289
 21
26.141
  0
LINE
  8
0
 10
25.875
 11
26.058
 20
26.141
 21
25.969
  0
LINE
  8
0
 10
26.058
 11
26.218
 20
25.969
 21
25.776
  0
LINE
  8
0
 10
26.218
 11
26.353
 20
25.776
 21
25.564
  0
LINE
  8
0
 10
26.353
 11
26.46
 20
25.564
 21
25.336
  0
LINE
  8
0
 10
26.46
 11
26.537
 20
25.336
 21
25.097
  0
LINE
  8
0
 10
26.537
 11
26.584
 20
25.097
 21
24.851
  0
LINE
  8
0
 10
26.584
 11
26.6
 20
24.851
 21
24.6
  0
LINE
  8
0
 10
26.6
 11
26.584
 20
24.6
 21
24.349
  0
LINE
  8
0
 10
26.584
 11
26.537
 20
24.349
 21
24.103
  0
LINE
  8
0
 10
26.537
 11
26.46
 20
24.103
 21
23.864
  0
LINE
  8
0
 10
26.46
 11
26.353
 20
23.864
 21
23.636
  0
LINE
  8
0
 10
26.353
 11
26.218
 20
23.636
 21
23.424
  0
LINE
  8
0
 10
26.218
 11
26.058
 20
23.424
 21
23.231
  0
LINE
  8
0
 10
26.058
 11
25.875
 20
23.231
 21
23.059
  0
LINE
  8
0
 10
25.875
 11
25.672
 20
23.059
 21
22.911
  0
LINE
  8
0
 10
25.672
 11
25.452
 20
22.911
 21
22.79
  0
LINE
  8
0
 10
25.452
 11
25.218
 20
22.79
 21
22.698
  0
LINE
  8
0
 10
25.218
 11
24.975
 20
22.698
 21
22.635
  0
LINE
  8
0
 10
24.975
 11
24.726
 20
22.635
 21
22.604
  0
LINE
  8
0
 10
24.726
 11
24.474
 20
22.604
 21
22.604
  0
LINE
  8
0
 10
24.474
 11
24.225
 20
22.604
 21
22.635
  0
LINE
  8
0
 10
24.225
 11
23.982
 20
22.635
 21
22.698
  0
LINE
  8
0
 10
23.982
 11
23.748
 20
22.698
 21
22.79
  0
LINE
  8
0
 10
23.748
 11
23.528
 20
22.79
 21
22.911
  0
LINE
  8
0
 10
23.528
 11
23.325
 20
22.911
 21
23.059
  0
LINE
  8
0
 10
23.325
 11
23.142
 20
23.059
 21
23.231
  0
LINE
  8
0
 10
23.142
 11
22.982
 20
23.231
 21
23.424
  0
LINE
  8
0
 10
22.982
 11
22.847
 20
23.424
 21
23.636
  0
LINE
  8
0
 10
22.847
 11
22.74
 20
23.636
 21
23.864
  0
LINE
  8
0
 10
22.74
 11
22.663
 20
23.864
 21
24.103
  0
LINE
  8
0
 10
22.663
 11
22.616
 20
24.103
 21
24.349
  0
LINE
  8
0
 10
22.616
 11
22.6
 20
24.349
 21
24.6
  0
LINE
  8
0
 10
22.6
 11
22.616
 20
32.8
 21
33.051
  0
LINE
  8
0
 10
22.616
 11
22.663
 20
33.051
 21
33.297
  0
LINE
  8
0
 10
22.663
 11
22.74
 20
33.297
 21
33.536
  0
LINE
  8
0
 10
22.74
 11
22.847
 20
33.536
 21
33.764
  0
LINE
  8
0
 10
22.847
 11
22.982
 20
33.764
 21
33.976
  0
LINE
  8
0
 10
22.982
 11
23.142
 20
33.976
 21
34.169
  0
LINE
  8
0
 10
23.142
 11
23.325
 20
34.169
 21
34.341
  0
LINE
  8
0
 10
23.325
 11
23.528
 20
34.341
 21
34.489
  0
LINE
  8
0
 10
23.528
 11
23.748
 20
34.489
 21
34.61
  0
LINE
  8
0
 10
23.748
 11
23.982
 20
34.61
 21
34.702
  0
LINE
  8
0
 10
23.982
 11
24.225
 20
34.702
 21
34.765
  0
LINE
  8
0
 10
24.225
 11
24.474
 20
34.765
 21
34.796
  0
LINE
  8
0
 10
24.474
 11
24.726
 20
34.796
 21
34.796
  0
LINE
  8
0
 10
24.726
 11
24.975
 20
34.796
 21
34.765
  0
LINE
  8
0
 10
24.975
 11
25.218
 20
34.765
 21
34.702
  0
LINE
  8
0
 10
25.218
 11
25.452
 20
34.702
 21
34.61
  0
LINE
  8
0
 10
25.452
 11
25.672
 20
34.61
 21
34.489
  0
LINE
  8
0
 10
25.672
 11
25.875
 20
34.489
 21
34.341
  0
LINE
  8
0
 10
25.875
 11
26.058
 20
34.341
 21
34.169
  0
LINE
  8
0
 10
26.058
 11
26.218
 20
34.169
 21
33.976
  0
LINE
  8
0
 10
26.218
 11
26.353
 20
33.976
 21
33.764
  0
LINE
  8
0
 10
26.353
 11
26.46
 20
33.764
 21
33.536
  0
LINE
  8
0
 10
26.46
 11
26.537
 20
33.536
 21
33.297
  0
LINE
  8
0
 10
26.537
 11
26.584
 20
33.297
 21
33.051
  0
LINE
  8
0
 10
26.584
 11
26.6
 20
33.051
 21
32.8
  0
LINE
  8
0
 10
26.6
 11
26.584
 20
32.8
 21
32.549
  0
LINE
  8
0
 10
26.584
 11
26.537
 20
32.549
 21
32.303
  0
LINE
  8
0
 10
26.537
 11
26.46
 20
32.303
 21
32.064
  0
LINE
  8
0
 10
26.46
 11
26.353
 20
32.064
 21
31.836
  0
LINE
  8
0
 10
26.353
 11
26.218
 20
31.836
 21
31.624
  0
LINE
  8
0
 10
26.218
 11
26.058
 20
31.624
 21
31.431
  0
LINE
  8
0
 10
26.058
 11
25.875
 20
31.431
 21
31.259
  0
LINE
  8
0
 10
25.875
 11
25.672
 20
31.259
 21
31.111
  0
LINE
  8
0
 10
25.672
 11
25.452
 20
31.111
 21
30.99
  0
LINE
  8
0
 10
25.452
 11
25.218
 20
30.99
 21
30.898
  0
LINE
  8
0
 10
25.218
 11
24.975
 20
30.898
 21
30.835
  0
LINE
  8
0
 10
24.975
 11
24.726
 20
30.835
 21
30.804
  0
LINE
  8
0
 10
24.726
 11
24.474
 20
30.804
 21
30.804
  0
LINE
  8
0
 10
24.474
 11
24.225
 20
30.804
 21
30.835
  0
LINE
  8
0
 10
24.225
 11
23.982
 20
30.835
 21
30.898
  0
LINE
  8
0
 10
23.982
 11
23.748
 20
30.898
 21
30.99
  0
LINE
  8
0
 10
23.748
 11
23.528
 20
30.99
 21
31.111
  0
LINE
  8
0
 10
23.528
 11
23.325
 20
31.111
 21
31.259
  0
LINE
  8
0
 10
23.325
 11
23.142
 20
31.259
 21
31.431
  0
LINE
  8
0
 10
23.142
 11
22.982
 20
31.431
 21
31.624
  0
LINE
  8
0
 10
22.982
 11
22.847
 20
31.624
 21
31.836
  0
LINE
  8
0
 10
22.847
 11
22.74
 20
31.836
 21
32.064
  0
LINE
  8
0
 10
22.74
 11
22.663
 20
32.064
 21
32.303
  0
LINE
  8
0
 10
22.663
 11
22.616
 20
32.303
 21
32.549
  0
LINE
  8
0
 10
22.616
 11
22.6
 20
32.549
 21
32.8
  0
LINE
  8
0
 10
22.6
 11
22.616
 20
41
 21
41.251
  0
LINE
  8
0
 10
22.616
 11
22.663
 20
41.251
 21
41.497
  0
LINE
  8
0
 10
22.663
 11
22.74
 20
41.497
 21
41.736
  0
LINE
  8
0
 10
22.74
 11
22.847
 20
41.736
 21
41.964
  0
LINE
  8
0
 10
22.847
 11
22.982
 20
41.964
 21
42.176
  0
LINE
  8
0
 10
22.982
 11
23.142
 20
42.176
 21
42.369
  0
LINE
  8
0
 10
23.142
 11
23.325
 20
42.369
 21
42.541
  0
LINE
  8
0
 10
23.325
 11
23.528
 20
42.541
 21
42.689
  0
LINE
  8
0
 10
23.528
 11
23.748
 20
42.689
 21
42.81
  0
LINE
  8
0
 10
23.748
 11
23.982
 20
42.81
 21
42.902
  0
LINE
  8
0
 10
23.982
 11
24.225
 20
42.902
 21
42.965
  0
LINE
  8
0
 10
24.225
 11
24.474
 20
42.965
 21
42.996
  0
LINE
  8
0
 10
24.474
 11
24.726
 20
42.996
 21
42.996
  0
LINE
  8
0
 10
24.726
 11
24.975
 20
42.996
 21
42.965
  0
LINE
  8
0
 10
24.975
 11
25.218
 20
42.965
 21
42.902
  0
LINE
  8
0
 10
25.218
 11
25.452
 20
42.902
 21
42.81
  0
LINE
  8
0
 10
25.452
 11
25.672
 20
42.81
 21
42.689
  0
LINE
  8
0
 10
25.672
 11
25.875
 20
42.689
 21
42.541
  0
LINE
  8
0
 10
25.875
 11
26.058
 20
42.541
 21
42.369
  0
LINE
  8
0
 10
26.058
 11
26.218
 20
42.369
 21
42.176
  0
LINE
  8
0
 10
26.218
 11
26.353
 20
42.176
 21
41.964
  0
LINE
  8
0
 10
26.353
 11
26.46
 20
41.964
 21
41.736
  0
LINE
  8
0
 10
26.46
 11
26.537
 20
41.736
 21
41.497
  0
LINE
  8
0
 10
26.537
 11
26.584
 20
41.497
 21
41.251
  0
LINE
  8
0
 10
26.584
 11
26.6
 20
41.251
 21
41
  0
LINE
  8
0
 10
26.6
 11
26.584
 20
41
 21
40.749
  0
LINE
  8
0
 10
26.584
 11
26.537
 20
40.749
 21
40.503
  0
LINE
  8
0
 10
26.537
 11
26.46
 20
40.503
 21
40.264
  0
LINE
  8
0
 10
26.46
 11
26.353
 20
40.264
 21
40.036
  0
LINE
  8
0
 10
26.353
 11
26.218
 20
40.036
 21
39.824
  0
LINE
  8
0
 10
26.218
 11
26.058
 20
39.824
 21
39.631
  0
LINE
  8
0
 10
26.058
 11
25.875
 20
39.631
 21
39.459
  0
LINE
  8
0
 10
25.875
 11
25.672
 20
39.459
 21
39.311
  0
LINE
  8
0
 10
25.672
 11
25.452
 20
39.311
 21
39.19
  0
LINE
  8
0
 10
25.452
 11
25.218
 20
39.19
 21
39.098
  0
LINE
  8
0
 10
25.218
 11
24.975
 20
39.098
 21
39.035
  0
LINE
  8
0
 10
24.975
 11
24.726
 20
39.035
 21
39.004
  0
LINE
  8
0
 10
24.726
 11
24.474
 20
39.004
 21
39.004
  0
LINE
  8
0
 10
24.474
 11
24.225
 20
39.004
 21
39.035
  0
LINE
  8
0
 10
24.225
 11
23.982
 20
39.035
 21
39.098
  0
LINE
  8
0
 10
23.982
 11
23.748
 20
39.098
 21
39.19
  0
LINE
  8
0
 10
23.748
 11
23.528
 20
39.19
 21
39.311
  0
LINE
  8
0
 10
23.528
 11
23.325
 20
39.311
 21
39.459
  0
LINE
  8
0
 10
23.325
 11
23.142
 20
39.459
 21
39.631
  0
LINE
  8
0
 10
23.142
 11
22.982
 20
39.631
 21
39.824
  0
LINE
  8
0
 10
22.982
 11
22.847
 20
39.824
 21
40.036
  0
LINE
  8
0
 10
22.847
 11
22.74
 20
40.036
 21
40.264
  0
LINE
  8
0
 10
22.74
 11
22.663
 20
40.264
 21
40.503
  0
LINE
  8
0
 10
22.663
 11
22.616
 20
40.503
 21
40.749
  0
LINE
  8
0
 10
22.616
 11
22.6
 20
40.749
 21
41
  0
LINE
  8
0
 10
28.8
 11
28.832
 20
0
 21
0.501
  0
LINE
  8
0
 10
28.832
 11
28.926
 20
0.501
 21
0.995
  0
LINE
  8
0
 10
28.926
 11
29.081
 20
0.995
 21
1.472
  0
LINE
  8
0
 10
29.081
 11
29.295
 20
1.472
 21
1.927
  0
LINE
  8
0
 10
29.295
 11
29.564
 20
1.927
 21
2.351
  0
LINE
  8
0
 10
29.564
 11
29.884
 20
2.351
 21
2.738
  0
LINE
  8
0
 10
29.884
 11
30.25
 20
2.738
 21
3.082
  0
LINE
  8
0
 10
30.25
 11
30.657
 20
3.082
 21
3.377
  0
LINE
  8
0
 10
30.657
 11
31.097
 20
3.377
 21
3.619
  0
LINE
  8
0
 10
31.097
 11
31.564
 20
3.619
 21
3.804
  0
LINE
  8
0
 10
31.564
 11
32.05
 20
3.804
 21
3.929
  0
LINE
  8
0
 10
32.05
 11
32.549
 20
3.929
 21
3.992
  0
LINE
  8
0
 10
32.549
 11
33.051
 20
3.992
 21
3.992
  0
LINE
  8
0
 10
33.051
 11
33.55
 20
3.992
 21
3.929
  0
LINE
  8
0
 10
33.55
 11
34.036
 20
3.929
 21
3.804
  0
LINE
  8
0
 10
34.036
 11
34.503
 20
3.804
 21
3.619
  0
LINE
  8
0
 10
34.503
 11
34.943
 20
3.619
 21
3.377
  0
LINE
  8
0
 10
34.943
 11
35.35
 20
3.377
 21
3.082
  0
LINE
  8
0
 10
35.35
 11
35.716
 20
3.082
 21
2.738
  0
LINE
  8
0
 10
35.716
 11
36.036
 20
2.738
 21
2.351
  0
LINE
  8
0
 10
36.036
 11
36.305
 20
2.351
 21
1.927
  0
LINE
  8
0
 10
36.305
 11
36.519
 20
1.927
 21
1.472
  0
LINE
  8
0
 10
36.519
 11
36.674
 20
1.472
 21
0.995
  0
LINE
  8
0
 10
36.674
 11
36.768
 20
0.995
 21
0.501
  0
LINE
  8
0
 10
36.768
 11
36.8
 20
0.501
 21
0
  0
LINE
  8
0
 10
36.8
 11
36.768
 20
0
 21
-0.501
  0
LINE
  8
0
 10
36.768
 11
36.674
 20
-0.501
 21
-0.995
  0
LINE
  8
0
 10
36.674
 11
36.519
 20
-0.995
 21
-1.472
  0
LINE
  8
0
 10
36.519
 11
36.305
 20
-1.472
 21
-1.927
  0
LINE
  8
0
 10
36.305
 11
36.036
 20
-1.927
 21
-2.351
  0
LINE
  8
0
 10
36.036
 11
35.716
 20
-2.351
 21
-2.738
  0
LINE
  8
0
 10
35.716
 11
35.35
 20
-2.738
 21
-3.082
  0
LINE
  8
0
 10
35.35
 11
34.943
 20
-3.082
 21
-3.377
  0
LINE
  8
0
 10
34.943
 11
34.503
 20
-3.377
 21
-3.619
  0
LINE
  8
0
 10
34.503
 11
34.036
 20
-3.619
 21
-3.804
  0
LINE
  8
0
 10
34.036
 11
33.55
 20
-3.804
 21
-3.929
  0
LINE
  8
0
 10
33.55
 11
33.051
 20
-3.929
 21
-3.992
  0
LINE
  8
0
 10
33.051
 11
32.549
 20
-3.992
 21
-3.992
  0
LINE
  8
0
 10
32.549
 11
32.05
 20
-3.992
 21
-3.929
  0
LINE
  8
0
 10
32.05
 11
31.564
 20
-3.929
 21
-3.804
  0
LINE
  8
0
 10
31.564
 11
31.097
 20
-3.804
 21
-3.619
  0
LINE
  8
0
 10
31.097
 11
30.657
 20
-3.619
 21
-3.377
  0
LINE
  8
0
 10
30.657
 11
30.25
 20
-3.377
 21
-3.082
  0
LINE
  8
0
 10
30.25
 11
29.884
 20
-3.082
 21
-2.738
  0
LINE
  8
0
 10
29.884
 11
29.564
 20
-2.738
 21
-2.351
  0
LINE
  8
0
 10
29.564
 11
29.295
 20
-2.351
 21
-1.927
  0
LINE
  8
0
 10
29.295
 11
29.081
 20
-1.927
 21
-1.472
  0
LINE
  8
0
 10
29.081
 11
28.926
 20
-1.472
 21
-0.995
  0
LINE
  8
0
 10
28.926
 11
28.832
 20
-0.995
 21
-0.501
  0
LINE
  8
0
 10
28.832
 11
28.8
 20
-0.501
 21
0
  0
LINE
  8
0
 10
28.8
 11
28.832
 20
8.2
 21
8.701
  0
LINE
  8
0
 10
28.832
 11
28.926
 20
8.701
 21
9.195
  0
LINE
  8
0
 10
28.926
 11
29.081
 20
9.195
 21
9.672
  0
LINE
  8
0
 10
29.081
 11
29.295
 20
9.672
 21
10.127
  0
LINE
  8
0
 10
29.295
 11
29.564
 20
10.127
 21
10.551
  0
LINE
  8
0
 10
29.564
 11
29.884
 20
10.551
 21
10.938
  0
LINE
  8
0
 10
29.884
 11
30.25
 20
10.938
 21
11.282
  0
LINE
  8
0
 10
30.25
 11
30.657
 20
11.282
 21
11.577
  0
LINE
  8
0
 10
30.657
 11
31.097
 20
11.577
 21
11.819
  0
LINE
  8
0
 10
31.097
 11
31.564
 20
11.819
 21
12.004
  0
LINE
  8
0
 10
31.564
 11
32.05
 20
12.004
 21
12.129
  0
LINE
  8
0
 10
32.05
 11
32.549
 20
12.129
 21
12.192
  0
LINE
  8
0
 10
32.549
 11
33.051
 20
12.192
 21
12.192
  0
LINE
  8
0
 10
33.051
 11
33.55
 20
12.192
 21
12.129
  0
LINE
  8
0
 10
33.55
 11
34.036
 20
12.129
 21
12.004
  0
LINE
  8
0
 10
34.036
 11
34.503
 20
12.004
 21
11.819
  0
LINE
  8
0
 10
34.503
 11
34.943
 20
11.819
 21
11.577
  0
LINE
  8
0
 10
34.943
 11
35.35
 20
11.577
 21
11.282
  0
LINE
  8
0
 10
35.35
 11
35.716
 20
11.282
 21
10.938
  0
LINE
  8
0
 10
35.716
 11
36.036
 20
10.938
 21
10.551
  0
LINE
  8
0
 10
36.036
 11
36.305
 20
10.551
 21
10.127
  0
LINE
  8
0
 10
36.305
 11
36.519
 20
10.127
 21
9.672
  0
LINE
  8
0
 10
36.519
 11
36.674
 20
9.672
 21
9.195
  0
LINE
  8
0
 10
36.674
 11
36.768
 20
9.195
 21
8.701
  0
LINE
  8
0
 10
36.768
 11
36.8
 20
8.701
 21
8.2
  0
LINE
  8
0
 10
36.8
 11
36.768
 20
8.2
 21
7.699
  0
LINE
  8
0
 10
36.768
 11
36.674
 20
7.699
 21
7.205
  0
LINE
  8
0
 10
36.674
 11
36.519
 20
7.205
 21
6.728
  0
LINE
  8
0
 10
36.519
 11
36.305
 20
6.728
 21
6.273
  0
LINE
  8
0
 10
36.305
 11
36.036
 20
6.273
 21
5.849
  0
LINE
  8
0
 10
36.036
 11
35.716
 20
5.849
 21
5.462
  0
LINE
  8
0
 10
35.716
 11
35.35
 20
5.462
 21
5.118
  0
LINE
  8
0
 10
35.35
 11
34.943
 20
5.118
 21
4.823
  0
LINE
  8
0
 10
34.943
 11
34.503
 20
4.823
 21
4.581
  0
LINE
  8
0
 10
34.503
 11
34.036
 20
4.581
 21
4.396
  0
LINE
  8
0
 10
34.036
 11
33.55
 20
4.396
 21
4.271
  0
LINE
  8
0
 10
33.55
 11
33.051
 20
4.271
 21
4.208
  0
LINE
  8
0
 10
33.051
 11
32.549
 20
4.208
 21
4.208
  0
LINE
  8
0
 10
32.549
 11
32.05
 20
4.208
 21
4.271
  0
LINE
  8
0
 10
32.05
 11
31.564
 20
4.271
 21
4.396
  0
LINE
  8
0
 10
31.564
 11
31.097
 20
4.396
 21
4.581
  0
LINE
  8
0
 10
31.097
 11
30.657
 20
4.581
 21
4.823
  0
LINE
  8
0
 10
30.657
 11
30.25
 20
4.823
 21
5.118
  0
LINE
  8
0
 10
30.25
 11
29.884
 20
5.118
 21
5.462
  0
LINE
  8
0
 10
29.884
 11
29.564
 20
5.462
 21
5.849
  0
LINE
  8
0
 10
29.564
 11
29.295
 20
5.849
 21
6.273
  0
LINE
  8
0
 10
29.295
 11
29.081
 20
6.273
 21
6.728
  0
LINE
  8
0
 10
29.081
 11
28.926
 20
6.728
 21
7.205
  0
LINE
  8
0
 10
28.926
 11
28.832
 20
7.205
 21
7.699
  0
LINE
  8
0
 10
28.832
 11
28.8
 20
7.699
 21
8.2
  0
LINE
  8
0
 10
28.8
 11
28.832
 20
16.4
 21
16.901
  0
LINE
  8
0
 10
28.832
 11
28.926
 20
16.901
 21
17.395
  0
LINE
  8
0
 10
28.926
 11
29.081
 20
17.395
 21
17.872
  0
LINE
  8
0
 10
29.081
 11
29.295
 20
17.872
 21
18.327
  0
LINE
  8
0
 10
29.295
 11
29.564
 20
18.327
 21
18.751
  0
LINE
  8
0
 10
29.564
 11
29.884
 20
18.751
 21
19.138
  0
LINE
  8
0
 10
29.884
 11
30.25
 20
19.138
 21
19.482
  0
LINE
  8
0
 10
30.25
 11
30.657
 20
19.482
 21
19.777
  0
LINE
  8
0
 10
30.657
 11
31.097
 20
19.777
 21
20.019
  0
LINE
  8
0
 10
31.097
 11
31.564
 20
20.019
 21
20.204
  0
LINE
  8
0
 10
31.564
 11
32.05
 20
20.204
 21
20.329
  0
LINE
  8
0
 10
32.05
 11
32.549
 20
20.329
 21
20.392
  0
LINE
  8
0
 10
32.549
 11
33.051
 20
20.392
 21
20.392
  0
LINE
  8
0
 10
33.051
 11
33.55
 20
20.392
 21
20.329
  0
LINE
  8
0
 10
33.55
 11
34.036
 20
20.329
 21
20.204
  0
LINE
  8
0
 10
34.036
 11
34.503
 20
20.204
 21
20.019
  0
LINE
  8
0
 10
34.503
 11
34.943
 20
20.019
 21
19.777
  0
LINE
  8
0
 10
34.943
 11
35.35
 20
19.777
 21
19.482
  0
LINE
  8
0
 10
35.35
 11
35.716
 20
19.482
 21
19.138
  0
LINE
  8
0
 10
35.716
 11
36.036
 20
19.138
 21
18.751
  0
LINE
  8
0
 10
36.036
 11
36.305
 20
18.751
 21
18.327
  0
LINE
  8
0
 10
36.305
 11
36.519
 20
18.327
 21
17.872
  0
LINE
  8
0
 10
36.519
 11
36.674
 20
17.872
 21
17.395
  0
LINE
  8
0
 10
36.674
 11
36.768
 20
17.395
 21
16.901
  0
LINE
  8
0
 10
36.768
 11
36.8
 20
16.901
 21
16.4
  0
LINE
  8
0
 10
36.8
 11
36.768
 20
16.4
 21
15.899
  0
LINE
  8
0
 10
36.768
 11
36.674
 20
15.899
 21
15.405
  0
LINE
  8
0
 10
36.674
 11
36.519
 20
15.405
 21
14.928
  0
LINE
  8
0
 10
36.519
 11
36.305
 20
14.928
 21
14.473
  0
LINE
  8
0
 10
36.305
 11
36.036
 20
14.473
 21
14.049
  0
LINE
  8
0
 10
36.036
 11
35.716
 20
14.049
 21
13.662
  0
LINE
  8
0
 10
35.716
 11
35.35
 20
13.662
 21
13.318
  0
LINE
  8
0
 10
35.35
 11
34.943
 20
13.318
 21
13.023
  0
LINE
  8
0
 10
34.943
 11
34.503
 20
13.023
 21
12.781
  0
LINE
  8
0
 10
34.503
 11
34.036
 20
12.781
 21
12.596
  0
LINE
  8
0
 10
34.036
 11
33.55
 20
12.596
 21
12.471
  0
LINE
  8
0
 10
33.55
 11
33.051
 20
12.471
 21
12.408
  0
LINE
  8
0
 10
33.051
 11
32.549
 20
12.408
 21
12.408
  0
LINE
  8
0
 10
32.549
 11
32.05
 20
12.408
 21
12.471
  0
LINE
  8
0
 10
32.05
 11
31.564
 20
12.471
 21
12.596
  0
LINE
  8
0
 10
31.564
 11
31.097
 20
12.596
 21
12.781
  0
LINE
  8
0
 10
31.097
 11
30.657
 20
12.781
 21
13.023
  0
LINE
  8
0
 10
30.657
 11
30.25
 20
13.023
 21
13.318
  0
LINE
  8
0
 10
30.25
 11
29.884
 20
13.318
 21
13.662
  0
LINE
  8
0
 10
29.884
 11
29.564
 20
13.662
 21
14.049
  0
LINE
  8
0
 10
29.564
 11
29.295
 20
14.049
 21
14.473
  0
LINE
  8
0
 10
29.295
 11
29.081
 20
14.473
 21
14.928
  0
LINE
  8
0
 10
29.081
 11
28.926
 20
14.928
 21
15.405
  0
LINE
  8
0
 10
28.926
 11
28.832
 20
15.405
 21
15.899
  0
LINE
  8
0
 10
28.832
 11
28.8
 20
15.899
 21
16.4
  0
LINE
  8
0
 10
28.8
 11
28.832
 20
24.6
 21
25.101
  0
LINE
  8
0
 10
28.832
 11
28.926
 20
25.101
 21
25.595
  0
LINE
  8
0
 10
28.926
 11
29.081
 20
25.595
 21
26.072
  0
LINE
  8
0
 10
29.081
 11
29.295
 20
26.072
 21
26.527
  0
LINE
  8
0
 10
29.295
 11
29.564
 20
26.527
 21
26.951
  0
LINE
  8
0
 10
29.564
 11
29.884
 20
26.951
 21
27.338
  0
LINE
  8
0
 10
29.884
 11
30.25
 20
27.338
 21
27.682
  0
LINE
  8
0
 10
30.25
 11
30.657
 20
27.682
 21
27.977
  0
LINE
  8
0
 10
30.657
 11
31.097
 20
27.977
 21
28.219
  0
LINE
  8
0
 10
31.097
 11
31.564
 20
28.219
 21
28.404
  0
LINE
  8
0
 10
31.564
 11
32.05
 20
28.404
 21
28.529
  0
LINE
  8
0
 10
32.05
 11
32.549
 20
28.529
 21
28.592
  0
LINE
  8
0
 10
32.549
 11
33.051
 20
28.592
 21
28.592
  0
LINE
  8
0
 10
33.051
 11
33.55
 20
28.592
 21
28.529
  0
LINE
  8
0
 10
33.55
 11
34.036
 20
28.529
 21
28.404
  0
LINE
  8
0
 10
34.036
 11
34.503
 20
28.404
 21
28.219
  0
LINE
  8
0
 10
34.503
 11
34.943
 20
28.219
 21
27.977
  0
LINE
  8
0
 10
34.943
 11
35.35
 20
27.977
 21
27.682
  0
LINE
  8
0
 10
35.35
 11
35.716
 20
27.682
 21
27.338
  0
LINE
  8
0
 10
35.716
 11
36.036
 20
27.338
 21
26.951
  0
LINE
  8
0
 10
36.036
 11
36.305
 20
26.951
 21
26.527
  0
LINE
  8
0
 10
36.305
 11
36.519
 20
26.527
 21
26.072
  0
LINE
  8
0
 10
36.519
 11
36.674
 20
26.072
 21
25.595
  0
LINE
  8
0
 10
36.674
 11
36.768
 20
25.595
 21
25.101
  0
LINE
  8
0
 10
36.768
 11
36.8
 20
25.101
 21
24.6
  0
LINE
  8
0
 10
36.8
 11
36.768
 20
24.6
 21
24.099
  0
LINE
  8
0
 10
36.768
 11
36.674
 20
24.099
 21
23.605
  0
LINE
  8
0
 10
36.674
 11
36.519
 20
23.605
 21
23.128
  0
LINE
  8
0
 10
36.519
 11
36.305
 20
23.128
 21
22.673
  0
LINE
  8
0
 10
36.305
 11
36.036
 20
22.673
 21
22.249
  0
LINE
  8
0
 10
36.036
 11
35.716
 20
22.249
 21
21.862
  0
LINE
  8
0
 10
35.716
 11
35.35
 20
21.862
 21
21.518
  0
LINE
  8
0
 10
35.35
 11
34.943
 20
21.518
 21
21.223
  0
LINE
  8
0
 10
34.943
 11
34.503
 20
21.223
 21
20.981
  0
LINE
  8
0
 10
34.503
 11
34.036
 20
20.981
 21
20.796
  0
LINE
  8
0
 10
34.036
 11
33.55
 20
20.796
 21
20.671
  0
LINE
  8
0
 10
33.55
 11
33.051
 20
20.671
 21
20.608
  0
LINE
  8
0
 10
33.051
 11
32.549
 20
20.608
 21
20.608
  0
LINE
  8
0
 10
32.549
 11
32.05
 20
20.608
 21
20.671
  0
LINE
  8
0
 10
32.05
 11
31.564
 20
20.671
 21
20.796
  0
LINE
  8
0
 10
31.564
 11
31.097
 20
20.796
 21
20.981
  0
LINE
  8
0
 10
31.097
 11
30.657
 20
20.981
 21
21.223
  0
LINE
  8
0
 10
30.657
 11
30.25
 20
21.223
 21
21.518
  0
LINE
  8
0
 10
30.25
 11
29.884
 20
21.518
 21
21.862
  0
LINE
  8
0
 10
29.884
 11
29.564
 20
21.862
 21
22.249
  0
LINE
  8
0
 10
29.564
 11
29.295
 20
22.249
 21
22.673
  0
LINE
  8
0
 10
29.295
 11
29.081
 20
22.673
 21
23.128
  0
LINE
  8
0
 10
29.081
 11
28.926
 20
23.128
 21
23.605
  0
LINE
  8
0
 10
28.926
 11
28.832
 20
23.605
 21
24.099
  0
LINE
  8
0
 10
28.832
 11
28.8
 20
24.099
 21
24.6
  0
LINE
  8
0
 10
28.8
 11
28.832
 20
32.8
 21
33.301
  0
LINE
  8
0
 10
28.832
 11
28.926
 20
33.301
 21
33.795
  0
LINE
  8
0
 10
28.926
 11
29.081
 20
33.795
 21
34.272
  0
LINE
  8
0
 10
29.081
 11
29.295
 20
34.272
 21
34.727
  0
LINE
  8
0
 10
29.295
 11
29.564
 20
34.727
 21
35.151
  0
LINE
  8
0
 10
29.564
 11
29.884
 20
35.151
 21
35.538
  0
LINE
  8
0
 10
29.884
 11
30.25
 20
35.538
 21
35.882
  0
LINE
  8
0
 10
30.25
 11
30.657
 20
35.882
 21
36.177
  0
LINE
  8
0
 10
30.657
 11
31.097
 20
36.177
 21
36.419
  0
LINE
  8
0
 10
31.097
 11
31.564
 20
36.419
 21
36.604
  0
LINE
  8
0
 10
31.564
 11
32.05
 20
36.604
 21
36.729
  0
LINE
  8
0
 10
32.05
 11
32.549
 20
36.729
 21
36.792
  0
LINE
  8
0
 10
32.549
 11
33.051
 20
36.792
 21
36.792
  0
LINE
  8
0
 10
33.051
 11
33.55
 20
36.792
 21
36.729
  0
LINE
  8
0
 10
33.55
 11
34.036
 20
36.729
 21
36.604
  0
LINE
  8
0
 10
34.036
 11
34.503
 20
36.604
 21
36.419
  0
LINE
  8
0
 10
34.503
 11
34.943
 20
36.419
 21
36.177
  0
LINE
  8
0
 10
34.943
 11
35.35
 20
36.177
 21
35.882
  0
LINE
  8
0
 10
35.35
 11
35.716
 20
35.882
 21
35.538
  0
LINE
  8
0
 10
35.716
 11
36.036
 20
35.538
 21
35.151
  0
LINE
  8
0
 10
36.036
 11
36.305
 20
35.151
 21
34.727
  0
LINE
  8
0
 10
36.305
 11
36.519
 20
34.727
 21
34.272
  0
LINE
  8
0
 10
36.519
 11
36.674
 20
34.272
 21
33.795
  0
LINE
  8
0
 10
36.674
 11
36.768
 20
33.795
 21
33.301
  0
LINE
  8
0
 10
36.768
 11
36.8
 20
33.301
 21
32.8
  0
LINE
  8
0
 10
36.8
 11
36.768
 20
32.8
 21
32.299
  0
LINE
  8
0
 10
36.768
 11
36.674
 20
32.299
 21
31.805
  0
LINE
  8
0
 10
36.674
 11
36.519
 20
31.805
 21
31.328
  0
LINE
  8
0
 10
36.519
 11
36.305
 20
31.328
 21
30.873
  0
LINE
  8
0
 10
36.305
 11
36.036
 20
30.873
 21
30.449
  0
LINE
  8
0
 10
36.036
 11
35.716
 20
30.449
 21
30.062
  0
LINE
  8
0
 10
35.716
 11
35.35
 20
30.062
 21
29.718
  0
LINE
  8
0
 10
35.35
 11
34.943
 20
29.718
 21
29.423
  0
LINE
  8
0
 10
34.943
 11
34.503
 20
29.423
 21
29.181
  0
LINE
  8
0
 10
34.503
 11
34.036
 20
29.181
 21
28.996
  0
LINE
  8
0
 10
34.036
 11
33.55
 20
28.996
 21
28.871
  0
LINE
  8
0
 10
33.55
 11
33.051
 20
28.871
 21
28.808
  0
LINE
  8
0
 10
33.051
 11
32.549
 20
28.808
 21
28.808
  0
LINE
  8
0
 10
32.549
 11
32.05
 20
28.808
 21
28.871
  0
LINE
  8
0
 10
32.05
 11
31.564
 20
28.871
 21
28.996
  0
LINE
  8
0
 10
31.564
 11
31.097
 20
28.996
 21
29.181
  0
LINE
  8
0
 10
31.097
 11
30.657
 20
29.181
 21
29.423
  0
LINE
  8
0
 10
30.657
 11
30.25
 20
29.423
 21
29.718
  0
LINE
  8
0
 10
30.25
 11
29.884
 20
29.718
 21
30.062
  0
LINE
  8
0
 10
29.884
 11
29.564
 20
30.062
 21
30.449
  0
LINE
  8
0
 10
29.564
 11
29.295
 20
30.449
 21
30.873
  0
LINE
  8
0
 10
29.295
 11
29.081
 20
30.873
 21
31.328
  0
LINE
  8
0
 10
29.081
 11
28.926
 20
31.328
 21
31.805
  0
LINE
  8
0
 10
28.926
 11
28.832
 20
31.805
 21
32.299
  0
LINE
  8
0
 10
28.832
 11
28.8
 20
32.299
 21
32.8
  0
LINE
  8
0
 10
28.8
 11
28.832
 20
41
 21
41.501
  0
LINE
  8
0
 10
28.832
 11
28.926
 20
41.501
 21
41.995
  0
LINE
  8
0
 10
28.926
 11
29.081
 20
41.995
 21
42.472
  0
LINE
  8
0
 10
29.081
 11
29.295
 20
42.472
 21
42.927
  0
LINE
  8
0
 10
29.295
 11
29.564
 20
42.927
 21
43.351
  0
LINE
  8
0
 10
29.564
 11
29.884
 20
43.351
 21
43.738
  0
LINE
  8
0
 10
29.884
 11
30.25
 20
43.738
 21
44.082
  0
LINE
  8
0
 10
30.25
 11
30.657
 20
44.082
 21
44.377
  0
LINE
  8
0
 10
30.657
 11
31.097
 20
44.377
 21
44.619
  0
LINE
  8
0
 10
31.097
 11
31.564
 20
44.619
 21
44.804
  0
LINE
  8
0
 10
31.564
 11
32.05
 20
44.804
 21
44.929
  0
LINE
  8
0
 10
32.05
 11
32.549
 20
44.929
 21
44.992
  0
LINE
  8
0
 10
32.549
 11
33.051
 20
44.992
 21
44.992
  0
LINE
  8
0
 10
33.051
 11
33.55
 20
44.992
 21
44.929
  0
LINE
  8
0
 10
33.55
 11
34.036
 20
44.929
 21
44.804
  0
LINE
  8
0
 10
34.036
 11
34.503
 20
44.804
 21
44.619
  0
LINE
  8
0
 10
34.503
 11
34.943
 20
44.619
 21
44.377
  0
LINE
  8
0
 10
34.943
 11
35.35
 20
44.377
 21
44.082
  0
LINE
  8
0
 10
35.35
 11
35.716
 20
44.082
 21
43.738
  0
LINE
  8
0
 10
35.716
 11
36.036
 20
43.738
 21
43.351
  0
LINE
  8
0
 10
36.036
 11
36.305
 20
43.351
 21
42.927
  0
LINE
  8
0
 10
36.305
 11
36.519
 20
42.927
 21
42.472
  0
LINE
  8
0
 10
36.519
 11
36.674
 20
42.472
 21
41.995
  0
LINE
  8
0
 10
36.674
 11
36.768
 20
41.995
 21
41.501
  0
LINE
  8
0
 10
36.768
 11
36.8
 20
41.501
 21
41
  0
LINE
  8
0
 10
36.8
 11
36.768
 20
41
 21
40.499
  0
LINE
  8
0
 10
36.768
 11
36.674
 20
40.499
 21
40.005
  0
LINE
  8
0
 10
36.674
 11
36.519
 20
40.005
 21
39.528
  0
LINE
  8
0
 10
36.519
 11
36.305
 20
39.528
 21
39.073
  0
LINE
  8
0
 10
36.305
 11
36.036
 20
39.073
 21
38.649
  0
LINE
  8
0
 10
36.036
 11
35.716
 20
38.649
 21
38.262
  0
LINE
  8
0
 10
35.716
 11
35.35
 20
38.262
 21
37.918
  0
LINE
  8
0
 10
35.35
 11
34.943
 20
37.918
 21
37.623
  0
LINE
  8
0
 10
34.943
 11
34.503
 20
37.623
 21
37.381
  0
LINE
  8
0
 10
34.503
 11
34.036
 20
37.381
 21
37.196
  0
LINE
  8
0
 10
34.036
 11
33.55
 20
37.196
 21
37.071
  0
LINE
  8
0
 10
33.55
 11
33.051
 20
37.071
 21
37.008
  0
LINE
  8
0
 10
33.051
 11
32.549
 20
37.008
 21
37.008
  0
LINE
  8
0
 10
32.549
 11
32.05
 20
37.008
 21
37.071
  0
LINE
  8
0
 10
32.05
 11
31.564
 20
37.071
 21
37.196
  0
LINE
  8
0
 10
31.564
 11
31.097
 20
37.196
 21
37.381
  0
LINE
  8
0
 10
31.097
 11
30.657
 20
37.381
 21
37.623
  0
LINE
  8
0
 10
30.657
 11
30.25
 20
37.623
 21
37.918
  0
LINE
  8
0
 10
30.25
 11
29.884
 20
37.918
 21
38.262
  0
LINE
  8
0
 10
29.884
 11
29.564
 20
38.262
 21
38.649
  0
LINE
  8
0
 10
29.564
 11
29.295
 20
38.649
 21
39.073
  0
LINE
  8
0
 10
29.295
 11
29.081
 20
39.073
 21
39.528
  0
LINE
  8
0
 10
29.081
 11
28.926
 20
39.528
 21
40.005
  0
LINE
  8
0
 10
28.926
 11
28.832
 20
40.005
 21
40.499
  0
LINE
  8
0
 10
28.832
 11
28.8
 20
40.499
 21
41
  0
LINE
  8
0
 10
30.8
 11
30.816
 20
0
 21
0.251
  0
LINE
  8
0
 10
30.816
 11
30.863
 20
0.251
 21
0.497
  0
LINE
  8
0
 10
30.863
 11
30.94
 20
0.497
 21
0.736
  0
LINE
  8
0
 10
30.94
 11
31.047
 20
0.736
 21
0.964
  0
LINE
  8
0
 10
31.047
 11
31.182
 20
0.964
 21
1.176
  0
LINE
  8
0
 10
31.182
 11
31.342
 20
1.176
 21
1.369
  0
LINE
  8
0
 10
31.342
 11
31.525
 20
1.369
 21
1.541
  0
LINE
  8
0
 10
31.525
 11
31.728
 20
1.541
 21
1.689
  0
LINE
  8
0
 10
31.728
 11
31.948
 20
1.689
 21
1.81
  0
LINE
  8
0
 10
31.948
 11
32.182
 20
1.81
 21
1.902
  0
LINE
  8
0
 10
32.182
 11
32.425
 20
1.902
 21
1.965
  0
LINE
  8
0
 10
32.425
 11
32.674
 20
1.965
 21
1.996
  0
LINE
  8
0
 10
32.674
 11
32.926
 20
1.996
 21
1.996
  0
LINE
  8
0
 10
32.926
 11
33.175
 20
1.996
 21
1.965
  0
LINE
  8
0
 10
33.175
 11
33.418
 20
1.965
 21
1.902
  0
LINE
  8
0
 10
33.418
 11
33.652
 20
1.902
 21
1.81
  0
LINE
  8
0
 10
33.652
 11
33.872
 20
1.81
 21
1.689
  0
LINE
  8
0
 10
33.872
 11
34.075
 20
1.689
 21
1.541
  0
LINE
  8
0
 10
34.075
 11
34.258
 20
1.541
 21
1.369
  0
LINE
  8
0
 10
34.258
 11
34.418
 20
1.369
 21
1.176
  0
LINE
  8
0
 10
34.418
 11
34.553
 20
1.176
 21
0.964
  0
LINE
  8
0
 10
34.553
 11
34.66
 20
0.964
 21
0.736
  0
LINE
  8
0
 10
34.66
 11
34.737
 20
0.736
 21
0.497
  0
LINE
  8
0
 10
34.737
 11
34.784
 20
0.497
 21
0.251
  0
LINE
  8
0
 10
34.784
 11
34.8
 20
0.251
 21
0
  0
LINE
  8
0
 10
34.8
 11
34.784
 20
0
 21
-0.251
  0
LINE
  8
0
 10
34.784
 11
34.737
 20
-0.251
 21
-0.497
  0
LINE
  8
0
 10
34.737
 11
34.66
 20
-0.497
 21
-0.736
  0
LINE
  8
0
 10
34.66
 11
34.553
 20
-0.736
 21
-0.964
  0
LINE
  8
0
 10
34.553
 11
34.418
 20
-0.964
 21
-1.176
  0
LINE
  8
0
 10
34.418
 11
34.258
 20
-1.176
 21
-1.369
  0
LINE
  8
0
 10
34.258
 11
34.075
 20
-1.369
 21
-1.541
  0
LINE
  8
0
 10
34.075
 11
33.872
 20
-1.541
 21
-1.689
  0
LINE
  8
0
 10
33.872
 11
33.652
 20
-1.689
 21
-1.81
  0
LINE
  8
0
 10
33.652
 11
33.418
 20
-1.81
 21
-1.902
  0
LINE
  8
0
 10
33.418
 11
33.175
 20
-1.902
 21
-1.965
  0
LINE
  8
0
 10
33.175
 11
32.926
 20
-1.965
 21
-1.996
  0
LINE
  8
0
 10
32.926
 11
32.674
 20
-1.996
 21
-1.996
  0
LINE
  8
0
 10
32.674
 11
32.425
 20
-1.996
 21
-1.965
  0
LINE
  8
0
 10
32.425
 11
32.182
 20
-1.965
 21
-1.902
  0
LINE
  8
0
 10
32.182
 11
31.948
 20
-1.902
 21
-1.81
  0
LINE
  8
0
 10
31.948
 11
31.728
 20
-1.81
 21
-1.689
  0
LINE
  8
0
 10
31.728
 11
31.525
 20
-1.689
 21
-1.541
  0
LINE
  8
0
 10
31.525
 11
31.342
 20
-1.541
 21
-1.369
  0
LINE
  8
0
 10
31.342
 11
31.182
 20
-1.369
 21
-1.176
  0
LINE
  8
0
 10
31.182
 11
31.047
 20
-1.176
 21
-0.964
  0
LINE
  8
0
 10
31.047
 11
30.94
 20
-0.964
 21
-0.736
  0
LINE
  8
0
 10
30.94
 11
30.863
 20
-0.736
 21
-0.497
  0
LINE
  8
0
 10
30.863
 11
30.816
 20
-0.497
 21
-0.251
  0
LINE
  8
0
 10
30.816
 11
30.8
 20
-0.251
 21
0
  0
LINE
  8
0
 10
30.8
 11
30.816
 20
8.2
 21
8.451
  0
LINE
  8
0
 10
30.816
 11
30.863
 20
8.451
 21
8.697
  0
LINE
  8
0
 10
30.863
 11
30.94
 20
8.697
 21
8.936
  0
LINE
  8
0
 10
30.94
 11
31.047
 20
8.936
 21
9.164
  0
LINE
  8
0
 10
31.047
 11
31.182
 20
9.164
 21
9.376
  0
LINE
  8
0
 10
31.182
 11
31.342
 20
9.376
 21
9.569
  0
LINE
  8
0
 10
31.342
 11
31.525
 20
9.569
 21
9.741
  0
LINE
  8
0
 10
31.525
 11
31.728
 20
9.741
 21
9.889
  0
LINE
  8
0
 10
31.728
 11
31.948
 20
9.889
 21
10.01
  0
LINE
  8
0
 10
31.948
 11
32.182
 20
10.01
 21
10.102
  0
LINE
  8
0
 10
32.182
 11
32.425
 20
10.102
 21
10.165
  0
LINE
  8
0
 10
32.425
 11
32.674
 20
10.165
 21
10.196
  0
LINE
  8
0
 10
32.674
 11
32.926
 20
10.196
 21
10.196
  0
LINE
  8
0
 10
32.926
 11
33.175
 20
10.196
 21
10.165
  0
LINE
  8
0
 10
33.175
 11
33.418
 20
10.165
 21
10.102
  0
LINE
  8
0
 10
33.418
 11
33.652
 20
10.102
 21
10.01
  0
LINE
  8
0
 10
33.652
 11
33.872
 20
10.01
 21
9.889
  0
LINE
  8
0
 10
33.872
 11
34.075
 20
9.889
 21
9.741
  0
LINE
  8
0
 10
34.075
 11
34.258
 20
9.741
 21
9.569
  0
LINE
  8
0
 10
34.258
 11
34.418
 20
9.569
 21
9.376
  0
LINE
  8
0
 10
34.418
 11
34.553
 20
9.376
 21
9.164
  0
LINE
  8
0
 10
34.553
 11
34.66
 20
9.164
 21
8.936
  0
LINE
  8
0
 10
34.66
 11
34.737
 20
8.936
 21
8.697
  0
LINE
  8
0
 10
34.737
 11
34.784
 20
8.697
 21
8.451
  0
LINE
  8
0
 10
34.784
 11
34.8
 20
8.451
 21
8.2
  0
LINE
  8
0
 10
34.8
 11
34.784
 20
8.2
 21
7.949
  0
LINE
  8
0
 10
34.784
 11
34.737
 20
7.949
 21
7.703
  0
LINE
  8
0
 10
34.737
 11
34.66
 20
7.703
 21
7.464
  0
LINE
  8
0
 10
34.66
 11
34.553
 20
7.464
 21
7.236
  0
LINE
  8
0
 10
34.553
 11
34.418
 20
7.236
 21
7.024
  0
LINE
  8
0
 10
34.418
 11
34.258
 20
7.024
 21
6.831
  0
LINE
  8
0
 10
34.258
 11
34.075
 20
6.831
 21
6.659
  0
LINE
  8
0
 10
34.075
 11
33.872
 20
6.659
 21
6.511
  0
LINE
  8
0
 10
33.872
 11
33.652
 20
6.511
 21
6.39
  0
LINE
  8
0
 10
33.652
 11
33.418
 20
6.39
 21
6.298
  0
LINE
  8
0
 10
33.418
 11
33.175
 20
6.298
 21
6.235
  0
LINE
  8
0
 10
33.175
 11
32.926
 20
6.235
 21
6.204
  0
LINE
  8
0
 10
32.926
 11
32.674
 20
6.204
 21
6.204
  0
LINE
  8
0
 10
32.674
 11
32.425
 20
6.204
 21
6.235
  0
LINE
  8
0
 10
32.425
 11
32.182
 20
6.235
 21
6.298
  0
LINE
  8
0
 10
32.182
 11
31.948
 20
6.298
 21
6.39
  0
LINE
  8
0
 10
31.948
 11
31.728
 20
6.39
 21
6.511
  0
LINE
  8
0
 10
31.728
 11
31.525
 20
6.511
 21
6.659
  0
LINE
  8
0
 10
31.525
 11
31.342
 20
6.659
 21
6.831
  0
LINE
  8
0
 10
31.342
 11
31.182
 20
6.831
 21
7.024
  0
LINE
  8
0
 10
31.182
 11
31.047
 20
7.024
 21
7.236
  0
LINE
  8
0
 10
31.047
 11
30.94
 20
7.236
 21
7.464
  0
LINE
  8
0
 10
30.94
 11
30.863
 20
7.464
 21
7.703
  0
LINE
  8
0
 10
30.863
 11
30.816
 20
7.703
 21
7.949
  0
LINE
  8
0
 10
30.816
 11
30.8
 20
7.949
 21
8.2
  0
LINE
  8
0
 10
30.8
 11
30.816
 20
16.4
 21
16.651
  0
LINE
  8
0
 10
30.816
 11
30.863
 20
16.651
 21
16.897
  0
LINE
  8
0
 10
30.863
 11
30.94
 20
16.897
 21
17.136
  0
LINE
  8
0
 10
30.94
 11
31.047
 20
17.136
 21
17.364
  0
LINE
  8
0
 10
31.047
 11
31.182
 20
17.364
 21
17.576
  0
LINE
  8
0
 10
31.182
 11
31.342
 20
17.576
 21
17.769
  0
LINE
  8
0
 10
31.342
 11
31.525
 20
17.769
 21
17.941
  0
LINE
  8
0
 10
31.525
 11
31.728
 20
17.941
 21
18.089
  0
LINE
  8
0
 10
31.728
 11
31.948
 20
18.089
 21
18.21
  0
LINE
  8
0
 10
31.948
 11
32.182
 20
18.21
 21
18.302
  0
LINE
  8
0
 10
32.182
 11
32.425
 20
18.302
 21
18.365
  0
LINE
  8
0
 10
32.425
 11
32.674
 20
18.365
 21
18.396
  0
LINE
  8
0
 10
32.674
 11
32.926
 20
18.396
 21
18.396
  0
LINE
  8
0
 10
32.926
 11
33.175
 20
18.396
 21
18.365
  0
LINE
  8
0
 10
33.175
 11
33.418
 20
18.365
 21
18.302
  0
LINE
  8
0
 10
33.418
 11
33.652
 20
18.302
 21
18.21
  0
LINE
  8
0
 10
33.652
 11
33.872
 20
18.21
 21
18.089
  0
LINE
  8
0
 10
33.872
 11
34.075
 20
18.089
 21
17.941
  0
LINE
  8
0
 10
34.075
 11
34.258
 20
17.941
 21
17.769
  0
LINE
  8
0
 10
34.258
 11
34.418
 20
17.769
 21
17.576
  0
LINE
  8
0
 10
34.418
 11
34.553
 20
17.576
 21
17.364
  0
LINE
  8
0
 10
34.553
 11
34.66
 20
17.364
 21
17.136
  0
LINE
  8
0
 10
34.66
 11
34.737
 20
17.136
 21
16.897
  0
LINE
  8
0
 10
34.737
 11
34.784
 20
16.897
 21
16.651
  0
LINE
  8
0
 10
34.784
 11
34.8
 20
16.651
 21
16.4
  0
LINE
  8
0
 10
34.8
 11
34.784
 20
16.4
 21
16.149
  0
LINE
  8
0
 10
34.784
 11
34.737
 20
16.149
 21
15.903
  0
LINE
  8
0
 10
34.737
 11
34.66
 20
15.903
 21
15.664
  0
LINE
  8
0
 10
34.66
 11
34.553
 20
15.664
 21
15.436
  0
LINE
  8
0
 10
34.553
 11
34.418
 20
15.436
 21
15.224
  0
LINE
  8
0
 10
34.418
 11
34.258
 20
15.224
 21
15.031
  0
LINE
  8
0
 10
34.258
 11
34.075
 20
15.031
 21
14.859
  0
LINE
  8
0
 10
34.075
 11
33.872
 20
14.859
 21
14.711
  0
LINE
  8
0
 10
33.872
 11
33.652
 20
14.711
 21
14.59
  0
LINE
  8
0
 10
33.652
 11
33.418
 20
14.59
 21
14.498
  0
LINE
  8
0
 10
33.418
 11
33.175
 20
14.498
 21
14.435
  0
LINE
  8
0
 10
33.175
 11
32.926
 20
14.435
 21
14.404
  0
LINE
  8
0
 10
32.926
 11
32.674
 20
14.404
 21
14.404
  0
LINE
  8
0
 10
32.674
 11
32.425
 20
14.404
 21
14.435
  0
LINE
  8
0
 10
32.425
 11
32.182
 20
14.435
 21
14.498
  0
LINE
  8
0
 10
32.182
 11
31.948
 20
14.498
 21
14.59
  0
LINE
  8
0
 10
31.948
 11
31.728
 20
14.59
 21
14.711
  0
LINE
  8
0
 10
31.728
 11
31.525
 20
14.711
 21
14.859
  0
LINE
  8
0
 10
31.525
 11
31.342
 20
14.859
 21
15.031
  0
LINE
  8
0
 10
31.342
 11
31.182
 20
15.031
 21
15.224
  0
LINE
  8
0
 10
31.182
 11
31.047
 20
15.224
 21
15.436
  0
LINE
  8
0
 10
31.047
 11
30.94
 20
15.436
 21
15.664
  0
LINE
  8
0
 10
30.94
 11
30.863
 20
15.664
 21
15.903
  0
LINE
  8
0
 10
30.863
 11
30.816
 20
15.903
 21
16.149
  0
LINE
  8
0
 10
30.816
 11
30.8
 20
16.149
 21
16.4
  0
LINE
  8
0
 10
30.8
 11
30.816
 20
24.6
 21
24.851
  0
LINE
  8
0
 10
30.816
 11
30.863
 20
24.851
 21
25.097
  0
LINE
  8
0
 10
30.863
 11
30.94
 20
25.097
 21
25.336
  0
LINE
  8
0
 10
30.94
 11
31.047
 20
25.336
 21
25.564
  0
LINE
  8
0
 10
31.047
 11
31.182
 20
25.564
 21
25.776
  0
LINE
  8
0
 10
31.182
 11
31.342
 20
25.776
 21
25.969
  0
LINE
  8
0
 10
31.342
 11
31.525
 20
25.969
 21
26.141
  0
LINE
  8
0
 10
31.525
 11
31.728
 20
26.141
 21
26.289
  0
LINE
  8
0
 10
31.728
 11
31.948
 20
26.289
 21
26.41
  0
LINE
  8
0
 10
31.948
 11
32.182
 20
26.41
 21
26.502
  0
LINE
  8
0
 10
32.182
 11
32.425
 20
26.502
 21
26.565
  0
LINE
  8
0
 10
32.425
 11
32.674
 20
26.565
 21
26.596
  0
LINE
  8
0
 10
32.674
 11
32.926
 20
26.596
 21
26.596
  0
LINE
  8
0
 10
32.926
 11
33.175
 20
26.596
 21
26.565
  0
LINE
  8
0
 10
33.175
 11
33.418
 20
26.565
 21
26.502
  0
LINE
  8
0
 10
33.418
 11
33.652
 20
26.502
 21
26.41
  0
LINE
  8
0
 10
33.652
 11
33.872
 20
26.41
 21
26.289
  0
LINE
  8
0
 10
33.872
 11
34.075
 20
26.289
 21
26.141
  0
LINE
  8
0
 10
34.075
 11
34.258
 20
26.141
 21
25.969
  0
LINE
  8
0
 10
34.258
 11
34.418
 20
25.969
 21
25.776
  0
LINE
  8
0
 10
34.418
 11
34.553
 20
25.776
 21
25.564
  0
LINE
  8
0
 10
34.553
 11
34.66
 20
25.564
 21
25.336
  0
LINE
  8
0
 10
34.66
 11
34.737
 20
25.336
 21
25.097
  0
LINE
  8
0
 10
34.737
 11
34.784
 20
25.097
 21
24.851
  0
LINE
  8
0
 10
34.784
 11
34.8
 20
24.851
 21
24.6
  0
LINE
  8
0
 10
34.8
 11
34.784
 20
24.6
 21
24.349
  0
LINE
  8
0
 10
34.784
 11
34.737
 20
24.349
 21
24.103
  0
LINE
  8
0
 10
34.737
 11
34.66
 20
24.103
 21
23.864
  0
LINE
  8
0
 10
34.66
 11
34.553
 20
23.864
 21
23.636
  0
LINE
  8
0
 10
34.553
 11
34.418
 20
23.636
 21
23.424
  0
LINE
  8
0
 10
34.418
 11
34.258
 20
23.424
 21
23.231
  0
LINE
  8
0
 10
34.258
 11
34.075
 20
23.231
 21
23.059
  0
LINE
  8
0
 10
34.075
 11
33.872
 20
23.059
 21
22.911
  0
LINE
  8
0
 10
33.872
 11
33.652
 20
22.911
 21
22.79
  0
LINE
  8
0
 10
33.652
 11
33.418
 20
22.79
 21
22.698
  0
LINE
  8
0
 10
33.418
 11
33.175
 20
22.698
 21
22.635
  0
LINE
  8
0
 10
33.175
 11
32.926
 20
22.635
 21
22.604
  0
LINE
  8
0
 10
32.926
 11
32.674
 20
22.604
 21
22.604
  0
LINE
  8
0
 10
32.674
 11
32.425
 20
22.604
 21
22.635
  0
LINE
  8
0
 10
32.425
 11
32.182
 20
22.635
 21
22.698
  0
LINE
  8
0
 10
32.182
 11
31.948
 20
22.698
 21
22.79
  0
LINE
  8
0
 10
31.948
 11
31.728
 20
22.79
 21
22.911
  0
LINE
  8
0
 10
31.728
 11
31.525
 20
22.911
 21
23.059
  0
LINE
  8
0
 10
31.525
 11
31.342
 20
23.059
 21
23.231
  0
LINE
  8
0
 10
31.342
 11
31.182
 20
23.231
 21
23.424
  0
LINE
  8
0
 10
31.182
 11
31.047
 20
23.424
 21
23.636
  0
LINE
  8
0
 10
31.047
 11
30.94
 20
23.636
 21
23.864
  0
LINE
  8
0
 10
30.94
 11
30.863
 20
23.864
 21
24.103
  0
LINE
  8
0
 10
30.863
 11
30.816
 20
24.103
 21
24.349
  0
LINE
  8
0
 10
30.816
 11
30.8
 20
24.349
 21
24.6
  0
LINE
  8
0
 10
30.8
 11
30.816
 20
32.8
 21
33.051
  0
LINE
  8
0
 10
30.816
 11
30.863
 20
33.051
 21
33.297
  0
LINE
  8
0
 10
30.863
 11
30.94
 20
33.297
 21
33.536
  0
LINE
  8
0
 10
30.94
 11
31.047
 20
33.536
 21
33.764
  0
LINE
  8
0
 10
31.047
 11
31.182
 20
33.764
 21
33.976
  0
LINE
  8
0
 10
31.182
 11
31.342
 20
33.976
 21
34.169
  0
LINE
  8
0
 10
31.342
 11
31.525
 20
34.169
 21
34.341
  0
LINE
  8
0
 10
31.525
 11
31.728
 20
34.341
 21
34.489
  0
LINE
  8
0
 10
31.728
 11
31.948
 20
34.489
 21
34.61
  0
LINE
  8
0
 10
31.948
 11
32.182
 20
34.61
 21
34.702
  0
LINE
  8
0
 10
32.182
 11
32.425
 20
34.702
 21
34.765
  0
LINE
  8
0
 10
32.425
 11
32.674
 20
34.765
 21
34.796
  0
LINE
  8
0
 10
32.674
 11
32.926
 20
34.796
 21
34.796
  0
LINE
  8
0
 10
32.926
 11
33.175
 20
34.796
 21
34.765
  0
LINE
  8
0
 10
33.175
 11
33.418
 20
34.765
 21
34.702
  0
LINE
  8
0
 10
33.418
 11
33.652
 20
34.702
 21
34.61
  0
LINE
  8
0
 10
33.652
 11
33.872
 20
34.61
 21
34.489
  0
LINE
  8
0
 10
33.872
 11
34.075
 20
34.489
 21
34.341
  0
LINE
  8
0
 10
34.075
 11
34.258
 20
34.341
 21
34.169
  0
LINE
  8
0
 10
34.258
 11
34.418
 20
34.169
 21
33.976
  0
LINE
  8
0
 10
34.418
 11
34.553
 20
33.976
 21
33.764
  0
LINE
  8
0
 10
34.553
 11
34.66
 20
33.764
 21
33.536
  0
LINE
  8
0
 10
34.66
 11
34.737
 20
33.536
 21
33.297
  0
LINE
  8
0
 10
34.737
 11
34.784
 20
33.297
 21
33.051
  0
LINE
  8
0
 10
34.784
 11
34.8
 20
33.051
 21
32.8
  0
LINE
  8
0
 10
34.8
 11
34.784
 20
32.8
 21
32.549
  0
LINE
  8
0
 10
34.784
 11
34.737
 20
32.549
 21
32.303
  0
LINE
  8
0
 10
34.737
 11
34.66
 20
32.303
 21
32.064
  0
LINE
  8
0
 10
34.66
 11
34.553
 20
32.064
 21
31.836
  0
LINE
  8
0
 10
34.553
 11
34.418
 20
31.836
 21
31.624
  0
LINE
  8
0
 10
34.418
 11
34.258
 20
31.624
 21
31.431
  0
LINE
  8
0
 10
34.258
 11
34.075
 20
31.431
 21
31.259
  0
LINE
  8
0
 10
34.075
 11
33.872
 20
31.259
 21
31.111
  0
LINE
  8
0
 10
33.872
 11
33.652
 20
31.111
 21
30.99
  0
LINE
  8
0
 10
33.652
 11
33.418
 20
30.99
 21
30.898
  0
LINE
  8
0
 10
33.418
 11
33.175
 20
30.898
 21
30.835
  0
LINE
  8
0
 10
33.175
 11
32.926
 20
30.835
 21
30.804
  0
LINE
  8
0
 10
32.926
 11
32.674
 20
30.804
 21
30.804
  0
LINE
  8
0
 10
32.674
 11
32.425
 20
30.804
 21
30.835
  0
LINE
  8
0
 10
32.425
 11
32.182
 20
30.835
 21
30.898
  0
LINE
  8
0
 10
32.182
 11
31.948
 20
30.898
 21
30.99
  0
LINE
  8
0
 10
31.948
 11
31.728
 20
30.99
 21
31.111
  0
LINE
  8
0
 10
31.728
 11
31.525
 20
31.111
 21
31.259
  0
LINE
  8
0
 10
31.525
 11
31.342
 20
31.259
 21
31.431
  0
LINE
  8
0
 10
31.342
 11
31.182
 20
31.431
 21
31.624
  0
LINE
  8
0
 10
31.182
 11
31.047
 20
31.624
 21
31.836
  0
LINE
  8
0
 10
31.047
 11
30.94
 20
31.836
 21
32.064
  0
LINE
  8
0
 10
30.94
 11
30.863
 20
32.064
 21
32.303
  0
LINE
  8
0
 10
30.863
 11
30.816
 20
32.303
 21
32.549
  0
LINE
  8
0
 10
30.816
 11
30.8
 20
32.549
 21
32.8
  0
LINE
  8
0
 10
30.8
 11
30.816
 20
41
 21
41.251
  0
LINE
  8
0
 10
30.816
 11
30.863
 20
41.251
 21
41.497
  0
LINE
  8
0
 10
30.863
 11
30.94
 20
41.497
 21
41.736
  0
LINE
  8
0
 10
30.94
 11
31.047
 20
41.736
 21
41.964
  0
LINE
  8
0
 10
31.047
 11
31.182
 20
41.964
 21
42.176
  0
LINE
  8
0
 10
31.182
 11
31.342
 20
42.176
 21
42.369
  0
LINE
  8
0
 10
31.342
 11
31.525
 20
42.369
 21
42.541
  0
LINE
  8
0
 10
31.525
 11
31.728
 20
42.541
 21
42.689
  0
LINE
  8
0
 10
31.728
 11
31.948
 20
42.689
 21
42.81
  0
LINE
  8
0
 10
31.948
 11
32.182
 20
42.81
 21
42.902
  0
LINE
  8
0
 10
32.182
 11
32.425
 20
42.902
 21
42.965
  0
LINE
  8
0
 10
32.425
 11
32.674
 20
42.965
 21
42.996
  0
LINE
  8
0
 10
32.674
 11
32.926
 20
42.996
 21
42.996
  0
LINE
  8
0
 10
32.926
 11
33.175
 20
42.996
 21
42.965
  0
LINE
  8
0
 10
33.175
 11
33.418
 20
42.965
 21
42.902
  0
LINE
  8
0
 10
33.418
 11
33.652
 20
42.902
 21
42.81
  0
LINE
  8
0
 10
33.652
 11
33.872
 20
42.81
 21
42.689
  0
LINE
  8
0
 10
33.872
 11
34.075
 20
42.689
 21
42.541
  0
LINE
  8
0
 10
34.075
 11
34.258
 20
42.541
 21
42.369
  0
LINE
  8
0
 10
34.258
 11
34.418
 20
42.369
 21
42.176
  0
LINE
  8
0
 10
34.418
 11
34.553
 20
42.176
 21
41.964
  0
LINE
  8
0
 10
34.553
 11
34.66
 20
41.964
 21
41.736
  0
LINE
  8
0
 10
34.66
 11
34.737
 20
41.736
 21
41.497
  0
LINE
  8
0
 10
34.737
 11
34.784
 20
41.497
 21
41.251
  0
LINE
  8
0
 10
34.784
 11
34.8
 20
41.251
 21
41
  0
LINE
  8
0
 10
34.8
 11
34.784
 20
41
 21
40.749
  0
LINE
  8
0
 10
34.784
 11
34.737
 20
40.749
 21
40.503
  0
LINE
  8
0
 10
34.737
 11
34.66
 20
40.503
 21
40.264
  0
LINE
  8
0
 10
34.66
 11
34.553
 20
40.264
 21
40.036
  0
LINE
  8
0
 10
34.553
 11
34.418
 20
40.036
 21
39.824
  0
LINE
  8
0
 10
34.418
 11
34.258
 20
39.824
 21
39.631
  0
LINE
  8
0
 10
34.258
 11
34.075
 20
39.631
 21
39.459
  0
LINE
  8
0
 10
34.075
 11
33.872
 20
39.459
 21
39.311
  0
LINE
  8
0
 10
33.872
 11
33.652
 20
39.311
 21
39.19
  0
LINE
  8
0
 10
33.652
 11
33.418
 20
39.19
 21
39.098
  0
LINE
  8
0
 10
33.418
 11
33.175
 20
39.098
 21
39.035
  0
LINE
  8
0
 10
33.175
 11
32.926
 20
39.035
 21
39.004
  0
LINE
  8
0
 10
32.926
 11
32.674
 20
39.004
 21
39.004
  0
LINE
  8
0
 10
32.674
 11
32.425
 20
39.004
 21
39.035
  0
LINE
  8
0
 10
32.425
 11
32.182
 20
39.035
 21
39.098
  0
LINE
  8
0
 10
32.182
 11
31.948
 20
39.098
 21
39.19
  0
LINE
  8
0
 10
31.948
 11
31.728
 20
39.19
 21
39.311
  0
LINE
  8
0
 10
31.728
 11
31.525
 20
39.311
 21
39.459
  0
LINE
  8
0
 10
31.525
 11
31.342
 20
39.459
 21
39.631
  0
LINE
  8
0
 10
31.342
 11
31.182
 20
39.631
 21
39.824
  0
LINE
  8
0
 10
31.182
 11
31.047
 20
39.824
 21
40.036
  0
LINE
  8
0
 10
31.047
 11
30.94
 20
40.036
 21
40.264
  0
LINE
  8
0
 10
30.94
 11
30.863
 20
40.264
 21
40.503
  0
LINE
  8
0
 10
30.863
 11
30.816
 20
40.503
 21
40.749
  0
LINE
  8
0
 10
30.816
 11
30.8
 20
40.749
 21
41
  0
ENDSEC
  0
SECTION
  2
OBJECTS
  0
DICTIONARY
  0
ENDSEC
  0
EOF
