  0
SECTION
  2
BLOCKS
  0
ENDSEC
  0
SECTION
  2
ENTITIES
  0
LINE
  8
0
 10
-12.5
 11
-12.5
 20
-16.9
 21
-7.5
  0
LINE
  8
0
 10
-12.5
 11
-7.5
 20
-7.5
 21
-7.5
  0
LINE
  8
0
 10
-7.5
 11
-7.5
 20
-7.5
 21
-2.5
  0
LINE
  8
0
 10
-7.5
 11
-12.5
 20
-2.5
 21
-2.5
  0
LINE
  8
0
 10
-12.5
 11
-12.5
 20
-2.5
 21
2.5
  0
LINE
  8
0
 10
-12.5
 11
-7.5
 20
2.5
 21
2.5
  0
LINE
  8
0
 10
-7.5
 11
-7.5
 20
2.5
 21
7.5
  0
LINE
  8
0
 10
-7.5
 11
-12.5
 20
7.5
 21
7.5
  0
LINE
  8
0
 10
-12.5
 11
-12.5
 20
7.5
 21
16.9
  0
LINE
  8
0
 10
-12.5
 11
-7.5
 20
16.9
 21
16.9
  0
LINE
  8
0
 10
-7.5
 11
-7.5
 20
16.9
 21
11.9
  0
LINE
  8
0
 10
-7.5
 11
-1.4
 20
11.9
 21
11.9
  0
LINE
  8
0
 10
-1.4
 11
-1.4
 20
11.9
 21
9.825
  0
LINE
  8
0
 10
-1.4
 11
-2.65
 20
9.825
 21
9.825
  0
LINE
  8
0
 10
-2.65
 11
-2.65
 20
9.825
 21
8.175
  0
LINE
  8
0
 10
-2.65
 11
-1.4
 20
8.175
 21
8.175
  0
LINE
  8
0
 10
-1.4
 11
-1.4
 20
8.175
 21
6
  0
LINE
  8
0
 10
-1.4
 11
1.4
 20
6
 21
6
  0
LINE
  8
0
 10
1.4
 11
1.4
 20
6
 21
8.175
  0
LINE
  8
0
 10
1.4
 11
2.65
 20
8.175
 21
8.175
  0
LINE
  8
0
 10
2.65
 11
2.65
 20
8.175
 21
9.825
  0
LINE
  8
0
 10
2.65
 11
1.4
 20
9.825
 21
9.825
  0
LINE
  8
0
 10
1.4
 11
1.4
 20
9.825
 21
11.9
  0
LINE
  8
0
 10
1.4
 11
7.5
 20
11.9
 21
11.9
  0
LINE
  8
0
 10
7.5
 11
7.5
 20
11.9
 21
16.9
  0
LINE
  8
0
 10
7.5
 11
12.5
 20
16.9
 21
16.9
  0
LINE
  8
0
 10
12.5
 11
12.5
 20
16.9
 21
7.5
  0
LINE
  8
0
 10
12.5
 11
7.5
 20
7.5
 21
7.5
  0
LINE
  8
0
 10
7.5
 11
7.5
 20
7.5
 21
2.5
  0
LINE
  8
0
 10
7.5
 11
12.5
 20
2.5
 21
2.5
  0
LINE
  8
0
 10
12.5
 11
12.5
 20
2.5
 21
-2.5
  0
LINE
  8
0
 10
12.5
 11
7.5
 20
-2.5
 21
-2.5
  0
LINE
  8
0
 10
7.5
 11
7.5
 20
-2.5
 21
-7.5
  0
LINE
  8
0
 10
7.5
 11
12.5
 20
-7.5
 21
-7.5
  0
LINE
  8
0
 10
12.5
 11
12.5
 20
-7.5
 21
-16.9
  0
LINE
  8
0
 10
12.5
 11
7.5
 20
-16.9
 21
-16.9
  0
LINE
  8
0
 10
7.5
 11
7.5
 20
-16.9
 21
-11.9
  0
LINE
  8
0
 10
7.5
 11
1.4
 20
-11.9
 21
-11.9
  0
LINE
  8
0
 10
1.4
 11
1.4
 20
-11.9
 21
-9.825
  0
LINE
  8
0
 10
1.4
 11
2.65
 20
-9.825
 21
-9.825
  0
LINE
  8
0
 10
2.65
 11
2.65
 20
-9.825
 21
-8.175
  0
LINE
  8
0
 10
2.65
 11
1.4
 20
-8.175
 21
-8.175
  0
LINE
  8
0
 10
1.4
 11
1.4
 20
-8.175
 21
-6
  0
LINE
  8
0
 10
1.4
 11
-1.4
 20
-6
 21
-6
  0
LINE
  8
0
 10
-1.4
 11
-1.4
 20
-6
 21
-8.175
  0
LINE
  8
0
 10
-1.4
 11
-2.65
 20
-8.175
 21
-8.175
  0
LINE
  8
0
 10
-2.65
 11
-2.65
 20
-8.175
 21
-9.825
  0
LINE
  8
0
 10
-2.65
 11
-1.4
 20
-9.825
 21
-9.825
  0
LINE
  8
0
 10
-1.4
 11
-1.4
 20
-9.825
 21
-11.9
  0
LINE
  8
0
 10
-1.4
 11
-7.5
 20
-11.9
 21
-11.9
  0
LINE
  8
0
 10
-7.5
 11
-7.5
 20
-11.9
 21
-16.9
  0
LINE
  8
0
 10
-7.5
 11
-12.5
 20
-16.9
 21
-16.9
  0
ENDSEC
  0
SECTION
  2
OBJECTS
  0
DICTIONARY
  0
ENDSEC
  0
EOF
