  0
SECTION
  2
BLOCKS
  0
ENDSEC
  0
SECTION
  2
ENTITIES
  0
LINE
  8
0
 10
-15.5
 11
-15.5
 20
-17.5
 21
17.5
  0
LINE
  8
0
 10
-15.5
 11
15.5
 20
17.5
 21
17.5
  0
LINE
  8
0
 10
15.5
 11
15.5
 20
17.5
 21
-17.5
  0
LINE
  8
0
 10
15.5
 11
-15.5
 20
-17.5
 21
-17.5
  0
LINE
  8
0
 10
-12.5
 11
-12.5
 20
-15
 21
-10
  0
LINE
  8
0
 10
-12.5
 11
-7.5
 20
-10
 21
-10
  0
LINE
  8
0
 10
-7.5
 11
-7.5
 20
-10
 21
-15
  0
LINE
  8
0
 10
-7.5
 11
-12.5
 20
-15
 21
-15
  0
LINE
  8
0
 10
-12.5
 11
-12.5
 20
10
 21
15
  0
LINE
  8
0
 10
-12.5
 11
-7.5
 20
15
 21
15
  0
LINE
  8
0
 10
-7.5
 11
-7.5
 20
15
 21
10
  0
LINE
  8
0
 10
-7.5
 11
-12.5
 20
10
 21
10
  0
LINE
  8
0
 10
-4.2
 11
-4.167
 20
0
 21
0.526
  0
LINE
  8
0
 10
-4.167
 11
-4.068
 20
0.526
 21
1.044
  0
LINE
  8
0
 10
-4.068
 11
-3.905
 20
1.044
 21
1.546
  0
LINE
  8
0
 10
-3.905
 11
-3.68
 20
1.546
 21
2.023
  0
LINE
  8
0
 10
-3.68
 11
-3.398
 20
2.023
 21
2.469
  0
LINE
  8
0
 10
-3.398
 11
-3.062
 20
2.469
 21
2.875
  0
LINE
  8
0
 10
-3.062
 11
-2.677
 20
2.875
 21
3.236
  0
LINE
  8
0
 10
-2.677
 11
-2.25
 20
3.236
 21
3.546
  0
LINE
  8
0
 10
-2.25
 11
-1.788
 20
3.546
 21
3.8
  0
LINE
  8
0
 10
-1.788
 11
-1.298
 20
3.8
 21
3.994
  0
LINE
  8
0
 10
-1.298
 11
-0.787
 20
3.994
 21
4.126
  0
LINE
  8
0
 10
-0.787
 11
-0.264
 20
4.126
 21
4.192
  0
LINE
  8
0
 10
-0.264
 11
0.264
 20
4.192
 21
4.192
  0
LINE
  8
0
 10
0.264
 11
0.787
 20
4.192
 21
4.126
  0
LINE
  8
0
 10
0.787
 11
1.298
 20
4.126
 21
3.994
  0
LINE
  8
0
 10
1.298
 11
1.788
 20
3.994
 21
3.8
  0
LINE
  8
0
 10
1.788
 11
2.25
 20
3.8
 21
3.546
  0
LINE
  8
0
 10
2.25
 11
2.677
 20
3.546
 21
3.236
  0
LINE
  8
0
 10
2.677
 11
3.062
 20
3.236
 21
2.875
  0
LINE
  8
0
 10
3.062
 11
3.398
 20
2.875
 21
2.469
  0
LINE
  8
0
 10
3.398
 11
3.68
 20
2.469
 21
2.023
  0
LINE
  8
0
 10
3.68
 11
3.905
 20
2.023
 21
1.546
  0
LINE
  8
0
 10
3.905
 11
4.068
 20
1.546
 21
1.044
  0
LINE
  8
0
 10
4.068
 11
4.167
 20
1.044
 21
0.526
  0
LINE
  8
0
 10
4.167
 11
4.2
 20
0.526
 21
0
  0
LINE
  8
0
 10
4.2
 11
4.167
 20
0
 21
-0.526
  0
LINE
  8
0
 10
4.167
 11
4.068
 20
-0.526
 21
-1.044
  0
LINE
  8
0
 10
4.068
 11
3.905
 20
-1.044
 21
-1.546
  0
LINE
  8
0
 10
3.905
 11
3.68
 20
-1.546
 21
-2.023
  0
LINE
  8
0
 10
3.68
 11
3.398
 20
-2.023
 21
-2.469
  0
LINE
  8
0
 10
3.398
 11
3.062
 20
-2.469
 21
-2.875
  0
LINE
  8
0
 10
3.062
 11
2.677
 20
-2.875
 21
-3.236
  0
LINE
  8
0
 10
2.677
 11
2.25
 20
-3.236
 21
-3.546
  0
LINE
  8
0
 10
2.25
 11
1.788
 20
-3.546
 21
-3.8
  0
LINE
  8
0
 10
1.788
 11
1.298
 20
-3.8
 21
-3.994
  0
LINE
  8
0
 10
1.298
 11
0.787
 20
-3.994
 21
-4.126
  0
LINE
  8
0
 10
0.787
 11
0.264
 20
-4.126
 21
-4.192
  0
LINE
  8
0
 10
0.264
 11
-0.264
 20
-4.192
 21
-4.192
  0
LINE
  8
0
 10
-0.264
 11
-0.787
 20
-4.192
 21
-4.126
  0
LINE
  8
0
 10
-0.787
 11
-1.298
 20
-4.126
 21
-3.994
  0
LINE
  8
0
 10
-1.298
 11
-1.788
 20
-3.994
 21
-3.8
  0
LINE
  8
0
 10
-1.788
 11
-2.25
 20
-3.8
 21
-3.546
  0
LINE
  8
0
 10
-2.25
 11
-2.677
 20
-3.546
 21
-3.236
  0
LINE
  8
0
 10
-2.677
 11
-3.062
 20
-3.236
 21
-2.875
  0
LINE
  8
0
 10
-3.062
 11
-3.398
 20
-2.875
 21
-2.469
  0
LINE
  8
0
 10
-3.398
 11
-3.68
 20
-2.469
 21
-2.023
  0
LINE
  8
0
 10
-3.68
 11
-3.905
 20
-2.023
 21
-1.546
  0
LINE
  8
0
 10
-3.905
 11
-4.068
 20
-1.546
 21
-1.044
  0
LINE
  8
0
 10
-4.068
 11
-4.167
 20
-1.044
 21
-0.526
  0
LINE
  8
0
 10
-4.167
 11
-4.2
 20
-0.526
 21
0
  0
LINE
  8
0
 10
-1.5
 11
-1.488
 20
-12.5
 21
-12.312
  0
LINE
  8
0
 10
-1.488
 11
-1.453
 20
-12.312
 21
-12.127
  0
LINE
  8
0
 10
-1.453
 11
-1.395
 20
-12.127
 21
-11.948
  0
LINE
  8
0
 10
-1.395
 11
-1.314
 20
-11.948
 21
-11.777
  0
LINE
  8
0
 10
-1.314
 11
-1.214
 20
-11.777
 21
-11.618
  0
LINE
  8
0
 10
-1.214
 11
-1.093
 20
-11.618
 21
-11.473
  0
LINE
  8
0
 10
-1.093
 11
-0.956
 20
-11.473
 21
-11.344
  0
LINE
  8
0
 10
-0.956
 11
-0.804
 20
-11.344
 21
-11.234
  0
LINE
  8
0
 10
-0.804
 11
-0.639
 20
-11.234
 21
-11.143
  0
LINE
  8
0
 10
-0.639
 11
-0.464
 20
-11.143
 21
-11.073
  0
LINE
  8
0
 10
-0.464
 11
-0.281
 20
-11.073
 21
-11.027
  0
LINE
  8
0
 10
-0.281
 11
-0.094
 20
-11.027
 21
-11.003
  0
LINE
  8
0
 10
-0.094
 11
0.094
 20
-11.003
 21
-11.003
  0
LINE
  8
0
 10
0.094
 11
0.281
 20
-11.003
 21
-11.027
  0
LINE
  8
0
 10
0.281
 11
0.464
 20
-11.027
 21
-11.073
  0
LINE
  8
0
 10
0.464
 11
0.639
 20
-11.073
 21
-11.143
  0
LINE
  8
0
 10
0.639
 11
0.804
 20
-11.143
 21
-11.234
  0
LINE
  8
0
 10
0.804
 11
0.956
 20
-11.234
 21
-11.344
  0
LINE
  8
0
 10
0.956
 11
1.093
 20
-11.344
 21
-11.473
  0
LINE
  8
0
 10
1.093
 11
1.214
 20
-11.473
 21
-11.618
  0
LINE
  8
0
 10
1.214
 11
1.314
 20
-11.618
 21
-11.777
  0
LINE
  8
0
 10
1.314
 11
1.395
 20
-11.777
 21
-11.948
  0
LINE
  8
0
 10
1.395
 11
1.453
 20
-11.948
 21
-12.127
  0
LINE
  8
0
 10
1.453
 11
1.488
 20
-12.127
 21
-12.312
  0
LINE
  8
0
 10
1.488
 11
1.5
 20
-12.312
 21
-12.5
  0
LINE
  8
0
 10
1.5
 11
1.488
 20
-12.5
 21
-12.688
  0
LINE
  8
0
 10
1.488
 11
1.453
 20
-12.688
 21
-12.873
  0
LINE
  8
0
 10
1.453
 11
1.395
 20
-12.873
 21
-13.052
  0
LINE
  8
0
 10
1.395
 11
1.314
 20
-13.052
 21
-13.223
  0
LINE
  8
0
 10
1.314
 11
1.214
 20
-13.223
 21
-13.382
  0
LINE
  8
0
 10
1.214
 11
1.093
 20
-13.382
 21
-13.527
  0
LINE
  8
0
 10
1.093
 11
0.956
 20
-13.527
 21
-13.656
  0
LINE
  8
0
 10
0.956
 11
0.804
 20
-13.656
 21
-13.766
  0
LINE
  8
0
 10
0.804
 11
0.639
 20
-13.766
 21
-13.857
  0
LINE
  8
0
 10
0.639
 11
0.464
 20
-13.857
 21
-13.927
  0
LINE
  8
0
 10
0.464
 11
0.281
 20
-13.927
 21
-13.973
  0
LINE
  8
0
 10
0.281
 11
0.094
 20
-13.973
 21
-13.997
  0
LINE
  8
0
 10
0.094
 11
-0.094
 20
-13.997
 21
-13.997
  0
LINE
  8
0
 10
-0.094
 11
-0.281
 20
-13.997
 21
-13.973
  0
LINE
  8
0
 10
-0.281
 11
-0.464
 20
-13.973
 21
-13.927
  0
LINE
  8
0
 10
-0.464
 11
-0.639
 20
-13.927
 21
-13.857
  0
LINE
  8
0
 10
-0.639
 11
-0.804
 20
-13.857
 21
-13.766
  0
LINE
  8
0
 10
-0.804
 11
-0.956
 20
-13.766
 21
-13.656
  0
LINE
  8
0
 10
-0.956
 11
-1.093
 20
-13.656
 21
-13.527
  0
LINE
  8
0
 10
-1.093
 11
-1.214
 20
-13.527
 21
-13.382
  0
LINE
  8
0
 10
-1.214
 11
-1.314
 20
-13.382
 21
-13.223
  0
LINE
  8
0
 10
-1.314
 11
-1.395
 20
-13.223
 21
-13.052
  0
LINE
  8
0
 10
-1.395
 11
-1.453
 20
-13.052
 21
-12.873
  0
LINE
  8
0
 10
-1.453
 11
-1.488
 20
-12.873
 21
-12.688
  0
LINE
  8
0
 10
-1.488
 11
-1.5
 20
-12.688
 21
-12.5
  0
LINE
  8
0
 10
-1.5
 11
-1.488
 20
12.5
 21
12.688
  0
LINE
  8
0
 10
-1.488
 11
-1.453
 20
12.688
 21
12.873
  0
LINE
  8
0
 10
-1.453
 11
-1.395
 20
12.873
 21
13.052
  0
LINE
  8
0
 10
-1.395
 11
-1.314
 20
13.052
 21
13.223
  0
LINE
  8
0
 10
-1.314
 11
-1.214
 20
13.223
 21
13.382
  0
LINE
  8
0
 10
-1.214
 11
-1.093
 20
13.382
 21
13.527
  0
LINE
  8
0
 10
-1.093
 11
-0.956
 20
13.527
 21
13.656
  0
LINE
  8
0
 10
-0.956
 11
-0.804
 20
13.656
 21
13.766
  0
LINE
  8
0
 10
-0.804
 11
-0.639
 20
13.766
 21
13.857
  0
LINE
  8
0
 10
-0.639
 11
-0.464
 20
13.857
 21
13.927
  0
LINE
  8
0
 10
-0.464
 11
-0.281
 20
13.927
 21
13.973
  0
LINE
  8
0
 10
-0.281
 11
-0.094
 20
13.973
 21
13.997
  0
LINE
  8
0
 10
-0.094
 11
0.094
 20
13.997
 21
13.997
  0
LINE
  8
0
 10
0.094
 11
0.281
 20
13.997
 21
13.973
  0
LINE
  8
0
 10
0.281
 11
0.464
 20
13.973
 21
13.927
  0
LINE
  8
0
 10
0.464
 11
0.639
 20
13.927
 21
13.857
  0
LINE
  8
0
 10
0.639
 11
0.804
 20
13.857
 21
13.766
  0
LINE
  8
0
 10
0.804
 11
0.956
 20
13.766
 21
13.656
  0
LINE
  8
0
 10
0.956
 11
1.093
 20
13.656
 21
13.527
  0
LINE
  8
0
 10
1.093
 11
1.214
 20
13.527
 21
13.382
  0
LINE
  8
0
 10
1.214
 11
1.314
 20
13.382
 21
13.223
  0
LINE
  8
0
 10
1.314
 11
1.395
 20
13.223
 21
13.052
  0
LINE
  8
0
 10
1.395
 11
1.453
 20
13.052
 21
12.873
  0
LINE
  8
0
 10
1.453
 11
1.488
 20
12.873
 21
12.688
  0
LINE
  8
0
 10
1.488
 11
1.5
 20
12.688
 21
12.5
  0
LINE
  8
0
 10
1.5
 11
1.488
 20
12.5
 21
12.312
  0
LINE
  8
0
 10
1.488
 11
1.453
 20
12.312
 21
12.127
  0
LINE
  8
0
 10
1.453
 11
1.395
 20
12.127
 21
11.948
  0
LINE
  8
0
 10
1.395
 11
1.314
 20
11.948
 21
11.777
  0
LINE
  8
0
 10
1.314
 11
1.214
 20
11.777
 21
11.618
  0
LINE
  8
0
 10
1.214
 11
1.093
 20
11.618
 21
11.473
  0
LINE
  8
0
 10
1.093
 11
0.956
 20
11.473
 21
11.344
  0
LINE
  8
0
 10
0.956
 11
0.804
 20
11.344
 21
11.234
  0
LINE
  8
0
 10
0.804
 11
0.639
 20
11.234
 21
11.143
  0
LINE
  8
0
 10
0.639
 11
0.464
 20
11.143
 21
11.073
  0
LINE
  8
0
 10
0.464
 11
0.281
 20
11.073
 21
11.027
  0
LINE
  8
0
 10
0.281
 11
0.094
 20
11.027
 21
11.003
  0
LINE
  8
0
 10
0.094
 11
-0.094
 20
11.003
 21
11.003
  0
LINE
  8
0
 10
-0.094
 11
-0.281
 20
11.003
 21
11.027
  0
LINE
  8
0
 10
-0.281
 11
-0.464
 20
11.027
 21
11.073
  0
LINE
  8
0
 10
-0.464
 11
-0.639
 20
11.073
 21
11.143
  0
LINE
  8
0
 10
-0.639
 11
-0.804
 20
11.143
 21
11.234
  0
LINE
  8
0
 10
-0.804
 11
-0.956
 20
11.234
 21
11.344
  0
LINE
  8
0
 10
-0.956
 11
-1.093
 20
11.344
 21
11.473
  0
LINE
  8
0
 10
-1.093
 11
-1.214
 20
11.473
 21
11.618
  0
LINE
  8
0
 10
-1.214
 11
-1.314
 20
11.618
 21
11.777
  0
LINE
  8
0
 10
-1.314
 11
-1.395
 20
11.777
 21
11.948
  0
LINE
  8
0
 10
-1.395
 11
-1.453
 20
11.948
 21
12.127
  0
LINE
  8
0
 10
-1.453
 11
-1.488
 20
12.127
 21
12.312
  0
LINE
  8
0
 10
-1.488
 11
-1.5
 20
12.312
 21
12.5
  0
LINE
  8
0
 10
7.5
 11
7.5
 20
-15
 21
-10
  0
LINE
  8
0
 10
7.5
 11
12.5
 20
-10
 21
-10
  0
LINE
  8
0
 10
12.5
 11
12.5
 20
-10
 21
-15
  0
LINE
  8
0
 10
12.5
 11
7.5
 20
-15
 21
-15
  0
LINE
  8
0
 10
7.5
 11
7.5
 20
10
 21
15
  0
LINE
  8
0
 10
7.5
 11
12.5
 20
15
 21
15
  0
LINE
  8
0
 10
12.5
 11
12.5
 20
15
 21
10
  0
LINE
  8
0
 10
12.5
 11
7.5
 20
10
 21
10
  0
ENDSEC
  0
SECTION
  2
OBJECTS
  0
DICTIONARY
  0
ENDSEC
  0
EOF
