  0
SECTION
  2
BLOCKS
  0
ENDSEC
  0
SECTION
  2
ENTITIES
  0
LINE
  8
0
 10
-33.5
 11
-33.5
 20
-13.5
 21
13.5
  0
LINE
  8
0
 10
-33.5
 11
33.5
 20
13.5
 21
13.5
  0
LINE
  8
0
 10
33.5
 11
33.5
 20
13.5
 21
-13.5
  0
LINE
  8
0
 10
33.5
 11
-33.5
 20
-13.5
 21
-13.5
  0
LINE
  8
0
 10
-31.5
 11
-31.488
 20
-10
 21
-9.812
  0
LINE
  8
0
 10
-31.488
 11
-31.453
 20
-9.812
 21
-9.627
  0
LINE
  8
0
 10
-31.453
 11
-31.395
 20
-9.627
 21
-9.448
  0
LINE
  8
0
 10
-31.395
 11
-31.314
 20
-9.448
 21
-9.277
  0
LINE
  8
0
 10
-31.314
 11
-31.214
 20
-9.277
 21
-9.118
  0
LINE
  8
0
 10
-31.214
 11
-31.093
 20
-9.118
 21
-8.973
  0
LINE
  8
0
 10
-31.093
 11
-30.956
 20
-8.973
 21
-8.844
  0
LINE
  8
0
 10
-30.956
 11
-30.804
 20
-8.844
 21
-8.734
  0
LINE
  8
0
 10
-30.804
 11
-30.639
 20
-8.734
 21
-8.643
  0
LINE
  8
0
 10
-30.639
 11
-30.464
 20
-8.643
 21
-8.573
  0
LINE
  8
0
 10
-30.464
 11
-30.281
 20
-8.573
 21
-8.527
  0
LINE
  8
0
 10
-30.281
 11
-30.094
 20
-8.527
 21
-8.503
  0
LINE
  8
0
 10
-30.094
 11
-29.906
 20
-8.503
 21
-8.503
  0
LINE
  8
0
 10
-29.906
 11
-29.719
 20
-8.503
 21
-8.527
  0
LINE
  8
0
 10
-29.719
 11
-29.536
 20
-8.527
 21
-8.573
  0
LINE
  8
0
 10
-29.536
 11
-29.361
 20
-8.573
 21
-8.643
  0
LINE
  8
0
 10
-29.361
 11
-29.196
 20
-8.643
 21
-8.734
  0
LINE
  8
0
 10
-29.196
 11
-29.044
 20
-8.734
 21
-8.844
  0
LINE
  8
0
 10
-29.044
 11
-28.907
 20
-8.844
 21
-8.973
  0
LINE
  8
0
 10
-28.907
 11
-28.786
 20
-8.973
 21
-9.118
  0
LINE
  8
0
 10
-28.786
 11
-28.686
 20
-9.118
 21
-9.277
  0
LINE
  8
0
 10
-28.686
 11
-28.605
 20
-9.277
 21
-9.448
  0
LINE
  8
0
 10
-28.605
 11
-28.547
 20
-9.448
 21
-9.627
  0
LINE
  8
0
 10
-28.547
 11
-28.512
 20
-9.627
 21
-9.812
  0
LINE
  8
0
 10
-28.512
 11
-28.5
 20
-9.812
 21
-10
  0
LINE
  8
0
 10
-28.5
 11
-28.512
 20
-10
 21
-10.188
  0
LINE
  8
0
 10
-28.512
 11
-28.547
 20
-10.188
 21
-10.373
  0
LINE
  8
0
 10
-28.547
 11
-28.605
 20
-10.373
 21
-10.552
  0
LINE
  8
0
 10
-28.605
 11
-28.686
 20
-10.552
 21
-10.723
  0
LINE
  8
0
 10
-28.686
 11
-28.786
 20
-10.723
 21
-10.882
  0
LINE
  8
0
 10
-28.786
 11
-28.907
 20
-10.882
 21
-11.027
  0
LINE
  8
0
 10
-28.907
 11
-29.044
 20
-11.027
 21
-11.156
  0
LINE
  8
0
 10
-29.044
 11
-29.196
 20
-11.156
 21
-11.266
  0
LINE
  8
0
 10
-29.196
 11
-29.361
 20
-11.266
 21
-11.357
  0
LINE
  8
0
 10
-29.361
 11
-29.536
 20
-11.357
 21
-11.427
  0
LINE
  8
0
 10
-29.536
 11
-29.719
 20
-11.427
 21
-11.473
  0
LINE
  8
0
 10
-29.719
 11
-29.906
 20
-11.473
 21
-11.497
  0
LINE
  8
0
 10
-29.906
 11
-30.094
 20
-11.497
 21
-11.497
  0
LINE
  8
0
 10
-30.094
 11
-30.281
 20
-11.497
 21
-11.473
  0
LINE
  8
0
 10
-30.281
 11
-30.464
 20
-11.473
 21
-11.427
  0
LINE
  8
0
 10
-30.464
 11
-30.639
 20
-11.427
 21
-11.357
  0
LINE
  8
0
 10
-30.639
 11
-30.804
 20
-11.357
 21
-11.266
  0
LINE
  8
0
 10
-30.804
 11
-30.956
 20
-11.266
 21
-11.156
  0
LINE
  8
0
 10
-30.956
 11
-31.093
 20
-11.156
 21
-11.027
  0
LINE
  8
0
 10
-31.093
 11
-31.214
 20
-11.027
 21
-10.882
  0
LINE
  8
0
 10
-31.214
 11
-31.314
 20
-10.882
 21
-10.723
  0
LINE
  8
0
 10
-31.314
 11
-31.395
 20
-10.723
 21
-10.552
  0
LINE
  8
0
 10
-31.395
 11
-31.453
 20
-10.552
 21
-10.373
  0
LINE
  8
0
 10
-31.453
 11
-31.488
 20
-10.373
 21
-10.188
  0
LINE
  8
0
 10
-31.488
 11
-31.5
 20
-10.188
 21
-10
  0
LINE
  8
0
 10
-31.5
 11
-31.488
 20
0
 21
0.188
  0
LINE
  8
0
 10
-31.488
 11
-31.453
 20
0.188
 21
0.373
  0
LINE
  8
0
 10
-31.453
 11
-31.395
 20
0.373
 21
0.552
  0
LINE
  8
0
 10
-31.395
 11
-31.314
 20
0.552
 21
0.723
  0
LINE
  8
0
 10
-31.314
 11
-31.214
 20
0.723
 21
0.882
  0
LINE
  8
0
 10
-31.214
 11
-31.093
 20
0.882
 21
1.027
  0
LINE
  8
0
 10
-31.093
 11
-30.956
 20
1.027
 21
1.156
  0
LINE
  8
0
 10
-30.956
 11
-30.804
 20
1.156
 21
1.266
  0
LINE
  8
0
 10
-30.804
 11
-30.639
 20
1.266
 21
1.357
  0
LINE
  8
0
 10
-30.639
 11
-30.464
 20
1.357
 21
1.427
  0
LINE
  8
0
 10
-30.464
 11
-30.281
 20
1.427
 21
1.473
  0
LINE
  8
0
 10
-30.281
 11
-30.094
 20
1.473
 21
1.497
  0
LINE
  8
0
 10
-30.094
 11
-29.906
 20
1.497
 21
1.497
  0
LINE
  8
0
 10
-29.906
 11
-29.719
 20
1.497
 21
1.473
  0
LINE
  8
0
 10
-29.719
 11
-29.536
 20
1.473
 21
1.427
  0
LINE
  8
0
 10
-29.536
 11
-29.361
 20
1.427
 21
1.357
  0
LINE
  8
0
 10
-29.361
 11
-29.196
 20
1.357
 21
1.266
  0
LINE
  8
0
 10
-29.196
 11
-29.044
 20
1.266
 21
1.156
  0
LINE
  8
0
 10
-29.044
 11
-28.907
 20
1.156
 21
1.027
  0
LINE
  8
0
 10
-28.907
 11
-28.786
 20
1.027
 21
0.882
  0
LINE
  8
0
 10
-28.786
 11
-28.686
 20
0.882
 21
0.723
  0
LINE
  8
0
 10
-28.686
 11
-28.605
 20
0.723
 21
0.552
  0
LINE
  8
0
 10
-28.605
 11
-28.547
 20
0.552
 21
0.373
  0
LINE
  8
0
 10
-28.547
 11
-28.512
 20
0.373
 21
0.188
  0
LINE
  8
0
 10
-28.512
 11
-28.5
 20
0.188
 21
0
  0
LINE
  8
0
 10
-28.5
 11
-28.512
 20
0
 21
-0.188
  0
LINE
  8
0
 10
-28.512
 11
-28.547
 20
-0.188
 21
-0.373
  0
LINE
  8
0
 10
-28.547
 11
-28.605
 20
-0.373
 21
-0.552
  0
LINE
  8
0
 10
-28.605
 11
-28.686
 20
-0.552
 21
-0.723
  0
LINE
  8
0
 10
-28.686
 11
-28.786
 20
-0.723
 21
-0.882
  0
LINE
  8
0
 10
-28.786
 11
-28.907
 20
-0.882
 21
-1.027
  0
LINE
  8
0
 10
-28.907
 11
-29.044
 20
-1.027
 21
-1.156
  0
LINE
  8
0
 10
-29.044
 11
-29.196
 20
-1.156
 21
-1.266
  0
LINE
  8
0
 10
-29.196
 11
-29.361
 20
-1.266
 21
-1.357
  0
LINE
  8
0
 10
-29.361
 11
-29.536
 20
-1.357
 21
-1.427
  0
LINE
  8
0
 10
-29.536
 11
-29.719
 20
-1.427
 21
-1.473
  0
LINE
  8
0
 10
-29.719
 11
-29.906
 20
-1.473
 21
-1.497
  0
LINE
  8
0
 10
-29.906
 11
-30.094
 20
-1.497
 21
-1.497
  0
LINE
  8
0
 10
-30.094
 11
-30.281
 20
-1.497
 21
-1.473
  0
LINE
  8
0
 10
-30.281
 11
-30.464
 20
-1.473
 21
-1.427
  0
LINE
  8
0
 10
-30.464
 11
-30.639
 20
-1.427
 21
-1.357
  0
LINE
  8
0
 10
-30.639
 11
-30.804
 20
-1.357
 21
-1.266
  0
LINE
  8
0
 10
-30.804
 11
-30.956
 20
-1.266
 21
-1.156
  0
LINE
  8
0
 10
-30.956
 11
-31.093
 20
-1.156
 21
-1.027
  0
LINE
  8
0
 10
-31.093
 11
-31.214
 20
-1.027
 21
-0.882
  0
LINE
  8
0
 10
-31.214
 11
-31.314
 20
-0.882
 21
-0.723
  0
LINE
  8
0
 10
-31.314
 11
-31.395
 20
-0.723
 21
-0.552
  0
LINE
  8
0
 10
-31.395
 11
-31.453
 20
-0.552
 21
-0.373
  0
LINE
  8
0
 10
-31.453
 11
-31.488
 20
-0.373
 21
-0.188
  0
LINE
  8
0
 10
-31.488
 11
-31.5
 20
-0.188
 21
0
  0
LINE
  8
0
 10
-31.5
 11
-31.488
 20
10
 21
10.188
  0
LINE
  8
0
 10
-31.488
 11
-31.453
 20
10.188
 21
10.373
  0
LINE
  8
0
 10
-31.453
 11
-31.395
 20
10.373
 21
10.552
  0
LINE
  8
0
 10
-31.395
 11
-31.314
 20
10.552
 21
10.723
  0
LINE
  8
0
 10
-31.314
 11
-31.214
 20
10.723
 21
10.882
  0
LINE
  8
0
 10
-31.214
 11
-31.093
 20
10.882
 21
11.027
  0
LINE
  8
0
 10
-31.093
 11
-30.956
 20
11.027
 21
11.156
  0
LINE
  8
0
 10
-30.956
 11
-30.804
 20
11.156
 21
11.266
  0
LINE
  8
0
 10
-30.804
 11
-30.639
 20
11.266
 21
11.357
  0
LINE
  8
0
 10
-30.639
 11
-30.464
 20
11.357
 21
11.427
  0
LINE
  8
0
 10
-30.464
 11
-30.281
 20
11.427
 21
11.473
  0
LINE
  8
0
 10
-30.281
 11
-30.094
 20
11.473
 21
11.497
  0
LINE
  8
0
 10
-30.094
 11
-29.906
 20
11.497
 21
11.497
  0
LINE
  8
0
 10
-29.906
 11
-29.719
 20
11.497
 21
11.473
  0
LINE
  8
0
 10
-29.719
 11
-29.536
 20
11.473
 21
11.427
  0
LINE
  8
0
 10
-29.536
 11
-29.361
 20
11.427
 21
11.357
  0
LINE
  8
0
 10
-29.361
 11
-29.196
 20
11.357
 21
11.266
  0
LINE
  8
0
 10
-29.196
 11
-29.044
 20
11.266
 21
11.156
  0
LINE
  8
0
 10
-29.044
 11
-28.907
 20
11.156
 21
11.027
  0
LINE
  8
0
 10
-28.907
 11
-28.786
 20
11.027
 21
10.882
  0
LINE
  8
0
 10
-28.786
 11
-28.686
 20
10.882
 21
10.723
  0
LINE
  8
0
 10
-28.686
 11
-28.605
 20
10.723
 21
10.552
  0
LINE
  8
0
 10
-28.605
 11
-28.547
 20
10.552
 21
10.373
  0
LINE
  8
0
 10
-28.547
 11
-28.512
 20
10.373
 21
10.188
  0
LINE
  8
0
 10
-28.512
 11
-28.5
 20
10.188
 21
10
  0
LINE
  8
0
 10
-28.5
 11
-28.512
 20
10
 21
9.812
  0
LINE
  8
0
 10
-28.512
 11
-28.547
 20
9.812
 21
9.627
  0
LINE
  8
0
 10
-28.547
 11
-28.605
 20
9.627
 21
9.448
  0
LINE
  8
0
 10
-28.605
 11
-28.686
 20
9.448
 21
9.277
  0
LINE
  8
0
 10
-28.686
 11
-28.786
 20
9.277
 21
9.118
  0
LINE
  8
0
 10
-28.786
 11
-28.907
 20
9.118
 21
8.973
  0
LINE
  8
0
 10
-28.907
 11
-29.044
 20
8.973
 21
8.844
  0
LINE
  8
0
 10
-29.044
 11
-29.196
 20
8.844
 21
8.734
  0
LINE
  8
0
 10
-29.196
 11
-29.361
 20
8.734
 21
8.643
  0
LINE
  8
0
 10
-29.361
 11
-29.536
 20
8.643
 21
8.573
  0
LINE
  8
0
 10
-29.536
 11
-29.719
 20
8.573
 21
8.527
  0
LINE
  8
0
 10
-29.719
 11
-29.906
 20
8.527
 21
8.503
  0
LINE
  8
0
 10
-29.906
 11
-30.094
 20
8.503
 21
8.503
  0
LINE
  8
0
 10
-30.094
 11
-30.281
 20
8.503
 21
8.527
  0
LINE
  8
0
 10
-30.281
 11
-30.464
 20
8.527
 21
8.573
  0
LINE
  8
0
 10
-30.464
 11
-30.639
 20
8.573
 21
8.643
  0
LINE
  8
0
 10
-30.639
 11
-30.804
 20
8.643
 21
8.734
  0
LINE
  8
0
 10
-30.804
 11
-30.956
 20
8.734
 21
8.844
  0
LINE
  8
0
 10
-30.956
 11
-31.093
 20
8.844
 21
8.973
  0
LINE
  8
0
 10
-31.093
 11
-31.214
 20
8.973
 21
9.118
  0
LINE
  8
0
 10
-31.214
 11
-31.314
 20
9.118
 21
9.277
  0
LINE
  8
0
 10
-31.314
 11
-31.395
 20
9.277
 21
9.448
  0
LINE
  8
0
 10
-31.395
 11
-31.453
 20
9.448
 21
9.627
  0
LINE
  8
0
 10
-31.453
 11
-31.488
 20
9.627
 21
9.812
  0
LINE
  8
0
 10
-31.488
 11
-31.5
 20
9.812
 21
10
  0
LINE
  8
0
 10
-23.3
 11
-23.266
 20
0
 21
0.539
  0
LINE
  8
0
 10
-23.266
 11
-23.165
 20
0.539
 21
1.069
  0
LINE
  8
0
 10
-23.165
 11
-22.998
 20
1.069
 21
1.583
  0
LINE
  8
0
 10
-22.998
 11
-22.768
 20
1.583
 21
2.072
  0
LINE
  8
0
 10
-22.768
 11
-22.479
 20
2.072
 21
2.527
  0
LINE
  8
0
 10
-22.479
 11
-22.135
 20
2.527
 21
2.944
  0
LINE
  8
0
 10
-22.135
 11
-21.741
 20
2.944
 21
3.313
  0
LINE
  8
0
 10
-21.741
 11
-21.304
 20
3.313
 21
3.631
  0
LINE
  8
0
 10
-21.304
 11
-20.831
 20
3.631
 21
3.891
  0
LINE
  8
0
 10
-20.831
 11
-20.329
 20
3.891
 21
4.09
  0
LINE
  8
0
 10
-20.329
 11
-19.806
 20
4.09
 21
4.224
  0
LINE
  8
0
 10
-19.806
 11
-19.27
 20
4.224
 21
4.292
  0
LINE
  8
0
 10
-19.27
 11
-18.73
 20
4.292
 21
4.292
  0
LINE
  8
0
 10
-18.73
 11
-18.194
 20
4.292
 21
4.224
  0
LINE
  8
0
 10
-18.194
 11
-17.671
 20
4.224
 21
4.09
  0
LINE
  8
0
 10
-17.671
 11
-17.169
 20
4.09
 21
3.891
  0
LINE
  8
0
 10
-17.169
 11
-16.696
 20
3.891
 21
3.631
  0
LINE
  8
0
 10
-16.696
 11
-16.259
 20
3.631
 21
3.313
  0
LINE
  8
0
 10
-16.259
 11
-15.865
 20
3.313
 21
2.944
  0
LINE
  8
0
 10
-15.865
 11
-15.521
 20
2.944
 21
2.527
  0
LINE
  8
0
 10
-15.521
 11
-15.232
 20
2.527
 21
2.072
  0
LINE
  8
0
 10
-15.232
 11
-15.002
 20
2.072
 21
1.583
  0
LINE
  8
0
 10
-15.002
 11
-14.835
 20
1.583
 21
1.069
  0
LINE
  8
0
 10
-14.835
 11
-14.734
 20
1.069
 21
0.539
  0
LINE
  8
0
 10
-14.734
 11
-14.7
 20
0.539
 21
0
  0
LINE
  8
0
 10
-14.7
 11
-14.734
 20
0
 21
-0.539
  0
LINE
  8
0
 10
-14.734
 11
-14.835
 20
-0.539
 21
-1.069
  0
LINE
  8
0
 10
-14.835
 11
-15.002
 20
-1.069
 21
-1.583
  0
LINE
  8
0
 10
-15.002
 11
-15.232
 20
-1.583
 21
-2.072
  0
LINE
  8
0
 10
-15.232
 11
-15.521
 20
-2.072
 21
-2.527
  0
LINE
  8
0
 10
-15.521
 11
-15.865
 20
-2.527
 21
-2.944
  0
LINE
  8
0
 10
-15.865
 11
-16.259
 20
-2.944
 21
-3.313
  0
LINE
  8
0
 10
-16.259
 11
-16.696
 20
-3.313
 21
-3.631
  0
LINE
  8
0
 10
-16.696
 11
-17.169
 20
-3.631
 21
-3.891
  0
LINE
  8
0
 10
-17.169
 11
-17.671
 20
-3.891
 21
-4.09
  0
LINE
  8
0
 10
-17.671
 11
-18.194
 20
-4.09
 21
-4.224
  0
LINE
  8
0
 10
-18.194
 11
-18.73
 20
-4.224
 21
-4.292
  0
LINE
  8
0
 10
-18.73
 11
-19.27
 20
-4.292
 21
-4.292
  0
LINE
  8
0
 10
-19.27
 11
-19.806
 20
-4.292
 21
-4.224
  0
LINE
  8
0
 10
-19.806
 11
-20.329
 20
-4.224
 21
-4.09
  0
LINE
  8
0
 10
-20.329
 11
-20.831
 20
-4.09
 21
-3.891
  0
LINE
  8
0
 10
-20.831
 11
-21.304
 20
-3.891
 21
-3.631
  0
LINE
  8
0
 10
-21.304
 11
-21.741
 20
-3.631
 21
-3.313
  0
LINE
  8
0
 10
-21.741
 11
-22.135
 20
-3.313
 21
-2.944
  0
LINE
  8
0
 10
-22.135
 11
-22.479
 20
-2.944
 21
-2.527
  0
LINE
  8
0
 10
-22.479
 11
-22.768
 20
-2.527
 21
-2.072
  0
LINE
  8
0
 10
-22.768
 11
-22.998
 20
-2.072
 21
-1.583
  0
LINE
  8
0
 10
-22.998
 11
-23.165
 20
-1.583
 21
-1.069
  0
LINE
  8
0
 10
-23.165
 11
-23.266
 20
-1.069
 21
-0.539
  0
LINE
  8
0
 10
-23.266
 11
-23.3
 20
-0.539
 21
0
  0
LINE
  8
0
 10
-20.5
 11
-20.488
 20
-10
 21
-9.812
  0
LINE
  8
0
 10
-20.488
 11
-20.453
 20
-9.812
 21
-9.627
  0
LINE
  8
0
 10
-20.453
 11
-20.395
 20
-9.627
 21
-9.448
  0
LINE
  8
0
 10
-20.395
 11
-20.314
 20
-9.448
 21
-9.277
  0
LINE
  8
0
 10
-20.314
 11
-20.214
 20
-9.277
 21
-9.118
  0
LINE
  8
0
 10
-20.214
 11
-20.093
 20
-9.118
 21
-8.973
  0
LINE
  8
0
 10
-20.093
 11
-19.956
 20
-8.973
 21
-8.844
  0
LINE
  8
0
 10
-19.956
 11
-19.804
 20
-8.844
 21
-8.734
  0
LINE
  8
0
 10
-19.804
 11
-19.639
 20
-8.734
 21
-8.643
  0
LINE
  8
0
 10
-19.639
 11
-19.464
 20
-8.643
 21
-8.573
  0
LINE
  8
0
 10
-19.464
 11
-19.281
 20
-8.573
 21
-8.527
  0
LINE
  8
0
 10
-19.281
 11
-19.094
 20
-8.527
 21
-8.503
  0
LINE
  8
0
 10
-19.094
 11
-18.906
 20
-8.503
 21
-8.503
  0
LINE
  8
0
 10
-18.906
 11
-18.719
 20
-8.503
 21
-8.527
  0
LINE
  8
0
 10
-18.719
 11
-18.536
 20
-8.527
 21
-8.573
  0
LINE
  8
0
 10
-18.536
 11
-18.361
 20
-8.573
 21
-8.643
  0
LINE
  8
0
 10
-18.361
 11
-18.196
 20
-8.643
 21
-8.734
  0
LINE
  8
0
 10
-18.196
 11
-18.044
 20
-8.734
 21
-8.844
  0
LINE
  8
0
 10
-18.044
 11
-17.907
 20
-8.844
 21
-8.973
  0
LINE
  8
0
 10
-17.907
 11
-17.786
 20
-8.973
 21
-9.118
  0
LINE
  8
0
 10
-17.786
 11
-17.686
 20
-9.118
 21
-9.277
  0
LINE
  8
0
 10
-17.686
 11
-17.605
 20
-9.277
 21
-9.448
  0
LINE
  8
0
 10
-17.605
 11
-17.547
 20
-9.448
 21
-9.627
  0
LINE
  8
0
 10
-17.547
 11
-17.512
 20
-9.627
 21
-9.812
  0
LINE
  8
0
 10
-17.512
 11
-17.5
 20
-9.812
 21
-10
  0
LINE
  8
0
 10
-17.5
 11
-17.512
 20
-10
 21
-10.188
  0
LINE
  8
0
 10
-17.512
 11
-17.547
 20
-10.188
 21
-10.373
  0
LINE
  8
0
 10
-17.547
 11
-17.605
 20
-10.373
 21
-10.552
  0
LINE
  8
0
 10
-17.605
 11
-17.686
 20
-10.552
 21
-10.723
  0
LINE
  8
0
 10
-17.686
 11
-17.786
 20
-10.723
 21
-10.882
  0
LINE
  8
0
 10
-17.786
 11
-17.907
 20
-10.882
 21
-11.027
  0
LINE
  8
0
 10
-17.907
 11
-18.044
 20
-11.027
 21
-11.156
  0
LINE
  8
0
 10
-18.044
 11
-18.196
 20
-11.156
 21
-11.266
  0
LINE
  8
0
 10
-18.196
 11
-18.361
 20
-11.266
 21
-11.357
  0
LINE
  8
0
 10
-18.361
 11
-18.536
 20
-11.357
 21
-11.427
  0
LINE
  8
0
 10
-18.536
 11
-18.719
 20
-11.427
 21
-11.473
  0
LINE
  8
0
 10
-18.719
 11
-18.906
 20
-11.473
 21
-11.497
  0
LINE
  8
0
 10
-18.906
 11
-19.094
 20
-11.497
 21
-11.497
  0
LINE
  8
0
 10
-19.094
 11
-19.281
 20
-11.497
 21
-11.473
  0
LINE
  8
0
 10
-19.281
 11
-19.464
 20
-11.473
 21
-11.427
  0
LINE
  8
0
 10
-19.464
 11
-19.639
 20
-11.427
 21
-11.357
  0
LINE
  8
0
 10
-19.639
 11
-19.804
 20
-11.357
 21
-11.266
  0
LINE
  8
0
 10
-19.804
 11
-19.956
 20
-11.266
 21
-11.156
  0
LINE
  8
0
 10
-19.956
 11
-20.093
 20
-11.156
 21
-11.027
  0
LINE
  8
0
 10
-20.093
 11
-20.214
 20
-11.027
 21
-10.882
  0
LINE
  8
0
 10
-20.214
 11
-20.314
 20
-10.882
 21
-10.723
  0
LINE
  8
0
 10
-20.314
 11
-20.395
 20
-10.723
 21
-10.552
  0
LINE
  8
0
 10
-20.395
 11
-20.453
 20
-10.552
 21
-10.373
  0
LINE
  8
0
 10
-20.453
 11
-20.488
 20
-10.373
 21
-10.188
  0
LINE
  8
0
 10
-20.488
 11
-20.5
 20
-10.188
 21
-10
  0
LINE
  8
0
 10
-20.5
 11
-20.488
 20
10
 21
10.188
  0
LINE
  8
0
 10
-20.488
 11
-20.453
 20
10.188
 21
10.373
  0
LINE
  8
0
 10
-20.453
 11
-20.395
 20
10.373
 21
10.552
  0
LINE
  8
0
 10
-20.395
 11
-20.314
 20
10.552
 21
10.723
  0
LINE
  8
0
 10
-20.314
 11
-20.214
 20
10.723
 21
10.882
  0
LINE
  8
0
 10
-20.214
 11
-20.093
 20
10.882
 21
11.027
  0
LINE
  8
0
 10
-20.093
 11
-19.956
 20
11.027
 21
11.156
  0
LINE
  8
0
 10
-19.956
 11
-19.804
 20
11.156
 21
11.266
  0
LINE
  8
0
 10
-19.804
 11
-19.639
 20
11.266
 21
11.357
  0
LINE
  8
0
 10
-19.639
 11
-19.464
 20
11.357
 21
11.427
  0
LINE
  8
0
 10
-19.464
 11
-19.281
 20
11.427
 21
11.473
  0
LINE
  8
0
 10
-19.281
 11
-19.094
 20
11.473
 21
11.497
  0
LINE
  8
0
 10
-19.094
 11
-18.906
 20
11.497
 21
11.497
  0
LINE
  8
0
 10
-18.906
 11
-18.719
 20
11.497
 21
11.473
  0
LINE
  8
0
 10
-18.719
 11
-18.536
 20
11.473
 21
11.427
  0
LINE
  8
0
 10
-18.536
 11
-18.361
 20
11.427
 21
11.357
  0
LINE
  8
0
 10
-18.361
 11
-18.196
 20
11.357
 21
11.266
  0
LINE
  8
0
 10
-18.196
 11
-18.044
 20
11.266
 21
11.156
  0
LINE
  8
0
 10
-18.044
 11
-17.907
 20
11.156
 21
11.027
  0
LINE
  8
0
 10
-17.907
 11
-17.786
 20
11.027
 21
10.882
  0
LINE
  8
0
 10
-17.786
 11
-17.686
 20
10.882
 21
10.723
  0
LINE
  8
0
 10
-17.686
 11
-17.605
 20
10.723
 21
10.552
  0
LINE
  8
0
 10
-17.605
 11
-17.547
 20
10.552
 21
10.373
  0
LINE
  8
0
 10
-17.547
 11
-17.512
 20
10.373
 21
10.188
  0
LINE
  8
0
 10
-17.512
 11
-17.5
 20
10.188
 21
10
  0
LINE
  8
0
 10
-17.5
 11
-17.512
 20
10
 21
9.812
  0
LINE
  8
0
 10
-17.512
 11
-17.547
 20
9.812
 21
9.627
  0
LINE
  8
0
 10
-17.547
 11
-17.605
 20
9.627
 21
9.448
  0
LINE
  8
0
 10
-17.605
 11
-17.686
 20
9.448
 21
9.277
  0
LINE
  8
0
 10
-17.686
 11
-17.786
 20
9.277
 21
9.118
  0
LINE
  8
0
 10
-17.786
 11
-17.907
 20
9.118
 21
8.973
  0
LINE
  8
0
 10
-17.907
 11
-18.044
 20
8.973
 21
8.844
  0
LINE
  8
0
 10
-18.044
 11
-18.196
 20
8.844
 21
8.734
  0
LINE
  8
0
 10
-18.196
 11
-18.361
 20
8.734
 21
8.643
  0
LINE
  8
0
 10
-18.361
 11
-18.536
 20
8.643
 21
8.573
  0
LINE
  8
0
 10
-18.536
 11
-18.719
 20
8.573
 21
8.527
  0
LINE
  8
0
 10
-18.719
 11
-18.906
 20
8.527
 21
8.503
  0
LINE
  8
0
 10
-18.906
 11
-19.094
 20
8.503
 21
8.503
  0
LINE
  8
0
 10
-19.094
 11
-19.281
 20
8.503
 21
8.527
  0
LINE
  8
0
 10
-19.281
 11
-19.464
 20
8.527
 21
8.573
  0
LINE
  8
0
 10
-19.464
 11
-19.639
 20
8.573
 21
8.643
  0
LINE
  8
0
 10
-19.639
 11
-19.804
 20
8.643
 21
8.734
  0
LINE
  8
0
 10
-19.804
 11
-19.956
 20
8.734
 21
8.844
  0
LINE
  8
0
 10
-19.956
 11
-20.093
 20
8.844
 21
8.973
  0
LINE
  8
0
 10
-20.093
 11
-20.214
 20
8.973
 21
9.118
  0
LINE
  8
0
 10
-20.214
 11
-20.314
 20
9.118
 21
9.277
  0
LINE
  8
0
 10
-20.314
 11
-20.395
 20
9.277
 21
9.448
  0
LINE
  8
0
 10
-20.395
 11
-20.453
 20
9.448
 21
9.627
  0
LINE
  8
0
 10
-20.453
 11
-20.488
 20
9.627
 21
9.812
  0
LINE
  8
0
 10
-20.488
 11
-20.5
 20
9.812
 21
10
  0
LINE
  8
0
 10
-9
 11
-9
 20
-6.9
 21
-1.9
  0
LINE
  8
0
 10
-9
 11
-1
 20
-1.9
 21
-1.9
  0
LINE
  8
0
 10
-1
 11
-1
 20
-1.9
 21
-6.9
  0
LINE
  8
0
 10
-1
 11
-9
 20
-6.9
 21
-6.9
  0
LINE
  8
0
 10
-9
 11
-9
 20
1.9
 21
6.9
  0
LINE
  8
0
 10
-9
 11
-1
 20
6.9
 21
6.9
  0
LINE
  8
0
 10
-1
 11
-1
 20
6.9
 21
1.9
  0
LINE
  8
0
 10
-1
 11
-9
 20
1.9
 21
1.9
  0
LINE
  8
0
 10
1
 11
1
 20
-6.9
 21
-1.9
  0
LINE
  8
0
 10
1
 11
9
 20
-1.9
 21
-1.9
  0
LINE
  8
0
 10
9
 11
9
 20
-1.9
 21
-6.9
  0
LINE
  8
0
 10
9
 11
1
 20
-6.9
 21
-6.9
  0
LINE
  8
0
 10
1
 11
1
 20
1.9
 21
6.9
  0
LINE
  8
0
 10
1
 11
9
 20
6.9
 21
6.9
  0
LINE
  8
0
 10
9
 11
9
 20
6.9
 21
1.9
  0
LINE
  8
0
 10
9
 11
1
 20
1.9
 21
1.9
  0
LINE
  8
0
 10
14.7
 11
14.734
 20
0
 21
0.539
  0
LINE
  8
0
 10
14.734
 11
14.835
 20
0.539
 21
1.069
  0
LINE
  8
0
 10
14.835
 11
15.002
 20
1.069
 21
1.583
  0
LINE
  8
0
 10
15.002
 11
15.232
 20
1.583
 21
2.072
  0
LINE
  8
0
 10
15.232
 11
15.521
 20
2.072
 21
2.527
  0
LINE
  8
0
 10
15.521
 11
15.865
 20
2.527
 21
2.944
  0
LINE
  8
0
 10
15.865
 11
16.259
 20
2.944
 21
3.313
  0
LINE
  8
0
 10
16.259
 11
16.696
 20
3.313
 21
3.631
  0
LINE
  8
0
 10
16.696
 11
17.169
 20
3.631
 21
3.891
  0
LINE
  8
0
 10
17.169
 11
17.671
 20
3.891
 21
4.09
  0
LINE
  8
0
 10
17.671
 11
18.194
 20
4.09
 21
4.224
  0
LINE
  8
0
 10
18.194
 11
18.73
 20
4.224
 21
4.292
  0
LINE
  8
0
 10
18.73
 11
19.27
 20
4.292
 21
4.292
  0
LINE
  8
0
 10
19.27
 11
19.806
 20
4.292
 21
4.224
  0
LINE
  8
0
 10
19.806
 11
20.329
 20
4.224
 21
4.09
  0
LINE
  8
0
 10
20.329
 11
20.831
 20
4.09
 21
3.891
  0
LINE
  8
0
 10
20.831
 11
21.304
 20
3.891
 21
3.631
  0
LINE
  8
0
 10
21.304
 11
21.741
 20
3.631
 21
3.313
  0
LINE
  8
0
 10
21.741
 11
22.135
 20
3.313
 21
2.944
  0
LINE
  8
0
 10
22.135
 11
22.479
 20
2.944
 21
2.527
  0
LINE
  8
0
 10
22.479
 11
22.768
 20
2.527
 21
2.072
  0
LINE
  8
0
 10
22.768
 11
22.998
 20
2.072
 21
1.583
  0
LINE
  8
0
 10
22.998
 11
23.165
 20
1.583
 21
1.069
  0
LINE
  8
0
 10
23.165
 11
23.266
 20
1.069
 21
0.539
  0
LINE
  8
0
 10
23.266
 11
23.3
 20
0.539
 21
0
  0
LINE
  8
0
 10
23.3
 11
23.266
 20
0
 21
-0.539
  0
LINE
  8
0
 10
23.266
 11
23.165
 20
-0.539
 21
-1.069
  0
LINE
  8
0
 10
23.165
 11
22.998
 20
-1.069
 21
-1.583
  0
LINE
  8
0
 10
22.998
 11
22.768
 20
-1.583
 21
-2.072
  0
LINE
  8
0
 10
22.768
 11
22.479
 20
-2.072
 21
-2.527
  0
LINE
  8
0
 10
22.479
 11
22.135
 20
-2.527
 21
-2.944
  0
LINE
  8
0
 10
22.135
 11
21.741
 20
-2.944
 21
-3.313
  0
LINE
  8
0
 10
21.741
 11
21.304
 20
-3.313
 21
-3.631
  0
LINE
  8
0
 10
21.304
 11
20.831
 20
-3.631
 21
-3.891
  0
LINE
  8
0
 10
20.831
 11
20.329
 20
-3.891
 21
-4.09
  0
LINE
  8
0
 10
20.329
 11
19.806
 20
-4.09
 21
-4.224
  0
LINE
  8
0
 10
19.806
 11
19.27
 20
-4.224
 21
-4.292
  0
LINE
  8
0
 10
19.27
 11
18.73
 20
-4.292
 21
-4.292
  0
LINE
  8
0
 10
18.73
 11
18.194
 20
-4.292
 21
-4.224
  0
LINE
  8
0
 10
18.194
 11
17.671
 20
-4.224
 21
-4.09
  0
LINE
  8
0
 10
17.671
 11
17.169
 20
-4.09
 21
-3.891
  0
LINE
  8
0
 10
17.169
 11
16.696
 20
-3.891
 21
-3.631
  0
LINE
  8
0
 10
16.696
 11
16.259
 20
-3.631
 21
-3.313
  0
LINE
  8
0
 10
16.259
 11
15.865
 20
-3.313
 21
-2.944
  0
LINE
  8
0
 10
15.865
 11
15.521
 20
-2.944
 21
-2.527
  0
LINE
  8
0
 10
15.521
 11
15.232
 20
-2.527
 21
-2.072
  0
LINE
  8
0
 10
15.232
 11
15.002
 20
-2.072
 21
-1.583
  0
LINE
  8
0
 10
15.002
 11
14.835
 20
-1.583
 21
-1.069
  0
LINE
  8
0
 10
14.835
 11
14.734
 20
-1.069
 21
-0.539
  0
LINE
  8
0
 10
14.734
 11
14.7
 20
-0.539
 21
0
  0
LINE
  8
0
 10
17.5
 11
17.512
 20
-10
 21
-9.812
  0
LINE
  8
0
 10
17.512
 11
17.547
 20
-9.812
 21
-9.627
  0
LINE
  8
0
 10
17.547
 11
17.605
 20
-9.627
 21
-9.448
  0
LINE
  8
0
 10
17.605
 11
17.686
 20
-9.448
 21
-9.277
  0
LINE
  8
0
 10
17.686
 11
17.786
 20
-9.277
 21
-9.118
  0
LINE
  8
0
 10
17.786
 11
17.907
 20
-9.118
 21
-8.973
  0
LINE
  8
0
 10
17.907
 11
18.044
 20
-8.973
 21
-8.844
  0
LINE
  8
0
 10
18.044
 11
18.196
 20
-8.844
 21
-8.734
  0
LINE
  8
0
 10
18.196
 11
18.361
 20
-8.734
 21
-8.643
  0
LINE
  8
0
 10
18.361
 11
18.536
 20
-8.643
 21
-8.573
  0
LINE
  8
0
 10
18.536
 11
18.719
 20
-8.573
 21
-8.527
  0
LINE
  8
0
 10
18.719
 11
18.906
 20
-8.527
 21
-8.503
  0
LINE
  8
0
 10
18.906
 11
19.094
 20
-8.503
 21
-8.503
  0
LINE
  8
0
 10
19.094
 11
19.281
 20
-8.503
 21
-8.527
  0
LINE
  8
0
 10
19.281
 11
19.464
 20
-8.527
 21
-8.573
  0
LINE
  8
0
 10
19.464
 11
19.639
 20
-8.573
 21
-8.643
  0
LINE
  8
0
 10
19.639
 11
19.804
 20
-8.643
 21
-8.734
  0
LINE
  8
0
 10
19.804
 11
19.956
 20
-8.734
 21
-8.844
  0
LINE
  8
0
 10
19.956
 11
20.093
 20
-8.844
 21
-8.973
  0
LINE
  8
0
 10
20.093
 11
20.214
 20
-8.973
 21
-9.118
  0
LINE
  8
0
 10
20.214
 11
20.314
 20
-9.118
 21
-9.277
  0
LINE
  8
0
 10
20.314
 11
20.395
 20
-9.277
 21
-9.448
  0
LINE
  8
0
 10
20.395
 11
20.453
 20
-9.448
 21
-9.627
  0
LINE
  8
0
 10
20.453
 11
20.488
 20
-9.627
 21
-9.812
  0
LINE
  8
0
 10
20.488
 11
20.5
 20
-9.812
 21
-10
  0
LINE
  8
0
 10
20.5
 11
20.488
 20
-10
 21
-10.188
  0
LINE
  8
0
 10
20.488
 11
20.453
 20
-10.188
 21
-10.373
  0
LINE
  8
0
 10
20.453
 11
20.395
 20
-10.373
 21
-10.552
  0
LINE
  8
0
 10
20.395
 11
20.314
 20
-10.552
 21
-10.723
  0
LINE
  8
0
 10
20.314
 11
20.214
 20
-10.723
 21
-10.882
  0
LINE
  8
0
 10
20.214
 11
20.093
 20
-10.882
 21
-11.027
  0
LINE
  8
0
 10
20.093
 11
19.956
 20
-11.027
 21
-11.156
  0
LINE
  8
0
 10
19.956
 11
19.804
 20
-11.156
 21
-11.266
  0
LINE
  8
0
 10
19.804
 11
19.639
 20
-11.266
 21
-11.357
  0
LINE
  8
0
 10
19.639
 11
19.464
 20
-11.357
 21
-11.427
  0
LINE
  8
0
 10
19.464
 11
19.281
 20
-11.427
 21
-11.473
  0
LINE
  8
0
 10
19.281
 11
19.094
 20
-11.473
 21
-11.497
  0
LINE
  8
0
 10
19.094
 11
18.906
 20
-11.497
 21
-11.497
  0
LINE
  8
0
 10
18.906
 11
18.719
 20
-11.497
 21
-11.473
  0
LINE
  8
0
 10
18.719
 11
18.536
 20
-11.473
 21
-11.427
  0
LINE
  8
0
 10
18.536
 11
18.361
 20
-11.427
 21
-11.357
  0
LINE
  8
0
 10
18.361
 11
18.196
 20
-11.357
 21
-11.266
  0
LINE
  8
0
 10
18.196
 11
18.044
 20
-11.266
 21
-11.156
  0
LINE
  8
0
 10
18.044
 11
17.907
 20
-11.156
 21
-11.027
  0
LINE
  8
0
 10
17.907
 11
17.786
 20
-11.027
 21
-10.882
  0
LINE
  8
0
 10
17.786
 11
17.686
 20
-10.882
 21
-10.723
  0
LINE
  8
0
 10
17.686
 11
17.605
 20
-10.723
 21
-10.552
  0
LINE
  8
0
 10
17.605
 11
17.547
 20
-10.552
 21
-10.373
  0
LINE
  8
0
 10
17.547
 11
17.512
 20
-10.373
 21
-10.188
  0
LINE
  8
0
 10
17.512
 11
17.5
 20
-10.188
 21
-10
  0
LINE
  8
0
 10
17.5
 11
17.512
 20
10
 21
10.188
  0
LINE
  8
0
 10
17.512
 11
17.547
 20
10.188
 21
10.373
  0
LINE
  8
0
 10
17.547
 11
17.605
 20
10.373
 21
10.552
  0
LINE
  8
0
 10
17.605
 11
17.686
 20
10.552
 21
10.723
  0
LINE
  8
0
 10
17.686
 11
17.786
 20
10.723
 21
10.882
  0
LINE
  8
0
 10
17.786
 11
17.907
 20
10.882
 21
11.027
  0
LINE
  8
0
 10
17.907
 11
18.044
 20
11.027
 21
11.156
  0
LINE
  8
0
 10
18.044
 11
18.196
 20
11.156
 21
11.266
  0
LINE
  8
0
 10
18.196
 11
18.361
 20
11.266
 21
11.357
  0
LINE
  8
0
 10
18.361
 11
18.536
 20
11.357
 21
11.427
  0
LINE
  8
0
 10
18.536
 11
18.719
 20
11.427
 21
11.473
  0
LINE
  8
0
 10
18.719
 11
18.906
 20
11.473
 21
11.497
  0
LINE
  8
0
 10
18.906
 11
19.094
 20
11.497
 21
11.497
  0
LINE
  8
0
 10
19.094
 11
19.281
 20
11.497
 21
11.473
  0
LINE
  8
0
 10
19.281
 11
19.464
 20
11.473
 21
11.427
  0
LINE
  8
0
 10
19.464
 11
19.639
 20
11.427
 21
11.357
  0
LINE
  8
0
 10
19.639
 11
19.804
 20
11.357
 21
11.266
  0
LINE
  8
0
 10
19.804
 11
19.956
 20
11.266
 21
11.156
  0
LINE
  8
0
 10
19.956
 11
20.093
 20
11.156
 21
11.027
  0
LINE
  8
0
 10
20.093
 11
20.214
 20
11.027
 21
10.882
  0
LINE
  8
0
 10
20.214
 11
20.314
 20
10.882
 21
10.723
  0
LINE
  8
0
 10
20.314
 11
20.395
 20
10.723
 21
10.552
  0
LINE
  8
0
 10
20.395
 11
20.453
 20
10.552
 21
10.373
  0
LINE
  8
0
 10
20.453
 11
20.488
 20
10.373
 21
10.188
  0
LINE
  8
0
 10
20.488
 11
20.5
 20
10.188
 21
10
  0
LINE
  8
0
 10
20.5
 11
20.488
 20
10
 21
9.812
  0
LINE
  8
0
 10
20.488
 11
20.453
 20
9.812
 21
9.627
  0
LINE
  8
0
 10
20.453
 11
20.395
 20
9.627
 21
9.448
  0
LINE
  8
0
 10
20.395
 11
20.314
 20
9.448
 21
9.277
  0
LINE
  8
0
 10
20.314
 11
20.214
 20
9.277
 21
9.118
  0
LINE
  8
0
 10
20.214
 11
20.093
 20
9.118
 21
8.973
  0
LINE
  8
0
 10
20.093
 11
19.956
 20
8.973
 21
8.844
  0
LINE
  8
0
 10
19.956
 11
19.804
 20
8.844
 21
8.734
  0
LINE
  8
0
 10
19.804
 11
19.639
 20
8.734
 21
8.643
  0
LINE
  8
0
 10
19.639
 11
19.464
 20
8.643
 21
8.573
  0
LINE
  8
0
 10
19.464
 11
19.281
 20
8.573
 21
8.527
  0
LINE
  8
0
 10
19.281
 11
19.094
 20
8.527
 21
8.503
  0
LINE
  8
0
 10
19.094
 11
18.906
 20
8.503
 21
8.503
  0
LINE
  8
0
 10
18.906
 11
18.719
 20
8.503
 21
8.527
  0
LINE
  8
0
 10
18.719
 11
18.536
 20
8.527
 21
8.573
  0
LINE
  8
0
 10
18.536
 11
18.361
 20
8.573
 21
8.643
  0
LINE
  8
0
 10
18.361
 11
18.196
 20
8.643
 21
8.734
  0
LINE
  8
0
 10
18.196
 11
18.044
 20
8.734
 21
8.844
  0
LINE
  8
0
 10
18.044
 11
17.907
 20
8.844
 21
8.973
  0
LINE
  8
0
 10
17.907
 11
17.786
 20
8.973
 21
9.118
  0
LINE
  8
0
 10
17.786
 11
17.686
 20
9.118
 21
9.277
  0
LINE
  8
0
 10
17.686
 11
17.605
 20
9.277
 21
9.448
  0
LINE
  8
0
 10
17.605
 11
17.547
 20
9.448
 21
9.627
  0
LINE
  8
0
 10
17.547
 11
17.512
 20
9.627
 21
9.812
  0
LINE
  8
0
 10
17.512
 11
17.5
 20
9.812
 21
10
  0
LINE
  8
0
 10
28.5
 11
28.512
 20
-10
 21
-9.812
  0
LINE
  8
0
 10
28.512
 11
28.547
 20
-9.812
 21
-9.627
  0
LINE
  8
0
 10
28.547
 11
28.605
 20
-9.627
 21
-9.448
  0
LINE
  8
0
 10
28.605
 11
28.686
 20
-9.448
 21
-9.277
  0
LINE
  8
0
 10
28.686
 11
28.786
 20
-9.277
 21
-9.118
  0
LINE
  8
0
 10
28.786
 11
28.907
 20
-9.118
 21
-8.973
  0
LINE
  8
0
 10
28.907
 11
29.044
 20
-8.973
 21
-8.844
  0
LINE
  8
0
 10
29.044
 11
29.196
 20
-8.844
 21
-8.734
  0
LINE
  8
0
 10
29.196
 11
29.361
 20
-8.734
 21
-8.643
  0
LINE
  8
0
 10
29.361
 11
29.536
 20
-8.643
 21
-8.573
  0
LINE
  8
0
 10
29.536
 11
29.719
 20
-8.573
 21
-8.527
  0
LINE
  8
0
 10
29.719
 11
29.906
 20
-8.527
 21
-8.503
  0
LINE
  8
0
 10
29.906
 11
30.094
 20
-8.503
 21
-8.503
  0
LINE
  8
0
 10
30.094
 11
30.281
 20
-8.503
 21
-8.527
  0
LINE
  8
0
 10
30.281
 11
30.464
 20
-8.527
 21
-8.573
  0
LINE
  8
0
 10
30.464
 11
30.639
 20
-8.573
 21
-8.643
  0
LINE
  8
0
 10
30.639
 11
30.804
 20
-8.643
 21
-8.734
  0
LINE
  8
0
 10
30.804
 11
30.956
 20
-8.734
 21
-8.844
  0
LINE
  8
0
 10
30.956
 11
31.093
 20
-8.844
 21
-8.973
  0
LINE
  8
0
 10
31.093
 11
31.214
 20
-8.973
 21
-9.118
  0
LINE
  8
0
 10
31.214
 11
31.314
 20
-9.118
 21
-9.277
  0
LINE
  8
0
 10
31.314
 11
31.395
 20
-9.277
 21
-9.448
  0
LINE
  8
0
 10
31.395
 11
31.453
 20
-9.448
 21
-9.627
  0
LINE
  8
0
 10
31.453
 11
31.488
 20
-9.627
 21
-9.812
  0
LINE
  8
0
 10
31.488
 11
31.5
 20
-9.812
 21
-10
  0
LINE
  8
0
 10
31.5
 11
31.488
 20
-10
 21
-10.188
  0
LINE
  8
0
 10
31.488
 11
31.453
 20
-10.188
 21
-10.373
  0
LINE
  8
0
 10
31.453
 11
31.395
 20
-10.373
 21
-10.552
  0
LINE
  8
0
 10
31.395
 11
31.314
 20
-10.552
 21
-10.723
  0
LINE
  8
0
 10
31.314
 11
31.214
 20
-10.723
 21
-10.882
  0
LINE
  8
0
 10
31.214
 11
31.093
 20
-10.882
 21
-11.027
  0
LINE
  8
0
 10
31.093
 11
30.956
 20
-11.027
 21
-11.156
  0
LINE
  8
0
 10
30.956
 11
30.804
 20
-11.156
 21
-11.266
  0
LINE
  8
0
 10
30.804
 11
30.639
 20
-11.266
 21
-11.357
  0
LINE
  8
0
 10
30.639
 11
30.464
 20
-11.357
 21
-11.427
  0
LINE
  8
0
 10
30.464
 11
30.281
 20
-11.427
 21
-11.473
  0
LINE
  8
0
 10
30.281
 11
30.094
 20
-11.473
 21
-11.497
  0
LINE
  8
0
 10
30.094
 11
29.906
 20
-11.497
 21
-11.497
  0
LINE
  8
0
 10
29.906
 11
29.719
 20
-11.497
 21
-11.473
  0
LINE
  8
0
 10
29.719
 11
29.536
 20
-11.473
 21
-11.427
  0
LINE
  8
0
 10
29.536
 11
29.361
 20
-11.427
 21
-11.357
  0
LINE
  8
0
 10
29.361
 11
29.196
 20
-11.357
 21
-11.266
  0
LINE
  8
0
 10
29.196
 11
29.044
 20
-11.266
 21
-11.156
  0
LINE
  8
0
 10
29.044
 11
28.907
 20
-11.156
 21
-11.027
  0
LINE
  8
0
 10
28.907
 11
28.786
 20
-11.027
 21
-10.882
  0
LINE
  8
0
 10
28.786
 11
28.686
 20
-10.882
 21
-10.723
  0
LINE
  8
0
 10
28.686
 11
28.605
 20
-10.723
 21
-10.552
  0
LINE
  8
0
 10
28.605
 11
28.547
 20
-10.552
 21
-10.373
  0
LINE
  8
0
 10
28.547
 11
28.512
 20
-10.373
 21
-10.188
  0
LINE
  8
0
 10
28.512
 11
28.5
 20
-10.188
 21
-10
  0
LINE
  8
0
 10
28.5
 11
28.512
 20
0
 21
0.188
  0
LINE
  8
0
 10
28.512
 11
28.547
 20
0.188
 21
0.373
  0
LINE
  8
0
 10
28.547
 11
28.605
 20
0.373
 21
0.552
  0
LINE
  8
0
 10
28.605
 11
28.686
 20
0.552
 21
0.723
  0
LINE
  8
0
 10
28.686
 11
28.786
 20
0.723
 21
0.882
  0
LINE
  8
0
 10
28.786
 11
28.907
 20
0.882
 21
1.027
  0
LINE
  8
0
 10
28.907
 11
29.044
 20
1.027
 21
1.156
  0
LINE
  8
0
 10
29.044
 11
29.196
 20
1.156
 21
1.266
  0
LINE
  8
0
 10
29.196
 11
29.361
 20
1.266
 21
1.357
  0
LINE
  8
0
 10
29.361
 11
29.536
 20
1.357
 21
1.427
  0
LINE
  8
0
 10
29.536
 11
29.719
 20
1.427
 21
1.473
  0
LINE
  8
0
 10
29.719
 11
29.906
 20
1.473
 21
1.497
  0
LINE
  8
0
 10
29.906
 11
30.094
 20
1.497
 21
1.497
  0
LINE
  8
0
 10
30.094
 11
30.281
 20
1.497
 21
1.473
  0
LINE
  8
0
 10
30.281
 11
30.464
 20
1.473
 21
1.427
  0
LINE
  8
0
 10
30.464
 11
30.639
 20
1.427
 21
1.357
  0
LINE
  8
0
 10
30.639
 11
30.804
 20
1.357
 21
1.266
  0
LINE
  8
0
 10
30.804
 11
30.956
 20
1.266
 21
1.156
  0
LINE
  8
0
 10
30.956
 11
31.093
 20
1.156
 21
1.027
  0
LINE
  8
0
 10
31.093
 11
31.214
 20
1.027
 21
0.882
  0
LINE
  8
0
 10
31.214
 11
31.314
 20
0.882
 21
0.723
  0
LINE
  8
0
 10
31.314
 11
31.395
 20
0.723
 21
0.552
  0
LINE
  8
0
 10
31.395
 11
31.453
 20
0.552
 21
0.373
  0
LINE
  8
0
 10
31.453
 11
31.488
 20
0.373
 21
0.188
  0
LINE
  8
0
 10
31.488
 11
31.5
 20
0.188
 21
0
  0
LINE
  8
0
 10
31.5
 11
31.488
 20
0
 21
-0.188
  0
LINE
  8
0
 10
31.488
 11
31.453
 20
-0.188
 21
-0.373
  0
LINE
  8
0
 10
31.453
 11
31.395
 20
-0.373
 21
-0.552
  0
LINE
  8
0
 10
31.395
 11
31.314
 20
-0.552
 21
-0.723
  0
LINE
  8
0
 10
31.314
 11
31.214
 20
-0.723
 21
-0.882
  0
LINE
  8
0
 10
31.214
 11
31.093
 20
-0.882
 21
-1.027
  0
LINE
  8
0
 10
31.093
 11
30.956
 20
-1.027
 21
-1.156
  0
LINE
  8
0
 10
30.956
 11
30.804
 20
-1.156
 21
-1.266
  0
LINE
  8
0
 10
30.804
 11
30.639
 20
-1.266
 21
-1.357
  0
LINE
  8
0
 10
30.639
 11
30.464
 20
-1.357
 21
-1.427
  0
LINE
  8
0
 10
30.464
 11
30.281
 20
-1.427
 21
-1.473
  0
LINE
  8
0
 10
30.281
 11
30.094
 20
-1.473
 21
-1.497
  0
LINE
  8
0
 10
30.094
 11
29.906
 20
-1.497
 21
-1.497
  0
LINE
  8
0
 10
29.906
 11
29.719
 20
-1.497
 21
-1.473
  0
LINE
  8
0
 10
29.719
 11
29.536
 20
-1.473
 21
-1.427
  0
LINE
  8
0
 10
29.536
 11
29.361
 20
-1.427
 21
-1.357
  0
LINE
  8
0
 10
29.361
 11
29.196
 20
-1.357
 21
-1.266
  0
LINE
  8
0
 10
29.196
 11
29.044
 20
-1.266
 21
-1.156
  0
LINE
  8
0
 10
29.044
 11
28.907
 20
-1.156
 21
-1.027
  0
LINE
  8
0
 10
28.907
 11
28.786
 20
-1.027
 21
-0.882
  0
LINE
  8
0
 10
28.786
 11
28.686
 20
-0.882
 21
-0.723
  0
LINE
  8
0
 10
28.686
 11
28.605
 20
-0.723
 21
-0.552
  0
LINE
  8
0
 10
28.605
 11
28.547
 20
-0.552
 21
-0.373
  0
LINE
  8
0
 10
28.547
 11
28.512
 20
-0.373
 21
-0.188
  0
LINE
  8
0
 10
28.512
 11
28.5
 20
-0.188
 21
0
  0
LINE
  8
0
 10
28.5
 11
28.512
 20
10
 21
10.188
  0
LINE
  8
0
 10
28.512
 11
28.547
 20
10.188
 21
10.373
  0
LINE
  8
0
 10
28.547
 11
28.605
 20
10.373
 21
10.552
  0
LINE
  8
0
 10
28.605
 11
28.686
 20
10.552
 21
10.723
  0
LINE
  8
0
 10
28.686
 11
28.786
 20
10.723
 21
10.882
  0
LINE
  8
0
 10
28.786
 11
28.907
 20
10.882
 21
11.027
  0
LINE
  8
0
 10
28.907
 11
29.044
 20
11.027
 21
11.156
  0
LINE
  8
0
 10
29.044
 11
29.196
 20
11.156
 21
11.266
  0
LINE
  8
0
 10
29.196
 11
29.361
 20
11.266
 21
11.357
  0
LINE
  8
0
 10
29.361
 11
29.536
 20
11.357
 21
11.427
  0
LINE
  8
0
 10
29.536
 11
29.719
 20
11.427
 21
11.473
  0
LINE
  8
0
 10
29.719
 11
29.906
 20
11.473
 21
11.497
  0
LINE
  8
0
 10
29.906
 11
30.094
 20
11.497
 21
11.497
  0
LINE
  8
0
 10
30.094
 11
30.281
 20
11.497
 21
11.473
  0
LINE
  8
0
 10
30.281
 11
30.464
 20
11.473
 21
11.427
  0
LINE
  8
0
 10
30.464
 11
30.639
 20
11.427
 21
11.357
  0
LINE
  8
0
 10
30.639
 11
30.804
 20
11.357
 21
11.266
  0
LINE
  8
0
 10
30.804
 11
30.956
 20
11.266
 21
11.156
  0
LINE
  8
0
 10
30.956
 11
31.093
 20
11.156
 21
11.027
  0
LINE
  8
0
 10
31.093
 11
31.214
 20
11.027
 21
10.882
  0
LINE
  8
0
 10
31.214
 11
31.314
 20
10.882
 21
10.723
  0
LINE
  8
0
 10
31.314
 11
31.395
 20
10.723
 21
10.552
  0
LINE
  8
0
 10
31.395
 11
31.453
 20
10.552
 21
10.373
  0
LINE
  8
0
 10
31.453
 11
31.488
 20
10.373
 21
10.188
  0
LINE
  8
0
 10
31.488
 11
31.5
 20
10.188
 21
10
  0
LINE
  8
0
 10
31.5
 11
31.488
 20
10
 21
9.812
  0
LINE
  8
0
 10
31.488
 11
31.453
 20
9.812
 21
9.627
  0
LINE
  8
0
 10
31.453
 11
31.395
 20
9.627
 21
9.448
  0
LINE
  8
0
 10
31.395
 11
31.314
 20
9.448
 21
9.277
  0
LINE
  8
0
 10
31.314
 11
31.214
 20
9.277
 21
9.118
  0
LINE
  8
0
 10
31.214
 11
31.093
 20
9.118
 21
8.973
  0
LINE
  8
0
 10
31.093
 11
30.956
 20
8.973
 21
8.844
  0
LINE
  8
0
 10
30.956
 11
30.804
 20
8.844
 21
8.734
  0
LINE
  8
0
 10
30.804
 11
30.639
 20
8.734
 21
8.643
  0
LINE
  8
0
 10
30.639
 11
30.464
 20
8.643
 21
8.573
  0
LINE
  8
0
 10
30.464
 11
30.281
 20
8.573
 21
8.527
  0
LINE
  8
0
 10
30.281
 11
30.094
 20
8.527
 21
8.503
  0
LINE
  8
0
 10
30.094
 11
29.906
 20
8.503
 21
8.503
  0
LINE
  8
0
 10
29.906
 11
29.719
 20
8.503
 21
8.527
  0
LINE
  8
0
 10
29.719
 11
29.536
 20
8.527
 21
8.573
  0
LINE
  8
0
 10
29.536
 11
29.361
 20
8.573
 21
8.643
  0
LINE
  8
0
 10
29.361
 11
29.196
 20
8.643
 21
8.734
  0
LINE
  8
0
 10
29.196
 11
29.044
 20
8.734
 21
8.844
  0
LINE
  8
0
 10
29.044
 11
28.907
 20
8.844
 21
8.973
  0
LINE
  8
0
 10
28.907
 11
28.786
 20
8.973
 21
9.118
  0
LINE
  8
0
 10
28.786
 11
28.686
 20
9.118
 21
9.277
  0
LINE
  8
0
 10
28.686
 11
28.605
 20
9.277
 21
9.448
  0
LINE
  8
0
 10
28.605
 11
28.547
 20
9.448
 21
9.627
  0
LINE
  8
0
 10
28.547
 11
28.512
 20
9.627
 21
9.812
  0
LINE
  8
0
 10
28.512
 11
28.5
 20
9.812
 21
10
  0
ENDSEC
  0
SECTION
  2
OBJECTS
  0
DICTIONARY
  0
ENDSEC
  0
EOF
