  0
SECTION
  2
BLOCKS
  0
ENDSEC
  0
SECTION
  2
ENTITIES
  0
LINE
  8
0
 10
-23
 11
-23
 20
16
 21
44
  0
LINE
  8
0
 10
-23
 11
23
 20
44
 21
44
  0
LINE
  8
0
 10
23
 11
23
 20
44
 21
16
  0
LINE
  8
0
 10
23
 11
-23
 20
16
 21
16
  0
LINE
  8
0
 10
-21.5
 11
-21.488
 20
20
 21
20.188
  0
LINE
  8
0
 10
-21.488
 11
-21.453
 20
20.188
 21
20.373
  0
LINE
  8
0
 10
-21.453
 11
-21.395
 20
20.373
 21
20.552
  0
LINE
  8
0
 10
-21.395
 11
-21.314
 20
20.552
 21
20.723
  0
LINE
  8
0
 10
-21.314
 11
-21.214
 20
20.723
 21
20.882
  0
LINE
  8
0
 10
-21.214
 11
-21.093
 20
20.882
 21
21.027
  0
LINE
  8
0
 10
-21.093
 11
-20.956
 20
21.027
 21
21.156
  0
LINE
  8
0
 10
-20.956
 11
-20.804
 20
21.156
 21
21.266
  0
LINE
  8
0
 10
-20.804
 11
-20.639
 20
21.266
 21
21.357
  0
LINE
  8
0
 10
-20.639
 11
-20.464
 20
21.357
 21
21.427
  0
LINE
  8
0
 10
-20.464
 11
-20.281
 20
21.427
 21
21.473
  0
LINE
  8
0
 10
-20.281
 11
-20.094
 20
21.473
 21
21.497
  0
LINE
  8
0
 10
-20.094
 11
-19.906
 20
21.497
 21
21.497
  0
LINE
  8
0
 10
-19.906
 11
-19.719
 20
21.497
 21
21.473
  0
LINE
  8
0
 10
-19.719
 11
-19.536
 20
21.473
 21
21.427
  0
LINE
  8
0
 10
-19.536
 11
-19.361
 20
21.427
 21
21.357
  0
LINE
  8
0
 10
-19.361
 11
-19.196
 20
21.357
 21
21.266
  0
LINE
  8
0
 10
-19.196
 11
-19.044
 20
21.266
 21
21.156
  0
LINE
  8
0
 10
-19.044
 11
-18.907
 20
21.156
 21
21.027
  0
LINE
  8
0
 10
-18.907
 11
-18.786
 20
21.027
 21
20.882
  0
LINE
  8
0
 10
-18.786
 11
-18.686
 20
20.882
 21
20.723
  0
LINE
  8
0
 10
-18.686
 11
-18.605
 20
20.723
 21
20.552
  0
LINE
  8
0
 10
-18.605
 11
-18.547
 20
20.552
 21
20.373
  0
LINE
  8
0
 10
-18.547
 11
-18.512
 20
20.373
 21
20.188
  0
LINE
  8
0
 10
-18.512
 11
-18.5
 20
20.188
 21
20
  0
LINE
  8
0
 10
-18.5
 11
-18.512
 20
20
 21
19.812
  0
LINE
  8
0
 10
-18.512
 11
-18.547
 20
19.812
 21
19.627
  0
LINE
  8
0
 10
-18.547
 11
-18.605
 20
19.627
 21
19.448
  0
LINE
  8
0
 10
-18.605
 11
-18.686
 20
19.448
 21
19.277
  0
LINE
  8
0
 10
-18.686
 11
-18.786
 20
19.277
 21
19.118
  0
LINE
  8
0
 10
-18.786
 11
-18.907
 20
19.118
 21
18.973
  0
LINE
  8
0
 10
-18.907
 11
-19.044
 20
18.973
 21
18.844
  0
LINE
  8
0
 10
-19.044
 11
-19.196
 20
18.844
 21
18.734
  0
LINE
  8
0
 10
-19.196
 11
-19.361
 20
18.734
 21
18.643
  0
LINE
  8
0
 10
-19.361
 11
-19.536
 20
18.643
 21
18.573
  0
LINE
  8
0
 10
-19.536
 11
-19.719
 20
18.573
 21
18.527
  0
LINE
  8
0
 10
-19.719
 11
-19.906
 20
18.527
 21
18.503
  0
LINE
  8
0
 10
-19.906
 11
-20.094
 20
18.503
 21
18.503
  0
LINE
  8
0
 10
-20.094
 11
-20.281
 20
18.503
 21
18.527
  0
LINE
  8
0
 10
-20.281
 11
-20.464
 20
18.527
 21
18.573
  0
LINE
  8
0
 10
-20.464
 11
-20.639
 20
18.573
 21
18.643
  0
LINE
  8
0
 10
-20.639
 11
-20.804
 20
18.643
 21
18.734
  0
LINE
  8
0
 10
-20.804
 11
-20.956
 20
18.734
 21
18.844
  0
LINE
  8
0
 10
-20.956
 11
-21.093
 20
18.844
 21
18.973
  0
LINE
  8
0
 10
-21.093
 11
-21.214
 20
18.973
 21
19.118
  0
LINE
  8
0
 10
-21.214
 11
-21.314
 20
19.118
 21
19.277
  0
LINE
  8
0
 10
-21.314
 11
-21.395
 20
19.277
 21
19.448
  0
LINE
  8
0
 10
-21.395
 11
-21.453
 20
19.448
 21
19.627
  0
LINE
  8
0
 10
-21.453
 11
-21.488
 20
19.627
 21
19.812
  0
LINE
  8
0
 10
-21.488
 11
-21.5
 20
19.812
 21
20
  0
LINE
  8
0
 10
-21.5
 11
-21.488
 20
41
 21
41.188
  0
LINE
  8
0
 10
-21.488
 11
-21.453
 20
41.188
 21
41.373
  0
LINE
  8
0
 10
-21.453
 11
-21.395
 20
41.373
 21
41.552
  0
LINE
  8
0
 10
-21.395
 11
-21.314
 20
41.552
 21
41.723
  0
LINE
  8
0
 10
-21.314
 11
-21.214
 20
41.723
 21
41.882
  0
LINE
  8
0
 10
-21.214
 11
-21.093
 20
41.882
 21
42.027
  0
LINE
  8
0
 10
-21.093
 11
-20.956
 20
42.027
 21
42.156
  0
LINE
  8
0
 10
-20.956
 11
-20.804
 20
42.156
 21
42.266
  0
LINE
  8
0
 10
-20.804
 11
-20.639
 20
42.266
 21
42.357
  0
LINE
  8
0
 10
-20.639
 11
-20.464
 20
42.357
 21
42.427
  0
LINE
  8
0
 10
-20.464
 11
-20.281
 20
42.427
 21
42.473
  0
LINE
  8
0
 10
-20.281
 11
-20.094
 20
42.473
 21
42.497
  0
LINE
  8
0
 10
-20.094
 11
-19.906
 20
42.497
 21
42.497
  0
LINE
  8
0
 10
-19.906
 11
-19.719
 20
42.497
 21
42.473
  0
LINE
  8
0
 10
-19.719
 11
-19.536
 20
42.473
 21
42.427
  0
LINE
  8
0
 10
-19.536
 11
-19.361
 20
42.427
 21
42.357
  0
LINE
  8
0
 10
-19.361
 11
-19.196
 20
42.357
 21
42.266
  0
LINE
  8
0
 10
-19.196
 11
-19.044
 20
42.266
 21
42.156
  0
LINE
  8
0
 10
-19.044
 11
-18.907
 20
42.156
 21
42.027
  0
LINE
  8
0
 10
-18.907
 11
-18.786
 20
42.027
 21
41.882
  0
LINE
  8
0
 10
-18.786
 11
-18.686
 20
41.882
 21
41.723
  0
LINE
  8
0
 10
-18.686
 11
-18.605
 20
41.723
 21
41.552
  0
LINE
  8
0
 10
-18.605
 11
-18.547
 20
41.552
 21
41.373
  0
LINE
  8
0
 10
-18.547
 11
-18.512
 20
41.373
 21
41.188
  0
LINE
  8
0
 10
-18.512
 11
-18.5
 20
41.188
 21
41
  0
LINE
  8
0
 10
-18.5
 11
-18.512
 20
41
 21
40.812
  0
LINE
  8
0
 10
-18.512
 11
-18.547
 20
40.812
 21
40.627
  0
LINE
  8
0
 10
-18.547
 11
-18.605
 20
40.627
 21
40.448
  0
LINE
  8
0
 10
-18.605
 11
-18.686
 20
40.448
 21
40.277
  0
LINE
  8
0
 10
-18.686
 11
-18.786
 20
40.277
 21
40.118
  0
LINE
  8
0
 10
-18.786
 11
-18.907
 20
40.118
 21
39.973
  0
LINE
  8
0
 10
-18.907
 11
-19.044
 20
39.973
 21
39.844
  0
LINE
  8
0
 10
-19.044
 11
-19.196
 20
39.844
 21
39.734
  0
LINE
  8
0
 10
-19.196
 11
-19.361
 20
39.734
 21
39.643
  0
LINE
  8
0
 10
-19.361
 11
-19.536
 20
39.643
 21
39.573
  0
LINE
  8
0
 10
-19.536
 11
-19.719
 20
39.573
 21
39.527
  0
LINE
  8
0
 10
-19.719
 11
-19.906
 20
39.527
 21
39.503
  0
LINE
  8
0
 10
-19.906
 11
-20.094
 20
39.503
 21
39.503
  0
LINE
  8
0
 10
-20.094
 11
-20.281
 20
39.503
 21
39.527
  0
LINE
  8
0
 10
-20.281
 11
-20.464
 20
39.527
 21
39.573
  0
LINE
  8
0
 10
-20.464
 11
-20.639
 20
39.573
 21
39.643
  0
LINE
  8
0
 10
-20.639
 11
-20.804
 20
39.643
 21
39.734
  0
LINE
  8
0
 10
-20.804
 11
-20.956
 20
39.734
 21
39.844
  0
LINE
  8
0
 10
-20.956
 11
-21.093
 20
39.844
 21
39.973
  0
LINE
  8
0
 10
-21.093
 11
-21.214
 20
39.973
 21
40.118
  0
LINE
  8
0
 10
-21.214
 11
-21.314
 20
40.118
 21
40.277
  0
LINE
  8
0
 10
-21.314
 11
-21.395
 20
40.277
 21
40.448
  0
LINE
  8
0
 10
-21.395
 11
-21.453
 20
40.448
 21
40.627
  0
LINE
  8
0
 10
-21.453
 11
-21.488
 20
40.627
 21
40.812
  0
LINE
  8
0
 10
-21.488
 11
-21.5
 20
40.812
 21
41
  0
LINE
  8
0
 10
-17
 11
-17
 20
20
 21
25
  0
LINE
  8
0
 10
-17
 11
-12
 20
25
 21
25
  0
LINE
  8
0
 10
-12
 11
-12
 20
25
 21
20
  0
LINE
  8
0
 10
-12
 11
-17
 20
20
 21
20
  0
LINE
  8
0
 10
-17
 11
-17
 20
27.5
 21
32.5
  0
LINE
  8
0
 10
-17
 11
-12
 20
32.5
 21
32.5
  0
LINE
  8
0
 10
-12
 11
-12
 20
32.5
 21
27.5
  0
LINE
  8
0
 10
-12
 11
-17
 20
27.5
 21
27.5
  0
LINE
  8
0
 10
-17
 11
-17
 20
35
 21
40
  0
LINE
  8
0
 10
-17
 11
-12
 20
40
 21
40
  0
LINE
  8
0
 10
-12
 11
-12
 20
40
 21
35
  0
LINE
  8
0
 10
-12
 11
-17
 20
35
 21
35
  0
LINE
  8
0
 10
-8
 11
-8
 20
20
 21
25
  0
LINE
  8
0
 10
-8
 11
-3
 20
25
 21
25
  0
LINE
  8
0
 10
-3
 11
-3
 20
25
 21
20
  0
LINE
  8
0
 10
-3
 11
-8
 20
20
 21
20
  0
LINE
  8
0
 10
-8
 11
-8
 20
27.5
 21
32.5
  0
LINE
  8
0
 10
-8
 11
-3
 20
32.5
 21
32.5
  0
LINE
  8
0
 10
-3
 11
-3
 20
32.5
 21
27.5
  0
LINE
  8
0
 10
-3
 11
-8
 20
27.5
 21
27.5
  0
LINE
  8
0
 10
-8
 11
-8
 20
35
 21
40
  0
LINE
  8
0
 10
-8
 11
-3
 20
40
 21
40
  0
LINE
  8
0
 10
-3
 11
-3
 20
40
 21
35
  0
LINE
  8
0
 10
-3
 11
-8
 20
35
 21
35
  0
LINE
  8
0
 10
3
 11
3
 20
20
 21
25
  0
LINE
  8
0
 10
3
 11
8
 20
25
 21
25
  0
LINE
  8
0
 10
8
 11
8
 20
25
 21
20
  0
LINE
  8
0
 10
8
 11
3
 20
20
 21
20
  0
LINE
  8
0
 10
3
 11
3
 20
27.5
 21
32.5
  0
LINE
  8
0
 10
3
 11
8
 20
32.5
 21
32.5
  0
LINE
  8
0
 10
8
 11
8
 20
32.5
 21
27.5
  0
LINE
  8
0
 10
8
 11
3
 20
27.5
 21
27.5
  0
LINE
  8
0
 10
3
 11
3
 20
35
 21
40
  0
LINE
  8
0
 10
3
 11
8
 20
40
 21
40
  0
LINE
  8
0
 10
8
 11
8
 20
40
 21
35
  0
LINE
  8
0
 10
8
 11
3
 20
35
 21
35
  0
LINE
  8
0
 10
12
 11
12
 20
20
 21
25
  0
LINE
  8
0
 10
12
 11
17
 20
25
 21
25
  0
LINE
  8
0
 10
17
 11
17
 20
25
 21
20
  0
LINE
  8
0
 10
17
 11
12
 20
20
 21
20
  0
LINE
  8
0
 10
12
 11
12
 20
27.5
 21
32.5
  0
LINE
  8
0
 10
12
 11
17
 20
32.5
 21
32.5
  0
LINE
  8
0
 10
17
 11
17
 20
32.5
 21
27.5
  0
LINE
  8
0
 10
17
 11
12
 20
27.5
 21
27.5
  0
LINE
  8
0
 10
12
 11
12
 20
35
 21
40
  0
LINE
  8
0
 10
12
 11
17
 20
40
 21
40
  0
LINE
  8
0
 10
17
 11
17
 20
40
 21
35
  0
LINE
  8
0
 10
17
 11
12
 20
35
 21
35
  0
LINE
  8
0
 10
18.5
 11
18.512
 20
20
 21
20.188
  0
LINE
  8
0
 10
18.512
 11
18.547
 20
20.188
 21
20.373
  0
LINE
  8
0
 10
18.547
 11
18.605
 20
20.373
 21
20.552
  0
LINE
  8
0
 10
18.605
 11
18.686
 20
20.552
 21
20.723
  0
LINE
  8
0
 10
18.686
 11
18.786
 20
20.723
 21
20.882
  0
LINE
  8
0
 10
18.786
 11
18.907
 20
20.882
 21
21.027
  0
LINE
  8
0
 10
18.907
 11
19.044
 20
21.027
 21
21.156
  0
LINE
  8
0
 10
19.044
 11
19.196
 20
21.156
 21
21.266
  0
LINE
  8
0
 10
19.196
 11
19.361
 20
21.266
 21
21.357
  0
LINE
  8
0
 10
19.361
 11
19.536
 20
21.357
 21
21.427
  0
LINE
  8
0
 10
19.536
 11
19.719
 20
21.427
 21
21.473
  0
LINE
  8
0
 10
19.719
 11
19.906
 20
21.473
 21
21.497
  0
LINE
  8
0
 10
19.906
 11
20.094
 20
21.497
 21
21.497
  0
LINE
  8
0
 10
20.094
 11
20.281
 20
21.497
 21
21.473
  0
LINE
  8
0
 10
20.281
 11
20.464
 20
21.473
 21
21.427
  0
LINE
  8
0
 10
20.464
 11
20.639
 20
21.427
 21
21.357
  0
LINE
  8
0
 10
20.639
 11
20.804
 20
21.357
 21
21.266
  0
LINE
  8
0
 10
20.804
 11
20.956
 20
21.266
 21
21.156
  0
LINE
  8
0
 10
20.956
 11
21.093
 20
21.156
 21
21.027
  0
LINE
  8
0
 10
21.093
 11
21.214
 20
21.027
 21
20.882
  0
LINE
  8
0
 10
21.214
 11
21.314
 20
20.882
 21
20.723
  0
LINE
  8
0
 10
21.314
 11
21.395
 20
20.723
 21
20.552
  0
LINE
  8
0
 10
21.395
 11
21.453
 20
20.552
 21
20.373
  0
LINE
  8
0
 10
21.453
 11
21.488
 20
20.373
 21
20.188
  0
LINE
  8
0
 10
21.488
 11
21.5
 20
20.188
 21
20
  0
LINE
  8
0
 10
21.5
 11
21.488
 20
20
 21
19.812
  0
LINE
  8
0
 10
21.488
 11
21.453
 20
19.812
 21
19.627
  0
LINE
  8
0
 10
21.453
 11
21.395
 20
19.627
 21
19.448
  0
LINE
  8
0
 10
21.395
 11
21.314
 20
19.448
 21
19.277
  0
LINE
  8
0
 10
21.314
 11
21.214
 20
19.277
 21
19.118
  0
LINE
  8
0
 10
21.214
 11
21.093
 20
19.118
 21
18.973
  0
LINE
  8
0
 10
21.093
 11
20.956
 20
18.973
 21
18.844
  0
LINE
  8
0
 10
20.956
 11
20.804
 20
18.844
 21
18.734
  0
LINE
  8
0
 10
20.804
 11
20.639
 20
18.734
 21
18.643
  0
LINE
  8
0
 10
20.639
 11
20.464
 20
18.643
 21
18.573
  0
LINE
  8
0
 10
20.464
 11
20.281
 20
18.573
 21
18.527
  0
LINE
  8
0
 10
20.281
 11
20.094
 20
18.527
 21
18.503
  0
LINE
  8
0
 10
20.094
 11
19.906
 20
18.503
 21
18.503
  0
LINE
  8
0
 10
19.906
 11
19.719
 20
18.503
 21
18.527
  0
LINE
  8
0
 10
19.719
 11
19.536
 20
18.527
 21
18.573
  0
LINE
  8
0
 10
19.536
 11
19.361
 20
18.573
 21
18.643
  0
LINE
  8
0
 10
19.361
 11
19.196
 20
18.643
 21
18.734
  0
LINE
  8
0
 10
19.196
 11
19.044
 20
18.734
 21
18.844
  0
LINE
  8
0
 10
19.044
 11
18.907
 20
18.844
 21
18.973
  0
LINE
  8
0
 10
18.907
 11
18.786
 20
18.973
 21
19.118
  0
LINE
  8
0
 10
18.786
 11
18.686
 20
19.118
 21
19.277
  0
LINE
  8
0
 10
18.686
 11
18.605
 20
19.277
 21
19.448
  0
LINE
  8
0
 10
18.605
 11
18.547
 20
19.448
 21
19.627
  0
LINE
  8
0
 10
18.547
 11
18.512
 20
19.627
 21
19.812
  0
LINE
  8
0
 10
18.512
 11
18.5
 20
19.812
 21
20
  0
LINE
  8
0
 10
18.5
 11
18.512
 20
41
 21
41.188
  0
LINE
  8
0
 10
18.512
 11
18.547
 20
41.188
 21
41.373
  0
LINE
  8
0
 10
18.547
 11
18.605
 20
41.373
 21
41.552
  0
LINE
  8
0
 10
18.605
 11
18.686
 20
41.552
 21
41.723
  0
LINE
  8
0
 10
18.686
 11
18.786
 20
41.723
 21
41.882
  0
LINE
  8
0
 10
18.786
 11
18.907
 20
41.882
 21
42.027
  0
LINE
  8
0
 10
18.907
 11
19.044
 20
42.027
 21
42.156
  0
LINE
  8
0
 10
19.044
 11
19.196
 20
42.156
 21
42.266
  0
LINE
  8
0
 10
19.196
 11
19.361
 20
42.266
 21
42.357
  0
LINE
  8
0
 10
19.361
 11
19.536
 20
42.357
 21
42.427
  0
LINE
  8
0
 10
19.536
 11
19.719
 20
42.427
 21
42.473
  0
LINE
  8
0
 10
19.719
 11
19.906
 20
42.473
 21
42.497
  0
LINE
  8
0
 10
19.906
 11
20.094
 20
42.497
 21
42.497
  0
LINE
  8
0
 10
20.094
 11
20.281
 20
42.497
 21
42.473
  0
LINE
  8
0
 10
20.281
 11
20.464
 20
42.473
 21
42.427
  0
LINE
  8
0
 10
20.464
 11
20.639
 20
42.427
 21
42.357
  0
LINE
  8
0
 10
20.639
 11
20.804
 20
42.357
 21
42.266
  0
LINE
  8
0
 10
20.804
 11
20.956
 20
42.266
 21
42.156
  0
LINE
  8
0
 10
20.956
 11
21.093
 20
42.156
 21
42.027
  0
LINE
  8
0
 10
21.093
 11
21.214
 20
42.027
 21
41.882
  0
LINE
  8
0
 10
21.214
 11
21.314
 20
41.882
 21
41.723
  0
LINE
  8
0
 10
21.314
 11
21.395
 20
41.723
 21
41.552
  0
LINE
  8
0
 10
21.395
 11
21.453
 20
41.552
 21
41.373
  0
LINE
  8
0
 10
21.453
 11
21.488
 20
41.373
 21
41.188
  0
LINE
  8
0
 10
21.488
 11
21.5
 20
41.188
 21
41
  0
LINE
  8
0
 10
21.5
 11
21.488
 20
41
 21
40.812
  0
LINE
  8
0
 10
21.488
 11
21.453
 20
40.812
 21
40.627
  0
LINE
  8
0
 10
21.453
 11
21.395
 20
40.627
 21
40.448
  0
LINE
  8
0
 10
21.395
 11
21.314
 20
40.448
 21
40.277
  0
LINE
  8
0
 10
21.314
 11
21.214
 20
40.277
 21
40.118
  0
LINE
  8
0
 10
21.214
 11
21.093
 20
40.118
 21
39.973
  0
LINE
  8
0
 10
21.093
 11
20.956
 20
39.973
 21
39.844
  0
LINE
  8
0
 10
20.956
 11
20.804
 20
39.844
 21
39.734
  0
LINE
  8
0
 10
20.804
 11
20.639
 20
39.734
 21
39.643
  0
LINE
  8
0
 10
20.639
 11
20.464
 20
39.643
 21
39.573
  0
LINE
  8
0
 10
20.464
 11
20.281
 20
39.573
 21
39.527
  0
LINE
  8
0
 10
20.281
 11
20.094
 20
39.527
 21
39.503
  0
LINE
  8
0
 10
20.094
 11
19.906
 20
39.503
 21
39.503
  0
LINE
  8
0
 10
19.906
 11
19.719
 20
39.503
 21
39.527
  0
LINE
  8
0
 10
19.719
 11
19.536
 20
39.527
 21
39.573
  0
LINE
  8
0
 10
19.536
 11
19.361
 20
39.573
 21
39.643
  0
LINE
  8
0
 10
19.361
 11
19.196
 20
39.643
 21
39.734
  0
LINE
  8
0
 10
19.196
 11
19.044
 20
39.734
 21
39.844
  0
LINE
  8
0
 10
19.044
 11
18.907
 20
39.844
 21
39.973
  0
LINE
  8
0
 10
18.907
 11
18.786
 20
39.973
 21
40.118
  0
LINE
  8
0
 10
18.786
 11
18.686
 20
40.118
 21
40.277
  0
LINE
  8
0
 10
18.686
 11
18.605
 20
40.277
 21
40.448
  0
LINE
  8
0
 10
18.605
 11
18.547
 20
40.448
 21
40.627
  0
LINE
  8
0
 10
18.547
 11
18.512
 20
40.627
 21
40.812
  0
LINE
  8
0
 10
18.512
 11
18.5
 20
40.812
 21
41
  0
ENDSEC
  0
SECTION
  2
OBJECTS
  0
DICTIONARY
  0
ENDSEC
  0
EOF
