  0
SECTION
  2
BLOCKS
  0
ENDSEC
  0
SECTION
  2
ENTITIES
  0
LINE
  8
0
 10
0
 11
0
 20
-12
 21
-5.988
  0
LINE
  8
0
 10
0
 11
0.377
 20
-5.988
 21
-5.988
  0
LINE
  8
0
 10
0.377
 11
1.124
 20
-5.988
 21
-5.894
  0
LINE
  8
0
 10
1.124
 11
1.854
 20
-5.894
 21
-5.706
  0
LINE
  8
0
 10
1.854
 11
2.555
 20
-5.706
 21
-5.429
  0
LINE
  8
0
 10
2.555
 11
3.215
 20
-5.429
 21
-5.066
  0
LINE
  8
0
 10
3.215
 11
3.825
 20
-5.066
 21
-4.623
  0
LINE
  8
0
 10
3.825
 11
4.374
 20
-4.623
 21
-4.107
  0
LINE
  8
0
 10
4.374
 11
4.854
 20
-4.107
 21
-3.527
  0
LINE
  8
0
 10
4.854
 11
5.258
 20
-3.527
 21
-2.891
  0
LINE
  8
0
 10
5.258
 11
5.579
 20
-2.891
 21
-2.209
  0
LINE
  8
0
 10
5.579
 11
5.811
 20
-2.209
 21
-1.492
  0
LINE
  8
0
 10
5.811
 11
5.953
 20
-1.492
 21
-0.752
  0
LINE
  8
0
 10
5.953
 11
6
 20
-0.752
 21
0
  0
LINE
  8
0
 10
6
 11
5.953
 20
0
 21
0.752
  0
LINE
  8
0
 10
5.953
 11
5.811
 20
0.752
 21
1.492
  0
LINE
  8
0
 10
5.811
 11
5.579
 20
1.492
 21
2.209
  0
LINE
  8
0
 10
5.579
 11
5.258
 20
2.209
 21
2.891
  0
LINE
  8
0
 10
5.258
 11
4.854
 20
2.891
 21
3.527
  0
LINE
  8
0
 10
4.854
 11
4.374
 20
3.527
 21
4.107
  0
LINE
  8
0
 10
4.374
 11
3.825
 20
4.107
 21
4.623
  0
LINE
  8
0
 10
3.825
 11
3.215
 20
4.623
 21
5.066
  0
LINE
  8
0
 10
3.215
 11
2.555
 20
5.066
 21
5.429
  0
LINE
  8
0
 10
2.555
 11
1.854
 20
5.429
 21
5.706
  0
LINE
  8
0
 10
1.854
 11
1.124
 20
5.706
 21
5.894
  0
LINE
  8
0
 10
1.124
 11
0.377
 20
5.894
 21
5.988
  0
LINE
  8
0
 10
0.377
 11
0
 20
5.988
 21
5.988
  0
LINE
  8
0
 10
0
 11
0
 20
5.988
 21
12
  0
LINE
  8
0
 10
0
 11
1
 20
12
 21
12
  0
LINE
  8
0
 10
1
 11
1
 20
12
 21
17
  0
LINE
  8
0
 10
1
 11
9
 20
17
 21
17
  0
LINE
  8
0
 10
9
 11
9
 20
17
 21
12
  0
LINE
  8
0
 10
9
 11
10
 20
12
 21
12
  0
LINE
  8
0
 10
10
 11
10
 20
12
 21
-12
  0
LINE
  8
0
 10
10
 11
9
 20
-12
 21
-12
  0
LINE
  8
0
 10
9
 11
9
 20
-12
 21
-17
  0
LINE
  8
0
 10
9
 11
1
 20
-17
 21
-17
  0
LINE
  8
0
 10
1
 11
1
 20
-17
 21
-12
  0
LINE
  8
0
 10
1
 11
0
 20
-12
 21
-12
  0
LINE
  8
0
 10
5
 11
5.012
 20
-9.5
 21
-9.312
  0
LINE
  8
0
 10
5.012
 11
5.047
 20
-9.312
 21
-9.127
  0
LINE
  8
0
 10
5.047
 11
5.105
 20
-9.127
 21
-8.948
  0
LINE
  8
0
 10
5.105
 11
5.186
 20
-8.948
 21
-8.777
  0
LINE
  8
0
 10
5.186
 11
5.286
 20
-8.777
 21
-8.618
  0
LINE
  8
0
 10
5.286
 11
5.407
 20
-8.618
 21
-8.473
  0
LINE
  8
0
 10
5.407
 11
5.544
 20
-8.473
 21
-8.344
  0
LINE
  8
0
 10
5.544
 11
5.696
 20
-8.344
 21
-8.234
  0
LINE
  8
0
 10
5.696
 11
5.861
 20
-8.234
 21
-8.143
  0
LINE
  8
0
 10
5.861
 11
6.036
 20
-8.143
 21
-8.073
  0
LINE
  8
0
 10
6.036
 11
6.219
 20
-8.073
 21
-8.027
  0
LINE
  8
0
 10
6.219
 11
6.406
 20
-8.027
 21
-8.003
  0
LINE
  8
0
 10
6.406
 11
6.594
 20
-8.003
 21
-8.003
  0
LINE
  8
0
 10
6.594
 11
6.781
 20
-8.003
 21
-8.027
  0
LINE
  8
0
 10
6.781
 11
6.964
 20
-8.027
 21
-8.073
  0
LINE
  8
0
 10
6.964
 11
7.139
 20
-8.073
 21
-8.143
  0
LINE
  8
0
 10
7.139
 11
7.304
 20
-8.143
 21
-8.234
  0
LINE
  8
0
 10
7.304
 11
7.456
 20
-8.234
 21
-8.344
  0
LINE
  8
0
 10
7.456
 11
7.593
 20
-8.344
 21
-8.473
  0
LINE
  8
0
 10
7.593
 11
7.714
 20
-8.473
 21
-8.618
  0
LINE
  8
0
 10
7.714
 11
7.814
 20
-8.618
 21
-8.777
  0
LINE
  8
0
 10
7.814
 11
7.895
 20
-8.777
 21
-8.948
  0
LINE
  8
0
 10
7.895
 11
7.953
 20
-8.948
 21
-9.127
  0
LINE
  8
0
 10
7.953
 11
7.988
 20
-9.127
 21
-9.312
  0
LINE
  8
0
 10
7.988
 11
8
 20
-9.312
 21
-9.5
  0
LINE
  8
0
 10
8
 11
7.988
 20
-9.5
 21
-9.688
  0
LINE
  8
0
 10
7.988
 11
7.953
 20
-9.688
 21
-9.873
  0
LINE
  8
0
 10
7.953
 11
7.895
 20
-9.873
 21
-10.052
  0
LINE
  8
0
 10
7.895
 11
7.814
 20
-10.052
 21
-10.223
  0
LINE
  8
0
 10
7.814
 11
7.714
 20
-10.223
 21
-10.382
  0
LINE
  8
0
 10
7.714
 11
7.593
 20
-10.382
 21
-10.527
  0
LINE
  8
0
 10
7.593
 11
7.456
 20
-10.527
 21
-10.656
  0
LINE
  8
0
 10
7.456
 11
7.304
 20
-10.656
 21
-10.766
  0
LINE
  8
0
 10
7.304
 11
7.139
 20
-10.766
 21
-10.857
  0
LINE
  8
0
 10
7.139
 11
6.964
 20
-10.857
 21
-10.927
  0
LINE
  8
0
 10
6.964
 11
6.781
 20
-10.927
 21
-10.973
  0
LINE
  8
0
 10
6.781
 11
6.594
 20
-10.973
 21
-10.997
  0
LINE
  8
0
 10
6.594
 11
6.406
 20
-10.997
 21
-10.997
  0
LINE
  8
0
 10
6.406
 11
6.219
 20
-10.997
 21
-10.973
  0
LINE
  8
0
 10
6.219
 11
6.036
 20
-10.973
 21
-10.927
  0
LINE
  8
0
 10
6.036
 11
5.861
 20
-10.927
 21
-10.857
  0
LINE
  8
0
 10
5.861
 11
5.696
 20
-10.857
 21
-10.766
  0
LINE
  8
0
 10
5.696
 11
5.544
 20
-10.766
 21
-10.656
  0
LINE
  8
0
 10
5.544
 11
5.407
 20
-10.656
 21
-10.527
  0
LINE
  8
0
 10
5.407
 11
5.286
 20
-10.527
 21
-10.382
  0
LINE
  8
0
 10
5.286
 11
5.186
 20
-10.382
 21
-10.223
  0
LINE
  8
0
 10
5.186
 11
5.105
 20
-10.223
 21
-10.052
  0
LINE
  8
0
 10
5.105
 11
5.047
 20
-10.052
 21
-9.873
  0
LINE
  8
0
 10
5.047
 11
5.012
 20
-9.873
 21
-9.688
  0
LINE
  8
0
 10
5.012
 11
5
 20
-9.688
 21
-9.5
  0
LINE
  8
0
 10
5
 11
5.012
 20
9.5
 21
9.688
  0
LINE
  8
0
 10
5.012
 11
5.047
 20
9.688
 21
9.873
  0
LINE
  8
0
 10
5.047
 11
5.105
 20
9.873
 21
10.052
  0
LINE
  8
0
 10
5.105
 11
5.186
 20
10.052
 21
10.223
  0
LINE
  8
0
 10
5.186
 11
5.286
 20
10.223
 21
10.382
  0
LINE
  8
0
 10
5.286
 11
5.407
 20
10.382
 21
10.527
  0
LINE
  8
0
 10
5.407
 11
5.544
 20
10.527
 21
10.656
  0
LINE
  8
0
 10
5.544
 11
5.696
 20
10.656
 21
10.766
  0
LINE
  8
0
 10
5.696
 11
5.861
 20
10.766
 21
10.857
  0
LINE
  8
0
 10
5.861
 11
6.036
 20
10.857
 21
10.927
  0
LINE
  8
0
 10
6.036
 11
6.219
 20
10.927
 21
10.973
  0
LINE
  8
0
 10
6.219
 11
6.406
 20
10.973
 21
10.997
  0
LINE
  8
0
 10
6.406
 11
6.594
 20
10.997
 21
10.997
  0
LINE
  8
0
 10
6.594
 11
6.781
 20
10.997
 21
10.973
  0
LINE
  8
0
 10
6.781
 11
6.964
 20
10.973
 21
10.927
  0
LINE
  8
0
 10
6.964
 11
7.139
 20
10.927
 21
10.857
  0
LINE
  8
0
 10
7.139
 11
7.304
 20
10.857
 21
10.766
  0
LINE
  8
0
 10
7.304
 11
7.456
 20
10.766
 21
10.656
  0
LINE
  8
0
 10
7.456
 11
7.593
 20
10.656
 21
10.527
  0
LINE
  8
0
 10
7.593
 11
7.714
 20
10.527
 21
10.382
  0
LINE
  8
0
 10
7.714
 11
7.814
 20
10.382
 21
10.223
  0
LINE
  8
0
 10
7.814
 11
7.895
 20
10.223
 21
10.052
  0
LINE
  8
0
 10
7.895
 11
7.953
 20
10.052
 21
9.873
  0
LINE
  8
0
 10
7.953
 11
7.988
 20
9.873
 21
9.688
  0
LINE
  8
0
 10
7.988
 11
8
 20
9.688
 21
9.5
  0
LINE
  8
0
 10
8
 11
7.988
 20
9.5
 21
9.312
  0
LINE
  8
0
 10
7.988
 11
7.953
 20
9.312
 21
9.127
  0
LINE
  8
0
 10
7.953
 11
7.895
 20
9.127
 21
8.948
  0
LINE
  8
0
 10
7.895
 11
7.814
 20
8.948
 21
8.777
  0
LINE
  8
0
 10
7.814
 11
7.714
 20
8.777
 21
8.618
  0
LINE
  8
0
 10
7.714
 11
7.593
 20
8.618
 21
8.473
  0
LINE
  8
0
 10
7.593
 11
7.456
 20
8.473
 21
8.344
  0
LINE
  8
0
 10
7.456
 11
7.304
 20
8.344
 21
8.234
  0
LINE
  8
0
 10
7.304
 11
7.139
 20
8.234
 21
8.143
  0
LINE
  8
0
 10
7.139
 11
6.964
 20
8.143
 21
8.073
  0
LINE
  8
0
 10
6.964
 11
6.781
 20
8.073
 21
8.027
  0
LINE
  8
0
 10
6.781
 11
6.594
 20
8.027
 21
8.003
  0
LINE
  8
0
 10
6.594
 11
6.406
 20
8.003
 21
8.003
  0
LINE
  8
0
 10
6.406
 11
6.219
 20
8.003
 21
8.027
  0
LINE
  8
0
 10
6.219
 11
6.036
 20
8.027
 21
8.073
  0
LINE
  8
0
 10
6.036
 11
5.861
 20
8.073
 21
8.143
  0
LINE
  8
0
 10
5.861
 11
5.696
 20
8.143
 21
8.234
  0
LINE
  8
0
 10
5.696
 11
5.544
 20
8.234
 21
8.344
  0
LINE
  8
0
 10
5.544
 11
5.407
 20
8.344
 21
8.473
  0
LINE
  8
0
 10
5.407
 11
5.286
 20
8.473
 21
8.618
  0
LINE
  8
0
 10
5.286
 11
5.186
 20
8.618
 21
8.777
  0
LINE
  8
0
 10
5.186
 11
5.105
 20
8.777
 21
8.948
  0
LINE
  8
0
 10
5.105
 11
5.047
 20
8.948
 21
9.127
  0
LINE
  8
0
 10
5.047
 11
5.012
 20
9.127
 21
9.312
  0
LINE
  8
0
 10
5.012
 11
5
 20
9.312
 21
9.5
  0
ENDSEC
  0
SECTION
  2
OBJECTS
  0
DICTIONARY
  0
ENDSEC
  0
EOF
