  0
SECTION
  2
BLOCKS
  0
ENDSEC
  0
SECTION
  2
ENTITIES
  0
LINE
  8
0
 10
0
 11
0
 20
-12
 21
-6.986
  0
LINE
  8
0
 10
0
 11
0.44
 20
-6.986
 21
-6.986
  0
LINE
  8
0
 10
0.44
 11
1.312
 20
-6.986
 21
-6.876
  0
LINE
  8
0
 10
1.312
 11
2.163
 20
-6.876
 21
-6.657
  0
LINE
  8
0
 10
2.163
 11
2.98
 20
-6.657
 21
-6.334
  0
LINE
  8
0
 10
2.98
 11
3.751
 20
-6.334
 21
-5.91
  0
LINE
  8
0
 10
3.751
 11
4.462
 20
-5.91
 21
-5.394
  0
LINE
  8
0
 10
4.462
 11
5.103
 20
-5.394
 21
-4.792
  0
LINE
  8
0
 10
5.103
 11
5.663
 20
-4.792
 21
-4.114
  0
LINE
  8
0
 10
5.663
 11
6.134
 20
-4.114
 21
-3.372
  0
LINE
  8
0
 10
6.134
 11
6.508
 20
-3.372
 21
-2.577
  0
LINE
  8
0
 10
6.508
 11
6.78
 20
-2.577
 21
-1.741
  0
LINE
  8
0
 10
6.78
 11
6.945
 20
-1.741
 21
-0.877
  0
LINE
  8
0
 10
6.945
 11
7
 20
-0.877
 21
0
  0
LINE
  8
0
 10
7
 11
6.945
 20
0
 21
0.877
  0
LINE
  8
0
 10
6.945
 11
6.78
 20
0.877
 21
1.741
  0
LINE
  8
0
 10
6.78
 11
6.508
 20
1.741
 21
2.577
  0
LINE
  8
0
 10
6.508
 11
6.134
 20
2.577
 21
3.372
  0
LINE
  8
0
 10
6.134
 11
5.663
 20
3.372
 21
4.114
  0
LINE
  8
0
 10
5.663
 11
5.103
 20
4.114
 21
4.792
  0
LINE
  8
0
 10
5.103
 11
4.462
 20
4.792
 21
5.394
  0
LINE
  8
0
 10
4.462
 11
3.751
 20
5.394
 21
5.91
  0
LINE
  8
0
 10
3.751
 11
2.98
 20
5.91
 21
6.334
  0
LINE
  8
0
 10
2.98
 11
2.163
 20
6.334
 21
6.657
  0
LINE
  8
0
 10
2.163
 11
1.312
 20
6.657
 21
6.876
  0
LINE
  8
0
 10
1.312
 11
0.44
 20
6.876
 21
6.986
  0
LINE
  8
0
 10
0.44
 11
0
 20
6.986
 21
6.986
  0
LINE
  8
0
 10
0
 11
0
 20
6.986
 21
12
  0
LINE
  8
0
 10
0
 11
1
 20
12
 21
12
  0
LINE
  8
0
 10
1
 11
1
 20
12
 21
17
  0
LINE
  8
0
 10
1
 11
9
 20
17
 21
17
  0
LINE
  8
0
 10
9
 11
9
 20
17
 21
12
  0
LINE
  8
0
 10
9
 11
10
 20
12
 21
12
  0
LINE
  8
0
 10
10
 11
10
 20
12
 21
-12
  0
LINE
  8
0
 10
10
 11
9
 20
-12
 21
-12
  0
LINE
  8
0
 10
9
 11
9
 20
-12
 21
-17
  0
LINE
  8
0
 10
9
 11
1
 20
-17
 21
-17
  0
LINE
  8
0
 10
1
 11
1
 20
-17
 21
-12
  0
LINE
  8
0
 10
1
 11
0
 20
-12
 21
-12
  0
LINE
  8
0
 10
5
 11
5.012
 20
-9.5
 21
-9.312
  0
LINE
  8
0
 10
5.012
 11
5.047
 20
-9.312
 21
-9.127
  0
LINE
  8
0
 10
5.047
 11
5.105
 20
-9.127
 21
-8.948
  0
LINE
  8
0
 10
5.105
 11
5.186
 20
-8.948
 21
-8.777
  0
LINE
  8
0
 10
5.186
 11
5.286
 20
-8.777
 21
-8.618
  0
LINE
  8
0
 10
5.286
 11
5.407
 20
-8.618
 21
-8.473
  0
LINE
  8
0
 10
5.407
 11
5.544
 20
-8.473
 21
-8.344
  0
LINE
  8
0
 10
5.544
 11
5.696
 20
-8.344
 21
-8.234
  0
LINE
  8
0
 10
5.696
 11
5.861
 20
-8.234
 21
-8.143
  0
LINE
  8
0
 10
5.861
 11
6.036
 20
-8.143
 21
-8.073
  0
LINE
  8
0
 10
6.036
 11
6.219
 20
-8.073
 21
-8.027
  0
LINE
  8
0
 10
6.219
 11
6.406
 20
-8.027
 21
-8.003
  0
LINE
  8
0
 10
6.406
 11
6.594
 20
-8.003
 21
-8.003
  0
LINE
  8
0
 10
6.594
 11
6.781
 20
-8.003
 21
-8.027
  0
LINE
  8
0
 10
6.781
 11
6.964
 20
-8.027
 21
-8.073
  0
LINE
  8
0
 10
6.964
 11
7.139
 20
-8.073
 21
-8.143
  0
LINE
  8
0
 10
7.139
 11
7.304
 20
-8.143
 21
-8.234
  0
LINE
  8
0
 10
7.304
 11
7.456
 20
-8.234
 21
-8.344
  0
LINE
  8
0
 10
7.456
 11
7.593
 20
-8.344
 21
-8.473
  0
LINE
  8
0
 10
7.593
 11
7.714
 20
-8.473
 21
-8.618
  0
LINE
  8
0
 10
7.714
 11
7.814
 20
-8.618
 21
-8.777
  0
LINE
  8
0
 10
7.814
 11
7.895
 20
-8.777
 21
-8.948
  0
LINE
  8
0
 10
7.895
 11
7.953
 20
-8.948
 21
-9.127
  0
LINE
  8
0
 10
7.953
 11
7.988
 20
-9.127
 21
-9.312
  0
LINE
  8
0
 10
7.988
 11
8
 20
-9.312
 21
-9.5
  0
LINE
  8
0
 10
8
 11
7.988
 20
-9.5
 21
-9.688
  0
LINE
  8
0
 10
7.988
 11
7.953
 20
-9.688
 21
-9.873
  0
LINE
  8
0
 10
7.953
 11
7.895
 20
-9.873
 21
-10.052
  0
LINE
  8
0
 10
7.895
 11
7.814
 20
-10.052
 21
-10.223
  0
LINE
  8
0
 10
7.814
 11
7.714
 20
-10.223
 21
-10.382
  0
LINE
  8
0
 10
7.714
 11
7.593
 20
-10.382
 21
-10.527
  0
LINE
  8
0
 10
7.593
 11
7.456
 20
-10.527
 21
-10.656
  0
LINE
  8
0
 10
7.456
 11
7.304
 20
-10.656
 21
-10.766
  0
LINE
  8
0
 10
7.304
 11
7.139
 20
-10.766
 21
-10.857
  0
LINE
  8
0
 10
7.139
 11
6.964
 20
-10.857
 21
-10.927
  0
LINE
  8
0
 10
6.964
 11
6.781
 20
-10.927
 21
-10.973
  0
LINE
  8
0
 10
6.781
 11
6.594
 20
-10.973
 21
-10.997
  0
LINE
  8
0
 10
6.594
 11
6.406
 20
-10.997
 21
-10.997
  0
LINE
  8
0
 10
6.406
 11
6.219
 20
-10.997
 21
-10.973
  0
LINE
  8
0
 10
6.219
 11
6.036
 20
-10.973
 21
-10.927
  0
LINE
  8
0
 10
6.036
 11
5.861
 20
-10.927
 21
-10.857
  0
LINE
  8
0
 10
5.861
 11
5.696
 20
-10.857
 21
-10.766
  0
LINE
  8
0
 10
5.696
 11
5.544
 20
-10.766
 21
-10.656
  0
LINE
  8
0
 10
5.544
 11
5.407
 20
-10.656
 21
-10.527
  0
LINE
  8
0
 10
5.407
 11
5.286
 20
-10.527
 21
-10.382
  0
LINE
  8
0
 10
5.286
 11
5.186
 20
-10.382
 21
-10.223
  0
LINE
  8
0
 10
5.186
 11
5.105
 20
-10.223
 21
-10.052
  0
LINE
  8
0
 10
5.105
 11
5.047
 20
-10.052
 21
-9.873
  0
LINE
  8
0
 10
5.047
 11
5.012
 20
-9.873
 21
-9.688
  0
LINE
  8
0
 10
5.012
 11
5
 20
-9.688
 21
-9.5
  0
LINE
  8
0
 10
5
 11
5.012
 20
9.5
 21
9.688
  0
LINE
  8
0
 10
5.012
 11
5.047
 20
9.688
 21
9.873
  0
LINE
  8
0
 10
5.047
 11
5.105
 20
9.873
 21
10.052
  0
LINE
  8
0
 10
5.105
 11
5.186
 20
10.052
 21
10.223
  0
LINE
  8
0
 10
5.186
 11
5.286
 20
10.223
 21
10.382
  0
LINE
  8
0
 10
5.286
 11
5.407
 20
10.382
 21
10.527
  0
LINE
  8
0
 10
5.407
 11
5.544
 20
10.527
 21
10.656
  0
LINE
  8
0
 10
5.544
 11
5.696
 20
10.656
 21
10.766
  0
LINE
  8
0
 10
5.696
 11
5.861
 20
10.766
 21
10.857
  0
LINE
  8
0
 10
5.861
 11
6.036
 20
10.857
 21
10.927
  0
LINE
  8
0
 10
6.036
 11
6.219
 20
10.927
 21
10.973
  0
LINE
  8
0
 10
6.219
 11
6.406
 20
10.973
 21
10.997
  0
LINE
  8
0
 10
6.406
 11
6.594
 20
10.997
 21
10.997
  0
LINE
  8
0
 10
6.594
 11
6.781
 20
10.997
 21
10.973
  0
LINE
  8
0
 10
6.781
 11
6.964
 20
10.973
 21
10.927
  0
LINE
  8
0
 10
6.964
 11
7.139
 20
10.927
 21
10.857
  0
LINE
  8
0
 10
7.139
 11
7.304
 20
10.857
 21
10.766
  0
LINE
  8
0
 10
7.304
 11
7.456
 20
10.766
 21
10.656
  0
LINE
  8
0
 10
7.456
 11
7.593
 20
10.656
 21
10.527
  0
LINE
  8
0
 10
7.593
 11
7.714
 20
10.527
 21
10.382
  0
LINE
  8
0
 10
7.714
 11
7.814
 20
10.382
 21
10.223
  0
LINE
  8
0
 10
7.814
 11
7.895
 20
10.223
 21
10.052
  0
LINE
  8
0
 10
7.895
 11
7.953
 20
10.052
 21
9.873
  0
LINE
  8
0
 10
7.953
 11
7.988
 20
9.873
 21
9.688
  0
LINE
  8
0
 10
7.988
 11
8
 20
9.688
 21
9.5
  0
LINE
  8
0
 10
8
 11
7.988
 20
9.5
 21
9.312
  0
LINE
  8
0
 10
7.988
 11
7.953
 20
9.312
 21
9.127
  0
LINE
  8
0
 10
7.953
 11
7.895
 20
9.127
 21
8.948
  0
LINE
  8
0
 10
7.895
 11
7.814
 20
8.948
 21
8.777
  0
LINE
  8
0
 10
7.814
 11
7.714
 20
8.777
 21
8.618
  0
LINE
  8
0
 10
7.714
 11
7.593
 20
8.618
 21
8.473
  0
LINE
  8
0
 10
7.593
 11
7.456
 20
8.473
 21
8.344
  0
LINE
  8
0
 10
7.456
 11
7.304
 20
8.344
 21
8.234
  0
LINE
  8
0
 10
7.304
 11
7.139
 20
8.234
 21
8.143
  0
LINE
  8
0
 10
7.139
 11
6.964
 20
8.143
 21
8.073
  0
LINE
  8
0
 10
6.964
 11
6.781
 20
8.073
 21
8.027
  0
LINE
  8
0
 10
6.781
 11
6.594
 20
8.027
 21
8.003
  0
LINE
  8
0
 10
6.594
 11
6.406
 20
8.003
 21
8.003
  0
LINE
  8
0
 10
6.406
 11
6.219
 20
8.003
 21
8.027
  0
LINE
  8
0
 10
6.219
 11
6.036
 20
8.027
 21
8.073
  0
LINE
  8
0
 10
6.036
 11
5.861
 20
8.073
 21
8.143
  0
LINE
  8
0
 10
5.861
 11
5.696
 20
8.143
 21
8.234
  0
LINE
  8
0
 10
5.696
 11
5.544
 20
8.234
 21
8.344
  0
LINE
  8
0
 10
5.544
 11
5.407
 20
8.344
 21
8.473
  0
LINE
  8
0
 10
5.407
 11
5.286
 20
8.473
 21
8.618
  0
LINE
  8
0
 10
5.286
 11
5.186
 20
8.618
 21
8.777
  0
LINE
  8
0
 10
5.186
 11
5.105
 20
8.777
 21
8.948
  0
LINE
  8
0
 10
5.105
 11
5.047
 20
8.948
 21
9.127
  0
LINE
  8
0
 10
5.047
 11
5.012
 20
9.127
 21
9.312
  0
LINE
  8
0
 10
5.012
 11
5
 20
9.312
 21
9.5
  0
ENDSEC
  0
SECTION
  2
OBJECTS
  0
DICTIONARY
  0
ENDSEC
  0
EOF
