  0
SECTION
  2
HEADER
  9
$ACADVER
  1
AC1014
  9
$HANDSEED
  5
FFFF
  9
$MEASUREMENT
 70
     1
  0
ENDSEC
  0
SECTION
  2
TABLES
  0
TABLE
  2
VPORT
  5
8
330
0
100
AcDbSymbolTable
 70
     4
  0
VPORT
  5
2E
330
8
100
AcDbSymbolTableRecord
100
AcDbViewportTableRecord
  2
*ACTIVE
 70
     0
 10
0.0
 20
0.0
 11
1.0
 21
1.0
 12
210.0
 22
148.5
 13
0.0
 23
0.0
 14
10.0
 24
10.0
 15
10.0
 25
10.0
 16
0.0
 26
0.0
 36
1.0
 17
0.0
 27
0.0
 37
0.0
 40
341.0
 41
1.24
 42
50.0
 43
0.0
 44
0.0
 50
0.0
 51
0.0
 71
     0
 72
   100
 73
     1
 74
     3
 75
     0
 76
     0
 77
     0
 78
     0
  0
ENDTAB
  0
TABLE
  2
LTYPE
  5
5
330
0
100
AcDbSymbolTable
 70
     1
  0
LTYPE
  5
14
330
5
100
AcDbSymbolTableRecord
100
AcDbLinetypeTableRecord
  2
BYBLOCK
 70
     0
  3

 72
    65
 73
     0
 40
0.0
  0
LTYPE
  5
15
330
5
100
AcDbSymbolTableRecord
100
AcDbLinetypeTableRecord
  2
BYLAYER
 70
     0
  3

 72
    65
 73
     0
 40
0.0
  0
LTYPE
  5
16
330
5
100
AcDbSymbolTableRecord
100
AcDbLinetypeTableRecord
  2
CONTINUOUS
 70
     0
  3
Solid line
 72
    65
 73
     0
 40
0.0
  0
ENDTAB
  0
TABLE
  2
LAYER
  5
2
100
AcDbSymbolTable
 70
2
  0
LAYER
  5
50
100
AcDbSymbolTableRecord
100
AcDbLayerTableRecord
  2
0
 70
0
  6
CONTINUOUS
  0
LAYER
  5
51
100
AcDbSymbolTableRecord
100
AcDbLayerTableRecord
  2
Ebene_1
 70
0
  6
CONTINUOUS
  0
ENDTAB
  0
TABLE
  2
STYLE
  5
3
330
0
100
AcDbSymbolTable
 70
     1
  0
STYLE
  5
11
330
3
100
AcDbSymbolTableRecord
100
AcDbTextStyleTableRecord
  2
STANDARD
 70
     0
 40
0.0
 41
1.0
 50
0.0
 71
     0
 42
2.5
  3
txt
  4

  0
ENDTAB
  0
TABLE
  2
VIEW
  5
6
330
0
100
AcDbSymbolTable
 70
     0
  0
ENDTAB
  0
TABLE
  2
UCS
  5
7
330
0
100
AcDbSymbolTable
 70
     0
  0
ENDTAB
  0
TABLE
  2
APPID
  5
9
330
0
100
AcDbSymbolTable
 70
     2
  0
APPID
  5
12
330
9
100
AcDbSymbolTableRecord
100
AcDbRegAppTableRecord
  2
ACAD
 70
     0
  0
ENDTAB
  0
TABLE
  2
DIMSTYLE
  5
A
330
0
100
AcDbSymbolTable
 70
     1
  0
DIMSTYLE
105
27
330
A
100
AcDbSymbolTableRecord
100
AcDbDimStyleTableRecord
  2
ISO-25
 70
     0
  3

  4

  5

  6

  7

 40
1.0
 41
2.5
 42
0.625
 43
3.75
 44
1.25
 45
0.0
 46
0.0
 47
0.0
 48
0.0
140
2.5
141
2.5
142
0.0
143
0.03937007874016
144
1.0
145
0.0
146
1.0
147
0.625
 71
     0
 72
     0
 73
     0
 74
     0
 75
     0
 76
     0
 77
     1
 78
     8
170
     0
171
     3
172
     1
173
     0
174
     0
175
     0
176
     0
177
     0
178
     0
270
     2
271
     2
272
     2
273
     2
274
     3
340
11
275
     0
280
     0
281
     0
282
     0
283
     0
284
     8
285
     0
286
     0
287
     3
288
     0
  0
ENDTAB
  0
TABLE
  2
BLOCK_RECORD
  5
1
330
0
100
AcDbSymbolTable
 70
     1
  0
BLOCK_RECORD
  5
1F
330
1
100
AcDbSymbolTableRecord
100
AcDbBlockTableRecord
  2
*MODEL_SPACE
  0
BLOCK_RECORD
  5
1B
330
1
100
AcDbSymbolTableRecord
100
AcDbBlockTableRecord
  2
*PAPER_SPACE
  0
ENDTAB
  0
ENDSEC
  0
SECTION
  2
BLOCKS
  0
BLOCK
  5
20
330
1F
100
AcDbEntity
  8
0
100
AcDbBlockBegin
  2
*MODEL_SPACE
 70
     0
 10
0.0
 20
0.0
 30
0.0
  3
*MODEL_SPACE
  1

  0
ENDBLK
  5
21
330
1F
100
AcDbEntity
  8
0
100
AcDbBlockEnd
  0
BLOCK
  5
1C
330
1B
100
AcDbEntity
 67
     1
  8
0
100
AcDbBlockBegin
  2
*PAPER_SPACE
  1

  0
ENDBLK
  5
1D
330
1B
100
AcDbEntity
 67
     1
  8
0
100
AcDbBlockEnd
  0
ENDSEC
  0
SECTION
  2
ENTITIES
  0
LWPOLYLINE
  5
100
100
AcDbEntity
  8
Ebene_1
 62
7
100
AcDbPolyline
 90
13
 70
0
 10
0.141111
 20
0.141117
 30
0.0
 10
0.141111
 20
5.141135
 30
0.0
 10
5.141111
 20
5.141135
 30
0.0
 10
5.141111
 20
15.141115
 30
0.0
 10
0.141111
 20
15.141115
 30
0.0
 10
0.141111
 20
20.141134
 30
0.0
 10
30.141111
 20
20.141134
 30
0.0
 10
30.141111
 20
15.141115
 30
0.0
 10
25.141111
 20
15.141115
 30
0.0
 10
25.141111
 20
5.141135
 30
0.0
 10
30.141111
 20
5.141135
 30
0.0
 10
30.141111
 20
0.141117
 30
0.0
 10
0.141111
 20
0.141117
 30
0.0
  0
LWPOLYLINE
  5
101
100
AcDbEntity
  8
Ebene_1
 62
7
100
AcDbPolyline
 90
51
 70
0
 10
11.141111
 20
10.141125
 30
0.0
 10
11.173111
 20
10.642126
 30
0.0
 10
11.267111
 20
11.136128
 30
0.0
 10
11.422111
 20
11.613112
 30
0.0
 10
11.636111
 20
12.068111
 30
0.0
 10
11.905111
 20
12.492121
 30
0.0
 10
12.225111
 20
12.879133
 30
0.0
 10
12.591111
 20
13.223133
 30
0.0
 10
12.998111
 20
13.518112
 30
0.0
 10
13.438111
 20
13.760117
 30
0.0
 10
13.905111
 20
13.945114
 30
0.0
 10
14.391111
 20
14.070110
 30
0.0
 10
14.890111
 20
14.133131
 30
0.0
 10
15.392111
 20
14.133131
 30
0.0
 10
15.891111
 20
14.070110
 30
0.0
 10
16.377111
 20
13.945114
 30
0.0
 10
16.844111
 20
13.760117
 30
0.0
 10
17.284111
 20
13.518112
 30
0.0
 10
17.691111
 20
13.223133
 30
0.0
 10
18.057111
 20
12.879133
 30
0.0
 10
18.377111
 20
12.492121
 30
0.0
 10
18.646111
 20
12.068111
 30
0.0
 10
18.860111
 20
11.613112
 30
0.0
 10
19.015111
 20
11.136128
 30
0.0
 10
19.109111
 20
10.642126
 30
0.0
 10
19.141111
 20
10.141125
 30
0.0
 10
19.109111
 20
9.640125
 30
0.0
 10
19.015111
 20
9.146123
 30
0.0
 10
18.860111
 20
8.669111
 30
0.0
 10
18.646111
 20
8.214112
 30
0.0
 10
18.377111
 20
7.790130
 30
0.0
 10
18.057111
 20
7.403118
 30
0.0
 10
17.691111
 20
7.059118
 30
0.0
 10
17.284111
 20
6.764111
 30
0.0
 10
16.844111
 20
6.522133
 30
0.0
 10
16.377111
 20
6.337137
 30
0.0
 10
15.891111
 20
6.212112
 30
0.0
 10
15.392111
 20
6.149120
 30
0.0
 10
14.890111
 20
6.149120
 30
0.0
 10
14.391111
 20
6.212112
 30
0.0
 10
13.905111
 20
6.337137
 30
0.0
 10
13.438111
 20
6.522133
 30
0.0
 10
12.998111
 20
6.764111
 30
0.0
 10
12.591111
 20
7.059118
 30
0.0
 10
12.225111
 20
7.403118
 30
0.0
 10
11.905111
 20
7.790130
 30
0.0
 10
11.636111
 20
8.214112
 30
0.0
 10
11.422111
 20
8.669111
 30
0.0
 10
11.267111
 20
9.146123
 30
0.0
 10
11.173111
 20
9.640125
 30
0.0
 10
11.141111
 20
10.141125
 30
0.0
  0
LWPOLYLINE
  5
102
100
AcDbEntity
  8
Ebene_1
 62
7
100
AcDbPolyline
 90
13
 70
0
 10
30.141112
 20
0.141117
 30
0.0
 10
30.141112
 20
5.141135
 30
0.0
 10
35.141111
 20
5.141135
 30
0.0
 10
35.141111
 20
15.141115
 30
0.0
 10
30.141112
 20
15.141115
 30
0.0
 10
30.141112
 20
20.141134
 30
0.0
 10
60.141111
 20
20.141134
 30
0.0
 10
60.141111
 20
15.141115
 30
0.0
 10
55.141111
 20
15.141115
 30
0.0
 10
55.141111
 20
5.141135
 30
0.0
 10
60.141111
 20
5.141135
 30
0.0
 10
60.141111
 20
0.141117
 30
0.0
 10
30.141112
 20
0.141117
 30
0.0
  0
LWPOLYLINE
  5
103
100
AcDbEntity
  8
Ebene_1
 62
7
100
AcDbPolyline
 90
51
 70
0
 10
41.141112
 20
10.141125
 30
0.0
 10
41.173111
 20
10.642126
 30
0.0
 10
41.267111
 20
11.136128
 30
0.0
 10
41.422111
 20
11.613112
 30
0.0
 10
41.636112
 20
12.068111
 30
0.0
 10
41.905111
 20
12.492121
 30
0.0
 10
42.225112
 20
12.879133
 30
0.0
 10
42.591111
 20
13.223133
 30
0.0
 10
42.998111
 20
13.518112
 30
0.0
 10
43.438111
 20
13.760117
 30
0.0
 10
43.905111
 20
13.945114
 30
0.0
 10
44.391112
 20
14.070110
 30
0.0
 10
44.890111
 20
14.133131
 30
0.0
 10
45.392111
 20
14.133131
 30
0.0
 10
45.891111
 20
14.070110
 30
0.0
 10
46.377112
 20
13.945114
 30
0.0
 10
46.844111
 20
13.760117
 30
0.0
 10
47.284111
 20
13.518112
 30
0.0
 10
47.691111
 20
13.223133
 30
0.0
 10
48.057111
 20
12.879133
 30
0.0
 10
48.377111
 20
12.492121
 30
0.0
 10
48.646111
 20
12.068111
 30
0.0
 10
48.860111
 20
11.613112
 30
0.0
 10
49.015112
 20
11.136128
 30
0.0
 10
49.109112
 20
10.642126
 30
0.0
 10
49.141111
 20
10.141125
 30
0.0
 10
49.109112
 20
9.640125
 30
0.0
 10
49.015112
 20
9.146123
 30
0.0
 10
48.860111
 20
8.669111
 30
0.0
 10
48.646111
 20
8.214112
 30
0.0
 10
48.377111
 20
7.790130
 30
0.0
 10
48.057111
 20
7.403118
 30
0.0
 10
47.691111
 20
7.059118
 30
0.0
 10
47.284111
 20
6.764111
 30
0.0
 10
46.844111
 20
6.522133
 30
0.0
 10
46.377112
 20
6.337137
 30
0.0
 10
45.891111
 20
6.212112
 30
0.0
 10
45.392111
 20
6.149120
 30
0.0
 10
44.890111
 20
6.149120
 30
0.0
 10
44.391112
 20
6.212112
 30
0.0
 10
43.905111
 20
6.337137
 30
0.0
 10
43.438111
 20
6.522133
 30
0.0
 10
42.998111
 20
6.764111
 30
0.0
 10
42.591111
 20
7.059118
 30
0.0
 10
42.225112
 20
7.403118
 30
0.0
 10
41.905111
 20
7.790130
 30
0.0
 10
41.636112
 20
8.214112
 30
0.0
 10
41.422111
 20
8.669111
 30
0.0
 10
41.267111
 20
9.146123
 30
0.0
 10
41.173111
 20
9.640125
 30
0.0
 10
41.141112
 20
10.141125
 30
0.0
  0
LWPOLYLINE
  5
104
100
AcDbEntity
  8
Ebene_1
 62
7
100
AcDbPolyline
 90
13
 70
0
 10
60.141111
 20
0.141117
 30
0.0
 10
60.141111
 20
5.141135
 30
0.0
 10
65.141111
 20
5.141135
 30
0.0
 10
65.141111
 20
15.141115
 30
0.0
 10
60.141111
 20
15.141115
 30
0.0
 10
60.141111
 20
20.141134
 30
0.0
 10
90.141111
 20
20.141134
 30
0.0
 10
90.141111
 20
15.141115
 30
0.0
 10
85.141111
 20
15.141115
 30
0.0
 10
85.141111
 20
5.141135
 30
0.0
 10
90.141111
 20
5.141135
 30
0.0
 10
90.141111
 20
0.141117
 30
0.0
 10
60.141111
 20
0.141117
 30
0.0
  0
LWPOLYLINE
  5
105
100
AcDbEntity
  8
Ebene_1
 62
7
100
AcDbPolyline
 90
51
 70
0
 10
71.141111
 20
10.141125
 30
0.0
 10
71.173111
 20
10.642126
 30
0.0
 10
71.267111
 20
11.136128
 30
0.0
 10
71.422111
 20
11.613112
 30
0.0
 10
71.636111
 20
12.068111
 30
0.0
 10
71.905111
 20
12.492121
 30
0.0
 10
72.225111
 20
12.879133
 30
0.0
 10
72.591111
 20
13.223133
 30
0.0
 10
72.998111
 20
13.518112
 30
0.0
 10
73.438111
 20
13.760117
 30
0.0
 10
73.905111
 20
13.945114
 30
0.0
 10
74.391111
 20
14.070110
 30
0.0
 10
74.890111
 20
14.133131
 30
0.0
 10
75.392111
 20
14.133131
 30
0.0
 10
75.891111
 20
14.070110
 30
0.0
 10
76.377111
 20
13.945114
 30
0.0
 10
76.844111
 20
13.760117
 30
0.0
 10
77.284111
 20
13.518112
 30
0.0
 10
77.691111
 20
13.223133
 30
0.0
 10
78.057111
 20
12.879133
 30
0.0
 10
78.377111
 20
12.492121
 30
0.0
 10
78.646111
 20
12.068111
 30
0.0
 10
78.860111
 20
11.613112
 30
0.0
 10
79.015111
 20
11.136128
 30
0.0
 10
79.109111
 20
10.642126
 30
0.0
 10
79.141111
 20
10.141125
 30
0.0
 10
79.109111
 20
9.640125
 30
0.0
 10
79.015111
 20
9.146123
 30
0.0
 10
78.860111
 20
8.669111
 30
0.0
 10
78.646111
 20
8.214112
 30
0.0
 10
78.377111
 20
7.790130
 30
0.0
 10
78.057111
 20
7.403118
 30
0.0
 10
77.691111
 20
7.059118
 30
0.0
 10
77.284111
 20
6.764111
 30
0.0
 10
76.844111
 20
6.522133
 30
0.0
 10
76.377111
 20
6.337137
 30
0.0
 10
75.891111
 20
6.212112
 30
0.0
 10
75.392111
 20
6.149120
 30
0.0
 10
74.890111
 20
6.149120
 30
0.0
 10
74.391111
 20
6.212112
 30
0.0
 10
73.905111
 20
6.337137
 30
0.0
 10
73.438111
 20
6.522133
 30
0.0
 10
72.998111
 20
6.764111
 30
0.0
 10
72.591111
 20
7.059118
 30
0.0
 10
72.225111
 20
7.403118
 30
0.0
 10
71.905111
 20
7.790130
 30
0.0
 10
71.636111
 20
8.214112
 30
0.0
 10
71.422111
 20
8.669111
 30
0.0
 10
71.267111
 20
9.146123
 30
0.0
 10
71.173111
 20
9.640125
 30
0.0
 10
71.141111
 20
10.141125
 30
0.0
  0
LWPOLYLINE
  5
106
100
AcDbEntity
  8
Ebene_1
 62
7
100
AcDbPolyline
 90
13
 70
0
 10
90.141110
 20
0.141117
 30
0.0
 10
90.141110
 20
5.141135
 30
0.0
 10
95.141110
 20
5.141135
 30
0.0
 10
95.141110
 20
15.141115
 30
0.0
 10
90.141110
 20
15.141115
 30
0.0
 10
90.141110
 20
20.141134
 30
0.0
 10
120.141110
 20
20.141134
 30
0.0
 10
120.141110
 20
15.141115
 30
0.0
 10
115.141110
 20
15.141115
 30
0.0
 10
115.141110
 20
5.141135
 30
0.0
 10
120.141110
 20
5.141135
 30
0.0
 10
120.141110
 20
0.141117
 30
0.0
 10
90.141110
 20
0.141117
 30
0.0
  0
LWPOLYLINE
  5
107
100
AcDbEntity
  8
Ebene_1
 62
7
100
AcDbPolyline
 90
51
 70
0
 10
101.141110
 20
10.141125
 30
0.0
 10
101.173110
 20
10.642126
 30
0.0
 10
101.267110
 20
11.136128
 30
0.0
 10
101.422110
 20
11.613112
 30
0.0
 10
101.636110
 20
12.068111
 30
0.0
 10
101.905110
 20
12.492121
 30
0.0
 10
102.225110
 20
12.879133
 30
0.0
 10
102.591110
 20
13.223133
 30
0.0
 10
102.998110
 20
13.518112
 30
0.0
 10
103.438110
 20
13.760117
 30
0.0
 10
103.905110
 20
13.945114
 30
0.0
 10
104.391110
 20
14.070110
 30
0.0
 10
104.890110
 20
14.133131
 30
0.0
 10
105.392110
 20
14.133131
 30
0.0
 10
105.891110
 20
14.070110
 30
0.0
 10
106.377110
 20
13.945114
 30
0.0
 10
106.844110
 20
13.760117
 30
0.0
 10
107.284110
 20
13.518112
 30
0.0
 10
107.691110
 20
13.223133
 30
0.0
 10
108.057110
 20
12.879133
 30
0.0
 10
108.377110
 20
12.492121
 30
0.0
 10
108.646110
 20
12.068111
 30
0.0
 10
108.860110
 20
11.613112
 30
0.0
 10
109.015110
 20
11.136128
 30
0.0
 10
109.109110
 20
10.642126
 30
0.0
 10
109.141110
 20
10.141125
 30
0.0
 10
109.109110
 20
9.640125
 30
0.0
 10
109.015110
 20
9.146123
 30
0.0
 10
108.860110
 20
8.669111
 30
0.0
 10
108.646110
 20
8.214112
 30
0.0
 10
108.377110
 20
7.790130
 30
0.0
 10
108.057110
 20
7.403118
 30
0.0
 10
107.691110
 20
7.059118
 30
0.0
 10
107.284110
 20
6.764111
 30
0.0
 10
106.844110
 20
6.522133
 30
0.0
 10
106.377110
 20
6.337137
 30
0.0
 10
105.891110
 20
6.212112
 30
0.0
 10
105.392110
 20
6.149120
 30
0.0
 10
104.890110
 20
6.149120
 30
0.0
 10
104.391110
 20
6.212112
 30
0.0
 10
103.905110
 20
6.337137
 30
0.0
 10
103.438110
 20
6.522133
 30
0.0
 10
102.998110
 20
6.764111
 30
0.0
 10
102.591110
 20
7.059118
 30
0.0
 10
102.225110
 20
7.403118
 30
0.0
 10
101.905110
 20
7.790130
 30
0.0
 10
101.636110
 20
8.214112
 30
0.0
 10
101.422110
 20
8.669111
 30
0.0
 10
101.267110
 20
9.146123
 30
0.0
 10
101.173110
 20
9.640125
 30
0.0
 10
101.141110
 20
10.141125
 30
0.0
  0
LWPOLYLINE
  5
108
100
AcDbEntity
  8
Ebene_1
 62
7
100
AcDbPolyline
 90
13
 70
0
 10
120.141112
 20
0.141117
 30
0.0
 10
120.141112
 20
5.141135
 30
0.0
 10
125.141112
 20
5.141135
 30
0.0
 10
125.141112
 20
15.141115
 30
0.0
 10
120.141112
 20
15.141115
 30
0.0
 10
120.141112
 20
20.141134
 30
0.0
 10
150.141112
 20
20.141134
 30
0.0
 10
150.141112
 20
15.141115
 30
0.0
 10
145.141112
 20
15.141115
 30
0.0
 10
145.141112
 20
5.141135
 30
0.0
 10
150.141112
 20
5.141135
 30
0.0
 10
150.141112
 20
0.141117
 30
0.0
 10
120.141112
 20
0.141117
 30
0.0
  0
LWPOLYLINE
  5
109
100
AcDbEntity
  8
Ebene_1
 62
7
100
AcDbPolyline
 90
51
 70
0
 10
131.141112
 20
10.141125
 30
0.0
 10
131.173112
 20
10.642126
 30
0.0
 10
131.267112
 20
11.136128
 30
0.0
 10
131.422112
 20
11.613112
 30
0.0
 10
131.636112
 20
12.068111
 30
0.0
 10
131.905112
 20
12.492121
 30
0.0
 10
132.225112
 20
12.879133
 30
0.0
 10
132.591112
 20
13.223133
 30
0.0
 10
132.998112
 20
13.518112
 30
0.0
 10
133.438112
 20
13.760117
 30
0.0
 10
133.905112
 20
13.945114
 30
0.0
 10
134.391112
 20
14.070110
 30
0.0
 10
134.890112
 20
14.133131
 30
0.0
 10
135.392112
 20
14.133131
 30
0.0
 10
135.891112
 20
14.070110
 30
0.0
 10
136.377112
 20
13.945114
 30
0.0
 10
136.844112
 20
13.760117
 30
0.0
 10
137.284112
 20
13.518112
 30
0.0
 10
137.691112
 20
13.223133
 30
0.0
 10
138.057112
 20
12.879133
 30
0.0
 10
138.377112
 20
12.492121
 30
0.0
 10
138.646112
 20
12.068111
 30
0.0
 10
138.860112
 20
11.613112
 30
0.0
 10
139.015112
 20
11.136128
 30
0.0
 10
139.109112
 20
10.642126
 30
0.0
 10
139.141112
 20
10.141125
 30
0.0
 10
139.109112
 20
9.640125
 30
0.0
 10
139.015112
 20
9.146123
 30
0.0
 10
138.860112
 20
8.669111
 30
0.0
 10
138.646112
 20
8.214112
 30
0.0
 10
138.377112
 20
7.790130
 30
0.0
 10
138.057112
 20
7.403118
 30
0.0
 10
137.691112
 20
7.059118
 30
0.0
 10
137.284112
 20
6.764111
 30
0.0
 10
136.844112
 20
6.522133
 30
0.0
 10
136.377112
 20
6.337137
 30
0.0
 10
135.891112
 20
6.212112
 30
0.0
 10
135.392112
 20
6.149120
 30
0.0
 10
134.890112
 20
6.149120
 30
0.0
 10
134.391112
 20
6.212112
 30
0.0
 10
133.905112
 20
6.337137
 30
0.0
 10
133.438112
 20
6.522133
 30
0.0
 10
132.998112
 20
6.764111
 30
0.0
 10
132.591112
 20
7.059118
 30
0.0
 10
132.225112
 20
7.403118
 30
0.0
 10
131.905112
 20
7.790130
 30
0.0
 10
131.636112
 20
8.214112
 30
0.0
 10
131.422112
 20
8.669111
 30
0.0
 10
131.267112
 20
9.146123
 30
0.0
 10
131.173112
 20
9.640125
 30
0.0
 10
131.141112
 20
10.141125
 30
0.0
  0
LWPOLYLINE
  5
10a
100
AcDbEntity
  8
Ebene_1
 62
7
100
AcDbPolyline
 90
13
 70
0
 10
150.141111
 20
0.141117
 30
0.0
 10
150.141111
 20
5.141135
 30
0.0
 10
155.141111
 20
5.141135
 30
0.0
 10
155.141111
 20
15.141115
 30
0.0
 10
150.141111
 20
15.141115
 30
0.0
 10
150.141111
 20
20.141134
 30
0.0
 10
180.141111
 20
20.141134
 30
0.0
 10
180.141111
 20
15.141115
 30
0.0
 10
175.141111
 20
15.141115
 30
0.0
 10
175.141111
 20
5.141135
 30
0.0
 10
180.141111
 20
5.141135
 30
0.0
 10
180.141111
 20
0.141117
 30
0.0
 10
150.141111
 20
0.141117
 30
0.0
  0
LWPOLYLINE
  5
10b
100
AcDbEntity
  8
Ebene_1
 62
7
100
AcDbPolyline
 90
51
 70
0
 10
161.141111
 20
10.141125
 30
0.0
 10
161.173111
 20
10.642126
 30
0.0
 10
161.267111
 20
11.136128
 30
0.0
 10
161.422111
 20
11.613112
 30
0.0
 10
161.636111
 20
12.068111
 30
0.0
 10
161.905111
 20
12.492121
 30
0.0
 10
162.225111
 20
12.879133
 30
0.0
 10
162.591111
 20
13.223133
 30
0.0
 10
162.998111
 20
13.518112
 30
0.0
 10
163.438111
 20
13.760117
 30
0.0
 10
163.905111
 20
13.945114
 30
0.0
 10
164.391111
 20
14.070110
 30
0.0
 10
164.890111
 20
14.133131
 30
0.0
 10
165.392111
 20
14.133131
 30
0.0
 10
165.891111
 20
14.070110
 30
0.0
 10
166.377111
 20
13.945114
 30
0.0
 10
166.844111
 20
13.760117
 30
0.0
 10
167.284111
 20
13.518112
 30
0.0
 10
167.691111
 20
13.223133
 30
0.0
 10
168.057111
 20
12.879133
 30
0.0
 10
168.377111
 20
12.492121
 30
0.0
 10
168.646111
 20
12.068111
 30
0.0
 10
168.860111
 20
11.613112
 30
0.0
 10
169.015111
 20
11.136128
 30
0.0
 10
169.109111
 20
10.642126
 30
0.0
 10
169.141111
 20
10.141125
 30
0.0
 10
169.109111
 20
9.640125
 30
0.0
 10
169.015111
 20
9.146123
 30
0.0
 10
168.860111
 20
8.669111
 30
0.0
 10
168.646111
 20
8.214112
 30
0.0
 10
168.377111
 20
7.790130
 30
0.0
 10
168.057111
 20
7.403118
 30
0.0
 10
167.691111
 20
7.059118
 30
0.0
 10
167.284111
 20
6.764111
 30
0.0
 10
166.844111
 20
6.522133
 30
0.0
 10
166.377111
 20
6.337137
 30
0.0
 10
165.891111
 20
6.212112
 30
0.0
 10
165.392111
 20
6.149120
 30
0.0
 10
164.890111
 20
6.149120
 30
0.0
 10
164.391111
 20
6.212112
 30
0.0
 10
163.905111
 20
6.337137
 30
0.0
 10
163.438111
 20
6.522133
 30
0.0
 10
162.998111
 20
6.764111
 30
0.0
 10
162.591111
 20
7.059118
 30
0.0
 10
162.225111
 20
7.403118
 30
0.0
 10
161.905111
 20
7.790130
 30
0.0
 10
161.636111
 20
8.214112
 30
0.0
 10
161.422111
 20
8.669111
 30
0.0
 10
161.267111
 20
9.146123
 30
0.0
 10
161.173111
 20
9.640125
 30
0.0
 10
161.141111
 20
10.141125
 30
0.0
  0
ENDSEC
  0
SECTION
  2
OBJECTS
  0
DICTIONARY
  5
C
330
0
100
AcDbDictionary
  3
ACAD_GROUP
350
D
  3
ACAD_MLINESTYLE
350
17
  0
DICTIONARY
  5
D
330
C
100
AcDbDictionary
  0
DICTIONARY
  5
1A
330
C
100
AcDbDictionary
  0
DICTIONARY
  5
17
330
C
100
AcDbDictionary
  3
STANDARD
350
18
  0
DICTIONARY
  5
19
330
C
100
AcDbDictionary
  0
ENDSEC
  0
EOF
