  0
SECTION
  2
BLOCKS
  0
ENDSEC
  0
SECTION
  2
ENTITIES
  0
LINE
  8
0
 10
0
 11
0
 20
5
 21
425
  0
LINE
  8
0
 10
0
 11
5
 20
425
 21
425
  0
LINE
  8
0
 10
5
 11
5
 20
425
 21
430
  0
LINE
  8
0
 10
5
 11
10
 20
430
 21
430
  0
LINE
  8
0
 10
10
 11
10
 20
430
 21
425
  0
LINE
  8
0
 10
10
 11
15
 20
425
 21
425
  0
LINE
  8
0
 10
15
 11
15
 20
425
 21
430
  0
LINE
  8
0
 10
15
 11
20
 20
430
 21
430
  0
LINE
  8
0
 10
20
 11
20
 20
430
 21
425
  0
LINE
  8
0
 10
20
 11
25
 20
425
 21
425
  0
LINE
  8
0
 10
25
 11
25
 20
425
 21
430
  0
LINE
  8
0
 10
25
 11
30
 20
430
 21
430
  0
LINE
  8
0
 10
30
 11
30
 20
430
 21
425
  0
LINE
  8
0
 10
30
 11
35
 20
425
 21
425
  0
LINE
  8
0
 10
35
 11
35
 20
425
 21
430
  0
LINE
  8
0
 10
35
 11
40
 20
430
 21
430
  0
LINE
  8
0
 10
40
 11
40
 20
430
 21
425
  0
LINE
  8
0
 10
40
 11
45
 20
425
 21
425
  0
LINE
  8
0
 10
45
 11
45
 20
425
 21
430
  0
LINE
  8
0
 10
45
 11
50
 20
430
 21
430
  0
LINE
  8
0
 10
50
 11
50
 20
430
 21
425
  0
LINE
  8
0
 10
50
 11
55
 20
425
 21
425
  0
LINE
  8
0
 10
55
 11
55
 20
425
 21
5
  0
LINE
  8
0
 10
55
 11
50
 20
5
 21
5
  0
LINE
  8
0
 10
50
 11
50
 20
5
 21
0
  0
LINE
  8
0
 10
50
 11
45
 20
0
 21
0
  0
LINE
  8
0
 10
45
 11
45
 20
0
 21
5
  0
LINE
  8
0
 10
45
 11
40
 20
5
 21
5
  0
LINE
  8
0
 10
40
 11
40
 20
5
 21
0
  0
LINE
  8
0
 10
40
 11
35
 20
0
 21
0
  0
LINE
  8
0
 10
35
 11
35
 20
0
 21
5
  0
LINE
  8
0
 10
35
 11
30
 20
5
 21
5
  0
LINE
  8
0
 10
30
 11
30
 20
5
 21
0
  0
LINE
  8
0
 10
30
 11
25
 20
0
 21
0
  0
LINE
  8
0
 10
25
 11
25
 20
0
 21
5
  0
LINE
  8
0
 10
25
 11
20
 20
5
 21
5
  0
LINE
  8
0
 10
20
 11
20
 20
5
 21
0
  0
LINE
  8
0
 10
20
 11
15
 20
0
 21
0
  0
LINE
  8
0
 10
15
 11
15
 20
0
 21
5
  0
LINE
  8
0
 10
15
 11
10
 20
5
 21
5
  0
LINE
  8
0
 10
10
 11
10
 20
5
 21
0
  0
LINE
  8
0
 10
10
 11
5
 20
0
 21
0
  0
LINE
  8
0
 10
5
 11
5
 20
0
 21
5
  0
LINE
  8
0
 10
5
 11
0
 20
5
 21
5
  0
LINE
  8
0
 10
2.5
 11
2.512
 20
29
 21
29.188
  0
LINE
  8
0
 10
2.512
 11
2.547
 20
29.188
 21
29.373
  0
LINE
  8
0
 10
2.547
 11
2.605
 20
29.373
 21
29.552
  0
LINE
  8
0
 10
2.605
 11
2.686
 20
29.552
 21
29.723
  0
LINE
  8
0
 10
2.686
 11
2.786
 20
29.723
 21
29.882
  0
LINE
  8
0
 10
2.786
 11
2.907
 20
29.882
 21
30.027
  0
LINE
  8
0
 10
2.907
 11
3.044
 20
30.027
 21
30.156
  0
LINE
  8
0
 10
3.044
 11
3.196
 20
30.156
 21
30.266
  0
LINE
  8
0
 10
3.196
 11
3.361
 20
30.266
 21
30.357
  0
LINE
  8
0
 10
3.361
 11
3.536
 20
30.357
 21
30.427
  0
LINE
  8
0
 10
3.536
 11
3.719
 20
30.427
 21
30.473
  0
LINE
  8
0
 10
3.719
 11
3.906
 20
30.473
 21
30.497
  0
LINE
  8
0
 10
3.906
 11
4.094
 20
30.497
 21
30.497
  0
LINE
  8
0
 10
4.094
 11
4.281
 20
30.497
 21
30.473
  0
LINE
  8
0
 10
4.281
 11
4.464
 20
30.473
 21
30.427
  0
LINE
  8
0
 10
4.464
 11
4.639
 20
30.427
 21
30.357
  0
LINE
  8
0
 10
4.639
 11
4.804
 20
30.357
 21
30.266
  0
LINE
  8
0
 10
4.804
 11
4.956
 20
30.266
 21
30.156
  0
LINE
  8
0
 10
4.956
 11
5.093
 20
30.156
 21
30.027
  0
LINE
  8
0
 10
5.093
 11
5.214
 20
30.027
 21
29.882
  0
LINE
  8
0
 10
5.214
 11
5.314
 20
29.882
 21
29.723
  0
LINE
  8
0
 10
5.314
 11
5.395
 20
29.723
 21
29.552
  0
LINE
  8
0
 10
5.395
 11
5.453
 20
29.552
 21
29.373
  0
LINE
  8
0
 10
5.453
 11
5.488
 20
29.373
 21
29.188
  0
LINE
  8
0
 10
5.488
 11
5.5
 20
29.188
 21
29
  0
LINE
  8
0
 10
5.5
 11
5.488
 20
29
 21
28.812
  0
LINE
  8
0
 10
5.488
 11
5.453
 20
28.812
 21
28.627
  0
LINE
  8
0
 10
5.453
 11
5.395
 20
28.627
 21
28.448
  0
LINE
  8
0
 10
5.395
 11
5.314
 20
28.448
 21
28.277
  0
LINE
  8
0
 10
5.314
 11
5.214
 20
28.277
 21
28.118
  0
LINE
  8
0
 10
5.214
 11
5.093
 20
28.118
 21
27.973
  0
LINE
  8
0
 10
5.093
 11
4.956
 20
27.973
 21
27.844
  0
LINE
  8
0
 10
4.956
 11
4.804
 20
27.844
 21
27.734
  0
LINE
  8
0
 10
4.804
 11
4.639
 20
27.734
 21
27.643
  0
LINE
  8
0
 10
4.639
 11
4.464
 20
27.643
 21
27.573
  0
LINE
  8
0
 10
4.464
 11
4.281
 20
27.573
 21
27.527
  0
LINE
  8
0
 10
4.281
 11
4.094
 20
27.527
 21
27.503
  0
LINE
  8
0
 10
4.094
 11
3.906
 20
27.503
 21
27.503
  0
LINE
  8
0
 10
3.906
 11
3.719
 20
27.503
 21
27.527
  0
LINE
  8
0
 10
3.719
 11
3.536
 20
27.527
 21
27.573
  0
LINE
  8
0
 10
3.536
 11
3.361
 20
27.573
 21
27.643
  0
LINE
  8
0
 10
3.361
 11
3.196
 20
27.643
 21
27.734
  0
LINE
  8
0
 10
3.196
 11
3.044
 20
27.734
 21
27.844
  0
LINE
  8
0
 10
3.044
 11
2.907
 20
27.844
 21
27.973
  0
LINE
  8
0
 10
2.907
 11
2.786
 20
27.973
 21
28.118
  0
LINE
  8
0
 10
2.786
 11
2.686
 20
28.118
 21
28.277
  0
LINE
  8
0
 10
2.686
 11
2.605
 20
28.277
 21
28.448
  0
LINE
  8
0
 10
2.605
 11
2.547
 20
28.448
 21
28.627
  0
LINE
  8
0
 10
2.547
 11
2.512
 20
28.627
 21
28.812
  0
LINE
  8
0
 10
2.512
 11
2.5
 20
28.812
 21
29
  0
LINE
  8
0
 10
2.5
 11
2.512
 20
354
 21
354.188
  0
LINE
  8
0
 10
2.512
 11
2.547
 20
354.188
 21
354.373
  0
LINE
  8
0
 10
2.547
 11
2.605
 20
354.373
 21
354.552
  0
LINE
  8
0
 10
2.605
 11
2.686
 20
354.552
 21
354.723
  0
LINE
  8
0
 10
2.686
 11
2.786
 20
354.723
 21
354.882
  0
LINE
  8
0
 10
2.786
 11
2.907
 20
354.882
 21
355.027
  0
LINE
  8
0
 10
2.907
 11
3.044
 20
355.027
 21
355.156
  0
LINE
  8
0
 10
3.044
 11
3.196
 20
355.156
 21
355.266
  0
LINE
  8
0
 10
3.196
 11
3.361
 20
355.266
 21
355.357
  0
LINE
  8
0
 10
3.361
 11
3.536
 20
355.357
 21
355.427
  0
LINE
  8
0
 10
3.536
 11
3.719
 20
355.427
 21
355.473
  0
LINE
  8
0
 10
3.719
 11
3.906
 20
355.473
 21
355.497
  0
LINE
  8
0
 10
3.906
 11
4.094
 20
355.497
 21
355.497
  0
LINE
  8
0
 10
4.094
 11
4.281
 20
355.497
 21
355.473
  0
LINE
  8
0
 10
4.281
 11
4.464
 20
355.473
 21
355.427
  0
LINE
  8
0
 10
4.464
 11
4.639
 20
355.427
 21
355.357
  0
LINE
  8
0
 10
4.639
 11
4.804
 20
355.357
 21
355.266
  0
LINE
  8
0
 10
4.804
 11
4.956
 20
355.266
 21
355.156
  0
LINE
  8
0
 10
4.956
 11
5.093
 20
355.156
 21
355.027
  0
LINE
  8
0
 10
5.093
 11
5.214
 20
355.027
 21
354.882
  0
LINE
  8
0
 10
5.214
 11
5.314
 20
354.882
 21
354.723
  0
LINE
  8
0
 10
5.314
 11
5.395
 20
354.723
 21
354.552
  0
LINE
  8
0
 10
5.395
 11
5.453
 20
354.552
 21
354.373
  0
LINE
  8
0
 10
5.453
 11
5.488
 20
354.373
 21
354.188
  0
LINE
  8
0
 10
5.488
 11
5.5
 20
354.188
 21
354
  0
LINE
  8
0
 10
5.5
 11
5.488
 20
354
 21
353.812
  0
LINE
  8
0
 10
5.488
 11
5.453
 20
353.812
 21
353.627
  0
LINE
  8
0
 10
5.453
 11
5.395
 20
353.627
 21
353.448
  0
LINE
  8
0
 10
5.395
 11
5.314
 20
353.448
 21
353.277
  0
LINE
  8
0
 10
5.314
 11
5.214
 20
353.277
 21
353.118
  0
LINE
  8
0
 10
5.214
 11
5.093
 20
353.118
 21
352.973
  0
LINE
  8
0
 10
5.093
 11
4.956
 20
352.973
 21
352.844
  0
LINE
  8
0
 10
4.956
 11
4.804
 20
352.844
 21
352.734
  0
LINE
  8
0
 10
4.804
 11
4.639
 20
352.734
 21
352.643
  0
LINE
  8
0
 10
4.639
 11
4.464
 20
352.643
 21
352.573
  0
LINE
  8
0
 10
4.464
 11
4.281
 20
352.573
 21
352.527
  0
LINE
  8
0
 10
4.281
 11
4.094
 20
352.527
 21
352.503
  0
LINE
  8
0
 10
4.094
 11
3.906
 20
352.503
 21
352.503
  0
LINE
  8
0
 10
3.906
 11
3.719
 20
352.503
 21
352.527
  0
LINE
  8
0
 10
3.719
 11
3.536
 20
352.527
 21
352.573
  0
LINE
  8
0
 10
3.536
 11
3.361
 20
352.573
 21
352.643
  0
LINE
  8
0
 10
3.361
 11
3.196
 20
352.643
 21
352.734
  0
LINE
  8
0
 10
3.196
 11
3.044
 20
352.734
 21
352.844
  0
LINE
  8
0
 10
3.044
 11
2.907
 20
352.844
 21
352.973
  0
LINE
  8
0
 10
2.907
 11
2.786
 20
352.973
 21
353.118
  0
LINE
  8
0
 10
2.786
 11
2.686
 20
353.118
 21
353.277
  0
LINE
  8
0
 10
2.686
 11
2.605
 20
353.277
 21
353.448
  0
LINE
  8
0
 10
2.605
 11
2.547
 20
353.448
 21
353.627
  0
LINE
  8
0
 10
2.547
 11
2.512
 20
353.627
 21
353.812
  0
LINE
  8
0
 10
2.512
 11
2.5
 20
353.812
 21
354
  0
LINE
  8
0
 10
2.503
 11
2.503
 20
75.906
 21
76.094
  0
LINE
  8
0
 10
2.503
 11
2.527
 20
76.094
 21
76.281
  0
LINE
  8
0
 10
2.527
 11
2.573
 20
76.281
 21
76.464
  0
LINE
  8
0
 10
2.573
 11
2.643
 20
76.464
 21
76.639
  0
LINE
  8
0
 10
2.643
 11
2.734
 20
76.639
 21
76.804
  0
LINE
  8
0
 10
2.734
 11
2.844
 20
76.804
 21
76.956
  0
LINE
  8
0
 10
2.844
 11
2.973
 20
76.956
 21
77.093
  0
LINE
  8
0
 10
2.973
 11
3.118
 20
77.093
 21
77.214
  0
LINE
  8
0
 10
3.118
 11
3.277
 20
77.214
 21
77.314
  0
LINE
  8
0
 10
3.277
 11
3.448
 20
77.314
 21
77.395
  0
LINE
  8
0
 10
3.448
 11
3.627
 20
77.395
 21
77.453
  0
LINE
  8
0
 10
3.627
 11
3.812
 20
77.453
 21
77.488
  0
LINE
  8
0
 10
3.812
 11
4
 20
77.488
 21
77.5
  0
LINE
  8
0
 10
4
 11
4.188
 20
77.5
 21
77.488
  0
LINE
  8
0
 10
4.188
 11
4.373
 20
77.488
 21
77.453
  0
LINE
  8
0
 10
4.373
 11
4.552
 20
77.453
 21
77.395
  0
LINE
  8
0
 10
4.552
 11
4.723
 20
77.395
 21
77.314
  0
LINE
  8
0
 10
4.723
 11
4.882
 20
77.314
 21
77.214
  0
LINE
  8
0
 10
4.882
 11
5.027
 20
77.214
 21
77.093
  0
LINE
  8
0
 10
5.027
 11
5.156
 20
77.093
 21
76.956
  0
LINE
  8
0
 10
5.156
 11
5.266
 20
76.956
 21
76.804
  0
LINE
  8
0
 10
5.266
 11
5.357
 20
76.804
 21
76.639
  0
LINE
  8
0
 10
5.357
 11
5.427
 20
76.639
 21
76.464
  0
LINE
  8
0
 10
5.427
 11
5.473
 20
76.464
 21
76.281
  0
LINE
  8
0
 10
5.473
 11
5.497
 20
76.281
 21
76.094
  0
LINE
  8
0
 10
5.497
 11
5.497
 20
76.094
 21
75.906
  0
LINE
  8
0
 10
5.497
 11
5.473
 20
75.906
 21
75.719
  0
LINE
  8
0
 10
5.473
 11
5.427
 20
75.719
 21
75.536
  0
LINE
  8
0
 10
5.427
 11
5.357
 20
75.536
 21
75.361
  0
LINE
  8
0
 10
5.357
 11
5.266
 20
75.361
 21
75.196
  0
LINE
  8
0
 10
5.266
 11
5.156
 20
75.196
 21
75.044
  0
LINE
  8
0
 10
5.156
 11
5.027
 20
75.044
 21
74.907
  0
LINE
  8
0
 10
5.027
 11
4.882
 20
74.907
 21
74.786
  0
LINE
  8
0
 10
4.882
 11
4.723
 20
74.786
 21
74.686
  0
LINE
  8
0
 10
4.723
 11
4.552
 20
74.686
 21
74.605
  0
LINE
  8
0
 10
4.552
 11
4.373
 20
74.605
 21
74.547
  0
LINE
  8
0
 10
4.373
 11
4.188
 20
74.547
 21
74.512
  0
LINE
  8
0
 10
4.188
 11
4
 20
74.512
 21
74.5
  0
LINE
  8
0
 10
4
 11
3.812
 20
74.5
 21
74.512
  0
LINE
  8
0
 10
3.812
 11
3.627
 20
74.512
 21
74.547
  0
LINE
  8
0
 10
3.627
 11
3.448
 20
74.547
 21
74.605
  0
LINE
  8
0
 10
3.448
 11
3.277
 20
74.605
 21
74.686
  0
LINE
  8
0
 10
3.277
 11
3.118
 20
74.686
 21
74.786
  0
LINE
  8
0
 10
3.118
 11
2.973
 20
74.786
 21
74.907
  0
LINE
  8
0
 10
2.973
 11
2.844
 20
74.907
 21
75.044
  0
LINE
  8
0
 10
2.844
 11
2.734
 20
75.044
 21
75.196
  0
LINE
  8
0
 10
2.734
 11
2.643
 20
75.196
 21
75.361
  0
LINE
  8
0
 10
2.643
 11
2.573
 20
75.361
 21
75.536
  0
LINE
  8
0
 10
2.573
 11
2.527
 20
75.536
 21
75.719
  0
LINE
  8
0
 10
2.527
 11
2.503
 20
75.719
 21
75.906
  0
LINE
  8
0
 10
2.503
 11
2.503
 20
400.906
 21
401.094
  0
LINE
  8
0
 10
2.503
 11
2.527
 20
401.094
 21
401.281
  0
LINE
  8
0
 10
2.527
 11
2.573
 20
401.281
 21
401.464
  0
LINE
  8
0
 10
2.573
 11
2.643
 20
401.464
 21
401.639
  0
LINE
  8
0
 10
2.643
 11
2.734
 20
401.639
 21
401.804
  0
LINE
  8
0
 10
2.734
 11
2.844
 20
401.804
 21
401.956
  0
LINE
  8
0
 10
2.844
 11
2.973
 20
401.956
 21
402.093
  0
LINE
  8
0
 10
2.973
 11
3.118
 20
402.093
 21
402.214
  0
LINE
  8
0
 10
3.118
 11
3.277
 20
402.214
 21
402.314
  0
LINE
  8
0
 10
3.277
 11
3.448
 20
402.314
 21
402.395
  0
LINE
  8
0
 10
3.448
 11
3.627
 20
402.395
 21
402.453
  0
LINE
  8
0
 10
3.627
 11
3.812
 20
402.453
 21
402.488
  0
LINE
  8
0
 10
3.812
 11
4
 20
402.488
 21
402.5
  0
LINE
  8
0
 10
4
 11
4.188
 20
402.5
 21
402.488
  0
LINE
  8
0
 10
4.188
 11
4.373
 20
402.488
 21
402.453
  0
LINE
  8
0
 10
4.373
 11
4.552
 20
402.453
 21
402.395
  0
LINE
  8
0
 10
4.552
 11
4.723
 20
402.395
 21
402.314
  0
LINE
  8
0
 10
4.723
 11
4.882
 20
402.314
 21
402.214
  0
LINE
  8
0
 10
4.882
 11
5.027
 20
402.214
 21
402.093
  0
LINE
  8
0
 10
5.027
 11
5.156
 20
402.093
 21
401.956
  0
LINE
  8
0
 10
5.156
 11
5.266
 20
401.956
 21
401.804
  0
LINE
  8
0
 10
5.266
 11
5.357
 20
401.804
 21
401.639
  0
LINE
  8
0
 10
5.357
 11
5.427
 20
401.639
 21
401.464
  0
LINE
  8
0
 10
5.427
 11
5.473
 20
401.464
 21
401.281
  0
LINE
  8
0
 10
5.473
 11
5.497
 20
401.281
 21
401.094
  0
LINE
  8
0
 10
5.497
 11
5.497
 20
401.094
 21
400.906
  0
LINE
  8
0
 10
5.497
 11
5.473
 20
400.906
 21
400.719
  0
LINE
  8
0
 10
5.473
 11
5.427
 20
400.719
 21
400.536
  0
LINE
  8
0
 10
5.427
 11
5.357
 20
400.536
 21
400.361
  0
LINE
  8
0
 10
5.357
 11
5.266
 20
400.361
 21
400.196
  0
LINE
  8
0
 10
5.266
 11
5.156
 20
400.196
 21
400.044
  0
LINE
  8
0
 10
5.156
 11
5.027
 20
400.044
 21
399.907
  0
LINE
  8
0
 10
5.027
 11
4.882
 20
399.907
 21
399.786
  0
LINE
  8
0
 10
4.882
 11
4.723
 20
399.786
 21
399.686
  0
LINE
  8
0
 10
4.723
 11
4.552
 20
399.686
 21
399.605
  0
LINE
  8
0
 10
4.552
 11
4.373
 20
399.605
 21
399.547
  0
LINE
  8
0
 10
4.373
 11
4.188
 20
399.547
 21
399.512
  0
LINE
  8
0
 10
4.188
 11
4
 20
399.512
 21
399.5
  0
LINE
  8
0
 10
4
 11
3.812
 20
399.5
 21
399.512
  0
LINE
  8
0
 10
3.812
 11
3.627
 20
399.512
 21
399.547
  0
LINE
  8
0
 10
3.627
 11
3.448
 20
399.547
 21
399.605
  0
LINE
  8
0
 10
3.448
 11
3.277
 20
399.605
 21
399.686
  0
LINE
  8
0
 10
3.277
 11
3.118
 20
399.686
 21
399.786
  0
LINE
  8
0
 10
3.118
 11
2.973
 20
399.786
 21
399.907
  0
LINE
  8
0
 10
2.973
 11
2.844
 20
399.907
 21
400.044
  0
LINE
  8
0
 10
2.844
 11
2.734
 20
400.044
 21
400.196
  0
LINE
  8
0
 10
2.734
 11
2.643
 20
400.196
 21
400.361
  0
LINE
  8
0
 10
2.643
 11
2.573
 20
400.361
 21
400.536
  0
LINE
  8
0
 10
2.573
 11
2.527
 20
400.536
 21
400.719
  0
LINE
  8
0
 10
2.527
 11
2.503
 20
400.719
 21
400.906
  0
LINE
  8
0
 10
7.5
 11
7.52
 20
15
 21
15.313
  0
LINE
  8
0
 10
7.52
 11
7.579
 20
15.313
 21
15.622
  0
LINE
  8
0
 10
7.579
 11
7.676
 20
15.622
 21
15.92
  0
LINE
  8
0
 10
7.676
 11
7.809
 20
15.92
 21
16.204
  0
LINE
  8
0
 10
7.809
 11
7.977
 20
16.204
 21
16.469
  0
LINE
  8
0
 10
7.977
 11
8.178
 20
16.469
 21
16.711
  0
LINE
  8
0
 10
8.178
 11
8.406
 20
16.711
 21
16.926
  0
LINE
  8
0
 10
8.406
 11
8.66
 20
16.926
 21
17.111
  0
LINE
  8
0
 10
8.66
 11
8.936
 20
17.111
 21
17.262
  0
LINE
  8
0
 10
8.936
 11
9.227
 20
17.262
 21
17.378
  0
LINE
  8
0
 10
9.227
 11
9.532
 20
17.378
 21
17.456
  0
LINE
  8
0
 10
9.532
 11
9.843
 20
17.456
 21
17.495
  0
LINE
  8
0
 10
9.843
 11
10.157
 20
17.495
 21
17.495
  0
LINE
  8
0
 10
10.157
 11
10.468
 20
17.495
 21
17.456
  0
LINE
  8
0
 10
10.468
 11
10.773
 20
17.456
 21
17.378
  0
LINE
  8
0
 10
10.773
 11
11.064
 20
17.378
 21
17.262
  0
LINE
  8
0
 10
11.064
 11
11.34
 20
17.262
 21
17.111
  0
LINE
  8
0
 10
11.34
 11
11.594
 20
17.111
 21
16.926
  0
LINE
  8
0
 10
11.594
 11
11.822
 20
16.926
 21
16.711
  0
LINE
  8
0
 10
11.822
 11
12.023
 20
16.711
 21
16.469
  0
LINE
  8
0
 10
12.023
 11
12.191
 20
16.469
 21
16.204
  0
LINE
  8
0
 10
12.191
 11
12.324
 20
16.204
 21
15.92
  0
LINE
  8
0
 10
12.324
 11
12.421
 20
15.92
 21
15.622
  0
LINE
  8
0
 10
12.421
 11
12.48
 20
15.622
 21
15.313
  0
LINE
  8
0
 10
12.48
 11
12.5
 20
15.313
 21
15
  0
LINE
  8
0
 10
12.5
 11
12.48
 20
15
 21
14.687
  0
LINE
  8
0
 10
12.48
 11
12.421
 20
14.687
 21
14.378
  0
LINE
  8
0
 10
12.421
 11
12.324
 20
14.378
 21
14.08
  0
LINE
  8
0
 10
12.324
 11
12.191
 20
14.08
 21
13.796
  0
LINE
  8
0
 10
12.191
 11
12.023
 20
13.796
 21
13.531
  0
LINE
  8
0
 10
12.023
 11
11.822
 20
13.531
 21
13.289
  0
LINE
  8
0
 10
11.822
 11
11.594
 20
13.289
 21
13.074
  0
LINE
  8
0
 10
11.594
 11
11.34
 20
13.074
 21
12.889
  0
LINE
  8
0
 10
11.34
 11
11.064
 20
12.889
 21
12.738
  0
LINE
  8
0
 10
11.064
 11
10.773
 20
12.738
 21
12.622
  0
LINE
  8
0
 10
10.773
 11
10.468
 20
12.622
 21
12.544
  0
LINE
  8
0
 10
10.468
 11
10.157
 20
12.544
 21
12.505
  0
LINE
  8
0
 10
10.157
 11
9.843
 20
12.505
 21
12.505
  0
LINE
  8
0
 10
9.843
 11
9.532
 20
12.505
 21
12.544
  0
LINE
  8
0
 10
9.532
 11
9.227
 20
12.544
 21
12.622
  0
LINE
  8
0
 10
9.227
 11
8.936
 20
12.622
 21
12.738
  0
LINE
  8
0
 10
8.936
 11
8.66
 20
12.738
 21
12.889
  0
LINE
  8
0
 10
8.66
 11
8.406
 20
12.889
 21
13.074
  0
LINE
  8
0
 10
8.406
 11
8.178
 20
13.074
 21
13.289
  0
LINE
  8
0
 10
8.178
 11
7.977
 20
13.289
 21
13.531
  0
LINE
  8
0
 10
7.977
 11
7.809
 20
13.531
 21
13.796
  0
LINE
  8
0
 10
7.809
 11
7.676
 20
13.796
 21
14.08
  0
LINE
  8
0
 10
7.676
 11
7.579
 20
14.08
 21
14.378
  0
LINE
  8
0
 10
7.579
 11
7.52
 20
14.378
 21
14.687
  0
LINE
  8
0
 10
7.52
 11
7.5
 20
14.687
 21
15
  0
LINE
  8
0
 10
7.5
 11
7.52
 20
415
 21
415.313
  0
LINE
  8
0
 10
7.52
 11
7.579
 20
415.313
 21
415.622
  0
LINE
  8
0
 10
7.579
 11
7.676
 20
415.622
 21
415.92
  0
LINE
  8
0
 10
7.676
 11
7.809
 20
415.92
 21
416.204
  0
LINE
  8
0
 10
7.809
 11
7.977
 20
416.204
 21
416.469
  0
LINE
  8
0
 10
7.977
 11
8.178
 20
416.469
 21
416.711
  0
LINE
  8
0
 10
8.178
 11
8.406
 20
416.711
 21
416.926
  0
LINE
  8
0
 10
8.406
 11
8.66
 20
416.926
 21
417.111
  0
LINE
  8
0
 10
8.66
 11
8.936
 20
417.111
 21
417.262
  0
LINE
  8
0
 10
8.936
 11
9.227
 20
417.262
 21
417.378
  0
LINE
  8
0
 10
9.227
 11
9.532
 20
417.378
 21
417.456
  0
LINE
  8
0
 10
9.532
 11
9.843
 20
417.456
 21
417.495
  0
LINE
  8
0
 10
9.843
 11
10.157
 20
417.495
 21
417.495
  0
LINE
  8
0
 10
10.157
 11
10.468
 20
417.495
 21
417.456
  0
LINE
  8
0
 10
10.468
 11
10.773
 20
417.456
 21
417.378
  0
LINE
  8
0
 10
10.773
 11
11.064
 20
417.378
 21
417.262
  0
LINE
  8
0
 10
11.064
 11
11.34
 20
417.262
 21
417.111
  0
LINE
  8
0
 10
11.34
 11
11.594
 20
417.111
 21
416.926
  0
LINE
  8
0
 10
11.594
 11
11.822
 20
416.926
 21
416.711
  0
LINE
  8
0
 10
11.822
 11
12.023
 20
416.711
 21
416.469
  0
LINE
  8
0
 10
12.023
 11
12.191
 20
416.469
 21
416.204
  0
LINE
  8
0
 10
12.191
 11
12.324
 20
416.204
 21
415.92
  0
LINE
  8
0
 10
12.324
 11
12.421
 20
415.92
 21
415.622
  0
LINE
  8
0
 10
12.421
 11
12.48
 20
415.622
 21
415.313
  0
LINE
  8
0
 10
12.48
 11
12.5
 20
415.313
 21
415
  0
LINE
  8
0
 10
12.5
 11
12.48
 20
415
 21
414.687
  0
LINE
  8
0
 10
12.48
 11
12.421
 20
414.687
 21
414.378
  0
LINE
  8
0
 10
12.421
 11
12.324
 20
414.378
 21
414.08
  0
LINE
  8
0
 10
12.324
 11
12.191
 20
414.08
 21
413.796
  0
LINE
  8
0
 10
12.191
 11
12.023
 20
413.796
 21
413.531
  0
LINE
  8
0
 10
12.023
 11
11.822
 20
413.531
 21
413.289
  0
LINE
  8
0
 10
11.822
 11
11.594
 20
413.289
 21
413.074
  0
LINE
  8
0
 10
11.594
 11
11.34
 20
413.074
 21
412.889
  0
LINE
  8
0
 10
11.34
 11
11.064
 20
412.889
 21
412.738
  0
LINE
  8
0
 10
11.064
 11
10.773
 20
412.738
 21
412.622
  0
LINE
  8
0
 10
10.773
 11
10.468
 20
412.622
 21
412.544
  0
LINE
  8
0
 10
10.468
 11
10.157
 20
412.544
 21
412.505
  0
LINE
  8
0
 10
10.157
 11
9.843
 20
412.505
 21
412.505
  0
LINE
  8
0
 10
9.843
 11
9.532
 20
412.505
 21
412.544
  0
LINE
  8
0
 10
9.532
 11
9.227
 20
412.544
 21
412.622
  0
LINE
  8
0
 10
9.227
 11
8.936
 20
412.622
 21
412.738
  0
LINE
  8
0
 10
8.936
 11
8.66
 20
412.738
 21
412.889
  0
LINE
  8
0
 10
8.66
 11
8.406
 20
412.889
 21
413.074
  0
LINE
  8
0
 10
8.406
 11
8.178
 20
413.074
 21
413.289
  0
LINE
  8
0
 10
8.178
 11
7.977
 20
413.289
 21
413.531
  0
LINE
  8
0
 10
7.977
 11
7.809
 20
413.531
 21
413.796
  0
LINE
  8
0
 10
7.809
 11
7.676
 20
413.796
 21
414.08
  0
LINE
  8
0
 10
7.676
 11
7.579
 20
414.08
 21
414.378
  0
LINE
  8
0
 10
7.579
 11
7.52
 20
414.378
 21
414.687
  0
LINE
  8
0
 10
7.52
 11
7.5
 20
414.687
 21
415
  0
LINE
  8
0
 10
10.5
 11
10.512
 20
362
 21
362.188
  0
LINE
  8
0
 10
10.512
 11
10.547
 20
362.188
 21
362.373
  0
LINE
  8
0
 10
10.547
 11
10.605
 20
362.373
 21
362.552
  0
LINE
  8
0
 10
10.605
 11
10.686
 20
362.552
 21
362.723
  0
LINE
  8
0
 10
10.686
 11
10.786
 20
362.723
 21
362.882
  0
LINE
  8
0
 10
10.786
 11
10.907
 20
362.882
 21
363.027
  0
LINE
  8
0
 10
10.907
 11
11.044
 20
363.027
 21
363.156
  0
LINE
  8
0
 10
11.044
 11
11.196
 20
363.156
 21
363.266
  0
LINE
  8
0
 10
11.196
 11
11.361
 20
363.266
 21
363.357
  0
LINE
  8
0
 10
11.361
 11
11.536
 20
363.357
 21
363.427
  0
LINE
  8
0
 10
11.536
 11
11.719
 20
363.427
 21
363.473
  0
LINE
  8
0
 10
11.719
 11
11.906
 20
363.473
 21
363.497
  0
LINE
  8
0
 10
11.906
 11
12.094
 20
363.497
 21
363.497
  0
LINE
  8
0
 10
12.094
 11
12.281
 20
363.497
 21
363.473
  0
LINE
  8
0
 10
12.281
 11
12.464
 20
363.473
 21
363.427
  0
LINE
  8
0
 10
12.464
 11
12.639
 20
363.427
 21
363.357
  0
LINE
  8
0
 10
12.639
 11
12.804
 20
363.357
 21
363.266
  0
LINE
  8
0
 10
12.804
 11
12.956
 20
363.266
 21
363.156
  0
LINE
  8
0
 10
12.956
 11
13.093
 20
363.156
 21
363.027
  0
LINE
  8
0
 10
13.093
 11
13.214
 20
363.027
 21
362.882
  0
LINE
  8
0
 10
13.214
 11
13.314
 20
362.882
 21
362.723
  0
LINE
  8
0
 10
13.314
 11
13.395
 20
362.723
 21
362.552
  0
LINE
  8
0
 10
13.395
 11
13.453
 20
362.552
 21
362.373
  0
LINE
  8
0
 10
13.453
 11
13.488
 20
362.373
 21
362.188
  0
LINE
  8
0
 10
13.488
 11
13.5
 20
362.188
 21
362
  0
LINE
  8
0
 10
13.5
 11
13.488
 20
362
 21
361.812
  0
LINE
  8
0
 10
13.488
 11
13.453
 20
361.812
 21
361.627
  0
LINE
  8
0
 10
13.453
 11
13.395
 20
361.627
 21
361.448
  0
LINE
  8
0
 10
13.395
 11
13.314
 20
361.448
 21
361.277
  0
LINE
  8
0
 10
13.314
 11
13.214
 20
361.277
 21
361.118
  0
LINE
  8
0
 10
13.214
 11
13.093
 20
361.118
 21
360.973
  0
LINE
  8
0
 10
13.093
 11
12.956
 20
360.973
 21
360.844
  0
LINE
  8
0
 10
12.956
 11
12.804
 20
360.844
 21
360.734
  0
LINE
  8
0
 10
12.804
 11
12.639
 20
360.734
 21
360.643
  0
LINE
  8
0
 10
12.639
 11
12.464
 20
360.643
 21
360.573
  0
LINE
  8
0
 10
12.464
 11
12.281
 20
360.573
 21
360.527
  0
LINE
  8
0
 10
12.281
 11
12.094
 20
360.527
 21
360.503
  0
LINE
  8
0
 10
12.094
 11
11.906
 20
360.503
 21
360.503
  0
LINE
  8
0
 10
11.906
 11
11.719
 20
360.503
 21
360.527
  0
LINE
  8
0
 10
11.719
 11
11.536
 20
360.527
 21
360.573
  0
LINE
  8
0
 10
11.536
 11
11.361
 20
360.573
 21
360.643
  0
LINE
  8
0
 10
11.361
 11
11.196
 20
360.643
 21
360.734
  0
LINE
  8
0
 10
11.196
 11
11.044
 20
360.734
 21
360.844
  0
LINE
  8
0
 10
11.044
 11
10.907
 20
360.844
 21
360.973
  0
LINE
  8
0
 10
10.907
 11
10.786
 20
360.973
 21
361.118
  0
LINE
  8
0
 10
10.786
 11
10.686
 20
361.118
 21
361.277
  0
LINE
  8
0
 10
10.686
 11
10.605
 20
361.277
 21
361.448
  0
LINE
  8
0
 10
10.605
 11
10.547
 20
361.448
 21
361.627
  0
LINE
  8
0
 10
10.547
 11
10.512
 20
361.627
 21
361.812
  0
LINE
  8
0
 10
10.512
 11
10.5
 20
361.812
 21
362
  0
LINE
  8
0
 10
10.503
 11
10.503
 20
392.906
 21
393.094
  0
LINE
  8
0
 10
10.503
 11
10.527
 20
393.094
 21
393.281
  0
LINE
  8
0
 10
10.527
 11
10.573
 20
393.281
 21
393.464
  0
LINE
  8
0
 10
10.573
 11
10.643
 20
393.464
 21
393.639
  0
LINE
  8
0
 10
10.643
 11
10.734
 20
393.639
 21
393.804
  0
LINE
  8
0
 10
10.734
 11
10.844
 20
393.804
 21
393.956
  0
LINE
  8
0
 10
10.844
 11
10.973
 20
393.956
 21
394.093
  0
LINE
  8
0
 10
10.973
 11
11.118
 20
394.093
 21
394.214
  0
LINE
  8
0
 10
11.118
 11
11.277
 20
394.214
 21
394.314
  0
LINE
  8
0
 10
11.277
 11
11.448
 20
394.314
 21
394.395
  0
LINE
  8
0
 10
11.448
 11
11.627
 20
394.395
 21
394.453
  0
LINE
  8
0
 10
11.627
 11
11.812
 20
394.453
 21
394.488
  0
LINE
  8
0
 10
11.812
 11
12
 20
394.488
 21
394.5
  0
LINE
  8
0
 10
12
 11
12.188
 20
394.5
 21
394.488
  0
LINE
  8
0
 10
12.188
 11
12.373
 20
394.488
 21
394.453
  0
LINE
  8
0
 10
12.373
 11
12.552
 20
394.453
 21
394.395
  0
LINE
  8
0
 10
12.552
 11
12.723
 20
394.395
 21
394.314
  0
LINE
  8
0
 10
12.723
 11
12.882
 20
394.314
 21
394.214
  0
LINE
  8
0
 10
12.882
 11
13.027
 20
394.214
 21
394.093
  0
LINE
  8
0
 10
13.027
 11
13.156
 20
394.093
 21
393.956
  0
LINE
  8
0
 10
13.156
 11
13.266
 20
393.956
 21
393.804
  0
LINE
  8
0
 10
13.266
 11
13.357
 20
393.804
 21
393.639
  0
LINE
  8
0
 10
13.357
 11
13.427
 20
393.639
 21
393.464
  0
LINE
  8
0
 10
13.427
 11
13.473
 20
393.464
 21
393.281
  0
LINE
  8
0
 10
13.473
 11
13.497
 20
393.281
 21
393.094
  0
LINE
  8
0
 10
13.497
 11
13.497
 20
393.094
 21
392.906
  0
LINE
  8
0
 10
13.497
 11
13.473
 20
392.906
 21
392.719
  0
LINE
  8
0
 10
13.473
 11
13.427
 20
392.719
 21
392.536
  0
LINE
  8
0
 10
13.427
 11
13.357
 20
392.536
 21
392.361
  0
LINE
  8
0
 10
13.357
 11
13.266
 20
392.361
 21
392.196
  0
LINE
  8
0
 10
13.266
 11
13.156
 20
392.196
 21
392.044
  0
LINE
  8
0
 10
13.156
 11
13.027
 20
392.044
 21
391.907
  0
LINE
  8
0
 10
13.027
 11
12.882
 20
391.907
 21
391.786
  0
LINE
  8
0
 10
12.882
 11
12.723
 20
391.786
 21
391.686
  0
LINE
  8
0
 10
12.723
 11
12.552
 20
391.686
 21
391.605
  0
LINE
  8
0
 10
12.552
 11
12.373
 20
391.605
 21
391.547
  0
LINE
  8
0
 10
12.373
 11
12.188
 20
391.547
 21
391.512
  0
LINE
  8
0
 10
12.188
 11
12
 20
391.512
 21
391.5
  0
LINE
  8
0
 10
12
 11
11.812
 20
391.5
 21
391.512
  0
LINE
  8
0
 10
11.812
 11
11.627
 20
391.512
 21
391.547
  0
LINE
  8
0
 10
11.627
 11
11.448
 20
391.547
 21
391.605
  0
LINE
  8
0
 10
11.448
 11
11.277
 20
391.605
 21
391.686
  0
LINE
  8
0
 10
11.277
 11
11.118
 20
391.686
 21
391.786
  0
LINE
  8
0
 10
11.118
 11
10.973
 20
391.786
 21
391.907
  0
LINE
  8
0
 10
10.973
 11
10.844
 20
391.907
 21
392.044
  0
LINE
  8
0
 10
10.844
 11
10.734
 20
392.044
 21
392.196
  0
LINE
  8
0
 10
10.734
 11
10.643
 20
392.196
 21
392.361
  0
LINE
  8
0
 10
10.643
 11
10.573
 20
392.361
 21
392.536
  0
LINE
  8
0
 10
10.573
 11
10.527
 20
392.536
 21
392.719
  0
LINE
  8
0
 10
10.527
 11
10.503
 20
392.719
 21
392.906
  0
LINE
  8
0
 10
16.5
 11
16.587
 20
377.5
 21
378.879
  0
LINE
  8
0
 10
16.587
 11
16.846
 20
378.879
 21
380.236
  0
LINE
  8
0
 10
16.846
 11
17.272
 20
380.236
 21
381.549
  0
LINE
  8
0
 10
17.272
 11
17.861
 20
381.549
 21
382.799
  0
LINE
  8
0
 10
17.861
 11
18.601
 20
382.799
 21
383.966
  0
LINE
  8
0
 10
18.601
 11
19.481
 20
383.966
 21
385.03
  0
LINE
  8
0
 10
19.481
 11
20.488
 20
385.03
 21
385.976
  0
LINE
  8
0
 10
20.488
 11
21.606
 20
385.976
 21
386.788
  0
LINE
  8
0
 10
21.606
 11
22.816
 20
386.788
 21
387.453
  0
LINE
  8
0
 10
22.816
 11
24.101
 20
387.453
 21
387.962
  0
LINE
  8
0
 10
24.101
 11
25.439
 20
387.962
 21
388.305
  0
LINE
  8
0
 10
25.439
 11
26.809
 20
388.305
 21
388.478
  0
LINE
  8
0
 10
26.809
 11
28.191
 20
388.478
 21
388.478
  0
LINE
  8
0
 10
28.191
 11
29.561
 20
388.478
 21
388.305
  0
LINE
  8
0
 10
29.561
 11
30.899
 20
388.305
 21
387.962
  0
LINE
  8
0
 10
30.899
 11
32.184
 20
387.962
 21
387.453
  0
LINE
  8
0
 10
32.184
 11
33.394
 20
387.453
 21
386.788
  0
LINE
  8
0
 10
33.394
 11
34.512
 20
386.788
 21
385.976
  0
LINE
  8
0
 10
34.512
 11
35.519
 20
385.976
 21
385.03
  0
LINE
  8
0
 10
35.519
 11
36.399
 20
385.03
 21
383.966
  0
LINE
  8
0
 10
36.399
 11
37.139
 20
383.966
 21
382.799
  0
LINE
  8
0
 10
37.139
 11
37.728
 20
382.799
 21
381.549
  0
LINE
  8
0
 10
37.728
 11
38.154
 20
381.549
 21
380.236
  0
LINE
  8
0
 10
38.154
 11
38.413
 20
380.236
 21
378.879
  0
LINE
  8
0
 10
38.413
 11
38.5
 20
378.879
 21
377.5
  0
LINE
  8
0
 10
38.5
 11
38.413
 20
377.5
 21
376.121
  0
LINE
  8
0
 10
38.413
 11
38.154
 20
376.121
 21
374.764
  0
LINE
  8
0
 10
38.154
 11
37.728
 20
374.764
 21
373.451
  0
LINE
  8
0
 10
37.728
 11
37.139
 20
373.451
 21
372.201
  0
LINE
  8
0
 10
37.139
 11
36.399
 20
372.201
 21
371.034
  0
LINE
  8
0
 10
36.399
 11
35.519
 20
371.034
 21
369.97
  0
LINE
  8
0
 10
35.519
 11
34.512
 20
369.97
 21
369.024
  0
LINE
  8
0
 10
34.512
 11
33.394
 20
369.024
 21
368.212
  0
LINE
  8
0
 10
33.394
 11
32.184
 20
368.212
 21
367.547
  0
LINE
  8
0
 10
32.184
 11
30.899
 20
367.547
 21
367.038
  0
LINE
  8
0
 10
30.899
 11
29.561
 20
367.038
 21
366.695
  0
LINE
  8
0
 10
29.561
 11
28.191
 20
366.695
 21
366.522
  0
LINE
  8
0
 10
28.191
 11
26.809
 20
366.522
 21
366.522
  0
LINE
  8
0
 10
26.809
 11
25.439
 20
366.522
 21
366.695
  0
LINE
  8
0
 10
25.439
 11
24.101
 20
366.695
 21
367.038
  0
LINE
  8
0
 10
24.101
 11
22.816
 20
367.038
 21
367.547
  0
LINE
  8
0
 10
22.816
 11
21.606
 20
367.547
 21
368.212
  0
LINE
  8
0
 10
21.606
 11
20.488
 20
368.212
 21
369.024
  0
LINE
  8
0
 10
20.488
 11
19.481
 20
369.024
 21
369.97
  0
LINE
  8
0
 10
19.481
 11
18.601
 20
369.97
 21
371.034
  0
LINE
  8
0
 10
18.601
 11
17.861
 20
371.034
 21
372.201
  0
LINE
  8
0
 10
17.861
 11
17.272
 20
372.201
 21
373.451
  0
LINE
  8
0
 10
17.272
 11
16.846
 20
373.451
 21
374.764
  0
LINE
  8
0
 10
16.846
 11
16.587
 20
374.764
 21
376.121
  0
LINE
  8
0
 10
16.587
 11
16.5
 20
376.121
 21
377.5
  0
LINE
  8
0
 10
23.5
 11
23.532
 20
52.5
 21
53.001
  0
LINE
  8
0
 10
23.532
 11
23.626
 20
53.001
 21
53.495
  0
LINE
  8
0
 10
23.626
 11
23.781
 20
53.495
 21
53.972
  0
LINE
  8
0
 10
23.781
 11
23.995
 20
53.972
 21
54.427
  0
LINE
  8
0
 10
23.995
 11
24.264
 20
54.427
 21
54.851
  0
LINE
  8
0
 10
24.264
 11
24.584
 20
54.851
 21
55.238
  0
LINE
  8
0
 10
24.584
 11
24.95
 20
55.238
 21
55.582
  0
LINE
  8
0
 10
24.95
 11
25.357
 20
55.582
 21
55.877
  0
LINE
  8
0
 10
25.357
 11
25.797
 20
55.877
 21
56.119
  0
LINE
  8
0
 10
25.797
 11
26.264
 20
56.119
 21
56.304
  0
LINE
  8
0
 10
26.264
 11
26.75
 20
56.304
 21
56.429
  0
LINE
  8
0
 10
26.75
 11
27.249
 20
56.429
 21
56.492
  0
LINE
  8
0
 10
27.249
 11
27.751
 20
56.492
 21
56.492
  0
LINE
  8
0
 10
27.751
 11
28.25
 20
56.492
 21
56.429
  0
LINE
  8
0
 10
28.25
 11
28.736
 20
56.429
 21
56.304
  0
LINE
  8
0
 10
28.736
 11
29.203
 20
56.304
 21
56.119
  0
LINE
  8
0
 10
29.203
 11
29.643
 20
56.119
 21
55.877
  0
LINE
  8
0
 10
29.643
 11
30.05
 20
55.877
 21
55.582
  0
LINE
  8
0
 10
30.05
 11
30.416
 20
55.582
 21
55.238
  0
LINE
  8
0
 10
30.416
 11
30.736
 20
55.238
 21
54.851
  0
LINE
  8
0
 10
30.736
 11
31.005
 20
54.851
 21
54.427
  0
LINE
  8
0
 10
31.005
 11
31.219
 20
54.427
 21
53.972
  0
LINE
  8
0
 10
31.219
 11
31.374
 20
53.972
 21
53.495
  0
LINE
  8
0
 10
31.374
 11
31.468
 20
53.495
 21
53.001
  0
LINE
  8
0
 10
31.468
 11
31.5
 20
53.001
 21
52.5
  0
LINE
  8
0
 10
31.5
 11
31.468
 20
52.5
 21
51.999
  0
LINE
  8
0
 10
31.468
 11
31.374
 20
51.999
 21
51.505
  0
LINE
  8
0
 10
31.374
 11
31.219
 20
51.505
 21
51.028
  0
LINE
  8
0
 10
31.219
 11
31.005
 20
51.028
 21
50.573
  0
LINE
  8
0
 10
31.005
 11
30.736
 20
50.573
 21
50.149
  0
LINE
  8
0
 10
30.736
 11
30.416
 20
50.149
 21
49.762
  0
LINE
  8
0
 10
30.416
 11
30.05
 20
49.762
 21
49.418
  0
LINE
  8
0
 10
30.05
 11
29.643
 20
49.418
 21
49.123
  0
LINE
  8
0
 10
29.643
 11
29.203
 20
49.123
 21
48.881
  0
LINE
  8
0
 10
29.203
 11
28.736
 20
48.881
 21
48.696
  0
LINE
  8
0
 10
28.736
 11
28.25
 20
48.696
 21
48.571
  0
LINE
  8
0
 10
28.25
 11
27.751
 20
48.571
 21
48.508
  0
LINE
  8
0
 10
27.751
 11
27.249
 20
48.508
 21
48.508
  0
LINE
  8
0
 10
27.249
 11
26.75
 20
48.508
 21
48.571
  0
LINE
  8
0
 10
26.75
 11
26.264
 20
48.571
 21
48.696
  0
LINE
  8
0
 10
26.264
 11
25.797
 20
48.696
 21
48.881
  0
LINE
  8
0
 10
25.797
 11
25.357
 20
48.881
 21
49.123
  0
LINE
  8
0
 10
25.357
 11
24.95
 20
49.123
 21
49.418
  0
LINE
  8
0
 10
24.95
 11
24.584
 20
49.418
 21
49.762
  0
LINE
  8
0
 10
24.584
 11
24.264
 20
49.762
 21
50.149
  0
LINE
  8
0
 10
24.264
 11
23.995
 20
50.149
 21
50.573
  0
LINE
  8
0
 10
23.995
 11
23.781
 20
50.573
 21
51.028
  0
LINE
  8
0
 10
23.781
 11
23.626
 20
51.028
 21
51.505
  0
LINE
  8
0
 10
23.626
 11
23.532
 20
51.505
 21
51.999
  0
LINE
  8
0
 10
23.532
 11
23.5
 20
51.999
 21
52.5
  0
LINE
  8
0
 10
41
 11
41.032
 20
52.5
 21
53.001
  0
LINE
  8
0
 10
41.032
 11
41.126
 20
53.001
 21
53.495
  0
LINE
  8
0
 10
41.126
 11
41.281
 20
53.495
 21
53.972
  0
LINE
  8
0
 10
41.281
 11
41.495
 20
53.972
 21
54.427
  0
LINE
  8
0
 10
41.495
 11
41.764
 20
54.427
 21
54.851
  0
LINE
  8
0
 10
41.764
 11
42.084
 20
54.851
 21
55.238
  0
LINE
  8
0
 10
42.084
 11
42.45
 20
55.238
 21
55.582
  0
LINE
  8
0
 10
42.45
 11
42.857
 20
55.582
 21
55.877
  0
LINE
  8
0
 10
42.857
 11
43.297
 20
55.877
 21
56.119
  0
LINE
  8
0
 10
43.297
 11
43.764
 20
56.119
 21
56.304
  0
LINE
  8
0
 10
43.764
 11
44.25
 20
56.304
 21
56.429
  0
LINE
  8
0
 10
44.25
 11
44.749
 20
56.429
 21
56.492
  0
LINE
  8
0
 10
44.749
 11
45.251
 20
56.492
 21
56.492
  0
LINE
  8
0
 10
45.251
 11
45.75
 20
56.492
 21
56.429
  0
LINE
  8
0
 10
45.75
 11
46.236
 20
56.429
 21
56.304
  0
LINE
  8
0
 10
46.236
 11
46.703
 20
56.304
 21
56.119
  0
LINE
  8
0
 10
46.703
 11
47.143
 20
56.119
 21
55.877
  0
LINE
  8
0
 10
47.143
 11
47.55
 20
55.877
 21
55.582
  0
LINE
  8
0
 10
47.55
 11
47.916
 20
55.582
 21
55.238
  0
LINE
  8
0
 10
47.916
 11
48.236
 20
55.238
 21
54.851
  0
LINE
  8
0
 10
48.236
 11
48.505
 20
54.851
 21
54.427
  0
LINE
  8
0
 10
48.505
 11
48.719
 20
54.427
 21
53.972
  0
LINE
  8
0
 10
48.719
 11
48.874
 20
53.972
 21
53.495
  0
LINE
  8
0
 10
48.874
 11
48.968
 20
53.495
 21
53.001
  0
LINE
  8
0
 10
48.968
 11
49
 20
53.001
 21
52.5
  0
LINE
  8
0
 10
49
 11
48.968
 20
52.5
 21
51.999
  0
LINE
  8
0
 10
48.968
 11
48.874
 20
51.999
 21
51.505
  0
LINE
  8
0
 10
48.874
 11
48.719
 20
51.505
 21
51.028
  0
LINE
  8
0
 10
48.719
 11
48.505
 20
51.028
 21
50.573
  0
LINE
  8
0
 10
48.505
 11
48.236
 20
50.573
 21
50.149
  0
LINE
  8
0
 10
48.236
 11
47.916
 20
50.149
 21
49.762
  0
LINE
  8
0
 10
47.916
 11
47.55
 20
49.762
 21
49.418
  0
LINE
  8
0
 10
47.55
 11
47.143
 20
49.418
 21
49.123
  0
LINE
  8
0
 10
47.143
 11
46.703
 20
49.123
 21
48.881
  0
LINE
  8
0
 10
46.703
 11
46.236
 20
48.881
 21
48.696
  0
LINE
  8
0
 10
46.236
 11
45.75
 20
48.696
 21
48.571
  0
LINE
  8
0
 10
45.75
 11
45.251
 20
48.571
 21
48.508
  0
LINE
  8
0
 10
45.251
 11
44.749
 20
48.508
 21
48.508
  0
LINE
  8
0
 10
44.749
 11
44.25
 20
48.508
 21
48.571
  0
LINE
  8
0
 10
44.25
 11
43.764
 20
48.571
 21
48.696
  0
LINE
  8
0
 10
43.764
 11
43.297
 20
48.696
 21
48.881
  0
LINE
  8
0
 10
43.297
 11
42.857
 20
48.881
 21
49.123
  0
LINE
  8
0
 10
42.857
 11
42.45
 20
49.123
 21
49.418
  0
LINE
  8
0
 10
42.45
 11
42.084
 20
49.418
 21
49.762
  0
LINE
  8
0
 10
42.084
 11
41.764
 20
49.762
 21
50.149
  0
LINE
  8
0
 10
41.764
 11
41.495
 20
50.149
 21
50.573
  0
LINE
  8
0
 10
41.495
 11
41.281
 20
50.573
 21
51.028
  0
LINE
  8
0
 10
41.281
 11
41.126
 20
51.028
 21
51.505
  0
LINE
  8
0
 10
41.126
 11
41.032
 20
51.505
 21
51.999
  0
LINE
  8
0
 10
41.032
 11
41
 20
51.999
 21
52.5
  0
LINE
  8
0
 10
41.5
 11
41.512
 20
393
 21
393.188
  0
LINE
  8
0
 10
41.512
 11
41.547
 20
393.188
 21
393.373
  0
LINE
  8
0
 10
41.547
 11
41.605
 20
393.373
 21
393.552
  0
LINE
  8
0
 10
41.605
 11
41.686
 20
393.552
 21
393.723
  0
LINE
  8
0
 10
41.686
 11
41.786
 20
393.723
 21
393.882
  0
LINE
  8
0
 10
41.786
 11
41.907
 20
393.882
 21
394.027
  0
LINE
  8
0
 10
41.907
 11
42.044
 20
394.027
 21
394.156
  0
LINE
  8
0
 10
42.044
 11
42.196
 20
394.156
 21
394.266
  0
LINE
  8
0
 10
42.196
 11
42.361
 20
394.266
 21
394.357
  0
LINE
  8
0
 10
42.361
 11
42.536
 20
394.357
 21
394.427
  0
LINE
  8
0
 10
42.536
 11
42.719
 20
394.427
 21
394.473
  0
LINE
  8
0
 10
42.719
 11
42.906
 20
394.473
 21
394.497
  0
LINE
  8
0
 10
42.906
 11
43.094
 20
394.497
 21
394.497
  0
LINE
  8
0
 10
43.094
 11
43.281
 20
394.497
 21
394.473
  0
LINE
  8
0
 10
43.281
 11
43.464
 20
394.473
 21
394.427
  0
LINE
  8
0
 10
43.464
 11
43.639
 20
394.427
 21
394.357
  0
LINE
  8
0
 10
43.639
 11
43.804
 20
394.357
 21
394.266
  0
LINE
  8
0
 10
43.804
 11
43.956
 20
394.266
 21
394.156
  0
LINE
  8
0
 10
43.956
 11
44.093
 20
394.156
 21
394.027
  0
LINE
  8
0
 10
44.093
 11
44.214
 20
394.027
 21
393.882
  0
LINE
  8
0
 10
44.214
 11
44.314
 20
393.882
 21
393.723
  0
LINE
  8
0
 10
44.314
 11
44.395
 20
393.723
 21
393.552
  0
LINE
  8
0
 10
44.395
 11
44.453
 20
393.552
 21
393.373
  0
LINE
  8
0
 10
44.453
 11
44.488
 20
393.373
 21
393.188
  0
LINE
  8
0
 10
44.488
 11
44.5
 20
393.188
 21
393
  0
LINE
  8
0
 10
44.5
 11
44.488
 20
393
 21
392.812
  0
LINE
  8
0
 10
44.488
 11
44.453
 20
392.812
 21
392.627
  0
LINE
  8
0
 10
44.453
 11
44.395
 20
392.627
 21
392.448
  0
LINE
  8
0
 10
44.395
 11
44.314
 20
392.448
 21
392.277
  0
LINE
  8
0
 10
44.314
 11
44.214
 20
392.277
 21
392.118
  0
LINE
  8
0
 10
44.214
 11
44.093
 20
392.118
 21
391.973
  0
LINE
  8
0
 10
44.093
 11
43.956
 20
391.973
 21
391.844
  0
LINE
  8
0
 10
43.956
 11
43.804
 20
391.844
 21
391.734
  0
LINE
  8
0
 10
43.804
 11
43.639
 20
391.734
 21
391.643
  0
LINE
  8
0
 10
43.639
 11
43.464
 20
391.643
 21
391.573
  0
LINE
  8
0
 10
43.464
 11
43.281
 20
391.573
 21
391.527
  0
LINE
  8
0
 10
43.281
 11
43.094
 20
391.527
 21
391.503
  0
LINE
  8
0
 10
43.094
 11
42.906
 20
391.503
 21
391.503
  0
LINE
  8
0
 10
42.906
 11
42.719
 20
391.503
 21
391.527
  0
LINE
  8
0
 10
42.719
 11
42.536
 20
391.527
 21
391.573
  0
LINE
  8
0
 10
42.536
 11
42.361
 20
391.573
 21
391.643
  0
LINE
  8
0
 10
42.361
 11
42.196
 20
391.643
 21
391.734
  0
LINE
  8
0
 10
42.196
 11
42.044
 20
391.734
 21
391.844
  0
LINE
  8
0
 10
42.044
 11
41.907
 20
391.844
 21
391.973
  0
LINE
  8
0
 10
41.907
 11
41.786
 20
391.973
 21
392.118
  0
LINE
  8
0
 10
41.786
 11
41.686
 20
392.118
 21
392.277
  0
LINE
  8
0
 10
41.686
 11
41.605
 20
392.277
 21
392.448
  0
LINE
  8
0
 10
41.605
 11
41.547
 20
392.448
 21
392.627
  0
LINE
  8
0
 10
41.547
 11
41.512
 20
392.627
 21
392.812
  0
LINE
  8
0
 10
41.512
 11
41.5
 20
392.812
 21
393
  0
LINE
  8
0
 10
41.503
 11
41.503
 20
361.906
 21
362.094
  0
LINE
  8
0
 10
41.503
 11
41.527
 20
362.094
 21
362.281
  0
LINE
  8
0
 10
41.527
 11
41.573
 20
362.281
 21
362.464
  0
LINE
  8
0
 10
41.573
 11
41.643
 20
362.464
 21
362.639
  0
LINE
  8
0
 10
41.643
 11
41.734
 20
362.639
 21
362.804
  0
LINE
  8
0
 10
41.734
 11
41.844
 20
362.804
 21
362.956
  0
LINE
  8
0
 10
41.844
 11
41.973
 20
362.956
 21
363.093
  0
LINE
  8
0
 10
41.973
 11
42.118
 20
363.093
 21
363.214
  0
LINE
  8
0
 10
42.118
 11
42.277
 20
363.214
 21
363.314
  0
LINE
  8
0
 10
42.277
 11
42.448
 20
363.314
 21
363.395
  0
LINE
  8
0
 10
42.448
 11
42.627
 20
363.395
 21
363.453
  0
LINE
  8
0
 10
42.627
 11
42.812
 20
363.453
 21
363.488
  0
LINE
  8
0
 10
42.812
 11
43
 20
363.488
 21
363.5
  0
LINE
  8
0
 10
43
 11
43.188
 20
363.5
 21
363.488
  0
LINE
  8
0
 10
43.188
 11
43.373
 20
363.488
 21
363.453
  0
LINE
  8
0
 10
43.373
 11
43.552
 20
363.453
 21
363.395
  0
LINE
  8
0
 10
43.552
 11
43.723
 20
363.395
 21
363.314
  0
LINE
  8
0
 10
43.723
 11
43.882
 20
363.314
 21
363.214
  0
LINE
  8
0
 10
43.882
 11
44.027
 20
363.214
 21
363.093
  0
LINE
  8
0
 10
44.027
 11
44.156
 20
363.093
 21
362.956
  0
LINE
  8
0
 10
44.156
 11
44.266
 20
362.956
 21
362.804
  0
LINE
  8
0
 10
44.266
 11
44.357
 20
362.804
 21
362.639
  0
LINE
  8
0
 10
44.357
 11
44.427
 20
362.639
 21
362.464
  0
LINE
  8
0
 10
44.427
 11
44.473
 20
362.464
 21
362.281
  0
LINE
  8
0
 10
44.473
 11
44.497
 20
362.281
 21
362.094
  0
LINE
  8
0
 10
44.497
 11
44.497
 20
362.094
 21
361.906
  0
LINE
  8
0
 10
44.497
 11
44.473
 20
361.906
 21
361.719
  0
LINE
  8
0
 10
44.473
 11
44.427
 20
361.719
 21
361.536
  0
LINE
  8
0
 10
44.427
 11
44.357
 20
361.536
 21
361.361
  0
LINE
  8
0
 10
44.357
 11
44.266
 20
361.361
 21
361.196
  0
LINE
  8
0
 10
44.266
 11
44.156
 20
361.196
 21
361.044
  0
LINE
  8
0
 10
44.156
 11
44.027
 20
361.044
 21
360.907
  0
LINE
  8
0
 10
44.027
 11
43.882
 20
360.907
 21
360.786
  0
LINE
  8
0
 10
43.882
 11
43.723
 20
360.786
 21
360.686
  0
LINE
  8
0
 10
43.723
 11
43.552
 20
360.686
 21
360.605
  0
LINE
  8
0
 10
43.552
 11
43.373
 20
360.605
 21
360.547
  0
LINE
  8
0
 10
43.373
 11
43.188
 20
360.547
 21
360.512
  0
LINE
  8
0
 10
43.188
 11
43
 20
360.512
 21
360.5
  0
LINE
  8
0
 10
43
 11
42.812
 20
360.5
 21
360.512
  0
LINE
  8
0
 10
42.812
 11
42.627
 20
360.512
 21
360.547
  0
LINE
  8
0
 10
42.627
 11
42.448
 20
360.547
 21
360.605
  0
LINE
  8
0
 10
42.448
 11
42.277
 20
360.605
 21
360.686
  0
LINE
  8
0
 10
42.277
 11
42.118
 20
360.686
 21
360.786
  0
LINE
  8
0
 10
42.118
 11
41.973
 20
360.786
 21
360.907
  0
LINE
  8
0
 10
41.973
 11
41.844
 20
360.907
 21
361.044
  0
LINE
  8
0
 10
41.844
 11
41.734
 20
361.044
 21
361.196
  0
LINE
  8
0
 10
41.734
 11
41.643
 20
361.196
 21
361.361
  0
LINE
  8
0
 10
41.643
 11
41.573
 20
361.361
 21
361.536
  0
LINE
  8
0
 10
41.573
 11
41.527
 20
361.536
 21
361.719
  0
LINE
  8
0
 10
41.527
 11
41.503
 20
361.719
 21
361.906
  0
LINE
  8
0
 10
42.5
 11
42.52
 20
15
 21
15.313
  0
LINE
  8
0
 10
42.52
 11
42.579
 20
15.313
 21
15.622
  0
LINE
  8
0
 10
42.579
 11
42.676
 20
15.622
 21
15.92
  0
LINE
  8
0
 10
42.676
 11
42.809
 20
15.92
 21
16.204
  0
LINE
  8
0
 10
42.809
 11
42.977
 20
16.204
 21
16.469
  0
LINE
  8
0
 10
42.977
 11
43.178
 20
16.469
 21
16.711
  0
LINE
  8
0
 10
43.178
 11
43.406
 20
16.711
 21
16.926
  0
LINE
  8
0
 10
43.406
 11
43.66
 20
16.926
 21
17.111
  0
LINE
  8
0
 10
43.66
 11
43.936
 20
17.111
 21
17.262
  0
LINE
  8
0
 10
43.936
 11
44.227
 20
17.262
 21
17.378
  0
LINE
  8
0
 10
44.227
 11
44.532
 20
17.378
 21
17.456
  0
LINE
  8
0
 10
44.532
 11
44.843
 20
17.456
 21
17.495
  0
LINE
  8
0
 10
44.843
 11
45.157
 20
17.495
 21
17.495
  0
LINE
  8
0
 10
45.157
 11
45.468
 20
17.495
 21
17.456
  0
LINE
  8
0
 10
45.468
 11
45.773
 20
17.456
 21
17.378
  0
LINE
  8
0
 10
45.773
 11
46.064
 20
17.378
 21
17.262
  0
LINE
  8
0
 10
46.064
 11
46.34
 20
17.262
 21
17.111
  0
LINE
  8
0
 10
46.34
 11
46.594
 20
17.111
 21
16.926
  0
LINE
  8
0
 10
46.594
 11
46.822
 20
16.926
 21
16.711
  0
LINE
  8
0
 10
46.822
 11
47.023
 20
16.711
 21
16.469
  0
LINE
  8
0
 10
47.023
 11
47.191
 20
16.469
 21
16.204
  0
LINE
  8
0
 10
47.191
 11
47.324
 20
16.204
 21
15.92
  0
LINE
  8
0
 10
47.324
 11
47.421
 20
15.92
 21
15.622
  0
LINE
  8
0
 10
47.421
 11
47.48
 20
15.622
 21
15.313
  0
LINE
  8
0
 10
47.48
 11
47.5
 20
15.313
 21
15
  0
LINE
  8
0
 10
47.5
 11
47.48
 20
15
 21
14.687
  0
LINE
  8
0
 10
47.48
 11
47.421
 20
14.687
 21
14.378
  0
LINE
  8
0
 10
47.421
 11
47.324
 20
14.378
 21
14.08
  0
LINE
  8
0
 10
47.324
 11
47.191
 20
14.08
 21
13.796
  0
LINE
  8
0
 10
47.191
 11
47.023
 20
13.796
 21
13.531
  0
LINE
  8
0
 10
47.023
 11
46.822
 20
13.531
 21
13.289
  0
LINE
  8
0
 10
46.822
 11
46.594
 20
13.289
 21
13.074
  0
LINE
  8
0
 10
46.594
 11
46.34
 20
13.074
 21
12.889
  0
LINE
  8
0
 10
46.34
 11
46.064
 20
12.889
 21
12.738
  0
LINE
  8
0
 10
46.064
 11
45.773
 20
12.738
 21
12.622
  0
LINE
  8
0
 10
45.773
 11
45.468
 20
12.622
 21
12.544
  0
LINE
  8
0
 10
45.468
 11
45.157
 20
12.544
 21
12.505
  0
LINE
  8
0
 10
45.157
 11
44.843
 20
12.505
 21
12.505
  0
LINE
  8
0
 10
44.843
 11
44.532
 20
12.505
 21
12.544
  0
LINE
  8
0
 10
44.532
 11
44.227
 20
12.544
 21
12.622
  0
LINE
  8
0
 10
44.227
 11
43.936
 20
12.622
 21
12.738
  0
LINE
  8
0
 10
43.936
 11
43.66
 20
12.738
 21
12.889
  0
LINE
  8
0
 10
43.66
 11
43.406
 20
12.889
 21
13.074
  0
LINE
  8
0
 10
43.406
 11
43.178
 20
13.074
 21
13.289
  0
LINE
  8
0
 10
43.178
 11
42.977
 20
13.289
 21
13.531
  0
LINE
  8
0
 10
42.977
 11
42.809
 20
13.531
 21
13.796
  0
LINE
  8
0
 10
42.809
 11
42.676
 20
13.796
 21
14.08
  0
LINE
  8
0
 10
42.676
 11
42.579
 20
14.08
 21
14.378
  0
LINE
  8
0
 10
42.579
 11
42.52
 20
14.378
 21
14.687
  0
LINE
  8
0
 10
42.52
 11
42.5
 20
14.687
 21
15
  0
LINE
  8
0
 10
42.5
 11
42.52
 20
415
 21
415.313
  0
LINE
  8
0
 10
42.52
 11
42.579
 20
415.313
 21
415.622
  0
LINE
  8
0
 10
42.579
 11
42.676
 20
415.622
 21
415.92
  0
LINE
  8
0
 10
42.676
 11
42.809
 20
415.92
 21
416.204
  0
LINE
  8
0
 10
42.809
 11
42.977
 20
416.204
 21
416.469
  0
LINE
  8
0
 10
42.977
 11
43.178
 20
416.469
 21
416.711
  0
LINE
  8
0
 10
43.178
 11
43.406
 20
416.711
 21
416.926
  0
LINE
  8
0
 10
43.406
 11
43.66
 20
416.926
 21
417.111
  0
LINE
  8
0
 10
43.66
 11
43.936
 20
417.111
 21
417.262
  0
LINE
  8
0
 10
43.936
 11
44.227
 20
417.262
 21
417.378
  0
LINE
  8
0
 10
44.227
 11
44.532
 20
417.378
 21
417.456
  0
LINE
  8
0
 10
44.532
 11
44.843
 20
417.456
 21
417.495
  0
LINE
  8
0
 10
44.843
 11
45.157
 20
417.495
 21
417.495
  0
LINE
  8
0
 10
45.157
 11
45.468
 20
417.495
 21
417.456
  0
LINE
  8
0
 10
45.468
 11
45.773
 20
417.456
 21
417.378
  0
LINE
  8
0
 10
45.773
 11
46.064
 20
417.378
 21
417.262
  0
LINE
  8
0
 10
46.064
 11
46.34
 20
417.262
 21
417.111
  0
LINE
  8
0
 10
46.34
 11
46.594
 20
417.111
 21
416.926
  0
LINE
  8
0
 10
46.594
 11
46.822
 20
416.926
 21
416.711
  0
LINE
  8
0
 10
46.822
 11
47.023
 20
416.711
 21
416.469
  0
LINE
  8
0
 10
47.023
 11
47.191
 20
416.469
 21
416.204
  0
LINE
  8
0
 10
47.191
 11
47.324
 20
416.204
 21
415.92
  0
LINE
  8
0
 10
47.324
 11
47.421
 20
415.92
 21
415.622
  0
LINE
  8
0
 10
47.421
 11
47.48
 20
415.622
 21
415.313
  0
LINE
  8
0
 10
47.48
 11
47.5
 20
415.313
 21
415
  0
LINE
  8
0
 10
47.5
 11
47.48
 20
415
 21
414.687
  0
LINE
  8
0
 10
47.48
 11
47.421
 20
414.687
 21
414.378
  0
LINE
  8
0
 10
47.421
 11
47.324
 20
414.378
 21
414.08
  0
LINE
  8
0
 10
47.324
 11
47.191
 20
414.08
 21
413.796
  0
LINE
  8
0
 10
47.191
 11
47.023
 20
413.796
 21
413.531
  0
LINE
  8
0
 10
47.023
 11
46.822
 20
413.531
 21
413.289
  0
LINE
  8
0
 10
46.822
 11
46.594
 20
413.289
 21
413.074
  0
LINE
  8
0
 10
46.594
 11
46.34
 20
413.074
 21
412.889
  0
LINE
  8
0
 10
46.34
 11
46.064
 20
412.889
 21
412.738
  0
LINE
  8
0
 10
46.064
 11
45.773
 20
412.738
 21
412.622
  0
LINE
  8
0
 10
45.773
 11
45.468
 20
412.622
 21
412.544
  0
LINE
  8
0
 10
45.468
 11
45.157
 20
412.544
 21
412.505
  0
LINE
  8
0
 10
45.157
 11
44.843
 20
412.505
 21
412.505
  0
LINE
  8
0
 10
44.843
 11
44.532
 20
412.505
 21
412.544
  0
LINE
  8
0
 10
44.532
 11
44.227
 20
412.544
 21
412.622
  0
LINE
  8
0
 10
44.227
 11
43.936
 20
412.622
 21
412.738
  0
LINE
  8
0
 10
43.936
 11
43.66
 20
412.738
 21
412.889
  0
LINE
  8
0
 10
43.66
 11
43.406
 20
412.889
 21
413.074
  0
LINE
  8
0
 10
43.406
 11
43.178
 20
413.074
 21
413.289
  0
LINE
  8
0
 10
43.178
 11
42.977
 20
413.289
 21
413.531
  0
LINE
  8
0
 10
42.977
 11
42.809
 20
413.531
 21
413.796
  0
LINE
  8
0
 10
42.809
 11
42.676
 20
413.796
 21
414.08
  0
LINE
  8
0
 10
42.676
 11
42.579
 20
414.08
 21
414.378
  0
LINE
  8
0
 10
42.579
 11
42.52
 20
414.378
 21
414.687
  0
LINE
  8
0
 10
42.52
 11
42.5
 20
414.687
 21
415
  0
LINE
  8
0
 10
49.5
 11
49.512
 20
76
 21
76.188
  0
LINE
  8
0
 10
49.512
 11
49.547
 20
76.188
 21
76.373
  0
LINE
  8
0
 10
49.547
 11
49.605
 20
76.373
 21
76.552
  0
LINE
  8
0
 10
49.605
 11
49.686
 20
76.552
 21
76.723
  0
LINE
  8
0
 10
49.686
 11
49.786
 20
76.723
 21
76.882
  0
LINE
  8
0
 10
49.786
 11
49.907
 20
76.882
 21
77.027
  0
LINE
  8
0
 10
49.907
 11
50.044
 20
77.027
 21
77.156
  0
LINE
  8
0
 10
50.044
 11
50.196
 20
77.156
 21
77.266
  0
LINE
  8
0
 10
50.196
 11
50.361
 20
77.266
 21
77.357
  0
LINE
  8
0
 10
50.361
 11
50.536
 20
77.357
 21
77.427
  0
LINE
  8
0
 10
50.536
 11
50.719
 20
77.427
 21
77.473
  0
LINE
  8
0
 10
50.719
 11
50.906
 20
77.473
 21
77.497
  0
LINE
  8
0
 10
50.906
 11
51.094
 20
77.497
 21
77.497
  0
LINE
  8
0
 10
51.094
 11
51.281
 20
77.497
 21
77.473
  0
LINE
  8
0
 10
51.281
 11
51.464
 20
77.473
 21
77.427
  0
LINE
  8
0
 10
51.464
 11
51.639
 20
77.427
 21
77.357
  0
LINE
  8
0
 10
51.639
 11
51.804
 20
77.357
 21
77.266
  0
LINE
  8
0
 10
51.804
 11
51.956
 20
77.266
 21
77.156
  0
LINE
  8
0
 10
51.956
 11
52.093
 20
77.156
 21
77.027
  0
LINE
  8
0
 10
52.093
 11
52.214
 20
77.027
 21
76.882
  0
LINE
  8
0
 10
52.214
 11
52.314
 20
76.882
 21
76.723
  0
LINE
  8
0
 10
52.314
 11
52.395
 20
76.723
 21
76.552
  0
LINE
  8
0
 10
52.395
 11
52.453
 20
76.552
 21
76.373
  0
LINE
  8
0
 10
52.453
 11
52.488
 20
76.373
 21
76.188
  0
LINE
  8
0
 10
52.488
 11
52.5
 20
76.188
 21
76
  0
LINE
  8
0
 10
52.5
 11
52.488
 20
76
 21
75.812
  0
LINE
  8
0
 10
52.488
 11
52.453
 20
75.812
 21
75.627
  0
LINE
  8
0
 10
52.453
 11
52.395
 20
75.627
 21
75.448
  0
LINE
  8
0
 10
52.395
 11
52.314
 20
75.448
 21
75.277
  0
LINE
  8
0
 10
52.314
 11
52.214
 20
75.277
 21
75.118
  0
LINE
  8
0
 10
52.214
 11
52.093
 20
75.118
 21
74.973
  0
LINE
  8
0
 10
52.093
 11
51.956
 20
74.973
 21
74.844
  0
LINE
  8
0
 10
51.956
 11
51.804
 20
74.844
 21
74.734
  0
LINE
  8
0
 10
51.804
 11
51.639
 20
74.734
 21
74.643
  0
LINE
  8
0
 10
51.639
 11
51.464
 20
74.643
 21
74.573
  0
LINE
  8
0
 10
51.464
 11
51.281
 20
74.573
 21
74.527
  0
LINE
  8
0
 10
51.281
 11
51.094
 20
74.527
 21
74.503
  0
LINE
  8
0
 10
51.094
 11
50.906
 20
74.503
 21
74.503
  0
LINE
  8
0
 10
50.906
 11
50.719
 20
74.503
 21
74.527
  0
LINE
  8
0
 10
50.719
 11
50.536
 20
74.527
 21
74.573
  0
LINE
  8
0
 10
50.536
 11
50.361
 20
74.573
 21
74.643
  0
LINE
  8
0
 10
50.361
 11
50.196
 20
74.643
 21
74.734
  0
LINE
  8
0
 10
50.196
 11
50.044
 20
74.734
 21
74.844
  0
LINE
  8
0
 10
50.044
 11
49.907
 20
74.844
 21
74.973
  0
LINE
  8
0
 10
49.907
 11
49.786
 20
74.973
 21
75.118
  0
LINE
  8
0
 10
49.786
 11
49.686
 20
75.118
 21
75.277
  0
LINE
  8
0
 10
49.686
 11
49.605
 20
75.277
 21
75.448
  0
LINE
  8
0
 10
49.605
 11
49.547
 20
75.448
 21
75.627
  0
LINE
  8
0
 10
49.547
 11
49.512
 20
75.627
 21
75.812
  0
LINE
  8
0
 10
49.512
 11
49.5
 20
75.812
 21
76
  0
LINE
  8
0
 10
49.5
 11
49.512
 20
401
 21
401.188
  0
LINE
  8
0
 10
49.512
 11
49.547
 20
401.188
 21
401.373
  0
LINE
  8
0
 10
49.547
 11
49.605
 20
401.373
 21
401.552
  0
LINE
  8
0
 10
49.605
 11
49.686
 20
401.552
 21
401.723
  0
LINE
  8
0
 10
49.686
 11
49.786
 20
401.723
 21
401.882
  0
LINE
  8
0
 10
49.786
 11
49.907
 20
401.882
 21
402.027
  0
LINE
  8
0
 10
49.907
 11
50.044
 20
402.027
 21
402.156
  0
LINE
  8
0
 10
50.044
 11
50.196
 20
402.156
 21
402.266
  0
LINE
  8
0
 10
50.196
 11
50.361
 20
402.266
 21
402.357
  0
LINE
  8
0
 10
50.361
 11
50.536
 20
402.357
 21
402.427
  0
LINE
  8
0
 10
50.536
 11
50.719
 20
402.427
 21
402.473
  0
LINE
  8
0
 10
50.719
 11
50.906
 20
402.473
 21
402.497
  0
LINE
  8
0
 10
50.906
 11
51.094
 20
402.497
 21
402.497
  0
LINE
  8
0
 10
51.094
 11
51.281
 20
402.497
 21
402.473
  0
LINE
  8
0
 10
51.281
 11
51.464
 20
402.473
 21
402.427
  0
LINE
  8
0
 10
51.464
 11
51.639
 20
402.427
 21
402.357
  0
LINE
  8
0
 10
51.639
 11
51.804
 20
402.357
 21
402.266
  0
LINE
  8
0
 10
51.804
 11
51.956
 20
402.266
 21
402.156
  0
LINE
  8
0
 10
51.956
 11
52.093
 20
402.156
 21
402.027
  0
LINE
  8
0
 10
52.093
 11
52.214
 20
402.027
 21
401.882
  0
LINE
  8
0
 10
52.214
 11
52.314
 20
401.882
 21
401.723
  0
LINE
  8
0
 10
52.314
 11
52.395
 20
401.723
 21
401.552
  0
LINE
  8
0
 10
52.395
 11
52.453
 20
401.552
 21
401.373
  0
LINE
  8
0
 10
52.453
 11
52.488
 20
401.373
 21
401.188
  0
LINE
  8
0
 10
52.488
 11
52.5
 20
401.188
 21
401
  0
LINE
  8
0
 10
52.5
 11
52.488
 20
401
 21
400.812
  0
LINE
  8
0
 10
52.488
 11
52.453
 20
400.812
 21
400.627
  0
LINE
  8
0
 10
52.453
 11
52.395
 20
400.627
 21
400.448
  0
LINE
  8
0
 10
52.395
 11
52.314
 20
400.448
 21
400.277
  0
LINE
  8
0
 10
52.314
 11
52.214
 20
400.277
 21
400.118
  0
LINE
  8
0
 10
52.214
 11
52.093
 20
400.118
 21
399.973
  0
LINE
  8
0
 10
52.093
 11
51.956
 20
399.973
 21
399.844
  0
LINE
  8
0
 10
51.956
 11
51.804
 20
399.844
 21
399.734
  0
LINE
  8
0
 10
51.804
 11
51.639
 20
399.734
 21
399.643
  0
LINE
  8
0
 10
51.639
 11
51.464
 20
399.643
 21
399.573
  0
LINE
  8
0
 10
51.464
 11
51.281
 20
399.573
 21
399.527
  0
LINE
  8
0
 10
51.281
 11
51.094
 20
399.527
 21
399.503
  0
LINE
  8
0
 10
51.094
 11
50.906
 20
399.503
 21
399.503
  0
LINE
  8
0
 10
50.906
 11
50.719
 20
399.503
 21
399.527
  0
LINE
  8
0
 10
50.719
 11
50.536
 20
399.527
 21
399.573
  0
LINE
  8
0
 10
50.536
 11
50.361
 20
399.573
 21
399.643
  0
LINE
  8
0
 10
50.361
 11
50.196
 20
399.643
 21
399.734
  0
LINE
  8
0
 10
50.196
 11
50.044
 20
399.734
 21
399.844
  0
LINE
  8
0
 10
50.044
 11
49.907
 20
399.844
 21
399.973
  0
LINE
  8
0
 10
49.907
 11
49.786
 20
399.973
 21
400.118
  0
LINE
  8
0
 10
49.786
 11
49.686
 20
400.118
 21
400.277
  0
LINE
  8
0
 10
49.686
 11
49.605
 20
400.277
 21
400.448
  0
LINE
  8
0
 10
49.605
 11
49.547
 20
400.448
 21
400.627
  0
LINE
  8
0
 10
49.547
 11
49.512
 20
400.627
 21
400.812
  0
LINE
  8
0
 10
49.512
 11
49.5
 20
400.812
 21
401
  0
LINE
  8
0
 10
49.503
 11
49.503
 20
28.906
 21
29.094
  0
LINE
  8
0
 10
49.503
 11
49.527
 20
29.094
 21
29.281
  0
LINE
  8
0
 10
49.527
 11
49.573
 20
29.281
 21
29.464
  0
LINE
  8
0
 10
49.573
 11
49.643
 20
29.464
 21
29.639
  0
LINE
  8
0
 10
49.643
 11
49.734
 20
29.639
 21
29.804
  0
LINE
  8
0
 10
49.734
 11
49.844
 20
29.804
 21
29.956
  0
LINE
  8
0
 10
49.844
 11
49.973
 20
29.956
 21
30.093
  0
LINE
  8
0
 10
49.973
 11
50.118
 20
30.093
 21
30.214
  0
LINE
  8
0
 10
50.118
 11
50.277
 20
30.214
 21
30.314
  0
LINE
  8
0
 10
50.277
 11
50.448
 20
30.314
 21
30.395
  0
LINE
  8
0
 10
50.448
 11
50.627
 20
30.395
 21
30.453
  0
LINE
  8
0
 10
50.627
 11
50.812
 20
30.453
 21
30.488
  0
LINE
  8
0
 10
50.812
 11
51
 20
30.488
 21
30.5
  0
LINE
  8
0
 10
51
 11
51.188
 20
30.5
 21
30.488
  0
LINE
  8
0
 10
51.188
 11
51.373
 20
30.488
 21
30.453
  0
LINE
  8
0
 10
51.373
 11
51.552
 20
30.453
 21
30.395
  0
LINE
  8
0
 10
51.552
 11
51.723
 20
30.395
 21
30.314
  0
LINE
  8
0
 10
51.723
 11
51.882
 20
30.314
 21
30.214
  0
LINE
  8
0
 10
51.882
 11
52.027
 20
30.214
 21
30.093
  0
LINE
  8
0
 10
52.027
 11
52.156
 20
30.093
 21
29.956
  0
LINE
  8
0
 10
52.156
 11
52.266
 20
29.956
 21
29.804
  0
LINE
  8
0
 10
52.266
 11
52.357
 20
29.804
 21
29.639
  0
LINE
  8
0
 10
52.357
 11
52.427
 20
29.639
 21
29.464
  0
LINE
  8
0
 10
52.427
 11
52.473
 20
29.464
 21
29.281
  0
LINE
  8
0
 10
52.473
 11
52.497
 20
29.281
 21
29.094
  0
LINE
  8
0
 10
52.497
 11
52.497
 20
29.094
 21
28.906
  0
LINE
  8
0
 10
52.497
 11
52.473
 20
28.906
 21
28.719
  0
LINE
  8
0
 10
52.473
 11
52.427
 20
28.719
 21
28.536
  0
LINE
  8
0
 10
52.427
 11
52.357
 20
28.536
 21
28.361
  0
LINE
  8
0
 10
52.357
 11
52.266
 20
28.361
 21
28.196
  0
LINE
  8
0
 10
52.266
 11
52.156
 20
28.196
 21
28.044
  0
LINE
  8
0
 10
52.156
 11
52.027
 20
28.044
 21
27.907
  0
LINE
  8
0
 10
52.027
 11
51.882
 20
27.907
 21
27.786
  0
LINE
  8
0
 10
51.882
 11
51.723
 20
27.786
 21
27.686
  0
LINE
  8
0
 10
51.723
 11
51.552
 20
27.686
 21
27.605
  0
LINE
  8
0
 10
51.552
 11
51.373
 20
27.605
 21
27.547
  0
LINE
  8
0
 10
51.373
 11
51.188
 20
27.547
 21
27.512
  0
LINE
  8
0
 10
51.188
 11
51
 20
27.512
 21
27.5
  0
LINE
  8
0
 10
51
 11
50.812
 20
27.5
 21
27.512
  0
LINE
  8
0
 10
50.812
 11
50.627
 20
27.512
 21
27.547
  0
LINE
  8
0
 10
50.627
 11
50.448
 20
27.547
 21
27.605
  0
LINE
  8
0
 10
50.448
 11
50.277
 20
27.605
 21
27.686
  0
LINE
  8
0
 10
50.277
 11
50.118
 20
27.686
 21
27.786
  0
LINE
  8
0
 10
50.118
 11
49.973
 20
27.786
 21
27.907
  0
LINE
  8
0
 10
49.973
 11
49.844
 20
27.907
 21
28.044
  0
LINE
  8
0
 10
49.844
 11
49.734
 20
28.044
 21
28.196
  0
LINE
  8
0
 10
49.734
 11
49.643
 20
28.196
 21
28.361
  0
LINE
  8
0
 10
49.643
 11
49.573
 20
28.361
 21
28.536
  0
LINE
  8
0
 10
49.573
 11
49.527
 20
28.536
 21
28.719
  0
LINE
  8
0
 10
49.527
 11
49.503
 20
28.719
 21
28.906
  0
LINE
  8
0
 10
49.503
 11
49.503
 20
353.906
 21
354.094
  0
LINE
  8
0
 10
49.503
 11
49.527
 20
354.094
 21
354.281
  0
LINE
  8
0
 10
49.527
 11
49.573
 20
354.281
 21
354.464
  0
LINE
  8
0
 10
49.573
 11
49.643
 20
354.464
 21
354.639
  0
LINE
  8
0
 10
49.643
 11
49.734
 20
354.639
 21
354.804
  0
LINE
  8
0
 10
49.734
 11
49.844
 20
354.804
 21
354.956
  0
LINE
  8
0
 10
49.844
 11
49.973
 20
354.956
 21
355.093
  0
LINE
  8
0
 10
49.973
 11
50.118
 20
355.093
 21
355.214
  0
LINE
  8
0
 10
50.118
 11
50.277
 20
355.214
 21
355.314
  0
LINE
  8
0
 10
50.277
 11
50.448
 20
355.314
 21
355.395
  0
LINE
  8
0
 10
50.448
 11
50.627
 20
355.395
 21
355.453
  0
LINE
  8
0
 10
50.627
 11
50.812
 20
355.453
 21
355.488
  0
LINE
  8
0
 10
50.812
 11
51
 20
355.488
 21
355.5
  0
LINE
  8
0
 10
51
 11
51.188
 20
355.5
 21
355.488
  0
LINE
  8
0
 10
51.188
 11
51.373
 20
355.488
 21
355.453
  0
LINE
  8
0
 10
51.373
 11
51.552
 20
355.453
 21
355.395
  0
LINE
  8
0
 10
51.552
 11
51.723
 20
355.395
 21
355.314
  0
LINE
  8
0
 10
51.723
 11
51.882
 20
355.314
 21
355.214
  0
LINE
  8
0
 10
51.882
 11
52.027
 20
355.214
 21
355.093
  0
LINE
  8
0
 10
52.027
 11
52.156
 20
355.093
 21
354.956
  0
LINE
  8
0
 10
52.156
 11
52.266
 20
354.956
 21
354.804
  0
LINE
  8
0
 10
52.266
 11
52.357
 20
354.804
 21
354.639
  0
LINE
  8
0
 10
52.357
 11
52.427
 20
354.639
 21
354.464
  0
LINE
  8
0
 10
52.427
 11
52.473
 20
354.464
 21
354.281
  0
LINE
  8
0
 10
52.473
 11
52.497
 20
354.281
 21
354.094
  0
LINE
  8
0
 10
52.497
 11
52.497
 20
354.094
 21
353.906
  0
LINE
  8
0
 10
52.497
 11
52.473
 20
353.906
 21
353.719
  0
LINE
  8
0
 10
52.473
 11
52.427
 20
353.719
 21
353.536
  0
LINE
  8
0
 10
52.427
 11
52.357
 20
353.536
 21
353.361
  0
LINE
  8
0
 10
52.357
 11
52.266
 20
353.361
 21
353.196
  0
LINE
  8
0
 10
52.266
 11
52.156
 20
353.196
 21
353.044
  0
LINE
  8
0
 10
52.156
 11
52.027
 20
353.044
 21
352.907
  0
LINE
  8
0
 10
52.027
 11
51.882
 20
352.907
 21
352.786
  0
LINE
  8
0
 10
51.882
 11
51.723
 20
352.786
 21
352.686
  0
LINE
  8
0
 10
51.723
 11
51.552
 20
352.686
 21
352.605
  0
LINE
  8
0
 10
51.552
 11
51.373
 20
352.605
 21
352.547
  0
LINE
  8
0
 10
51.373
 11
51.188
 20
352.547
 21
352.512
  0
LINE
  8
0
 10
51.188
 11
51
 20
352.512
 21
352.5
  0
LINE
  8
0
 10
51
 11
50.812
 20
352.5
 21
352.512
  0
LINE
  8
0
 10
50.812
 11
50.627
 20
352.512
 21
352.547
  0
LINE
  8
0
 10
50.627
 11
50.448
 20
352.547
 21
352.605
  0
LINE
  8
0
 10
50.448
 11
50.277
 20
352.605
 21
352.686
  0
LINE
  8
0
 10
50.277
 11
50.118
 20
352.686
 21
352.786
  0
LINE
  8
0
 10
50.118
 11
49.973
 20
352.786
 21
352.907
  0
LINE
  8
0
 10
49.973
 11
49.844
 20
352.907
 21
353.044
  0
LINE
  8
0
 10
49.844
 11
49.734
 20
353.044
 21
353.196
  0
LINE
  8
0
 10
49.734
 11
49.643
 20
353.196
 21
353.361
  0
LINE
  8
0
 10
49.643
 11
49.573
 20
353.361
 21
353.536
  0
LINE
  8
0
 10
49.573
 11
49.527
 20
353.536
 21
353.719
  0
LINE
  8
0
 10
49.527
 11
49.503
 20
353.719
 21
353.906
  0
ENDSEC
  0
SECTION
  2
OBJECTS
  0
DICTIONARY
  0
ENDSEC
  0
EOF
