  0
SECTION
  2
BLOCKS
  0
ENDSEC
  0
SECTION
  2
ENTITIES
  0
LINE
  8
0
 10
0
 11
0
 20
5
 21
425
  0
LINE
  8
0
 10
0
 11
5
 20
425
 21
425
  0
LINE
  8
0
 10
5
 11
5
 20
425
 21
430
  0
LINE
  8
0
 10
5
 11
10
 20
430
 21
430
  0
LINE
  8
0
 10
10
 11
10
 20
430
 21
425
  0
LINE
  8
0
 10
10
 11
15
 20
425
 21
425
  0
LINE
  8
0
 10
15
 11
15
 20
425
 21
430
  0
LINE
  8
0
 10
15
 11
20
 20
430
 21
430
  0
LINE
  8
0
 10
20
 11
20
 20
430
 21
425
  0
LINE
  8
0
 10
20
 11
25
 20
425
 21
425
  0
LINE
  8
0
 10
25
 11
25
 20
425
 21
430
  0
LINE
  8
0
 10
25
 11
30
 20
430
 21
430
  0
LINE
  8
0
 10
30
 11
30
 20
430
 21
425
  0
LINE
  8
0
 10
30
 11
35
 20
425
 21
425
  0
LINE
  8
0
 10
35
 11
35
 20
425
 21
430
  0
LINE
  8
0
 10
35
 11
40
 20
430
 21
430
  0
LINE
  8
0
 10
40
 11
40
 20
430
 21
425
  0
LINE
  8
0
 10
40
 11
45
 20
425
 21
425
  0
LINE
  8
0
 10
45
 11
45
 20
425
 21
430
  0
LINE
  8
0
 10
45
 11
50
 20
430
 21
430
  0
LINE
  8
0
 10
50
 11
50
 20
430
 21
425
  0
LINE
  8
0
 10
50
 11
55
 20
425
 21
425
  0
LINE
  8
0
 10
55
 11
55
 20
425
 21
5
  0
LINE
  8
0
 10
55
 11
50
 20
5
 21
5
  0
LINE
  8
0
 10
50
 11
50
 20
5
 21
0
  0
LINE
  8
0
 10
50
 11
45
 20
0
 21
0
  0
LINE
  8
0
 10
45
 11
45
 20
0
 21
5
  0
LINE
  8
0
 10
45
 11
40
 20
5
 21
5
  0
LINE
  8
0
 10
40
 11
40
 20
5
 21
0
  0
LINE
  8
0
 10
40
 11
35
 20
0
 21
0
  0
LINE
  8
0
 10
35
 11
35
 20
0
 21
5
  0
LINE
  8
0
 10
35
 11
30
 20
5
 21
5
  0
LINE
  8
0
 10
30
 11
30
 20
5
 21
0
  0
LINE
  8
0
 10
30
 11
25
 20
0
 21
0
  0
LINE
  8
0
 10
25
 11
25
 20
0
 21
5
  0
LINE
  8
0
 10
25
 11
20
 20
5
 21
5
  0
LINE
  8
0
 10
20
 11
20
 20
5
 21
0
  0
LINE
  8
0
 10
20
 11
15
 20
0
 21
0
  0
LINE
  8
0
 10
15
 11
15
 20
0
 21
5
  0
LINE
  8
0
 10
15
 11
10
 20
5
 21
5
  0
LINE
  8
0
 10
10
 11
10
 20
5
 21
0
  0
LINE
  8
0
 10
10
 11
5
 20
0
 21
0
  0
LINE
  8
0
 10
5
 11
5
 20
0
 21
5
  0
LINE
  8
0
 10
5
 11
0
 20
5
 21
5
  0
LINE
  8
0
 10
2.5
 11
2.512
 20
29
 21
29.188
  0
LINE
  8
0
 10
2.512
 11
2.547
 20
29.188
 21
29.373
  0
LINE
  8
0
 10
2.547
 11
2.605
 20
29.373
 21
29.552
  0
LINE
  8
0
 10
2.605
 11
2.686
 20
29.552
 21
29.723
  0
LINE
  8
0
 10
2.686
 11
2.786
 20
29.723
 21
29.882
  0
LINE
  8
0
 10
2.786
 11
2.907
 20
29.882
 21
30.027
  0
LINE
  8
0
 10
2.907
 11
3.044
 20
30.027
 21
30.156
  0
LINE
  8
0
 10
3.044
 11
3.196
 20
30.156
 21
30.266
  0
LINE
  8
0
 10
3.196
 11
3.361
 20
30.266
 21
30.357
  0
LINE
  8
0
 10
3.361
 11
3.536
 20
30.357
 21
30.427
  0
LINE
  8
0
 10
3.536
 11
3.719
 20
30.427
 21
30.473
  0
LINE
  8
0
 10
3.719
 11
3.906
 20
30.473
 21
30.497
  0
LINE
  8
0
 10
3.906
 11
4.094
 20
30.497
 21
30.497
  0
LINE
  8
0
 10
4.094
 11
4.281
 20
30.497
 21
30.473
  0
LINE
  8
0
 10
4.281
 11
4.464
 20
30.473
 21
30.427
  0
LINE
  8
0
 10
4.464
 11
4.639
 20
30.427
 21
30.357
  0
LINE
  8
0
 10
4.639
 11
4.804
 20
30.357
 21
30.266
  0
LINE
  8
0
 10
4.804
 11
4.956
 20
30.266
 21
30.156
  0
LINE
  8
0
 10
4.956
 11
5.093
 20
30.156
 21
30.027
  0
LINE
  8
0
 10
5.093
 11
5.214
 20
30.027
 21
29.882
  0
LINE
  8
0
 10
5.214
 11
5.314
 20
29.882
 21
29.723
  0
LINE
  8
0
 10
5.314
 11
5.395
 20
29.723
 21
29.552
  0
LINE
  8
0
 10
5.395
 11
5.453
 20
29.552
 21
29.373
  0
LINE
  8
0
 10
5.453
 11
5.488
 20
29.373
 21
29.188
  0
LINE
  8
0
 10
5.488
 11
5.5
 20
29.188
 21
29
  0
LINE
  8
0
 10
5.5
 11
5.488
 20
29
 21
28.812
  0
LINE
  8
0
 10
5.488
 11
5.453
 20
28.812
 21
28.627
  0
LINE
  8
0
 10
5.453
 11
5.395
 20
28.627
 21
28.448
  0
LINE
  8
0
 10
5.395
 11
5.314
 20
28.448
 21
28.277
  0
LINE
  8
0
 10
5.314
 11
5.214
 20
28.277
 21
28.118
  0
LINE
  8
0
 10
5.214
 11
5.093
 20
28.118
 21
27.973
  0
LINE
  8
0
 10
5.093
 11
4.956
 20
27.973
 21
27.844
  0
LINE
  8
0
 10
4.956
 11
4.804
 20
27.844
 21
27.734
  0
LINE
  8
0
 10
4.804
 11
4.639
 20
27.734
 21
27.643
  0
LINE
  8
0
 10
4.639
 11
4.464
 20
27.643
 21
27.573
  0
LINE
  8
0
 10
4.464
 11
4.281
 20
27.573
 21
27.527
  0
LINE
  8
0
 10
4.281
 11
4.094
 20
27.527
 21
27.503
  0
LINE
  8
0
 10
4.094
 11
3.906
 20
27.503
 21
27.503
  0
LINE
  8
0
 10
3.906
 11
3.719
 20
27.503
 21
27.527
  0
LINE
  8
0
 10
3.719
 11
3.536
 20
27.527
 21
27.573
  0
LINE
  8
0
 10
3.536
 11
3.361
 20
27.573
 21
27.643
  0
LINE
  8
0
 10
3.361
 11
3.196
 20
27.643
 21
27.734
  0
LINE
  8
0
 10
3.196
 11
3.044
 20
27.734
 21
27.844
  0
LINE
  8
0
 10
3.044
 11
2.907
 20
27.844
 21
27.973
  0
LINE
  8
0
 10
2.907
 11
2.786
 20
27.973
 21
28.118
  0
LINE
  8
0
 10
2.786
 11
2.686
 20
28.118
 21
28.277
  0
LINE
  8
0
 10
2.686
 11
2.605
 20
28.277
 21
28.448
  0
LINE
  8
0
 10
2.605
 11
2.547
 20
28.448
 21
28.627
  0
LINE
  8
0
 10
2.547
 11
2.512
 20
28.627
 21
28.812
  0
LINE
  8
0
 10
2.512
 11
2.5
 20
28.812
 21
29
  0
LINE
  8
0
 10
2.503
 11
2.503
 20
75.906
 21
76.094
  0
LINE
  8
0
 10
2.503
 11
2.527
 20
76.094
 21
76.281
  0
LINE
  8
0
 10
2.527
 11
2.573
 20
76.281
 21
76.464
  0
LINE
  8
0
 10
2.573
 11
2.643
 20
76.464
 21
76.639
  0
LINE
  8
0
 10
2.643
 11
2.734
 20
76.639
 21
76.804
  0
LINE
  8
0
 10
2.734
 11
2.844
 20
76.804
 21
76.956
  0
LINE
  8
0
 10
2.844
 11
2.973
 20
76.956
 21
77.093
  0
LINE
  8
0
 10
2.973
 11
3.118
 20
77.093
 21
77.214
  0
LINE
  8
0
 10
3.118
 11
3.277
 20
77.214
 21
77.314
  0
LINE
  8
0
 10
3.277
 11
3.448
 20
77.314
 21
77.395
  0
LINE
  8
0
 10
3.448
 11
3.627
 20
77.395
 21
77.453
  0
LINE
  8
0
 10
3.627
 11
3.812
 20
77.453
 21
77.488
  0
LINE
  8
0
 10
3.812
 11
4
 20
77.488
 21
77.5
  0
LINE
  8
0
 10
4
 11
4.188
 20
77.5
 21
77.488
  0
LINE
  8
0
 10
4.188
 11
4.373
 20
77.488
 21
77.453
  0
LINE
  8
0
 10
4.373
 11
4.552
 20
77.453
 21
77.395
  0
LINE
  8
0
 10
4.552
 11
4.723
 20
77.395
 21
77.314
  0
LINE
  8
0
 10
4.723
 11
4.882
 20
77.314
 21
77.214
  0
LINE
  8
0
 10
4.882
 11
5.027
 20
77.214
 21
77.093
  0
LINE
  8
0
 10
5.027
 11
5.156
 20
77.093
 21
76.956
  0
LINE
  8
0
 10
5.156
 11
5.266
 20
76.956
 21
76.804
  0
LINE
  8
0
 10
5.266
 11
5.357
 20
76.804
 21
76.639
  0
LINE
  8
0
 10
5.357
 11
5.427
 20
76.639
 21
76.464
  0
LINE
  8
0
 10
5.427
 11
5.473
 20
76.464
 21
76.281
  0
LINE
  8
0
 10
5.473
 11
5.497
 20
76.281
 21
76.094
  0
LINE
  8
0
 10
5.497
 11
5.497
 20
76.094
 21
75.906
  0
LINE
  8
0
 10
5.497
 11
5.473
 20
75.906
 21
75.719
  0
LINE
  8
0
 10
5.473
 11
5.427
 20
75.719
 21
75.536
  0
LINE
  8
0
 10
5.427
 11
5.357
 20
75.536
 21
75.361
  0
LINE
  8
0
 10
5.357
 11
5.266
 20
75.361
 21
75.196
  0
LINE
  8
0
 10
5.266
 11
5.156
 20
75.196
 21
75.044
  0
LINE
  8
0
 10
5.156
 11
5.027
 20
75.044
 21
74.907
  0
LINE
  8
0
 10
5.027
 11
4.882
 20
74.907
 21
74.786
  0
LINE
  8
0
 10
4.882
 11
4.723
 20
74.786
 21
74.686
  0
LINE
  8
0
 10
4.723
 11
4.552
 20
74.686
 21
74.605
  0
LINE
  8
0
 10
4.552
 11
4.373
 20
74.605
 21
74.547
  0
LINE
  8
0
 10
4.373
 11
4.188
 20
74.547
 21
74.512
  0
LINE
  8
0
 10
4.188
 11
4
 20
74.512
 21
74.5
  0
LINE
  8
0
 10
4
 11
3.812
 20
74.5
 21
74.512
  0
LINE
  8
0
 10
3.812
 11
3.627
 20
74.512
 21
74.547
  0
LINE
  8
0
 10
3.627
 11
3.448
 20
74.547
 21
74.605
  0
LINE
  8
0
 10
3.448
 11
3.277
 20
74.605
 21
74.686
  0
LINE
  8
0
 10
3.277
 11
3.118
 20
74.686
 21
74.786
  0
LINE
  8
0
 10
3.118
 11
2.973
 20
74.786
 21
74.907
  0
LINE
  8
0
 10
2.973
 11
2.844
 20
74.907
 21
75.044
  0
LINE
  8
0
 10
2.844
 11
2.734
 20
75.044
 21
75.196
  0
LINE
  8
0
 10
2.734
 11
2.643
 20
75.196
 21
75.361
  0
LINE
  8
0
 10
2.643
 11
2.573
 20
75.361
 21
75.536
  0
LINE
  8
0
 10
2.573
 11
2.527
 20
75.536
 21
75.719
  0
LINE
  8
0
 10
2.527
 11
2.503
 20
75.719
 21
75.906
  0
LINE
  8
0
 10
5
 11
5
 20
82.5
 21
87.5
  0
LINE
  8
0
 10
5
 11
10
 20
87.5
 21
87.5
  0
LINE
  8
0
 10
10
 11
10
 20
87.5
 21
82.5
  0
LINE
  8
0
 10
10
 11
5
 20
82.5
 21
82.5
  0
LINE
  8
0
 10
5
 11
5
 20
205
 21
210
  0
LINE
  8
0
 10
5
 11
10
 20
210
 21
210
  0
LINE
  8
0
 10
10
 11
10
 20
210
 21
205
  0
LINE
  8
0
 10
10
 11
5
 20
205
 21
205
  0
LINE
  8
0
 10
5
 11
5
 20
220
 21
225
  0
LINE
  8
0
 10
5
 11
10
 20
225
 21
225
  0
LINE
  8
0
 10
10
 11
10
 20
225
 21
220
  0
LINE
  8
0
 10
10
 11
5
 20
220
 21
220
  0
LINE
  8
0
 10
5
 11
5
 20
347.5
 21
352.5
  0
LINE
  8
0
 10
5
 11
10
 20
352.5
 21
352.5
  0
LINE
  8
0
 10
10
 11
10
 20
352.5
 21
347.5
  0
LINE
  8
0
 10
10
 11
5
 20
347.5
 21
347.5
  0
LINE
  8
0
 10
6
 11
6.012
 20
195
 21
195.188
  0
LINE
  8
0
 10
6.012
 11
6.047
 20
195.188
 21
195.373
  0
LINE
  8
0
 10
6.047
 11
6.105
 20
195.373
 21
195.552
  0
LINE
  8
0
 10
6.105
 11
6.186
 20
195.552
 21
195.723
  0
LINE
  8
0
 10
6.186
 11
6.286
 20
195.723
 21
195.882
  0
LINE
  8
0
 10
6.286
 11
6.407
 20
195.882
 21
196.027
  0
LINE
  8
0
 10
6.407
 11
6.544
 20
196.027
 21
196.156
  0
LINE
  8
0
 10
6.544
 11
6.696
 20
196.156
 21
196.266
  0
LINE
  8
0
 10
6.696
 11
6.861
 20
196.266
 21
196.357
  0
LINE
  8
0
 10
6.861
 11
7.036
 20
196.357
 21
196.427
  0
LINE
  8
0
 10
7.036
 11
7.219
 20
196.427
 21
196.473
  0
LINE
  8
0
 10
7.219
 11
7.406
 20
196.473
 21
196.497
  0
LINE
  8
0
 10
7.406
 11
7.594
 20
196.497
 21
196.497
  0
LINE
  8
0
 10
7.594
 11
7.781
 20
196.497
 21
196.473
  0
LINE
  8
0
 10
7.781
 11
7.964
 20
196.473
 21
196.427
  0
LINE
  8
0
 10
7.964
 11
8.139
 20
196.427
 21
196.357
  0
LINE
  8
0
 10
8.139
 11
8.304
 20
196.357
 21
196.266
  0
LINE
  8
0
 10
8.304
 11
8.456
 20
196.266
 21
196.156
  0
LINE
  8
0
 10
8.456
 11
8.593
 20
196.156
 21
196.027
  0
LINE
  8
0
 10
8.593
 11
8.714
 20
196.027
 21
195.882
  0
LINE
  8
0
 10
8.714
 11
8.814
 20
195.882
 21
195.723
  0
LINE
  8
0
 10
8.814
 11
8.895
 20
195.723
 21
195.552
  0
LINE
  8
0
 10
8.895
 11
8.953
 20
195.552
 21
195.373
  0
LINE
  8
0
 10
8.953
 11
8.988
 20
195.373
 21
195.188
  0
LINE
  8
0
 10
8.988
 11
9
 20
195.188
 21
195
  0
LINE
  8
0
 10
9
 11
8.988
 20
195
 21
194.812
  0
LINE
  8
0
 10
8.988
 11
8.953
 20
194.812
 21
194.627
  0
LINE
  8
0
 10
8.953
 11
8.895
 20
194.627
 21
194.448
  0
LINE
  8
0
 10
8.895
 11
8.814
 20
194.448
 21
194.277
  0
LINE
  8
0
 10
8.814
 11
8.714
 20
194.277
 21
194.118
  0
LINE
  8
0
 10
8.714
 11
8.593
 20
194.118
 21
193.973
  0
LINE
  8
0
 10
8.593
 11
8.456
 20
193.973
 21
193.844
  0
LINE
  8
0
 10
8.456
 11
8.304
 20
193.844
 21
193.734
  0
LINE
  8
0
 10
8.304
 11
8.139
 20
193.734
 21
193.643
  0
LINE
  8
0
 10
8.139
 11
7.964
 20
193.643
 21
193.573
  0
LINE
  8
0
 10
7.964
 11
7.781
 20
193.573
 21
193.527
  0
LINE
  8
0
 10
7.781
 11
7.594
 20
193.527
 21
193.503
  0
LINE
  8
0
 10
7.594
 11
7.406
 20
193.503
 21
193.503
  0
LINE
  8
0
 10
7.406
 11
7.219
 20
193.503
 21
193.527
  0
LINE
  8
0
 10
7.219
 11
7.036
 20
193.527
 21
193.573
  0
LINE
  8
0
 10
7.036
 11
6.861
 20
193.573
 21
193.643
  0
LINE
  8
0
 10
6.861
 11
6.696
 20
193.643
 21
193.734
  0
LINE
  8
0
 10
6.696
 11
6.544
 20
193.734
 21
193.844
  0
LINE
  8
0
 10
6.544
 11
6.407
 20
193.844
 21
193.973
  0
LINE
  8
0
 10
6.407
 11
6.286
 20
193.973
 21
194.118
  0
LINE
  8
0
 10
6.286
 11
6.186
 20
194.118
 21
194.277
  0
LINE
  8
0
 10
6.186
 11
6.105
 20
194.277
 21
194.448
  0
LINE
  8
0
 10
6.105
 11
6.047
 20
194.448
 21
194.627
  0
LINE
  8
0
 10
6.047
 11
6.012
 20
194.627
 21
194.812
  0
LINE
  8
0
 10
6.012
 11
6
 20
194.812
 21
195
  0
LINE
  8
0
 10
6
 11
6.012
 20
235
 21
235.188
  0
LINE
  8
0
 10
6.012
 11
6.047
 20
235.188
 21
235.373
  0
LINE
  8
0
 10
6.047
 11
6.105
 20
235.373
 21
235.552
  0
LINE
  8
0
 10
6.105
 11
6.186
 20
235.552
 21
235.723
  0
LINE
  8
0
 10
6.186
 11
6.286
 20
235.723
 21
235.882
  0
LINE
  8
0
 10
6.286
 11
6.407
 20
235.882
 21
236.027
  0
LINE
  8
0
 10
6.407
 11
6.544
 20
236.027
 21
236.156
  0
LINE
  8
0
 10
6.544
 11
6.696
 20
236.156
 21
236.266
  0
LINE
  8
0
 10
6.696
 11
6.861
 20
236.266
 21
236.357
  0
LINE
  8
0
 10
6.861
 11
7.036
 20
236.357
 21
236.427
  0
LINE
  8
0
 10
7.036
 11
7.219
 20
236.427
 21
236.473
  0
LINE
  8
0
 10
7.219
 11
7.406
 20
236.473
 21
236.497
  0
LINE
  8
0
 10
7.406
 11
7.594
 20
236.497
 21
236.497
  0
LINE
  8
0
 10
7.594
 11
7.781
 20
236.497
 21
236.473
  0
LINE
  8
0
 10
7.781
 11
7.964
 20
236.473
 21
236.427
  0
LINE
  8
0
 10
7.964
 11
8.139
 20
236.427
 21
236.357
  0
LINE
  8
0
 10
8.139
 11
8.304
 20
236.357
 21
236.266
  0
LINE
  8
0
 10
8.304
 11
8.456
 20
236.266
 21
236.156
  0
LINE
  8
0
 10
8.456
 11
8.593
 20
236.156
 21
236.027
  0
LINE
  8
0
 10
8.593
 11
8.714
 20
236.027
 21
235.882
  0
LINE
  8
0
 10
8.714
 11
8.814
 20
235.882
 21
235.723
  0
LINE
  8
0
 10
8.814
 11
8.895
 20
235.723
 21
235.552
  0
LINE
  8
0
 10
8.895
 11
8.953
 20
235.552
 21
235.373
  0
LINE
  8
0
 10
8.953
 11
8.988
 20
235.373
 21
235.188
  0
LINE
  8
0
 10
8.988
 11
9
 20
235.188
 21
235
  0
LINE
  8
0
 10
9
 11
8.988
 20
235
 21
234.812
  0
LINE
  8
0
 10
8.988
 11
8.953
 20
234.812
 21
234.627
  0
LINE
  8
0
 10
8.953
 11
8.895
 20
234.627
 21
234.448
  0
LINE
  8
0
 10
8.895
 11
8.814
 20
234.448
 21
234.277
  0
LINE
  8
0
 10
8.814
 11
8.714
 20
234.277
 21
234.118
  0
LINE
  8
0
 10
8.714
 11
8.593
 20
234.118
 21
233.973
  0
LINE
  8
0
 10
8.593
 11
8.456
 20
233.973
 21
233.844
  0
LINE
  8
0
 10
8.456
 11
8.304
 20
233.844
 21
233.734
  0
LINE
  8
0
 10
8.304
 11
8.139
 20
233.734
 21
233.643
  0
LINE
  8
0
 10
8.139
 11
7.964
 20
233.643
 21
233.573
  0
LINE
  8
0
 10
7.964
 11
7.781
 20
233.573
 21
233.527
  0
LINE
  8
0
 10
7.781
 11
7.594
 20
233.527
 21
233.503
  0
LINE
  8
0
 10
7.594
 11
7.406
 20
233.503
 21
233.503
  0
LINE
  8
0
 10
7.406
 11
7.219
 20
233.503
 21
233.527
  0
LINE
  8
0
 10
7.219
 11
7.036
 20
233.527
 21
233.573
  0
LINE
  8
0
 10
7.036
 11
6.861
 20
233.573
 21
233.643
  0
LINE
  8
0
 10
6.861
 11
6.696
 20
233.643
 21
233.734
  0
LINE
  8
0
 10
6.696
 11
6.544
 20
233.734
 21
233.844
  0
LINE
  8
0
 10
6.544
 11
6.407
 20
233.844
 21
233.973
  0
LINE
  8
0
 10
6.407
 11
6.286
 20
233.973
 21
234.118
  0
LINE
  8
0
 10
6.286
 11
6.186
 20
234.118
 21
234.277
  0
LINE
  8
0
 10
6.186
 11
6.105
 20
234.277
 21
234.448
  0
LINE
  8
0
 10
6.105
 11
6.047
 20
234.448
 21
234.627
  0
LINE
  8
0
 10
6.047
 11
6.012
 20
234.627
 21
234.812
  0
LINE
  8
0
 10
6.012
 11
6
 20
234.812
 21
235
  0
LINE
  8
0
 10
7.5
 11
7.52
 20
15
 21
15.313
  0
LINE
  8
0
 10
7.52
 11
7.579
 20
15.313
 21
15.622
  0
LINE
  8
0
 10
7.579
 11
7.676
 20
15.622
 21
15.92
  0
LINE
  8
0
 10
7.676
 11
7.809
 20
15.92
 21
16.204
  0
LINE
  8
0
 10
7.809
 11
7.977
 20
16.204
 21
16.469
  0
LINE
  8
0
 10
7.977
 11
8.178
 20
16.469
 21
16.711
  0
LINE
  8
0
 10
8.178
 11
8.406
 20
16.711
 21
16.926
  0
LINE
  8
0
 10
8.406
 11
8.66
 20
16.926
 21
17.111
  0
LINE
  8
0
 10
8.66
 11
8.936
 20
17.111
 21
17.262
  0
LINE
  8
0
 10
8.936
 11
9.227
 20
17.262
 21
17.378
  0
LINE
  8
0
 10
9.227
 11
9.532
 20
17.378
 21
17.456
  0
LINE
  8
0
 10
9.532
 11
9.843
 20
17.456
 21
17.495
  0
LINE
  8
0
 10
9.843
 11
10.157
 20
17.495
 21
17.495
  0
LINE
  8
0
 10
10.157
 11
10.468
 20
17.495
 21
17.456
  0
LINE
  8
0
 10
10.468
 11
10.773
 20
17.456
 21
17.378
  0
LINE
  8
0
 10
10.773
 11
11.064
 20
17.378
 21
17.262
  0
LINE
  8
0
 10
11.064
 11
11.34
 20
17.262
 21
17.111
  0
LINE
  8
0
 10
11.34
 11
11.594
 20
17.111
 21
16.926
  0
LINE
  8
0
 10
11.594
 11
11.822
 20
16.926
 21
16.711
  0
LINE
  8
0
 10
11.822
 11
12.023
 20
16.711
 21
16.469
  0
LINE
  8
0
 10
12.023
 11
12.191
 20
16.469
 21
16.204
  0
LINE
  8
0
 10
12.191
 11
12.324
 20
16.204
 21
15.92
  0
LINE
  8
0
 10
12.324
 11
12.421
 20
15.92
 21
15.622
  0
LINE
  8
0
 10
12.421
 11
12.48
 20
15.622
 21
15.313
  0
LINE
  8
0
 10
12.48
 11
12.5
 20
15.313
 21
15
  0
LINE
  8
0
 10
12.5
 11
12.48
 20
15
 21
14.687
  0
LINE
  8
0
 10
12.48
 11
12.421
 20
14.687
 21
14.378
  0
LINE
  8
0
 10
12.421
 11
12.324
 20
14.378
 21
14.08
  0
LINE
  8
0
 10
12.324
 11
12.191
 20
14.08
 21
13.796
  0
LINE
  8
0
 10
12.191
 11
12.023
 20
13.796
 21
13.531
  0
LINE
  8
0
 10
12.023
 11
11.822
 20
13.531
 21
13.289
  0
LINE
  8
0
 10
11.822
 11
11.594
 20
13.289
 21
13.074
  0
LINE
  8
0
 10
11.594
 11
11.34
 20
13.074
 21
12.889
  0
LINE
  8
0
 10
11.34
 11
11.064
 20
12.889
 21
12.738
  0
LINE
  8
0
 10
11.064
 11
10.773
 20
12.738
 21
12.622
  0
LINE
  8
0
 10
10.773
 11
10.468
 20
12.622
 21
12.544
  0
LINE
  8
0
 10
10.468
 11
10.157
 20
12.544
 21
12.505
  0
LINE
  8
0
 10
10.157
 11
9.843
 20
12.505
 21
12.505
  0
LINE
  8
0
 10
9.843
 11
9.532
 20
12.505
 21
12.544
  0
LINE
  8
0
 10
9.532
 11
9.227
 20
12.544
 21
12.622
  0
LINE
  8
0
 10
9.227
 11
8.936
 20
12.622
 21
12.738
  0
LINE
  8
0
 10
8.936
 11
8.66
 20
12.738
 21
12.889
  0
LINE
  8
0
 10
8.66
 11
8.406
 20
12.889
 21
13.074
  0
LINE
  8
0
 10
8.406
 11
8.178
 20
13.074
 21
13.289
  0
LINE
  8
0
 10
8.178
 11
7.977
 20
13.289
 21
13.531
  0
LINE
  8
0
 10
7.977
 11
7.809
 20
13.531
 21
13.796
  0
LINE
  8
0
 10
7.809
 11
7.676
 20
13.796
 21
14.08
  0
LINE
  8
0
 10
7.676
 11
7.579
 20
14.08
 21
14.378
  0
LINE
  8
0
 10
7.579
 11
7.52
 20
14.378
 21
14.687
  0
LINE
  8
0
 10
7.52
 11
7.5
 20
14.687
 21
15
  0
LINE
  8
0
 10
7.5
 11
7.52
 20
415
 21
415.313
  0
LINE
  8
0
 10
7.52
 11
7.579
 20
415.313
 21
415.622
  0
LINE
  8
0
 10
7.579
 11
7.676
 20
415.622
 21
415.92
  0
LINE
  8
0
 10
7.676
 11
7.809
 20
415.92
 21
416.204
  0
LINE
  8
0
 10
7.809
 11
7.977
 20
416.204
 21
416.469
  0
LINE
  8
0
 10
7.977
 11
8.178
 20
416.469
 21
416.711
  0
LINE
  8
0
 10
8.178
 11
8.406
 20
416.711
 21
416.926
  0
LINE
  8
0
 10
8.406
 11
8.66
 20
416.926
 21
417.111
  0
LINE
  8
0
 10
8.66
 11
8.936
 20
417.111
 21
417.262
  0
LINE
  8
0
 10
8.936
 11
9.227
 20
417.262
 21
417.378
  0
LINE
  8
0
 10
9.227
 11
9.532
 20
417.378
 21
417.456
  0
LINE
  8
0
 10
9.532
 11
9.843
 20
417.456
 21
417.495
  0
LINE
  8
0
 10
9.843
 11
10.157
 20
417.495
 21
417.495
  0
LINE
  8
0
 10
10.157
 11
10.468
 20
417.495
 21
417.456
  0
LINE
  8
0
 10
10.468
 11
10.773
 20
417.456
 21
417.378
  0
LINE
  8
0
 10
10.773
 11
11.064
 20
417.378
 21
417.262
  0
LINE
  8
0
 10
11.064
 11
11.34
 20
417.262
 21
417.111
  0
LINE
  8
0
 10
11.34
 11
11.594
 20
417.111
 21
416.926
  0
LINE
  8
0
 10
11.594
 11
11.822
 20
416.926
 21
416.711
  0
LINE
  8
0
 10
11.822
 11
12.023
 20
416.711
 21
416.469
  0
LINE
  8
0
 10
12.023
 11
12.191
 20
416.469
 21
416.204
  0
LINE
  8
0
 10
12.191
 11
12.324
 20
416.204
 21
415.92
  0
LINE
  8
0
 10
12.324
 11
12.421
 20
415.92
 21
415.622
  0
LINE
  8
0
 10
12.421
 11
12.48
 20
415.622
 21
415.313
  0
LINE
  8
0
 10
12.48
 11
12.5
 20
415.313
 21
415
  0
LINE
  8
0
 10
12.5
 11
12.48
 20
415
 21
414.687
  0
LINE
  8
0
 10
12.48
 11
12.421
 20
414.687
 21
414.378
  0
LINE
  8
0
 10
12.421
 11
12.324
 20
414.378
 21
414.08
  0
LINE
  8
0
 10
12.324
 11
12.191
 20
414.08
 21
413.796
  0
LINE
  8
0
 10
12.191
 11
12.023
 20
413.796
 21
413.531
  0
LINE
  8
0
 10
12.023
 11
11.822
 20
413.531
 21
413.289
  0
LINE
  8
0
 10
11.822
 11
11.594
 20
413.289
 21
413.074
  0
LINE
  8
0
 10
11.594
 11
11.34
 20
413.074
 21
412.889
  0
LINE
  8
0
 10
11.34
 11
11.064
 20
412.889
 21
412.738
  0
LINE
  8
0
 10
11.064
 11
10.773
 20
412.738
 21
412.622
  0
LINE
  8
0
 10
10.773
 11
10.468
 20
412.622
 21
412.544
  0
LINE
  8
0
 10
10.468
 11
10.157
 20
412.544
 21
412.505
  0
LINE
  8
0
 10
10.157
 11
9.843
 20
412.505
 21
412.505
  0
LINE
  8
0
 10
9.843
 11
9.532
 20
412.505
 21
412.544
  0
LINE
  8
0
 10
9.532
 11
9.227
 20
412.544
 21
412.622
  0
LINE
  8
0
 10
9.227
 11
8.936
 20
412.622
 21
412.738
  0
LINE
  8
0
 10
8.936
 11
8.66
 20
412.738
 21
412.889
  0
LINE
  8
0
 10
8.66
 11
8.406
 20
412.889
 21
413.074
  0
LINE
  8
0
 10
8.406
 11
8.178
 20
413.074
 21
413.289
  0
LINE
  8
0
 10
8.178
 11
7.977
 20
413.289
 21
413.531
  0
LINE
  8
0
 10
7.977
 11
7.809
 20
413.531
 21
413.796
  0
LINE
  8
0
 10
7.809
 11
7.676
 20
413.796
 21
414.08
  0
LINE
  8
0
 10
7.676
 11
7.579
 20
414.08
 21
414.378
  0
LINE
  8
0
 10
7.579
 11
7.52
 20
414.378
 21
414.687
  0
LINE
  8
0
 10
7.52
 11
7.5
 20
414.687
 21
415
  0
LINE
  8
0
 10
8
 11
8.012
 20
359.5
 21
359.688
  0
LINE
  8
0
 10
8.012
 11
8.047
 20
359.688
 21
359.873
  0
LINE
  8
0
 10
8.047
 11
8.105
 20
359.873
 21
360.052
  0
LINE
  8
0
 10
8.105
 11
8.186
 20
360.052
 21
360.223
  0
LINE
  8
0
 10
8.186
 11
8.286
 20
360.223
 21
360.382
  0
LINE
  8
0
 10
8.286
 11
8.407
 20
360.382
 21
360.527
  0
LINE
  8
0
 10
8.407
 11
8.544
 20
360.527
 21
360.656
  0
LINE
  8
0
 10
8.544
 11
8.696
 20
360.656
 21
360.766
  0
LINE
  8
0
 10
8.696
 11
8.861
 20
360.766
 21
360.857
  0
LINE
  8
0
 10
8.861
 11
9.036
 20
360.857
 21
360.927
  0
LINE
  8
0
 10
9.036
 11
9.219
 20
360.927
 21
360.973
  0
LINE
  8
0
 10
9.219
 11
9.406
 20
360.973
 21
360.997
  0
LINE
  8
0
 10
9.406
 11
9.594
 20
360.997
 21
360.997
  0
LINE
  8
0
 10
9.594
 11
9.781
 20
360.997
 21
360.973
  0
LINE
  8
0
 10
9.781
 11
9.964
 20
360.973
 21
360.927
  0
LINE
  8
0
 10
9.964
 11
10.139
 20
360.927
 21
360.857
  0
LINE
  8
0
 10
10.139
 11
10.304
 20
360.857
 21
360.766
  0
LINE
  8
0
 10
10.304
 11
10.456
 20
360.766
 21
360.656
  0
LINE
  8
0
 10
10.456
 11
10.593
 20
360.656
 21
360.527
  0
LINE
  8
0
 10
10.593
 11
10.714
 20
360.527
 21
360.382
  0
LINE
  8
0
 10
10.714
 11
10.814
 20
360.382
 21
360.223
  0
LINE
  8
0
 10
10.814
 11
10.895
 20
360.223
 21
360.052
  0
LINE
  8
0
 10
10.895
 11
10.953
 20
360.052
 21
359.873
  0
LINE
  8
0
 10
10.953
 11
10.988
 20
359.873
 21
359.688
  0
LINE
  8
0
 10
10.988
 11
11
 20
359.688
 21
359.5
  0
LINE
  8
0
 10
11
 11
10.988
 20
359.5
 21
359.312
  0
LINE
  8
0
 10
10.988
 11
10.953
 20
359.312
 21
359.127
  0
LINE
  8
0
 10
10.953
 11
10.895
 20
359.127
 21
358.948
  0
LINE
  8
0
 10
10.895
 11
10.814
 20
358.948
 21
358.777
  0
LINE
  8
0
 10
10.814
 11
10.714
 20
358.777
 21
358.618
  0
LINE
  8
0
 10
10.714
 11
10.593
 20
358.618
 21
358.473
  0
LINE
  8
0
 10
10.593
 11
10.456
 20
358.473
 21
358.344
  0
LINE
  8
0
 10
10.456
 11
10.304
 20
358.344
 21
358.234
  0
LINE
  8
0
 10
10.304
 11
10.139
 20
358.234
 21
358.143
  0
LINE
  8
0
 10
10.139
 11
9.964
 20
358.143
 21
358.073
  0
LINE
  8
0
 10
9.964
 11
9.781
 20
358.073
 21
358.027
  0
LINE
  8
0
 10
9.781
 11
9.594
 20
358.027
 21
358.003
  0
LINE
  8
0
 10
9.594
 11
9.406
 20
358.003
 21
358.003
  0
LINE
  8
0
 10
9.406
 11
9.219
 20
358.003
 21
358.027
  0
LINE
  8
0
 10
9.219
 11
9.036
 20
358.027
 21
358.073
  0
LINE
  8
0
 10
9.036
 11
8.861
 20
358.073
 21
358.143
  0
LINE
  8
0
 10
8.861
 11
8.696
 20
358.143
 21
358.234
  0
LINE
  8
0
 10
8.696
 11
8.544
 20
358.234
 21
358.344
  0
LINE
  8
0
 10
8.544
 11
8.407
 20
358.344
 21
358.473
  0
LINE
  8
0
 10
8.407
 11
8.286
 20
358.473
 21
358.618
  0
LINE
  8
0
 10
8.286
 11
8.186
 20
358.618
 21
358.777
  0
LINE
  8
0
 10
8.186
 11
8.105
 20
358.777
 21
358.948
  0
LINE
  8
0
 10
8.105
 11
8.047
 20
358.948
 21
359.127
  0
LINE
  8
0
 10
8.047
 11
8.012
 20
359.127
 21
359.312
  0
LINE
  8
0
 10
8.012
 11
8
 20
359.312
 21
359.5
  0
LINE
  8
0
 10
8.003
 11
8.003
 20
395.406
 21
395.594
  0
LINE
  8
0
 10
8.003
 11
8.027
 20
395.594
 21
395.781
  0
LINE
  8
0
 10
8.027
 11
8.073
 20
395.781
 21
395.964
  0
LINE
  8
0
 10
8.073
 11
8.143
 20
395.964
 21
396.139
  0
LINE
  8
0
 10
8.143
 11
8.234
 20
396.139
 21
396.304
  0
LINE
  8
0
 10
8.234
 11
8.344
 20
396.304
 21
396.456
  0
LINE
  8
0
 10
8.344
 11
8.473
 20
396.456
 21
396.593
  0
LINE
  8
0
 10
8.473
 11
8.618
 20
396.593
 21
396.714
  0
LINE
  8
0
 10
8.618
 11
8.777
 20
396.714
 21
396.814
  0
LINE
  8
0
 10
8.777
 11
8.948
 20
396.814
 21
396.895
  0
LINE
  8
0
 10
8.948
 11
9.127
 20
396.895
 21
396.953
  0
LINE
  8
0
 10
9.127
 11
9.312
 20
396.953
 21
396.988
  0
LINE
  8
0
 10
9.312
 11
9.5
 20
396.988
 21
397
  0
LINE
  8
0
 10
9.5
 11
9.688
 20
397
 21
396.988
  0
LINE
  8
0
 10
9.688
 11
9.873
 20
396.988
 21
396.953
  0
LINE
  8
0
 10
9.873
 11
10.052
 20
396.953
 21
396.895
  0
LINE
  8
0
 10
10.052
 11
10.223
 20
396.895
 21
396.814
  0
LINE
  8
0
 10
10.223
 11
10.382
 20
396.814
 21
396.714
  0
LINE
  8
0
 10
10.382
 11
10.527
 20
396.714
 21
396.593
  0
LINE
  8
0
 10
10.527
 11
10.656
 20
396.593
 21
396.456
  0
LINE
  8
0
 10
10.656
 11
10.766
 20
396.456
 21
396.304
  0
LINE
  8
0
 10
10.766
 11
10.857
 20
396.304
 21
396.139
  0
LINE
  8
0
 10
10.857
 11
10.927
 20
396.139
 21
395.964
  0
LINE
  8
0
 10
10.927
 11
10.973
 20
395.964
 21
395.781
  0
LINE
  8
0
 10
10.973
 11
10.997
 20
395.781
 21
395.594
  0
LINE
  8
0
 10
10.997
 11
10.997
 20
395.594
 21
395.406
  0
LINE
  8
0
 10
10.997
 11
10.973
 20
395.406
 21
395.219
  0
LINE
  8
0
 10
10.973
 11
10.927
 20
395.219
 21
395.036
  0
LINE
  8
0
 10
10.927
 11
10.857
 20
395.036
 21
394.861
  0
LINE
  8
0
 10
10.857
 11
10.766
 20
394.861
 21
394.696
  0
LINE
  8
0
 10
10.766
 11
10.656
 20
394.696
 21
394.544
  0
LINE
  8
0
 10
10.656
 11
10.527
 20
394.544
 21
394.407
  0
LINE
  8
0
 10
10.527
 11
10.382
 20
394.407
 21
394.286
  0
LINE
  8
0
 10
10.382
 11
10.223
 20
394.286
 21
394.186
  0
LINE
  8
0
 10
10.223
 11
10.052
 20
394.186
 21
394.105
  0
LINE
  8
0
 10
10.052
 11
9.873
 20
394.105
 21
394.047
  0
LINE
  8
0
 10
9.873
 11
9.688
 20
394.047
 21
394.012
  0
LINE
  8
0
 10
9.688
 11
9.5
 20
394.012
 21
394
  0
LINE
  8
0
 10
9.5
 11
9.312
 20
394
 21
394.012
  0
LINE
  8
0
 10
9.312
 11
9.127
 20
394.012
 21
394.047
  0
LINE
  8
0
 10
9.127
 11
8.948
 20
394.047
 21
394.105
  0
LINE
  8
0
 10
8.948
 11
8.777
 20
394.105
 21
394.186
  0
LINE
  8
0
 10
8.777
 11
8.618
 20
394.186
 21
394.286
  0
LINE
  8
0
 10
8.618
 11
8.473
 20
394.286
 21
394.407
  0
LINE
  8
0
 10
8.473
 11
8.344
 20
394.407
 21
394.544
  0
LINE
  8
0
 10
8.344
 11
8.234
 20
394.544
 21
394.696
  0
LINE
  8
0
 10
8.234
 11
8.143
 20
394.696
 21
394.861
  0
LINE
  8
0
 10
8.143
 11
8.073
 20
394.861
 21
395.036
  0
LINE
  8
0
 10
8.073
 11
8.027
 20
395.036
 21
395.219
  0
LINE
  8
0
 10
8.027
 11
8.003
 20
395.219
 21
395.406
  0
LINE
  8
0
 10
10.5
 11
10.512
 20
37
 21
37.188
  0
LINE
  8
0
 10
10.512
 11
10.547
 20
37.188
 21
37.373
  0
LINE
  8
0
 10
10.547
 11
10.605
 20
37.373
 21
37.552
  0
LINE
  8
0
 10
10.605
 11
10.686
 20
37.552
 21
37.723
  0
LINE
  8
0
 10
10.686
 11
10.786
 20
37.723
 21
37.882
  0
LINE
  8
0
 10
10.786
 11
10.907
 20
37.882
 21
38.027
  0
LINE
  8
0
 10
10.907
 11
11.044
 20
38.027
 21
38.156
  0
LINE
  8
0
 10
11.044
 11
11.196
 20
38.156
 21
38.266
  0
LINE
  8
0
 10
11.196
 11
11.361
 20
38.266
 21
38.357
  0
LINE
  8
0
 10
11.361
 11
11.536
 20
38.357
 21
38.427
  0
LINE
  8
0
 10
11.536
 11
11.719
 20
38.427
 21
38.473
  0
LINE
  8
0
 10
11.719
 11
11.906
 20
38.473
 21
38.497
  0
LINE
  8
0
 10
11.906
 11
12.094
 20
38.497
 21
38.497
  0
LINE
  8
0
 10
12.094
 11
12.281
 20
38.497
 21
38.473
  0
LINE
  8
0
 10
12.281
 11
12.464
 20
38.473
 21
38.427
  0
LINE
  8
0
 10
12.464
 11
12.639
 20
38.427
 21
38.357
  0
LINE
  8
0
 10
12.639
 11
12.804
 20
38.357
 21
38.266
  0
LINE
  8
0
 10
12.804
 11
12.956
 20
38.266
 21
38.156
  0
LINE
  8
0
 10
12.956
 11
13.093
 20
38.156
 21
38.027
  0
LINE
  8
0
 10
13.093
 11
13.214
 20
38.027
 21
37.882
  0
LINE
  8
0
 10
13.214
 11
13.314
 20
37.882
 21
37.723
  0
LINE
  8
0
 10
13.314
 11
13.395
 20
37.723
 21
37.552
  0
LINE
  8
0
 10
13.395
 11
13.453
 20
37.552
 21
37.373
  0
LINE
  8
0
 10
13.453
 11
13.488
 20
37.373
 21
37.188
  0
LINE
  8
0
 10
13.488
 11
13.5
 20
37.188
 21
37
  0
LINE
  8
0
 10
13.5
 11
13.488
 20
37
 21
36.812
  0
LINE
  8
0
 10
13.488
 11
13.453
 20
36.812
 21
36.627
  0
LINE
  8
0
 10
13.453
 11
13.395
 20
36.627
 21
36.448
  0
LINE
  8
0
 10
13.395
 11
13.314
 20
36.448
 21
36.277
  0
LINE
  8
0
 10
13.314
 11
13.214
 20
36.277
 21
36.118
  0
LINE
  8
0
 10
13.214
 11
13.093
 20
36.118
 21
35.973
  0
LINE
  8
0
 10
13.093
 11
12.956
 20
35.973
 21
35.844
  0
LINE
  8
0
 10
12.956
 11
12.804
 20
35.844
 21
35.734
  0
LINE
  8
0
 10
12.804
 11
12.639
 20
35.734
 21
35.643
  0
LINE
  8
0
 10
12.639
 11
12.464
 20
35.643
 21
35.573
  0
LINE
  8
0
 10
12.464
 11
12.281
 20
35.573
 21
35.527
  0
LINE
  8
0
 10
12.281
 11
12.094
 20
35.527
 21
35.503
  0
LINE
  8
0
 10
12.094
 11
11.906
 20
35.503
 21
35.503
  0
LINE
  8
0
 10
11.906
 11
11.719
 20
35.503
 21
35.527
  0
LINE
  8
0
 10
11.719
 11
11.536
 20
35.527
 21
35.573
  0
LINE
  8
0
 10
11.536
 11
11.361
 20
35.573
 21
35.643
  0
LINE
  8
0
 10
11.361
 11
11.196
 20
35.643
 21
35.734
  0
LINE
  8
0
 10
11.196
 11
11.044
 20
35.734
 21
35.844
  0
LINE
  8
0
 10
11.044
 11
10.907
 20
35.844
 21
35.973
  0
LINE
  8
0
 10
10.907
 11
10.786
 20
35.973
 21
36.118
  0
LINE
  8
0
 10
10.786
 11
10.686
 20
36.118
 21
36.277
  0
LINE
  8
0
 10
10.686
 11
10.605
 20
36.277
 21
36.448
  0
LINE
  8
0
 10
10.605
 11
10.547
 20
36.448
 21
36.627
  0
LINE
  8
0
 10
10.547
 11
10.512
 20
36.627
 21
36.812
  0
LINE
  8
0
 10
10.512
 11
10.5
 20
36.812
 21
37
  0
LINE
  8
0
 10
10.503
 11
10.503
 20
67.906
 21
68.094
  0
LINE
  8
0
 10
10.503
 11
10.527
 20
68.094
 21
68.281
  0
LINE
  8
0
 10
10.527
 11
10.573
 20
68.281
 21
68.464
  0
LINE
  8
0
 10
10.573
 11
10.643
 20
68.464
 21
68.639
  0
LINE
  8
0
 10
10.643
 11
10.734
 20
68.639
 21
68.804
  0
LINE
  8
0
 10
10.734
 11
10.844
 20
68.804
 21
68.956
  0
LINE
  8
0
 10
10.844
 11
10.973
 20
68.956
 21
69.093
  0
LINE
  8
0
 10
10.973
 11
11.118
 20
69.093
 21
69.214
  0
LINE
  8
0
 10
11.118
 11
11.277
 20
69.214
 21
69.314
  0
LINE
  8
0
 10
11.277
 11
11.448
 20
69.314
 21
69.395
  0
LINE
  8
0
 10
11.448
 11
11.627
 20
69.395
 21
69.453
  0
LINE
  8
0
 10
11.627
 11
11.812
 20
69.453
 21
69.488
  0
LINE
  8
0
 10
11.812
 11
12
 20
69.488
 21
69.5
  0
LINE
  8
0
 10
12
 11
12.188
 20
69.5
 21
69.488
  0
LINE
  8
0
 10
12.188
 11
12.373
 20
69.488
 21
69.453
  0
LINE
  8
0
 10
12.373
 11
12.552
 20
69.453
 21
69.395
  0
LINE
  8
0
 10
12.552
 11
12.723
 20
69.395
 21
69.314
  0
LINE
  8
0
 10
12.723
 11
12.882
 20
69.314
 21
69.214
  0
LINE
  8
0
 10
12.882
 11
13.027
 20
69.214
 21
69.093
  0
LINE
  8
0
 10
13.027
 11
13.156
 20
69.093
 21
68.956
  0
LINE
  8
0
 10
13.156
 11
13.266
 20
68.956
 21
68.804
  0
LINE
  8
0
 10
13.266
 11
13.357
 20
68.804
 21
68.639
  0
LINE
  8
0
 10
13.357
 11
13.427
 20
68.639
 21
68.464
  0
LINE
  8
0
 10
13.427
 11
13.473
 20
68.464
 21
68.281
  0
LINE
  8
0
 10
13.473
 11
13.497
 20
68.281
 21
68.094
  0
LINE
  8
0
 10
13.497
 11
13.497
 20
68.094
 21
67.906
  0
LINE
  8
0
 10
13.497
 11
13.473
 20
67.906
 21
67.719
  0
LINE
  8
0
 10
13.473
 11
13.427
 20
67.719
 21
67.536
  0
LINE
  8
0
 10
13.427
 11
13.357
 20
67.536
 21
67.361
  0
LINE
  8
0
 10
13.357
 11
13.266
 20
67.361
 21
67.196
  0
LINE
  8
0
 10
13.266
 11
13.156
 20
67.196
 21
67.044
  0
LINE
  8
0
 10
13.156
 11
13.027
 20
67.044
 21
66.907
  0
LINE
  8
0
 10
13.027
 11
12.882
 20
66.907
 21
66.786
  0
LINE
  8
0
 10
12.882
 11
12.723
 20
66.786
 21
66.686
  0
LINE
  8
0
 10
12.723
 11
12.552
 20
66.686
 21
66.605
  0
LINE
  8
0
 10
12.552
 11
12.373
 20
66.605
 21
66.547
  0
LINE
  8
0
 10
12.373
 11
12.188
 20
66.547
 21
66.512
  0
LINE
  8
0
 10
12.188
 11
12
 20
66.512
 21
66.5
  0
LINE
  8
0
 10
12
 11
11.812
 20
66.5
 21
66.512
  0
LINE
  8
0
 10
11.812
 11
11.627
 20
66.512
 21
66.547
  0
LINE
  8
0
 10
11.627
 11
11.448
 20
66.547
 21
66.605
  0
LINE
  8
0
 10
11.448
 11
11.277
 20
66.605
 21
66.686
  0
LINE
  8
0
 10
11.277
 11
11.118
 20
66.686
 21
66.786
  0
LINE
  8
0
 10
11.118
 11
10.973
 20
66.786
 21
66.907
  0
LINE
  8
0
 10
10.973
 11
10.844
 20
66.907
 21
67.044
  0
LINE
  8
0
 10
10.844
 11
10.734
 20
67.044
 21
67.196
  0
LINE
  8
0
 10
10.734
 11
10.643
 20
67.196
 21
67.361
  0
LINE
  8
0
 10
10.643
 11
10.573
 20
67.361
 21
67.536
  0
LINE
  8
0
 10
10.573
 11
10.527
 20
67.536
 21
67.719
  0
LINE
  8
0
 10
10.527
 11
10.503
 20
67.719
 21
67.906
  0
LINE
  8
0
 10
15
 11
15
 20
82.5
 21
87.5
  0
LINE
  8
0
 10
15
 11
20
 20
87.5
 21
87.5
  0
LINE
  8
0
 10
20
 11
20
 20
87.5
 21
82.5
  0
LINE
  8
0
 10
20
 11
15
 20
82.5
 21
82.5
  0
LINE
  8
0
 10
15
 11
15
 20
347.5
 21
352.5
  0
LINE
  8
0
 10
15
 11
20
 20
352.5
 21
352.5
  0
LINE
  8
0
 10
20
 11
20
 20
352.5
 21
347.5
  0
LINE
  8
0
 10
20
 11
15
 20
347.5
 21
347.5
  0
LINE
  8
0
 10
16.5
 11
16.587
 20
52.5
 21
53.879
  0
LINE
  8
0
 10
16.587
 11
16.846
 20
53.879
 21
55.236
  0
LINE
  8
0
 10
16.846
 11
17.272
 20
55.236
 21
56.549
  0
LINE
  8
0
 10
17.272
 11
17.861
 20
56.549
 21
57.799
  0
LINE
  8
0
 10
17.861
 11
18.601
 20
57.799
 21
58.966
  0
LINE
  8
0
 10
18.601
 11
19.481
 20
58.966
 21
60.03
  0
LINE
  8
0
 10
19.481
 11
20.488
 20
60.03
 21
60.976
  0
LINE
  8
0
 10
20.488
 11
21.606
 20
60.976
 21
61.788
  0
LINE
  8
0
 10
21.606
 11
22.816
 20
61.788
 21
62.453
  0
LINE
  8
0
 10
22.816
 11
24.101
 20
62.453
 21
62.962
  0
LINE
  8
0
 10
24.101
 11
25.439
 20
62.962
 21
63.305
  0
LINE
  8
0
 10
25.439
 11
26.809
 20
63.305
 21
63.478
  0
LINE
  8
0
 10
26.809
 11
28.191
 20
63.478
 21
63.478
  0
LINE
  8
0
 10
28.191
 11
29.561
 20
63.478
 21
63.305
  0
LINE
  8
0
 10
29.561
 11
30.899
 20
63.305
 21
62.962
  0
LINE
  8
0
 10
30.899
 11
32.184
 20
62.962
 21
62.453
  0
LINE
  8
0
 10
32.184
 11
33.394
 20
62.453
 21
61.788
  0
LINE
  8
0
 10
33.394
 11
34.512
 20
61.788
 21
60.976
  0
LINE
  8
0
 10
34.512
 11
35.519
 20
60.976
 21
60.03
  0
LINE
  8
0
 10
35.519
 11
36.399
 20
60.03
 21
58.966
  0
LINE
  8
0
 10
36.399
 11
37.139
 20
58.966
 21
57.799
  0
LINE
  8
0
 10
37.139
 11
37.728
 20
57.799
 21
56.549
  0
LINE
  8
0
 10
37.728
 11
38.154
 20
56.549
 21
55.236
  0
LINE
  8
0
 10
38.154
 11
38.413
 20
55.236
 21
53.879
  0
LINE
  8
0
 10
38.413
 11
38.5
 20
53.879
 21
52.5
  0
LINE
  8
0
 10
38.5
 11
38.413
 20
52.5
 21
51.121
  0
LINE
  8
0
 10
38.413
 11
38.154
 20
51.121
 21
49.764
  0
LINE
  8
0
 10
38.154
 11
37.728
 20
49.764
 21
48.451
  0
LINE
  8
0
 10
37.728
 11
37.139
 20
48.451
 21
47.201
  0
LINE
  8
0
 10
37.139
 11
36.399
 20
47.201
 21
46.034
  0
LINE
  8
0
 10
36.399
 11
35.519
 20
46.034
 21
44.97
  0
LINE
  8
0
 10
35.519
 11
34.512
 20
44.97
 21
44.024
  0
LINE
  8
0
 10
34.512
 11
33.394
 20
44.024
 21
43.212
  0
LINE
  8
0
 10
33.394
 11
32.184
 20
43.212
 21
42.547
  0
LINE
  8
0
 10
32.184
 11
30.899
 20
42.547
 21
42.038
  0
LINE
  8
0
 10
30.899
 11
29.561
 20
42.038
 21
41.695
  0
LINE
  8
0
 10
29.561
 11
28.191
 20
41.695
 21
41.522
  0
LINE
  8
0
 10
28.191
 11
26.809
 20
41.522
 21
41.522
  0
LINE
  8
0
 10
26.809
 11
25.439
 20
41.522
 21
41.695
  0
LINE
  8
0
 10
25.439
 11
24.101
 20
41.695
 21
42.038
  0
LINE
  8
0
 10
24.101
 11
22.816
 20
42.038
 21
42.547
  0
LINE
  8
0
 10
22.816
 11
21.606
 20
42.547
 21
43.212
  0
LINE
  8
0
 10
21.606
 11
20.488
 20
43.212
 21
44.024
  0
LINE
  8
0
 10
20.488
 11
19.481
 20
44.024
 21
44.97
  0
LINE
  8
0
 10
19.481
 11
18.601
 20
44.97
 21
46.034
  0
LINE
  8
0
 10
18.601
 11
17.861
 20
46.034
 21
47.201
  0
LINE
  8
0
 10
17.861
 11
17.272
 20
47.201
 21
48.451
  0
LINE
  8
0
 10
17.272
 11
16.846
 20
48.451
 21
49.764
  0
LINE
  8
0
 10
16.846
 11
16.587
 20
49.764
 21
51.121
  0
LINE
  8
0
 10
16.587
 11
16.5
 20
51.121
 21
52.5
  0
LINE
  8
0
 10
23.2
 11
23.234
 20
377.5
 21
378.039
  0
LINE
  8
0
 10
23.234
 11
23.335
 20
378.039
 21
378.569
  0
LINE
  8
0
 10
23.335
 11
23.502
 20
378.569
 21
379.083
  0
LINE
  8
0
 10
23.502
 11
23.732
 20
379.083
 21
379.572
  0
LINE
  8
0
 10
23.732
 11
24.021
 20
379.572
 21
380.027
  0
LINE
  8
0
 10
24.021
 11
24.365
 20
380.027
 21
380.444
  0
LINE
  8
0
 10
24.365
 11
24.759
 20
380.444
 21
380.813
  0
LINE
  8
0
 10
24.759
 11
25.196
 20
380.813
 21
381.131
  0
LINE
  8
0
 10
25.196
 11
25.669
 20
381.131
 21
381.391
  0
LINE
  8
0
 10
25.669
 11
26.171
 20
381.391
 21
381.59
  0
LINE
  8
0
 10
26.171
 11
26.694
 20
381.59
 21
381.724
  0
LINE
  8
0
 10
26.694
 11
27.23
 20
381.724
 21
381.792
  0
LINE
  8
0
 10
27.23
 11
27.77
 20
381.792
 21
381.792
  0
LINE
  8
0
 10
27.77
 11
28.306
 20
381.792
 21
381.724
  0
LINE
  8
0
 10
28.306
 11
28.829
 20
381.724
 21
381.59
  0
LINE
  8
0
 10
28.829
 11
29.331
 20
381.59
 21
381.391
  0
LINE
  8
0
 10
29.331
 11
29.804
 20
381.391
 21
381.131
  0
LINE
  8
0
 10
29.804
 11
30.241
 20
381.131
 21
380.813
  0
LINE
  8
0
 10
30.241
 11
30.635
 20
380.813
 21
380.444
  0
LINE
  8
0
 10
30.635
 11
30.979
 20
380.444
 21
380.027
  0
LINE
  8
0
 10
30.979
 11
31.268
 20
380.027
 21
379.572
  0
LINE
  8
0
 10
31.268
 11
31.498
 20
379.572
 21
379.083
  0
LINE
  8
0
 10
31.498
 11
31.665
 20
379.083
 21
378.569
  0
LINE
  8
0
 10
31.665
 11
31.766
 20
378.569
 21
378.039
  0
LINE
  8
0
 10
31.766
 11
31.8
 20
378.039
 21
377.5
  0
LINE
  8
0
 10
31.8
 11
31.766
 20
377.5
 21
376.961
  0
LINE
  8
0
 10
31.766
 11
31.665
 20
376.961
 21
376.431
  0
LINE
  8
0
 10
31.665
 11
31.498
 20
376.431
 21
375.917
  0
LINE
  8
0
 10
31.498
 11
31.268
 20
375.917
 21
375.428
  0
LINE
  8
0
 10
31.268
 11
30.979
 20
375.428
 21
374.973
  0
LINE
  8
0
 10
30.979
 11
30.635
 20
374.973
 21
374.556
  0
LINE
  8
0
 10
30.635
 11
30.241
 20
374.556
 21
374.187
  0
LINE
  8
0
 10
30.241
 11
29.804
 20
374.187
 21
373.869
  0
LINE
  8
0
 10
29.804
 11
29.331
 20
373.869
 21
373.609
  0
LINE
  8
0
 10
29.331
 11
28.829
 20
373.609
 21
373.41
  0
LINE
  8
0
 10
28.829
 11
28.306
 20
373.41
 21
373.276
  0
LINE
  8
0
 10
28.306
 11
27.77
 20
373.276
 21
373.208
  0
LINE
  8
0
 10
27.77
 11
27.23
 20
373.208
 21
373.208
  0
LINE
  8
0
 10
27.23
 11
26.694
 20
373.208
 21
373.276
  0
LINE
  8
0
 10
26.694
 11
26.171
 20
373.276
 21
373.41
  0
LINE
  8
0
 10
26.171
 11
25.669
 20
373.41
 21
373.609
  0
LINE
  8
0
 10
25.669
 11
25.196
 20
373.609
 21
373.869
  0
LINE
  8
0
 10
25.196
 11
24.759
 20
373.869
 21
374.187
  0
LINE
  8
0
 10
24.759
 11
24.365
 20
374.187
 21
374.556
  0
LINE
  8
0
 10
24.365
 11
24.021
 20
374.556
 21
374.973
  0
LINE
  8
0
 10
24.021
 11
23.732
 20
374.973
 21
375.428
  0
LINE
  8
0
 10
23.732
 11
23.502
 20
375.428
 21
375.917
  0
LINE
  8
0
 10
23.502
 11
23.335
 20
375.917
 21
376.431
  0
LINE
  8
0
 10
23.335
 11
23.234
 20
376.431
 21
376.961
  0
LINE
  8
0
 10
23.234
 11
23.2
 20
376.961
 21
377.5
  0
LINE
  8
0
 10
25
 11
25
 20
82.5
 21
87.5
  0
LINE
  8
0
 10
25
 11
30
 20
87.5
 21
87.5
  0
LINE
  8
0
 10
30
 11
30
 20
87.5
 21
82.5
  0
LINE
  8
0
 10
30
 11
25
 20
82.5
 21
82.5
  0
LINE
  8
0
 10
25
 11
25
 20
347.5
 21
352.5
  0
LINE
  8
0
 10
25
 11
30
 20
352.5
 21
352.5
  0
LINE
  8
0
 10
30
 11
30
 20
352.5
 21
347.5
  0
LINE
  8
0
 10
30
 11
25
 20
347.5
 21
347.5
  0
LINE
  8
0
 10
35
 11
35
 20
82.5
 21
87.5
  0
LINE
  8
0
 10
35
 11
40
 20
87.5
 21
87.5
  0
LINE
  8
0
 10
40
 11
40
 20
87.5
 21
82.5
  0
LINE
  8
0
 10
40
 11
35
 20
82.5
 21
82.5
  0
LINE
  8
0
 10
35
 11
35
 20
347.5
 21
352.5
  0
LINE
  8
0
 10
35
 11
40
 20
352.5
 21
352.5
  0
LINE
  8
0
 10
40
 11
40
 20
352.5
 21
347.5
  0
LINE
  8
0
 10
40
 11
35
 20
347.5
 21
347.5
  0
LINE
  8
0
 10
41
 11
41.032
 20
52.5
 21
53.001
  0
LINE
  8
0
 10
41.032
 11
41.126
 20
53.001
 21
53.495
  0
LINE
  8
0
 10
41.126
 11
41.281
 20
53.495
 21
53.972
  0
LINE
  8
0
 10
41.281
 11
41.495
 20
53.972
 21
54.427
  0
LINE
  8
0
 10
41.495
 11
41.764
 20
54.427
 21
54.851
  0
LINE
  8
0
 10
41.764
 11
42.084
 20
54.851
 21
55.238
  0
LINE
  8
0
 10
42.084
 11
42.45
 20
55.238
 21
55.582
  0
LINE
  8
0
 10
42.45
 11
42.857
 20
55.582
 21
55.877
  0
LINE
  8
0
 10
42.857
 11
43.297
 20
55.877
 21
56.119
  0
LINE
  8
0
 10
43.297
 11
43.764
 20
56.119
 21
56.304
  0
LINE
  8
0
 10
43.764
 11
44.25
 20
56.304
 21
56.429
  0
LINE
  8
0
 10
44.25
 11
44.749
 20
56.429
 21
56.492
  0
LINE
  8
0
 10
44.749
 11
45.251
 20
56.492
 21
56.492
  0
LINE
  8
0
 10
45.251
 11
45.75
 20
56.492
 21
56.429
  0
LINE
  8
0
 10
45.75
 11
46.236
 20
56.429
 21
56.304
  0
LINE
  8
0
 10
46.236
 11
46.703
 20
56.304
 21
56.119
  0
LINE
  8
0
 10
46.703
 11
47.143
 20
56.119
 21
55.877
  0
LINE
  8
0
 10
47.143
 11
47.55
 20
55.877
 21
55.582
  0
LINE
  8
0
 10
47.55
 11
47.916
 20
55.582
 21
55.238
  0
LINE
  8
0
 10
47.916
 11
48.236
 20
55.238
 21
54.851
  0
LINE
  8
0
 10
48.236
 11
48.505
 20
54.851
 21
54.427
  0
LINE
  8
0
 10
48.505
 11
48.719
 20
54.427
 21
53.972
  0
LINE
  8
0
 10
48.719
 11
48.874
 20
53.972
 21
53.495
  0
LINE
  8
0
 10
48.874
 11
48.968
 20
53.495
 21
53.001
  0
LINE
  8
0
 10
48.968
 11
49
 20
53.001
 21
52.5
  0
LINE
  8
0
 10
49
 11
48.968
 20
52.5
 21
51.999
  0
LINE
  8
0
 10
48.968
 11
48.874
 20
51.999
 21
51.505
  0
LINE
  8
0
 10
48.874
 11
48.719
 20
51.505
 21
51.028
  0
LINE
  8
0
 10
48.719
 11
48.505
 20
51.028
 21
50.573
  0
LINE
  8
0
 10
48.505
 11
48.236
 20
50.573
 21
50.149
  0
LINE
  8
0
 10
48.236
 11
47.916
 20
50.149
 21
49.762
  0
LINE
  8
0
 10
47.916
 11
47.55
 20
49.762
 21
49.418
  0
LINE
  8
0
 10
47.55
 11
47.143
 20
49.418
 21
49.123
  0
LINE
  8
0
 10
47.143
 11
46.703
 20
49.123
 21
48.881
  0
LINE
  8
0
 10
46.703
 11
46.236
 20
48.881
 21
48.696
  0
LINE
  8
0
 10
46.236
 11
45.75
 20
48.696
 21
48.571
  0
LINE
  8
0
 10
45.75
 11
45.251
 20
48.571
 21
48.508
  0
LINE
  8
0
 10
45.251
 11
44.749
 20
48.508
 21
48.508
  0
LINE
  8
0
 10
44.749
 11
44.25
 20
48.508
 21
48.571
  0
LINE
  8
0
 10
44.25
 11
43.764
 20
48.571
 21
48.696
  0
LINE
  8
0
 10
43.764
 11
43.297
 20
48.696
 21
48.881
  0
LINE
  8
0
 10
43.297
 11
42.857
 20
48.881
 21
49.123
  0
LINE
  8
0
 10
42.857
 11
42.45
 20
49.123
 21
49.418
  0
LINE
  8
0
 10
42.45
 11
42.084
 20
49.418
 21
49.762
  0
LINE
  8
0
 10
42.084
 11
41.764
 20
49.762
 21
50.149
  0
LINE
  8
0
 10
41.764
 11
41.495
 20
50.149
 21
50.573
  0
LINE
  8
0
 10
41.495
 11
41.281
 20
50.573
 21
51.028
  0
LINE
  8
0
 10
41.281
 11
41.126
 20
51.028
 21
51.505
  0
LINE
  8
0
 10
41.126
 11
41.032
 20
51.505
 21
51.999
  0
LINE
  8
0
 10
41.032
 11
41
 20
51.999
 21
52.5
  0
LINE
  8
0
 10
41
 11
41.032
 20
377.5
 21
378.001
  0
LINE
  8
0
 10
41.032
 11
41.126
 20
378.001
 21
378.495
  0
LINE
  8
0
 10
41.126
 11
41.281
 20
378.495
 21
378.972
  0
LINE
  8
0
 10
41.281
 11
41.495
 20
378.972
 21
379.427
  0
LINE
  8
0
 10
41.495
 11
41.764
 20
379.427
 21
379.851
  0
LINE
  8
0
 10
41.764
 11
42.084
 20
379.851
 21
380.238
  0
LINE
  8
0
 10
42.084
 11
42.45
 20
380.238
 21
380.582
  0
LINE
  8
0
 10
42.45
 11
42.857
 20
380.582
 21
380.877
  0
LINE
  8
0
 10
42.857
 11
43.297
 20
380.877
 21
381.119
  0
LINE
  8
0
 10
43.297
 11
43.764
 20
381.119
 21
381.304
  0
LINE
  8
0
 10
43.764
 11
44.25
 20
381.304
 21
381.429
  0
LINE
  8
0
 10
44.25
 11
44.749
 20
381.429
 21
381.492
  0
LINE
  8
0
 10
44.749
 11
45.251
 20
381.492
 21
381.492
  0
LINE
  8
0
 10
45.251
 11
45.75
 20
381.492
 21
381.429
  0
LINE
  8
0
 10
45.75
 11
46.236
 20
381.429
 21
381.304
  0
LINE
  8
0
 10
46.236
 11
46.703
 20
381.304
 21
381.119
  0
LINE
  8
0
 10
46.703
 11
47.143
 20
381.119
 21
380.877
  0
LINE
  8
0
 10
47.143
 11
47.55
 20
380.877
 21
380.582
  0
LINE
  8
0
 10
47.55
 11
47.916
 20
380.582
 21
380.238
  0
LINE
  8
0
 10
47.916
 11
48.236
 20
380.238
 21
379.851
  0
LINE
  8
0
 10
48.236
 11
48.505
 20
379.851
 21
379.427
  0
LINE
  8
0
 10
48.505
 11
48.719
 20
379.427
 21
378.972
  0
LINE
  8
0
 10
48.719
 11
48.874
 20
378.972
 21
378.495
  0
LINE
  8
0
 10
48.874
 11
48.968
 20
378.495
 21
378.001
  0
LINE
  8
0
 10
48.968
 11
49
 20
378.001
 21
377.5
  0
LINE
  8
0
 10
49
 11
48.968
 20
377.5
 21
376.999
  0
LINE
  8
0
 10
48.968
 11
48.874
 20
376.999
 21
376.505
  0
LINE
  8
0
 10
48.874
 11
48.719
 20
376.505
 21
376.028
  0
LINE
  8
0
 10
48.719
 11
48.505
 20
376.028
 21
375.573
  0
LINE
  8
0
 10
48.505
 11
48.236
 20
375.573
 21
375.149
  0
LINE
  8
0
 10
48.236
 11
47.916
 20
375.149
 21
374.762
  0
LINE
  8
0
 10
47.916
 11
47.55
 20
374.762
 21
374.418
  0
LINE
  8
0
 10
47.55
 11
47.143
 20
374.418
 21
374.123
  0
LINE
  8
0
 10
47.143
 11
46.703
 20
374.123
 21
373.881
  0
LINE
  8
0
 10
46.703
 11
46.236
 20
373.881
 21
373.696
  0
LINE
  8
0
 10
46.236
 11
45.75
 20
373.696
 21
373.571
  0
LINE
  8
0
 10
45.75
 11
45.251
 20
373.571
 21
373.508
  0
LINE
  8
0
 10
45.251
 11
44.749
 20
373.508
 21
373.508
  0
LINE
  8
0
 10
44.749
 11
44.25
 20
373.508
 21
373.571
  0
LINE
  8
0
 10
44.25
 11
43.764
 20
373.571
 21
373.696
  0
LINE
  8
0
 10
43.764
 11
43.297
 20
373.696
 21
373.881
  0
LINE
  8
0
 10
43.297
 11
42.857
 20
373.881
 21
374.123
  0
LINE
  8
0
 10
42.857
 11
42.45
 20
374.123
 21
374.418
  0
LINE
  8
0
 10
42.45
 11
42.084
 20
374.418
 21
374.762
  0
LINE
  8
0
 10
42.084
 11
41.764
 20
374.762
 21
375.149
  0
LINE
  8
0
 10
41.764
 11
41.495
 20
375.149
 21
375.573
  0
LINE
  8
0
 10
41.495
 11
41.281
 20
375.573
 21
376.028
  0
LINE
  8
0
 10
41.281
 11
41.126
 20
376.028
 21
376.505
  0
LINE
  8
0
 10
41.126
 11
41.032
 20
376.505
 21
376.999
  0
LINE
  8
0
 10
41.032
 11
41
 20
376.999
 21
377.5
  0
LINE
  8
0
 10
41.5
 11
41.512
 20
68
 21
68.188
  0
LINE
  8
0
 10
41.512
 11
41.547
 20
68.188
 21
68.373
  0
LINE
  8
0
 10
41.547
 11
41.605
 20
68.373
 21
68.552
  0
LINE
  8
0
 10
41.605
 11
41.686
 20
68.552
 21
68.723
  0
LINE
  8
0
 10
41.686
 11
41.786
 20
68.723
 21
68.882
  0
LINE
  8
0
 10
41.786
 11
41.907
 20
68.882
 21
69.027
  0
LINE
  8
0
 10
41.907
 11
42.044
 20
69.027
 21
69.156
  0
LINE
  8
0
 10
42.044
 11
42.196
 20
69.156
 21
69.266
  0
LINE
  8
0
 10
42.196
 11
42.361
 20
69.266
 21
69.357
  0
LINE
  8
0
 10
42.361
 11
42.536
 20
69.357
 21
69.427
  0
LINE
  8
0
 10
42.536
 11
42.719
 20
69.427
 21
69.473
  0
LINE
  8
0
 10
42.719
 11
42.906
 20
69.473
 21
69.497
  0
LINE
  8
0
 10
42.906
 11
43.094
 20
69.497
 21
69.497
  0
LINE
  8
0
 10
43.094
 11
43.281
 20
69.497
 21
69.473
  0
LINE
  8
0
 10
43.281
 11
43.464
 20
69.473
 21
69.427
  0
LINE
  8
0
 10
43.464
 11
43.639
 20
69.427
 21
69.357
  0
LINE
  8
0
 10
43.639
 11
43.804
 20
69.357
 21
69.266
  0
LINE
  8
0
 10
43.804
 11
43.956
 20
69.266
 21
69.156
  0
LINE
  8
0
 10
43.956
 11
44.093
 20
69.156
 21
69.027
  0
LINE
  8
0
 10
44.093
 11
44.214
 20
69.027
 21
68.882
  0
LINE
  8
0
 10
44.214
 11
44.314
 20
68.882
 21
68.723
  0
LINE
  8
0
 10
44.314
 11
44.395
 20
68.723
 21
68.552
  0
LINE
  8
0
 10
44.395
 11
44.453
 20
68.552
 21
68.373
  0
LINE
  8
0
 10
44.453
 11
44.488
 20
68.373
 21
68.188
  0
LINE
  8
0
 10
44.488
 11
44.5
 20
68.188
 21
68
  0
LINE
  8
0
 10
44.5
 11
44.488
 20
68
 21
67.812
  0
LINE
  8
0
 10
44.488
 11
44.453
 20
67.812
 21
67.627
  0
LINE
  8
0
 10
44.453
 11
44.395
 20
67.627
 21
67.448
  0
LINE
  8
0
 10
44.395
 11
44.314
 20
67.448
 21
67.277
  0
LINE
  8
0
 10
44.314
 11
44.214
 20
67.277
 21
67.118
  0
LINE
  8
0
 10
44.214
 11
44.093
 20
67.118
 21
66.973
  0
LINE
  8
0
 10
44.093
 11
43.956
 20
66.973
 21
66.844
  0
LINE
  8
0
 10
43.956
 11
43.804
 20
66.844
 21
66.734
  0
LINE
  8
0
 10
43.804
 11
43.639
 20
66.734
 21
66.643
  0
LINE
  8
0
 10
43.639
 11
43.464
 20
66.643
 21
66.573
  0
LINE
  8
0
 10
43.464
 11
43.281
 20
66.573
 21
66.527
  0
LINE
  8
0
 10
43.281
 11
43.094
 20
66.527
 21
66.503
  0
LINE
  8
0
 10
43.094
 11
42.906
 20
66.503
 21
66.503
  0
LINE
  8
0
 10
42.906
 11
42.719
 20
66.503
 21
66.527
  0
LINE
  8
0
 10
42.719
 11
42.536
 20
66.527
 21
66.573
  0
LINE
  8
0
 10
42.536
 11
42.361
 20
66.573
 21
66.643
  0
LINE
  8
0
 10
42.361
 11
42.196
 20
66.643
 21
66.734
  0
LINE
  8
0
 10
42.196
 11
42.044
 20
66.734
 21
66.844
  0
LINE
  8
0
 10
42.044
 11
41.907
 20
66.844
 21
66.973
  0
LINE
  8
0
 10
41.907
 11
41.786
 20
66.973
 21
67.118
  0
LINE
  8
0
 10
41.786
 11
41.686
 20
67.118
 21
67.277
  0
LINE
  8
0
 10
41.686
 11
41.605
 20
67.277
 21
67.448
  0
LINE
  8
0
 10
41.605
 11
41.547
 20
67.448
 21
67.627
  0
LINE
  8
0
 10
41.547
 11
41.512
 20
67.627
 21
67.812
  0
LINE
  8
0
 10
41.512
 11
41.5
 20
67.812
 21
68
  0
LINE
  8
0
 10
41.503
 11
41.503
 20
36.906
 21
37.094
  0
LINE
  8
0
 10
41.503
 11
41.527
 20
37.094
 21
37.281
  0
LINE
  8
0
 10
41.527
 11
41.573
 20
37.281
 21
37.464
  0
LINE
  8
0
 10
41.573
 11
41.643
 20
37.464
 21
37.639
  0
LINE
  8
0
 10
41.643
 11
41.734
 20
37.639
 21
37.804
  0
LINE
  8
0
 10
41.734
 11
41.844
 20
37.804
 21
37.956
  0
LINE
  8
0
 10
41.844
 11
41.973
 20
37.956
 21
38.093
  0
LINE
  8
0
 10
41.973
 11
42.118
 20
38.093
 21
38.214
  0
LINE
  8
0
 10
42.118
 11
42.277
 20
38.214
 21
38.314
  0
LINE
  8
0
 10
42.277
 11
42.448
 20
38.314
 21
38.395
  0
LINE
  8
0
 10
42.448
 11
42.627
 20
38.395
 21
38.453
  0
LINE
  8
0
 10
42.627
 11
42.812
 20
38.453
 21
38.488
  0
LINE
  8
0
 10
42.812
 11
43
 20
38.488
 21
38.5
  0
LINE
  8
0
 10
43
 11
43.188
 20
38.5
 21
38.488
  0
LINE
  8
0
 10
43.188
 11
43.373
 20
38.488
 21
38.453
  0
LINE
  8
0
 10
43.373
 11
43.552
 20
38.453
 21
38.395
  0
LINE
  8
0
 10
43.552
 11
43.723
 20
38.395
 21
38.314
  0
LINE
  8
0
 10
43.723
 11
43.882
 20
38.314
 21
38.214
  0
LINE
  8
0
 10
43.882
 11
44.027
 20
38.214
 21
38.093
  0
LINE
  8
0
 10
44.027
 11
44.156
 20
38.093
 21
37.956
  0
LINE
  8
0
 10
44.156
 11
44.266
 20
37.956
 21
37.804
  0
LINE
  8
0
 10
44.266
 11
44.357
 20
37.804
 21
37.639
  0
LINE
  8
0
 10
44.357
 11
44.427
 20
37.639
 21
37.464
  0
LINE
  8
0
 10
44.427
 11
44.473
 20
37.464
 21
37.281
  0
LINE
  8
0
 10
44.473
 11
44.497
 20
37.281
 21
37.094
  0
LINE
  8
0
 10
44.497
 11
44.497
 20
37.094
 21
36.906
  0
LINE
  8
0
 10
44.497
 11
44.473
 20
36.906
 21
36.719
  0
LINE
  8
0
 10
44.473
 11
44.427
 20
36.719
 21
36.536
  0
LINE
  8
0
 10
44.427
 11
44.357
 20
36.536
 21
36.361
  0
LINE
  8
0
 10
44.357
 11
44.266
 20
36.361
 21
36.196
  0
LINE
  8
0
 10
44.266
 11
44.156
 20
36.196
 21
36.044
  0
LINE
  8
0
 10
44.156
 11
44.027
 20
36.044
 21
35.907
  0
LINE
  8
0
 10
44.027
 11
43.882
 20
35.907
 21
35.786
  0
LINE
  8
0
 10
43.882
 11
43.723
 20
35.786
 21
35.686
  0
LINE
  8
0
 10
43.723
 11
43.552
 20
35.686
 21
35.605
  0
LINE
  8
0
 10
43.552
 11
43.373
 20
35.605
 21
35.547
  0
LINE
  8
0
 10
43.373
 11
43.188
 20
35.547
 21
35.512
  0
LINE
  8
0
 10
43.188
 11
43
 20
35.512
 21
35.5
  0
LINE
  8
0
 10
43
 11
42.812
 20
35.5
 21
35.512
  0
LINE
  8
0
 10
42.812
 11
42.627
 20
35.512
 21
35.547
  0
LINE
  8
0
 10
42.627
 11
42.448
 20
35.547
 21
35.605
  0
LINE
  8
0
 10
42.448
 11
42.277
 20
35.605
 21
35.686
  0
LINE
  8
0
 10
42.277
 11
42.118
 20
35.686
 21
35.786
  0
LINE
  8
0
 10
42.118
 11
41.973
 20
35.786
 21
35.907
  0
LINE
  8
0
 10
41.973
 11
41.844
 20
35.907
 21
36.044
  0
LINE
  8
0
 10
41.844
 11
41.734
 20
36.044
 21
36.196
  0
LINE
  8
0
 10
41.734
 11
41.643
 20
36.196
 21
36.361
  0
LINE
  8
0
 10
41.643
 11
41.573
 20
36.361
 21
36.536
  0
LINE
  8
0
 10
41.573
 11
41.527
 20
36.536
 21
36.719
  0
LINE
  8
0
 10
41.527
 11
41.503
 20
36.719
 21
36.906
  0
LINE
  8
0
 10
42.5
 11
42.52
 20
15
 21
15.313
  0
LINE
  8
0
 10
42.52
 11
42.579
 20
15.313
 21
15.622
  0
LINE
  8
0
 10
42.579
 11
42.676
 20
15.622
 21
15.92
  0
LINE
  8
0
 10
42.676
 11
42.809
 20
15.92
 21
16.204
  0
LINE
  8
0
 10
42.809
 11
42.977
 20
16.204
 21
16.469
  0
LINE
  8
0
 10
42.977
 11
43.178
 20
16.469
 21
16.711
  0
LINE
  8
0
 10
43.178
 11
43.406
 20
16.711
 21
16.926
  0
LINE
  8
0
 10
43.406
 11
43.66
 20
16.926
 21
17.111
  0
LINE
  8
0
 10
43.66
 11
43.936
 20
17.111
 21
17.262
  0
LINE
  8
0
 10
43.936
 11
44.227
 20
17.262
 21
17.378
  0
LINE
  8
0
 10
44.227
 11
44.532
 20
17.378
 21
17.456
  0
LINE
  8
0
 10
44.532
 11
44.843
 20
17.456
 21
17.495
  0
LINE
  8
0
 10
44.843
 11
45.157
 20
17.495
 21
17.495
  0
LINE
  8
0
 10
45.157
 11
45.468
 20
17.495
 21
17.456
  0
LINE
  8
0
 10
45.468
 11
45.773
 20
17.456
 21
17.378
  0
LINE
  8
0
 10
45.773
 11
46.064
 20
17.378
 21
17.262
  0
LINE
  8
0
 10
46.064
 11
46.34
 20
17.262
 21
17.111
  0
LINE
  8
0
 10
46.34
 11
46.594
 20
17.111
 21
16.926
  0
LINE
  8
0
 10
46.594
 11
46.822
 20
16.926
 21
16.711
  0
LINE
  8
0
 10
46.822
 11
47.023
 20
16.711
 21
16.469
  0
LINE
  8
0
 10
47.023
 11
47.191
 20
16.469
 21
16.204
  0
LINE
  8
0
 10
47.191
 11
47.324
 20
16.204
 21
15.92
  0
LINE
  8
0
 10
47.324
 11
47.421
 20
15.92
 21
15.622
  0
LINE
  8
0
 10
47.421
 11
47.48
 20
15.622
 21
15.313
  0
LINE
  8
0
 10
47.48
 11
47.5
 20
15.313
 21
15
  0
LINE
  8
0
 10
47.5
 11
47.48
 20
15
 21
14.687
  0
LINE
  8
0
 10
47.48
 11
47.421
 20
14.687
 21
14.378
  0
LINE
  8
0
 10
47.421
 11
47.324
 20
14.378
 21
14.08
  0
LINE
  8
0
 10
47.324
 11
47.191
 20
14.08
 21
13.796
  0
LINE
  8
0
 10
47.191
 11
47.023
 20
13.796
 21
13.531
  0
LINE
  8
0
 10
47.023
 11
46.822
 20
13.531
 21
13.289
  0
LINE
  8
0
 10
46.822
 11
46.594
 20
13.289
 21
13.074
  0
LINE
  8
0
 10
46.594
 11
46.34
 20
13.074
 21
12.889
  0
LINE
  8
0
 10
46.34
 11
46.064
 20
12.889
 21
12.738
  0
LINE
  8
0
 10
46.064
 11
45.773
 20
12.738
 21
12.622
  0
LINE
  8
0
 10
45.773
 11
45.468
 20
12.622
 21
12.544
  0
LINE
  8
0
 10
45.468
 11
45.157
 20
12.544
 21
12.505
  0
LINE
  8
0
 10
45.157
 11
44.843
 20
12.505
 21
12.505
  0
LINE
  8
0
 10
44.843
 11
44.532
 20
12.505
 21
12.544
  0
LINE
  8
0
 10
44.532
 11
44.227
 20
12.544
 21
12.622
  0
LINE
  8
0
 10
44.227
 11
43.936
 20
12.622
 21
12.738
  0
LINE
  8
0
 10
43.936
 11
43.66
 20
12.738
 21
12.889
  0
LINE
  8
0
 10
43.66
 11
43.406
 20
12.889
 21
13.074
  0
LINE
  8
0
 10
43.406
 11
43.178
 20
13.074
 21
13.289
  0
LINE
  8
0
 10
43.178
 11
42.977
 20
13.289
 21
13.531
  0
LINE
  8
0
 10
42.977
 11
42.809
 20
13.531
 21
13.796
  0
LINE
  8
0
 10
42.809
 11
42.676
 20
13.796
 21
14.08
  0
LINE
  8
0
 10
42.676
 11
42.579
 20
14.08
 21
14.378
  0
LINE
  8
0
 10
42.579
 11
42.52
 20
14.378
 21
14.687
  0
LINE
  8
0
 10
42.52
 11
42.5
 20
14.687
 21
15
  0
LINE
  8
0
 10
42.5
 11
42.52
 20
415
 21
415.313
  0
LINE
  8
0
 10
42.52
 11
42.579
 20
415.313
 21
415.622
  0
LINE
  8
0
 10
42.579
 11
42.676
 20
415.622
 21
415.92
  0
LINE
  8
0
 10
42.676
 11
42.809
 20
415.92
 21
416.204
  0
LINE
  8
0
 10
42.809
 11
42.977
 20
416.204
 21
416.469
  0
LINE
  8
0
 10
42.977
 11
43.178
 20
416.469
 21
416.711
  0
LINE
  8
0
 10
43.178
 11
43.406
 20
416.711
 21
416.926
  0
LINE
  8
0
 10
43.406
 11
43.66
 20
416.926
 21
417.111
  0
LINE
  8
0
 10
43.66
 11
43.936
 20
417.111
 21
417.262
  0
LINE
  8
0
 10
43.936
 11
44.227
 20
417.262
 21
417.378
  0
LINE
  8
0
 10
44.227
 11
44.532
 20
417.378
 21
417.456
  0
LINE
  8
0
 10
44.532
 11
44.843
 20
417.456
 21
417.495
  0
LINE
  8
0
 10
44.843
 11
45.157
 20
417.495
 21
417.495
  0
LINE
  8
0
 10
45.157
 11
45.468
 20
417.495
 21
417.456
  0
LINE
  8
0
 10
45.468
 11
45.773
 20
417.456
 21
417.378
  0
LINE
  8
0
 10
45.773
 11
46.064
 20
417.378
 21
417.262
  0
LINE
  8
0
 10
46.064
 11
46.34
 20
417.262
 21
417.111
  0
LINE
  8
0
 10
46.34
 11
46.594
 20
417.111
 21
416.926
  0
LINE
  8
0
 10
46.594
 11
46.822
 20
416.926
 21
416.711
  0
LINE
  8
0
 10
46.822
 11
47.023
 20
416.711
 21
416.469
  0
LINE
  8
0
 10
47.023
 11
47.191
 20
416.469
 21
416.204
  0
LINE
  8
0
 10
47.191
 11
47.324
 20
416.204
 21
415.92
  0
LINE
  8
0
 10
47.324
 11
47.421
 20
415.92
 21
415.622
  0
LINE
  8
0
 10
47.421
 11
47.48
 20
415.622
 21
415.313
  0
LINE
  8
0
 10
47.48
 11
47.5
 20
415.313
 21
415
  0
LINE
  8
0
 10
47.5
 11
47.48
 20
415
 21
414.687
  0
LINE
  8
0
 10
47.48
 11
47.421
 20
414.687
 21
414.378
  0
LINE
  8
0
 10
47.421
 11
47.324
 20
414.378
 21
414.08
  0
LINE
  8
0
 10
47.324
 11
47.191
 20
414.08
 21
413.796
  0
LINE
  8
0
 10
47.191
 11
47.023
 20
413.796
 21
413.531
  0
LINE
  8
0
 10
47.023
 11
46.822
 20
413.531
 21
413.289
  0
LINE
  8
0
 10
46.822
 11
46.594
 20
413.289
 21
413.074
  0
LINE
  8
0
 10
46.594
 11
46.34
 20
413.074
 21
412.889
  0
LINE
  8
0
 10
46.34
 11
46.064
 20
412.889
 21
412.738
  0
LINE
  8
0
 10
46.064
 11
45.773
 20
412.738
 21
412.622
  0
LINE
  8
0
 10
45.773
 11
45.468
 20
412.622
 21
412.544
  0
LINE
  8
0
 10
45.468
 11
45.157
 20
412.544
 21
412.505
  0
LINE
  8
0
 10
45.157
 11
44.843
 20
412.505
 21
412.505
  0
LINE
  8
0
 10
44.843
 11
44.532
 20
412.505
 21
412.544
  0
LINE
  8
0
 10
44.532
 11
44.227
 20
412.544
 21
412.622
  0
LINE
  8
0
 10
44.227
 11
43.936
 20
412.622
 21
412.738
  0
LINE
  8
0
 10
43.936
 11
43.66
 20
412.738
 21
412.889
  0
LINE
  8
0
 10
43.66
 11
43.406
 20
412.889
 21
413.074
  0
LINE
  8
0
 10
43.406
 11
43.178
 20
413.074
 21
413.289
  0
LINE
  8
0
 10
43.178
 11
42.977
 20
413.289
 21
413.531
  0
LINE
  8
0
 10
42.977
 11
42.809
 20
413.531
 21
413.796
  0
LINE
  8
0
 10
42.809
 11
42.676
 20
413.796
 21
414.08
  0
LINE
  8
0
 10
42.676
 11
42.579
 20
414.08
 21
414.378
  0
LINE
  8
0
 10
42.579
 11
42.52
 20
414.378
 21
414.687
  0
LINE
  8
0
 10
42.52
 11
42.5
 20
414.687
 21
415
  0
LINE
  8
0
 10
44
 11
44.012
 20
395.5
 21
395.688
  0
LINE
  8
0
 10
44.012
 11
44.047
 20
395.688
 21
395.873
  0
LINE
  8
0
 10
44.047
 11
44.105
 20
395.873
 21
396.052
  0
LINE
  8
0
 10
44.105
 11
44.186
 20
396.052
 21
396.223
  0
LINE
  8
0
 10
44.186
 11
44.286
 20
396.223
 21
396.382
  0
LINE
  8
0
 10
44.286
 11
44.407
 20
396.382
 21
396.527
  0
LINE
  8
0
 10
44.407
 11
44.544
 20
396.527
 21
396.656
  0
LINE
  8
0
 10
44.544
 11
44.696
 20
396.656
 21
396.766
  0
LINE
  8
0
 10
44.696
 11
44.861
 20
396.766
 21
396.857
  0
LINE
  8
0
 10
44.861
 11
45.036
 20
396.857
 21
396.927
  0
LINE
  8
0
 10
45.036
 11
45.219
 20
396.927
 21
396.973
  0
LINE
  8
0
 10
45.219
 11
45.406
 20
396.973
 21
396.997
  0
LINE
  8
0
 10
45.406
 11
45.594
 20
396.997
 21
396.997
  0
LINE
  8
0
 10
45.594
 11
45.781
 20
396.997
 21
396.973
  0
LINE
  8
0
 10
45.781
 11
45.964
 20
396.973
 21
396.927
  0
LINE
  8
0
 10
45.964
 11
46.139
 20
396.927
 21
396.857
  0
LINE
  8
0
 10
46.139
 11
46.304
 20
396.857
 21
396.766
  0
LINE
  8
0
 10
46.304
 11
46.456
 20
396.766
 21
396.656
  0
LINE
  8
0
 10
46.456
 11
46.593
 20
396.656
 21
396.527
  0
LINE
  8
0
 10
46.593
 11
46.714
 20
396.527
 21
396.382
  0
LINE
  8
0
 10
46.714
 11
46.814
 20
396.382
 21
396.223
  0
LINE
  8
0
 10
46.814
 11
46.895
 20
396.223
 21
396.052
  0
LINE
  8
0
 10
46.895
 11
46.953
 20
396.052
 21
395.873
  0
LINE
  8
0
 10
46.953
 11
46.988
 20
395.873
 21
395.688
  0
LINE
  8
0
 10
46.988
 11
47
 20
395.688
 21
395.5
  0
LINE
  8
0
 10
47
 11
46.988
 20
395.5
 21
395.312
  0
LINE
  8
0
 10
46.988
 11
46.953
 20
395.312
 21
395.127
  0
LINE
  8
0
 10
46.953
 11
46.895
 20
395.127
 21
394.948
  0
LINE
  8
0
 10
46.895
 11
46.814
 20
394.948
 21
394.777
  0
LINE
  8
0
 10
46.814
 11
46.714
 20
394.777
 21
394.618
  0
LINE
  8
0
 10
46.714
 11
46.593
 20
394.618
 21
394.473
  0
LINE
  8
0
 10
46.593
 11
46.456
 20
394.473
 21
394.344
  0
LINE
  8
0
 10
46.456
 11
46.304
 20
394.344
 21
394.234
  0
LINE
  8
0
 10
46.304
 11
46.139
 20
394.234
 21
394.143
  0
LINE
  8
0
 10
46.139
 11
45.964
 20
394.143
 21
394.073
  0
LINE
  8
0
 10
45.964
 11
45.781
 20
394.073
 21
394.027
  0
LINE
  8
0
 10
45.781
 11
45.594
 20
394.027
 21
394.003
  0
LINE
  8
0
 10
45.594
 11
45.406
 20
394.003
 21
394.003
  0
LINE
  8
0
 10
45.406
 11
45.219
 20
394.003
 21
394.027
  0
LINE
  8
0
 10
45.219
 11
45.036
 20
394.027
 21
394.073
  0
LINE
  8
0
 10
45.036
 11
44.861
 20
394.073
 21
394.143
  0
LINE
  8
0
 10
44.861
 11
44.696
 20
394.143
 21
394.234
  0
LINE
  8
0
 10
44.696
 11
44.544
 20
394.234
 21
394.344
  0
LINE
  8
0
 10
44.544
 11
44.407
 20
394.344
 21
394.473
  0
LINE
  8
0
 10
44.407
 11
44.286
 20
394.473
 21
394.618
  0
LINE
  8
0
 10
44.286
 11
44.186
 20
394.618
 21
394.777
  0
LINE
  8
0
 10
44.186
 11
44.105
 20
394.777
 21
394.948
  0
LINE
  8
0
 10
44.105
 11
44.047
 20
394.948
 21
395.127
  0
LINE
  8
0
 10
44.047
 11
44.012
 20
395.127
 21
395.312
  0
LINE
  8
0
 10
44.012
 11
44
 20
395.312
 21
395.5
  0
LINE
  8
0
 10
44.003
 11
44.003
 20
359.406
 21
359.594
  0
LINE
  8
0
 10
44.003
 11
44.027
 20
359.594
 21
359.781
  0
LINE
  8
0
 10
44.027
 11
44.073
 20
359.781
 21
359.964
  0
LINE
  8
0
 10
44.073
 11
44.143
 20
359.964
 21
360.139
  0
LINE
  8
0
 10
44.143
 11
44.234
 20
360.139
 21
360.304
  0
LINE
  8
0
 10
44.234
 11
44.344
 20
360.304
 21
360.456
  0
LINE
  8
0
 10
44.344
 11
44.473
 20
360.456
 21
360.593
  0
LINE
  8
0
 10
44.473
 11
44.618
 20
360.593
 21
360.714
  0
LINE
  8
0
 10
44.618
 11
44.777
 20
360.714
 21
360.814
  0
LINE
  8
0
 10
44.777
 11
44.948
 20
360.814
 21
360.895
  0
LINE
  8
0
 10
44.948
 11
45.127
 20
360.895
 21
360.953
  0
LINE
  8
0
 10
45.127
 11
45.312
 20
360.953
 21
360.988
  0
LINE
  8
0
 10
45.312
 11
45.5
 20
360.988
 21
361
  0
LINE
  8
0
 10
45.5
 11
45.688
 20
361
 21
360.988
  0
LINE
  8
0
 10
45.688
 11
45.873
 20
360.988
 21
360.953
  0
LINE
  8
0
 10
45.873
 11
46.052
 20
360.953
 21
360.895
  0
LINE
  8
0
 10
46.052
 11
46.223
 20
360.895
 21
360.814
  0
LINE
  8
0
 10
46.223
 11
46.382
 20
360.814
 21
360.714
  0
LINE
  8
0
 10
46.382
 11
46.527
 20
360.714
 21
360.593
  0
LINE
  8
0
 10
46.527
 11
46.656
 20
360.593
 21
360.456
  0
LINE
  8
0
 10
46.656
 11
46.766
 20
360.456
 21
360.304
  0
LINE
  8
0
 10
46.766
 11
46.857
 20
360.304
 21
360.139
  0
LINE
  8
0
 10
46.857
 11
46.927
 20
360.139
 21
359.964
  0
LINE
  8
0
 10
46.927
 11
46.973
 20
359.964
 21
359.781
  0
LINE
  8
0
 10
46.973
 11
46.997
 20
359.781
 21
359.594
  0
LINE
  8
0
 10
46.997
 11
46.997
 20
359.594
 21
359.406
  0
LINE
  8
0
 10
46.997
 11
46.973
 20
359.406
 21
359.219
  0
LINE
  8
0
 10
46.973
 11
46.927
 20
359.219
 21
359.036
  0
LINE
  8
0
 10
46.927
 11
46.857
 20
359.036
 21
358.861
  0
LINE
  8
0
 10
46.857
 11
46.766
 20
358.861
 21
358.696
  0
LINE
  8
0
 10
46.766
 11
46.656
 20
358.696
 21
358.544
  0
LINE
  8
0
 10
46.656
 11
46.527
 20
358.544
 21
358.407
  0
LINE
  8
0
 10
46.527
 11
46.382
 20
358.407
 21
358.286
  0
LINE
  8
0
 10
46.382
 11
46.223
 20
358.286
 21
358.186
  0
LINE
  8
0
 10
46.223
 11
46.052
 20
358.186
 21
358.105
  0
LINE
  8
0
 10
46.052
 11
45.873
 20
358.105
 21
358.047
  0
LINE
  8
0
 10
45.873
 11
45.688
 20
358.047
 21
358.012
  0
LINE
  8
0
 10
45.688
 11
45.5
 20
358.012
 21
358
  0
LINE
  8
0
 10
45.5
 11
45.312
 20
358
 21
358.012
  0
LINE
  8
0
 10
45.312
 11
45.127
 20
358.012
 21
358.047
  0
LINE
  8
0
 10
45.127
 11
44.948
 20
358.047
 21
358.105
  0
LINE
  8
0
 10
44.948
 11
44.777
 20
358.105
 21
358.186
  0
LINE
  8
0
 10
44.777
 11
44.618
 20
358.186
 21
358.286
  0
LINE
  8
0
 10
44.618
 11
44.473
 20
358.286
 21
358.407
  0
LINE
  8
0
 10
44.473
 11
44.344
 20
358.407
 21
358.544
  0
LINE
  8
0
 10
44.344
 11
44.234
 20
358.544
 21
358.696
  0
LINE
  8
0
 10
44.234
 11
44.143
 20
358.696
 21
358.861
  0
LINE
  8
0
 10
44.143
 11
44.073
 20
358.861
 21
359.036
  0
LINE
  8
0
 10
44.073
 11
44.027
 20
359.036
 21
359.219
  0
LINE
  8
0
 10
44.027
 11
44.003
 20
359.219
 21
359.406
  0
LINE
  8
0
 10
45
 11
45
 20
82.5
 21
87.5
  0
LINE
  8
0
 10
45
 11
50
 20
87.5
 21
87.5
  0
LINE
  8
0
 10
50
 11
50
 20
87.5
 21
82.5
  0
LINE
  8
0
 10
50
 11
45
 20
82.5
 21
82.5
  0
LINE
  8
0
 10
45
 11
45
 20
205
 21
210
  0
LINE
  8
0
 10
45
 11
50
 20
210
 21
210
  0
LINE
  8
0
 10
50
 11
50
 20
210
 21
205
  0
LINE
  8
0
 10
50
 11
45
 20
205
 21
205
  0
LINE
  8
0
 10
45
 11
45
 20
220
 21
225
  0
LINE
  8
0
 10
45
 11
50
 20
225
 21
225
  0
LINE
  8
0
 10
50
 11
50
 20
225
 21
220
  0
LINE
  8
0
 10
50
 11
45
 20
220
 21
220
  0
LINE
  8
0
 10
45
 11
45
 20
347.5
 21
352.5
  0
LINE
  8
0
 10
45
 11
50
 20
352.5
 21
352.5
  0
LINE
  8
0
 10
50
 11
50
 20
352.5
 21
347.5
  0
LINE
  8
0
 10
50
 11
45
 20
347.5
 21
347.5
  0
LINE
  8
0
 10
46
 11
46.012
 20
195
 21
195.188
  0
LINE
  8
0
 10
46.012
 11
46.047
 20
195.188
 21
195.373
  0
LINE
  8
0
 10
46.047
 11
46.105
 20
195.373
 21
195.552
  0
LINE
  8
0
 10
46.105
 11
46.186
 20
195.552
 21
195.723
  0
LINE
  8
0
 10
46.186
 11
46.286
 20
195.723
 21
195.882
  0
LINE
  8
0
 10
46.286
 11
46.407
 20
195.882
 21
196.027
  0
LINE
  8
0
 10
46.407
 11
46.544
 20
196.027
 21
196.156
  0
LINE
  8
0
 10
46.544
 11
46.696
 20
196.156
 21
196.266
  0
LINE
  8
0
 10
46.696
 11
46.861
 20
196.266
 21
196.357
  0
LINE
  8
0
 10
46.861
 11
47.036
 20
196.357
 21
196.427
  0
LINE
  8
0
 10
47.036
 11
47.219
 20
196.427
 21
196.473
  0
LINE
  8
0
 10
47.219
 11
47.406
 20
196.473
 21
196.497
  0
LINE
  8
0
 10
47.406
 11
47.594
 20
196.497
 21
196.497
  0
LINE
  8
0
 10
47.594
 11
47.781
 20
196.497
 21
196.473
  0
LINE
  8
0
 10
47.781
 11
47.964
 20
196.473
 21
196.427
  0
LINE
  8
0
 10
47.964
 11
48.139
 20
196.427
 21
196.357
  0
LINE
  8
0
 10
48.139
 11
48.304
 20
196.357
 21
196.266
  0
LINE
  8
0
 10
48.304
 11
48.456
 20
196.266
 21
196.156
  0
LINE
  8
0
 10
48.456
 11
48.593
 20
196.156
 21
196.027
  0
LINE
  8
0
 10
48.593
 11
48.714
 20
196.027
 21
195.882
  0
LINE
  8
0
 10
48.714
 11
48.814
 20
195.882
 21
195.723
  0
LINE
  8
0
 10
48.814
 11
48.895
 20
195.723
 21
195.552
  0
LINE
  8
0
 10
48.895
 11
48.953
 20
195.552
 21
195.373
  0
LINE
  8
0
 10
48.953
 11
48.988
 20
195.373
 21
195.188
  0
LINE
  8
0
 10
48.988
 11
49
 20
195.188
 21
195
  0
LINE
  8
0
 10
49
 11
48.988
 20
195
 21
194.812
  0
LINE
  8
0
 10
48.988
 11
48.953
 20
194.812
 21
194.627
  0
LINE
  8
0
 10
48.953
 11
48.895
 20
194.627
 21
194.448
  0
LINE
  8
0
 10
48.895
 11
48.814
 20
194.448
 21
194.277
  0
LINE
  8
0
 10
48.814
 11
48.714
 20
194.277
 21
194.118
  0
LINE
  8
0
 10
48.714
 11
48.593
 20
194.118
 21
193.973
  0
LINE
  8
0
 10
48.593
 11
48.456
 20
193.973
 21
193.844
  0
LINE
  8
0
 10
48.456
 11
48.304
 20
193.844
 21
193.734
  0
LINE
  8
0
 10
48.304
 11
48.139
 20
193.734
 21
193.643
  0
LINE
  8
0
 10
48.139
 11
47.964
 20
193.643
 21
193.573
  0
LINE
  8
0
 10
47.964
 11
47.781
 20
193.573
 21
193.527
  0
LINE
  8
0
 10
47.781
 11
47.594
 20
193.527
 21
193.503
  0
LINE
  8
0
 10
47.594
 11
47.406
 20
193.503
 21
193.503
  0
LINE
  8
0
 10
47.406
 11
47.219
 20
193.503
 21
193.527
  0
LINE
  8
0
 10
47.219
 11
47.036
 20
193.527
 21
193.573
  0
LINE
  8
0
 10
47.036
 11
46.861
 20
193.573
 21
193.643
  0
LINE
  8
0
 10
46.861
 11
46.696
 20
193.643
 21
193.734
  0
LINE
  8
0
 10
46.696
 11
46.544
 20
193.734
 21
193.844
  0
LINE
  8
0
 10
46.544
 11
46.407
 20
193.844
 21
193.973
  0
LINE
  8
0
 10
46.407
 11
46.286
 20
193.973
 21
194.118
  0
LINE
  8
0
 10
46.286
 11
46.186
 20
194.118
 21
194.277
  0
LINE
  8
0
 10
46.186
 11
46.105
 20
194.277
 21
194.448
  0
LINE
  8
0
 10
46.105
 11
46.047
 20
194.448
 21
194.627
  0
LINE
  8
0
 10
46.047
 11
46.012
 20
194.627
 21
194.812
  0
LINE
  8
0
 10
46.012
 11
46
 20
194.812
 21
195
  0
LINE
  8
0
 10
46
 11
46.012
 20
235
 21
235.188
  0
LINE
  8
0
 10
46.012
 11
46.047
 20
235.188
 21
235.373
  0
LINE
  8
0
 10
46.047
 11
46.105
 20
235.373
 21
235.552
  0
LINE
  8
0
 10
46.105
 11
46.186
 20
235.552
 21
235.723
  0
LINE
  8
0
 10
46.186
 11
46.286
 20
235.723
 21
235.882
  0
LINE
  8
0
 10
46.286
 11
46.407
 20
235.882
 21
236.027
  0
LINE
  8
0
 10
46.407
 11
46.544
 20
236.027
 21
236.156
  0
LINE
  8
0
 10
46.544
 11
46.696
 20
236.156
 21
236.266
  0
LINE
  8
0
 10
46.696
 11
46.861
 20
236.266
 21
236.357
  0
LINE
  8
0
 10
46.861
 11
47.036
 20
236.357
 21
236.427
  0
LINE
  8
0
 10
47.036
 11
47.219
 20
236.427
 21
236.473
  0
LINE
  8
0
 10
47.219
 11
47.406
 20
236.473
 21
236.497
  0
LINE
  8
0
 10
47.406
 11
47.594
 20
236.497
 21
236.497
  0
LINE
  8
0
 10
47.594
 11
47.781
 20
236.497
 21
236.473
  0
LINE
  8
0
 10
47.781
 11
47.964
 20
236.473
 21
236.427
  0
LINE
  8
0
 10
47.964
 11
48.139
 20
236.427
 21
236.357
  0
LINE
  8
0
 10
48.139
 11
48.304
 20
236.357
 21
236.266
  0
LINE
  8
0
 10
48.304
 11
48.456
 20
236.266
 21
236.156
  0
LINE
  8
0
 10
48.456
 11
48.593
 20
236.156
 21
236.027
  0
LINE
  8
0
 10
48.593
 11
48.714
 20
236.027
 21
235.882
  0
LINE
  8
0
 10
48.714
 11
48.814
 20
235.882
 21
235.723
  0
LINE
  8
0
 10
48.814
 11
48.895
 20
235.723
 21
235.552
  0
LINE
  8
0
 10
48.895
 11
48.953
 20
235.552
 21
235.373
  0
LINE
  8
0
 10
48.953
 11
48.988
 20
235.373
 21
235.188
  0
LINE
  8
0
 10
48.988
 11
49
 20
235.188
 21
235
  0
LINE
  8
0
 10
49
 11
48.988
 20
235
 21
234.812
  0
LINE
  8
0
 10
48.988
 11
48.953
 20
234.812
 21
234.627
  0
LINE
  8
0
 10
48.953
 11
48.895
 20
234.627
 21
234.448
  0
LINE
  8
0
 10
48.895
 11
48.814
 20
234.448
 21
234.277
  0
LINE
  8
0
 10
48.814
 11
48.714
 20
234.277
 21
234.118
  0
LINE
  8
0
 10
48.714
 11
48.593
 20
234.118
 21
233.973
  0
LINE
  8
0
 10
48.593
 11
48.456
 20
233.973
 21
233.844
  0
LINE
  8
0
 10
48.456
 11
48.304
 20
233.844
 21
233.734
  0
LINE
  8
0
 10
48.304
 11
48.139
 20
233.734
 21
233.643
  0
LINE
  8
0
 10
48.139
 11
47.964
 20
233.643
 21
233.573
  0
LINE
  8
0
 10
47.964
 11
47.781
 20
233.573
 21
233.527
  0
LINE
  8
0
 10
47.781
 11
47.594
 20
233.527
 21
233.503
  0
LINE
  8
0
 10
47.594
 11
47.406
 20
233.503
 21
233.503
  0
LINE
  8
0
 10
47.406
 11
47.219
 20
233.503
 21
233.527
  0
LINE
  8
0
 10
47.219
 11
47.036
 20
233.527
 21
233.573
  0
LINE
  8
0
 10
47.036
 11
46.861
 20
233.573
 21
233.643
  0
LINE
  8
0
 10
46.861
 11
46.696
 20
233.643
 21
233.734
  0
LINE
  8
0
 10
46.696
 11
46.544
 20
233.734
 21
233.844
  0
LINE
  8
0
 10
46.544
 11
46.407
 20
233.844
 21
233.973
  0
LINE
  8
0
 10
46.407
 11
46.286
 20
233.973
 21
234.118
  0
LINE
  8
0
 10
46.286
 11
46.186
 20
234.118
 21
234.277
  0
LINE
  8
0
 10
46.186
 11
46.105
 20
234.277
 21
234.448
  0
LINE
  8
0
 10
46.105
 11
46.047
 20
234.448
 21
234.627
  0
LINE
  8
0
 10
46.047
 11
46.012
 20
234.627
 21
234.812
  0
LINE
  8
0
 10
46.012
 11
46
 20
234.812
 21
235
  0
LINE
  8
0
 10
49.5
 11
49.512
 20
76
 21
76.188
  0
LINE
  8
0
 10
49.512
 11
49.547
 20
76.188
 21
76.373
  0
LINE
  8
0
 10
49.547
 11
49.605
 20
76.373
 21
76.552
  0
LINE
  8
0
 10
49.605
 11
49.686
 20
76.552
 21
76.723
  0
LINE
  8
0
 10
49.686
 11
49.786
 20
76.723
 21
76.882
  0
LINE
  8
0
 10
49.786
 11
49.907
 20
76.882
 21
77.027
  0
LINE
  8
0
 10
49.907
 11
50.044
 20
77.027
 21
77.156
  0
LINE
  8
0
 10
50.044
 11
50.196
 20
77.156
 21
77.266
  0
LINE
  8
0
 10
50.196
 11
50.361
 20
77.266
 21
77.357
  0
LINE
  8
0
 10
50.361
 11
50.536
 20
77.357
 21
77.427
  0
LINE
  8
0
 10
50.536
 11
50.719
 20
77.427
 21
77.473
  0
LINE
  8
0
 10
50.719
 11
50.906
 20
77.473
 21
77.497
  0
LINE
  8
0
 10
50.906
 11
51.094
 20
77.497
 21
77.497
  0
LINE
  8
0
 10
51.094
 11
51.281
 20
77.497
 21
77.473
  0
LINE
  8
0
 10
51.281
 11
51.464
 20
77.473
 21
77.427
  0
LINE
  8
0
 10
51.464
 11
51.639
 20
77.427
 21
77.357
  0
LINE
  8
0
 10
51.639
 11
51.804
 20
77.357
 21
77.266
  0
LINE
  8
0
 10
51.804
 11
51.956
 20
77.266
 21
77.156
  0
LINE
  8
0
 10
51.956
 11
52.093
 20
77.156
 21
77.027
  0
LINE
  8
0
 10
52.093
 11
52.214
 20
77.027
 21
76.882
  0
LINE
  8
0
 10
52.214
 11
52.314
 20
76.882
 21
76.723
  0
LINE
  8
0
 10
52.314
 11
52.395
 20
76.723
 21
76.552
  0
LINE
  8
0
 10
52.395
 11
52.453
 20
76.552
 21
76.373
  0
LINE
  8
0
 10
52.453
 11
52.488
 20
76.373
 21
76.188
  0
LINE
  8
0
 10
52.488
 11
52.5
 20
76.188
 21
76
  0
LINE
  8
0
 10
52.5
 11
52.488
 20
76
 21
75.812
  0
LINE
  8
0
 10
52.488
 11
52.453
 20
75.812
 21
75.627
  0
LINE
  8
0
 10
52.453
 11
52.395
 20
75.627
 21
75.448
  0
LINE
  8
0
 10
52.395
 11
52.314
 20
75.448
 21
75.277
  0
LINE
  8
0
 10
52.314
 11
52.214
 20
75.277
 21
75.118
  0
LINE
  8
0
 10
52.214
 11
52.093
 20
75.118
 21
74.973
  0
LINE
  8
0
 10
52.093
 11
51.956
 20
74.973
 21
74.844
  0
LINE
  8
0
 10
51.956
 11
51.804
 20
74.844
 21
74.734
  0
LINE
  8
0
 10
51.804
 11
51.639
 20
74.734
 21
74.643
  0
LINE
  8
0
 10
51.639
 11
51.464
 20
74.643
 21
74.573
  0
LINE
  8
0
 10
51.464
 11
51.281
 20
74.573
 21
74.527
  0
LINE
  8
0
 10
51.281
 11
51.094
 20
74.527
 21
74.503
  0
LINE
  8
0
 10
51.094
 11
50.906
 20
74.503
 21
74.503
  0
LINE
  8
0
 10
50.906
 11
50.719
 20
74.503
 21
74.527
  0
LINE
  8
0
 10
50.719
 11
50.536
 20
74.527
 21
74.573
  0
LINE
  8
0
 10
50.536
 11
50.361
 20
74.573
 21
74.643
  0
LINE
  8
0
 10
50.361
 11
50.196
 20
74.643
 21
74.734
  0
LINE
  8
0
 10
50.196
 11
50.044
 20
74.734
 21
74.844
  0
LINE
  8
0
 10
50.044
 11
49.907
 20
74.844
 21
74.973
  0
LINE
  8
0
 10
49.907
 11
49.786
 20
74.973
 21
75.118
  0
LINE
  8
0
 10
49.786
 11
49.686
 20
75.118
 21
75.277
  0
LINE
  8
0
 10
49.686
 11
49.605
 20
75.277
 21
75.448
  0
LINE
  8
0
 10
49.605
 11
49.547
 20
75.448
 21
75.627
  0
LINE
  8
0
 10
49.547
 11
49.512
 20
75.627
 21
75.812
  0
LINE
  8
0
 10
49.512
 11
49.5
 20
75.812
 21
76
  0
LINE
  8
0
 10
49.503
 11
49.503
 20
28.906
 21
29.094
  0
LINE
  8
0
 10
49.503
 11
49.527
 20
29.094
 21
29.281
  0
LINE
  8
0
 10
49.527
 11
49.573
 20
29.281
 21
29.464
  0
LINE
  8
0
 10
49.573
 11
49.643
 20
29.464
 21
29.639
  0
LINE
  8
0
 10
49.643
 11
49.734
 20
29.639
 21
29.804
  0
LINE
  8
0
 10
49.734
 11
49.844
 20
29.804
 21
29.956
  0
LINE
  8
0
 10
49.844
 11
49.973
 20
29.956
 21
30.093
  0
LINE
  8
0
 10
49.973
 11
50.118
 20
30.093
 21
30.214
  0
LINE
  8
0
 10
50.118
 11
50.277
 20
30.214
 21
30.314
  0
LINE
  8
0
 10
50.277
 11
50.448
 20
30.314
 21
30.395
  0
LINE
  8
0
 10
50.448
 11
50.627
 20
30.395
 21
30.453
  0
LINE
  8
0
 10
50.627
 11
50.812
 20
30.453
 21
30.488
  0
LINE
  8
0
 10
50.812
 11
51
 20
30.488
 21
30.5
  0
LINE
  8
0
 10
51
 11
51.188
 20
30.5
 21
30.488
  0
LINE
  8
0
 10
51.188
 11
51.373
 20
30.488
 21
30.453
  0
LINE
  8
0
 10
51.373
 11
51.552
 20
30.453
 21
30.395
  0
LINE
  8
0
 10
51.552
 11
51.723
 20
30.395
 21
30.314
  0
LINE
  8
0
 10
51.723
 11
51.882
 20
30.314
 21
30.214
  0
LINE
  8
0
 10
51.882
 11
52.027
 20
30.214
 21
30.093
  0
LINE
  8
0
 10
52.027
 11
52.156
 20
30.093
 21
29.956
  0
LINE
  8
0
 10
52.156
 11
52.266
 20
29.956
 21
29.804
  0
LINE
  8
0
 10
52.266
 11
52.357
 20
29.804
 21
29.639
  0
LINE
  8
0
 10
52.357
 11
52.427
 20
29.639
 21
29.464
  0
LINE
  8
0
 10
52.427
 11
52.473
 20
29.464
 21
29.281
  0
LINE
  8
0
 10
52.473
 11
52.497
 20
29.281
 21
29.094
  0
LINE
  8
0
 10
52.497
 11
52.497
 20
29.094
 21
28.906
  0
LINE
  8
0
 10
52.497
 11
52.473
 20
28.906
 21
28.719
  0
LINE
  8
0
 10
52.473
 11
52.427
 20
28.719
 21
28.536
  0
LINE
  8
0
 10
52.427
 11
52.357
 20
28.536
 21
28.361
  0
LINE
  8
0
 10
52.357
 11
52.266
 20
28.361
 21
28.196
  0
LINE
  8
0
 10
52.266
 11
52.156
 20
28.196
 21
28.044
  0
LINE
  8
0
 10
52.156
 11
52.027
 20
28.044
 21
27.907
  0
LINE
  8
0
 10
52.027
 11
51.882
 20
27.907
 21
27.786
  0
LINE
  8
0
 10
51.882
 11
51.723
 20
27.786
 21
27.686
  0
LINE
  8
0
 10
51.723
 11
51.552
 20
27.686
 21
27.605
  0
LINE
  8
0
 10
51.552
 11
51.373
 20
27.605
 21
27.547
  0
LINE
  8
0
 10
51.373
 11
51.188
 20
27.547
 21
27.512
  0
LINE
  8
0
 10
51.188
 11
51
 20
27.512
 21
27.5
  0
LINE
  8
0
 10
51
 11
50.812
 20
27.5
 21
27.512
  0
LINE
  8
0
 10
50.812
 11
50.627
 20
27.512
 21
27.547
  0
LINE
  8
0
 10
50.627
 11
50.448
 20
27.547
 21
27.605
  0
LINE
  8
0
 10
50.448
 11
50.277
 20
27.605
 21
27.686
  0
LINE
  8
0
 10
50.277
 11
50.118
 20
27.686
 21
27.786
  0
LINE
  8
0
 10
50.118
 11
49.973
 20
27.786
 21
27.907
  0
LINE
  8
0
 10
49.973
 11
49.844
 20
27.907
 21
28.044
  0
LINE
  8
0
 10
49.844
 11
49.734
 20
28.044
 21
28.196
  0
LINE
  8
0
 10
49.734
 11
49.643
 20
28.196
 21
28.361
  0
LINE
  8
0
 10
49.643
 11
49.573
 20
28.361
 21
28.536
  0
LINE
  8
0
 10
49.573
 11
49.527
 20
28.536
 21
28.719
  0
LINE
  8
0
 10
49.527
 11
49.503
 20
28.719
 21
28.906
  0
ENDSEC
  0
SECTION
  2
OBJECTS
  0
DICTIONARY
  0
ENDSEC
  0
EOF
