  0
SECTION
  2
BLOCKS
  0
ENDSEC
  0
SECTION
  2
ENTITIES
  0
LINE
  8
0
 10
-14
 11
-13.988
 20
16.5
 21
16.688
  0
LINE
  8
0
 10
-13.988
 11
-13.953
 20
16.688
 21
16.873
  0
LINE
  8
0
 10
-13.953
 11
-13.895
 20
16.873
 21
17.052
  0
LINE
  8
0
 10
-13.895
 11
-13.814
 20
17.052
 21
17.223
  0
LINE
  8
0
 10
-13.814
 11
-13.714
 20
17.223
 21
17.382
  0
LINE
  8
0
 10
-13.714
 11
-13.593
 20
17.382
 21
17.527
  0
LINE
  8
0
 10
-13.593
 11
-13.456
 20
17.527
 21
17.656
  0
LINE
  8
0
 10
-13.456
 11
-13.304
 20
17.656
 21
17.766
  0
LINE
  8
0
 10
-13.304
 11
-13.139
 20
17.766
 21
17.857
  0
LINE
  8
0
 10
-13.139
 11
-12.964
 20
17.857
 21
17.927
  0
LINE
  8
0
 10
-12.964
 11
-12.781
 20
17.927
 21
17.973
  0
LINE
  8
0
 10
-12.781
 11
-12.594
 20
17.973
 21
17.997
  0
LINE
  8
0
 10
-12.594
 11
-12.406
 20
17.997
 21
17.997
  0
LINE
  8
0
 10
-12.406
 11
-12.219
 20
17.997
 21
17.973
  0
LINE
  8
0
 10
-12.219
 11
-12.036
 20
17.973
 21
17.927
  0
LINE
  8
0
 10
-12.036
 11
-11.861
 20
17.927
 21
17.857
  0
LINE
  8
0
 10
-11.861
 11
-11.696
 20
17.857
 21
17.766
  0
LINE
  8
0
 10
-11.696
 11
-11.544
 20
17.766
 21
17.656
  0
LINE
  8
0
 10
-11.544
 11
-11.407
 20
17.656
 21
17.527
  0
LINE
  8
0
 10
-11.407
 11
-11.286
 20
17.527
 21
17.382
  0
LINE
  8
0
 10
-11.286
 11
-11.186
 20
17.382
 21
17.223
  0
LINE
  8
0
 10
-11.186
 11
-11.105
 20
17.223
 21
17.052
  0
LINE
  8
0
 10
-11.105
 11
-11.047
 20
17.052
 21
16.873
  0
LINE
  8
0
 10
-11.047
 11
-11.012
 20
16.873
 21
16.688
  0
LINE
  8
0
 10
-11.012
 11
-11
 20
16.688
 21
16.5
  0
LINE
  8
0
 10
-11
 11
-11.012
 20
16.5
 21
16.312
  0
LINE
  8
0
 10
-11.012
 11
-11.047
 20
16.312
 21
16.127
  0
LINE
  8
0
 10
-11.047
 11
-11.105
 20
16.127
 21
15.948
  0
LINE
  8
0
 10
-11.105
 11
-11.186
 20
15.948
 21
15.777
  0
LINE
  8
0
 10
-11.186
 11
-11.286
 20
15.777
 21
15.618
  0
LINE
  8
0
 10
-11.286
 11
-11.407
 20
15.618
 21
15.473
  0
LINE
  8
0
 10
-11.407
 11
-11.544
 20
15.473
 21
15.344
  0
LINE
  8
0
 10
-11.544
 11
-11.696
 20
15.344
 21
15.234
  0
LINE
  8
0
 10
-11.696
 11
-11.861
 20
15.234
 21
15.143
  0
LINE
  8
0
 10
-11.861
 11
-12.036
 20
15.143
 21
15.073
  0
LINE
  8
0
 10
-12.036
 11
-12.219
 20
15.073
 21
15.027
  0
LINE
  8
0
 10
-12.219
 11
-12.406
 20
15.027
 21
15.003
  0
LINE
  8
0
 10
-12.406
 11
-12.594
 20
15.003
 21
15.003
  0
LINE
  8
0
 10
-12.594
 11
-12.781
 20
15.003
 21
15.027
  0
LINE
  8
0
 10
-12.781
 11
-12.964
 20
15.027
 21
15.073
  0
LINE
  8
0
 10
-12.964
 11
-13.139
 20
15.073
 21
15.143
  0
LINE
  8
0
 10
-13.139
 11
-13.304
 20
15.143
 21
15.234
  0
LINE
  8
0
 10
-13.304
 11
-13.456
 20
15.234
 21
15.344
  0
LINE
  8
0
 10
-13.456
 11
-13.593
 20
15.344
 21
15.473
  0
LINE
  8
0
 10
-13.593
 11
-13.714
 20
15.473
 21
15.618
  0
LINE
  8
0
 10
-13.714
 11
-13.814
 20
15.618
 21
15.777
  0
LINE
  8
0
 10
-13.814
 11
-13.895
 20
15.777
 21
15.948
  0
LINE
  8
0
 10
-13.895
 11
-13.953
 20
15.948
 21
16.127
  0
LINE
  8
0
 10
-13.953
 11
-13.988
 20
16.127
 21
16.312
  0
LINE
  8
0
 10
-13.988
 11
-14
 20
16.312
 21
16.5
  0
LINE
  8
0
 10
-17
 11
-17
 20
12.5
 21
29.5
  0
LINE
  8
0
 10
-17
 11
17
 20
29.5
 21
29.5
  0
LINE
  8
0
 10
17
 11
17
 20
29.5
 21
12.5
  0
LINE
  8
0
 10
17
 11
10
 20
12.5
 21
12.5
  0
LINE
  8
0
 10
10
 11
10
 20
12.5
 21
10
  0
LINE
  8
0
 10
10
 11
15
 20
10
 21
10
  0
LINE
  8
0
 10
15
 11
15
 20
10
 21
5
  0
LINE
  8
0
 10
15
 11
10
 20
5
 21
5
  0
LINE
  8
0
 10
10
 11
10
 20
5
 21
2.5
  0
LINE
  8
0
 10
10
 11
15
 20
2.5
 21
2.5
  0
LINE
  8
0
 10
15
 11
15
 20
2.5
 21
-2.5
  0
LINE
  8
0
 10
15
 11
10
 20
-2.5
 21
-2.5
  0
LINE
  8
0
 10
10
 11
10
 20
-2.5
 21
-5
  0
LINE
  8
0
 10
10
 11
15
 20
-5
 21
-5
  0
LINE
  8
0
 10
15
 11
15
 20
-5
 21
-10
  0
LINE
  8
0
 10
15
 11
-15
 20
-10
 21
-10
  0
LINE
  8
0
 10
-15
 11
-15
 20
-10
 21
-5
  0
LINE
  8
0
 10
-15
 11
-10
 20
-5
 21
-5
  0
LINE
  8
0
 10
-10
 11
-10
 20
-5
 21
-2.5
  0
LINE
  8
0
 10
-10
 11
-15
 20
-2.5
 21
-2.5
  0
LINE
  8
0
 10
-15
 11
-15
 20
-2.5
 21
2.5
  0
LINE
  8
0
 10
-15
 11
-10
 20
2.5
 21
2.5
  0
LINE
  8
0
 10
-10
 11
-10
 20
2.5
 21
5
  0
LINE
  8
0
 10
-10
 11
-15
 20
5
 21
5
  0
LINE
  8
0
 10
-15
 11
-15
 20
5
 21
10
  0
LINE
  8
0
 10
-15
 11
-10
 20
10
 21
10
  0
LINE
  8
0
 10
-10
 11
-10
 20
10
 21
12.5
  0
LINE
  8
0
 10
-10
 11
-17
 20
12.5
 21
12.5
  0
LINE
  8
0
 10
-4.4
 11
-4.365
 20
17.5
 21
18.051
  0
LINE
  8
0
 10
-4.365
 11
-4.262
 20
18.051
 21
18.594
  0
LINE
  8
0
 10
-4.262
 11
-4.091
 20
18.594
 21
19.12
  0
LINE
  8
0
 10
-4.091
 11
-3.856
 20
19.12
 21
19.62
  0
LINE
  8
0
 10
-3.856
 11
-3.56
 20
19.62
 21
20.086
  0
LINE
  8
0
 10
-3.56
 11
-3.207
 20
20.086
 21
20.512
  0
LINE
  8
0
 10
-3.207
 11
-2.805
 20
20.512
 21
20.89
  0
LINE
  8
0
 10
-2.805
 11
-2.358
 20
20.89
 21
21.215
  0
LINE
  8
0
 10
-2.358
 11
-1.873
 20
21.215
 21
21.481
  0
LINE
  8
0
 10
-1.873
 11
-1.36
 20
21.481
 21
21.685
  0
LINE
  8
0
 10
-1.36
 11
-0.824
 20
21.685
 21
21.822
  0
LINE
  8
0
 10
-0.824
 11
-0.276
 20
21.822
 21
21.891
  0
LINE
  8
0
 10
-0.276
 11
0.276
 20
21.891
 21
21.891
  0
LINE
  8
0
 10
0.276
 11
0.824
 20
21.891
 21
21.822
  0
LINE
  8
0
 10
0.824
 11
1.36
 20
21.822
 21
21.685
  0
LINE
  8
0
 10
1.36
 11
1.873
 20
21.685
 21
21.481
  0
LINE
  8
0
 10
1.873
 11
2.358
 20
21.481
 21
21.215
  0
LINE
  8
0
 10
2.358
 11
2.805
 20
21.215
 21
20.89
  0
LINE
  8
0
 10
2.805
 11
3.207
 20
20.89
 21
20.512
  0
LINE
  8
0
 10
3.207
 11
3.56
 20
20.512
 21
20.086
  0
LINE
  8
0
 10
3.56
 11
3.856
 20
20.086
 21
19.62
  0
LINE
  8
0
 10
3.856
 11
4.091
 20
19.62
 21
19.12
  0
LINE
  8
0
 10
4.091
 11
4.262
 20
19.12
 21
18.594
  0
LINE
  8
0
 10
4.262
 11
4.365
 20
18.594
 21
18.051
  0
LINE
  8
0
 10
4.365
 11
4.4
 20
18.051
 21
17.5
  0
LINE
  8
0
 10
4.4
 11
4.365
 20
17.5
 21
16.949
  0
LINE
  8
0
 10
4.365
 11
4.262
 20
16.949
 21
16.406
  0
LINE
  8
0
 10
4.262
 11
4.091
 20
16.406
 21
15.88
  0
LINE
  8
0
 10
4.091
 11
3.856
 20
15.88
 21
15.38
  0
LINE
  8
0
 10
3.856
 11
3.56
 20
15.38
 21
14.914
  0
LINE
  8
0
 10
3.56
 11
3.207
 20
14.914
 21
14.488
  0
LINE
  8
0
 10
3.207
 11
2.805
 20
14.488
 21
14.11
  0
LINE
  8
0
 10
2.805
 11
2.358
 20
14.11
 21
13.785
  0
LINE
  8
0
 10
2.358
 11
1.873
 20
13.785
 21
13.519
  0
LINE
  8
0
 10
1.873
 11
1.36
 20
13.519
 21
13.315
  0
LINE
  8
0
 10
1.36
 11
0.824
 20
13.315
 21
13.178
  0
LINE
  8
0
 10
0.824
 11
0.276
 20
13.178
 21
13.109
  0
LINE
  8
0
 10
0.276
 11
-0.276
 20
13.109
 21
13.109
  0
LINE
  8
0
 10
-0.276
 11
-0.824
 20
13.109
 21
13.178
  0
LINE
  8
0
 10
-0.824
 11
-1.36
 20
13.178
 21
13.315
  0
LINE
  8
0
 10
-1.36
 11
-1.873
 20
13.315
 21
13.519
  0
LINE
  8
0
 10
-1.873
 11
-2.358
 20
13.519
 21
13.785
  0
LINE
  8
0
 10
-2.358
 11
-2.805
 20
13.785
 21
14.11
  0
LINE
  8
0
 10
-2.805
 11
-3.207
 20
14.11
 21
14.488
  0
LINE
  8
0
 10
-3.207
 11
-3.56
 20
14.488
 21
14.914
  0
LINE
  8
0
 10
-3.56
 11
-3.856
 20
14.914
 21
15.38
  0
LINE
  8
0
 10
-3.856
 11
-4.091
 20
15.38
 21
15.88
  0
LINE
  8
0
 10
-4.091
 11
-4.262
 20
15.88
 21
16.406
  0
LINE
  8
0
 10
-4.262
 11
-4.365
 20
16.406
 21
16.949
  0
LINE
  8
0
 10
-4.365
 11
-4.4
 20
16.949
 21
17.5
  0
LINE
  8
0
 10
-4.2
 11
-4.167
 20
0
 21
0.526
  0
LINE
  8
0
 10
-4.167
 11
-4.068
 20
0.526
 21
1.044
  0
LINE
  8
0
 10
-4.068
 11
-3.905
 20
1.044
 21
1.546
  0
LINE
  8
0
 10
-3.905
 11
-3.68
 20
1.546
 21
2.023
  0
LINE
  8
0
 10
-3.68
 11
-3.398
 20
2.023
 21
2.469
  0
LINE
  8
0
 10
-3.398
 11
-3.062
 20
2.469
 21
2.875
  0
LINE
  8
0
 10
-3.062
 11
-2.677
 20
2.875
 21
3.236
  0
LINE
  8
0
 10
-2.677
 11
-2.25
 20
3.236
 21
3.546
  0
LINE
  8
0
 10
-2.25
 11
-1.788
 20
3.546
 21
3.8
  0
LINE
  8
0
 10
-1.788
 11
-1.298
 20
3.8
 21
3.994
  0
LINE
  8
0
 10
-1.298
 11
-0.787
 20
3.994
 21
4.126
  0
LINE
  8
0
 10
-0.787
 11
-0.264
 20
4.126
 21
4.192
  0
LINE
  8
0
 10
-0.264
 11
0.264
 20
4.192
 21
4.192
  0
LINE
  8
0
 10
0.264
 11
0.787
 20
4.192
 21
4.126
  0
LINE
  8
0
 10
0.787
 11
1.298
 20
4.126
 21
3.994
  0
LINE
  8
0
 10
1.298
 11
1.788
 20
3.994
 21
3.8
  0
LINE
  8
0
 10
1.788
 11
2.25
 20
3.8
 21
3.546
  0
LINE
  8
0
 10
2.25
 11
2.677
 20
3.546
 21
3.236
  0
LINE
  8
0
 10
2.677
 11
3.062
 20
3.236
 21
2.875
  0
LINE
  8
0
 10
3.062
 11
3.398
 20
2.875
 21
2.469
  0
LINE
  8
0
 10
3.398
 11
3.68
 20
2.469
 21
2.023
  0
LINE
  8
0
 10
3.68
 11
3.905
 20
2.023
 21
1.546
  0
LINE
  8
0
 10
3.905
 11
4.068
 20
1.546
 21
1.044
  0
LINE
  8
0
 10
4.068
 11
4.167
 20
1.044
 21
0.526
  0
LINE
  8
0
 10
4.167
 11
4.2
 20
0.526
 21
0
  0
LINE
  8
0
 10
4.2
 11
4.167
 20
0
 21
-0.526
  0
LINE
  8
0
 10
4.167
 11
4.068
 20
-0.526
 21
-1.044
  0
LINE
  8
0
 10
4.068
 11
3.905
 20
-1.044
 21
-1.546
  0
LINE
  8
0
 10
3.905
 11
3.68
 20
-1.546
 21
-2.023
  0
LINE
  8
0
 10
3.68
 11
3.398
 20
-2.023
 21
-2.469
  0
LINE
  8
0
 10
3.398
 11
3.062
 20
-2.469
 21
-2.875
  0
LINE
  8
0
 10
3.062
 11
2.677
 20
-2.875
 21
-3.236
  0
LINE
  8
0
 10
2.677
 11
2.25
 20
-3.236
 21
-3.546
  0
LINE
  8
0
 10
2.25
 11
1.788
 20
-3.546
 21
-3.8
  0
LINE
  8
0
 10
1.788
 11
1.298
 20
-3.8
 21
-3.994
  0
LINE
  8
0
 10
1.298
 11
0.787
 20
-3.994
 21
-4.126
  0
LINE
  8
0
 10
0.787
 11
0.264
 20
-4.126
 21
-4.192
  0
LINE
  8
0
 10
0.264
 11
-0.264
 20
-4.192
 21
-4.192
  0
LINE
  8
0
 10
-0.264
 11
-0.787
 20
-4.192
 21
-4.126
  0
LINE
  8
0
 10
-0.787
 11
-1.298
 20
-4.126
 21
-3.994
  0
LINE
  8
0
 10
-1.298
 11
-1.788
 20
-3.994
 21
-3.8
  0
LINE
  8
0
 10
-1.788
 11
-2.25
 20
-3.8
 21
-3.546
  0
LINE
  8
0
 10
-2.25
 11
-2.677
 20
-3.546
 21
-3.236
  0
LINE
  8
0
 10
-2.677
 11
-3.062
 20
-3.236
 21
-2.875
  0
LINE
  8
0
 10
-3.062
 11
-3.398
 20
-2.875
 21
-2.469
  0
LINE
  8
0
 10
-3.398
 11
-3.68
 20
-2.469
 21
-2.023
  0
LINE
  8
0
 10
-3.68
 11
-3.905
 20
-2.023
 21
-1.546
  0
LINE
  8
0
 10
-3.905
 11
-4.068
 20
-1.546
 21
-1.044
  0
LINE
  8
0
 10
-4.068
 11
-4.167
 20
-1.044
 21
-0.526
  0
LINE
  8
0
 10
-4.167
 11
-4.2
 20
-0.526
 21
0
  0
LINE
  8
0
 10
-1.5
 11
-1.488
 20
26
 21
26.188
  0
LINE
  8
0
 10
-1.488
 11
-1.453
 20
26.188
 21
26.373
  0
LINE
  8
0
 10
-1.453
 11
-1.395
 20
26.373
 21
26.552
  0
LINE
  8
0
 10
-1.395
 11
-1.314
 20
26.552
 21
26.723
  0
LINE
  8
0
 10
-1.314
 11
-1.214
 20
26.723
 21
26.882
  0
LINE
  8
0
 10
-1.214
 11
-1.093
 20
26.882
 21
27.027
  0
LINE
  8
0
 10
-1.093
 11
-0.956
 20
27.027
 21
27.156
  0
LINE
  8
0
 10
-0.956
 11
-0.804
 20
27.156
 21
27.266
  0
LINE
  8
0
 10
-0.804
 11
-0.639
 20
27.266
 21
27.357
  0
LINE
  8
0
 10
-0.639
 11
-0.464
 20
27.357
 21
27.427
  0
LINE
  8
0
 10
-0.464
 11
-0.281
 20
27.427
 21
27.473
  0
LINE
  8
0
 10
-0.281
 11
-0.094
 20
27.473
 21
27.497
  0
LINE
  8
0
 10
-0.094
 11
0.094
 20
27.497
 21
27.497
  0
LINE
  8
0
 10
0.094
 11
0.281
 20
27.497
 21
27.473
  0
LINE
  8
0
 10
0.281
 11
0.464
 20
27.473
 21
27.427
  0
LINE
  8
0
 10
0.464
 11
0.639
 20
27.427
 21
27.357
  0
LINE
  8
0
 10
0.639
 11
0.804
 20
27.357
 21
27.266
  0
LINE
  8
0
 10
0.804
 11
0.956
 20
27.266
 21
27.156
  0
LINE
  8
0
 10
0.956
 11
1.093
 20
27.156
 21
27.027
  0
LINE
  8
0
 10
1.093
 11
1.214
 20
27.027
 21
26.882
  0
LINE
  8
0
 10
1.214
 11
1.314
 20
26.882
 21
26.723
  0
LINE
  8
0
 10
1.314
 11
1.395
 20
26.723
 21
26.552
  0
LINE
  8
0
 10
1.395
 11
1.453
 20
26.552
 21
26.373
  0
LINE
  8
0
 10
1.453
 11
1.488
 20
26.373
 21
26.188
  0
LINE
  8
0
 10
1.488
 11
1.5
 20
26.188
 21
26
  0
LINE
  8
0
 10
1.5
 11
1.488
 20
26
 21
25.812
  0
LINE
  8
0
 10
1.488
 11
1.453
 20
25.812
 21
25.627
  0
LINE
  8
0
 10
1.453
 11
1.395
 20
25.627
 21
25.448
  0
LINE
  8
0
 10
1.395
 11
1.314
 20
25.448
 21
25.277
  0
LINE
  8
0
 10
1.314
 11
1.214
 20
25.277
 21
25.118
  0
LINE
  8
0
 10
1.214
 11
1.093
 20
25.118
 21
24.973
  0
LINE
  8
0
 10
1.093
 11
0.956
 20
24.973
 21
24.844
  0
LINE
  8
0
 10
0.956
 11
0.804
 20
24.844
 21
24.734
  0
LINE
  8
0
 10
0.804
 11
0.639
 20
24.734
 21
24.643
  0
LINE
  8
0
 10
0.639
 11
0.464
 20
24.643
 21
24.573
  0
LINE
  8
0
 10
0.464
 11
0.281
 20
24.573
 21
24.527
  0
LINE
  8
0
 10
0.281
 11
0.094
 20
24.527
 21
24.503
  0
LINE
  8
0
 10
0.094
 11
-0.094
 20
24.503
 21
24.503
  0
LINE
  8
0
 10
-0.094
 11
-0.281
 20
24.503
 21
24.527
  0
LINE
  8
0
 10
-0.281
 11
-0.464
 20
24.527
 21
24.573
  0
LINE
  8
0
 10
-0.464
 11
-0.639
 20
24.573
 21
24.643
  0
LINE
  8
0
 10
-0.639
 11
-0.804
 20
24.643
 21
24.734
  0
LINE
  8
0
 10
-0.804
 11
-0.956
 20
24.734
 21
24.844
  0
LINE
  8
0
 10
-0.956
 11
-1.093
 20
24.844
 21
24.973
  0
LINE
  8
0
 10
-1.093
 11
-1.214
 20
24.973
 21
25.118
  0
LINE
  8
0
 10
-1.214
 11
-1.314
 20
25.118
 21
25.277
  0
LINE
  8
0
 10
-1.314
 11
-1.395
 20
25.277
 21
25.448
  0
LINE
  8
0
 10
-1.395
 11
-1.453
 20
25.448
 21
25.627
  0
LINE
  8
0
 10
-1.453
 11
-1.488
 20
25.627
 21
25.812
  0
LINE
  8
0
 10
-1.488
 11
-1.5
 20
25.812
 21
26
  0
LINE
  8
0
 10
11
 11
11.012
 20
16.5
 21
16.688
  0
LINE
  8
0
 10
11.012
 11
11.047
 20
16.688
 21
16.873
  0
LINE
  8
0
 10
11.047
 11
11.105
 20
16.873
 21
17.052
  0
LINE
  8
0
 10
11.105
 11
11.186
 20
17.052
 21
17.223
  0
LINE
  8
0
 10
11.186
 11
11.286
 20
17.223
 21
17.382
  0
LINE
  8
0
 10
11.286
 11
11.407
 20
17.382
 21
17.527
  0
LINE
  8
0
 10
11.407
 11
11.544
 20
17.527
 21
17.656
  0
LINE
  8
0
 10
11.544
 11
11.696
 20
17.656
 21
17.766
  0
LINE
  8
0
 10
11.696
 11
11.861
 20
17.766
 21
17.857
  0
LINE
  8
0
 10
11.861
 11
12.036
 20
17.857
 21
17.927
  0
LINE
  8
0
 10
12.036
 11
12.219
 20
17.927
 21
17.973
  0
LINE
  8
0
 10
12.219
 11
12.406
 20
17.973
 21
17.997
  0
LINE
  8
0
 10
12.406
 11
12.594
 20
17.997
 21
17.997
  0
LINE
  8
0
 10
12.594
 11
12.781
 20
17.997
 21
17.973
  0
LINE
  8
0
 10
12.781
 11
12.964
 20
17.973
 21
17.927
  0
LINE
  8
0
 10
12.964
 11
13.139
 20
17.927
 21
17.857
  0
LINE
  8
0
 10
13.139
 11
13.304
 20
17.857
 21
17.766
  0
LINE
  8
0
 10
13.304
 11
13.456
 20
17.766
 21
17.656
  0
LINE
  8
0
 10
13.456
 11
13.593
 20
17.656
 21
17.527
  0
LINE
  8
0
 10
13.593
 11
13.714
 20
17.527
 21
17.382
  0
LINE
  8
0
 10
13.714
 11
13.814
 20
17.382
 21
17.223
  0
LINE
  8
0
 10
13.814
 11
13.895
 20
17.223
 21
17.052
  0
LINE
  8
0
 10
13.895
 11
13.953
 20
17.052
 21
16.873
  0
LINE
  8
0
 10
13.953
 11
13.988
 20
16.873
 21
16.688
  0
LINE
  8
0
 10
13.988
 11
14
 20
16.688
 21
16.5
  0
LINE
  8
0
 10
14
 11
13.988
 20
16.5
 21
16.312
  0
LINE
  8
0
 10
13.988
 11
13.953
 20
16.312
 21
16.127
  0
LINE
  8
0
 10
13.953
 11
13.895
 20
16.127
 21
15.948
  0
LINE
  8
0
 10
13.895
 11
13.814
 20
15.948
 21
15.777
  0
LINE
  8
0
 10
13.814
 11
13.714
 20
15.777
 21
15.618
  0
LINE
  8
0
 10
13.714
 11
13.593
 20
15.618
 21
15.473
  0
LINE
  8
0
 10
13.593
 11
13.456
 20
15.473
 21
15.344
  0
LINE
  8
0
 10
13.456
 11
13.304
 20
15.344
 21
15.234
  0
LINE
  8
0
 10
13.304
 11
13.139
 20
15.234
 21
15.143
  0
LINE
  8
0
 10
13.139
 11
12.964
 20
15.143
 21
15.073
  0
LINE
  8
0
 10
12.964
 11
12.781
 20
15.073
 21
15.027
  0
LINE
  8
0
 10
12.781
 11
12.594
 20
15.027
 21
15.003
  0
LINE
  8
0
 10
12.594
 11
12.406
 20
15.003
 21
15.003
  0
LINE
  8
0
 10
12.406
 11
12.219
 20
15.003
 21
15.027
  0
LINE
  8
0
 10
12.219
 11
12.036
 20
15.027
 21
15.073
  0
LINE
  8
0
 10
12.036
 11
11.861
 20
15.073
 21
15.143
  0
LINE
  8
0
 10
11.861
 11
11.696
 20
15.143
 21
15.234
  0
LINE
  8
0
 10
11.696
 11
11.544
 20
15.234
 21
15.344
  0
LINE
  8
0
 10
11.544
 11
11.407
 20
15.344
 21
15.473
  0
LINE
  8
0
 10
11.407
 11
11.286
 20
15.473
 21
15.618
  0
LINE
  8
0
 10
11.286
 11
11.186
 20
15.618
 21
15.777
  0
LINE
  8
0
 10
11.186
 11
11.105
 20
15.777
 21
15.948
  0
LINE
  8
0
 10
11.105
 11
11.047
 20
15.948
 21
16.127
  0
LINE
  8
0
 10
11.047
 11
11.012
 20
16.127
 21
16.312
  0
LINE
  8
0
 10
11.012
 11
11
 20
16.312
 21
16.5
  0
ENDSEC
  0
SECTION
  2
OBJECTS
  0
DICTIONARY
  0
ENDSEC
  0
EOF
