  0
SECTION
  2
BLOCKS
  0
ENDSEC
  0
SECTION
  2
ENTITIES
  0
LINE
  8
0
 10
-15
 11
-15
 20
-10
 21
-5
  0
LINE
  8
0
 10
-15
 11
-10
 20
-5
 21
-5
  0
LINE
  8
0
 10
-10
 11
-10
 20
-5
 21
-2.5
  0
LINE
  8
0
 10
-10
 11
-15
 20
-2.5
 21
-2.5
  0
LINE
  8
0
 10
-15
 11
-15
 20
-2.5
 21
2.5
  0
LINE
  8
0
 10
-15
 11
-10
 20
2.5
 21
2.5
  0
LINE
  8
0
 10
-10
 11
-10
 20
2.5
 21
5
  0
LINE
  8
0
 10
-10
 11
-15
 20
5
 21
5
  0
LINE
  8
0
 10
-15
 11
-15
 20
5
 21
10
  0
LINE
  8
0
 10
-15
 11
-9.986
 20
10
 21
10
  0
LINE
  8
0
 10
-9.986
 11
-9.112
 20
10
 21
8.943
  0
LINE
  8
0
 10
-9.112
 11
-7.968
 20
8.943
 21
7.869
  0
LINE
  8
0
 10
-7.968
 11
-6.698
 20
7.869
 21
6.946
  0
LINE
  8
0
 10
-6.698
 11
-5.322
 20
6.946
 21
6.19
  0
LINE
  8
0
 10
-5.322
 11
-3.863
 20
6.19
 21
5.612
  0
LINE
  8
0
 10
-3.863
 11
-2.342
 20
5.612
 21
5.221
  0
LINE
  8
0
 10
-2.342
 11
-0.785
 20
5.221
 21
5.025
  0
LINE
  8
0
 10
-0.785
 11
0.785
 20
5.025
 21
5.025
  0
LINE
  8
0
 10
0.785
 11
2.342
 20
5.025
 21
5.221
  0
LINE
  8
0
 10
2.342
 11
3.863
 20
5.221
 21
5.612
  0
LINE
  8
0
 10
3.863
 11
5.322
 20
5.612
 21
6.19
  0
LINE
  8
0
 10
5.322
 11
6.698
 20
6.19
 21
6.946
  0
LINE
  8
0
 10
6.698
 11
7.968
 20
6.946
 21
7.869
  0
LINE
  8
0
 10
7.968
 11
9.112
 20
7.869
 21
8.943
  0
LINE
  8
0
 10
9.112
 11
9.986
 20
8.943
 21
10
  0
LINE
  8
0
 10
9.986
 11
15
 20
10
 21
10
  0
LINE
  8
0
 10
15
 11
15
 20
10
 21
5
  0
LINE
  8
0
 10
15
 11
10
 20
5
 21
5
  0
LINE
  8
0
 10
10
 11
10
 20
5
 21
2.5
  0
LINE
  8
0
 10
10
 11
15
 20
2.5
 21
2.5
  0
LINE
  8
0
 10
15
 11
15
 20
2.5
 21
-2.5
  0
LINE
  8
0
 10
15
 11
10
 20
-2.5
 21
-2.5
  0
LINE
  8
0
 10
10
 11
10
 20
-2.5
 21
-5
  0
LINE
  8
0
 10
10
 11
15
 20
-5
 21
-5
  0
LINE
  8
0
 10
15
 11
15
 20
-5
 21
-10
  0
LINE
  8
0
 10
15
 11
-15
 20
-10
 21
-10
  0
LINE
  8
0
 10
-4.2
 11
-4.167
 20
0
 21
0.526
  0
LINE
  8
0
 10
-4.167
 11
-4.068
 20
0.526
 21
1.044
  0
LINE
  8
0
 10
-4.068
 11
-3.905
 20
1.044
 21
1.546
  0
LINE
  8
0
 10
-3.905
 11
-3.68
 20
1.546
 21
2.023
  0
LINE
  8
0
 10
-3.68
 11
-3.398
 20
2.023
 21
2.469
  0
LINE
  8
0
 10
-3.398
 11
-3.062
 20
2.469
 21
2.875
  0
LINE
  8
0
 10
-3.062
 11
-2.677
 20
2.875
 21
3.236
  0
LINE
  8
0
 10
-2.677
 11
-2.25
 20
3.236
 21
3.546
  0
LINE
  8
0
 10
-2.25
 11
-1.788
 20
3.546
 21
3.8
  0
LINE
  8
0
 10
-1.788
 11
-1.298
 20
3.8
 21
3.994
  0
LINE
  8
0
 10
-1.298
 11
-0.787
 20
3.994
 21
4.126
  0
LINE
  8
0
 10
-0.787
 11
-0.264
 20
4.126
 21
4.192
  0
LINE
  8
0
 10
-0.264
 11
0.264
 20
4.192
 21
4.192
  0
LINE
  8
0
 10
0.264
 11
0.787
 20
4.192
 21
4.126
  0
LINE
  8
0
 10
0.787
 11
1.298
 20
4.126
 21
3.994
  0
LINE
  8
0
 10
1.298
 11
1.788
 20
3.994
 21
3.8
  0
LINE
  8
0
 10
1.788
 11
2.25
 20
3.8
 21
3.546
  0
LINE
  8
0
 10
2.25
 11
2.677
 20
3.546
 21
3.236
  0
LINE
  8
0
 10
2.677
 11
3.062
 20
3.236
 21
2.875
  0
LINE
  8
0
 10
3.062
 11
3.398
 20
2.875
 21
2.469
  0
LINE
  8
0
 10
3.398
 11
3.68
 20
2.469
 21
2.023
  0
LINE
  8
0
 10
3.68
 11
3.905
 20
2.023
 21
1.546
  0
LINE
  8
0
 10
3.905
 11
4.068
 20
1.546
 21
1.044
  0
LINE
  8
0
 10
4.068
 11
4.167
 20
1.044
 21
0.526
  0
LINE
  8
0
 10
4.167
 11
4.2
 20
0.526
 21
0
  0
LINE
  8
0
 10
4.2
 11
4.167
 20
0
 21
-0.526
  0
LINE
  8
0
 10
4.167
 11
4.068
 20
-0.526
 21
-1.044
  0
LINE
  8
0
 10
4.068
 11
3.905
 20
-1.044
 21
-1.546
  0
LINE
  8
0
 10
3.905
 11
3.68
 20
-1.546
 21
-2.023
  0
LINE
  8
0
 10
3.68
 11
3.398
 20
-2.023
 21
-2.469
  0
LINE
  8
0
 10
3.398
 11
3.062
 20
-2.469
 21
-2.875
  0
LINE
  8
0
 10
3.062
 11
2.677
 20
-2.875
 21
-3.236
  0
LINE
  8
0
 10
2.677
 11
2.25
 20
-3.236
 21
-3.546
  0
LINE
  8
0
 10
2.25
 11
1.788
 20
-3.546
 21
-3.8
  0
LINE
  8
0
 10
1.788
 11
1.298
 20
-3.8
 21
-3.994
  0
LINE
  8
0
 10
1.298
 11
0.787
 20
-3.994
 21
-4.126
  0
LINE
  8
0
 10
0.787
 11
0.264
 20
-4.126
 21
-4.192
  0
LINE
  8
0
 10
0.264
 11
-0.264
 20
-4.192
 21
-4.192
  0
LINE
  8
0
 10
-0.264
 11
-0.787
 20
-4.192
 21
-4.126
  0
LINE
  8
0
 10
-0.787
 11
-1.298
 20
-4.126
 21
-3.994
  0
LINE
  8
0
 10
-1.298
 11
-1.788
 20
-3.994
 21
-3.8
  0
LINE
  8
0
 10
-1.788
 11
-2.25
 20
-3.8
 21
-3.546
  0
LINE
  8
0
 10
-2.25
 11
-2.677
 20
-3.546
 21
-3.236
  0
LINE
  8
0
 10
-2.677
 11
-3.062
 20
-3.236
 21
-2.875
  0
LINE
  8
0
 10
-3.062
 11
-3.398
 20
-2.875
 21
-2.469
  0
LINE
  8
0
 10
-3.398
 11
-3.68
 20
-2.469
 21
-2.023
  0
LINE
  8
0
 10
-3.68
 11
-3.905
 20
-2.023
 21
-1.546
  0
LINE
  8
0
 10
-3.905
 11
-4.068
 20
-1.546
 21
-1.044
  0
LINE
  8
0
 10
-4.068
 11
-4.167
 20
-1.044
 21
-0.526
  0
LINE
  8
0
 10
-4.167
 11
-4.2
 20
-0.526
 21
0
  0
ENDSEC
  0
SECTION
  2
OBJECTS
  0
DICTIONARY
  0
ENDSEC
  0
EOF
