  0
SECTION
  2
BLOCKS
  0
ENDSEC
  0
SECTION
  2
ENTITIES
  0
LINE
  8
0
 10
-31.5
 11
-31.5
 20
-10
 21
-5
  0
LINE
  8
0
 10
-31.5
 11
-26.5
 20
-5
 21
-5
  0
LINE
  8
0
 10
-26.5
 11
-26.5
 20
-5
 21
-2.5
  0
LINE
  8
0
 10
-26.5
 11
-31.5
 20
-2.5
 21
-2.5
  0
LINE
  8
0
 10
-31.5
 11
-31.5
 20
-2.5
 21
2.5
  0
LINE
  8
0
 10
-31.5
 11
-26.5
 20
2.5
 21
2.5
  0
LINE
  8
0
 10
-26.5
 11
-26.5
 20
2.5
 21
5
  0
LINE
  8
0
 10
-26.5
 11
-31.5
 20
5
 21
5
  0
LINE
  8
0
 10
-31.5
 11
-31.5
 20
5
 21
10
  0
LINE
  8
0
 10
-31.5
 11
-26.5
 20
10
 21
10
  0
LINE
  8
0
 10
-26.5
 11
-26.5
 20
10
 21
15.1
  0
LINE
  8
0
 10
-26.5
 11
-23.825
 20
15.1
 21
15.1
  0
LINE
  8
0
 10
-23.825
 11
-23.825
 20
15.1
 21
13.85
  0
LINE
  8
0
 10
-23.825
 11
-22.175
 20
13.85
 21
13.85
  0
LINE
  8
0
 10
-22.175
 11
-22.175
 20
13.85
 21
15.1
  0
LINE
  8
0
 10
-22.175
 11
-20
 20
15.1
 21
15.1
  0
LINE
  8
0
 10
-20
 11
-20
 20
15.1
 21
17.9
  0
LINE
  8
0
 10
-20
 11
-22.175
 20
17.9
 21
17.9
  0
LINE
  8
0
 10
-22.175
 11
-22.175
 20
17.9
 21
19.15
  0
LINE
  8
0
 10
-22.175
 11
-23.825
 20
19.15
 21
19.15
  0
LINE
  8
0
 10
-23.825
 11
-23.825
 20
19.15
 21
17.9
  0
LINE
  8
0
 10
-23.825
 11
-26.5
 20
17.9
 21
17.9
  0
LINE
  8
0
 10
-26.5
 11
-26.5
 20
17.9
 21
37.5
  0
LINE
  8
0
 10
-26.5
 11
-12.5
 20
37.5
 21
37.5
  0
LINE
  8
0
 10
-12.5
 11
-12.5
 20
37.5
 21
32.5
  0
LINE
  8
0
 10
-12.5
 11
-7.5
 20
32.5
 21
32.5
  0
LINE
  8
0
 10
-7.5
 11
-7.5
 20
32.5
 21
37.5
  0
LINE
  8
0
 10
-7.5
 11
7.5
 20
37.5
 21
37.5
  0
LINE
  8
0
 10
7.5
 11
7.5
 20
37.5
 21
32.5
  0
LINE
  8
0
 10
7.5
 11
12.5
 20
32.5
 21
32.5
  0
LINE
  8
0
 10
12.5
 11
12.5
 20
32.5
 21
37.5
  0
LINE
  8
0
 10
12.5
 11
26.5
 20
37.5
 21
37.5
  0
LINE
  8
0
 10
26.5
 11
26.5
 20
37.5
 21
17.9
  0
LINE
  8
0
 10
26.5
 11
23.825
 20
17.9
 21
17.9
  0
LINE
  8
0
 10
23.825
 11
23.825
 20
17.9
 21
19.15
  0
LINE
  8
0
 10
23.825
 11
22.175
 20
19.15
 21
19.15
  0
LINE
  8
0
 10
22.175
 11
22.175
 20
19.15
 21
17.9
  0
LINE
  8
0
 10
22.175
 11
20
 20
17.9
 21
17.9
  0
LINE
  8
0
 10
20
 11
20
 20
17.9
 21
15.1
  0
LINE
  8
0
 10
20
 11
22.175
 20
15.1
 21
15.1
  0
LINE
  8
0
 10
22.175
 11
22.175
 20
15.1
 21
13.85
  0
LINE
  8
0
 10
22.175
 11
23.825
 20
13.85
 21
13.85
  0
LINE
  8
0
 10
23.825
 11
23.825
 20
13.85
 21
15.1
  0
LINE
  8
0
 10
23.825
 11
26.5
 20
15.1
 21
15.1
  0
LINE
  8
0
 10
26.5
 11
26.5
 20
15.1
 21
10
  0
LINE
  8
0
 10
26.5
 11
31.5
 20
10
 21
10
  0
LINE
  8
0
 10
31.5
 11
31.5
 20
10
 21
5
  0
LINE
  8
0
 10
31.5
 11
26.5
 20
5
 21
5
  0
LINE
  8
0
 10
26.5
 11
26.5
 20
5
 21
2.5
  0
LINE
  8
0
 10
26.5
 11
31.5
 20
2.5
 21
2.5
  0
LINE
  8
0
 10
31.5
 11
31.5
 20
2.5
 21
-2.5
  0
LINE
  8
0
 10
31.5
 11
26.5
 20
-2.5
 21
-2.5
  0
LINE
  8
0
 10
26.5
 11
26.5
 20
-2.5
 21
-5
  0
LINE
  8
0
 10
26.5
 11
31.5
 20
-5
 21
-5
  0
LINE
  8
0
 10
31.5
 11
31.5
 20
-5
 21
-10
  0
LINE
  8
0
 10
31.5
 11
26.5
 20
-10
 21
-10
  0
LINE
  8
0
 10
26.5
 11
26.5
 20
-10
 21
-12.5
  0
LINE
  8
0
 10
26.5
 11
-26.5
 20
-12.5
 21
-12.5
  0
LINE
  8
0
 10
-26.5
 11
-26.5
 20
-12.5
 21
-10
  0
LINE
  8
0
 10
-26.5
 11
-31.5
 20
-10
 21
-10
  0
LINE
  8
0
 10
-25.35
 11
-25.339
 20
35
 21
35.169
  0
LINE
  8
0
 10
-25.339
 11
-25.308
 20
35.169
 21
35.336
  0
LINE
  8
0
 10
-25.308
 11
-25.255
 20
35.336
 21
35.497
  0
LINE
  8
0
 10
-25.255
 11
-25.183
 20
35.497
 21
35.65
  0
LINE
  8
0
 10
-25.183
 11
-25.092
 20
35.65
 21
35.794
  0
LINE
  8
0
 10
-25.092
 11
-24.984
 20
35.794
 21
35.924
  0
LINE
  8
0
 10
-24.984
 11
-24.861
 20
35.924
 21
36.04
  0
LINE
  8
0
 10
-24.861
 11
-24.723
 20
36.04
 21
36.14
  0
LINE
  8
0
 10
-24.723
 11
-24.575
 20
36.14
 21
36.222
  0
LINE
  8
0
 10
-24.575
 11
-24.417
 20
36.222
 21
36.284
  0
LINE
  8
0
 10
-24.417
 11
-24.253
 20
36.284
 21
36.326
  0
LINE
  8
0
 10
-24.253
 11
-24.085
 20
36.326
 21
36.347
  0
LINE
  8
0
 10
-24.085
 11
-23.915
 20
36.347
 21
36.347
  0
LINE
  8
0
 10
-23.915
 11
-23.747
 20
36.347
 21
36.326
  0
LINE
  8
0
 10
-23.747
 11
-23.583
 20
36.326
 21
36.284
  0
LINE
  8
0
 10
-23.583
 11
-23.425
 20
36.284
 21
36.222
  0
LINE
  8
0
 10
-23.425
 11
-23.277
 20
36.222
 21
36.14
  0
LINE
  8
0
 10
-23.277
 11
-23.139
 20
36.14
 21
36.04
  0
LINE
  8
0
 10
-23.139
 11
-23.016
 20
36.04
 21
35.924
  0
LINE
  8
0
 10
-23.016
 11
-22.908
 20
35.924
 21
35.794
  0
LINE
  8
0
 10
-22.908
 11
-22.817
 20
35.794
 21
35.65
  0
LINE
  8
0
 10
-22.817
 11
-22.745
 20
35.65
 21
35.497
  0
LINE
  8
0
 10
-22.745
 11
-22.692
 20
35.497
 21
35.336
  0
LINE
  8
0
 10
-22.692
 11
-22.661
 20
35.336
 21
35.169
  0
LINE
  8
0
 10
-22.661
 11
-22.65
 20
35.169
 21
35
  0
LINE
  8
0
 10
-22.65
 11
-22.661
 20
35
 21
34.831
  0
LINE
  8
0
 10
-22.661
 11
-22.692
 20
34.831
 21
34.664
  0
LINE
  8
0
 10
-22.692
 11
-22.745
 20
34.664
 21
34.503
  0
LINE
  8
0
 10
-22.745
 11
-22.817
 20
34.503
 21
34.35
  0
LINE
  8
0
 10
-22.817
 11
-22.908
 20
34.35
 21
34.206
  0
LINE
  8
0
 10
-22.908
 11
-23.016
 20
34.206
 21
34.076
  0
LINE
  8
0
 10
-23.016
 11
-23.139
 20
34.076
 21
33.96
  0
LINE
  8
0
 10
-23.139
 11
-23.277
 20
33.96
 21
33.86
  0
LINE
  8
0
 10
-23.277
 11
-23.425
 20
33.86
 21
33.778
  0
LINE
  8
0
 10
-23.425
 11
-23.583
 20
33.778
 21
33.716
  0
LINE
  8
0
 10
-23.583
 11
-23.747
 20
33.716
 21
33.674
  0
LINE
  8
0
 10
-23.747
 11
-23.915
 20
33.674
 21
33.653
  0
LINE
  8
0
 10
-23.915
 11
-24.085
 20
33.653
 21
33.653
  0
LINE
  8
0
 10
-24.085
 11
-24.253
 20
33.653
 21
33.674
  0
LINE
  8
0
 10
-24.253
 11
-24.417
 20
33.674
 21
33.716
  0
LINE
  8
0
 10
-24.417
 11
-24.575
 20
33.716
 21
33.778
  0
LINE
  8
0
 10
-24.575
 11
-24.723
 20
33.778
 21
33.86
  0
LINE
  8
0
 10
-24.723
 11
-24.861
 20
33.86
 21
33.96
  0
LINE
  8
0
 10
-24.861
 11
-24.984
 20
33.96
 21
34.076
  0
LINE
  8
0
 10
-24.984
 11
-25.092
 20
34.076
 21
34.206
  0
LINE
  8
0
 10
-25.092
 11
-25.183
 20
34.206
 21
34.35
  0
LINE
  8
0
 10
-25.183
 11
-25.255
 20
34.35
 21
34.503
  0
LINE
  8
0
 10
-25.255
 11
-25.308
 20
34.503
 21
34.664
  0
LINE
  8
0
 10
-25.308
 11
-25.339
 20
34.664
 21
34.831
  0
LINE
  8
0
 10
-25.339
 11
-25.35
 20
34.831
 21
35
  0
LINE
  8
0
 10
-22.5
 11
-22.5
 20
-10
 21
-5
  0
LINE
  8
0
 10
-22.5
 11
-17.5
 20
-5
 21
-5
  0
LINE
  8
0
 10
-17.5
 11
-17.5
 20
-5
 21
-10
  0
LINE
  8
0
 10
-17.5
 11
-22.5
 20
-10
 21
-10
  0
LINE
  8
0
 10
-22.5
 11
-22.5
 20
-2.5
 21
2.5
  0
LINE
  8
0
 10
-22.5
 11
-17.5
 20
2.5
 21
2.5
  0
LINE
  8
0
 10
-17.5
 11
-17.5
 20
2.5
 21
-2.5
  0
LINE
  8
0
 10
-17.5
 11
-22.5
 20
-2.5
 21
-2.5
  0
LINE
  8
0
 10
-22.5
 11
-22.5
 20
5
 21
10
  0
LINE
  8
0
 10
-22.5
 11
-17.5
 20
10
 21
10
  0
LINE
  8
0
 10
-17.5
 11
-17.5
 20
10
 21
5
  0
LINE
  8
0
 10
-17.5
 11
-22.5
 20
5
 21
5
  0
LINE
  8
0
 10
-16
 11
-15.988
 20
-9
 21
-8.812
  0
LINE
  8
0
 10
-15.988
 11
-15.953
 20
-8.812
 21
-8.627
  0
LINE
  8
0
 10
-15.953
 11
-15.895
 20
-8.627
 21
-8.448
  0
LINE
  8
0
 10
-15.895
 11
-15.814
 20
-8.448
 21
-8.277
  0
LINE
  8
0
 10
-15.814
 11
-15.714
 20
-8.277
 21
-8.118
  0
LINE
  8
0
 10
-15.714
 11
-15.593
 20
-8.118
 21
-7.973
  0
LINE
  8
0
 10
-15.593
 11
-15.456
 20
-7.973
 21
-7.844
  0
LINE
  8
0
 10
-15.456
 11
-15.304
 20
-7.844
 21
-7.734
  0
LINE
  8
0
 10
-15.304
 11
-15.139
 20
-7.734
 21
-7.643
  0
LINE
  8
0
 10
-15.139
 11
-14.964
 20
-7.643
 21
-7.573
  0
LINE
  8
0
 10
-14.964
 11
-14.781
 20
-7.573
 21
-7.527
  0
LINE
  8
0
 10
-14.781
 11
-14.594
 20
-7.527
 21
-7.503
  0
LINE
  8
0
 10
-14.594
 11
-14.406
 20
-7.503
 21
-7.503
  0
LINE
  8
0
 10
-14.406
 11
-14.219
 20
-7.503
 21
-7.527
  0
LINE
  8
0
 10
-14.219
 11
-14.036
 20
-7.527
 21
-7.573
  0
LINE
  8
0
 10
-14.036
 11
-13.861
 20
-7.573
 21
-7.643
  0
LINE
  8
0
 10
-13.861
 11
-13.696
 20
-7.643
 21
-7.734
  0
LINE
  8
0
 10
-13.696
 11
-13.544
 20
-7.734
 21
-7.844
  0
LINE
  8
0
 10
-13.544
 11
-13.407
 20
-7.844
 21
-7.973
  0
LINE
  8
0
 10
-13.407
 11
-13.286
 20
-7.973
 21
-8.118
  0
LINE
  8
0
 10
-13.286
 11
-13.186
 20
-8.118
 21
-8.277
  0
LINE
  8
0
 10
-13.186
 11
-13.105
 20
-8.277
 21
-8.448
  0
LINE
  8
0
 10
-13.105
 11
-13.047
 20
-8.448
 21
-8.627
  0
LINE
  8
0
 10
-13.047
 11
-13.012
 20
-8.627
 21
-8.812
  0
LINE
  8
0
 10
-13.012
 11
-13
 20
-8.812
 21
-9
  0
LINE
  8
0
 10
-13
 11
-13.012
 20
-9
 21
-9.188
  0
LINE
  8
0
 10
-13.012
 11
-13.047
 20
-9.188
 21
-9.373
  0
LINE
  8
0
 10
-13.047
 11
-13.105
 20
-9.373
 21
-9.552
  0
LINE
  8
0
 10
-13.105
 11
-13.186
 20
-9.552
 21
-9.723
  0
LINE
  8
0
 10
-13.186
 11
-13.286
 20
-9.723
 21
-9.882
  0
LINE
  8
0
 10
-13.286
 11
-13.407
 20
-9.882
 21
-10.027
  0
LINE
  8
0
 10
-13.407
 11
-13.544
 20
-10.027
 21
-10.156
  0
LINE
  8
0
 10
-13.544
 11
-13.696
 20
-10.156
 21
-10.266
  0
LINE
  8
0
 10
-13.696
 11
-13.861
 20
-10.266
 21
-10.357
  0
LINE
  8
0
 10
-13.861
 11
-14.036
 20
-10.357
 21
-10.427
  0
LINE
  8
0
 10
-14.036
 11
-14.219
 20
-10.427
 21
-10.473
  0
LINE
  8
0
 10
-14.219
 11
-14.406
 20
-10.473
 21
-10.497
  0
LINE
  8
0
 10
-14.406
 11
-14.594
 20
-10.497
 21
-10.497
  0
LINE
  8
0
 10
-14.594
 11
-14.781
 20
-10.497
 21
-10.473
  0
LINE
  8
0
 10
-14.781
 11
-14.964
 20
-10.473
 21
-10.427
  0
LINE
  8
0
 10
-14.964
 11
-15.139
 20
-10.427
 21
-10.357
  0
LINE
  8
0
 10
-15.139
 11
-15.304
 20
-10.357
 21
-10.266
  0
LINE
  8
0
 10
-15.304
 11
-15.456
 20
-10.266
 21
-10.156
  0
LINE
  8
0
 10
-15.456
 11
-15.593
 20
-10.156
 21
-10.027
  0
LINE
  8
0
 10
-15.593
 11
-15.714
 20
-10.027
 21
-9.882
  0
LINE
  8
0
 10
-15.714
 11
-15.814
 20
-9.882
 21
-9.723
  0
LINE
  8
0
 10
-15.814
 11
-15.895
 20
-9.723
 21
-9.552
  0
LINE
  8
0
 10
-15.895
 11
-15.953
 20
-9.552
 21
-9.373
  0
LINE
  8
0
 10
-15.953
 11
-15.988
 20
-9.373
 21
-9.188
  0
LINE
  8
0
 10
-15.988
 11
-16
 20
-9.188
 21
-9
  0
LINE
  8
0
 10
-16
 11
-15.988
 20
9
 21
9.188
  0
LINE
  8
0
 10
-15.988
 11
-15.953
 20
9.188
 21
9.373
  0
LINE
  8
0
 10
-15.953
 11
-15.895
 20
9.373
 21
9.552
  0
LINE
  8
0
 10
-15.895
 11
-15.814
 20
9.552
 21
9.723
  0
LINE
  8
0
 10
-15.814
 11
-15.714
 20
9.723
 21
9.882
  0
LINE
  8
0
 10
-15.714
 11
-15.593
 20
9.882
 21
10.027
  0
LINE
  8
0
 10
-15.593
 11
-15.456
 20
10.027
 21
10.156
  0
LINE
  8
0
 10
-15.456
 11
-15.304
 20
10.156
 21
10.266
  0
LINE
  8
0
 10
-15.304
 11
-15.139
 20
10.266
 21
10.357
  0
LINE
  8
0
 10
-15.139
 11
-14.964
 20
10.357
 21
10.427
  0
LINE
  8
0
 10
-14.964
 11
-14.781
 20
10.427
 21
10.473
  0
LINE
  8
0
 10
-14.781
 11
-14.594
 20
10.473
 21
10.497
  0
LINE
  8
0
 10
-14.594
 11
-14.406
 20
10.497
 21
10.497
  0
LINE
  8
0
 10
-14.406
 11
-14.219
 20
10.497
 21
10.473
  0
LINE
  8
0
 10
-14.219
 11
-14.036
 20
10.473
 21
10.427
  0
LINE
  8
0
 10
-14.036
 11
-13.861
 20
10.427
 21
10.357
  0
LINE
  8
0
 10
-13.861
 11
-13.696
 20
10.357
 21
10.266
  0
LINE
  8
0
 10
-13.696
 11
-13.544
 20
10.266
 21
10.156
  0
LINE
  8
0
 10
-13.544
 11
-13.407
 20
10.156
 21
10.027
  0
LINE
  8
0
 10
-13.407
 11
-13.286
 20
10.027
 21
9.882
  0
LINE
  8
0
 10
-13.286
 11
-13.186
 20
9.882
 21
9.723
  0
LINE
  8
0
 10
-13.186
 11
-13.105
 20
9.723
 21
9.552
  0
LINE
  8
0
 10
-13.105
 11
-13.047
 20
9.552
 21
9.373
  0
LINE
  8
0
 10
-13.047
 11
-13.012
 20
9.373
 21
9.188
  0
LINE
  8
0
 10
-13.012
 11
-13
 20
9.188
 21
9
  0
LINE
  8
0
 10
-13
 11
-13.012
 20
9
 21
8.812
  0
LINE
  8
0
 10
-13.012
 11
-13.047
 20
8.812
 21
8.627
  0
LINE
  8
0
 10
-13.047
 11
-13.105
 20
8.627
 21
8.448
  0
LINE
  8
0
 10
-13.105
 11
-13.186
 20
8.448
 21
8.277
  0
LINE
  8
0
 10
-13.186
 11
-13.286
 20
8.277
 21
8.118
  0
LINE
  8
0
 10
-13.286
 11
-13.407
 20
8.118
 21
7.973
  0
LINE
  8
0
 10
-13.407
 11
-13.544
 20
7.973
 21
7.844
  0
LINE
  8
0
 10
-13.544
 11
-13.696
 20
7.844
 21
7.734
  0
LINE
  8
0
 10
-13.696
 11
-13.861
 20
7.734
 21
7.643
  0
LINE
  8
0
 10
-13.861
 11
-14.036
 20
7.643
 21
7.573
  0
LINE
  8
0
 10
-14.036
 11
-14.219
 20
7.573
 21
7.527
  0
LINE
  8
0
 10
-14.219
 11
-14.406
 20
7.527
 21
7.503
  0
LINE
  8
0
 10
-14.406
 11
-14.594
 20
7.503
 21
7.503
  0
LINE
  8
0
 10
-14.594
 11
-14.781
 20
7.503
 21
7.527
  0
LINE
  8
0
 10
-14.781
 11
-14.964
 20
7.527
 21
7.573
  0
LINE
  8
0
 10
-14.964
 11
-15.139
 20
7.573
 21
7.643
  0
LINE
  8
0
 10
-15.139
 11
-15.304
 20
7.643
 21
7.734
  0
LINE
  8
0
 10
-15.304
 11
-15.456
 20
7.734
 21
7.844
  0
LINE
  8
0
 10
-15.456
 11
-15.593
 20
7.844
 21
7.973
  0
LINE
  8
0
 10
-15.593
 11
-15.714
 20
7.973
 21
8.118
  0
LINE
  8
0
 10
-15.714
 11
-15.814
 20
8.118
 21
8.277
  0
LINE
  8
0
 10
-15.814
 11
-15.895
 20
8.277
 21
8.448
  0
LINE
  8
0
 10
-15.895
 11
-15.953
 20
8.448
 21
8.627
  0
LINE
  8
0
 10
-15.953
 11
-15.988
 20
8.627
 21
8.812
  0
LINE
  8
0
 10
-15.988
 11
-16
 20
8.812
 21
9
  0
LINE
  8
0
 10
-12.5
 11
-12.5
 20
22.5
 21
27.5
  0
LINE
  8
0
 10
-12.5
 11
-7.5
 20
27.5
 21
27.5
  0
LINE
  8
0
 10
-7.5
 11
-7.5
 20
27.5
 21
22.5
  0
LINE
  8
0
 10
-7.5
 11
-12.5
 20
22.5
 21
22.5
  0
LINE
  8
0
 10
-11.5
 11
-11.5
 20
-10
 21
-5
  0
LINE
  8
0
 10
-11.5
 11
-6.5
 20
-5
 21
-5
  0
LINE
  8
0
 10
-6.5
 11
-6.5
 20
-5
 21
-10
  0
LINE
  8
0
 10
-6.5
 11
-11.5
 20
-10
 21
-10
  0
LINE
  8
0
 10
-11.5
 11
-11.5
 20
-2.5
 21
2.5
  0
LINE
  8
0
 10
-11.5
 11
-6.5
 20
2.5
 21
2.5
  0
LINE
  8
0
 10
-6.5
 11
-6.5
 20
2.5
 21
-2.5
  0
LINE
  8
0
 10
-6.5
 11
-11.5
 20
-2.5
 21
-2.5
  0
LINE
  8
0
 10
-11.5
 11
-11.5
 20
5
 21
10
  0
LINE
  8
0
 10
-11.5
 11
-6.5
 20
10
 21
10
  0
LINE
  8
0
 10
-6.5
 11
-6.5
 20
10
 21
5
  0
LINE
  8
0
 10
-6.5
 11
-11.5
 20
5
 21
5
  0
LINE
  8
0
 10
-4
 11
-3.968
 20
30
 21
30.501
  0
LINE
  8
0
 10
-3.968
 11
-3.874
 20
30.501
 21
30.995
  0
LINE
  8
0
 10
-3.874
 11
-3.719
 20
30.995
 21
31.472
  0
LINE
  8
0
 10
-3.719
 11
-3.505
 20
31.472
 21
31.927
  0
LINE
  8
0
 10
-3.505
 11
-3.236
 20
31.927
 21
32.351
  0
LINE
  8
0
 10
-3.236
 11
-2.916
 20
32.351
 21
32.738
  0
LINE
  8
0
 10
-2.916
 11
-2.55
 20
32.738
 21
33.082
  0
LINE
  8
0
 10
-2.55
 11
-2.143
 20
33.082
 21
33.377
  0
LINE
  8
0
 10
-2.143
 11
-1.703
 20
33.377
 21
33.619
  0
LINE
  8
0
 10
-1.703
 11
-1.236
 20
33.619
 21
33.804
  0
LINE
  8
0
 10
-1.236
 11
-0.75
 20
33.804
 21
33.929
  0
LINE
  8
0
 10
-0.75
 11
-0.251
 20
33.929
 21
33.992
  0
LINE
  8
0
 10
-0.251
 11
0.251
 20
33.992
 21
33.992
  0
LINE
  8
0
 10
0.251
 11
0.75
 20
33.992
 21
33.929
  0
LINE
  8
0
 10
0.75
 11
1.236
 20
33.929
 21
33.804
  0
LINE
  8
0
 10
1.236
 11
1.703
 20
33.804
 21
33.619
  0
LINE
  8
0
 10
1.703
 11
2.143
 20
33.619
 21
33.377
  0
LINE
  8
0
 10
2.143
 11
2.55
 20
33.377
 21
33.082
  0
LINE
  8
0
 10
2.55
 11
2.916
 20
33.082
 21
32.738
  0
LINE
  8
0
 10
2.916
 11
3.236
 20
32.738
 21
32.351
  0
LINE
  8
0
 10
3.236
 11
3.505
 20
32.351
 21
31.927
  0
LINE
  8
0
 10
3.505
 11
3.719
 20
31.927
 21
31.472
  0
LINE
  8
0
 10
3.719
 11
3.874
 20
31.472
 21
30.995
  0
LINE
  8
0
 10
3.874
 11
3.968
 20
30.995
 21
30.501
  0
LINE
  8
0
 10
3.968
 11
4
 20
30.501
 21
30
  0
LINE
  8
0
 10
4
 11
3.968
 20
30
 21
29.499
  0
LINE
  8
0
 10
3.968
 11
3.874
 20
29.499
 21
29.005
  0
LINE
  8
0
 10
3.874
 11
3.719
 20
29.005
 21
28.528
  0
LINE
  8
0
 10
3.719
 11
3.505
 20
28.528
 21
28.073
  0
LINE
  8
0
 10
3.505
 11
3.236
 20
28.073
 21
27.649
  0
LINE
  8
0
 10
3.236
 11
2.916
 20
27.649
 21
27.262
  0
LINE
  8
0
 10
2.916
 11
2.55
 20
27.262
 21
26.918
  0
LINE
  8
0
 10
2.55
 11
2.143
 20
26.918
 21
26.623
  0
LINE
  8
0
 10
2.143
 11
1.703
 20
26.623
 21
26.381
  0
LINE
  8
0
 10
1.703
 11
1.236
 20
26.381
 21
26.196
  0
LINE
  8
0
 10
1.236
 11
0.75
 20
26.196
 21
26.071
  0
LINE
  8
0
 10
0.75
 11
0.251
 20
26.071
 21
26.008
  0
LINE
  8
0
 10
0.251
 11
-0.251
 20
26.008
 21
26.008
  0
LINE
  8
0
 10
-0.251
 11
-0.75
 20
26.008
 21
26.071
  0
LINE
  8
0
 10
-0.75
 11
-1.236
 20
26.071
 21
26.196
  0
LINE
  8
0
 10
-1.236
 11
-1.703
 20
26.196
 21
26.381
  0
LINE
  8
0
 10
-1.703
 11
-2.143
 20
26.381
 21
26.623
  0
LINE
  8
0
 10
-2.143
 11
-2.55
 20
26.623
 21
26.918
  0
LINE
  8
0
 10
-2.55
 11
-2.916
 20
26.918
 21
27.262
  0
LINE
  8
0
 10
-2.916
 11
-3.236
 20
27.262
 21
27.649
  0
LINE
  8
0
 10
-3.236
 11
-3.505
 20
27.649
 21
28.073
  0
LINE
  8
0
 10
-3.505
 11
-3.719
 20
28.073
 21
28.528
  0
LINE
  8
0
 10
-3.719
 11
-3.874
 20
28.528
 21
29.005
  0
LINE
  8
0
 10
-3.874
 11
-3.968
 20
29.005
 21
29.499
  0
LINE
  8
0
 10
-3.968
 11
-4
 20
29.499
 21
30
  0
LINE
  8
0
 10
-2.5
 11
-2.5
 20
-10
 21
-5
  0
LINE
  8
0
 10
-2.5
 11
2.5
 20
-5
 21
-5
  0
LINE
  8
0
 10
2.5
 11
2.5
 20
-5
 21
-10
  0
LINE
  8
0
 10
2.5
 11
-2.5
 20
-10
 21
-10
  0
LINE
  8
0
 10
-2.5
 11
-2.5
 20
-2.5
 21
2.5
  0
LINE
  8
0
 10
-2.5
 11
2.5
 20
2.5
 21
2.5
  0
LINE
  8
0
 10
2.5
 11
2.5
 20
2.5
 21
-2.5
  0
LINE
  8
0
 10
2.5
 11
-2.5
 20
-2.5
 21
-2.5
  0
LINE
  8
0
 10
-2.5
 11
-2.5
 20
5
 21
10
  0
LINE
  8
0
 10
-2.5
 11
2.5
 20
10
 21
10
  0
LINE
  8
0
 10
2.5
 11
2.5
 20
10
 21
5
  0
LINE
  8
0
 10
2.5
 11
-2.5
 20
5
 21
5
  0
LINE
  8
0
 10
6.5
 11
6.5
 20
-10
 21
-5
  0
LINE
  8
0
 10
6.5
 11
11.5
 20
-5
 21
-5
  0
LINE
  8
0
 10
11.5
 11
11.5
 20
-5
 21
-10
  0
LINE
  8
0
 10
11.5
 11
6.5
 20
-10
 21
-10
  0
LINE
  8
0
 10
6.5
 11
6.5
 20
-2.5
 21
2.5
  0
LINE
  8
0
 10
6.5
 11
11.5
 20
2.5
 21
2.5
  0
LINE
  8
0
 10
11.5
 11
11.5
 20
2.5
 21
-2.5
  0
LINE
  8
0
 10
11.5
 11
6.5
 20
-2.5
 21
-2.5
  0
LINE
  8
0
 10
6.5
 11
6.5
 20
5
 21
10
  0
LINE
  8
0
 10
6.5
 11
11.5
 20
10
 21
10
  0
LINE
  8
0
 10
11.5
 11
11.5
 20
10
 21
5
  0
LINE
  8
0
 10
11.5
 11
6.5
 20
5
 21
5
  0
LINE
  8
0
 10
7.5
 11
7.5
 20
22.5
 21
27.5
  0
LINE
  8
0
 10
7.5
 11
12.5
 20
27.5
 21
27.5
  0
LINE
  8
0
 10
12.5
 11
12.5
 20
27.5
 21
22.5
  0
LINE
  8
0
 10
12.5
 11
7.5
 20
22.5
 21
22.5
  0
LINE
  8
0
 10
13
 11
13.012
 20
-9
 21
-8.812
  0
LINE
  8
0
 10
13.012
 11
13.047
 20
-8.812
 21
-8.627
  0
LINE
  8
0
 10
13.047
 11
13.105
 20
-8.627
 21
-8.448
  0
LINE
  8
0
 10
13.105
 11
13.186
 20
-8.448
 21
-8.277
  0
LINE
  8
0
 10
13.186
 11
13.286
 20
-8.277
 21
-8.118
  0
LINE
  8
0
 10
13.286
 11
13.407
 20
-8.118
 21
-7.973
  0
LINE
  8
0
 10
13.407
 11
13.544
 20
-7.973
 21
-7.844
  0
LINE
  8
0
 10
13.544
 11
13.696
 20
-7.844
 21
-7.734
  0
LINE
  8
0
 10
13.696
 11
13.861
 20
-7.734
 21
-7.643
  0
LINE
  8
0
 10
13.861
 11
14.036
 20
-7.643
 21
-7.573
  0
LINE
  8
0
 10
14.036
 11
14.219
 20
-7.573
 21
-7.527
  0
LINE
  8
0
 10
14.219
 11
14.406
 20
-7.527
 21
-7.503
  0
LINE
  8
0
 10
14.406
 11
14.594
 20
-7.503
 21
-7.503
  0
LINE
  8
0
 10
14.594
 11
14.781
 20
-7.503
 21
-7.527
  0
LINE
  8
0
 10
14.781
 11
14.964
 20
-7.527
 21
-7.573
  0
LINE
  8
0
 10
14.964
 11
15.139
 20
-7.573
 21
-7.643
  0
LINE
  8
0
 10
15.139
 11
15.304
 20
-7.643
 21
-7.734
  0
LINE
  8
0
 10
15.304
 11
15.456
 20
-7.734
 21
-7.844
  0
LINE
  8
0
 10
15.456
 11
15.593
 20
-7.844
 21
-7.973
  0
LINE
  8
0
 10
15.593
 11
15.714
 20
-7.973
 21
-8.118
  0
LINE
  8
0
 10
15.714
 11
15.814
 20
-8.118
 21
-8.277
  0
LINE
  8
0
 10
15.814
 11
15.895
 20
-8.277
 21
-8.448
  0
LINE
  8
0
 10
15.895
 11
15.953
 20
-8.448
 21
-8.627
  0
LINE
  8
0
 10
15.953
 11
15.988
 20
-8.627
 21
-8.812
  0
LINE
  8
0
 10
15.988
 11
16
 20
-8.812
 21
-9
  0
LINE
  8
0
 10
16
 11
15.988
 20
-9
 21
-9.188
  0
LINE
  8
0
 10
15.988
 11
15.953
 20
-9.188
 21
-9.373
  0
LINE
  8
0
 10
15.953
 11
15.895
 20
-9.373
 21
-9.552
  0
LINE
  8
0
 10
15.895
 11
15.814
 20
-9.552
 21
-9.723
  0
LINE
  8
0
 10
15.814
 11
15.714
 20
-9.723
 21
-9.882
  0
LINE
  8
0
 10
15.714
 11
15.593
 20
-9.882
 21
-10.027
  0
LINE
  8
0
 10
15.593
 11
15.456
 20
-10.027
 21
-10.156
  0
LINE
  8
0
 10
15.456
 11
15.304
 20
-10.156
 21
-10.266
  0
LINE
  8
0
 10
15.304
 11
15.139
 20
-10.266
 21
-10.357
  0
LINE
  8
0
 10
15.139
 11
14.964
 20
-10.357
 21
-10.427
  0
LINE
  8
0
 10
14.964
 11
14.781
 20
-10.427
 21
-10.473
  0
LINE
  8
0
 10
14.781
 11
14.594
 20
-10.473
 21
-10.497
  0
LINE
  8
0
 10
14.594
 11
14.406
 20
-10.497
 21
-10.497
  0
LINE
  8
0
 10
14.406
 11
14.219
 20
-10.497
 21
-10.473
  0
LINE
  8
0
 10
14.219
 11
14.036
 20
-10.473
 21
-10.427
  0
LINE
  8
0
 10
14.036
 11
13.861
 20
-10.427
 21
-10.357
  0
LINE
  8
0
 10
13.861
 11
13.696
 20
-10.357
 21
-10.266
  0
LINE
  8
0
 10
13.696
 11
13.544
 20
-10.266
 21
-10.156
  0
LINE
  8
0
 10
13.544
 11
13.407
 20
-10.156
 21
-10.027
  0
LINE
  8
0
 10
13.407
 11
13.286
 20
-10.027
 21
-9.882
  0
LINE
  8
0
 10
13.286
 11
13.186
 20
-9.882
 21
-9.723
  0
LINE
  8
0
 10
13.186
 11
13.105
 20
-9.723
 21
-9.552
  0
LINE
  8
0
 10
13.105
 11
13.047
 20
-9.552
 21
-9.373
  0
LINE
  8
0
 10
13.047
 11
13.012
 20
-9.373
 21
-9.188
  0
LINE
  8
0
 10
13.012
 11
13
 20
-9.188
 21
-9
  0
LINE
  8
0
 10
13
 11
13.012
 20
9
 21
9.188
  0
LINE
  8
0
 10
13.012
 11
13.047
 20
9.188
 21
9.373
  0
LINE
  8
0
 10
13.047
 11
13.105
 20
9.373
 21
9.552
  0
LINE
  8
0
 10
13.105
 11
13.186
 20
9.552
 21
9.723
  0
LINE
  8
0
 10
13.186
 11
13.286
 20
9.723
 21
9.882
  0
LINE
  8
0
 10
13.286
 11
13.407
 20
9.882
 21
10.027
  0
LINE
  8
0
 10
13.407
 11
13.544
 20
10.027
 21
10.156
  0
LINE
  8
0
 10
13.544
 11
13.696
 20
10.156
 21
10.266
  0
LINE
  8
0
 10
13.696
 11
13.861
 20
10.266
 21
10.357
  0
LINE
  8
0
 10
13.861
 11
14.036
 20
10.357
 21
10.427
  0
LINE
  8
0
 10
14.036
 11
14.219
 20
10.427
 21
10.473
  0
LINE
  8
0
 10
14.219
 11
14.406
 20
10.473
 21
10.497
  0
LINE
  8
0
 10
14.406
 11
14.594
 20
10.497
 21
10.497
  0
LINE
  8
0
 10
14.594
 11
14.781
 20
10.497
 21
10.473
  0
LINE
  8
0
 10
14.781
 11
14.964
 20
10.473
 21
10.427
  0
LINE
  8
0
 10
14.964
 11
15.139
 20
10.427
 21
10.357
  0
LINE
  8
0
 10
15.139
 11
15.304
 20
10.357
 21
10.266
  0
LINE
  8
0
 10
15.304
 11
15.456
 20
10.266
 21
10.156
  0
LINE
  8
0
 10
15.456
 11
15.593
 20
10.156
 21
10.027
  0
LINE
  8
0
 10
15.593
 11
15.714
 20
10.027
 21
9.882
  0
LINE
  8
0
 10
15.714
 11
15.814
 20
9.882
 21
9.723
  0
LINE
  8
0
 10
15.814
 11
15.895
 20
9.723
 21
9.552
  0
LINE
  8
0
 10
15.895
 11
15.953
 20
9.552
 21
9.373
  0
LINE
  8
0
 10
15.953
 11
15.988
 20
9.373
 21
9.188
  0
LINE
  8
0
 10
15.988
 11
16
 20
9.188
 21
9
  0
LINE
  8
0
 10
16
 11
15.988
 20
9
 21
8.812
  0
LINE
  8
0
 10
15.988
 11
15.953
 20
8.812
 21
8.627
  0
LINE
  8
0
 10
15.953
 11
15.895
 20
8.627
 21
8.448
  0
LINE
  8
0
 10
15.895
 11
15.814
 20
8.448
 21
8.277
  0
LINE
  8
0
 10
15.814
 11
15.714
 20
8.277
 21
8.118
  0
LINE
  8
0
 10
15.714
 11
15.593
 20
8.118
 21
7.973
  0
LINE
  8
0
 10
15.593
 11
15.456
 20
7.973
 21
7.844
  0
LINE
  8
0
 10
15.456
 11
15.304
 20
7.844
 21
7.734
  0
LINE
  8
0
 10
15.304
 11
15.139
 20
7.734
 21
7.643
  0
LINE
  8
0
 10
15.139
 11
14.964
 20
7.643
 21
7.573
  0
LINE
  8
0
 10
14.964
 11
14.781
 20
7.573
 21
7.527
  0
LINE
  8
0
 10
14.781
 11
14.594
 20
7.527
 21
7.503
  0
LINE
  8
0
 10
14.594
 11
14.406
 20
7.503
 21
7.503
  0
LINE
  8
0
 10
14.406
 11
14.219
 20
7.503
 21
7.527
  0
LINE
  8
0
 10
14.219
 11
14.036
 20
7.527
 21
7.573
  0
LINE
  8
0
 10
14.036
 11
13.861
 20
7.573
 21
7.643
  0
LINE
  8
0
 10
13.861
 11
13.696
 20
7.643
 21
7.734
  0
LINE
  8
0
 10
13.696
 11
13.544
 20
7.734
 21
7.844
  0
LINE
  8
0
 10
13.544
 11
13.407
 20
7.844
 21
7.973
  0
LINE
  8
0
 10
13.407
 11
13.286
 20
7.973
 21
8.118
  0
LINE
  8
0
 10
13.286
 11
13.186
 20
8.118
 21
8.277
  0
LINE
  8
0
 10
13.186
 11
13.105
 20
8.277
 21
8.448
  0
LINE
  8
0
 10
13.105
 11
13.047
 20
8.448
 21
8.627
  0
LINE
  8
0
 10
13.047
 11
13.012
 20
8.627
 21
8.812
  0
LINE
  8
0
 10
13.012
 11
13
 20
8.812
 21
9
  0
LINE
  8
0
 10
17.5
 11
17.5
 20
-10
 21
-5
  0
LINE
  8
0
 10
17.5
 11
22.5
 20
-5
 21
-5
  0
LINE
  8
0
 10
22.5
 11
22.5
 20
-5
 21
-10
  0
LINE
  8
0
 10
22.5
 11
17.5
 20
-10
 21
-10
  0
LINE
  8
0
 10
17.5
 11
17.5
 20
-2.5
 21
2.5
  0
LINE
  8
0
 10
17.5
 11
22.5
 20
2.5
 21
2.5
  0
LINE
  8
0
 10
22.5
 11
22.5
 20
2.5
 21
-2.5
  0
LINE
  8
0
 10
22.5
 11
17.5
 20
-2.5
 21
-2.5
  0
LINE
  8
0
 10
17.5
 11
17.5
 20
5
 21
10
  0
LINE
  8
0
 10
17.5
 11
22.5
 20
10
 21
10
  0
LINE
  8
0
 10
22.5
 11
22.5
 20
10
 21
5
  0
LINE
  8
0
 10
22.5
 11
17.5
 20
5
 21
5
  0
LINE
  8
0
 10
22.65
 11
22.661
 20
35
 21
35.169
  0
LINE
  8
0
 10
22.661
 11
22.692
 20
35.169
 21
35.336
  0
LINE
  8
0
 10
22.692
 11
22.745
 20
35.336
 21
35.497
  0
LINE
  8
0
 10
22.745
 11
22.817
 20
35.497
 21
35.65
  0
LINE
  8
0
 10
22.817
 11
22.908
 20
35.65
 21
35.794
  0
LINE
  8
0
 10
22.908
 11
23.016
 20
35.794
 21
35.924
  0
LINE
  8
0
 10
23.016
 11
23.139
 20
35.924
 21
36.04
  0
LINE
  8
0
 10
23.139
 11
23.277
 20
36.04
 21
36.14
  0
LINE
  8
0
 10
23.277
 11
23.425
 20
36.14
 21
36.222
  0
LINE
  8
0
 10
23.425
 11
23.583
 20
36.222
 21
36.284
  0
LINE
  8
0
 10
23.583
 11
23.747
 20
36.284
 21
36.326
  0
LINE
  8
0
 10
23.747
 11
23.915
 20
36.326
 21
36.347
  0
LINE
  8
0
 10
23.915
 11
24.085
 20
36.347
 21
36.347
  0
LINE
  8
0
 10
24.085
 11
24.253
 20
36.347
 21
36.326
  0
LINE
  8
0
 10
24.253
 11
24.417
 20
36.326
 21
36.284
  0
LINE
  8
0
 10
24.417
 11
24.575
 20
36.284
 21
36.222
  0
LINE
  8
0
 10
24.575
 11
24.723
 20
36.222
 21
36.14
  0
LINE
  8
0
 10
24.723
 11
24.861
 20
36.14
 21
36.04
  0
LINE
  8
0
 10
24.861
 11
24.984
 20
36.04
 21
35.924
  0
LINE
  8
0
 10
24.984
 11
25.092
 20
35.924
 21
35.794
  0
LINE
  8
0
 10
25.092
 11
25.183
 20
35.794
 21
35.65
  0
LINE
  8
0
 10
25.183
 11
25.255
 20
35.65
 21
35.497
  0
LINE
  8
0
 10
25.255
 11
25.308
 20
35.497
 21
35.336
  0
LINE
  8
0
 10
25.308
 11
25.339
 20
35.336
 21
35.169
  0
LINE
  8
0
 10
25.339
 11
25.35
 20
35.169
 21
35
  0
LINE
  8
0
 10
25.35
 11
25.339
 20
35
 21
34.831
  0
LINE
  8
0
 10
25.339
 11
25.308
 20
34.831
 21
34.664
  0
LINE
  8
0
 10
25.308
 11
25.255
 20
34.664
 21
34.503
  0
LINE
  8
0
 10
25.255
 11
25.183
 20
34.503
 21
34.35
  0
LINE
  8
0
 10
25.183
 11
25.092
 20
34.35
 21
34.206
  0
LINE
  8
0
 10
25.092
 11
24.984
 20
34.206
 21
34.076
  0
LINE
  8
0
 10
24.984
 11
24.861
 20
34.076
 21
33.96
  0
LINE
  8
0
 10
24.861
 11
24.723
 20
33.96
 21
33.86
  0
LINE
  8
0
 10
24.723
 11
24.575
 20
33.86
 21
33.778
  0
LINE
  8
0
 10
24.575
 11
24.417
 20
33.778
 21
33.716
  0
LINE
  8
0
 10
24.417
 11
24.253
 20
33.716
 21
33.674
  0
LINE
  8
0
 10
24.253
 11
24.085
 20
33.674
 21
33.653
  0
LINE
  8
0
 10
24.085
 11
23.915
 20
33.653
 21
33.653
  0
LINE
  8
0
 10
23.915
 11
23.747
 20
33.653
 21
33.674
  0
LINE
  8
0
 10
23.747
 11
23.583
 20
33.674
 21
33.716
  0
LINE
  8
0
 10
23.583
 11
23.425
 20
33.716
 21
33.778
  0
LINE
  8
0
 10
23.425
 11
23.277
 20
33.778
 21
33.86
  0
LINE
  8
0
 10
23.277
 11
23.139
 20
33.86
 21
33.96
  0
LINE
  8
0
 10
23.139
 11
23.016
 20
33.96
 21
34.076
  0
LINE
  8
0
 10
23.016
 11
22.908
 20
34.076
 21
34.206
  0
LINE
  8
0
 10
22.908
 11
22.817
 20
34.206
 21
34.35
  0
LINE
  8
0
 10
22.817
 11
22.745
 20
34.35
 21
34.503
  0
LINE
  8
0
 10
22.745
 11
22.692
 20
34.503
 21
34.664
  0
LINE
  8
0
 10
22.692
 11
22.661
 20
34.664
 21
34.831
  0
LINE
  8
0
 10
22.661
 11
22.65
 20
34.831
 21
35
  0
ENDSEC
  0
SECTION
  2
OBJECTS
  0
DICTIONARY
  0
ENDSEC
  0
EOF
