  0
SECTION
  2
BLOCKS
  0
ENDSEC
  0
SECTION
  2
ENTITIES
  0
LINE
  8
0
 10
-15
 11
-15
 20
-10
 21
-5
  0
LINE
  8
0
 10
-15
 11
-10
 20
-5
 21
-5
  0
LINE
  8
0
 10
-10
 11
-10
 20
-5
 21
-2.5
  0
LINE
  8
0
 10
-10
 11
-15
 20
-2.5
 21
-2.5
  0
LINE
  8
0
 10
-15
 11
-15
 20
-2.5
 21
2.5
  0
LINE
  8
0
 10
-15
 11
-10
 20
2.5
 21
2.5
  0
LINE
  8
0
 10
-10
 11
-10
 20
2.5
 21
5
  0
LINE
  8
0
 10
-10
 11
-15
 20
5
 21
5
  0
LINE
  8
0
 10
-15
 11
-15
 20
5
 21
10
  0
LINE
  8
0
 10
-15
 11
15
 20
10
 21
10
  0
LINE
  8
0
 10
15
 11
15
 20
10
 21
5
  0
LINE
  8
0
 10
15
 11
10
 20
5
 21
5
  0
LINE
  8
0
 10
10
 11
10
 20
5
 21
2.5
  0
LINE
  8
0
 10
10
 11
15
 20
2.5
 21
2.5
  0
LINE
  8
0
 10
15
 11
15
 20
2.5
 21
-2.5
  0
LINE
  8
0
 10
15
 11
10
 20
-2.5
 21
-2.5
  0
LINE
  8
0
 10
10
 11
10
 20
-2.5
 21
-5
  0
LINE
  8
0
 10
10
 11
15
 20
-5
 21
-5
  0
LINE
  8
0
 10
15
 11
15
 20
-5
 21
-10
  0
LINE
  8
0
 10
15
 11
-15
 20
-10
 21
-10
  0
LINE
  8
0
 10
-7.5
 11
-7.441
 20
0
 21
0.94
  0
LINE
  8
0
 10
-7.441
 11
-7.264
 20
0.94
 21
1.865
  0
LINE
  8
0
 10
-7.264
 11
-6.973
 20
1.865
 21
2.761
  0
LINE
  8
0
 10
-6.973
 11
-6.572
 20
2.761
 21
3.613
  0
LINE
  8
0
 10
-6.572
 11
-6.068
 20
3.613
 21
4.408
  0
LINE
  8
0
 10
-6.068
 11
-5.467
 20
4.408
 21
5.134
  0
LINE
  8
0
 10
-5.467
 11
-4.781
 20
5.134
 21
5.779
  0
LINE
  8
0
 10
-4.781
 11
-4.019
 20
5.779
 21
6.332
  0
LINE
  8
0
 10
-4.019
 11
-3.193
 20
6.332
 21
6.786
  0
LINE
  8
0
 10
-3.193
 11
-2.318
 20
6.786
 21
7.133
  0
LINE
  8
0
 10
-2.318
 11
-1.405
 20
7.133
 21
7.367
  0
LINE
  8
0
 10
-1.405
 11
-0.471
 20
7.367
 21
7.485
  0
LINE
  8
0
 10
-0.471
 11
0.471
 20
7.485
 21
7.485
  0
LINE
  8
0
 10
0.471
 11
1.405
 20
7.485
 21
7.367
  0
LINE
  8
0
 10
1.405
 11
2.318
 20
7.367
 21
7.133
  0
LINE
  8
0
 10
2.318
 11
3.193
 20
7.133
 21
6.786
  0
LINE
  8
0
 10
3.193
 11
4.019
 20
6.786
 21
6.332
  0
LINE
  8
0
 10
4.019
 11
4.781
 20
6.332
 21
5.779
  0
LINE
  8
0
 10
4.781
 11
5.467
 20
5.779
 21
5.134
  0
LINE
  8
0
 10
5.467
 11
6.068
 20
5.134
 21
4.408
  0
LINE
  8
0
 10
6.068
 11
6.572
 20
4.408
 21
3.613
  0
LINE
  8
0
 10
6.572
 11
6.973
 20
3.613
 21
2.761
  0
LINE
  8
0
 10
6.973
 11
7.264
 20
2.761
 21
1.865
  0
LINE
  8
0
 10
7.264
 11
7.441
 20
1.865
 21
0.94
  0
LINE
  8
0
 10
7.441
 11
7.5
 20
0.94
 21
0
  0
LINE
  8
0
 10
7.5
 11
7.441
 20
0
 21
-0.94
  0
LINE
  8
0
 10
7.441
 11
7.264
 20
-0.94
 21
-1.865
  0
LINE
  8
0
 10
7.264
 11
6.973
 20
-1.865
 21
-2.761
  0
LINE
  8
0
 10
6.973
 11
6.572
 20
-2.761
 21
-3.613
  0
LINE
  8
0
 10
6.572
 11
6.068
 20
-3.613
 21
-4.408
  0
LINE
  8
0
 10
6.068
 11
5.467
 20
-4.408
 21
-5.134
  0
LINE
  8
0
 10
5.467
 11
4.781
 20
-5.134
 21
-5.779
  0
LINE
  8
0
 10
4.781
 11
4.019
 20
-5.779
 21
-6.332
  0
LINE
  8
0
 10
4.019
 11
3.193
 20
-6.332
 21
-6.786
  0
LINE
  8
0
 10
3.193
 11
2.318
 20
-6.786
 21
-7.133
  0
LINE
  8
0
 10
2.318
 11
1.405
 20
-7.133
 21
-7.367
  0
LINE
  8
0
 10
1.405
 11
0.471
 20
-7.367
 21
-7.485
  0
LINE
  8
0
 10
0.471
 11
-0.471
 20
-7.485
 21
-7.485
  0
LINE
  8
0
 10
-0.471
 11
-1.405
 20
-7.485
 21
-7.367
  0
LINE
  8
0
 10
-1.405
 11
-2.318
 20
-7.367
 21
-7.133
  0
LINE
  8
0
 10
-2.318
 11
-3.193
 20
-7.133
 21
-6.786
  0
LINE
  8
0
 10
-3.193
 11
-4.019
 20
-6.786
 21
-6.332
  0
LINE
  8
0
 10
-4.019
 11
-4.781
 20
-6.332
 21
-5.779
  0
LINE
  8
0
 10
-4.781
 11
-5.467
 20
-5.779
 21
-5.134
  0
LINE
  8
0
 10
-5.467
 11
-6.068
 20
-5.134
 21
-4.408
  0
LINE
  8
0
 10
-6.068
 11
-6.572
 20
-4.408
 21
-3.613
  0
LINE
  8
0
 10
-6.572
 11
-6.973
 20
-3.613
 21
-2.761
  0
LINE
  8
0
 10
-6.973
 11
-7.264
 20
-2.761
 21
-1.865
  0
LINE
  8
0
 10
-7.264
 11
-7.441
 20
-1.865
 21
-0.94
  0
LINE
  8
0
 10
-7.441
 11
-7.5
 20
-0.94
 21
0
  0
ENDSEC
  0
SECTION
  2
OBJECTS
  0
DICTIONARY
  0
ENDSEC
  0
EOF
