  0
SECTION
  2
BLOCKS
  0
ENDSEC
  0
SECTION
  2
ENTITIES
  0
LINE
  8
0
 10
-36.5
 11
-36.488
 20
-9
 21
-8.812
  0
LINE
  8
0
 10
-36.488
 11
-36.453
 20
-8.812
 21
-8.627
  0
LINE
  8
0
 10
-36.453
 11
-36.395
 20
-8.627
 21
-8.448
  0
LINE
  8
0
 10
-36.395
 11
-36.314
 20
-8.448
 21
-8.277
  0
LINE
  8
0
 10
-36.314
 11
-36.214
 20
-8.277
 21
-8.118
  0
LINE
  8
0
 10
-36.214
 11
-36.093
 20
-8.118
 21
-7.973
  0
LINE
  8
0
 10
-36.093
 11
-35.956
 20
-7.973
 21
-7.844
  0
LINE
  8
0
 10
-35.956
 11
-35.804
 20
-7.844
 21
-7.734
  0
LINE
  8
0
 10
-35.804
 11
-35.639
 20
-7.734
 21
-7.643
  0
LINE
  8
0
 10
-35.639
 11
-35.464
 20
-7.643
 21
-7.573
  0
LINE
  8
0
 10
-35.464
 11
-35.281
 20
-7.573
 21
-7.527
  0
LINE
  8
0
 10
-35.281
 11
-35.094
 20
-7.527
 21
-7.503
  0
LINE
  8
0
 10
-35.094
 11
-34.906
 20
-7.503
 21
-7.503
  0
LINE
  8
0
 10
-34.906
 11
-34.719
 20
-7.503
 21
-7.527
  0
LINE
  8
0
 10
-34.719
 11
-34.536
 20
-7.527
 21
-7.573
  0
LINE
  8
0
 10
-34.536
 11
-34.361
 20
-7.573
 21
-7.643
  0
LINE
  8
0
 10
-34.361
 11
-34.196
 20
-7.643
 21
-7.734
  0
LINE
  8
0
 10
-34.196
 11
-34.044
 20
-7.734
 21
-7.844
  0
LINE
  8
0
 10
-34.044
 11
-33.907
 20
-7.844
 21
-7.973
  0
LINE
  8
0
 10
-33.907
 11
-33.786
 20
-7.973
 21
-8.118
  0
LINE
  8
0
 10
-33.786
 11
-33.686
 20
-8.118
 21
-8.277
  0
LINE
  8
0
 10
-33.686
 11
-33.605
 20
-8.277
 21
-8.448
  0
LINE
  8
0
 10
-33.605
 11
-33.547
 20
-8.448
 21
-8.627
  0
LINE
  8
0
 10
-33.547
 11
-33.512
 20
-8.627
 21
-8.812
  0
LINE
  8
0
 10
-33.512
 11
-33.5
 20
-8.812
 21
-9
  0
LINE
  8
0
 10
-33.5
 11
-33.512
 20
-9
 21
-9.188
  0
LINE
  8
0
 10
-33.512
 11
-33.547
 20
-9.188
 21
-9.373
  0
LINE
  8
0
 10
-33.547
 11
-33.605
 20
-9.373
 21
-9.552
  0
LINE
  8
0
 10
-33.605
 11
-33.686
 20
-9.552
 21
-9.723
  0
LINE
  8
0
 10
-33.686
 11
-33.786
 20
-9.723
 21
-9.882
  0
LINE
  8
0
 10
-33.786
 11
-33.907
 20
-9.882
 21
-10.027
  0
LINE
  8
0
 10
-33.907
 11
-34.044
 20
-10.027
 21
-10.156
  0
LINE
  8
0
 10
-34.044
 11
-34.196
 20
-10.156
 21
-10.266
  0
LINE
  8
0
 10
-34.196
 11
-34.361
 20
-10.266
 21
-10.357
  0
LINE
  8
0
 10
-34.361
 11
-34.536
 20
-10.357
 21
-10.427
  0
LINE
  8
0
 10
-34.536
 11
-34.719
 20
-10.427
 21
-10.473
  0
LINE
  8
0
 10
-34.719
 11
-34.906
 20
-10.473
 21
-10.497
  0
LINE
  8
0
 10
-34.906
 11
-35.094
 20
-10.497
 21
-10.497
  0
LINE
  8
0
 10
-35.094
 11
-35.281
 20
-10.497
 21
-10.473
  0
LINE
  8
0
 10
-35.281
 11
-35.464
 20
-10.473
 21
-10.427
  0
LINE
  8
0
 10
-35.464
 11
-35.639
 20
-10.427
 21
-10.357
  0
LINE
  8
0
 10
-35.639
 11
-35.804
 20
-10.357
 21
-10.266
  0
LINE
  8
0
 10
-35.804
 11
-35.956
 20
-10.266
 21
-10.156
  0
LINE
  8
0
 10
-35.956
 11
-36.093
 20
-10.156
 21
-10.027
  0
LINE
  8
0
 10
-36.093
 11
-36.214
 20
-10.027
 21
-9.882
  0
LINE
  8
0
 10
-36.214
 11
-36.314
 20
-9.882
 21
-9.723
  0
LINE
  8
0
 10
-36.314
 11
-36.395
 20
-9.723
 21
-9.552
  0
LINE
  8
0
 10
-36.395
 11
-36.453
 20
-9.552
 21
-9.373
  0
LINE
  8
0
 10
-36.453
 11
-36.488
 20
-9.373
 21
-9.188
  0
LINE
  8
0
 10
-36.488
 11
-36.5
 20
-9.188
 21
-9
  0
LINE
  8
0
 10
-36.5
 11
-36.488
 20
9
 21
9.188
  0
LINE
  8
0
 10
-36.488
 11
-36.453
 20
9.188
 21
9.373
  0
LINE
  8
0
 10
-36.453
 11
-36.395
 20
9.373
 21
9.552
  0
LINE
  8
0
 10
-36.395
 11
-36.314
 20
9.552
 21
9.723
  0
LINE
  8
0
 10
-36.314
 11
-36.214
 20
9.723
 21
9.882
  0
LINE
  8
0
 10
-36.214
 11
-36.093
 20
9.882
 21
10.027
  0
LINE
  8
0
 10
-36.093
 11
-35.956
 20
10.027
 21
10.156
  0
LINE
  8
0
 10
-35.956
 11
-35.804
 20
10.156
 21
10.266
  0
LINE
  8
0
 10
-35.804
 11
-35.639
 20
10.266
 21
10.357
  0
LINE
  8
0
 10
-35.639
 11
-35.464
 20
10.357
 21
10.427
  0
LINE
  8
0
 10
-35.464
 11
-35.281
 20
10.427
 21
10.473
  0
LINE
  8
0
 10
-35.281
 11
-35.094
 20
10.473
 21
10.497
  0
LINE
  8
0
 10
-35.094
 11
-34.906
 20
10.497
 21
10.497
  0
LINE
  8
0
 10
-34.906
 11
-34.719
 20
10.497
 21
10.473
  0
LINE
  8
0
 10
-34.719
 11
-34.536
 20
10.473
 21
10.427
  0
LINE
  8
0
 10
-34.536
 11
-34.361
 20
10.427
 21
10.357
  0
LINE
  8
0
 10
-34.361
 11
-34.196
 20
10.357
 21
10.266
  0
LINE
  8
0
 10
-34.196
 11
-34.044
 20
10.266
 21
10.156
  0
LINE
  8
0
 10
-34.044
 11
-33.907
 20
10.156
 21
10.027
  0
LINE
  8
0
 10
-33.907
 11
-33.786
 20
10.027
 21
9.882
  0
LINE
  8
0
 10
-33.786
 11
-33.686
 20
9.882
 21
9.723
  0
LINE
  8
0
 10
-33.686
 11
-33.605
 20
9.723
 21
9.552
  0
LINE
  8
0
 10
-33.605
 11
-33.547
 20
9.552
 21
9.373
  0
LINE
  8
0
 10
-33.547
 11
-33.512
 20
9.373
 21
9.188
  0
LINE
  8
0
 10
-33.512
 11
-33.5
 20
9.188
 21
9
  0
LINE
  8
0
 10
-33.5
 11
-33.512
 20
9
 21
8.812
  0
LINE
  8
0
 10
-33.512
 11
-33.547
 20
8.812
 21
8.627
  0
LINE
  8
0
 10
-33.547
 11
-33.605
 20
8.627
 21
8.448
  0
LINE
  8
0
 10
-33.605
 11
-33.686
 20
8.448
 21
8.277
  0
LINE
  8
0
 10
-33.686
 11
-33.786
 20
8.277
 21
8.118
  0
LINE
  8
0
 10
-33.786
 11
-33.907
 20
8.118
 21
7.973
  0
LINE
  8
0
 10
-33.907
 11
-34.044
 20
7.973
 21
7.844
  0
LINE
  8
0
 10
-34.044
 11
-34.196
 20
7.844
 21
7.734
  0
LINE
  8
0
 10
-34.196
 11
-34.361
 20
7.734
 21
7.643
  0
LINE
  8
0
 10
-34.361
 11
-34.536
 20
7.643
 21
7.573
  0
LINE
  8
0
 10
-34.536
 11
-34.719
 20
7.573
 21
7.527
  0
LINE
  8
0
 10
-34.719
 11
-34.906
 20
7.527
 21
7.503
  0
LINE
  8
0
 10
-34.906
 11
-35.094
 20
7.503
 21
7.503
  0
LINE
  8
0
 10
-35.094
 11
-35.281
 20
7.503
 21
7.527
  0
LINE
  8
0
 10
-35.281
 11
-35.464
 20
7.527
 21
7.573
  0
LINE
  8
0
 10
-35.464
 11
-35.639
 20
7.573
 21
7.643
  0
LINE
  8
0
 10
-35.639
 11
-35.804
 20
7.643
 21
7.734
  0
LINE
  8
0
 10
-35.804
 11
-35.956
 20
7.734
 21
7.844
  0
LINE
  8
0
 10
-35.956
 11
-36.093
 20
7.844
 21
7.973
  0
LINE
  8
0
 10
-36.093
 11
-36.214
 20
7.973
 21
8.118
  0
LINE
  8
0
 10
-36.214
 11
-36.314
 20
8.118
 21
8.277
  0
LINE
  8
0
 10
-36.314
 11
-36.395
 20
8.277
 21
8.448
  0
LINE
  8
0
 10
-36.395
 11
-36.453
 20
8.448
 21
8.627
  0
LINE
  8
0
 10
-36.453
 11
-36.488
 20
8.627
 21
8.812
  0
LINE
  8
0
 10
-36.488
 11
-36.5
 20
8.812
 21
9
  0
LINE
  8
0
 10
-38.5
 11
-38.5
 20
-12.5
 21
12.5
  0
LINE
  8
0
 10
-38.5
 11
-26.5
 20
12.5
 21
12.5
  0
LINE
  8
0
 10
-26.5
 11
-26.5
 20
12.5
 21
15.1
  0
LINE
  8
0
 10
-26.5
 11
-23.825
 20
15.1
 21
15.1
  0
LINE
  8
0
 10
-23.825
 11
-23.825
 20
15.1
 21
13.85
  0
LINE
  8
0
 10
-23.825
 11
-22.175
 20
13.85
 21
13.85
  0
LINE
  8
0
 10
-22.175
 11
-22.175
 20
13.85
 21
15.1
  0
LINE
  8
0
 10
-22.175
 11
-20
 20
15.1
 21
15.1
  0
LINE
  8
0
 10
-20
 11
-20
 20
15.1
 21
17.9
  0
LINE
  8
0
 10
-20
 11
-22.175
 20
17.9
 21
17.9
  0
LINE
  8
0
 10
-22.175
 11
-22.175
 20
17.9
 21
19.15
  0
LINE
  8
0
 10
-22.175
 11
-23.825
 20
19.15
 21
19.15
  0
LINE
  8
0
 10
-23.825
 11
-23.825
 20
19.15
 21
17.9
  0
LINE
  8
0
 10
-23.825
 11
-26.5
 20
17.9
 21
17.9
  0
LINE
  8
0
 10
-26.5
 11
-26.5
 20
17.9
 21
22.5
  0
LINE
  8
0
 10
-26.5
 11
-14
 20
22.5
 21
22.5
  0
LINE
  8
0
 10
-14
 11
-14
 20
22.5
 21
12.5
  0
LINE
  8
0
 10
-14
 11
14
 20
12.5
 21
12.5
  0
LINE
  8
0
 10
14
 11
14
 20
12.5
 21
22.5
  0
LINE
  8
0
 10
14
 11
26.5
 20
22.5
 21
22.5
  0
LINE
  8
0
 10
26.5
 11
26.5
 20
22.5
 21
17.9
  0
LINE
  8
0
 10
26.5
 11
23.825
 20
17.9
 21
17.9
  0
LINE
  8
0
 10
23.825
 11
23.825
 20
17.9
 21
19.15
  0
LINE
  8
0
 10
23.825
 11
22.175
 20
19.15
 21
19.15
  0
LINE
  8
0
 10
22.175
 11
22.175
 20
19.15
 21
17.9
  0
LINE
  8
0
 10
22.175
 11
20
 20
17.9
 21
17.9
  0
LINE
  8
0
 10
20
 11
20
 20
17.9
 21
15.1
  0
LINE
  8
0
 10
20
 11
22.175
 20
15.1
 21
15.1
  0
LINE
  8
0
 10
22.175
 11
22.175
 20
15.1
 21
13.85
  0
LINE
  8
0
 10
22.175
 11
23.825
 20
13.85
 21
13.85
  0
LINE
  8
0
 10
23.825
 11
23.825
 20
13.85
 21
15.1
  0
LINE
  8
0
 10
23.825
 11
26.5
 20
15.1
 21
15.1
  0
LINE
  8
0
 10
26.5
 11
26.5
 20
15.1
 21
12.5
  0
LINE
  8
0
 10
26.5
 11
38.5
 20
12.5
 21
12.5
  0
LINE
  8
0
 10
38.5
 11
38.5
 20
12.5
 21
-12.5
  0
LINE
  8
0
 10
38.5
 11
33.5
 20
-12.5
 21
-12.5
  0
LINE
  8
0
 10
33.5
 11
33.5
 20
-12.5
 21
-24.5
  0
LINE
  8
0
 10
33.5
 11
16.5
 20
-24.5
 21
-24.5
  0
LINE
  8
0
 10
16.5
 11
16.5
 20
-24.5
 21
-12.5
  0
LINE
  8
0
 10
16.5
 11
-16.5
 20
-12.5
 21
-12.5
  0
LINE
  8
0
 10
-16.5
 11
-16.5
 20
-12.5
 21
-24.5
  0
LINE
  8
0
 10
-16.5
 11
-33.5
 20
-24.5
 21
-24.5
  0
LINE
  8
0
 10
-33.5
 11
-33.5
 20
-24.5
 21
-12.5
  0
LINE
  8
0
 10
-33.5
 11
-38.5
 20
-12.5
 21
-12.5
  0
LINE
  8
0
 10
-31.5
 11
-31.5
 20
-10
 21
-5
  0
LINE
  8
0
 10
-31.5
 11
-26.5
 20
-5
 21
-5
  0
LINE
  8
0
 10
-26.5
 11
-26.5
 20
-5
 21
-10
  0
LINE
  8
0
 10
-26.5
 11
-31.5
 20
-10
 21
-10
  0
LINE
  8
0
 10
-31.5
 11
-31.5
 20
-2.5
 21
2.5
  0
LINE
  8
0
 10
-31.5
 11
-26.5
 20
2.5
 21
2.5
  0
LINE
  8
0
 10
-26.5
 11
-26.5
 20
2.5
 21
-2.5
  0
LINE
  8
0
 10
-26.5
 11
-31.5
 20
-2.5
 21
-2.5
  0
LINE
  8
0
 10
-31.5
 11
-31.5
 20
5
 21
10
  0
LINE
  8
0
 10
-31.5
 11
-26.5
 20
10
 21
10
  0
LINE
  8
0
 10
-26.5
 11
-26.5
 20
10
 21
5
  0
LINE
  8
0
 10
-26.5
 11
-31.5
 20
5
 21
5
  0
LINE
  8
0
 10
-29
 11
-28.968
 20
-17.5
 21
-16.999
  0
LINE
  8
0
 10
-28.968
 11
-28.874
 20
-16.999
 21
-16.505
  0
LINE
  8
0
 10
-28.874
 11
-28.719
 20
-16.505
 21
-16.028
  0
LINE
  8
0
 10
-28.719
 11
-28.505
 20
-16.028
 21
-15.573
  0
LINE
  8
0
 10
-28.505
 11
-28.236
 20
-15.573
 21
-15.149
  0
LINE
  8
0
 10
-28.236
 11
-27.916
 20
-15.149
 21
-14.762
  0
LINE
  8
0
 10
-27.916
 11
-27.55
 20
-14.762
 21
-14.418
  0
LINE
  8
0
 10
-27.55
 11
-27.143
 20
-14.418
 21
-14.123
  0
LINE
  8
0
 10
-27.143
 11
-26.703
 20
-14.123
 21
-13.881
  0
LINE
  8
0
 10
-26.703
 11
-26.236
 20
-13.881
 21
-13.696
  0
LINE
  8
0
 10
-26.236
 11
-25.75
 20
-13.696
 21
-13.571
  0
LINE
  8
0
 10
-25.75
 11
-25.251
 20
-13.571
 21
-13.508
  0
LINE
  8
0
 10
-25.251
 11
-24.749
 20
-13.508
 21
-13.508
  0
LINE
  8
0
 10
-24.749
 11
-24.25
 20
-13.508
 21
-13.571
  0
LINE
  8
0
 10
-24.25
 11
-23.764
 20
-13.571
 21
-13.696
  0
LINE
  8
0
 10
-23.764
 11
-23.297
 20
-13.696
 21
-13.881
  0
LINE
  8
0
 10
-23.297
 11
-22.857
 20
-13.881
 21
-14.123
  0
LINE
  8
0
 10
-22.857
 11
-22.45
 20
-14.123
 21
-14.418
  0
LINE
  8
0
 10
-22.45
 11
-22.084
 20
-14.418
 21
-14.762
  0
LINE
  8
0
 10
-22.084
 11
-21.764
 20
-14.762
 21
-15.149
  0
LINE
  8
0
 10
-21.764
 11
-21.495
 20
-15.149
 21
-15.573
  0
LINE
  8
0
 10
-21.495
 11
-21.281
 20
-15.573
 21
-16.028
  0
LINE
  8
0
 10
-21.281
 11
-21.126
 20
-16.028
 21
-16.505
  0
LINE
  8
0
 10
-21.126
 11
-21.032
 20
-16.505
 21
-16.999
  0
LINE
  8
0
 10
-21.032
 11
-21
 20
-16.999
 21
-17.5
  0
LINE
  8
0
 10
-21
 11
-21.032
 20
-17.5
 21
-18.001
  0
LINE
  8
0
 10
-21.032
 11
-21.126
 20
-18.001
 21
-18.495
  0
LINE
  8
0
 10
-21.126
 11
-21.281
 20
-18.495
 21
-18.972
  0
LINE
  8
0
 10
-21.281
 11
-21.495
 20
-18.972
 21
-19.427
  0
LINE
  8
0
 10
-21.495
 11
-21.764
 20
-19.427
 21
-19.851
  0
LINE
  8
0
 10
-21.764
 11
-22.084
 20
-19.851
 21
-20.238
  0
LINE
  8
0
 10
-22.084
 11
-22.45
 20
-20.238
 21
-20.582
  0
LINE
  8
0
 10
-22.45
 11
-22.857
 20
-20.582
 21
-20.877
  0
LINE
  8
0
 10
-22.857
 11
-23.297
 20
-20.877
 21
-21.119
  0
LINE
  8
0
 10
-23.297
 11
-23.764
 20
-21.119
 21
-21.304
  0
LINE
  8
0
 10
-23.764
 11
-24.25
 20
-21.304
 21
-21.429
  0
LINE
  8
0
 10
-24.25
 11
-24.749
 20
-21.429
 21
-21.492
  0
LINE
  8
0
 10
-24.749
 11
-25.251
 20
-21.492
 21
-21.492
  0
LINE
  8
0
 10
-25.251
 11
-25.75
 20
-21.492
 21
-21.429
  0
LINE
  8
0
 10
-25.75
 11
-26.236
 20
-21.429
 21
-21.304
  0
LINE
  8
0
 10
-26.236
 11
-26.703
 20
-21.304
 21
-21.119
  0
LINE
  8
0
 10
-26.703
 11
-27.143
 20
-21.119
 21
-20.877
  0
LINE
  8
0
 10
-27.143
 11
-27.55
 20
-20.877
 21
-20.582
  0
LINE
  8
0
 10
-27.55
 11
-27.916
 20
-20.582
 21
-20.238
  0
LINE
  8
0
 10
-27.916
 11
-28.236
 20
-20.238
 21
-19.851
  0
LINE
  8
0
 10
-28.236
 11
-28.505
 20
-19.851
 21
-19.427
  0
LINE
  8
0
 10
-28.505
 11
-28.719
 20
-19.427
 21
-18.972
  0
LINE
  8
0
 10
-28.719
 11
-28.874
 20
-18.972
 21
-18.495
  0
LINE
  8
0
 10
-28.874
 11
-28.968
 20
-18.495
 21
-18.001
  0
LINE
  8
0
 10
-28.968
 11
-29
 20
-18.001
 21
-17.5
  0
LINE
  8
0
 10
-22.5
 11
-22.5
 20
-10
 21
-5
  0
LINE
  8
0
 10
-22.5
 11
-17.5
 20
-5
 21
-5
  0
LINE
  8
0
 10
-17.5
 11
-17.5
 20
-5
 21
-10
  0
LINE
  8
0
 10
-17.5
 11
-22.5
 20
-10
 21
-10
  0
LINE
  8
0
 10
-22.5
 11
-22.5
 20
-2.5
 21
2.5
  0
LINE
  8
0
 10
-22.5
 11
-17.5
 20
2.5
 21
2.5
  0
LINE
  8
0
 10
-17.5
 11
-17.5
 20
2.5
 21
-2.5
  0
LINE
  8
0
 10
-17.5
 11
-22.5
 20
-2.5
 21
-2.5
  0
LINE
  8
0
 10
-22.5
 11
-22.5
 20
5
 21
10
  0
LINE
  8
0
 10
-22.5
 11
-17.5
 20
10
 21
10
  0
LINE
  8
0
 10
-17.5
 11
-17.5
 20
10
 21
5
  0
LINE
  8
0
 10
-17.5
 11
-22.5
 20
5
 21
5
  0
LINE
  8
0
 10
-16
 11
-15.988
 20
-9
 21
-8.812
  0
LINE
  8
0
 10
-15.988
 11
-15.953
 20
-8.812
 21
-8.627
  0
LINE
  8
0
 10
-15.953
 11
-15.895
 20
-8.627
 21
-8.448
  0
LINE
  8
0
 10
-15.895
 11
-15.814
 20
-8.448
 21
-8.277
  0
LINE
  8
0
 10
-15.814
 11
-15.714
 20
-8.277
 21
-8.118
  0
LINE
  8
0
 10
-15.714
 11
-15.593
 20
-8.118
 21
-7.973
  0
LINE
  8
0
 10
-15.593
 11
-15.456
 20
-7.973
 21
-7.844
  0
LINE
  8
0
 10
-15.456
 11
-15.304
 20
-7.844
 21
-7.734
  0
LINE
  8
0
 10
-15.304
 11
-15.139
 20
-7.734
 21
-7.643
  0
LINE
  8
0
 10
-15.139
 11
-14.964
 20
-7.643
 21
-7.573
  0
LINE
  8
0
 10
-14.964
 11
-14.781
 20
-7.573
 21
-7.527
  0
LINE
  8
0
 10
-14.781
 11
-14.594
 20
-7.527
 21
-7.503
  0
LINE
  8
0
 10
-14.594
 11
-14.406
 20
-7.503
 21
-7.503
  0
LINE
  8
0
 10
-14.406
 11
-14.219
 20
-7.503
 21
-7.527
  0
LINE
  8
0
 10
-14.219
 11
-14.036
 20
-7.527
 21
-7.573
  0
LINE
  8
0
 10
-14.036
 11
-13.861
 20
-7.573
 21
-7.643
  0
LINE
  8
0
 10
-13.861
 11
-13.696
 20
-7.643
 21
-7.734
  0
LINE
  8
0
 10
-13.696
 11
-13.544
 20
-7.734
 21
-7.844
  0
LINE
  8
0
 10
-13.544
 11
-13.407
 20
-7.844
 21
-7.973
  0
LINE
  8
0
 10
-13.407
 11
-13.286
 20
-7.973
 21
-8.118
  0
LINE
  8
0
 10
-13.286
 11
-13.186
 20
-8.118
 21
-8.277
  0
LINE
  8
0
 10
-13.186
 11
-13.105
 20
-8.277
 21
-8.448
  0
LINE
  8
0
 10
-13.105
 11
-13.047
 20
-8.448
 21
-8.627
  0
LINE
  8
0
 10
-13.047
 11
-13.012
 20
-8.627
 21
-8.812
  0
LINE
  8
0
 10
-13.012
 11
-13
 20
-8.812
 21
-9
  0
LINE
  8
0
 10
-13
 11
-13.012
 20
-9
 21
-9.188
  0
LINE
  8
0
 10
-13.012
 11
-13.047
 20
-9.188
 21
-9.373
  0
LINE
  8
0
 10
-13.047
 11
-13.105
 20
-9.373
 21
-9.552
  0
LINE
  8
0
 10
-13.105
 11
-13.186
 20
-9.552
 21
-9.723
  0
LINE
  8
0
 10
-13.186
 11
-13.286
 20
-9.723
 21
-9.882
  0
LINE
  8
0
 10
-13.286
 11
-13.407
 20
-9.882
 21
-10.027
  0
LINE
  8
0
 10
-13.407
 11
-13.544
 20
-10.027
 21
-10.156
  0
LINE
  8
0
 10
-13.544
 11
-13.696
 20
-10.156
 21
-10.266
  0
LINE
  8
0
 10
-13.696
 11
-13.861
 20
-10.266
 21
-10.357
  0
LINE
  8
0
 10
-13.861
 11
-14.036
 20
-10.357
 21
-10.427
  0
LINE
  8
0
 10
-14.036
 11
-14.219
 20
-10.427
 21
-10.473
  0
LINE
  8
0
 10
-14.219
 11
-14.406
 20
-10.473
 21
-10.497
  0
LINE
  8
0
 10
-14.406
 11
-14.594
 20
-10.497
 21
-10.497
  0
LINE
  8
0
 10
-14.594
 11
-14.781
 20
-10.497
 21
-10.473
  0
LINE
  8
0
 10
-14.781
 11
-14.964
 20
-10.473
 21
-10.427
  0
LINE
  8
0
 10
-14.964
 11
-15.139
 20
-10.427
 21
-10.357
  0
LINE
  8
0
 10
-15.139
 11
-15.304
 20
-10.357
 21
-10.266
  0
LINE
  8
0
 10
-15.304
 11
-15.456
 20
-10.266
 21
-10.156
  0
LINE
  8
0
 10
-15.456
 11
-15.593
 20
-10.156
 21
-10.027
  0
LINE
  8
0
 10
-15.593
 11
-15.714
 20
-10.027
 21
-9.882
  0
LINE
  8
0
 10
-15.714
 11
-15.814
 20
-9.882
 21
-9.723
  0
LINE
  8
0
 10
-15.814
 11
-15.895
 20
-9.723
 21
-9.552
  0
LINE
  8
0
 10
-15.895
 11
-15.953
 20
-9.552
 21
-9.373
  0
LINE
  8
0
 10
-15.953
 11
-15.988
 20
-9.373
 21
-9.188
  0
LINE
  8
0
 10
-15.988
 11
-16
 20
-9.188
 21
-9
  0
LINE
  8
0
 10
-16
 11
-15.988
 20
9
 21
9.188
  0
LINE
  8
0
 10
-15.988
 11
-15.953
 20
9.188
 21
9.373
  0
LINE
  8
0
 10
-15.953
 11
-15.895
 20
9.373
 21
9.552
  0
LINE
  8
0
 10
-15.895
 11
-15.814
 20
9.552
 21
9.723
  0
LINE
  8
0
 10
-15.814
 11
-15.714
 20
9.723
 21
9.882
  0
LINE
  8
0
 10
-15.714
 11
-15.593
 20
9.882
 21
10.027
  0
LINE
  8
0
 10
-15.593
 11
-15.456
 20
10.027
 21
10.156
  0
LINE
  8
0
 10
-15.456
 11
-15.304
 20
10.156
 21
10.266
  0
LINE
  8
0
 10
-15.304
 11
-15.139
 20
10.266
 21
10.357
  0
LINE
  8
0
 10
-15.139
 11
-14.964
 20
10.357
 21
10.427
  0
LINE
  8
0
 10
-14.964
 11
-14.781
 20
10.427
 21
10.473
  0
LINE
  8
0
 10
-14.781
 11
-14.594
 20
10.473
 21
10.497
  0
LINE
  8
0
 10
-14.594
 11
-14.406
 20
10.497
 21
10.497
  0
LINE
  8
0
 10
-14.406
 11
-14.219
 20
10.497
 21
10.473
  0
LINE
  8
0
 10
-14.219
 11
-14.036
 20
10.473
 21
10.427
  0
LINE
  8
0
 10
-14.036
 11
-13.861
 20
10.427
 21
10.357
  0
LINE
  8
0
 10
-13.861
 11
-13.696
 20
10.357
 21
10.266
  0
LINE
  8
0
 10
-13.696
 11
-13.544
 20
10.266
 21
10.156
  0
LINE
  8
0
 10
-13.544
 11
-13.407
 20
10.156
 21
10.027
  0
LINE
  8
0
 10
-13.407
 11
-13.286
 20
10.027
 21
9.882
  0
LINE
  8
0
 10
-13.286
 11
-13.186
 20
9.882
 21
9.723
  0
LINE
  8
0
 10
-13.186
 11
-13.105
 20
9.723
 21
9.552
  0
LINE
  8
0
 10
-13.105
 11
-13.047
 20
9.552
 21
9.373
  0
LINE
  8
0
 10
-13.047
 11
-13.012
 20
9.373
 21
9.188
  0
LINE
  8
0
 10
-13.012
 11
-13
 20
9.188
 21
9
  0
LINE
  8
0
 10
-13
 11
-13.012
 20
9
 21
8.812
  0
LINE
  8
0
 10
-13.012
 11
-13.047
 20
8.812
 21
8.627
  0
LINE
  8
0
 10
-13.047
 11
-13.105
 20
8.627
 21
8.448
  0
LINE
  8
0
 10
-13.105
 11
-13.186
 20
8.448
 21
8.277
  0
LINE
  8
0
 10
-13.186
 11
-13.286
 20
8.277
 21
8.118
  0
LINE
  8
0
 10
-13.286
 11
-13.407
 20
8.118
 21
7.973
  0
LINE
  8
0
 10
-13.407
 11
-13.544
 20
7.973
 21
7.844
  0
LINE
  8
0
 10
-13.544
 11
-13.696
 20
7.844
 21
7.734
  0
LINE
  8
0
 10
-13.696
 11
-13.861
 20
7.734
 21
7.643
  0
LINE
  8
0
 10
-13.861
 11
-14.036
 20
7.643
 21
7.573
  0
LINE
  8
0
 10
-14.036
 11
-14.219
 20
7.573
 21
7.527
  0
LINE
  8
0
 10
-14.219
 11
-14.406
 20
7.527
 21
7.503
  0
LINE
  8
0
 10
-14.406
 11
-14.594
 20
7.503
 21
7.503
  0
LINE
  8
0
 10
-14.594
 11
-14.781
 20
7.503
 21
7.527
  0
LINE
  8
0
 10
-14.781
 11
-14.964
 20
7.527
 21
7.573
  0
LINE
  8
0
 10
-14.964
 11
-15.139
 20
7.573
 21
7.643
  0
LINE
  8
0
 10
-15.139
 11
-15.304
 20
7.643
 21
7.734
  0
LINE
  8
0
 10
-15.304
 11
-15.456
 20
7.734
 21
7.844
  0
LINE
  8
0
 10
-15.456
 11
-15.593
 20
7.844
 21
7.973
  0
LINE
  8
0
 10
-15.593
 11
-15.714
 20
7.973
 21
8.118
  0
LINE
  8
0
 10
-15.714
 11
-15.814
 20
8.118
 21
8.277
  0
LINE
  8
0
 10
-15.814
 11
-15.895
 20
8.277
 21
8.448
  0
LINE
  8
0
 10
-15.895
 11
-15.953
 20
8.448
 21
8.627
  0
LINE
  8
0
 10
-15.953
 11
-15.988
 20
8.627
 21
8.812
  0
LINE
  8
0
 10
-15.988
 11
-16
 20
8.812
 21
9
  0
LINE
  8
0
 10
-11.5
 11
-11.5
 20
-10
 21
-5
  0
LINE
  8
0
 10
-11.5
 11
-6.5
 20
-5
 21
-5
  0
LINE
  8
0
 10
-6.5
 11
-6.5
 20
-5
 21
-10
  0
LINE
  8
0
 10
-6.5
 11
-11.5
 20
-10
 21
-10
  0
LINE
  8
0
 10
-11.5
 11
-11.5
 20
-2.5
 21
2.5
  0
LINE
  8
0
 10
-11.5
 11
-6.5
 20
2.5
 21
2.5
  0
LINE
  8
0
 10
-6.5
 11
-6.5
 20
2.5
 21
-2.5
  0
LINE
  8
0
 10
-6.5
 11
-11.5
 20
-2.5
 21
-2.5
  0
LINE
  8
0
 10
-11.5
 11
-11.5
 20
5
 21
10
  0
LINE
  8
0
 10
-11.5
 11
-6.5
 20
10
 21
10
  0
LINE
  8
0
 10
-6.5
 11
-6.5
 20
10
 21
5
  0
LINE
  8
0
 10
-6.5
 11
-11.5
 20
5
 21
5
  0
LINE
  8
0
 10
-2.5
 11
-2.5
 20
-10
 21
-5
  0
LINE
  8
0
 10
-2.5
 11
2.5
 20
-5
 21
-5
  0
LINE
  8
0
 10
2.5
 11
2.5
 20
-5
 21
-10
  0
LINE
  8
0
 10
2.5
 11
-2.5
 20
-10
 21
-10
  0
LINE
  8
0
 10
-2.5
 11
-2.5
 20
-2.5
 21
2.5
  0
LINE
  8
0
 10
-2.5
 11
2.5
 20
2.5
 21
2.5
  0
LINE
  8
0
 10
2.5
 11
2.5
 20
2.5
 21
-2.5
  0
LINE
  8
0
 10
2.5
 11
-2.5
 20
-2.5
 21
-2.5
  0
LINE
  8
0
 10
-2.5
 11
-2.5
 20
5
 21
10
  0
LINE
  8
0
 10
-2.5
 11
2.5
 20
10
 21
10
  0
LINE
  8
0
 10
2.5
 11
2.5
 20
10
 21
5
  0
LINE
  8
0
 10
2.5
 11
-2.5
 20
5
 21
5
  0
LINE
  8
0
 10
6.5
 11
6.5
 20
-10
 21
-5
  0
LINE
  8
0
 10
6.5
 11
11.5
 20
-5
 21
-5
  0
LINE
  8
0
 10
11.5
 11
11.5
 20
-5
 21
-10
  0
LINE
  8
0
 10
11.5
 11
6.5
 20
-10
 21
-10
  0
LINE
  8
0
 10
6.5
 11
6.5
 20
-2.5
 21
2.5
  0
LINE
  8
0
 10
6.5
 11
11.5
 20
2.5
 21
2.5
  0
LINE
  8
0
 10
11.5
 11
11.5
 20
2.5
 21
-2.5
  0
LINE
  8
0
 10
11.5
 11
6.5
 20
-2.5
 21
-2.5
  0
LINE
  8
0
 10
6.5
 11
6.5
 20
5
 21
10
  0
LINE
  8
0
 10
6.5
 11
11.5
 20
10
 21
10
  0
LINE
  8
0
 10
11.5
 11
11.5
 20
10
 21
5
  0
LINE
  8
0
 10
11.5
 11
6.5
 20
5
 21
5
  0
LINE
  8
0
 10
13
 11
13.012
 20
-9
 21
-8.812
  0
LINE
  8
0
 10
13.012
 11
13.047
 20
-8.812
 21
-8.627
  0
LINE
  8
0
 10
13.047
 11
13.105
 20
-8.627
 21
-8.448
  0
LINE
  8
0
 10
13.105
 11
13.186
 20
-8.448
 21
-8.277
  0
LINE
  8
0
 10
13.186
 11
13.286
 20
-8.277
 21
-8.118
  0
LINE
  8
0
 10
13.286
 11
13.407
 20
-8.118
 21
-7.973
  0
LINE
  8
0
 10
13.407
 11
13.544
 20
-7.973
 21
-7.844
  0
LINE
  8
0
 10
13.544
 11
13.696
 20
-7.844
 21
-7.734
  0
LINE
  8
0
 10
13.696
 11
13.861
 20
-7.734
 21
-7.643
  0
LINE
  8
0
 10
13.861
 11
14.036
 20
-7.643
 21
-7.573
  0
LINE
  8
0
 10
14.036
 11
14.219
 20
-7.573
 21
-7.527
  0
LINE
  8
0
 10
14.219
 11
14.406
 20
-7.527
 21
-7.503
  0
LINE
  8
0
 10
14.406
 11
14.594
 20
-7.503
 21
-7.503
  0
LINE
  8
0
 10
14.594
 11
14.781
 20
-7.503
 21
-7.527
  0
LINE
  8
0
 10
14.781
 11
14.964
 20
-7.527
 21
-7.573
  0
LINE
  8
0
 10
14.964
 11
15.139
 20
-7.573
 21
-7.643
  0
LINE
  8
0
 10
15.139
 11
15.304
 20
-7.643
 21
-7.734
  0
LINE
  8
0
 10
15.304
 11
15.456
 20
-7.734
 21
-7.844
  0
LINE
  8
0
 10
15.456
 11
15.593
 20
-7.844
 21
-7.973
  0
LINE
  8
0
 10
15.593
 11
15.714
 20
-7.973
 21
-8.118
  0
LINE
  8
0
 10
15.714
 11
15.814
 20
-8.118
 21
-8.277
  0
LINE
  8
0
 10
15.814
 11
15.895
 20
-8.277
 21
-8.448
  0
LINE
  8
0
 10
15.895
 11
15.953
 20
-8.448
 21
-8.627
  0
LINE
  8
0
 10
15.953
 11
15.988
 20
-8.627
 21
-8.812
  0
LINE
  8
0
 10
15.988
 11
16
 20
-8.812
 21
-9
  0
LINE
  8
0
 10
16
 11
15.988
 20
-9
 21
-9.188
  0
LINE
  8
0
 10
15.988
 11
15.953
 20
-9.188
 21
-9.373
  0
LINE
  8
0
 10
15.953
 11
15.895
 20
-9.373
 21
-9.552
  0
LINE
  8
0
 10
15.895
 11
15.814
 20
-9.552
 21
-9.723
  0
LINE
  8
0
 10
15.814
 11
15.714
 20
-9.723
 21
-9.882
  0
LINE
  8
0
 10
15.714
 11
15.593
 20
-9.882
 21
-10.027
  0
LINE
  8
0
 10
15.593
 11
15.456
 20
-10.027
 21
-10.156
  0
LINE
  8
0
 10
15.456
 11
15.304
 20
-10.156
 21
-10.266
  0
LINE
  8
0
 10
15.304
 11
15.139
 20
-10.266
 21
-10.357
  0
LINE
  8
0
 10
15.139
 11
14.964
 20
-10.357
 21
-10.427
  0
LINE
  8
0
 10
14.964
 11
14.781
 20
-10.427
 21
-10.473
  0
LINE
  8
0
 10
14.781
 11
14.594
 20
-10.473
 21
-10.497
  0
LINE
  8
0
 10
14.594
 11
14.406
 20
-10.497
 21
-10.497
  0
LINE
  8
0
 10
14.406
 11
14.219
 20
-10.497
 21
-10.473
  0
LINE
  8
0
 10
14.219
 11
14.036
 20
-10.473
 21
-10.427
  0
LINE
  8
0
 10
14.036
 11
13.861
 20
-10.427
 21
-10.357
  0
LINE
  8
0
 10
13.861
 11
13.696
 20
-10.357
 21
-10.266
  0
LINE
  8
0
 10
13.696
 11
13.544
 20
-10.266
 21
-10.156
  0
LINE
  8
0
 10
13.544
 11
13.407
 20
-10.156
 21
-10.027
  0
LINE
  8
0
 10
13.407
 11
13.286
 20
-10.027
 21
-9.882
  0
LINE
  8
0
 10
13.286
 11
13.186
 20
-9.882
 21
-9.723
  0
LINE
  8
0
 10
13.186
 11
13.105
 20
-9.723
 21
-9.552
  0
LINE
  8
0
 10
13.105
 11
13.047
 20
-9.552
 21
-9.373
  0
LINE
  8
0
 10
13.047
 11
13.012
 20
-9.373
 21
-9.188
  0
LINE
  8
0
 10
13.012
 11
13
 20
-9.188
 21
-9
  0
LINE
  8
0
 10
13
 11
13.012
 20
9
 21
9.188
  0
LINE
  8
0
 10
13.012
 11
13.047
 20
9.188
 21
9.373
  0
LINE
  8
0
 10
13.047
 11
13.105
 20
9.373
 21
9.552
  0
LINE
  8
0
 10
13.105
 11
13.186
 20
9.552
 21
9.723
  0
LINE
  8
0
 10
13.186
 11
13.286
 20
9.723
 21
9.882
  0
LINE
  8
0
 10
13.286
 11
13.407
 20
9.882
 21
10.027
  0
LINE
  8
0
 10
13.407
 11
13.544
 20
10.027
 21
10.156
  0
LINE
  8
0
 10
13.544
 11
13.696
 20
10.156
 21
10.266
  0
LINE
  8
0
 10
13.696
 11
13.861
 20
10.266
 21
10.357
  0
LINE
  8
0
 10
13.861
 11
14.036
 20
10.357
 21
10.427
  0
LINE
  8
0
 10
14.036
 11
14.219
 20
10.427
 21
10.473
  0
LINE
  8
0
 10
14.219
 11
14.406
 20
10.473
 21
10.497
  0
LINE
  8
0
 10
14.406
 11
14.594
 20
10.497
 21
10.497
  0
LINE
  8
0
 10
14.594
 11
14.781
 20
10.497
 21
10.473
  0
LINE
  8
0
 10
14.781
 11
14.964
 20
10.473
 21
10.427
  0
LINE
  8
0
 10
14.964
 11
15.139
 20
10.427
 21
10.357
  0
LINE
  8
0
 10
15.139
 11
15.304
 20
10.357
 21
10.266
  0
LINE
  8
0
 10
15.304
 11
15.456
 20
10.266
 21
10.156
  0
LINE
  8
0
 10
15.456
 11
15.593
 20
10.156
 21
10.027
  0
LINE
  8
0
 10
15.593
 11
15.714
 20
10.027
 21
9.882
  0
LINE
  8
0
 10
15.714
 11
15.814
 20
9.882
 21
9.723
  0
LINE
  8
0
 10
15.814
 11
15.895
 20
9.723
 21
9.552
  0
LINE
  8
0
 10
15.895
 11
15.953
 20
9.552
 21
9.373
  0
LINE
  8
0
 10
15.953
 11
15.988
 20
9.373
 21
9.188
  0
LINE
  8
0
 10
15.988
 11
16
 20
9.188
 21
9
  0
LINE
  8
0
 10
16
 11
15.988
 20
9
 21
8.812
  0
LINE
  8
0
 10
15.988
 11
15.953
 20
8.812
 21
8.627
  0
LINE
  8
0
 10
15.953
 11
15.895
 20
8.627
 21
8.448
  0
LINE
  8
0
 10
15.895
 11
15.814
 20
8.448
 21
8.277
  0
LINE
  8
0
 10
15.814
 11
15.714
 20
8.277
 21
8.118
  0
LINE
  8
0
 10
15.714
 11
15.593
 20
8.118
 21
7.973
  0
LINE
  8
0
 10
15.593
 11
15.456
 20
7.973
 21
7.844
  0
LINE
  8
0
 10
15.456
 11
15.304
 20
7.844
 21
7.734
  0
LINE
  8
0
 10
15.304
 11
15.139
 20
7.734
 21
7.643
  0
LINE
  8
0
 10
15.139
 11
14.964
 20
7.643
 21
7.573
  0
LINE
  8
0
 10
14.964
 11
14.781
 20
7.573
 21
7.527
  0
LINE
  8
0
 10
14.781
 11
14.594
 20
7.527
 21
7.503
  0
LINE
  8
0
 10
14.594
 11
14.406
 20
7.503
 21
7.503
  0
LINE
  8
0
 10
14.406
 11
14.219
 20
7.503
 21
7.527
  0
LINE
  8
0
 10
14.219
 11
14.036
 20
7.527
 21
7.573
  0
LINE
  8
0
 10
14.036
 11
13.861
 20
7.573
 21
7.643
  0
LINE
  8
0
 10
13.861
 11
13.696
 20
7.643
 21
7.734
  0
LINE
  8
0
 10
13.696
 11
13.544
 20
7.734
 21
7.844
  0
LINE
  8
0
 10
13.544
 11
13.407
 20
7.844
 21
7.973
  0
LINE
  8
0
 10
13.407
 11
13.286
 20
7.973
 21
8.118
  0
LINE
  8
0
 10
13.286
 11
13.186
 20
8.118
 21
8.277
  0
LINE
  8
0
 10
13.186
 11
13.105
 20
8.277
 21
8.448
  0
LINE
  8
0
 10
13.105
 11
13.047
 20
8.448
 21
8.627
  0
LINE
  8
0
 10
13.047
 11
13.012
 20
8.627
 21
8.812
  0
LINE
  8
0
 10
13.012
 11
13
 20
8.812
 21
9
  0
LINE
  8
0
 10
17.5
 11
17.5
 20
-10
 21
-5
  0
LINE
  8
0
 10
17.5
 11
22.5
 20
-5
 21
-5
  0
LINE
  8
0
 10
22.5
 11
22.5
 20
-5
 21
-10
  0
LINE
  8
0
 10
22.5
 11
17.5
 20
-10
 21
-10
  0
LINE
  8
0
 10
17.5
 11
17.5
 20
-2.5
 21
2.5
  0
LINE
  8
0
 10
17.5
 11
22.5
 20
2.5
 21
2.5
  0
LINE
  8
0
 10
22.5
 11
22.5
 20
2.5
 21
-2.5
  0
LINE
  8
0
 10
22.5
 11
17.5
 20
-2.5
 21
-2.5
  0
LINE
  8
0
 10
17.5
 11
17.5
 20
5
 21
10
  0
LINE
  8
0
 10
17.5
 11
22.5
 20
10
 21
10
  0
LINE
  8
0
 10
22.5
 11
22.5
 20
10
 21
5
  0
LINE
  8
0
 10
22.5
 11
17.5
 20
5
 21
5
  0
LINE
  8
0
 10
21
 11
21.032
 20
-17.5
 21
-16.999
  0
LINE
  8
0
 10
21.032
 11
21.126
 20
-16.999
 21
-16.505
  0
LINE
  8
0
 10
21.126
 11
21.281
 20
-16.505
 21
-16.028
  0
LINE
  8
0
 10
21.281
 11
21.495
 20
-16.028
 21
-15.573
  0
LINE
  8
0
 10
21.495
 11
21.764
 20
-15.573
 21
-15.149
  0
LINE
  8
0
 10
21.764
 11
22.084
 20
-15.149
 21
-14.762
  0
LINE
  8
0
 10
22.084
 11
22.45
 20
-14.762
 21
-14.418
  0
LINE
  8
0
 10
22.45
 11
22.857
 20
-14.418
 21
-14.123
  0
LINE
  8
0
 10
22.857
 11
23.297
 20
-14.123
 21
-13.881
  0
LINE
  8
0
 10
23.297
 11
23.764
 20
-13.881
 21
-13.696
  0
LINE
  8
0
 10
23.764
 11
24.25
 20
-13.696
 21
-13.571
  0
LINE
  8
0
 10
24.25
 11
24.749
 20
-13.571
 21
-13.508
  0
LINE
  8
0
 10
24.749
 11
25.251
 20
-13.508
 21
-13.508
  0
LINE
  8
0
 10
25.251
 11
25.75
 20
-13.508
 21
-13.571
  0
LINE
  8
0
 10
25.75
 11
26.236
 20
-13.571
 21
-13.696
  0
LINE
  8
0
 10
26.236
 11
26.703
 20
-13.696
 21
-13.881
  0
LINE
  8
0
 10
26.703
 11
27.143
 20
-13.881
 21
-14.123
  0
LINE
  8
0
 10
27.143
 11
27.55
 20
-14.123
 21
-14.418
  0
LINE
  8
0
 10
27.55
 11
27.916
 20
-14.418
 21
-14.762
  0
LINE
  8
0
 10
27.916
 11
28.236
 20
-14.762
 21
-15.149
  0
LINE
  8
0
 10
28.236
 11
28.505
 20
-15.149
 21
-15.573
  0
LINE
  8
0
 10
28.505
 11
28.719
 20
-15.573
 21
-16.028
  0
LINE
  8
0
 10
28.719
 11
28.874
 20
-16.028
 21
-16.505
  0
LINE
  8
0
 10
28.874
 11
28.968
 20
-16.505
 21
-16.999
  0
LINE
  8
0
 10
28.968
 11
29
 20
-16.999
 21
-17.5
  0
LINE
  8
0
 10
29
 11
28.968
 20
-17.5
 21
-18.001
  0
LINE
  8
0
 10
28.968
 11
28.874
 20
-18.001
 21
-18.495
  0
LINE
  8
0
 10
28.874
 11
28.719
 20
-18.495
 21
-18.972
  0
LINE
  8
0
 10
28.719
 11
28.505
 20
-18.972
 21
-19.427
  0
LINE
  8
0
 10
28.505
 11
28.236
 20
-19.427
 21
-19.851
  0
LINE
  8
0
 10
28.236
 11
27.916
 20
-19.851
 21
-20.238
  0
LINE
  8
0
 10
27.916
 11
27.55
 20
-20.238
 21
-20.582
  0
LINE
  8
0
 10
27.55
 11
27.143
 20
-20.582
 21
-20.877
  0
LINE
  8
0
 10
27.143
 11
26.703
 20
-20.877
 21
-21.119
  0
LINE
  8
0
 10
26.703
 11
26.236
 20
-21.119
 21
-21.304
  0
LINE
  8
0
 10
26.236
 11
25.75
 20
-21.304
 21
-21.429
  0
LINE
  8
0
 10
25.75
 11
25.251
 20
-21.429
 21
-21.492
  0
LINE
  8
0
 10
25.251
 11
24.749
 20
-21.492
 21
-21.492
  0
LINE
  8
0
 10
24.749
 11
24.25
 20
-21.492
 21
-21.429
  0
LINE
  8
0
 10
24.25
 11
23.764
 20
-21.429
 21
-21.304
  0
LINE
  8
0
 10
23.764
 11
23.297
 20
-21.304
 21
-21.119
  0
LINE
  8
0
 10
23.297
 11
22.857
 20
-21.119
 21
-20.877
  0
LINE
  8
0
 10
22.857
 11
22.45
 20
-20.877
 21
-20.582
  0
LINE
  8
0
 10
22.45
 11
22.084
 20
-20.582
 21
-20.238
  0
LINE
  8
0
 10
22.084
 11
21.764
 20
-20.238
 21
-19.851
  0
LINE
  8
0
 10
21.764
 11
21.495
 20
-19.851
 21
-19.427
  0
LINE
  8
0
 10
21.495
 11
21.281
 20
-19.427
 21
-18.972
  0
LINE
  8
0
 10
21.281
 11
21.126
 20
-18.972
 21
-18.495
  0
LINE
  8
0
 10
21.126
 11
21.032
 20
-18.495
 21
-18.001
  0
LINE
  8
0
 10
21.032
 11
21
 20
-18.001
 21
-17.5
  0
LINE
  8
0
 10
26.5
 11
26.5
 20
-10
 21
-5
  0
LINE
  8
0
 10
26.5
 11
31.5
 20
-5
 21
-5
  0
LINE
  8
0
 10
31.5
 11
31.5
 20
-5
 21
-10
  0
LINE
  8
0
 10
31.5
 11
26.5
 20
-10
 21
-10
  0
LINE
  8
0
 10
26.5
 11
26.5
 20
-2.5
 21
2.5
  0
LINE
  8
0
 10
26.5
 11
31.5
 20
2.5
 21
2.5
  0
LINE
  8
0
 10
31.5
 11
31.5
 20
2.5
 21
-2.5
  0
LINE
  8
0
 10
31.5
 11
26.5
 20
-2.5
 21
-2.5
  0
LINE
  8
0
 10
26.5
 11
26.5
 20
5
 21
10
  0
LINE
  8
0
 10
26.5
 11
31.5
 20
10
 21
10
  0
LINE
  8
0
 10
31.5
 11
31.5
 20
10
 21
5
  0
LINE
  8
0
 10
31.5
 11
26.5
 20
5
 21
5
  0
LINE
  8
0
 10
33.5
 11
33.512
 20
-9
 21
-8.812
  0
LINE
  8
0
 10
33.512
 11
33.547
 20
-8.812
 21
-8.627
  0
LINE
  8
0
 10
33.547
 11
33.605
 20
-8.627
 21
-8.448
  0
LINE
  8
0
 10
33.605
 11
33.686
 20
-8.448
 21
-8.277
  0
LINE
  8
0
 10
33.686
 11
33.786
 20
-8.277
 21
-8.118
  0
LINE
  8
0
 10
33.786
 11
33.907
 20
-8.118
 21
-7.973
  0
LINE
  8
0
 10
33.907
 11
34.044
 20
-7.973
 21
-7.844
  0
LINE
  8
0
 10
34.044
 11
34.196
 20
-7.844
 21
-7.734
  0
LINE
  8
0
 10
34.196
 11
34.361
 20
-7.734
 21
-7.643
  0
LINE
  8
0
 10
34.361
 11
34.536
 20
-7.643
 21
-7.573
  0
LINE
  8
0
 10
34.536
 11
34.719
 20
-7.573
 21
-7.527
  0
LINE
  8
0
 10
34.719
 11
34.906
 20
-7.527
 21
-7.503
  0
LINE
  8
0
 10
34.906
 11
35.094
 20
-7.503
 21
-7.503
  0
LINE
  8
0
 10
35.094
 11
35.281
 20
-7.503
 21
-7.527
  0
LINE
  8
0
 10
35.281
 11
35.464
 20
-7.527
 21
-7.573
  0
LINE
  8
0
 10
35.464
 11
35.639
 20
-7.573
 21
-7.643
  0
LINE
  8
0
 10
35.639
 11
35.804
 20
-7.643
 21
-7.734
  0
LINE
  8
0
 10
35.804
 11
35.956
 20
-7.734
 21
-7.844
  0
LINE
  8
0
 10
35.956
 11
36.093
 20
-7.844
 21
-7.973
  0
LINE
  8
0
 10
36.093
 11
36.214
 20
-7.973
 21
-8.118
  0
LINE
  8
0
 10
36.214
 11
36.314
 20
-8.118
 21
-8.277
  0
LINE
  8
0
 10
36.314
 11
36.395
 20
-8.277
 21
-8.448
  0
LINE
  8
0
 10
36.395
 11
36.453
 20
-8.448
 21
-8.627
  0
LINE
  8
0
 10
36.453
 11
36.488
 20
-8.627
 21
-8.812
  0
LINE
  8
0
 10
36.488
 11
36.5
 20
-8.812
 21
-9
  0
LINE
  8
0
 10
36.5
 11
36.488
 20
-9
 21
-9.188
  0
LINE
  8
0
 10
36.488
 11
36.453
 20
-9.188
 21
-9.373
  0
LINE
  8
0
 10
36.453
 11
36.395
 20
-9.373
 21
-9.552
  0
LINE
  8
0
 10
36.395
 11
36.314
 20
-9.552
 21
-9.723
  0
LINE
  8
0
 10
36.314
 11
36.214
 20
-9.723
 21
-9.882
  0
LINE
  8
0
 10
36.214
 11
36.093
 20
-9.882
 21
-10.027
  0
LINE
  8
0
 10
36.093
 11
35.956
 20
-10.027
 21
-10.156
  0
LINE
  8
0
 10
35.956
 11
35.804
 20
-10.156
 21
-10.266
  0
LINE
  8
0
 10
35.804
 11
35.639
 20
-10.266
 21
-10.357
  0
LINE
  8
0
 10
35.639
 11
35.464
 20
-10.357
 21
-10.427
  0
LINE
  8
0
 10
35.464
 11
35.281
 20
-10.427
 21
-10.473
  0
LINE
  8
0
 10
35.281
 11
35.094
 20
-10.473
 21
-10.497
  0
LINE
  8
0
 10
35.094
 11
34.906
 20
-10.497
 21
-10.497
  0
LINE
  8
0
 10
34.906
 11
34.719
 20
-10.497
 21
-10.473
  0
LINE
  8
0
 10
34.719
 11
34.536
 20
-10.473
 21
-10.427
  0
LINE
  8
0
 10
34.536
 11
34.361
 20
-10.427
 21
-10.357
  0
LINE
  8
0
 10
34.361
 11
34.196
 20
-10.357
 21
-10.266
  0
LINE
  8
0
 10
34.196
 11
34.044
 20
-10.266
 21
-10.156
  0
LINE
  8
0
 10
34.044
 11
33.907
 20
-10.156
 21
-10.027
  0
LINE
  8
0
 10
33.907
 11
33.786
 20
-10.027
 21
-9.882
  0
LINE
  8
0
 10
33.786
 11
33.686
 20
-9.882
 21
-9.723
  0
LINE
  8
0
 10
33.686
 11
33.605
 20
-9.723
 21
-9.552
  0
LINE
  8
0
 10
33.605
 11
33.547
 20
-9.552
 21
-9.373
  0
LINE
  8
0
 10
33.547
 11
33.512
 20
-9.373
 21
-9.188
  0
LINE
  8
0
 10
33.512
 11
33.5
 20
-9.188
 21
-9
  0
LINE
  8
0
 10
33.5
 11
33.512
 20
9
 21
9.188
  0
LINE
  8
0
 10
33.512
 11
33.547
 20
9.188
 21
9.373
  0
LINE
  8
0
 10
33.547
 11
33.605
 20
9.373
 21
9.552
  0
LINE
  8
0
 10
33.605
 11
33.686
 20
9.552
 21
9.723
  0
LINE
  8
0
 10
33.686
 11
33.786
 20
9.723
 21
9.882
  0
LINE
  8
0
 10
33.786
 11
33.907
 20
9.882
 21
10.027
  0
LINE
  8
0
 10
33.907
 11
34.044
 20
10.027
 21
10.156
  0
LINE
  8
0
 10
34.044
 11
34.196
 20
10.156
 21
10.266
  0
LINE
  8
0
 10
34.196
 11
34.361
 20
10.266
 21
10.357
  0
LINE
  8
0
 10
34.361
 11
34.536
 20
10.357
 21
10.427
  0
LINE
  8
0
 10
34.536
 11
34.719
 20
10.427
 21
10.473
  0
LINE
  8
0
 10
34.719
 11
34.906
 20
10.473
 21
10.497
  0
LINE
  8
0
 10
34.906
 11
35.094
 20
10.497
 21
10.497
  0
LINE
  8
0
 10
35.094
 11
35.281
 20
10.497
 21
10.473
  0
LINE
  8
0
 10
35.281
 11
35.464
 20
10.473
 21
10.427
  0
LINE
  8
0
 10
35.464
 11
35.639
 20
10.427
 21
10.357
  0
LINE
  8
0
 10
35.639
 11
35.804
 20
10.357
 21
10.266
  0
LINE
  8
0
 10
35.804
 11
35.956
 20
10.266
 21
10.156
  0
LINE
  8
0
 10
35.956
 11
36.093
 20
10.156
 21
10.027
  0
LINE
  8
0
 10
36.093
 11
36.214
 20
10.027
 21
9.882
  0
LINE
  8
0
 10
36.214
 11
36.314
 20
9.882
 21
9.723
  0
LINE
  8
0
 10
36.314
 11
36.395
 20
9.723
 21
9.552
  0
LINE
  8
0
 10
36.395
 11
36.453
 20
9.552
 21
9.373
  0
LINE
  8
0
 10
36.453
 11
36.488
 20
9.373
 21
9.188
  0
LINE
  8
0
 10
36.488
 11
36.5
 20
9.188
 21
9
  0
LINE
  8
0
 10
36.5
 11
36.488
 20
9
 21
8.812
  0
LINE
  8
0
 10
36.488
 11
36.453
 20
8.812
 21
8.627
  0
LINE
  8
0
 10
36.453
 11
36.395
 20
8.627
 21
8.448
  0
LINE
  8
0
 10
36.395
 11
36.314
 20
8.448
 21
8.277
  0
LINE
  8
0
 10
36.314
 11
36.214
 20
8.277
 21
8.118
  0
LINE
  8
0
 10
36.214
 11
36.093
 20
8.118
 21
7.973
  0
LINE
  8
0
 10
36.093
 11
35.956
 20
7.973
 21
7.844
  0
LINE
  8
0
 10
35.956
 11
35.804
 20
7.844
 21
7.734
  0
LINE
  8
0
 10
35.804
 11
35.639
 20
7.734
 21
7.643
  0
LINE
  8
0
 10
35.639
 11
35.464
 20
7.643
 21
7.573
  0
LINE
  8
0
 10
35.464
 11
35.281
 20
7.573
 21
7.527
  0
LINE
  8
0
 10
35.281
 11
35.094
 20
7.527
 21
7.503
  0
LINE
  8
0
 10
35.094
 11
34.906
 20
7.503
 21
7.503
  0
LINE
  8
0
 10
34.906
 11
34.719
 20
7.503
 21
7.527
  0
LINE
  8
0
 10
34.719
 11
34.536
 20
7.527
 21
7.573
  0
LINE
  8
0
 10
34.536
 11
34.361
 20
7.573
 21
7.643
  0
LINE
  8
0
 10
34.361
 11
34.196
 20
7.643
 21
7.734
  0
LINE
  8
0
 10
34.196
 11
34.044
 20
7.734
 21
7.844
  0
LINE
  8
0
 10
34.044
 11
33.907
 20
7.844
 21
7.973
  0
LINE
  8
0
 10
33.907
 11
33.786
 20
7.973
 21
8.118
  0
LINE
  8
0
 10
33.786
 11
33.686
 20
8.118
 21
8.277
  0
LINE
  8
0
 10
33.686
 11
33.605
 20
8.277
 21
8.448
  0
LINE
  8
0
 10
33.605
 11
33.547
 20
8.448
 21
8.627
  0
LINE
  8
0
 10
33.547
 11
33.512
 20
8.627
 21
8.812
  0
LINE
  8
0
 10
33.512
 11
33.5
 20
8.812
 21
9
  0
ENDSEC
  0
SECTION
  2
OBJECTS
  0
DICTIONARY
  0
ENDSEC
  0
EOF
