  0
SECTION
  2
HEADER
  9
$ACADVER
  1
AC1027
  9
$ACADMAINTVER
 70
    55
  9
$DWGCODEPAGE
  3
ANSI_1252
  9
$LASTSAVEDBY
  1
Moritz
  9
$REQUIREDVERSIONS
160
                 0
  9
$INSBASE
 10
0.0
 20
0.0
 30
0.0
  9
$EXTMIN
 10
0.141111
 20
0.141073
 30
0.0
  9
$EXTMAX
 10
332.641158
 20
60.14113399999999
 30
0.0
  9
$LIMMIN
 10
0.0
 20
0.0
  9
$LIMMAX
 10
12.0
 20
9.0
  9
$ORTHOMODE
 70
     0
  9
$REGENMODE
 70
     1
  9
$FILLMODE
 70
     1
  9
$QTEXTMODE
 70
     0
  9
$MIRRTEXT
 70
     0
  9
$LTSCALE
 40
1.0
  9
$ATTMODE
 70
     1
  9
$TEXTSIZE
 40
2.5
  9
$TRACEWID
 40
0.05
  9
$TEXTSTYLE
  7
STANDARD
  9
$CLAYER
  8
0
  9
$CELTYPE
  6
CONTINUOUS
  9
$CECOLOR
 62
   256
  9
$CELTSCALE
 40
1.0
  9
$DISPSILH
 70
     0
  9
$DIMSCALE
 40
1.0
  9
$DIMASZ
 40
0.18
  9
$DIMEXO
 40
0.0625
  9
$DIMDLI
 40
0.38
  9
$DIMRND
 40
0.0
  9
$DIMDLE
 40
0.0
  9
$DIMEXE
 40
0.18
  9
$DIMTP
 40
0.0
  9
$DIMTM
 40
0.0
  9
$DIMTXT
 40
0.18
  9
$DIMCEN
 40
0.09
  9
$DIMTSZ
 40
0.0
  9
$DIMTOL
 70
     0
  9
$DIMLIM
 70
     0
  9
$DIMTIH
 70
     1
  9
$DIMTOH
 70
     1
  9
$DIMSE1
 70
     0
  9
$DIMSE2
 70
     0
  9
$DIMTAD
 70
     0
  9
$DIMZIN
 70
     0
  9
$DIMBLK
  1

  9
$DIMASO
 70
     1
  9
$DIMSHO
 70
     1
  9
$DIMPOST
  1

  9
$DIMAPOST
  1

  9
$DIMALT
 70
     0
  9
$DIMALTD
 70
     2
  9
$DIMALTF
 40
25.4
  9
$DIMLFAC
 40
1.0
  9
$DIMTOFL
 70
     0
  9
$DIMTVP
 40
0.0
  9
$DIMTIX
 70
     0
  9
$DIMSOXD
 70
     0
  9
$DIMSAH
 70
     0
  9
$DIMBLK1
  1

  9
$DIMBLK2
  1

  9
$DIMSTYLE
  2
ISO-25
  9
$DIMCLRD
 70
     0
  9
$DIMCLRE
 70
     0
  9
$DIMCLRT
 70
     0
  9
$DIMTFAC
 40
1.0
  9
$DIMGAP
 40
0.09
  9
$DIMJUST
 70
     0
  9
$DIMSD1
 70
     0
  9
$DIMSD2
 70
     0
  9
$DIMTOLJ
 70
     1
  9
$DIMTZIN
 70
     0
  9
$DIMALTZ
 70
     0
  9
$DIMALTTZ
 70
     0
  9
$DIMUPT
 70
     0
  9
$DIMDEC
 70
     4
  9
$DIMTDEC
 70
     4
  9
$DIMALTU
 70
     2
  9
$DIMALTTD
 70
     2
  9
$DIMTXSTY
  7
STANDARD
  9
$DIMAUNIT
 70
     0
  9
$DIMADEC
 70
     0
  9
$DIMALTRND
 40
0.0
  9
$DIMAZIN
 70
     0
  9
$DIMDSEP
 70
    46
  9
$DIMATFIT
 70
     3
  9
$DIMFRAC
 70
     0
  9
$DIMLDRBLK
  1

  9
$DIMLUNIT
 70
     2
  9
$DIMLWD
 70
    -2
  9
$DIMLWE
 70
    -2
  9
$DIMTMOVE
 70
     0
  9
$DIMFXL
 40
1.0
  9
$DIMFXLON
 70
     0
  9
$DIMJOGANG
 40
0.7853981633974483
  9
$DIMTFILL
 70
     0
  9
$DIMTFILLCLR
 70
     0
  9
$DIMARCSYM
 70
     0
  9
$DIMLTYPE
  6

  9
$DIMLTEX1
  6

  9
$DIMLTEX2
  6

  9
$DIMTXTDIRECTION
 70
     0
  9
$LUNITS
 70
     2
  9
$LUPREC
 70
     4
  9
$SKETCHINC
 40
0.1
  9
$FILLETRAD
 40
0.0
  9
$AUNITS
 70
     0
  9
$AUPREC
 70
     0
  9
$MENU
  1
.
  9
$ELEVATION
 40
0.0
  9
$PELEVATION
 40
0.0
  9
$THICKNESS
 40
0.0
  9
$LIMCHECK
 70
     0
  9
$CHAMFERA
 40
0.0
  9
$CHAMFERB
 40
0.0
  9
$CHAMFERC
 40
0.0
  9
$CHAMFERD
 40
0.0
  9
$SKPOLY
 70
     0
  9
$TDCREATE
 40
2457076.799390671
  9
$TDUCREATE
 40
2457076.757724005
  9
$TDUPDATE
 40
2457076.800097385
  9
$TDUUPDATE
 40
2457076.758430718
  9
$TDINDWG
 40
0.0007069213
  9
$TDUSRTIMER
 40
0.0007069213
  9
$USRTIMER
 70
     1
  9
$ANGBASE
 50
0.0
  9
$ANGDIR
 70
     0
  9
$PDMODE
 70
     0
  9
$PDSIZE
 40
0.0
  9
$PLINEWID
 40
0.0
  9
$SPLFRAME
 70
     0
  9
$SPLINETYPE
 70
     6
  9
$SPLINESEGS
 70
     8
  9
$HANDSEED
  5
1006D
  9
$SURFTAB1
 70
     6
  9
$SURFTAB2
 70
     6
  9
$SURFTYPE
 70
     6
  9
$SURFU
 70
     6
  9
$SURFV
 70
     6
  9
$UCSBASE
  2

  9
$UCSNAME
  2

  9
$UCSORG
 10
0.0
 20
0.0
 30
0.0
  9
$UCSXDIR
 10
1.0
 20
0.0
 30
0.0
  9
$UCSYDIR
 10
0.0
 20
1.0
 30
0.0
  9
$UCSORTHOREF
  2

  9
$UCSORTHOVIEW
 70
     0
  9
$UCSORGTOP
 10
0.0
 20
0.0
 30
0.0
  9
$UCSORGBOTTOM
 10
0.0
 20
0.0
 30
0.0
  9
$UCSORGLEFT
 10
0.0
 20
0.0
 30
0.0
  9
$UCSORGRIGHT
 10
0.0
 20
0.0
 30
0.0
  9
$UCSORGFRONT
 10
0.0
 20
0.0
 30
0.0
  9
$UCSORGBACK
 10
0.0
 20
0.0
 30
0.0
  9
$PUCSBASE
  2

  9
$PUCSNAME
  2

  9
$PUCSORG
 10
0.0
 20
0.0
 30
0.0
  9
$PUCSXDIR
 10
1.0
 20
0.0
 30
0.0
  9
$PUCSYDIR
 10
0.0
 20
1.0
 30
0.0
  9
$PUCSORTHOREF
  2

  9
$PUCSORTHOVIEW
 70
     0
  9
$PUCSORGTOP
 10
0.0
 20
0.0
 30
0.0
  9
$PUCSORGBOTTOM
 10
0.0
 20
0.0
 30
0.0
  9
$PUCSORGLEFT
 10
0.0
 20
0.0
 30
0.0
  9
$PUCSORGRIGHT
 10
0.0
 20
0.0
 30
0.0
  9
$PUCSORGFRONT
 10
0.0
 20
0.0
 30
0.0
  9
$PUCSORGBACK
 10
0.0
 20
0.0
 30
0.0
  9
$USERI1
 70
     0
  9
$USERI2
 70
     0
  9
$USERI3
 70
     0
  9
$USERI4
 70
     0
  9
$USERI5
 70
     0
  9
$USERR1
 40
0.0
  9
$USERR2
 40
0.0
  9
$USERR3
 40
0.0
  9
$USERR4
 40
0.0
  9
$USERR5
 40
0.0
  9
$WORLDVIEW
 70
     1
  9
$SHADEDGE
 70
     3
  9
$SHADEDIF
 70
    70
  9
$TILEMODE
 70
     1
  9
$MAXACTVP
 70
    64
  9
$PINSBASE
 10
0.0
 20
0.0
 30
0.0
  9
$PLIMCHECK
 70
     0
  9
$PEXTMIN
 10
1.000000000000000E+20
 20
1.000000000000000E+20
 30
1.000000000000000E+20
  9
$PEXTMAX
 10
-1.000000000000000E+20
 20
-1.000000000000000E+20
 30
-1.000000000000000E+20
  9
$PLIMMIN
 10
0.0
 20
0.0
  9
$PLIMMAX
 10
12.0
 20
9.0
  9
$UNITMODE
 70
     0
  9
$VISRETAIN
 70
     1
  9
$PLINEGEN
 70
     0
  9
$PSLTSCALE
 70
     1
  9
$TREEDEPTH
 70
  3020
  9
$CMLSTYLE
  2
STANDARD
  9
$CMLJUST
 70
     0
  9
$CMLSCALE
 40
1.0
  9
$PROXYGRAPHICS
 70
     1
  9
$MEASUREMENT
 70
     1
  9
$CELWEIGHT
370
    -1
  9
$ENDCAPS
280
     0
  9
$JOINSTYLE
280
     0
  9
$LWDISPLAY
290
     0
  9
$INSUNITS
 70
     0
  9
$HYPERLINKBASE
  1

  9
$STYLESHEET
  1

  9
$XEDIT
290
     1
  9
$CEPSNTYPE
380
     0
  9
$PSTYLEMODE
290
     1
  9
$FINGERPRINTGUID
  2
{48736408-74BB-4126-992C-92CBEF4EE1B9}
  9
$VERSIONGUID
  2
{5E1C26BA-7385-4E80-871E-78DC24F484FE}
  9
$EXTNAMES
290
     1
  9
$PSVPSCALE
 40
0.0
  9
$OLESTARTUP
290
     0
  9
$SORTENTS
280
   127
  9
$INDEXCTL
280
     0
  9
$HIDETEXT
280
     0
  9
$XCLIPFRAME
280
     2
  9
$HALOGAP
280
     0
  9
$OBSCOLOR
 70
   257
  9
$OBSLTYPE
280
     0
  9
$INTERSECTIONDISPLAY
280
     0
  9
$INTERSECTIONCOLOR
 70
   257
  9
$DIMASSOC
280
     1
  9
$PROJECTNAME
  1

  9
$CAMERADISPLAY
290
     0
  9
$LENSLENGTH
 40
50.0
  9
$CAMERAHEIGHT
 40
0.0
  9
$STEPSPERSEC
 40
2.0
  9
$STEPSIZE
 40
6.0
  9
$3DDWFPREC
 40
2.0
  9
$PSOLWIDTH
 40
0.25
  9
$PSOLHEIGHT
 40
4.0
  9
$LOFTANG1
 40
1.570796326794896
  9
$LOFTANG2
 40
1.570796326794896
  9
$LOFTMAG1
 40
0.0
  9
$LOFTMAG2
 40
0.0
  9
$LOFTPARAM
 70
     7
  9
$LOFTNORMALS
280
     1
  9
$LATITUDE
 40
37.795
  9
$LONGITUDE
 40
-122.394
  9
$NORTHDIRECTION
 40
0.0
  9
$TIMEZONE
 70
 -8000
  9
$LIGHTGLYPHDISPLAY
280
     1
  9
$TILEMODELIGHTSYNCH
280
     1
  9
$CMATERIAL
347
10004
  9
$SOLIDHIST
280
     0
  9
$SHOWHIST
280
     1
  9
$DWFFRAME
280
     2
  9
$DGNFRAME
280
     0
  9
$REALWORLDSCALE
290
     1
  9
$INTERFERECOLOR
 62
     1
  9
$INTERFEREOBJVS
345
10026
  9
$INTERFEREVPVS
346
10023
  9
$CSHADOW
280
     0
  9
$SHADOWPLANELOCATION
 40
0.0
  0
ENDSEC
  0
SECTION
  2
CLASSES
  0
CLASS
  1
ACDBDICTIONARYWDFLT
  2
AcDbDictionaryWithDefault
  3
ObjectDBX Classes
 90
        0
 91
        1
280
     0
281
     0
  0
CLASS
  1
MATERIAL
  2
AcDbMaterial
  3
ObjectDBX Classes
 90
     1153
 91
        3
280
     0
281
     0
  0
CLASS
  1
VISUALSTYLE
  2
AcDbVisualStyle
  3
ObjectDBX Classes
 90
     4095
 91
       24
280
     0
281
     0
  0
CLASS
  1
TABLESTYLE
  2
AcDbTableStyle
  3
ObjectDBX Classes
 90
     4095
 91
        1
280
     0
281
     0
  0
CLASS
  1
SCALE
  2
AcDbScale
  3
ObjectDBX Classes
 90
     1153
 91
       17
280
     0
281
     0
  0
CLASS
  1
MLEADERSTYLE
  2
AcDbMLeaderStyle
  3
ACDB_MLEADERSTYLE_CLASS
 90
     4095
 91
        1
280
     0
281
     0
  0
CLASS
  1
ACDBSECTIONVIEWSTYLE
  2
AcDbSectionViewStyle
  3
ObjectDBX Classes
 90
     1025
 91
        1
280
     0
281
     0
  0
CLASS
  1
ACDBDETAILVIEWSTYLE
  2
AcDbDetailViewStyle
  3
ObjectDBX Classes
 90
     1025
 91
        1
280
     0
281
     0
  0
CLASS
  1
DICTIONARYVAR
  2
AcDbDictionaryVar
  3
ObjectDBX Classes
 90
        0
 91
        9
280
     0
281
     0
  0
CLASS
  1
CELLSTYLEMAP
  2
AcDbCellStyleMap
  3
ObjectDBX Classes
 90
     1152
 91
        1
280
     0
281
     0
  0
ENDSEC
  0
SECTION
  2
TABLES
  0
TABLE
  2
VPORT
  5
8
330
0
100
AcDbSymbolTable
 70
     1
  0
VPORT
  5
2E
330
8
100
AcDbSymbolTableRecord
100
AcDbViewportTableRecord
  2
*ACTIVE
 70
     0
 10
0.0
 20
0.0
 11
1.0
 21
1.0
 12
400.4425621890548
 22
148.5
 13
0.0
 23
0.0
 14
10.0
 24
10.0
 15
10.0
 25
10.0
 16
0.0
 26
0.0
 36
1.0
 17
0.0
 27
0.0
 37
0.0
 40
341.0239930926576
 41
2.356965174129353
 42
50.0
 43
0.0
 44
0.0
 50
0.0
 51
0.0
 71
     0
 72
   100
 73
     1
 74
     3
 75
     0
 76
     0
 77
     0
 78
     0
281
     0
 65
     1
110
0.0
120
0.0
130
0.0
111
1.0
121
0.0
131
0.0
112
0.0
122
1.0
132
0.0
 79
     0
146
0.0
348
10022
 60
     3
 61
     5
292
     1
282
     1
141
0.0
142
0.0
 63
   250
421
  3355443
1001
ACAD_NAV_VCDISPLAY
1070
     3
  0
ENDTAB
  0
TABLE
  2
LTYPE
  5
5
330
0
100
AcDbSymbolTable
 70
     1
  0
LTYPE
  5
14
330
5
100
AcDbSymbolTableRecord
100
AcDbLinetypeTableRecord
  2
BYBLOCK
 70
     0
  3

 72
    65
 73
     0
 40
0.0
  0
LTYPE
  5
15
330
5
100
AcDbSymbolTableRecord
100
AcDbLinetypeTableRecord
  2
BYLAYER
 70
     0
  3

 72
    65
 73
     0
 40
0.0
  0
LTYPE
  5
16
330
5
100
AcDbSymbolTableRecord
100
AcDbLinetypeTableRecord
  2
CONTINUOUS
 70
     0
  3
Solid line
 72
    65
 73
     0
 40
0.0
  0
ENDTAB
  0
TABLE
  2
LAYER
  5
2
330
0
100
AcDbSymbolTable
 70
     2
  0
LAYER
  5
50
102
{ACAD_XDICTIONARY
360
10057
102
}
330
2
100
AcDbSymbolTableRecord
100
AcDbLayerTableRecord
  2
0
 70
     0
 62
     7
  6
CONTINUOUS
370
    -3
390
10002
347
10014
348
0
  0
LAYER
  5
51
102
{ACAD_XDICTIONARY
360
10059
102
}
330
2
100
AcDbSymbolTableRecord
100
AcDbLayerTableRecord
  2
LAYER_1
 70
     0
 62
     7
  6
CONTINUOUS
370
    -3
390
10002
347
10014
348
0
  0
ENDTAB
  0
TABLE
  2
STYLE
  5
3
330
0
100
AcDbSymbolTable
 70
     1
  0
STYLE
  5
11
330
3
100
AcDbSymbolTableRecord
100
AcDbTextStyleTableRecord
  2
STANDARD
 70
     0
 40
0.0
 41
1.0
 50
0.0
 71
     0
 42
2.5
  3
txt
  4

  0
ENDTAB
  0
TABLE
  2
VIEW
  5
6
330
0
100
AcDbSymbolTable
 70
     0
  0
ENDTAB
  0
TABLE
  2
UCS
  5
7
330
0
100
AcDbSymbolTable
 70
     0
  0
ENDTAB
  0
TABLE
  2
APPID
  5
9
330
0
100
AcDbSymbolTable
 70
     2
  0
APPID
  5
12
330
9
100
AcDbSymbolTableRecord
100
AcDbRegAppTableRecord
  2
ACAD
 70
     0
  0
APPID
  5
10065
330
9
100
AcDbSymbolTableRecord
100
AcDbRegAppTableRecord
  2
ACAD_NAV_VCDISPLAY
 70
     0
  0
ENDTAB
  0
TABLE
  2
DIMSTYLE
  5
A
330
0
100
AcDbSymbolTable
 70
     1
100
AcDbDimStyleTable
 71
     0
  0
DIMSTYLE
105
27
330
A
100
AcDbSymbolTableRecord
100
AcDbDimStyleTableRecord
  2
ISO-25
 70
     0
 41
2.5
 42
0.625
 43
3.75
 44
1.25
 73
     0
 74
     0
 77
     1
 78
     8
140
2.5
141
2.5
143
0.03937007874016
147
0.625
171
     3
172
     1
271
     2
272
     2
274
     3
283
     0
284
     8
340
11
  0
ENDTAB
  0
TABLE
  2
BLOCK_RECORD
  5
1
330
0
100
AcDbSymbolTable
 70
     0
  0
BLOCK_RECORD
  5
1F
330
1
100
AcDbSymbolTableRecord
100
AcDbBlockTableRecord
  2
*MODEL_SPACE
340
10052
 70
     0
280
     1
281
     0
  0
BLOCK_RECORD
  5
1B
330
1
100
AcDbSymbolTableRecord
100
AcDbBlockTableRecord
  2
*PAPER_SPACE
340
10053
 70
     0
280
     1
281
     0
  0
ENDTAB
  0
ENDSEC
  0
SECTION
  2
BLOCKS
  0
BLOCK
  5
20
330
1F
100
AcDbEntity
  8
0
100
AcDbBlockBegin
  2
*MODEL_SPACE
 70
     0
 10
0.0
 20
0.0
 30
0.0
  3
*MODEL_SPACE
  1

  0
ENDBLK
  5
21
330
1F
100
AcDbEntity
  8
0
100
AcDbBlockEnd
  0
BLOCK
  5
1C
330
1B
100
AcDbEntity
 67
     1
  8
0
100
AcDbBlockBegin
  2
*PAPER_SPACE
 70
     0
 10
0.0
 20
0.0
 30
0.0
  3
*PAPER_SPACE
  1

  0
ENDBLK
  5
1D
330
1B
100
AcDbEntity
 67
     1
  8
0
100
AcDbBlockEnd
  0
ENDSEC
  0
SECTION
  2
ENTITIES
  0
LINE
  5
102
330
1F
100
AcDbEntity
  8
LAYER_1
 62
     7
100
AcDbLine
 10
302.641158
 20
44.258834
 30
0.0
 11
302.641158
 21
39.258835
 31
0.0
  0
LINE
  5
103
330
1F
100
AcDbEntity
  8
LAYER_1
 62
     7
100
AcDbLine
 10
302.641158
 20
39.258835
 30
0.0
 11
327.6411589999999
 21
39.258835
 31
0.0
  0
LINE
  5
104
330
1F
100
AcDbEntity
  8
LAYER_1
 62
     7
100
AcDbLine
 10
327.6411589999999
 20
39.258835
 30
0.0
 11
327.6411589999999
 21
44.258834
 31
0.0
  0
LINE
  5
105
330
1F
100
AcDbEntity
  8
LAYER_1
 62
     7
100
AcDbLine
 10
327.6411589999999
 20
44.258834
 30
0.0
 11
332.641158
 21
44.258834
 31
0.0
  0
LINE
  5
106
330
1F
100
AcDbEntity
  8
LAYER_1
 62
     7
100
AcDbLine
 10
332.641158
 20
44.258834
 30
0.0
 11
332.641158
 21
0.258823
 31
0.0
  0
LINE
  5
107
330
1F
100
AcDbEntity
  8
LAYER_1
 62
     7
100
AcDbLine
 10
332.641158
 20
0.258823
 30
0.0
 11
327.6411589999999
 21
0.258823
 31
0.0
  0
LINE
  5
108
330
1F
100
AcDbEntity
  8
LAYER_1
 62
     7
100
AcDbLine
 10
327.6411589999999
 20
0.258823
 30
0.0
 11
327.6411589999999
 21
5.258841
 31
0.0
  0
LINE
  5
109
330
1F
100
AcDbEntity
  8
LAYER_1
 62
     7
100
AcDbLine
 10
327.6411589999999
 20
5.258841
 30
0.0
 11
302.641158
 21
5.258841
 31
0.0
  0
LINE
  5
10A
330
1F
100
AcDbEntity
  8
LAYER_1
 62
     7
100
AcDbLine
 10
302.641158
 20
5.258841
 30
0.0
 11
302.641158
 21
0.258823
 31
0.0
  0
LINE
  5
10C
330
1F
100
AcDbEntity
  8
LAYER_1
 62
     7
100
AcDbLine
 10
262.641164
 20
0.258823
 30
0.0
 11
262.641165
 21
59.45882
 31
0.0
  0
LINE
  5
10D
330
1F
100
AcDbEntity
  8
LAYER_1
 62
     7
100
AcDbLine
 10
262.641164
 20
44.258834
 30
0.0
 11
267.641163
 21
44.258834
 31
0.0
  0
LINE
  5
10E
330
1F
100
AcDbEntity
  8
LAYER_1
 62
     7
100
AcDbLine
 10
267.641163
 20
44.258834
 30
0.0
 11
267.641163
 21
39.258835
 31
0.0
  0
LINE
  5
10F
330
1F
100
AcDbEntity
  8
LAYER_1
 62
     7
100
AcDbLine
 10
267.641163
 20
39.258835
 30
0.0
 11
277.641163
 21
39.258835
 31
0.0
  0
LINE
  5
110
330
1F
100
AcDbEntity
  8
LAYER_1
 62
     7
100
AcDbLine
 10
277.641163
 20
39.258835
 30
0.0
 11
277.641163
 21
34.25884
 31
0.0
  0
LINE
  5
111
330
1F
100
AcDbEntity
  8
LAYER_1
 62
     7
100
AcDbLine
 10
277.641163
 20
34.25884
 30
0.0
 11
282.641164
 21
34.25884
 31
0.0
  0
LINE
  5
112
330
1F
100
AcDbEntity
  8
LAYER_1
 62
     7
100
AcDbLine
 10
282.641164
 20
34.25884
 30
0.0
 11
282.641164
 21
39.258835
 31
0.0
  0
LINE
  5
113
330
1F
100
AcDbEntity
  8
LAYER_1
 62
     7
100
AcDbLine
 10
282.641164
 20
39.258835
 30
0.0
 11
292.641164
 21
39.258835
 31
0.0
  0
LINE
  5
114
330
1F
100
AcDbEntity
  8
LAYER_1
 62
     7
100
AcDbLine
 10
292.641164
 20
39.258835
 30
0.0
 11
292.641164
 21
44.258834
 31
0.0
  0
LINE
  5
115
330
1F
100
AcDbEntity
  8
LAYER_1
 62
     7
100
AcDbLine
 10
292.641164
 20
44.258834
 30
0.0
 11
302.641158
 21
44.258834
 31
0.0
  0
LINE
  5
116
330
1F
100
AcDbEntity
  8
LAYER_1
 62
     7
100
AcDbLine
 10
297.641164
 20
44.258834
 30
0.0
 11
297.641164
 21
0.258823
 31
0.0
  0
LINE
  5
117
330
1F
100
AcDbEntity
  8
LAYER_1
 62
     7
100
AcDbLine
 10
302.641158
 20
0.258823
 30
0.0
 11
292.641164
 21
0.258823
 31
0.0
  0
LINE
  5
118
330
1F
100
AcDbEntity
  8
LAYER_1
 62
     7
100
AcDbLine
 10
292.641164
 20
0.258823
 30
0.0
 11
292.641164
 21
5.258841
 31
0.0
  0
LINE
  5
119
330
1F
100
AcDbEntity
  8
LAYER_1
 62
     7
100
AcDbLine
 10
292.641164
 20
5.258841
 30
0.0
 11
267.641163
 21
5.258841
 31
0.0
  0
LINE
  5
11A
330
1F
100
AcDbEntity
  8
LAYER_1
 62
     7
100
AcDbLine
 10
267.641163
 20
5.258841
 30
0.0
 11
267.641163
 21
0.258823
 31
0.0
  0
LINE
  5
11D
330
1F
100
AcDbEntity
  8
LAYER_1
 62
     7
100
AcDbLine
 10
207.641134
 20
34.758826
 30
0.0
 11
207.641134
 21
24.958829
 31
0.0
  0
LINE
  5
11E
330
1F
100
AcDbEntity
  8
LAYER_1
 62
     7
100
AcDbLine
 10
207.641134
 20
24.958829
 30
0.0
 11
217.641114
 21
24.958829
 31
0.0
  0
LINE
  5
11F
330
1F
100
AcDbEntity
  8
LAYER_1
 62
     7
100
AcDbLine
 10
217.641114
 20
24.958829
 30
0.0
 11
217.641114
 21
34.758826
 31
0.0
  0
LINE
  5
120
330
1F
100
AcDbEntity
  8
LAYER_1
 62
     7
100
AcDbLine
 10
217.641114
 20
29.858829
 30
0.0
 11
227.64115
 21
29.858823
 31
0.0
  0
LINE
  5
122
330
1F
100
AcDbEntity
  8
LAYER_1
 62
     7
100
AcDbLine
 10
227.64115
 20
0.258826
 30
0.0
 11
217.641114
 21
0.258829
 31
0.0
  0
LINE
  5
123
330
1F
100
AcDbEntity
  8
LAYER_1
 62
     7
100
AcDbLine
 10
217.641114
 20
0.258829
 30
0.0
 11
217.641114
 21
5.158828999999999
 31
0.0
  0
LINE
  5
124
330
1F
100
AcDbEntity
  8
LAYER_1
 62
     7
100
AcDbLine
 10
217.641114
 20
5.158828999999999
 30
0.0
 11
207.641134
 21
5.158828999999999
 31
0.0
  0
LINE
  5
125
330
1F
100
AcDbEntity
  8
LAYER_1
 62
     7
100
AcDbLine
 10
207.641134
 20
5.158828999999999
 30
0.0
 11
207.641134
 21
0.258829
 31
0.0
  0
LINE
  5
126
330
1F
100
AcDbEntity
  8
LAYER_1
 62
     7
100
AcDbLine
 10
207.641134
 20
0.258829
 30
0.0
 11
202.641115
 21
0.258829
 31
0.0
  0
LINE
  5
127
330
1F
100
AcDbEntity
  8
LAYER_1
 62
     7
100
AcDbLine
 10
202.641115
 20
0.258829
 30
0.0
 11
202.641115
 21
59.458826
 31
0.0
  0
LINE
  5
128
330
1F
100
AcDbEntity
  8
LAYER_1
 62
     7
100
AcDbLine
 10
212.641124
 20
19.058829
 30
0.0
 11
213.142124
 21
19.026829
 31
0.0
  0
LINE
  5
129
330
1F
100
AcDbEntity
  8
LAYER_1
 62
     7
100
AcDbLine
 10
213.142124
 20
19.026829
 30
0.0
 11
213.636126
 21
18.932829
 31
0.0
  0
LINE
  5
12A
330
1F
100
AcDbEntity
  8
LAYER_1
 62
     7
100
AcDbLine
 10
213.636126
 20
18.932829
 30
0.0
 11
214.11311
 21
18.777829
 31
0.0
  0
LINE
  5
12B
330
1F
100
AcDbEntity
  8
LAYER_1
 62
     7
100
AcDbLine
 10
214.11311
 20
18.777829
 30
0.0
 11
214.568109
 21
18.563829
 31
0.0
  0
LINE
  5
12C
330
1F
100
AcDbEntity
  8
LAYER_1
 62
     7
100
AcDbLine
 10
214.568109
 20
18.563829
 30
0.0
 11
214.992119
 21
18.294829
 31
0.0
  0
LINE
  5
12D
330
1F
100
AcDbEntity
  8
LAYER_1
 62
     7
100
AcDbLine
 10
214.992119
 20
18.294829
 30
0.0
 11
215.379131
 21
17.974829
 31
0.0
  0
LINE
  5
12E
330
1F
100
AcDbEntity
  8
LAYER_1
 62
     7
100
AcDbLine
 10
215.379131
 20
17.974829
 30
0.0
 11
215.723131
 21
17.608829
 31
0.0
  0
LINE
  5
12F
330
1F
100
AcDbEntity
  8
LAYER_1
 62
     7
100
AcDbLine
 10
215.723131
 20
17.608829
 30
0.0
 11
216.01811
 21
17.201829
 31
0.0
  0
LINE
  5
130
330
1F
100
AcDbEntity
  8
LAYER_1
 62
     7
100
AcDbLine
 10
216.01811
 20
17.201829
 30
0.0
 11
216.260116
 21
16.761829
 31
0.0
  0
LINE
  5
131
330
1F
100
AcDbEntity
  8
LAYER_1
 62
     7
100
AcDbLine
 10
216.260116
 20
16.761829
 30
0.0
 11
216.445112
 21
16.294829
 31
0.0
  0
LINE
  5
132
330
1F
100
AcDbEntity
  8
LAYER_1
 62
     7
100
AcDbLine
 10
216.445112
 20
16.294829
 30
0.0
 11
216.570108
 21
15.808829
 31
0.0
  0
LINE
  5
133
330
1F
100
AcDbEntity
  8
LAYER_1
 62
     7
100
AcDbLine
 10
216.570108
 20
15.808829
 30
0.0
 11
216.633129
 21
15.309829
 31
0.0
  0
LINE
  5
134
330
1F
100
AcDbEntity
  8
LAYER_1
 62
     7
100
AcDbLine
 10
216.633129
 20
15.309829
 30
0.0
 11
216.633129
 21
14.807829
 31
0.0
  0
LINE
  5
135
330
1F
100
AcDbEntity
  8
LAYER_1
 62
     7
100
AcDbLine
 10
216.633129
 20
14.807829
 30
0.0
 11
216.570108
 21
14.308829
 31
0.0
  0
LINE
  5
136
330
1F
100
AcDbEntity
  8
LAYER_1
 62
     7
100
AcDbLine
 10
216.570108
 20
14.308829
 30
0.0
 11
216.445112
 21
13.822829
 31
0.0
  0
LINE
  5
137
330
1F
100
AcDbEntity
  8
LAYER_1
 62
     7
100
AcDbLine
 10
216.445112
 20
13.822829
 30
0.0
 11
216.260116
 21
13.355829
 31
0.0
  0
LINE
  5
138
330
1F
100
AcDbEntity
  8
LAYER_1
 62
     7
100
AcDbLine
 10
216.260116
 20
13.355829
 30
0.0
 11
216.01811
 21
12.915829
 31
0.0
  0
LINE
  5
139
330
1F
100
AcDbEntity
  8
LAYER_1
 62
     7
100
AcDbLine
 10
216.01811
 20
12.915829
 30
0.0
 11
215.723131
 21
12.508829
 31
0.0
  0
LINE
  5
13A
330
1F
100
AcDbEntity
  8
LAYER_1
 62
     7
100
AcDbLine
 10
215.723131
 20
12.508829
 30
0.0
 11
215.379131
 21
12.142829
 31
0.0
  0
LINE
  5
13B
330
1F
100
AcDbEntity
  8
LAYER_1
 62
     7
100
AcDbLine
 10
215.379131
 20
12.142829
 30
0.0
 11
214.992119
 21
11.822829
 31
0.0
  0
LINE
  5
13C
330
1F
100
AcDbEntity
  8
LAYER_1
 62
     7
100
AcDbLine
 10
214.992119
 20
11.822829
 30
0.0
 11
214.568109
 21
11.553829
 31
0.0
  0
LINE
  5
13D
330
1F
100
AcDbEntity
  8
LAYER_1
 62
     7
100
AcDbLine
 10
214.568109
 20
11.553829
 30
0.0
 11
214.11311
 21
11.339829
 31
0.0
  0
LINE
  5
13E
330
1F
100
AcDbEntity
  8
LAYER_1
 62
     7
100
AcDbLine
 10
214.11311
 20
11.339829
 30
0.0
 11
213.636126
 21
11.184829
 31
0.0
  0
LINE
  5
13F
330
1F
100
AcDbEntity
  8
LAYER_1
 62
     7
100
AcDbLine
 10
213.636126
 20
11.184829
 30
0.0
 11
213.142124
 21
11.090829
 31
0.0
  0
LINE
  5
140
330
1F
100
AcDbEntity
  8
LAYER_1
 62
     7
100
AcDbLine
 10
213.142124
 20
11.090829
 30
0.0
 11
212.641124
 21
11.058829
 31
0.0
  0
LINE
  5
141
330
1F
100
AcDbEntity
  8
LAYER_1
 62
     7
100
AcDbLine
 10
212.641124
 20
11.058829
 30
0.0
 11
212.140123
 21
11.090829
 31
0.0
  0
LINE
  5
142
330
1F
100
AcDbEntity
  8
LAYER_1
 62
     7
100
AcDbLine
 10
212.140123
 20
11.090829
 30
0.0
 11
211.646121
 21
11.184829
 31
0.0
  0
LINE
  5
143
330
1F
100
AcDbEntity
  8
LAYER_1
 62
     7
100
AcDbLine
 10
211.646121
 20
11.184829
 30
0.0
 11
211.169109
 21
11.339829
 31
0.0
  0
LINE
  5
144
330
1F
100
AcDbEntity
  8
LAYER_1
 62
     7
100
AcDbLine
 10
211.169109
 20
11.339829
 30
0.0
 11
210.71411
 21
11.553829
 31
0.0
  0
LINE
  5
145
330
1F
100
AcDbEntity
  8
LAYER_1
 62
     7
100
AcDbLine
 10
210.71411
 20
11.553829
 30
0.0
 11
210.290128
 21
11.822829
 31
0.0
  0
LINE
  5
146
330
1F
100
AcDbEntity
  8
LAYER_1
 62
     7
100
AcDbLine
 10
210.290128
 20
11.822829
 30
0.0
 11
209.903116
 21
12.142829
 31
0.0
  0
LINE
  5
147
330
1F
100
AcDbEntity
  8
LAYER_1
 62
     7
100
AcDbLine
 10
209.903116
 20
12.142829
 30
0.0
 11
209.559116
 21
12.508829
 31
0.0
  0
LINE
  5
148
330
1F
100
AcDbEntity
  8
LAYER_1
 62
     7
100
AcDbLine
 10
209.559116
 20
12.508829
 30
0.0
 11
209.264109
 21
12.915829
 31
0.0
  0
LINE
  5
149
330
1F
100
AcDbEntity
  8
LAYER_1
 62
     7
100
AcDbLine
 10
209.264109
 20
12.915829
 30
0.0
 11
209.022132
 21
13.355829
 31
0.0
  0
LINE
  5
14A
330
1F
100
AcDbEntity
  8
LAYER_1
 62
     7
100
AcDbLine
 10
209.022132
 20
13.355829
 30
0.0
 11
208.837135
 21
13.822829
 31
0.0
  0
LINE
  5
14B
330
1F
100
AcDbEntity
  8
LAYER_1
 62
     7
100
AcDbLine
 10
208.837135
 20
13.822829
 30
0.0
 11
208.71211
 21
14.308829
 31
0.0
  0
LINE
  5
14C
330
1F
100
AcDbEntity
  8
LAYER_1
 62
     7
100
AcDbLine
 10
208.71211
 20
14.308829
 30
0.0
 11
208.649118
 21
14.807829
 31
0.0
  0
LINE
  5
14D
330
1F
100
AcDbEntity
  8
LAYER_1
 62
     7
100
AcDbLine
 10
208.649118
 20
14.807829
 30
0.0
 11
208.649118
 21
15.309829
 31
0.0
  0
LINE
  5
14E
330
1F
100
AcDbEntity
  8
LAYER_1
 62
     7
100
AcDbLine
 10
208.649118
 20
15.309829
 30
0.0
 11
208.71211
 21
15.808829
 31
0.0
  0
LINE
  5
14F
330
1F
100
AcDbEntity
  8
LAYER_1
 62
     7
100
AcDbLine
 10
208.71211
 20
15.808829
 30
0.0
 11
208.837135
 21
16.294829
 31
0.0
  0
LINE
  5
150
330
1F
100
AcDbEntity
  8
LAYER_1
 62
     7
100
AcDbLine
 10
208.837135
 20
16.294829
 30
0.0
 11
209.022132
 21
16.761829
 31
0.0
  0
LINE
  5
151
330
1F
100
AcDbEntity
  8
LAYER_1
 62
     7
100
AcDbLine
 10
209.022132
 20
16.761829
 30
0.0
 11
209.264109
 21
17.201829
 31
0.0
  0
LINE
  5
152
330
1F
100
AcDbEntity
  8
LAYER_1
 62
     7
100
AcDbLine
 10
209.264109
 20
17.201829
 30
0.0
 11
209.559116
 21
17.608829
 31
0.0
  0
LINE
  5
153
330
1F
100
AcDbEntity
  8
LAYER_1
 62
     7
100
AcDbLine
 10
209.559116
 20
17.608829
 30
0.0
 11
209.903116
 21
17.974829
 31
0.0
  0
LINE
  5
154
330
1F
100
AcDbEntity
  8
LAYER_1
 62
     7
100
AcDbLine
 10
209.903116
 20
17.974829
 30
0.0
 11
210.290128
 21
18.294829
 31
0.0
  0
LINE
  5
155
330
1F
100
AcDbEntity
  8
LAYER_1
 62
     7
100
AcDbLine
 10
210.290128
 20
18.294829
 30
0.0
 11
210.71411
 21
18.563829
 31
0.0
  0
LINE
  5
156
330
1F
100
AcDbEntity
  8
LAYER_1
 62
     7
100
AcDbLine
 10
210.71411
 20
18.563829
 30
0.0
 11
211.169109
 21
18.777829
 31
0.0
  0
LINE
  5
157
330
1F
100
AcDbEntity
  8
LAYER_1
 62
     7
100
AcDbLine
 10
211.169109
 20
18.777829
 30
0.0
 11
211.646121
 21
18.932829
 31
0.0
  0
LINE
  5
158
330
1F
100
AcDbEntity
  8
LAYER_1
 62
     7
100
AcDbLine
 10
211.646121
 20
18.932829
 30
0.0
 11
212.140123
 21
19.026829
 31
0.0
  0
LINE
  5
159
330
1F
100
AcDbEntity
  8
LAYER_1
 62
     7
100
AcDbLine
 10
212.140123
 20
19.026829
 30
0.0
 11
212.641124
 21
19.058829
 31
0.0
  0
LINE
  5
15A
330
1F
100
AcDbEntity
  8
LAYER_1
 62
     7
100
AcDbLine
 10
29.741111
 20
50.141125
 30
0.0
 11
29.741111
 21
45.14113499999999
 31
0.0
  0
LINE
  5
15F
330
1F
100
AcDbEntity
  8
LAYER_1
 62
     7
100
AcDbLine
 10
29.741111
 20
35.141127
 30
0.0
 11
24.841111
 21
35.141127
 31
0.0
  0
LINE
  5
161
330
1F
100
AcDbEntity
  8
LAYER_1
 62
     7
100
AcDbLine
 10
24.841111
 20
30.141137
 30
0.0
 11
29.741111
 21
30.141137
 31
0.0
  0
LINE
  5
162
330
1F
100
AcDbEntity
  8
LAYER_1
 62
     7
100
AcDbLine
 10
29.741111
 20
30.141137
 30
0.0
 11
29.741111
 21
25.141119
 31
0.0
  0
LINE
  5
163
330
1F
100
AcDbEntity
  8
LAYER_1
 62
     7
100
AcDbLine
 10
29.741111
 20
25.141119
 30
0.0
 11
24.841111
 21
25.141119
 31
0.0
  0
LINE
  5
164
330
1F
100
AcDbEntity
  8
LAYER_1
 62
     7
100
AcDbLine
 10
24.841111
 20
25.141119
 30
0.0
 11
24.841111
 21
20.141129
 31
0.0
  0
LINE
  5
166
330
1F
100
AcDbEntity
  8
LAYER_1
 62
     7
100
AcDbLine
 10
29.741111
 20
20.141129
 30
0.0
 11
29.741111
 21
15.141139
 31
0.0
  0
LINE
  5
168
330
1F
100
AcDbEntity
  8
LAYER_1
 62
     7
100
AcDbLine
 10
24.841111
 20
15.141139
 30
0.0
 11
24.841111
 21
10.141129
 31
0.0
  0
LINE
  5
169
330
1F
100
AcDbEntity
  8
LAYER_1
 62
     7
100
AcDbLine
 10
24.841111
 20
10.141129
 30
0.0
 11
29.741111
 21
10.141129
 31
0.0
  0
LINE
  5
16A
330
1F
100
AcDbEntity
  8
LAYER_1
 62
     7
100
AcDbLine
 10
29.741111
 20
10.141129
 30
0.0
 11
29.741111
 21
5.141128
 31
0.0
  0
LINE
  5
16B
330
1F
100
AcDbEntity
  8
LAYER_1
 62
     7
100
AcDbLine
 10
54.441113
 20
5.141099999999999
 30
0.0
 11
24.841111
 21
5.141128
 31
0.0
  0
LINE
  5
16C
330
1F
100
AcDbEntity
  8
LAYER_1
 62
     7
100
AcDbLine
 10
24.841111
 20
5.141128
 30
0.0
 11
24.841111
 21
0.141129
 31
0.0
  0
LINE
  5
16D
330
1F
100
AcDbEntity
  8
LAYER_1
 62
     7
100
AcDbLine
 10
24.841111
 20
0.141129
 30
0.0
 11
5.041110999999999
 21
0.141129
 31
0.0
  0
LINE
  5
16E
330
1F
100
AcDbEntity
  8
LAYER_1
 62
     7
100
AcDbLine
 10
5.041110999999999
 20
0.141129
 30
0.0
 11
5.041110999999999
 21
5.141128
 31
0.0
  0
LINE
  5
16F
330
1F
100
AcDbEntity
  8
LAYER_1
 62
     7
100
AcDbLine
 10
5.041110999999999
 20
5.141128
 30
0.0
 11
0.141111
 21
5.141128
 31
0.0
  0
LINE
  5
170
330
1F
100
AcDbEntity
  8
LAYER_1
 62
     7
100
AcDbLine
 10
0.141111
 20
5.141128
 30
0.0
 11
0.141111
 21
10.141129
 31
0.0
  0
LINE
  5
171
330
1F
100
AcDbEntity
  8
LAYER_1
 62
     7
100
AcDbLine
 10
0.141111
 20
10.141129
 30
0.0
 11
5.041110999999999
 21
10.141129
 31
0.0
  0
LINE
  5
172
330
1F
100
AcDbEntity
  8
LAYER_1
 62
     7
100
AcDbLine
 10
5.041110999999999
 20
10.141129
 30
0.0
 11
5.041110999999999
 21
15.141139
 31
0.0
  0
LINE
  5
173
330
1F
100
AcDbEntity
  8
LAYER_1
 62
     7
100
AcDbLine
 10
5.041110999999999
 20
15.141139
 30
0.0
 11
0.141111
 21
15.141139
 31
0.0
  0
LINE
  5
174
330
1F
100
AcDbEntity
  8
LAYER_1
 62
     7
100
AcDbLine
 10
0.141111
 20
15.141139
 30
0.0
 11
0.141111
 21
20.141129
 31
0.0
  0
LINE
  5
175
330
1F
100
AcDbEntity
  8
LAYER_1
 62
     7
100
AcDbLine
 10
0.141111
 20
20.141129
 30
0.0
 11
5.041110999999999
 21
20.141129
 31
0.0
  0
LINE
  5
176
330
1F
100
AcDbEntity
  8
LAYER_1
 62
     7
100
AcDbLine
 10
5.041110999999999
 20
20.141129
 30
0.0
 11
5.041110999999999
 21
25.141119
 31
0.0
  0
LINE
  5
177
330
1F
100
AcDbEntity
  8
LAYER_1
 62
     7
100
AcDbLine
 10
5.041110999999999
 20
25.141119
 30
0.0
 11
0.141111
 21
25.141119
 31
0.0
  0
LINE
  5
178
330
1F
100
AcDbEntity
  8
LAYER_1
 62
     7
100
AcDbLine
 10
0.141111
 20
25.141119
 30
0.0
 11
0.141111
 21
30.141137
 31
0.0
  0
LINE
  5
179
330
1F
100
AcDbEntity
  8
LAYER_1
 62
     7
100
AcDbLine
 10
0.141111
 20
30.141137
 30
0.0
 11
5.041110999999999
 21
30.141137
 31
0.0
  0
LINE
  5
17A
330
1F
100
AcDbEntity
  8
LAYER_1
 62
     7
100
AcDbLine
 10
5.041110999999999
 20
30.141137
 30
0.0
 11
5.041110999999999
 21
35.141127
 31
0.0
  0
LINE
  5
17B
330
1F
100
AcDbEntity
  8
LAYER_1
 62
     7
100
AcDbLine
 10
5.041110999999999
 20
35.141127
 30
0.0
 11
0.141111
 21
35.141127
 31
0.0
  0
LINE
  5
17C
330
1F
100
AcDbEntity
  8
LAYER_1
 62
     7
100
AcDbLine
 10
0.141111
 20
35.141127
 30
0.0
 11
0.141111
 21
40.14111699999999
 31
0.0
  0
LINE
  5
17D
330
1F
100
AcDbEntity
  8
LAYER_1
 62
     7
100
AcDbLine
 10
0.141111
 20
40.14111699999999
 30
0.0
 11
5.041110999999999
 21
40.14111699999999
 31
0.0
  0
LINE
  5
17E
330
1F
100
AcDbEntity
  8
LAYER_1
 62
     7
100
AcDbLine
 10
5.041110999999999
 20
40.14111699999999
 30
0.0
 11
5.041110999999999
 21
45.14113499999999
 31
0.0
  0
LINE
  5
17F
330
1F
100
AcDbEntity
  8
LAYER_1
 62
     7
100
AcDbLine
 10
5.041110999999999
 20
45.14113499999999
 30
0.0
 11
0.141111
 21
45.14113499999999
 31
0.0
  0
LINE
  5
180
330
1F
100
AcDbEntity
  8
LAYER_1
 62
     7
100
AcDbLine
 10
0.141111
 20
45.14113499999999
 30
0.0
 11
0.141111
 21
50.141125
 31
0.0
  0
LINE
  5
181
330
1F
100
AcDbEntity
  8
LAYER_1
 62
     7
100
AcDbLine
 10
0.141111
 20
50.141125
 30
0.0
 11
5.041110999999999
 21
50.141125
 31
0.0
  0
LINE
  5
182
330
1F
100
AcDbEntity
  8
LAYER_1
 62
     7
100
AcDbLine
 10
5.041110999999999
 20
50.141125
 30
0.0
 11
5.041110999999999
 21
55.141144
 31
0.0
  0
LINE
  5
183
330
1F
100
AcDbEntity
  8
LAYER_1
 62
     7
100
AcDbLine
 10
5.041110999999999
 20
55.141144
 30
0.0
 11
29.741111
 21
55.141115
 31
0.0
  0
LINE
  5
184
330
1F
100
AcDbEntity
  8
LAYER_1
 62
     7
100
AcDbLine
 10
24.841111
 20
55.141144
 30
0.0
 11
24.841111
 21
50.141125
 31
0.0
  0
LINE
  5
187
330
1F
100
AcDbEntity
  8
LAYER_1
 62
     7
100
AcDbLine
 10
54.441111
 20
50.141125
 30
0.0
 11
49.541111
 21
50.141125
 31
0.0
  0
LINE
  5
189
330
1F
100
AcDbEntity
  8
LAYER_1
 62
     7
100
AcDbLine
 10
49.541111
 20
45.14110699999999
 30
0.0
 11
54.441111
 21
45.14110699999999
 31
0.0
  0
LINE
  5
18A
330
1F
100
AcDbEntity
  8
LAYER_1
 62
     7
100
AcDbLine
 10
54.441111
 20
45.14110699999999
 30
0.0
 11
54.441111
 21
40.14111699999999
 31
0.0
  0
LINE
  5
18D
330
1F
100
AcDbEntity
  8
LAYER_1
 62
     7
100
AcDbLine
 10
49.541111
 20
35.141127
 30
0.0
 11
54.441111
 21
35.141127
 31
0.0
  0
LINE
  5
18E
330
1F
100
AcDbEntity
  8
LAYER_1
 62
     7
100
AcDbLine
 10
54.441111
 20
35.141127
 30
0.0
 11
54.441111
 21
30.141109
 31
0.0
  0
LINE
  5
192
330
1F
100
AcDbEntity
  8
LAYER_1
 62
     7
100
AcDbLine
 10
54.441111
 20
25.141119
 30
0.0
 11
54.441111
 21
20.141129
 31
0.0
  0
LINE
  5
193
330
1F
100
AcDbEntity
  8
LAYER_1
 62
     7
100
AcDbLine
 10
54.441111
 20
20.141129
 30
0.0
 11
49.541111
 21
20.141129
 31
0.0
  0
LINE
  5
194
330
1F
100
AcDbEntity
  8
LAYER_1
 62
     7
100
AcDbLine
 10
49.541111
 20
20.141129
 30
0.0
 11
49.541111
 21
15.141119
 31
0.0
  0
LINE
  5
198
330
1F
100
AcDbEntity
  8
LAYER_1
 62
     7
100
AcDbLine
 10
49.541111
 20
10.141118
 30
0.0
 11
49.541111
 21
5.141119
 31
0.0
  0
LINE
  5
19D
330
1F
100
AcDbEntity
  8
LAYER_1
 62
     7
100
AcDbLine
 10
24.841111
 20
15.141119
 30
0.0
 11
29.741111
 21
15.141119
 31
0.0
  0
LINE
  5
19F
330
1F
100
AcDbEntity
  8
LAYER_1
 62
     7
100
AcDbLine
 10
29.741111
 20
20.141129
 30
0.0
 11
24.841111
 21
20.141129
 31
0.0
  0
LINE
  5
1A4
330
1F
100
AcDbEntity
  8
LAYER_1
 62
     7
100
AcDbLine
 10
24.841111
 20
30.141109
 30
0.0
 11
24.841111
 21
35.141127
 31
0.0
  0
LINE
  5
1A6
330
1F
100
AcDbEntity
  8
LAYER_1
 62
     7
100
AcDbLine
 10
29.741111
 20
35.141127
 30
0.0
 11
29.741111
 21
40.14111699999999
 31
0.0
  0
LINE
  5
1A7
330
1F
100
AcDbEntity
  8
LAYER_1
 62
     7
100
AcDbLine
 10
29.741111
 20
40.14111699999999
 30
0.0
 11
24.841111
 21
40.14111699999999
 31
0.0
  0
LINE
  5
1A8
330
1F
100
AcDbEntity
  8
LAYER_1
 62
     7
100
AcDbLine
 10
24.841111
 20
40.14111699999999
 30
0.0
 11
24.841111
 21
45.14110699999999
 31
0.0
  0
LINE
  5
1A9
330
1F
100
AcDbEntity
  8
LAYER_1
 62
     7
100
AcDbLine
 10
24.841111
 20
45.14110699999999
 30
0.0
 11
29.741111
 21
45.14110699999999
 31
0.0
  0
LINE
  5
1AB
330
1F
100
AcDbEntity
  8
LAYER_1
 62
     7
100
AcDbLine
 10
29.741111
 20
50.141125
 30
0.0
 11
24.841111
 21
50.141125
 31
0.0
  0
LINE
  5
1AE
330
1F
100
AcDbEntity
  8
LAYER_1
 62
     7
100
AcDbLine
 10
29.741111
 20
55.141115
 30
0.0
 11
29.741111
 21
60.14113399999999
 31
0.0
  0
LINE
  5
1AF
330
1F
100
AcDbEntity
  8
LAYER_1
 62
     7
100
AcDbLine
 10
29.741111
 20
60.14113399999999
 30
0.0
 11
49.541111
 21
60.14113399999999
 31
0.0
  0
LINE
  5
1B0
330
1F
100
AcDbEntity
  8
LAYER_1
 62
     7
100
AcDbLine
 10
49.541111
 20
60.14113399999999
 30
0.0
 11
49.541111
 21
55.141115
 31
0.0
  0
LINE
  5
1B1
330
1F
100
AcDbEntity
  8
LAYER_1
 62
     7
100
AcDbLine
 10
49.541111
 20
55.141115
 30
0.0
 11
79.14111099999999
 21
55.141087
 31
0.0
  0
LINE
  5
1B4
330
1F
100
AcDbEntity
  8
LAYER_1
 62
     7
100
AcDbLine
 10
74.241112
 20
45.14110699999999
 30
0.0
 11
74.241112
 21
40.141089
 31
0.0
  0
LINE
  5
1B7
330
1F
100
AcDbEntity
  8
LAYER_1
 62
     7
100
AcDbLine
 10
79.141113
 20
35.141099
 30
0.0
 11
74.241112
 21
35.141099
 31
0.0
  0
LINE
  5
1B8
330
1F
100
AcDbEntity
  8
LAYER_1
 62
     7
100
AcDbLine
 10
74.241112
 20
35.141099
 30
0.0
 11
74.241112
 21
30.141109
 31
0.0
  0
LINE
  5
1B9
330
1F
100
AcDbEntity
  8
LAYER_1
 62
     7
100
AcDbLine
 10
74.241112
 20
30.141109
 30
0.0
 11
79.141113
 21
30.141109
 31
0.0
  0
LINE
  5
1BA
330
1F
100
AcDbEntity
  8
LAYER_1
 62
     7
100
AcDbLine
 10
79.141113
 20
30.141109
 30
0.0
 11
79.141113
 21
25.141091
 31
0.0
  0
LINE
  5
1BC
330
1F
100
AcDbEntity
  8
LAYER_1
 62
     7
100
AcDbLine
 10
74.241112
 20
25.141091
 30
0.0
 11
74.241112
 21
20.141101
 31
0.0
  0
LINE
  5
1BD
330
1F
100
AcDbEntity
  8
LAYER_1
 62
     7
100
AcDbLine
 10
74.241112
 20
20.141101
 30
0.0
 11
79.141113
 21
20.141101
 31
0.0
  0
LINE
  5
1C1
330
1F
100
AcDbEntity
  8
LAYER_1
 62
     7
100
AcDbLine
 10
74.241112
 20
10.141101
 30
0.0
 11
79.141113
 21
10.141101
 31
0.0
  0
LINE
  5
1C3
330
1F
100
AcDbEntity
  8
LAYER_1
 62
     7
100
AcDbLine
 10
103.84111
 20
5.141099999999999
 30
0.0
 11
74.241112
 21
5.141099999999999
 31
0.0
  0
LINE
  5
1C4
330
1F
100
AcDbEntity
  8
LAYER_1
 62
     7
100
AcDbLine
 10
74.241112
 20
5.141099999999999
 30
0.0
 11
74.241112
 21
0.141101
 31
0.0
  0
LINE
  5
1C5
330
1F
100
AcDbEntity
  8
LAYER_1
 62
     7
100
AcDbLine
 10
74.241112
 20
0.141101
 30
0.0
 11
54.441113
 21
0.141101
 31
0.0
  0
LINE
  5
1C6
330
1F
100
AcDbEntity
  8
LAYER_1
 62
     7
100
AcDbLine
 10
54.441113
 20
0.141101
 30
0.0
 11
54.441113
 21
5.141099999999999
 31
0.0
  0
LINE
  5
1C9
330
1F
100
AcDbEntity
  8
LAYER_1
 62
     7
100
AcDbLine
 10
49.54111199999999
 20
10.141101
 30
0.0
 11
54.441113
 21
10.141101
 31
0.0
  0
LINE
  5
1CA
330
1F
100
AcDbEntity
  8
LAYER_1
 62
     7
100
AcDbLine
 10
54.441113
 20
10.141101
 30
0.0
 11
54.441113
 21
15.141111
 31
0.0
  0
LINE
  5
1CB
330
1F
100
AcDbEntity
  8
LAYER_1
 62
     7
100
AcDbLine
 10
54.441113
 20
15.141111
 30
0.0
 11
49.54111199999999
 21
15.141111
 31
0.0
  0
LINE
  5
1CF
330
1F
100
AcDbEntity
  8
LAYER_1
 62
     7
100
AcDbLine
 10
54.441113
 20
25.141091
 30
0.0
 11
49.54111199999999
 21
25.141091
 31
0.0
  0
LINE
  5
1D0
330
1F
100
AcDbEntity
  8
LAYER_1
 62
     7
100
AcDbLine
 10
49.54111199999999
 20
25.141091
 30
0.0
 11
49.54111199999999
 21
30.141109
 31
0.0
  0
LINE
  5
1D1
330
1F
100
AcDbEntity
  8
LAYER_1
 62
     7
100
AcDbLine
 10
49.54111199999999
 20
30.141109
 30
0.0
 11
54.441113
 21
30.141109
 31
0.0
  0
LINE
  5
1D4
330
1F
100
AcDbEntity
  8
LAYER_1
 62
     7
100
AcDbLine
 10
49.54111199999999
 20
35.141099
 30
0.0
 11
49.54111199999999
 21
40.141089
 31
0.0
  0
LINE
  5
1D5
330
1F
100
AcDbEntity
  8
LAYER_1
 62
     7
100
AcDbLine
 10
49.54111199999999
 20
40.141089
 30
0.0
 11
54.441113
 21
40.141089
 31
0.0
  0
LINE
  5
1D8
330
1F
100
AcDbEntity
  8
LAYER_1
 62
     7
100
AcDbLine
 10
49.54111199999999
 20
45.14110699999999
 30
0.0
 11
49.54111199999999
 21
50.14109699999999
 31
0.0
  0
LINE
  5
1DA
330
1F
100
AcDbEntity
  8
LAYER_1
 62
     7
100
AcDbLine
 10
54.441113
 20
50.14109699999999
 30
0.0
 11
54.441113
 21
55.141115
 31
0.0
  0
LINE
  5
1DC
330
1F
100
AcDbEntity
  8
LAYER_1
 62
     7
100
AcDbLine
 10
74.241112
 20
55.141115
 30
0.0
 11
74.241112
 21
50.14109699999999
 31
0.0
  0
LINE
  5
1E0
330
1F
100
AcDbEntity
  8
LAYER_1
 62
     7
100
AcDbLine
 10
98.94111099999999
 20
50.14109699999999
 30
0.0
 11
98.94111099999999
 21
45.14107899999999
 31
0.0
  0
LINE
  5
1E4
330
1F
100
AcDbEntity
  8
LAYER_1
 62
     7
100
AcDbLine
 10
98.94111099999999
 20
40.141089
 30
0.0
 11
98.94111099999999
 21
35.141099
 31
0.0
  0
LINE
  5
1E6
330
1F
100
AcDbEntity
  8
LAYER_1
 62
     7
100
AcDbLine
 10
103.841111
 20
35.141099
 30
0.0
 11
103.841111
 21
30.141081
 31
0.0
  0
LINE
  5
1E8
330
1F
100
AcDbEntity
  8
LAYER_1
 62
     7
100
AcDbLine
 10
98.94111099999999
 20
30.141081
 30
0.0
 11
98.94111099999999
 21
25.141091
 31
0.0
  0
LINE
  5
1E9
330
1F
100
AcDbEntity
  8
LAYER_1
 62
     7
100
AcDbLine
 10
98.94111099999999
 20
25.141091
 30
0.0
 11
103.841111
 21
25.141091
 31
0.0
  0
LINE
  5
1EF
330
1F
100
AcDbEntity
  8
LAYER_1
 62
     7
100
AcDbLine
 10
103.841111
 20
10.14109
 30
0.0
 11
98.94111099999999
 21
10.14109
 31
0.0
  0
LINE
  5
1F2
330
1F
100
AcDbEntity
  8
LAYER_1
 62
     7
100
AcDbLine
 10
79.14111099999999
 20
5.141091
 30
0.0
 11
79.14111099999999
 21
10.14109
 31
0.0
  0
LINE
  5
1F4
330
1F
100
AcDbEntity
  8
LAYER_1
 62
     7
100
AcDbLine
 10
74.24111100000001
 20
10.14109
 30
0.0
 11
74.24111100000001
 21
15.141091
 31
0.0
  0
LINE
  5
1F5
330
1F
100
AcDbEntity
  8
LAYER_1
 62
     7
100
AcDbLine
 10
74.24111100000001
 20
15.141091
 30
0.0
 11
79.14111099999999
 21
15.141091
 31
0.0
  0
LINE
  5
1F6
330
1F
100
AcDbEntity
  8
LAYER_1
 62
     7
100
AcDbLine
 10
79.14111099999999
 20
15.141091
 30
0.0
 11
79.14111099999999
 21
20.141101
 31
0.0
  0
LINE
  5
1F9
330
1F
100
AcDbEntity
  8
LAYER_1
 62
     7
100
AcDbLine
 10
74.24111100000001
 20
25.141091
 30
0.0
 11
79.14111099999999
 21
25.141091
 31
0.0
  0
LINE
  5
1FE
330
1F
100
AcDbEntity
  8
LAYER_1
 62
     7
100
AcDbLine
 10
79.14111099999999
 20
35.141099
 30
0.0
 11
79.14111099999999
 21
40.141089
 31
0.0
  0
LINE
  5
1FF
330
1F
100
AcDbEntity
  8
LAYER_1
 62
     7
100
AcDbLine
 10
79.14111099999999
 20
40.141089
 30
0.0
 11
74.24111100000001
 21
40.141089
 31
0.0
  0
LINE
  5
201
330
1F
100
AcDbEntity
  8
LAYER_1
 62
     7
100
AcDbLine
 10
74.24111100000001
 20
45.14107899999999
 30
0.0
 11
79.14111099999999
 21
45.14107899999999
 31
0.0
  0
LINE
  5
202
330
1F
100
AcDbEntity
  8
LAYER_1
 62
     7
100
AcDbLine
 10
79.14111099999999
 20
45.14107899999999
 30
0.0
 11
79.14111099999999
 21
50.14109699999999
 31
0.0
  0
LINE
  5
203
330
1F
100
AcDbEntity
  8
LAYER_1
 62
     7
100
AcDbLine
 10
79.14111099999999
 20
50.14109699999999
 30
0.0
 11
74.24111100000001
 21
50.14109699999999
 31
0.0
  0
LINE
  5
206
330
1F
100
AcDbEntity
  8
LAYER_1
 62
     7
100
AcDbLine
 10
79.14111099999999
 20
55.141087
 30
0.0
 11
79.14111099999999
 21
60.14110500000001
 31
0.0
  0
LINE
  5
207
330
1F
100
AcDbEntity
  8
LAYER_1
 62
     7
100
AcDbLine
 10
79.14111099999999
 20
60.14110500000001
 30
0.0
 11
98.94111099999999
 21
60.14110500000001
 31
0.0
  0
LINE
  5
208
330
1F
100
AcDbEntity
  8
LAYER_1
 62
     7
100
AcDbLine
 10
98.94111099999999
 20
60.14110500000001
 30
0.0
 11
98.94111099999999
 21
55.141087
 31
0.0
  0
LINE
  5
209
330
1F
100
AcDbEntity
  8
LAYER_1
 62
     7
100
AcDbLine
 10
98.94111099999999
 20
55.141087
 30
0.0
 11
128.541108
 21
55.141087
 31
0.0
  0
LINE
  5
20A
330
1F
100
AcDbEntity
  8
LAYER_1
 62
     7
100
AcDbLine
 10
128.54111
 20
50.14109699999999
 30
0.0
 11
128.54111
 21
45.14110699999999
 31
0.0
  0
LINE
  5
20E
330
1F
100
AcDbEntity
  8
LAYER_1
 62
     7
100
AcDbLine
 10
128.54111
 20
40.141089
 30
0.0
 11
128.54111
 21
35.141099
 31
0.0
  0
LINE
  5
20F
330
1F
100
AcDbEntity
  8
LAYER_1
 62
     7
100
AcDbLine
 10
128.54111
 20
35.141099
 30
0.0
 11
123.64111
 21
35.141099
 31
0.0
  0
LINE
  5
210
330
1F
100
AcDbEntity
  8
LAYER_1
 62
     7
100
AcDbLine
 10
123.64111
 20
35.141099
 30
0.0
 11
123.64111
 21
30.141109
 31
0.0
  0
LINE
  5
211
330
1F
100
AcDbEntity
  8
LAYER_1
 62
     7
100
AcDbLine
 10
123.64111
 20
30.141109
 30
0.0
 11
128.54111
 21
30.141109
 31
0.0
  0
LINE
  5
212
330
1F
100
AcDbEntity
  8
LAYER_1
 62
     7
100
AcDbLine
 10
128.54111
 20
30.141109
 30
0.0
 11
128.54111
 21
25.141091
 31
0.0
  0
LINE
  5
214
330
1F
100
AcDbEntity
  8
LAYER_1
 62
     7
100
AcDbLine
 10
123.64111
 20
25.141091
 30
0.0
 11
123.64111
 21
20.141101
 31
0.0
  0
LINE
  5
216
330
1F
100
AcDbEntity
  8
LAYER_1
 62
     7
100
AcDbLine
 10
128.54111
 20
20.141101
 30
0.0
 11
128.54111
 21
15.141111
 31
0.0
  0
LINE
  5
218
330
1F
100
AcDbEntity
  8
LAYER_1
 62
     7
100
AcDbLine
 10
123.64111
 20
15.141111
 30
0.0
 11
123.64111
 21
10.141101
 31
0.0
  0
LINE
  5
219
330
1F
100
AcDbEntity
  8
LAYER_1
 62
     7
100
AcDbLine
 10
123.64111
 20
10.141101
 30
0.0
 11
128.54111
 21
10.141101
 31
0.0
  0
LINE
  5
21A
330
1F
100
AcDbEntity
  8
LAYER_1
 62
     7
100
AcDbLine
 10
128.54111
 20
10.141101
 30
0.0
 11
128.54111
 21
5.141099999999999
 31
0.0
  0
LINE
  5
21B
330
1F
100
AcDbEntity
  8
LAYER_1
 62
     7
100
AcDbLine
 10
153.241113
 20
5.141071
 30
0.0
 11
123.64111
 21
5.141099999999999
 31
0.0
  0
LINE
  5
21C
330
1F
100
AcDbEntity
  8
LAYER_1
 62
     7
100
AcDbLine
 10
123.64111
 20
5.141099999999999
 30
0.0
 11
123.64111
 21
0.141101
 31
0.0
  0
LINE
  5
21D
330
1F
100
AcDbEntity
  8
LAYER_1
 62
     7
100
AcDbLine
 10
123.64111
 20
0.141101
 30
0.0
 11
103.84111
 21
0.141101
 31
0.0
  0
LINE
  5
21E
330
1F
100
AcDbEntity
  8
LAYER_1
 62
     7
100
AcDbLine
 10
103.84111
 20
0.141101
 30
0.0
 11
103.84111
 21
5.141099999999999
 31
0.0
  0
LINE
  5
220
330
1F
100
AcDbEntity
  8
LAYER_1
 62
     7
100
AcDbLine
 10
98.94111
 20
5.141099999999999
 30
0.0
 11
98.94111
 21
10.141101
 31
0.0
  0
LINE
  5
222
330
1F
100
AcDbEntity
  8
LAYER_1
 62
     7
100
AcDbLine
 10
103.84111
 20
10.141101
 30
0.0
 11
103.84111
 21
15.141111
 31
0.0
  0
LINE
  5
223
330
1F
100
AcDbEntity
  8
LAYER_1
 62
     7
100
AcDbLine
 10
103.84111
 20
15.141111
 30
0.0
 11
98.94111
 21
15.141111
 31
0.0
  0
LINE
  5
224
330
1F
100
AcDbEntity
  8
LAYER_1
 62
     7
100
AcDbLine
 10
98.94111
 20
15.141111
 30
0.0
 11
98.94111
 21
20.141101
 31
0.0
  0
LINE
  5
225
330
1F
100
AcDbEntity
  8
LAYER_1
 62
     7
100
AcDbLine
 10
98.94111
 20
20.141101
 30
0.0
 11
103.84111
 21
20.141101
 31
0.0
  0
LINE
  5
226
330
1F
100
AcDbEntity
  8
LAYER_1
 62
     7
100
AcDbLine
 10
103.84111
 20
20.141101
 30
0.0
 11
103.84111
 21
25.141091
 31
0.0
  0
LINE
  5
229
330
1F
100
AcDbEntity
  8
LAYER_1
 62
     7
100
AcDbLine
 10
98.94111
 20
30.141109
 30
0.0
 11
103.84111
 21
30.141109
 31
0.0
  0
LINE
  5
22B
330
1F
100
AcDbEntity
  8
LAYER_1
 62
     7
100
AcDbLine
 10
103.84111
 20
35.141099
 30
0.0
 11
98.94111
 21
35.141099
 31
0.0
  0
LINE
  5
22D
330
1F
100
AcDbEntity
  8
LAYER_1
 62
     7
100
AcDbLine
 10
98.94111
 20
40.141089
 30
0.0
 11
103.84111
 21
40.141089
 31
0.0
  0
LINE
  5
22E
330
1F
100
AcDbEntity
  8
LAYER_1
 62
     7
100
AcDbLine
 10
103.84111
 20
40.141089
 30
0.0
 11
103.84111
 21
45.14110699999999
 31
0.0
  0
LINE
  5
22F
330
1F
100
AcDbEntity
  8
LAYER_1
 62
     7
100
AcDbLine
 10
103.84111
 20
45.14110699999999
 30
0.0
 11
98.94111
 21
45.14110699999999
 31
0.0
  0
LINE
  5
231
330
1F
100
AcDbEntity
  8
LAYER_1
 62
     7
100
AcDbLine
 10
98.94111
 20
50.14109699999999
 30
0.0
 11
103.84111
 21
50.14109699999999
 31
0.0
  0
LINE
  5
232
330
1F
100
AcDbEntity
  8
LAYER_1
 62
     7
100
AcDbLine
 10
103.84111
 20
50.14109699999999
 30
0.0
 11
103.84111
 21
55.141115
 31
0.0
  0
LINE
  5
235
330
1F
100
AcDbEntity
  8
LAYER_1
 62
     7
100
AcDbLine
 10
123.64111
 20
50.14109699999999
 30
0.0
 11
128.54111
 21
50.14109699999999
 31
0.0
  0
LINE
  5
237
330
1F
100
AcDbEntity
  8
LAYER_1
 62
     7
100
AcDbLine
 10
153.241108
 20
50.14109699999999
 30
0.0
 11
148.341108
 21
50.14109699999999
 31
0.0
  0
LINE
  5
239
330
1F
100
AcDbEntity
  8
LAYER_1
 62
     7
100
AcDbLine
 10
148.341108
 20
45.14107899999999
 30
0.0
 11
153.241108
 21
45.14107899999999
 31
0.0
  0
LINE
  5
23B
330
1F
100
AcDbEntity
  8
LAYER_1
 62
     7
100
AcDbLine
 10
153.241108
 20
40.141089
 30
0.0
 11
148.341108
 21
40.141089
 31
0.0
  0
LINE
  5
23D
330
1F
100
AcDbEntity
  8
LAYER_1
 62
     7
100
AcDbLine
 10
148.341108
 20
35.141099
 30
0.0
 11
153.241108
 21
35.141099
 31
0.0
  0
LINE
  5
23E
330
1F
100
AcDbEntity
  8
LAYER_1
 62
     7
100
AcDbLine
 10
153.241108
 20
35.141099
 30
0.0
 11
153.241108
 21
30.141081
 31
0.0
  0
LINE
  5
23F
330
1F
100
AcDbEntity
  8
LAYER_1
 62
     7
100
AcDbLine
 10
153.241108
 20
30.141081
 30
0.0
 11
148.341108
 21
30.141081
 31
0.0
  0
LINE
  5
242
330
1F
100
AcDbEntity
  8
LAYER_1
 62
     7
100
AcDbLine
 10
153.241108
 20
25.141091
 30
0.0
 11
153.241108
 21
20.141101
 31
0.0
  0
LINE
  5
244
330
1F
100
AcDbEntity
  8
LAYER_1
 62
     7
100
AcDbLine
 10
148.341108
 20
20.141101
 30
0.0
 11
148.341108
 21
15.141091
 31
0.0
  0
LINE
  5
245
330
1F
100
AcDbEntity
  8
LAYER_1
 62
     7
100
AcDbLine
 10
148.341108
 20
15.141091
 30
0.0
 11
153.241108
 21
15.141091
 31
0.0
  0
LINE
  5
246
330
1F
100
AcDbEntity
  8
LAYER_1
 62
     7
100
AcDbLine
 10
153.241108
 20
15.141091
 30
0.0
 11
153.241108
 21
10.14109
 31
0.0
  0
LINE
  5
248
330
1F
100
AcDbEntity
  8
LAYER_1
 62
     7
100
AcDbLine
 10
148.341108
 20
10.14109
 30
0.0
 11
148.341108
 21
5.141091
 31
0.0
  0
LINE
  5
24D
330
1F
100
AcDbEntity
  8
LAYER_1
 62
     7
100
AcDbLine
 10
123.641108
 20
15.141091
 30
0.0
 11
128.541108
 21
15.141091
 31
0.0
  0
LINE
  5
24F
330
1F
100
AcDbEntity
  8
LAYER_1
 62
     7
100
AcDbLine
 10
128.541108
 20
20.141101
 30
0.0
 11
123.641108
 21
20.141101
 31
0.0
  0
LINE
  5
251
330
1F
100
AcDbEntity
  8
LAYER_1
 62
     7
100
AcDbLine
 10
123.641108
 20
25.141091
 30
0.0
 11
128.541108
 21
25.141091
 31
0.0
  0
LINE
  5
257
330
1F
100
AcDbEntity
  8
LAYER_1
 62
     7
100
AcDbLine
 10
128.541108
 20
40.141089
 30
0.0
 11
123.641108
 21
40.141089
 31
0.0
  0
LINE
  5
258
330
1F
100
AcDbEntity
  8
LAYER_1
 62
     7
100
AcDbLine
 10
123.641108
 20
40.141089
 30
0.0
 11
123.641108
 21
45.14107899999999
 31
0.0
  0
LINE
  5
259
330
1F
100
AcDbEntity
  8
LAYER_1
 62
     7
100
AcDbLine
 10
123.641108
 20
45.14107899999999
 30
0.0
 11
128.541108
 21
45.14107899999999
 31
0.0
  0
LINE
  5
25C
330
1F
100
AcDbEntity
  8
LAYER_1
 62
     7
100
AcDbLine
 10
123.641108
 20
50.14109699999999
 30
0.0
 11
123.641108
 21
55.141087
 31
0.0
  0
LINE
  5
25E
330
1F
100
AcDbEntity
  8
LAYER_1
 62
     7
100
AcDbLine
 10
128.541108
 20
55.141087
 30
0.0
 11
128.541108
 21
60.14110500000001
 31
0.0
  0
LINE
  5
25F
330
1F
100
AcDbEntity
  8
LAYER_1
 62
     7
100
AcDbLine
 10
128.541108
 20
60.14110500000001
 30
0.0
 11
148.341108
 21
60.14110500000001
 31
0.0
  0
LINE
  5
260
330
1F
100
AcDbEntity
  8
LAYER_1
 62
     7
100
AcDbLine
 10
148.341108
 20
60.14110500000001
 30
0.0
 11
148.341108
 21
55.141087
 31
0.0
  0
LINE
  5
261
330
1F
100
AcDbEntity
  8
LAYER_1
 62
     7
100
AcDbLine
 10
148.341108
 20
55.141087
 30
0.0
 11
177.941111
 21
55.141059
 31
0.0
  0
LINE
  5
263
330
1F
100
AcDbEntity
  8
LAYER_1
 62
     7
100
AcDbLine
 10
177.941113
 20
45.14107899999999
 30
0.0
 11
173.041112
 21
45.14107899999999
 31
0.0
  0
LINE
  5
264
330
1F
100
AcDbEntity
  8
LAYER_1
 62
     7
100
AcDbLine
 10
173.041112
 20
45.14107899999999
 30
0.0
 11
173.041112
 21
40.141061
 31
0.0
  0
LINE
  5
266
330
1F
100
AcDbEntity
  8
LAYER_1
 62
     7
100
AcDbLine
 10
177.941113
 20
40.141061
 30
0.0
 11
177.941113
 21
35.141071
 31
0.0
  0
LINE
  5
267
330
1F
100
AcDbEntity
  8
LAYER_1
 62
     7
100
AcDbLine
 10
177.941113
 20
35.141071
 30
0.0
 11
173.041112
 21
35.141071
 31
0.0
  0
LINE
  5
26B
330
1F
100
AcDbEntity
  8
LAYER_1
 62
     7
100
AcDbLine
 10
177.941113
 20
25.141062
 30
0.0
 11
173.041112
 21
25.141062
 31
0.0
  0
LINE
  5
26C
330
1F
100
AcDbEntity
  8
LAYER_1
 62
     7
100
AcDbLine
 10
173.041112
 20
25.141062
 30
0.0
 11
173.041112
 21
20.141072
 31
0.0
  0
LINE
  5
26D
330
1F
100
AcDbEntity
  8
LAYER_1
 62
     7
100
AcDbLine
 10
173.041112
 20
20.141072
 30
0.0
 11
177.941113
 21
20.141072
 31
0.0
  0
LINE
  5
26E
330
1F
100
AcDbEntity
  8
LAYER_1
 62
     7
100
AcDbLine
 10
177.941113
 20
20.141072
 30
0.0
 11
177.941113
 21
15.141082
 31
0.0
  0
LINE
  5
26F
330
1F
100
AcDbEntity
  8
LAYER_1
 62
     7
100
AcDbLine
 10
177.941113
 20
15.141082
 30
0.0
 11
173.041112
 21
15.141082
 31
0.0
  0
LINE
  5
270
330
1F
100
AcDbEntity
  8
LAYER_1
 62
     7
100
AcDbLine
 10
173.041112
 20
15.141082
 30
0.0
 11
173.041112
 21
10.141073
 31
0.0
  0
LINE
  5
271
330
1F
100
AcDbEntity
  8
LAYER_1
 62
     7
100
AcDbLine
 10
173.041112
 20
10.141073
 30
0.0
 11
177.941113
 21
10.141073
 31
0.0
  0
LINE
  5
273
330
1F
100
AcDbEntity
  8
LAYER_1
 62
     7
100
AcDbLine
 10
197.741111
 20
5.141062999999999
 30
0.0
 11
173.041112
 21
5.141071
 31
0.0
  0
LINE
  5
274
330
1F
100
AcDbEntity
  8
LAYER_1
 62
     7
100
AcDbLine
 10
173.041112
 20
5.141071
 30
0.0
 11
173.041112
 21
0.141073
 31
0.0
  0
LINE
  5
275
330
1F
100
AcDbEntity
  8
LAYER_1
 62
     7
100
AcDbLine
 10
173.041112
 20
0.141073
 30
0.0
 11
153.241113
 21
0.141073
 31
0.0
  0
LINE
  5
276
330
1F
100
AcDbEntity
  8
LAYER_1
 62
     7
100
AcDbLine
 10
153.241113
 20
0.141073
 30
0.0
 11
153.241113
 21
5.141071
 31
0.0
  0
LINE
  5
279
330
1F
100
AcDbEntity
  8
LAYER_1
 62
     7
100
AcDbLine
 10
148.341112
 20
10.141073
 30
0.0
 11
153.241113
 21
10.141073
 31
0.0
  0
LINE
  5
27D
330
1F
100
AcDbEntity
  8
LAYER_1
 62
     7
100
AcDbLine
 10
148.341112
 20
20.141072
 30
0.0
 11
153.241113
 21
20.141072
 31
0.0
  0
LINE
  5
27F
330
1F
100
AcDbEntity
  8
LAYER_1
 62
     7
100
AcDbLine
 10
153.241113
 20
25.141062
 30
0.0
 11
148.341112
 21
25.141062
 31
0.0
  0
LINE
  5
280
330
1F
100
AcDbEntity
  8
LAYER_1
 62
     7
100
AcDbLine
 10
148.341112
 20
25.141062
 30
0.0
 11
148.341112
 21
30.141081
 31
0.0
  0
LINE
  5
284
330
1F
100
AcDbEntity
  8
LAYER_1
 62
     7
100
AcDbLine
 10
148.341112
 20
35.141071
 30
0.0
 11
148.341112
 21
40.141061
 31
0.0
  0
LINE
  5
286
330
1F
100
AcDbEntity
  8
LAYER_1
 62
     7
100
AcDbLine
 10
153.241113
 20
40.141061
 30
0.0
 11
153.241113
 21
45.14107899999999
 31
0.0
  0
LINE
  5
288
330
1F
100
AcDbEntity
  8
LAYER_1
 62
     7
100
AcDbLine
 10
148.341112
 20
45.14107899999999
 30
0.0
 11
148.341112
 21
50.141069
 31
0.0
  0
LINE
  5
28A
330
1F
100
AcDbEntity
  8
LAYER_1
 62
     7
100
AcDbLine
 10
153.241113
 20
50.141069
 30
0.0
 11
153.241113
 21
55.141087
 31
0.0
  0
LINE
  5
28C
330
1F
100
AcDbEntity
  8
LAYER_1
 62
     7
100
AcDbLine
 10
173.041112
 20
55.141087
 30
0.0
 11
173.041112
 21
50.141069
 31
0.0
  0
LINE
  5
28F
330
1F
100
AcDbEntity
  8
LAYER_1
 62
     7
100
AcDbLine
 10
202.641111
 20
50.141069
 30
0.0
 11
197.741111
 21
50.141069
 31
0.0
  0
LINE
  5
290
330
1F
100
AcDbEntity
  8
LAYER_1
 62
     7
100
AcDbLine
 10
197.741111
 20
50.141069
 30
0.0
 11
197.741111
 21
45.141051
 31
0.0
  0
LINE
  5
291
330
1F
100
AcDbEntity
  8
LAYER_1
 62
     7
100
AcDbLine
 10
197.741111
 20
45.141051
 30
0.0
 11
202.641111
 21
45.141051
 31
0.0
  0
LINE
  5
293
330
1F
100
AcDbEntity
  8
LAYER_1
 62
     7
100
AcDbLine
 10
202.641111
 20
40.141061
 30
0.0
 11
197.741111
 21
40.141061
 31
0.0
  0
LINE
  5
294
330
1F
100
AcDbEntity
  8
LAYER_1
 62
     7
100
AcDbLine
 10
197.741111
 20
40.141061
 30
0.0
 11
197.741111
 21
35.141071
 31
0.0
  0
LINE
  5
295
330
1F
100
AcDbEntity
  8
LAYER_1
 62
     7
100
AcDbLine
 10
197.741111
 20
35.141071
 30
0.0
 11
202.641111
 21
35.141071
 31
0.0
  0
LINE
  5
297
330
1F
100
AcDbEntity
  8
LAYER_1
 62
     7
100
AcDbLine
 10
207.641134
 20
29.858826
 30
0.0
 11
197.741111
 21
30.141052
 31
0.0
  0
LINE
  5
298
330
1F
100
AcDbEntity
  8
LAYER_1
 62
     7
100
AcDbLine
 10
197.741111
 20
30.141052
 30
0.0
 11
197.741111
 21
25.141062
 31
0.0
  0
LINE
  5
299
330
1F
100
AcDbEntity
  8
LAYER_1
 62
     7
100
AcDbLine
 10
197.741111
 20
25.141062
 30
0.0
 11
202.641111
 21
25.141062
 31
0.0
  0
LINE
  5
29B
330
1F
100
AcDbEntity
  8
LAYER_1
 62
     7
100
AcDbLine
 10
202.641111
 20
20.141072
 30
0.0
 11
197.741111
 21
20.141072
 31
0.0
  0
LINE
  5
29C
330
1F
100
AcDbEntity
  8
LAYER_1
 62
     7
100
AcDbLine
 10
197.741111
 20
20.141072
 30
0.0
 11
197.741111
 21
15.141063
 31
0.0
  0
LINE
  5
29D
330
1F
100
AcDbEntity
  8
LAYER_1
 62
     7
100
AcDbLine
 10
197.741111
 20
15.141063
 30
0.0
 11
202.641111
 21
15.141063
 31
0.0
  0
LINE
  5
29F
330
1F
100
AcDbEntity
  8
LAYER_1
 62
     7
100
AcDbLine
 10
202.641111
 20
10.141061
 30
0.0
 11
197.741111
 21
10.141061
 31
0.0
  0
LINE
  5
2A0
330
1F
100
AcDbEntity
  8
LAYER_1
 62
     7
100
AcDbLine
 10
197.741111
 20
10.141061
 30
0.0
 11
197.741111
 21
5.141062999999999
 31
0.0
  0
LINE
  5
2A2
330
1F
100
AcDbEntity
  8
LAYER_1
 62
     7
100
AcDbLine
 10
177.941111
 20
5.141062999999999
 30
0.0
 11
177.941111
 21
10.141061
 31
0.0
  0
LINE
  5
2AA
330
1F
100
AcDbEntity
  8
LAYER_1
 62
     7
100
AcDbLine
 10
177.941111
 20
25.141062
 30
0.0
 11
177.941111
 21
30.141052
 31
0.0
  0
LINE
  5
2AB
330
1F
100
AcDbEntity
  8
LAYER_1
 62
     7
100
AcDbLine
 10
177.941111
 20
30.141052
 30
0.0
 11
173.041111
 21
30.141052
 31
0.0
  0
LINE
  5
2AC
330
1F
100
AcDbEntity
  8
LAYER_1
 62
     7
100
AcDbLine
 10
173.041111
 20
30.141052
 30
0.0
 11
173.041111
 21
35.141071
 31
0.0
  0
LINE
  5
2AF
330
1F
100
AcDbEntity
  8
LAYER_1
 62
     7
100
AcDbLine
 10
177.941111
 20
40.141061
 30
0.0
 11
173.041111
 21
40.141061
 31
0.0
  0
LINE
  5
2B2
330
1F
100
AcDbEntity
  8
LAYER_1
 62
     7
100
AcDbLine
 10
177.941111
 20
45.141051
 30
0.0
 11
177.941111
 21
50.141069
 31
0.0
  0
LINE
  5
2B3
330
1F
100
AcDbEntity
  8
LAYER_1
 62
     7
100
AcDbLine
 10
177.941111
 20
50.141069
 30
0.0
 11
173.041111
 21
50.141069
 31
0.0
  0
LINE
  5
2B6
330
1F
100
AcDbEntity
  8
LAYER_1
 62
     7
100
AcDbLine
 10
177.941111
 20
55.141059
 30
0.0
 11
177.941111
 21
60.141077
 31
0.0
  0
LINE
  5
2B7
330
1F
100
AcDbEntity
  8
LAYER_1
 62
     7
100
AcDbLine
 10
177.941111
 20
60.141077
 30
0.0
 11
197.741111
 21
60.141077
 31
0.0
  0
LINE
  5
2B8
330
1F
100
AcDbEntity
  8
LAYER_1
 62
     7
100
AcDbLine
 10
197.741111
 20
60.141077
 30
0.0
 11
197.741111
 21
55.141059
 31
0.0
  0
LINE
  5
2B9
330
1F
100
AcDbEntity
  8
LAYER_1
 62
     7
100
AcDbLine
 10
197.741111
 20
55.141059
 30
0.0
 11
202.641111
 21
55.141059
 31
0.0
  0
LINE
  5
2BA
330
1F
100
AcDbEntity
  8
LAYER_1
 62
     7
100
AcDbLine
 10
202.641115
 20
59.458826
 30
0.0
 11
207.641134
 21
59.458826
 31
0.0
  0
LINE
  5
2BB
330
1F
100
AcDbEntity
  8
LAYER_1
 62
     7
100
AcDbLine
 10
207.641134
 20
59.458826
 30
0.0
 11
207.641134
 21
54.558826
 31
0.0
  0
LINE
  5
2BC
330
1F
100
AcDbEntity
  8
LAYER_1
 62
     7
100
AcDbLine
 10
207.641134
 20
54.558826
 30
0.0
 11
217.641114
 21
54.558826
 31
0.0
  0
LINE
  5
2BD
330
1F
100
AcDbEntity
  8
LAYER_1
 62
     7
100
AcDbLine
 10
217.641114
 20
54.558826
 30
0.0
 11
217.641114
 21
59.458826
 31
0.0
  0
LINE
  5
2BE
330
1F
100
AcDbEntity
  8
LAYER_1
 62
     7
100
AcDbLine
 10
217.641114
 20
59.458826
 30
0.0
 11
227.64115
 21
59.458823
 31
0.0
  0
LINE
  5
2C2
330
1F
100
AcDbEntity
  8
LAYER_1
 62
     7
100
AcDbLine
 10
217.641114
 20
34.758826
 30
0.0
 11
207.641134
 21
34.758826
 31
0.0
  0
LINE
  5
2C6
330
1F
100
AcDbEntity
  8
LAYER_1
 62
     7
100
AcDbLine
 10
212.641124
 20
48.65882599999999
 30
0.0
 11
213.142124
 21
48.626826
 31
0.0
  0
LINE
  5
2C7
330
1F
100
AcDbEntity
  8
LAYER_1
 62
     7
100
AcDbLine
 10
213.142124
 20
48.626826
 30
0.0
 11
213.636126
 21
48.532826
 31
0.0
  0
LINE
  5
2C8
330
1F
100
AcDbEntity
  8
LAYER_1
 62
     7
100
AcDbLine
 10
213.636126
 20
48.532826
 30
0.0
 11
214.11311
 21
48.377826
 31
0.0
  0
LINE
  5
2C9
330
1F
100
AcDbEntity
  8
LAYER_1
 62
     7
100
AcDbLine
 10
214.11311
 20
48.377826
 30
0.0
 11
214.568109
 21
48.163826
 31
0.0
  0
LINE
  5
2CA
330
1F
100
AcDbEntity
  8
LAYER_1
 62
     7
100
AcDbLine
 10
214.568109
 20
48.163826
 30
0.0
 11
214.992119
 21
47.894826
 31
0.0
  0
LINE
  5
2CB
330
1F
100
AcDbEntity
  8
LAYER_1
 62
     7
100
AcDbLine
 10
214.992119
 20
47.894826
 30
0.0
 11
215.379131
 21
47.574826
 31
0.0
  0
LINE
  5
2CC
330
1F
100
AcDbEntity
  8
LAYER_1
 62
     7
100
AcDbLine
 10
215.379131
 20
47.574826
 30
0.0
 11
215.723131
 21
47.208826
 31
0.0
  0
LINE
  5
2CD
330
1F
100
AcDbEntity
  8
LAYER_1
 62
     7
100
AcDbLine
 10
215.723131
 20
47.208826
 30
0.0
 11
216.01811
 21
46.801826
 31
0.0
  0
LINE
  5
2CE
330
1F
100
AcDbEntity
  8
LAYER_1
 62
     7
100
AcDbLine
 10
216.01811
 20
46.801826
 30
0.0
 11
216.260116
 21
46.361826
 31
0.0
  0
LINE
  5
2CF
330
1F
100
AcDbEntity
  8
LAYER_1
 62
     7
100
AcDbLine
 10
216.260116
 20
46.361826
 30
0.0
 11
216.445112
 21
45.894826
 31
0.0
  0
LINE
  5
2D0
330
1F
100
AcDbEntity
  8
LAYER_1
 62
     7
100
AcDbLine
 10
216.445112
 20
45.894826
 30
0.0
 11
216.570108
 21
45.40882599999999
 31
0.0
  0
LINE
  5
2D1
330
1F
100
AcDbEntity
  8
LAYER_1
 62
     7
100
AcDbLine
 10
216.570108
 20
45.40882599999999
 30
0.0
 11
216.633129
 21
44.909826
 31
0.0
  0
LINE
  5
2D2
330
1F
100
AcDbEntity
  8
LAYER_1
 62
     7
100
AcDbLine
 10
216.633129
 20
44.909826
 30
0.0
 11
216.633129
 21
44.407826
 31
0.0
  0
LINE
  5
2D3
330
1F
100
AcDbEntity
  8
LAYER_1
 62
     7
100
AcDbLine
 10
216.633129
 20
44.407826
 30
0.0
 11
216.570108
 21
43.908826
 31
0.0
  0
LINE
  5
2D4
330
1F
100
AcDbEntity
  8
LAYER_1
 62
     7
100
AcDbLine
 10
216.570108
 20
43.908826
 30
0.0
 11
216.445112
 21
43.42282599999999
 31
0.0
  0
LINE
  5
2D5
330
1F
100
AcDbEntity
  8
LAYER_1
 62
     7
100
AcDbLine
 10
216.445112
 20
43.42282599999999
 30
0.0
 11
216.260116
 21
42.955826
 31
0.0
  0
LINE
  5
2D6
330
1F
100
AcDbEntity
  8
LAYER_1
 62
     7
100
AcDbLine
 10
216.260116
 20
42.955826
 30
0.0
 11
216.01811
 21
42.515826
 31
0.0
  0
LINE
  5
2D7
330
1F
100
AcDbEntity
  8
LAYER_1
 62
     7
100
AcDbLine
 10
216.01811
 20
42.515826
 30
0.0
 11
215.723131
 21
42.108826
 31
0.0
  0
LINE
  5
2D8
330
1F
100
AcDbEntity
  8
LAYER_1
 62
     7
100
AcDbLine
 10
215.723131
 20
42.108826
 30
0.0
 11
215.379131
 21
41.742826
 31
0.0
  0
LINE
  5
2D9
330
1F
100
AcDbEntity
  8
LAYER_1
 62
     7
100
AcDbLine
 10
215.379131
 20
41.742826
 30
0.0
 11
214.992119
 21
41.422826
 31
0.0
  0
LINE
  5
2DA
330
1F
100
AcDbEntity
  8
LAYER_1
 62
     7
100
AcDbLine
 10
214.992119
 20
41.422826
 30
0.0
 11
214.568109
 21
41.153826
 31
0.0
  0
LINE
  5
2DB
330
1F
100
AcDbEntity
  8
LAYER_1
 62
     7
100
AcDbLine
 10
214.568109
 20
41.153826
 30
0.0
 11
214.11311
 21
40.939826
 31
0.0
  0
LINE
  5
2DC
330
1F
100
AcDbEntity
  8
LAYER_1
 62
     7
100
AcDbLine
 10
214.11311
 20
40.939826
 30
0.0
 11
213.636126
 21
40.784826
 31
0.0
  0
LINE
  5
2DD
330
1F
100
AcDbEntity
  8
LAYER_1
 62
     7
100
AcDbLine
 10
213.636126
 20
40.784826
 30
0.0
 11
213.142124
 21
40.690826
 31
0.0
  0
LINE
  5
2DE
330
1F
100
AcDbEntity
  8
LAYER_1
 62
     7
100
AcDbLine
 10
213.142124
 20
40.690826
 30
0.0
 11
212.641124
 21
40.658826
 31
0.0
  0
LINE
  5
2DF
330
1F
100
AcDbEntity
  8
LAYER_1
 62
     7
100
AcDbLine
 10
212.641124
 20
40.658826
 30
0.0
 11
212.140123
 21
40.690826
 31
0.0
  0
LINE
  5
2E0
330
1F
100
AcDbEntity
  8
LAYER_1
 62
     7
100
AcDbLine
 10
212.140123
 20
40.690826
 30
0.0
 11
211.646121
 21
40.784826
 31
0.0
  0
LINE
  5
2E1
330
1F
100
AcDbEntity
  8
LAYER_1
 62
     7
100
AcDbLine
 10
211.646121
 20
40.784826
 30
0.0
 11
211.169109
 21
40.939826
 31
0.0
  0
LINE
  5
2E2
330
1F
100
AcDbEntity
  8
LAYER_1
 62
     7
100
AcDbLine
 10
211.169109
 20
40.939826
 30
0.0
 11
210.71411
 21
41.153826
 31
0.0
  0
LINE
  5
2E3
330
1F
100
AcDbEntity
  8
LAYER_1
 62
     7
100
AcDbLine
 10
210.71411
 20
41.153826
 30
0.0
 11
210.290128
 21
41.422826
 31
0.0
  0
LINE
  5
2E4
330
1F
100
AcDbEntity
  8
LAYER_1
 62
     7
100
AcDbLine
 10
210.290128
 20
41.422826
 30
0.0
 11
209.903116
 21
41.742826
 31
0.0
  0
LINE
  5
2E5
330
1F
100
AcDbEntity
  8
LAYER_1
 62
     7
100
AcDbLine
 10
209.903116
 20
41.742826
 30
0.0
 11
209.559116
 21
42.108826
 31
0.0
  0
LINE
  5
2E6
330
1F
100
AcDbEntity
  8
LAYER_1
 62
     7
100
AcDbLine
 10
209.559116
 20
42.108826
 30
0.0
 11
209.264109
 21
42.515826
 31
0.0
  0
LINE
  5
2E7
330
1F
100
AcDbEntity
  8
LAYER_1
 62
     7
100
AcDbLine
 10
209.264109
 20
42.515826
 30
0.0
 11
209.022132
 21
42.955826
 31
0.0
  0
LINE
  5
2E8
330
1F
100
AcDbEntity
  8
LAYER_1
 62
     7
100
AcDbLine
 10
209.022132
 20
42.955826
 30
0.0
 11
208.837135
 21
43.42282599999999
 31
0.0
  0
LINE
  5
2E9
330
1F
100
AcDbEntity
  8
LAYER_1
 62
     7
100
AcDbLine
 10
208.837135
 20
43.42282599999999
 30
0.0
 11
208.71211
 21
43.908826
 31
0.0
  0
LINE
  5
2EA
330
1F
100
AcDbEntity
  8
LAYER_1
 62
     7
100
AcDbLine
 10
208.71211
 20
43.908826
 30
0.0
 11
208.649118
 21
44.407826
 31
0.0
  0
LINE
  5
2EB
330
1F
100
AcDbEntity
  8
LAYER_1
 62
     7
100
AcDbLine
 10
208.649118
 20
44.407826
 30
0.0
 11
208.649118
 21
44.909826
 31
0.0
  0
LINE
  5
2EC
330
1F
100
AcDbEntity
  8
LAYER_1
 62
     7
100
AcDbLine
 10
208.649118
 20
44.909826
 30
0.0
 11
208.71211
 21
45.40882599999999
 31
0.0
  0
LINE
  5
2ED
330
1F
100
AcDbEntity
  8
LAYER_1
 62
     7
100
AcDbLine
 10
208.71211
 20
45.40882599999999
 30
0.0
 11
208.837135
 21
45.894826
 31
0.0
  0
LINE
  5
2EE
330
1F
100
AcDbEntity
  8
LAYER_1
 62
     7
100
AcDbLine
 10
208.837135
 20
45.894826
 30
0.0
 11
209.022132
 21
46.361826
 31
0.0
  0
LINE
  5
2EF
330
1F
100
AcDbEntity
  8
LAYER_1
 62
     7
100
AcDbLine
 10
209.022132
 20
46.361826
 30
0.0
 11
209.264109
 21
46.801826
 31
0.0
  0
LINE
  5
2F0
330
1F
100
AcDbEntity
  8
LAYER_1
 62
     7
100
AcDbLine
 10
209.264109
 20
46.801826
 30
0.0
 11
209.559116
 21
47.208826
 31
0.0
  0
LINE
  5
2F1
330
1F
100
AcDbEntity
  8
LAYER_1
 62
     7
100
AcDbLine
 10
209.559116
 20
47.208826
 30
0.0
 11
209.903116
 21
47.574826
 31
0.0
  0
LINE
  5
2F2
330
1F
100
AcDbEntity
  8
LAYER_1
 62
     7
100
AcDbLine
 10
209.903116
 20
47.574826
 30
0.0
 11
210.290128
 21
47.894826
 31
0.0
  0
LINE
  5
2F3
330
1F
100
AcDbEntity
  8
LAYER_1
 62
     7
100
AcDbLine
 10
210.290128
 20
47.894826
 30
0.0
 11
210.71411
 21
48.163826
 31
0.0
  0
LINE
  5
2F4
330
1F
100
AcDbEntity
  8
LAYER_1
 62
     7
100
AcDbLine
 10
210.71411
 20
48.163826
 30
0.0
 11
211.169109
 21
48.377826
 31
0.0
  0
LINE
  5
2F5
330
1F
100
AcDbEntity
  8
LAYER_1
 62
     7
100
AcDbLine
 10
211.169109
 20
48.377826
 30
0.0
 11
211.646121
 21
48.532826
 31
0.0
  0
LINE
  5
2F6
330
1F
100
AcDbEntity
  8
LAYER_1
 62
     7
100
AcDbLine
 10
211.646121
 20
48.532826
 30
0.0
 11
212.140123
 21
48.626826
 31
0.0
  0
LINE
  5
2F7
330
1F
100
AcDbEntity
  8
LAYER_1
 62
     7
100
AcDbLine
 10
212.140123
 20
48.626826
 30
0.0
 11
212.641124
 21
48.65882599999999
 31
0.0
  0
LINE
  5
2F9
330
1F
100
AcDbEntity
  8
LAYER_1
 62
     7
100
AcDbLine
 10
227.64115
 20
34.758823
 30
0.0
 11
227.64115
 21
24.958826
 31
0.0
  0
LINE
  5
2FA
330
1F
100
AcDbEntity
  8
LAYER_1
 62
     7
100
AcDbLine
 10
227.64115
 20
24.958826
 30
0.0
 11
237.64113
 21
24.958826
 31
0.0
  0
LINE
  5
2FB
330
1F
100
AcDbEntity
  8
LAYER_1
 62
     7
100
AcDbLine
 10
237.64113
 20
24.958826
 30
0.0
 11
237.64113
 21
34.758823
 31
0.0
  0
LINE
  5
2FC
330
1F
100
AcDbEntity
  8
LAYER_1
 62
     7
100
AcDbLine
 10
237.64113
 20
29.858826
 30
0.0
 11
247.641166
 21
29.85882
 31
0.0
  0
LINE
  5
2FE
330
1F
100
AcDbEntity
  8
LAYER_1
 62
     7
100
AcDbLine
 10
247.641166
 20
0.258823
 30
0.0
 11
237.64113
 21
0.258826
 31
0.0
  0
LINE
  5
2FF
330
1F
100
AcDbEntity
  8
LAYER_1
 62
     7
100
AcDbLine
 10
237.64113
 20
0.258826
 30
0.0
 11
237.64113
 21
5.158826
 31
0.0
  0
LINE
  5
300
330
1F
100
AcDbEntity
  8
LAYER_1
 62
     7
100
AcDbLine
 10
237.64113
 20
5.158826
 30
0.0
 11
227.64115
 21
5.158826
 31
0.0
  0
LINE
  5
301
330
1F
100
AcDbEntity
  8
LAYER_1
 62
     7
100
AcDbLine
 10
227.64115
 20
5.158826
 30
0.0
 11
227.64115
 21
0.258826
 31
0.0
  0
LINE
  5
303
330
1F
100
AcDbEntity
  8
LAYER_1
 62
     7
100
AcDbLine
 10
222.641132
 20
0.258826
 30
0.0
 11
222.641132
 21
59.458826
 31
0.0
  0
LINE
  5
304
330
1F
100
AcDbEntity
  8
LAYER_1
 62
     7
100
AcDbLine
 10
232.64114
 20
19.058826
 30
0.0
 11
233.142141
 21
19.026826
 31
0.0
  0
LINE
  5
305
330
1F
100
AcDbEntity
  8
LAYER_1
 62
     7
100
AcDbLine
 10
233.142141
 20
19.026826
 30
0.0
 11
233.636143
 21
18.932826
 31
0.0
  0
LINE
  5
306
330
1F
100
AcDbEntity
  8
LAYER_1
 62
     7
100
AcDbLine
 10
233.636143
 20
18.932826
 30
0.0
 11
234.113126
 21
18.777826
 31
0.0
  0
LINE
  5
307
330
1F
100
AcDbEntity
  8
LAYER_1
 62
     7
100
AcDbLine
 10
234.113126
 20
18.777826
 30
0.0
 11
234.568125
 21
18.563826
 31
0.0
  0
LINE
  5
308
330
1F
100
AcDbEntity
  8
LAYER_1
 62
     7
100
AcDbLine
 10
234.568125
 20
18.563826
 30
0.0
 11
234.992136
 21
18.294826
 31
0.0
  0
LINE
  5
309
330
1F
100
AcDbEntity
  8
LAYER_1
 62
     7
100
AcDbLine
 10
234.992136
 20
18.294826
 30
0.0
 11
235.379147
 21
17.974826
 31
0.0
  0
LINE
  5
30A
330
1F
100
AcDbEntity
  8
LAYER_1
 62
     7
100
AcDbLine
 10
235.379147
 20
17.974826
 30
0.0
 11
235.723148
 21
17.608826
 31
0.0
  0
LINE
  5
30B
330
1F
100
AcDbEntity
  8
LAYER_1
 62
     7
100
AcDbLine
 10
235.723148
 20
17.608826
 30
0.0
 11
236.018126
 21
17.201826
 31
0.0
  0
LINE
  5
30C
330
1F
100
AcDbEntity
  8
LAYER_1
 62
     7
100
AcDbLine
 10
236.018126
 20
17.201826
 30
0.0
 11
236.260132
 21
16.761826
 31
0.0
  0
LINE
  5
30D
330
1F
100
AcDbEntity
  8
LAYER_1
 62
     7
100
AcDbLine
 10
236.260132
 20
16.761826
 30
0.0
 11
236.445129
 21
16.294826
 31
0.0
  0
LINE
  5
30E
330
1F
100
AcDbEntity
  8
LAYER_1
 62
     7
100
AcDbLine
 10
236.445129
 20
16.294826
 30
0.0
 11
236.570125
 21
15.808826
 31
0.0
  0
LINE
  5
30F
330
1F
100
AcDbEntity
  8
LAYER_1
 62
     7
100
AcDbLine
 10
236.570125
 20
15.808826
 30
0.0
 11
236.633145
 21
15.309826
 31
0.0
  0
LINE
  5
310
330
1F
100
AcDbEntity
  8
LAYER_1
 62
     7
100
AcDbLine
 10
236.633145
 20
15.309826
 30
0.0
 11
236.633145
 21
14.807826
 31
0.0
  0
LINE
  5
311
330
1F
100
AcDbEntity
  8
LAYER_1
 62
     7
100
AcDbLine
 10
236.633145
 20
14.807826
 30
0.0
 11
236.570125
 21
14.308826
 31
0.0
  0
LINE
  5
312
330
1F
100
AcDbEntity
  8
LAYER_1
 62
     7
100
AcDbLine
 10
236.570125
 20
14.308826
 30
0.0
 11
236.445129
 21
13.822826
 31
0.0
  0
LINE
  5
313
330
1F
100
AcDbEntity
  8
LAYER_1
 62
     7
100
AcDbLine
 10
236.445129
 20
13.822826
 30
0.0
 11
236.260132
 21
13.355826
 31
0.0
  0
LINE
  5
314
330
1F
100
AcDbEntity
  8
LAYER_1
 62
     7
100
AcDbLine
 10
236.260132
 20
13.355826
 30
0.0
 11
236.018126
 21
12.915826
 31
0.0
  0
LINE
  5
315
330
1F
100
AcDbEntity
  8
LAYER_1
 62
     7
100
AcDbLine
 10
236.018126
 20
12.915826
 30
0.0
 11
235.723148
 21
12.508826
 31
0.0
  0
LINE
  5
316
330
1F
100
AcDbEntity
  8
LAYER_1
 62
     7
100
AcDbLine
 10
235.723148
 20
12.508826
 30
0.0
 11
235.379147
 21
12.142826
 31
0.0
  0
LINE
  5
317
330
1F
100
AcDbEntity
  8
LAYER_1
 62
     7
100
AcDbLine
 10
235.379147
 20
12.142826
 30
0.0
 11
234.992136
 21
11.822826
 31
0.0
  0
LINE
  5
318
330
1F
100
AcDbEntity
  8
LAYER_1
 62
     7
100
AcDbLine
 10
234.992136
 20
11.822826
 30
0.0
 11
234.568125
 21
11.553826
 31
0.0
  0
LINE
  5
319
330
1F
100
AcDbEntity
  8
LAYER_1
 62
     7
100
AcDbLine
 10
234.568125
 20
11.553826
 30
0.0
 11
234.113126
 21
11.339826
 31
0.0
  0
LINE
  5
31A
330
1F
100
AcDbEntity
  8
LAYER_1
 62
     7
100
AcDbLine
 10
234.113126
 20
11.339826
 30
0.0
 11
233.636143
 21
11.184826
 31
0.0
  0
LINE
  5
31B
330
1F
100
AcDbEntity
  8
LAYER_1
 62
     7
100
AcDbLine
 10
233.636143
 20
11.184826
 30
0.0
 11
233.142141
 21
11.090826
 31
0.0
  0
LINE
  5
31C
330
1F
100
AcDbEntity
  8
LAYER_1
 62
     7
100
AcDbLine
 10
233.142141
 20
11.090826
 30
0.0
 11
232.64114
 21
11.058826
 31
0.0
  0
LINE
  5
31D
330
1F
100
AcDbEntity
  8
LAYER_1
 62
     7
100
AcDbLine
 10
232.64114
 20
11.058826
 30
0.0
 11
232.140139
 21
11.090826
 31
0.0
  0
LINE
  5
31E
330
1F
100
AcDbEntity
  8
LAYER_1
 62
     7
100
AcDbLine
 10
232.140139
 20
11.090826
 30
0.0
 11
231.646137
 21
11.184826
 31
0.0
  0
LINE
  5
31F
330
1F
100
AcDbEntity
  8
LAYER_1
 62
     7
100
AcDbLine
 10
231.646137
 20
11.184826
 30
0.0
 11
231.169125
 21
11.339826
 31
0.0
  0
LINE
  5
320
330
1F
100
AcDbEntity
  8
LAYER_1
 62
     7
100
AcDbLine
 10
231.169125
 20
11.339826
 30
0.0
 11
230.714127
 21
11.553826
 31
0.0
  0
LINE
  5
321
330
1F
100
AcDbEntity
  8
LAYER_1
 62
     7
100
AcDbLine
 10
230.714127
 20
11.553826
 30
0.0
 11
230.290144
 21
11.822826
 31
0.0
  0
LINE
  5
322
330
1F
100
AcDbEntity
  8
LAYER_1
 62
     7
100
AcDbLine
 10
230.290144
 20
11.822826
 30
0.0
 11
229.903133
 21
12.142826
 31
0.0
  0
LINE
  5
323
330
1F
100
AcDbEntity
  8
LAYER_1
 62
     7
100
AcDbLine
 10
229.903133
 20
12.142826
 30
0.0
 11
229.559132
 21
12.508826
 31
0.0
  0
LINE
  5
324
330
1F
100
AcDbEntity
  8
LAYER_1
 62
     7
100
AcDbLine
 10
229.559132
 20
12.508826
 30
0.0
 11
229.264125
 21
12.915826
 31
0.0
  0
LINE
  5
325
330
1F
100
AcDbEntity
  8
LAYER_1
 62
     7
100
AcDbLine
 10
229.264125
 20
12.915826
 30
0.0
 11
229.022148
 21
13.355826
 31
0.0
  0
LINE
  5
326
330
1F
100
AcDbEntity
  8
LAYER_1
 62
     7
100
AcDbLine
 10
229.022148
 20
13.355826
 30
0.0
 11
228.837151
 21
13.822826
 31
0.0
  0
LINE
  5
327
330
1F
100
AcDbEntity
  8
LAYER_1
 62
     7
100
AcDbLine
 10
228.837151
 20
13.822826
 30
0.0
 11
228.712127
 21
14.308826
 31
0.0
  0
LINE
  5
328
330
1F
100
AcDbEntity
  8
LAYER_1
 62
     7
100
AcDbLine
 10
228.712127
 20
14.308826
 30
0.0
 11
228.649135
 21
14.807826
 31
0.0
  0
LINE
  5
329
330
1F
100
AcDbEntity
  8
LAYER_1
 62
     7
100
AcDbLine
 10
228.649135
 20
14.807826
 30
0.0
 11
228.649135
 21
15.309826
 31
0.0
  0
LINE
  5
32A
330
1F
100
AcDbEntity
  8
LAYER_1
 62
     7
100
AcDbLine
 10
228.649135
 20
15.309826
 30
0.0
 11
228.712127
 21
15.808826
 31
0.0
  0
LINE
  5
32B
330
1F
100
AcDbEntity
  8
LAYER_1
 62
     7
100
AcDbLine
 10
228.712127
 20
15.808826
 30
0.0
 11
228.837151
 21
16.294826
 31
0.0
  0
LINE
  5
32C
330
1F
100
AcDbEntity
  8
LAYER_1
 62
     7
100
AcDbLine
 10
228.837151
 20
16.294826
 30
0.0
 11
229.022148
 21
16.761826
 31
0.0
  0
LINE
  5
32D
330
1F
100
AcDbEntity
  8
LAYER_1
 62
     7
100
AcDbLine
 10
229.022148
 20
16.761826
 30
0.0
 11
229.264125
 21
17.201826
 31
0.0
  0
LINE
  5
32E
330
1F
100
AcDbEntity
  8
LAYER_1
 62
     7
100
AcDbLine
 10
229.264125
 20
17.201826
 30
0.0
 11
229.559132
 21
17.608826
 31
0.0
  0
LINE
  5
32F
330
1F
100
AcDbEntity
  8
LAYER_1
 62
     7
100
AcDbLine
 10
229.559132
 20
17.608826
 30
0.0
 11
229.903133
 21
17.974826
 31
0.0
  0
LINE
  5
330
330
1F
100
AcDbEntity
  8
LAYER_1
 62
     7
100
AcDbLine
 10
229.903133
 20
17.974826
 30
0.0
 11
230.290144
 21
18.294826
 31
0.0
  0
LINE
  5
331
330
1F
100
AcDbEntity
  8
LAYER_1
 62
     7
100
AcDbLine
 10
230.290144
 20
18.294826
 30
0.0
 11
230.714127
 21
18.563826
 31
0.0
  0
LINE
  5
332
330
1F
100
AcDbEntity
  8
LAYER_1
 62
     7
100
AcDbLine
 10
230.714127
 20
18.563826
 30
0.0
 11
231.169125
 21
18.777826
 31
0.0
  0
LINE
  5
333
330
1F
100
AcDbEntity
  8
LAYER_1
 62
     7
100
AcDbLine
 10
231.169125
 20
18.777826
 30
0.0
 11
231.646137
 21
18.932826
 31
0.0
  0
LINE
  5
334
330
1F
100
AcDbEntity
  8
LAYER_1
 62
     7
100
AcDbLine
 10
231.646137
 20
18.932826
 30
0.0
 11
232.140139
 21
19.026826
 31
0.0
  0
LINE
  5
335
330
1F
100
AcDbEntity
  8
LAYER_1
 62
     7
100
AcDbLine
 10
232.140139
 20
19.026826
 30
0.0
 11
232.64114
 21
19.058826
 31
0.0
  0
LINE
  5
337
330
1F
100
AcDbEntity
  8
LAYER_1
 62
     7
100
AcDbLine
 10
227.64115
 20
59.458823
 30
0.0
 11
227.64115
 21
54.55882299999999
 31
0.0
  0
LINE
  5
338
330
1F
100
AcDbEntity
  8
LAYER_1
 62
     7
100
AcDbLine
 10
227.64115
 20
54.55882299999999
 30
0.0
 11
237.64113
 21
54.55882299999999
 31
0.0
  0
LINE
  5
339
330
1F
100
AcDbEntity
  8
LAYER_1
 62
     7
100
AcDbLine
 10
237.64113
 20
54.55882299999999
 30
0.0
 11
237.64113
 21
59.458823
 31
0.0
  0
LINE
  5
33A
330
1F
100
AcDbEntity
  8
LAYER_1
 62
     7
100
AcDbLine
 10
237.64113
 20
59.458823
 30
0.0
 11
247.641166
 21
59.45882
 31
0.0
  0
LINE
  5
33E
330
1F
100
AcDbEntity
  8
LAYER_1
 62
     7
100
AcDbLine
 10
237.64113
 20
34.758823
 30
0.0
 11
227.64115
 21
34.758823
 31
0.0
  0
LINE
  5
342
330
1F
100
AcDbEntity
  8
LAYER_1
 62
     7
100
AcDbLine
 10
232.64114
 20
48.65882299999999
 30
0.0
 11
233.142141
 21
48.626823
 31
0.0
  0
LINE
  5
343
330
1F
100
AcDbEntity
  8
LAYER_1
 62
     7
100
AcDbLine
 10
233.142141
 20
48.626823
 30
0.0
 11
233.636143
 21
48.532823
 31
0.0
  0
LINE
  5
344
330
1F
100
AcDbEntity
  8
LAYER_1
 62
     7
100
AcDbLine
 10
233.636143
 20
48.532823
 30
0.0
 11
234.113126
 21
48.377823
 31
0.0
  0
LINE
  5
345
330
1F
100
AcDbEntity
  8
LAYER_1
 62
     7
100
AcDbLine
 10
234.113126
 20
48.377823
 30
0.0
 11
234.568125
 21
48.163823
 31
0.0
  0
LINE
  5
346
330
1F
100
AcDbEntity
  8
LAYER_1
 62
     7
100
AcDbLine
 10
234.568125
 20
48.163823
 30
0.0
 11
234.992136
 21
47.89482299999999
 31
0.0
  0
LINE
  5
347
330
1F
100
AcDbEntity
  8
LAYER_1
 62
     7
100
AcDbLine
 10
234.992136
 20
47.89482299999999
 30
0.0
 11
235.379147
 21
47.57482299999999
 31
0.0
  0
LINE
  5
348
330
1F
100
AcDbEntity
  8
LAYER_1
 62
     7
100
AcDbLine
 10
235.379147
 20
47.57482299999999
 30
0.0
 11
235.723148
 21
47.20882299999999
 31
0.0
  0
LINE
  5
349
330
1F
100
AcDbEntity
  8
LAYER_1
 62
     7
100
AcDbLine
 10
235.723148
 20
47.20882299999999
 30
0.0
 11
236.018126
 21
46.801823
 31
0.0
  0
LINE
  5
34A
330
1F
100
AcDbEntity
  8
LAYER_1
 62
     7
100
AcDbLine
 10
236.018126
 20
46.801823
 30
0.0
 11
236.260132
 21
46.361823
 31
0.0
  0
LINE
  5
34B
330
1F
100
AcDbEntity
  8
LAYER_1
 62
     7
100
AcDbLine
 10
236.260132
 20
46.361823
 30
0.0
 11
236.445129
 21
45.89482299999999
 31
0.0
  0
LINE
  5
34C
330
1F
100
AcDbEntity
  8
LAYER_1
 62
     7
100
AcDbLine
 10
236.445129
 20
45.89482299999999
 30
0.0
 11
236.570125
 21
45.40882299999999
 31
0.0
  0
LINE
  5
34D
330
1F
100
AcDbEntity
  8
LAYER_1
 62
     7
100
AcDbLine
 10
236.570125
 20
45.40882299999999
 30
0.0
 11
236.633145
 21
44.90982299999999
 31
0.0
  0
LINE
  5
34E
330
1F
100
AcDbEntity
  8
LAYER_1
 62
     7
100
AcDbLine
 10
236.633145
 20
44.90982299999999
 30
0.0
 11
236.633145
 21
44.407823
 31
0.0
  0
LINE
  5
34F
330
1F
100
AcDbEntity
  8
LAYER_1
 62
     7
100
AcDbLine
 10
236.633145
 20
44.407823
 30
0.0
 11
236.570125
 21
43.908823
 31
0.0
  0
LINE
  5
350
330
1F
100
AcDbEntity
  8
LAYER_1
 62
     7
100
AcDbLine
 10
236.570125
 20
43.908823
 30
0.0
 11
236.445129
 21
43.42282299999999
 31
0.0
  0
LINE
  5
351
330
1F
100
AcDbEntity
  8
LAYER_1
 62
     7
100
AcDbLine
 10
236.445129
 20
43.42282299999999
 30
0.0
 11
236.260132
 21
42.95582299999999
 31
0.0
  0
LINE
  5
352
330
1F
100
AcDbEntity
  8
LAYER_1
 62
     7
100
AcDbLine
 10
236.260132
 20
42.95582299999999
 30
0.0
 11
236.018126
 21
42.51582299999999
 31
0.0
  0
LINE
  5
353
330
1F
100
AcDbEntity
  8
LAYER_1
 62
     7
100
AcDbLine
 10
236.018126
 20
42.51582299999999
 30
0.0
 11
235.723148
 21
42.108823
 31
0.0
  0
LINE
  5
354
330
1F
100
AcDbEntity
  8
LAYER_1
 62
     7
100
AcDbLine
 10
235.723148
 20
42.108823
 30
0.0
 11
235.379147
 21
41.742823
 31
0.0
  0
LINE
  5
355
330
1F
100
AcDbEntity
  8
LAYER_1
 62
     7
100
AcDbLine
 10
235.379147
 20
41.742823
 30
0.0
 11
234.992136
 21
41.422823
 31
0.0
  0
LINE
  5
356
330
1F
100
AcDbEntity
  8
LAYER_1
 62
     7
100
AcDbLine
 10
234.992136
 20
41.422823
 30
0.0
 11
234.568125
 21
41.15382299999999
 31
0.0
  0
LINE
  5
357
330
1F
100
AcDbEntity
  8
LAYER_1
 62
     7
100
AcDbLine
 10
234.568125
 20
41.15382299999999
 30
0.0
 11
234.113126
 21
40.93982299999999
 31
0.0
  0
LINE
  5
358
330
1F
100
AcDbEntity
  8
LAYER_1
 62
     7
100
AcDbLine
 10
234.113126
 20
40.93982299999999
 30
0.0
 11
233.636143
 21
40.784823
 31
0.0
  0
LINE
  5
359
330
1F
100
AcDbEntity
  8
LAYER_1
 62
     7
100
AcDbLine
 10
233.636143
 20
40.784823
 30
0.0
 11
233.142141
 21
40.69082299999999
 31
0.0
  0
LINE
  5
35A
330
1F
100
AcDbEntity
  8
LAYER_1
 62
     7
100
AcDbLine
 10
233.142141
 20
40.69082299999999
 30
0.0
 11
232.64114
 21
40.658823
 31
0.0
  0
LINE
  5
35B
330
1F
100
AcDbEntity
  8
LAYER_1
 62
     7
100
AcDbLine
 10
232.64114
 20
40.658823
 30
0.0
 11
232.140139
 21
40.69082299999999
 31
0.0
  0
LINE
  5
35C
330
1F
100
AcDbEntity
  8
LAYER_1
 62
     7
100
AcDbLine
 10
232.140139
 20
40.69082299999999
 30
0.0
 11
231.646137
 21
40.784823
 31
0.0
  0
LINE
  5
35D
330
1F
100
AcDbEntity
  8
LAYER_1
 62
     7
100
AcDbLine
 10
231.646137
 20
40.784823
 30
0.0
 11
231.169125
 21
40.93982299999999
 31
0.0
  0
LINE
  5
35E
330
1F
100
AcDbEntity
  8
LAYER_1
 62
     7
100
AcDbLine
 10
231.169125
 20
40.93982299999999
 30
0.0
 11
230.714127
 21
41.15382299999999
 31
0.0
  0
LINE
  5
35F
330
1F
100
AcDbEntity
  8
LAYER_1
 62
     7
100
AcDbLine
 10
230.714127
 20
41.15382299999999
 30
0.0
 11
230.290144
 21
41.422823
 31
0.0
  0
LINE
  5
360
330
1F
100
AcDbEntity
  8
LAYER_1
 62
     7
100
AcDbLine
 10
230.290144
 20
41.422823
 30
0.0
 11
229.903133
 21
41.742823
 31
0.0
  0
LINE
  5
361
330
1F
100
AcDbEntity
  8
LAYER_1
 62
     7
100
AcDbLine
 10
229.903133
 20
41.742823
 30
0.0
 11
229.559132
 21
42.108823
 31
0.0
  0
LINE
  5
362
330
1F
100
AcDbEntity
  8
LAYER_1
 62
     7
100
AcDbLine
 10
229.559132
 20
42.108823
 30
0.0
 11
229.264125
 21
42.51582299999999
 31
0.0
  0
LINE
  5
363
330
1F
100
AcDbEntity
  8
LAYER_1
 62
     7
100
AcDbLine
 10
229.264125
 20
42.51582299999999
 30
0.0
 11
229.022148
 21
42.95582299999999
 31
0.0
  0
LINE
  5
364
330
1F
100
AcDbEntity
  8
LAYER_1
 62
     7
100
AcDbLine
 10
229.022148
 20
42.95582299999999
 30
0.0
 11
228.837151
 21
43.42282299999999
 31
0.0
  0
LINE
  5
365
330
1F
100
AcDbEntity
  8
LAYER_1
 62
     7
100
AcDbLine
 10
228.837151
 20
43.42282299999999
 30
0.0
 11
228.712127
 21
43.908823
 31
0.0
  0
LINE
  5
366
330
1F
100
AcDbEntity
  8
LAYER_1
 62
     7
100
AcDbLine
 10
228.712127
 20
43.908823
 30
0.0
 11
228.649135
 21
44.407823
 31
0.0
  0
LINE
  5
367
330
1F
100
AcDbEntity
  8
LAYER_1
 62
     7
100
AcDbLine
 10
228.649135
 20
44.407823
 30
0.0
 11
228.649135
 21
44.90982299999999
 31
0.0
  0
LINE
  5
368
330
1F
100
AcDbEntity
  8
LAYER_1
 62
     7
100
AcDbLine
 10
228.649135
 20
44.90982299999999
 30
0.0
 11
228.712127
 21
45.40882299999999
 31
0.0
  0
LINE
  5
369
330
1F
100
AcDbEntity
  8
LAYER_1
 62
     7
100
AcDbLine
 10
228.712127
 20
45.40882299999999
 30
0.0
 11
228.837151
 21
45.89482299999999
 31
0.0
  0
LINE
  5
36A
330
1F
100
AcDbEntity
  8
LAYER_1
 62
     7
100
AcDbLine
 10
228.837151
 20
45.89482299999999
 30
0.0
 11
229.022148
 21
46.361823
 31
0.0
  0
LINE
  5
36B
330
1F
100
AcDbEntity
  8
LAYER_1
 62
     7
100
AcDbLine
 10
229.022148
 20
46.361823
 30
0.0
 11
229.264125
 21
46.801823
 31
0.0
  0
LINE
  5
36C
330
1F
100
AcDbEntity
  8
LAYER_1
 62
     7
100
AcDbLine
 10
229.264125
 20
46.801823
 30
0.0
 11
229.559132
 21
47.20882299999999
 31
0.0
  0
LINE
  5
36D
330
1F
100
AcDbEntity
  8
LAYER_1
 62
     7
100
AcDbLine
 10
229.559132
 20
47.20882299999999
 30
0.0
 11
229.903133
 21
47.57482299999999
 31
0.0
  0
LINE
  5
36E
330
1F
100
AcDbEntity
  8
LAYER_1
 62
     7
100
AcDbLine
 10
229.903133
 20
47.57482299999999
 30
0.0
 11
230.290144
 21
47.89482299999999
 31
0.0
  0
LINE
  5
36F
330
1F
100
AcDbEntity
  8
LAYER_1
 62
     7
100
AcDbLine
 10
230.290144
 20
47.89482299999999
 30
0.0
 11
230.714127
 21
48.163823
 31
0.0
  0
LINE
  5
370
330
1F
100
AcDbEntity
  8
LAYER_1
 62
     7
100
AcDbLine
 10
230.714127
 20
48.163823
 30
0.0
 11
231.169125
 21
48.377823
 31
0.0
  0
LINE
  5
371
330
1F
100
AcDbEntity
  8
LAYER_1
 62
     7
100
AcDbLine
 10
231.169125
 20
48.377823
 30
0.0
 11
231.646137
 21
48.532823
 31
0.0
  0
LINE
  5
372
330
1F
100
AcDbEntity
  8
LAYER_1
 62
     7
100
AcDbLine
 10
231.646137
 20
48.532823
 30
0.0
 11
232.140139
 21
48.626823
 31
0.0
  0
LINE
  5
373
330
1F
100
AcDbEntity
  8
LAYER_1
 62
     7
100
AcDbLine
 10
232.140139
 20
48.626823
 30
0.0
 11
232.64114
 21
48.65882299999999
 31
0.0
  0
LINE
  5
375
330
1F
100
AcDbEntity
  8
LAYER_1
 62
     7
100
AcDbLine
 10
247.641166
 20
34.75882
 30
0.0
 11
247.641166
 21
24.958823
 31
0.0
  0
LINE
  5
376
330
1F
100
AcDbEntity
  8
LAYER_1
 62
     7
100
AcDbLine
 10
247.641166
 20
24.958823
 30
0.0
 11
257.641146
 21
24.958823
 31
0.0
  0
LINE
  5
377
330
1F
100
AcDbEntity
  8
LAYER_1
 62
     7
100
AcDbLine
 10
257.641146
 20
24.958823
 30
0.0
 11
257.641146
 21
34.75882
 31
0.0
  0
LINE
  5
37A
330
1F
100
AcDbEntity
  8
LAYER_1
 62
     7
100
AcDbLine
 10
267.641163
 20
0.258823
 30
0.0
 11
257.641146
 21
0.258823
 31
0.0
  0
LINE
  5
37B
330
1F
100
AcDbEntity
  8
LAYER_1
 62
     7
100
AcDbLine
 10
257.641146
 20
0.258823
 30
0.0
 11
257.641146
 21
5.158822999999999
 31
0.0
  0
LINE
  5
37C
330
1F
100
AcDbEntity
  8
LAYER_1
 62
     7
100
AcDbLine
 10
257.641146
 20
5.158822999999999
 30
0.0
 11
247.641166
 21
5.158822999999999
 31
0.0
  0
LINE
  5
37D
330
1F
100
AcDbEntity
  8
LAYER_1
 62
     7
100
AcDbLine
 10
247.641166
 20
5.158822999999999
 30
0.0
 11
247.641166
 21
0.258823
 31
0.0
  0
LINE
  5
37F
330
1F
100
AcDbEntity
  8
LAYER_1
 62
     7
100
AcDbLine
 10
242.641148
 20
0.258823
 30
0.0
 11
242.641148
 21
59.458823
 31
0.0
  0
LINE
  5
380
330
1F
100
AcDbEntity
  8
LAYER_1
 62
     7
100
AcDbLine
 10
252.641156
 20
19.058823
 30
0.0
 11
253.142157
 21
19.026823
 31
0.0
  0
LINE
  5
381
330
1F
100
AcDbEntity
  8
LAYER_1
 62
     7
100
AcDbLine
 10
253.142157
 20
19.026823
 30
0.0
 11
253.636159
 21
18.932823
 31
0.0
  0
LINE
  5
382
330
1F
100
AcDbEntity
  8
LAYER_1
 62
     7
100
AcDbLine
 10
253.636159
 20
18.932823
 30
0.0
 11
254.113143
 21
18.777823
 31
0.0
  0
LINE
  5
383
330
1F
100
AcDbEntity
  8
LAYER_1
 62
     7
100
AcDbLine
 10
254.113143
 20
18.777823
 30
0.0
 11
254.568142
 21
18.563823
 31
0.0
  0
LINE
  5
384
330
1F
100
AcDbEntity
  8
LAYER_1
 62
     7
100
AcDbLine
 10
254.568142
 20
18.563823
 30
0.0
 11
254.992152
 21
18.294823
 31
0.0
  0
LINE
  5
385
330
1F
100
AcDbEntity
  8
LAYER_1
 62
     7
100
AcDbLine
 10
254.992152
 20
18.294823
 30
0.0
 11
255.379164
 21
17.974823
 31
0.0
  0
LINE
  5
386
330
1F
100
AcDbEntity
  8
LAYER_1
 62
     7
100
AcDbLine
 10
255.379164
 20
17.974823
 30
0.0
 11
255.723164
 21
17.608823
 31
0.0
  0
LINE
  5
387
330
1F
100
AcDbEntity
  8
LAYER_1
 62
     7
100
AcDbLine
 10
255.723164
 20
17.608823
 30
0.0
 11
256.018143
 21
17.201823
 31
0.0
  0
LINE
  5
388
330
1F
100
AcDbEntity
  8
LAYER_1
 62
     7
100
AcDbLine
 10
256.018143
 20
17.201823
 30
0.0
 11
256.260148
 21
16.761823
 31
0.0
  0
LINE
  5
389
330
1F
100
AcDbEntity
  8
LAYER_1
 62
     7
100
AcDbLine
 10
256.260148
 20
16.761823
 30
0.0
 11
256.445145
 21
16.294823
 31
0.0
  0
LINE
  5
38A
330
1F
100
AcDbEntity
  8
LAYER_1
 62
     7
100
AcDbLine
 10
256.445145
 20
16.294823
 30
0.0
 11
256.570141
 21
15.808823
 31
0.0
  0
LINE
  5
38B
330
1F
100
AcDbEntity
  8
LAYER_1
 62
     7
100
AcDbLine
 10
256.570141
 20
15.808823
 30
0.0
 11
256.633162
 21
15.309823
 31
0.0
  0
LINE
  5
38C
330
1F
100
AcDbEntity
  8
LAYER_1
 62
     7
100
AcDbLine
 10
256.633162
 20
15.309823
 30
0.0
 11
256.633162
 21
14.807823
 31
0.0
  0
LINE
  5
38D
330
1F
100
AcDbEntity
  8
LAYER_1
 62
     7
100
AcDbLine
 10
256.633162
 20
14.807823
 30
0.0
 11
256.570141
 21
14.308823
 31
0.0
  0
LINE
  5
38E
330
1F
100
AcDbEntity
  8
LAYER_1
 62
     7
100
AcDbLine
 10
256.570141
 20
14.308823
 30
0.0
 11
256.445145
 21
13.822823
 31
0.0
  0
LINE
  5
38F
330
1F
100
AcDbEntity
  8
LAYER_1
 62
     7
100
AcDbLine
 10
256.445145
 20
13.822823
 30
0.0
 11
256.260148
 21
13.355823
 31
0.0
  0
LINE
  5
390
330
1F
100
AcDbEntity
  8
LAYER_1
 62
     7
100
AcDbLine
 10
256.260148
 20
13.355823
 30
0.0
 11
256.018143
 21
12.915823
 31
0.0
  0
LINE
  5
391
330
1F
100
AcDbEntity
  8
LAYER_1
 62
     7
100
AcDbLine
 10
256.018143
 20
12.915823
 30
0.0
 11
255.723164
 21
12.508823
 31
0.0
  0
LINE
  5
392
330
1F
100
AcDbEntity
  8
LAYER_1
 62
     7
100
AcDbLine
 10
255.723164
 20
12.508823
 30
0.0
 11
255.379164
 21
12.142823
 31
0.0
  0
LINE
  5
393
330
1F
100
AcDbEntity
  8
LAYER_1
 62
     7
100
AcDbLine
 10
255.379164
 20
12.142823
 30
0.0
 11
254.992152
 21
11.822823
 31
0.0
  0
LINE
  5
394
330
1F
100
AcDbEntity
  8
LAYER_1
 62
     7
100
AcDbLine
 10
254.992152
 20
11.822823
 30
0.0
 11
254.568142
 21
11.553823
 31
0.0
  0
LINE
  5
395
330
1F
100
AcDbEntity
  8
LAYER_1
 62
     7
100
AcDbLine
 10
254.568142
 20
11.553823
 30
0.0
 11
254.113143
 21
11.339823
 31
0.0
  0
LINE
  5
396
330
1F
100
AcDbEntity
  8
LAYER_1
 62
     7
100
AcDbLine
 10
254.113143
 20
11.339823
 30
0.0
 11
253.636159
 21
11.184823
 31
0.0
  0
LINE
  5
397
330
1F
100
AcDbEntity
  8
LAYER_1
 62
     7
100
AcDbLine
 10
253.636159
 20
11.184823
 30
0.0
 11
253.142157
 21
11.090823
 31
0.0
  0
LINE
  5
398
330
1F
100
AcDbEntity
  8
LAYER_1
 62
     7
100
AcDbLine
 10
253.142157
 20
11.090823
 30
0.0
 11
252.641156
 21
11.058823
 31
0.0
  0
LINE
  5
399
330
1F
100
AcDbEntity
  8
LAYER_1
 62
     7
100
AcDbLine
 10
252.641156
 20
11.058823
 30
0.0
 11
252.140156
 21
11.090823
 31
0.0
  0
LINE
  5
39A
330
1F
100
AcDbEntity
  8
LAYER_1
 62
     7
100
AcDbLine
 10
252.140156
 20
11.090823
 30
0.0
 11
251.646154
 21
11.184823
 31
0.0
  0
LINE
  5
39B
330
1F
100
AcDbEntity
  8
LAYER_1
 62
     7
100
AcDbLine
 10
251.646154
 20
11.184823
 30
0.0
 11
251.169142
 21
11.339823
 31
0.0
  0
LINE
  5
39C
330
1F
100
AcDbEntity
  8
LAYER_1
 62
     7
100
AcDbLine
 10
251.169142
 20
11.339823
 30
0.0
 11
250.714143
 21
11.553823
 31
0.0
  0
LINE
  5
39D
330
1F
100
AcDbEntity
  8
LAYER_1
 62
     7
100
AcDbLine
 10
250.714143
 20
11.553823
 30
0.0
 11
250.290161
 21
11.822823
 31
0.0
  0
LINE
  5
39E
330
1F
100
AcDbEntity
  8
LAYER_1
 62
     7
100
AcDbLine
 10
250.290161
 20
11.822823
 30
0.0
 11
249.903149
 21
12.142823
 31
0.0
  0
LINE
  5
39F
330
1F
100
AcDbEntity
  8
LAYER_1
 62
     7
100
AcDbLine
 10
249.903149
 20
12.142823
 30
0.0
 11
249.559149
 21
12.508823
 31
0.0
  0
LINE
  5
3A0
330
1F
100
AcDbEntity
  8
LAYER_1
 62
     7
100
AcDbLine
 10
249.559149
 20
12.508823
 30
0.0
 11
249.264142
 21
12.915823
 31
0.0
  0
LINE
  5
3A1
330
1F
100
AcDbEntity
  8
LAYER_1
 62
     7
100
AcDbLine
 10
249.264142
 20
12.915823
 30
0.0
 11
249.022164
 21
13.355823
 31
0.0
  0
LINE
  5
3A2
330
1F
100
AcDbEntity
  8
LAYER_1
 62
     7
100
AcDbLine
 10
249.022164
 20
13.355823
 30
0.0
 11
248.837168
 21
13.822823
 31
0.0
  0
LINE
  5
3A3
330
1F
100
AcDbEntity
  8
LAYER_1
 62
     7
100
AcDbLine
 10
248.837168
 20
13.822823
 30
0.0
 11
248.712143
 21
14.308823
 31
0.0
  0
LINE
  5
3A4
330
1F
100
AcDbEntity
  8
LAYER_1
 62
     7
100
AcDbLine
 10
248.712143
 20
14.308823
 30
0.0
 11
248.649151
 21
14.807823
 31
0.0
  0
LINE
  5
3A5
330
1F
100
AcDbEntity
  8
LAYER_1
 62
     7
100
AcDbLine
 10
248.649151
 20
14.807823
 30
0.0
 11
248.649151
 21
15.309823
 31
0.0
  0
LINE
  5
3A6
330
1F
100
AcDbEntity
  8
LAYER_1
 62
     7
100
AcDbLine
 10
248.649151
 20
15.309823
 30
0.0
 11
248.712143
 21
15.808823
 31
0.0
  0
LINE
  5
3A7
330
1F
100
AcDbEntity
  8
LAYER_1
 62
     7
100
AcDbLine
 10
248.712143
 20
15.808823
 30
0.0
 11
248.837168
 21
16.294823
 31
0.0
  0
LINE
  5
3A8
330
1F
100
AcDbEntity
  8
LAYER_1
 62
     7
100
AcDbLine
 10
248.837168
 20
16.294823
 30
0.0
 11
249.022164
 21
16.761823
 31
0.0
  0
LINE
  5
3A9
330
1F
100
AcDbEntity
  8
LAYER_1
 62
     7
100
AcDbLine
 10
249.022164
 20
16.761823
 30
0.0
 11
249.264142
 21
17.201823
 31
0.0
  0
LINE
  5
3AA
330
1F
100
AcDbEntity
  8
LAYER_1
 62
     7
100
AcDbLine
 10
249.264142
 20
17.201823
 30
0.0
 11
249.559149
 21
17.608823
 31
0.0
  0
LINE
  5
3AB
330
1F
100
AcDbEntity
  8
LAYER_1
 62
     7
100
AcDbLine
 10
249.559149
 20
17.608823
 30
0.0
 11
249.903149
 21
17.974823
 31
0.0
  0
LINE
  5
3AC
330
1F
100
AcDbEntity
  8
LAYER_1
 62
     7
100
AcDbLine
 10
249.903149
 20
17.974823
 30
0.0
 11
250.290161
 21
18.294823
 31
0.0
  0
LINE
  5
3AD
330
1F
100
AcDbEntity
  8
LAYER_1
 62
     7
100
AcDbLine
 10
250.290161
 20
18.294823
 30
0.0
 11
250.714143
 21
18.563823
 31
0.0
  0
LINE
  5
3AE
330
1F
100
AcDbEntity
  8
LAYER_1
 62
     7
100
AcDbLine
 10
250.714143
 20
18.563823
 30
0.0
 11
251.169142
 21
18.777823
 31
0.0
  0
LINE
  5
3AF
330
1F
100
AcDbEntity
  8
LAYER_1
 62
     7
100
AcDbLine
 10
251.169142
 20
18.777823
 30
0.0
 11
251.646154
 21
18.932823
 31
0.0
  0
LINE
  5
3B0
330
1F
100
AcDbEntity
  8
LAYER_1
 62
     7
100
AcDbLine
 10
251.646154
 20
18.932823
 30
0.0
 11
252.140156
 21
19.026823
 31
0.0
  0
LINE
  5
3B1
330
1F
100
AcDbEntity
  8
LAYER_1
 62
     7
100
AcDbLine
 10
252.140156
 20
19.026823
 30
0.0
 11
252.641156
 21
19.058823
 31
0.0
  0
LINE
  5
3B3
330
1F
100
AcDbEntity
  8
LAYER_1
 62
     7
100
AcDbLine
 10
247.641166
 20
59.45882
 30
0.0
 11
247.641166
 21
54.55881999999999
 31
0.0
  0
LINE
  5
3B4
330
1F
100
AcDbEntity
  8
LAYER_1
 62
     7
100
AcDbLine
 10
247.641166
 20
54.55881999999999
 30
0.0
 11
257.641146
 21
54.55881999999999
 31
0.0
  0
LINE
  5
3B5
330
1F
100
AcDbEntity
  8
LAYER_1
 62
     7
100
AcDbLine
 10
257.641146
 20
54.55881999999999
 30
0.0
 11
257.641146
 21
59.45882
 31
0.0
  0
LINE
  5
3B6
330
1F
100
AcDbEntity
  8
LAYER_1
 62
     7
100
AcDbLine
 10
257.641146
 20
59.45882
 30
0.0
 11
262.641165
 21
59.45882
 31
0.0
  0
LINE
  5
3B8
330
1F
100
AcDbEntity
  8
LAYER_1
 62
     7
100
AcDbLine
 10
262.641165
 20
29.85882
 30
0.0
 11
257.641146
 21
29.85882
 31
0.0
  0
LINE
  5
3BA
330
1F
100
AcDbEntity
  8
LAYER_1
 62
     7
100
AcDbLine
 10
257.641146
 20
34.75882
 30
0.0
 11
247.641166
 21
34.75882
 31
0.0
  0
LINE
  5
3BE
330
1F
100
AcDbEntity
  8
LAYER_1
 62
     7
100
AcDbLine
 10
252.641156
 20
48.65882
 30
0.0
 11
253.142157
 21
48.626821
 31
0.0
  0
LINE
  5
3BF
330
1F
100
AcDbEntity
  8
LAYER_1
 62
     7
100
AcDbLine
 10
253.142157
 20
48.626821
 30
0.0
 11
253.636159
 21
48.53282
 31
0.0
  0
LINE
  5
3C0
330
1F
100
AcDbEntity
  8
LAYER_1
 62
     7
100
AcDbLine
 10
253.636159
 20
48.53282
 30
0.0
 11
254.113143
 21
48.37782
 31
0.0
  0
LINE
  5
3C1
330
1F
100
AcDbEntity
  8
LAYER_1
 62
     7
100
AcDbLine
 10
254.113143
 20
48.37782
 30
0.0
 11
254.568142
 21
48.16382
 31
0.0
  0
LINE
  5
3C2
330
1F
100
AcDbEntity
  8
LAYER_1
 62
     7
100
AcDbLine
 10
254.568142
 20
48.16382
 30
0.0
 11
254.992152
 21
47.89482
 31
0.0
  0
LINE
  5
3C3
330
1F
100
AcDbEntity
  8
LAYER_1
 62
     7
100
AcDbLine
 10
254.992152
 20
47.89482
 30
0.0
 11
255.379164
 21
47.57482
 31
0.0
  0
LINE
  5
3C4
330
1F
100
AcDbEntity
  8
LAYER_1
 62
     7
100
AcDbLine
 10
255.379164
 20
47.57482
 30
0.0
 11
255.723164
 21
47.20882
 31
0.0
  0
LINE
  5
3C5
330
1F
100
AcDbEntity
  8
LAYER_1
 62
     7
100
AcDbLine
 10
255.723164
 20
47.20882
 30
0.0
 11
256.018143
 21
46.80182
 31
0.0
  0
LINE
  5
3C6
330
1F
100
AcDbEntity
  8
LAYER_1
 62
     7
100
AcDbLine
 10
256.018143
 20
46.80182
 30
0.0
 11
256.260148
 21
46.36182
 31
0.0
  0
LINE
  5
3C7
330
1F
100
AcDbEntity
  8
LAYER_1
 62
     7
100
AcDbLine
 10
256.260148
 20
46.36182
 30
0.0
 11
256.445145
 21
45.89482
 31
0.0
  0
LINE
  5
3C8
330
1F
100
AcDbEntity
  8
LAYER_1
 62
     7
100
AcDbLine
 10
256.445145
 20
45.89482
 30
0.0
 11
256.570141
 21
45.40881999999999
 31
0.0
  0
LINE
  5
3C9
330
1F
100
AcDbEntity
  8
LAYER_1
 62
     7
100
AcDbLine
 10
256.570141
 20
45.40881999999999
 30
0.0
 11
256.633162
 21
44.90982
 31
0.0
  0
LINE
  5
3CA
330
1F
100
AcDbEntity
  8
LAYER_1
 62
     7
100
AcDbLine
 10
256.633162
 20
44.90982
 30
0.0
 11
256.633162
 21
44.40782
 31
0.0
  0
LINE
  5
3CB
330
1F
100
AcDbEntity
  8
LAYER_1
 62
     7
100
AcDbLine
 10
256.633162
 20
44.40782
 30
0.0
 11
256.570141
 21
43.90882
 31
0.0
  0
LINE
  5
3CC
330
1F
100
AcDbEntity
  8
LAYER_1
 62
     7
100
AcDbLine
 10
256.570141
 20
43.90882
 30
0.0
 11
256.445145
 21
43.42281999999999
 31
0.0
  0
LINE
  5
3CD
330
1F
100
AcDbEntity
  8
LAYER_1
 62
     7
100
AcDbLine
 10
256.445145
 20
43.42281999999999
 30
0.0
 11
256.260148
 21
42.95582
 31
0.0
  0
LINE
  5
3CE
330
1F
100
AcDbEntity
  8
LAYER_1
 62
     7
100
AcDbLine
 10
256.260148
 20
42.95582
 30
0.0
 11
256.018143
 21
42.51581999999999
 31
0.0
  0
LINE
  5
3CF
330
1F
100
AcDbEntity
  8
LAYER_1
 62
     7
100
AcDbLine
 10
256.018143
 20
42.51581999999999
 30
0.0
 11
255.723164
 21
42.10882
 31
0.0
  0
LINE
  5
3D0
330
1F
100
AcDbEntity
  8
LAYER_1
 62
     7
100
AcDbLine
 10
255.723164
 20
42.10882
 30
0.0
 11
255.379164
 21
41.742821
 31
0.0
  0
LINE
  5
3D1
330
1F
100
AcDbEntity
  8
LAYER_1
 62
     7
100
AcDbLine
 10
255.379164
 20
41.742821
 30
0.0
 11
254.992152
 21
41.42282
 31
0.0
  0
LINE
  5
3D2
330
1F
100
AcDbEntity
  8
LAYER_1
 62
     7
100
AcDbLine
 10
254.992152
 20
41.42282
 30
0.0
 11
254.568142
 21
41.15382
 31
0.0
  0
LINE
  5
3D3
330
1F
100
AcDbEntity
  8
LAYER_1
 62
     7
100
AcDbLine
 10
254.568142
 20
41.15382
 30
0.0
 11
254.113143
 21
40.93982
 31
0.0
  0
LINE
  5
3D4
330
1F
100
AcDbEntity
  8
LAYER_1
 62
     7
100
AcDbLine
 10
254.113143
 20
40.93982
 30
0.0
 11
253.636159
 21
40.78482
 31
0.0
  0
LINE
  5
3D5
330
1F
100
AcDbEntity
  8
LAYER_1
 62
     7
100
AcDbLine
 10
253.636159
 20
40.78482
 30
0.0
 11
253.142157
 21
40.69082
 31
0.0
  0
LINE
  5
3D6
330
1F
100
AcDbEntity
  8
LAYER_1
 62
     7
100
AcDbLine
 10
253.142157
 20
40.69082
 30
0.0
 11
252.641156
 21
40.65882
 31
0.0
  0
LINE
  5
3D7
330
1F
100
AcDbEntity
  8
LAYER_1
 62
     7
100
AcDbLine
 10
252.641156
 20
40.65882
 30
0.0
 11
252.140156
 21
40.69082
 31
0.0
  0
LINE
  5
3D8
330
1F
100
AcDbEntity
  8
LAYER_1
 62
     7
100
AcDbLine
 10
252.140156
 20
40.69082
 30
0.0
 11
251.646154
 21
40.78482
 31
0.0
  0
LINE
  5
3D9
330
1F
100
AcDbEntity
  8
LAYER_1
 62
     7
100
AcDbLine
 10
251.646154
 20
40.78482
 30
0.0
 11
251.169142
 21
40.93982
 31
0.0
  0
LINE
  5
3DA
330
1F
100
AcDbEntity
  8
LAYER_1
 62
     7
100
AcDbLine
 10
251.169142
 20
40.93982
 30
0.0
 11
250.714143
 21
41.15382
 31
0.0
  0
LINE
  5
3DB
330
1F
100
AcDbEntity
  8
LAYER_1
 62
     7
100
AcDbLine
 10
250.714143
 20
41.15382
 30
0.0
 11
250.290161
 21
41.42282
 31
0.0
  0
LINE
  5
3DC
330
1F
100
AcDbEntity
  8
LAYER_1
 62
     7
100
AcDbLine
 10
250.290161
 20
41.42282
 30
0.0
 11
249.903149
 21
41.742821
 31
0.0
  0
LINE
  5
3DD
330
1F
100
AcDbEntity
  8
LAYER_1
 62
     7
100
AcDbLine
 10
249.903149
 20
41.742821
 30
0.0
 11
249.559149
 21
42.10882
 31
0.0
  0
LINE
  5
3DE
330
1F
100
AcDbEntity
  8
LAYER_1
 62
     7
100
AcDbLine
 10
249.559149
 20
42.10882
 30
0.0
 11
249.264142
 21
42.51581999999999
 31
0.0
  0
LINE
  5
3DF
330
1F
100
AcDbEntity
  8
LAYER_1
 62
     7
100
AcDbLine
 10
249.264142
 20
42.51581999999999
 30
0.0
 11
249.022164
 21
42.95582
 31
0.0
  0
LINE
  5
3E0
330
1F
100
AcDbEntity
  8
LAYER_1
 62
     7
100
AcDbLine
 10
249.022164
 20
42.95582
 30
0.0
 11
248.837168
 21
43.42281999999999
 31
0.0
  0
LINE
  5
3E1
330
1F
100
AcDbEntity
  8
LAYER_1
 62
     7
100
AcDbLine
 10
248.837168
 20
43.42281999999999
 30
0.0
 11
248.712143
 21
43.90882
 31
0.0
  0
LINE
  5
3E2
330
1F
100
AcDbEntity
  8
LAYER_1
 62
     7
100
AcDbLine
 10
248.712143
 20
43.90882
 30
0.0
 11
248.649151
 21
44.40782
 31
0.0
  0
LINE
  5
3E3
330
1F
100
AcDbEntity
  8
LAYER_1
 62
     7
100
AcDbLine
 10
248.649151
 20
44.40782
 30
0.0
 11
248.649151
 21
44.90982
 31
0.0
  0
LINE
  5
3E4
330
1F
100
AcDbEntity
  8
LAYER_1
 62
     7
100
AcDbLine
 10
248.649151
 20
44.90982
 30
0.0
 11
248.712143
 21
45.40881999999999
 31
0.0
  0
LINE
  5
3E5
330
1F
100
AcDbEntity
  8
LAYER_1
 62
     7
100
AcDbLine
 10
248.712143
 20
45.40881999999999
 30
0.0
 11
248.837168
 21
45.89482
 31
0.0
  0
LINE
  5
3E6
330
1F
100
AcDbEntity
  8
LAYER_1
 62
     7
100
AcDbLine
 10
248.837168
 20
45.89482
 30
0.0
 11
249.022164
 21
46.36182
 31
0.0
  0
LINE
  5
3E7
330
1F
100
AcDbEntity
  8
LAYER_1
 62
     7
100
AcDbLine
 10
249.022164
 20
46.36182
 30
0.0
 11
249.264142
 21
46.80182
 31
0.0
  0
LINE
  5
3E8
330
1F
100
AcDbEntity
  8
LAYER_1
 62
     7
100
AcDbLine
 10
249.264142
 20
46.80182
 30
0.0
 11
249.559149
 21
47.20882
 31
0.0
  0
LINE
  5
3E9
330
1F
100
AcDbEntity
  8
LAYER_1
 62
     7
100
AcDbLine
 10
249.559149
 20
47.20882
 30
0.0
 11
249.903149
 21
47.57482
 31
0.0
  0
LINE
  5
3EA
330
1F
100
AcDbEntity
  8
LAYER_1
 62
     7
100
AcDbLine
 10
249.903149
 20
47.57482
 30
0.0
 11
250.290161
 21
47.89482
 31
0.0
  0
LINE
  5
3EB
330
1F
100
AcDbEntity
  8
LAYER_1
 62
     7
100
AcDbLine
 10
250.290161
 20
47.89482
 30
0.0
 11
250.714143
 21
48.16382
 31
0.0
  0
LINE
  5
3EC
330
1F
100
AcDbEntity
  8
LAYER_1
 62
     7
100
AcDbLine
 10
250.714143
 20
48.16382
 30
0.0
 11
251.169142
 21
48.37782
 31
0.0
  0
LINE
  5
3ED
330
1F
100
AcDbEntity
  8
LAYER_1
 62
     7
100
AcDbLine
 10
251.169142
 20
48.37782
 30
0.0
 11
251.646154
 21
48.53282
 31
0.0
  0
LINE
  5
3EE
330
1F
100
AcDbEntity
  8
LAYER_1
 62
     7
100
AcDbLine
 10
251.646154
 20
48.53282
 30
0.0
 11
252.140156
 21
48.626821
 31
0.0
  0
LINE
  5
3EF
330
1F
100
AcDbEntity
  8
LAYER_1
 62
     7
100
AcDbLine
 10
252.140156
 20
48.626821
 30
0.0
 11
252.641156
 21
48.65882
 31
0.0
  0
ENDSEC
  0
SECTION
  2
OBJECTS
  0
DICTIONARY
  5
C
330
0
100
AcDbDictionary
281
     1
  3
ACAD_CIP_PREVIOUS_PRODUCT_INFO
350
10056
  3
ACAD_COLOR
350
10035
  3
ACAD_DETAILVIEWSTYLE
350
1004E
  3
ACAD_GROUP
350
D
  3
ACAD_LAYOUT
350
10050
  3
ACAD_MATERIAL
350
10003
  3
ACAD_MLEADERSTYLE
350
1004A
  3
ACAD_MLINESTYLE
350
17
  3
ACAD_PLOTSETTINGS
350
10051
  3
ACAD_PLOTSTYLENAME
350
10001
  3
ACAD_SCALELIST
350
10038
  3
ACAD_SECTIONVIEWSTYLE
350
1004C
  3
ACAD_TABLESTYLE
350
10036
  3
ACAD_VISUALSTYLE
350
1001C
  3
ACDB_RECOMPOSE_DATA
350
1006C
  3
AcDbVariableDictionary
350
1005B
  0
DICTIONARY
  5
10057
330
50
100
AcDbDictionary
280
     1
281
     1
  3
ADSK_XREC_LAYER_RECONCILED
360
10058
  0
DICTIONARY
  5
10059
330
51
100
AcDbDictionary
280
     1
281
     1
  3
ADSK_XREC_LAYER_RECONCILED
360
1005A
  0
XRECORD
  5
10056
102
{ACAD_REACTORS
330
C
102
}
330
C
100
AcDbXrecord
280
     1
300
ACD
300
2014
300
ACD_F_S
  0
DICTIONARY
  5
10035
102
{ACAD_REACTORS
330
C
102
}
330
C
100
AcDbDictionary
281
     1
  0
DICTIONARY
  5
1004E
102
{ACAD_REACTORS
330
C
102
}
330
C
100
AcDbDictionary
281
     1
  3
Metric50
350
1004F
  0
DICTIONARY
  5
D
330
C
100
AcDbDictionary
281
     1
  0
DICTIONARY
  5
10050
102
{ACAD_REACTORS
330
C
102
}
330
C
100
AcDbDictionary
281
     1
  3
Layout1
350
10053
  3
Model
350
10052
  0
DICTIONARY
  5
10003
102
{ACAD_REACTORS
330
C
102
}
330
C
100
AcDbDictionary
281
     1
  3
ByBlock
350
1000C
  3
ByLayer
350
10004
  3
Global
350
10014
  0
DICTIONARY
  5
1004A
102
{ACAD_REACTORS
330
C
102
}
330
C
100
AcDbDictionary
281
     1
  3
Standard
350
1004B
  0
DICTIONARY
  5
17
330
C
100
AcDbDictionary
281
     1
  0
DICTIONARY
  5
10051
102
{ACAD_REACTORS
330
C
102
}
330
C
100
AcDbDictionary
281
     1
  0
ACDBDICTIONARYWDFLT
  5
10001
102
{ACAD_REACTORS
330
C
102
}
330
C
100
AcDbDictionary
281
     1
  3
Normal
350
10002
100
AcDbDictionaryWithDefault
340
10002
  0
DICTIONARY
  5
10038
102
{ACAD_REACTORS
330
C
102
}
330
C
100
AcDbDictionary
281
     1
  3
A0
350
10039
  3
A1
350
1003A
  3
A2
350
1003B
  3
A3
350
1003C
  3
A4
350
1003D
  3
A5
350
1003E
  3
A6
350
1003F
  3
A7
350
10040
  3
A8
350
10041
  3
A9
350
10042
  3
B0
350
10043
  3
B1
350
10044
  3
B2
350
10045
  3
B3
350
10046
  3
B4
350
10047
  3
B5
350
10048
  3
B6
350
10049
  0
DICTIONARY
  5
1004C
102
{ACAD_REACTORS
330
C
102
}
330
C
100
AcDbDictionary
281
     1
  3
Metric50
350
1004D
  0
DICTIONARY
  5
10036
102
{ACAD_REACTORS
330
C
102
}
330
C
100
AcDbDictionary
281
     1
  3
Standard
350
10037
  0
DICTIONARY
  5
1001C
102
{ACAD_REACTORS
330
C
102
}
330
C
100
AcDbDictionary
281
     1
  3
2dWireframe
350
10022
  3
Basic
350
10021
  3
Brighten
350
10028
  3
ColorChange
350
1002C
  3
Conceptual
350
10025
  3
Dim
350
10027
  3
EdgeColorOff
350
10034
  3
Facepattern
350
1002B
  3
Flat
350
1001D
  3
FlatWithEdges
350
1001E
  3
Gouraud
350
1001F
  3
GouraudWithEdges
350
10020
  3
Hidden
350
10024
  3
JitterOff
350
10032
  3
Linepattern
350
1002A
  3
OverhangOff
350
10033
  3
Realistic
350
10026
  3
Shaded
350
10031
  3
Shaded with edges
350
10030
  3
Shades of Gray
350
1002D
  3
Sketchy
350
1002E
  3
Thicken
350
10029
  3
Wireframe
350
10023
  3
X-Ray
350
1002F
  0
XRECORD
  5
1006C
102
{ACAD_REACTORS
330
C
102
}
330
C
100
AcDbXrecord
280
     1
 90
        1
330
10037
330
1004D
330
1004F
  0
DICTIONARY
  5
1005B
102
{ACAD_REACTORS
330
C
102
}
330
C
100
AcDbDictionary
281
     1
  3
CANNOSCALE
350
10061
  3
CMLEADERSTYLE
350
1005D
  3
CTABLESTYLE
350
1005C
  3
CVIEWDETAILSTYLE
350
1005E
  3
CVIEWSECTIONSTYLE
350
1005F
  3
LAYEREVAL
350
10063
  3
LAYERNOTIFY
350
10064
  3
LIGHTINGUNITS
350
10062
  3
MSLTSCALE
350
10060
  0
XRECORD
  5
10058
102
{ACAD_REACTORS
330
10057
102
}
330
10057
100
AcDbXrecord
280
     1
290
     1
  0
XRECORD
  5
1005A
102
{ACAD_REACTORS
330
10059
102
}
330
10059
100
AcDbXrecord
280
     1
290
     1
  0
ACDBDETAILVIEWSTYLE
  5
1004F
102
{ACAD_XDICTIONARY
360
1006A
102
}
102
{ACAD_REACTORS
330
1004E
102
}
330
1004E
100
AcDbModelDocViewStyle
 70
     0
  3
Metric50
290
     0
100
AcDbDetailViewStyle
 70
     0
 71
     0
 90
        3
 71
     1
340
11
 62
   256
 40
5.0
340
0
 62
   256
 40
5.0
300

 40
0.0
280
     1
 71
     2
340
16
 90
       25
 62
   256
 71
     3
340
11
 62
   256
 40
5.0
 90
        0
 40
15.0
 90
        1
300
%<\AcVar ViewDetailId>% (%<\AcVar ViewScale \f "%sn">%)
 71
     4
340
16
 90
       25
 62
   256
340
16
 90
       25
 62
   256
280
     0
  0
LAYOUT
  5
10053
102
{ACAD_REACTORS
330
10050
102
}
330
10050
100
AcDbPlotSettings
  1

  2
Canon LBP6020
  4

  6

 40
0.0
 41
0.0
 42
0.0
 43
0.0
 44
0.0
 45
0.0
 46
0.0
 47
0.0
 48
0.0
 49
0.0
140
0.0
141
0.0
142
1.0
143
1.0
 70
   688
 72
     0
 73
     0
 74
     5
  7

 75
    16
147
1.0
 76
     0
 77
     2
 78
   300
148
0.0
149
0.0
100
AcDbLayout
  1
Layout1
 70
     1
 71
     1
 10
0.0
 20
0.0
 11
12.0
 21
9.0
 12
0.0
 22
0.0
 32
0.0
 14
1.000000000000000E+20
 24
1.000000000000000E+20
 34
1.000000000000000E+20
 15
-1.000000000000000E+20
 25
-1.000000000000000E+20
 35
-1.000000000000000E+20
146
0.0
 13
0.0
 23
0.0
 33
0.0
 16
1.0
 26
0.0
 36
0.0
 17
0.0
 27
1.0
 37
0.0
 76
     0
330
1B
  0
LAYOUT
  5
10052
102
{ACAD_REACTORS
330
10050
102
}
330
10050
100
AcDbPlotSettings
  1

  2
Canon LBP6020
  4

  6

 40
0.0
 41
0.0
 42
0.0
 43
0.0
 44
0.0
 45
0.0
 46
0.0
 47
0.0
 48
0.0
 49
0.0
140
0.0
141
0.0
142
1.0
143
1.0
 70
  1712
 72
     0
 73
     0
 74
     0
  7

 75
     0
147
1.0
 76
     0
 77
     2
 78
   300
148
0.0
149
0.0
100
AcDbLayout
  1
Model
 70
     1
 71
     0
 10
0.0
 20
0.0
 11
12.0
 21
9.0
 12
0.0
 22
0.0
 32
0.0
 14
0.0
 24
0.0
 34
0.0
 15
0.0
 25
0.0
 35
0.0
146
0.0
 13
0.0
 23
0.0
 33
0.0
 16
1.0
 26
0.0
 36
0.0
 17
0.0
 27
1.0
 37
0.0
 76
     0
330
1F
331
2E
  0
MATERIAL
  5
1000C
102
{ACAD_XDICTIONARY
360
1000D
102
}
102
{ACAD_REACTORS
330
10003
102
}
330
10003
100
AcDbMaterial
  1
ByBlock
 72
     0
 43
0.0208333333333333
 43
0.0
 43
0.0
 43
0.0
 43
0.0
 43
0.0208333333333333
 43
0.0
 43
0.0
 43
0.0
 43
0.0
 43
1.0
 43
0.0
 43
0.0
 43
0.0
 43
0.0
 43
1.0
 77
     0
 47
0.0208333333333333
 47
0.0
 47
0.0
 47
0.0
 47
0.0
 47
0.0208333333333333
 47
0.0
 47
0.0
 47
0.0
 47
0.0
 47
1.0
 47
0.0
 47
0.0
 47
0.0
 47
0.0
 47
1.0
171
     0
 49
0.0208333333333333
 49
0.0
 49
0.0
 49
0.0
 49
0.0
 49
0.0208333333333333
 49
0.0
 49
0.0
 49
0.0
 49
0.0
 49
1.0
 49
0.0
 49
0.0
 49
0.0
 49
0.0
 49
1.0
175
     0
142
0.0208333333333333
142
0.0
142
0.0
142
0.0
142
0.0
142
0.0208333333333333
142
0.0
142
0.0
142
0.0
142
0.0
142
1.0
142
0.0
142
0.0
142
0.0
142
0.0
142
1.0
179
     0
144
0.0208333333333333
144
0.0
144
0.0
144
0.0
144
0.0
144
0.0208333333333333
144
0.0
144
0.0
144
0.0
144
0.0
144
1.0
144
0.0
144
0.0
144
0.0
144
0.0
144
1.0
147
0.0208333333333333
147
0.0
147
0.0
147
0.0
147
0.0
147
0.0208333333333333
147
0.0
147
0.0
147
0.0
147
0.0
147
1.0
147
0.0
147
0.0
147
0.0
147
0.0
147
1.0
  0
MATERIAL
  5
10004
102
{ACAD_XDICTIONARY
360
10005
102
}
102
{ACAD_REACTORS
330
10003
102
}
330
10003
100
AcDbMaterial
  1
ByLayer
 72
     0
 43
0.0208333333333333
 43
0.0
 43
0.0
 43
0.0
 43
0.0
 43
0.0208333333333333
 43
0.0
 43
0.0
 43
0.0
 43
0.0
 43
1.0
 43
0.0
 43
0.0
 43
0.0
 43
0.0
 43
1.0
 77
     0
 47
0.0208333333333333
 47
0.0
 47
0.0
 47
0.0
 47
0.0
 47
0.0208333333333333
 47
0.0
 47
0.0
 47
0.0
 47
0.0
 47
1.0
 47
0.0
 47
0.0
 47
0.0
 47
0.0
 47
1.0
171
     0
 49
0.0208333333333333
 49
0.0
 49
0.0
 49
0.0
 49
0.0
 49
0.0208333333333333
 49
0.0
 49
0.0
 49
0.0
 49
0.0
 49
1.0
 49
0.0
 49
0.0
 49
0.0
 49
0.0
 49
1.0
175
     0
142
0.0208333333333333
142
0.0
142
0.0
142
0.0
142
0.0
142
0.0208333333333333
142
0.0
142
0.0
142
0.0
142
0.0
142
1.0
142
0.0
142
0.0
142
0.0
142
0.0
142
1.0
179
     0
144
0.0208333333333333
144
0.0
144
0.0
144
0.0
144
0.0
144
0.0208333333333333
144
0.0
144
0.0
144
0.0
144
0.0
144
1.0
144
0.0
144
0.0
144
0.0
144
0.0
144
1.0
147
0.0208333333333333
147
0.0
147
0.0
147
0.0
147
0.0
147
0.0208333333333333
147
0.0
147
0.0
147
0.0
147
0.0
147
1.0
147
0.0
147
0.0
147
0.0
147
0.0
147
1.0
  0
MATERIAL
  5
10014
102
{ACAD_XDICTIONARY
360
10015
102
}
102
{ACAD_REACTORS
330
10003
102
}
330
10003
100
AcDbMaterial
  1
Global
 72
     0
 43
0.0208333333333333
 43
0.0
 43
0.0
 43
0.0
 43
0.0
 43
0.0208333333333333
 43
0.0
 43
0.0
 43
0.0
 43
0.0
 43
1.0
 43
0.0
 43
0.0
 43
0.0
 43
0.0
 43
1.0
 77
     0
 47
0.0208333333333333
 47
0.0
 47
0.0
 47
0.0
 47
0.0
 47
0.0208333333333333
 47
0.0
 47
0.0
 47
0.0
 47
0.0
 47
1.0
 47
0.0
 47
0.0
 47
0.0
 47
0.0
 47
1.0
171
     0
 49
0.0208333333333333
 49
0.0
 49
0.0
 49
0.0
 49
0.0
 49
0.0208333333333333
 49
0.0
 49
0.0
 49
0.0
 49
0.0
 49
1.0
 49
0.0
 49
0.0
 49
0.0
 49
0.0
 49
1.0
175
     0
142
0.0208333333333333
142
0.0
142
0.0
142
0.0
142
0.0
142
0.0208333333333333
142
0.0
142
0.0
142
0.0
142
0.0
142
1.0
142
0.0
142
0.0
142
0.0
142
0.0
142
1.0
179
     0
144
0.0208333333333333
144
0.0
144
0.0
144
0.0
144
0.0
144
0.0208333333333333
144
0.0
144
0.0
144
0.0
144
0.0
144
1.0
144
0.0
144
0.0
144
0.0
144
0.0
144
1.0
147
0.0208333333333333
147
0.0
147
0.0
147
0.0
147
0.0
147
0.0208333333333333
147
0.0
147
0.0
147
0.0
147
0.0
147
1.0
147
0.0
147
0.0
147
0.0
147
0.0
147
1.0
  0
MLEADERSTYLE
  5
1004B
102
{ACAD_REACTORS
330
1004A
102
}
330
1004A
100
AcDbMLeaderStyle
179
     2
170
     2
171
     1
172
     0
 90
        2
 40
0.0
 41
0.0
173
     1
 91
-1056964608
340
14
 92
       -2
290
     1
 42
2.0
291
     1
 43
0.36
  3
Standard
 44
4.0
300

342
11
174
     1
178
     6
175
     1
176
     0
 93
-1056964608
 45
4.0
292
     0
297
     0
 46
4.0
 94
-1056964608
 47
1.0
 49
1.0
140
1.0
293
     1
141
0.0
294
     1
177
     0
142
1.0
295
     0
296
     0
143
0.125
271
     0
272
     9
273
     9
298
     0
  0
ACDBPLACEHOLDER
  5
10002
102
{ACAD_REACTORS
330
10001
102
}
330
10001
  0
SCALE
  5
10039
102
{ACAD_REACTORS
330
10038
102
}
330
10038
100
AcDbScale
 70
     0
300
1:1
140
1.0
141
1.0
290
     1
  0
SCALE
  5
1003A
102
{ACAD_REACTORS
330
10038
102
}
330
10038
100
AcDbScale
 70
     0
300
1:2
140
1.0
141
2.0
290
     0
  0
SCALE
  5
1003B
102
{ACAD_REACTORS
330
10038
102
}
330
10038
100
AcDbScale
 70
     0
300
1:4
140
1.0
141
4.0
290
     0
  0
SCALE
  5
1003C
102
{ACAD_REACTORS
330
10038
102
}
330
10038
100
AcDbScale
 70
     0
300
1:5
140
1.0
141
5.0
290
     0
  0
SCALE
  5
1003D
102
{ACAD_REACTORS
330
10038
102
}
330
10038
100
AcDbScale
 70
     0
300
1:8
140
1.0
141
8.0
290
     0
  0
SCALE
  5
1003E
102
{ACAD_REACTORS
330
10038
102
}
330
10038
100
AcDbScale
 70
     0
300
1:10
140
1.0
141
10.0
290
     0
  0
SCALE
  5
1003F
102
{ACAD_REACTORS
330
10038
102
}
330
10038
100
AcDbScale
 70
     0
300
1:16
140
1.0
141
16.0
290
     0
  0
SCALE
  5
10040
102
{ACAD_REACTORS
330
10038
102
}
330
10038
100
AcDbScale
 70
     0
300
1:20
140
1.0
141
20.0
290
     0
  0
SCALE
  5
10041
102
{ACAD_REACTORS
330
10038
102
}
330
10038
100
AcDbScale
 70
     0
300
1:30
140
1.0
141
30.0
290
     0
  0
SCALE
  5
10042
102
{ACAD_REACTORS
330
10038
102
}
330
10038
100
AcDbScale
 70
     0
300
1:40
140
1.0
141
40.0
290
     0
  0
SCALE
  5
10043
102
{ACAD_REACTORS
330
10038
102
}
330
10038
100
AcDbScale
 70
     0
300
1:50
140
1.0
141
50.0
290
     0
  0
SCALE
  5
10044
102
{ACAD_REACTORS
330
10038
102
}
330
10038
100
AcDbScale
 70
     0
300
1:100
140
1.0
141
100.0
290
     0
  0
SCALE
  5
10045
102
{ACAD_REACTORS
330
10038
102
}
330
10038
100
AcDbScale
 70
     0
300
2:1
140
2.0
141
1.0
290
     0
  0
SCALE
  5
10046
102
{ACAD_REACTORS
330
10038
102
}
330
10038
100
AcDbScale
 70
     0
300
4:1
140
4.0
141
1.0
290
     0
  0
SCALE
  5
10047
102
{ACAD_REACTORS
330
10038
102
}
330
10038
100
AcDbScale
 70
     0
300
8:1
140
8.0
141
1.0
290
     0
  0
SCALE
  5
10048
102
{ACAD_REACTORS
330
10038
102
}
330
10038
100
AcDbScale
 70
     0
300
10:1
140
10.0
141
1.0
290
     0
  0
SCALE
  5
10049
102
{ACAD_REACTORS
330
10038
102
}
330
10038
100
AcDbScale
 70
     0
300
100:1
140
100.0
141
1.0
290
     0
  0
ACDBSECTIONVIEWSTYLE
  5
1004D
102
{ACAD_XDICTIONARY
360
10068
102
}
102
{ACAD_REACTORS
330
1004C
102
}
330
1004C
100
AcDbModelDocViewStyle
 70
     0
  3
Metric50
290
     0
100
AcDbSectionViewStyle
 70
     0
 71
     0
 90
      102
 71
     1
340
11
 62
   256
 40
5.0
340
0
340
0
 62
   256
 40
5.0
300
I, O, Q, S, X, Z
 40
10.0
 90
        0
 40
2.5
 90
        0
 71
     2
340
16
 90
       25
 62
   256
340
16
 90
       50
 62
   256
 40
5.0
 40
2.5
 40
5.0
 71
     3
340
11
 62
   256
 40
5.0
 90
        0
 40
15.0
 90
        1
300
%<\AcVar ViewSectionStartId>%-%<\AcVar ViewSectionEndId>% (%<\AcVar ViewScale \f "%sn">%)
 71
     4
 62
   256
 62
   257
300
ANSI31
 40
1.0
 90
        0
290
     0
290
     0
 90
        6
 40
0.0
 40
1.570796326794896
 40
0.2617993877991494
 40
1.308996938995747
 40
-0.2617993877991494
 40
1.832595714594046
  0
TABLESTYLE
  5
10037
102
{ACAD_XDICTIONARY
360
10066
102
}
102
{ACAD_REACTORS
330
10036
102
}
330
10036
100
AcDbTableStyle
280
     0
  3
Standard
 70
     0
 71
     0
 40
1.5
 41
1.5
280
     0
281
     0
  7
STANDARD
140
4.5
170
     2
 62
     0
 63
     7
283
     0
 90
      512
 91
        0
  1

274
    -2
284
     1
 64
     0
275
    -2
285
     1
 65
     0
276
    -2
286
     1
 66
     0
277
    -2
287
     1
 67
     0
278
    -2
288
     1
 68
     0
279
    -2
289
     1
 69
     0
  7
STANDARD
140
6.0
170
     5
 62
     0
 63
     7
283
     0
 90
      512
 91
        0
  1

274
    -2
284
     1
 64
     0
275
    -2
285
     1
 65
     0
276
    -2
286
     1
 66
     0
277
    -2
287
     1
 67
     0
278
    -2
288
     1
 68
     0
279
    -2
289
     1
 69
     0
  7
STANDARD
140
4.5
170
     5
 62
     0
 63
     7
283
     0
 90
      512
 91
        0
  1

274
    -2
284
     1
 64
     0
275
    -2
285
     1
 65
     0
276
    -2
286
     1
 66
     0
277
    -2
287
     1
 67
     0
278
    -2
288
     1
 68
     0
279
    -2
289
     1
 69
     0
  0
VISUALSTYLE
  5
10022
102
{ACAD_REACTORS
330
1001C
102
}
330
1001C
100
AcDbVisualStyle
  2
2dWireframe
 70
     4
177
     3
291
     0
 70
    58
 90
        0
176
     1
 90
        2
176
     1
 90
        0
176
     1
 90
        0
176
     1
 40
0.6
176
     1
 40
30.0
176
     1
 62
     7
420
 16777215
176
     1
 90
        1
176
     1
 90
        4
176
     1
 62
     7
176
     1
 62
   257
176
     1
 90
        1
176
     1
 90
        1
176
     1
 40
1.0
176
     1
 90
        0
176
     1
 62
   257
176
     1
 40
1.0
176
     1
 90
        1
176
     1
 90
        6
176
     1
 90
        2
176
     1
 62
     7
176
     1
 90
        5
176
     1
 90
        0
176
     1
 90
        0
176
     1
290
     0
176
     1
 90
        1
176
     1
 40
0.0
176
     1
 90
        0
176
     1
290
     1
176
     1
290
     1
176
     1
290
     0
176
     1
290
     0
176
     1
290
     0
176
     1
290
     0
176
     1
290
     0
176
     1
290
     0
176
     1
290
     0
176
     1
 90
       50
176
     1
 40
0.0
176
     1
 40
1.0
176
     1
 90
        0
176
     1
 62
    18
420
        0
176
     1
 90
       50
176
     1
 90
        3
176
     1
 62
     5
420
      255
176
     1
290
     0
176
     1
 90
       50
176
     1
 90
       50
176
     1
 90
       50
176
     1
290
     0
176
     1
 90
       50
176
     1
 62
   256
176
     0
 40
1.0
176
     0
 90
        2
176
     1
  1
strokes_ogs.tif
176
     1
290
     0
176
     1
 40
1.0
176
     1
 40
1.0
176
     1
  0
VISUALSTYLE
  5
10021
102
{ACAD_REACTORS
330
1001C
102
}
330
1001C
100
AcDbVisualStyle
  2
Basic
 70
     7
177
     3
291
     1
 70
    58
 90
        1
176
     1
 90
        0
176
     1
 90
        1
176
     1
 90
        0
176
     1
 40
0.6
176
     1
 40
30.0
176
     1
 62
     7
420
 16777215
176
     1
 90
        0
176
     1
 90
        4
176
     1
 62
     7
176
     1
 62
   257
176
     1
 90
        1
176
     1
 90
        1
176
     1
 40
1.0
176
     1
 90
        8
176
     1
 62
     7
176
     1
 40
1.0
176
     1
 90
        1
176
     1
 90
        6
176
     1
 90
        2
176
     1
 62
     7
176
     1
 90
        5
176
     1
 90
        0
176
     1
 90
        0
176
     1
290
     0
176
     1
 90
        1
176
     1
 40
0.0
176
     1
 90
        0
176
     1
290
     0
176
     1
290
     1
176
     1
290
     1
176
     1
290
     0
176
     1
290
     0
176
     1
290
     0
176
     1
290
     0
176
     1
290
     0
176
     1
290
     0
176
     1
 90
       50
176
     1
 40
0.0
176
     1
 40
1.0
176
     1
 90
        0
176
     1
 62
    18
420
        0
176
     1
 90
       50
176
     1
 90
        3
176
     1
 62
     5
420
      255
176
     1
290
     0
176
     1
 90
       50
176
     1
 90
       50
176
     1
 90
       50
176
     1
290
     0
176
     1
 90
       50
176
     1
 62
   256
176
     0
 40
1.0
176
     0
 90
        2
176
     1
  1
strokes_ogs.tif
176
     1
290
     0
176
     1
 40
1.0
176
     1
 40
1.0
176
     1
  0
VISUALSTYLE
  5
10028
102
{ACAD_REACTORS
330
1001C
102
}
330
1001C
100
AcDbVisualStyle
  2
Brighten
 70
    12
177
     3
291
     1
 70
    58
 90
        2
176
     1
 90
        2
176
     1
 90
        0
176
     1
 90
        0
176
     1
 40
0.6
176
     1
 40
30.0
176
     1
 62
     7
420
 16777215
176
     1
 90
        1
176
     1
 90
        4
176
     1
 62
     7
176
     1
 62
   257
176
     1
 90
        1
176
     1
 90
        1
176
     1
 40
1.0
176
     1
 90
        8
176
     1
 62
     7
176
     1
 40
1.0
176
     1
 90
        1
176
     1
 90
        6
176
     1
 90
        2
176
     1
 62
     7
176
     1
 90
        5
176
     1
 90
        0
176
     1
 90
        0
176
     1
290
     0
176
     1
 90
        1
176
     1
 40
50.0
176
     1
 90
        0
176
     1
290
     0
176
     1
290
     1
176
     1
290
     1
176
     1
290
     0
176
     1
290
     0
176
     1
290
     0
176
     1
290
     0
176
     1
290
     0
176
     1
290
     0
176
     1
 90
       50
176
     1
 40
0.0
176
     1
 40
1.0
176
     1
 90
        0
176
     1
 62
    18
420
        0
176
     1
 90
       50
176
     1
 90
        3
176
     1
 62
     5
420
      255
176
     1
290
     0
176
     1
 90
       50
176
     1
 90
       50
176
     1
 90
       50
176
     1
290
     0
176
     1
 90
       50
176
     1
 62
   256
176
     0
 40
1.0
176
     0
 90
        2
176
     1
  1
strokes_ogs.tif
176
     1
290
     0
176
     1
 40
1.0
176
     1
 40
1.0
176
     1
  0
VISUALSTYLE
  5
1002C
102
{ACAD_REACTORS
330
1001C
102
}
330
1001C
100
AcDbVisualStyle
  2
ColorChange
 70
    16
177
     3
291
     1
 70
    58
 90
        2
176
     1
 90
        2
176
     1
 90
        3
176
     1
 90
        0
176
     1
 40
0.6
176
     1
 40
30.0
176
     1
 62
     8
420
  8421504
176
     1
 90
        1
176
     1
 90
        4
176
     1
 62
     7
176
     1
 62
   257
176
     1
 90
        1
176
     1
 90
        1
176
     1
 40
1.0
176
     1
 90
        8
176
     1
 62
     8
420
  8421504
176
     1
 40
1.0
176
     1
 90
        1
176
     1
 90
        6
176
     1
 90
        2
176
     1
 62
     7
176
     1
 90
        5
176
     1
 90
        0
176
     1
 90
        0
176
     1
290
     0
176
     1
 90
        1
176
     1
 40
0.0
176
     1
 90
        0
176
     1
290
     0
176
     1
290
     1
176
     1
290
     1
176
     1
290
     0
176
     1
290
     0
176
     1
290
     0
176
     1
290
     0
176
     1
290
     0
176
     1
290
     0
176
     1
 90
       50
176
     1
 40
0.0
176
     1
 40
1.0
176
     1
 90
        0
176
     1
 62
    18
420
        0
176
     1
 90
       50
176
     1
 90
        3
176
     1
 62
     5
420
      255
176
     1
290
     0
176
     1
 90
       50
176
     1
 90
       50
176
     1
 90
       50
176
     1
290
     0
176
     1
 90
       50
176
     1
 62
   256
176
     0
 40
1.0
176
     0
 90
        2
176
     1
  1
strokes_ogs.tif
176
     1
290
     0
176
     1
 40
1.0
176
     1
 40
1.0
176
     1
  0
VISUALSTYLE
  5
10025
102
{ACAD_REACTORS
330
1001C
102
}
330
1001C
100
AcDbVisualStyle
  2
Conceptual
 70
     9
177
     3
291
     0
 70
    58
 90
        3
176
     1
 90
        2
176
     1
 90
        0
176
     1
 90
        0
176
     1
 40
0.6
176
     1
 40
30.0
176
     1
 62
     7
420
 16777215
176
     1
 90
        2
176
     1
 90
        2
176
     1
 62
     7
176
     1
 62
   257
176
     1
 90
        1
176
     1
 90
        1
176
     1
 40
179.0
176
     1
 90
        8
176
     1
 62
     7
176
     1
 40
1.0
176
     1
 90
        1
176
     1
 90
        6
176
     1
 90
        2
176
     1
 62
     7
176
     1
 90
        3
176
     1
 90
        0
176
     1
 90
        0
176
     1
290
     0
176
     1
 90
        1
176
     1
 40
0.0
176
     1
 90
        0
176
     1
290
     0
176
     1
290
     1
176
     1
290
     1
176
     1
290
     0
176
     1
290
     0
176
     1
290
     0
176
     1
290
     0
176
     1
290
     0
176
     1
290
     0
176
     1
 90
       50
176
     1
 40
0.0
176
     1
 40
1.0
176
     1
 90
        0
176
     1
 62
    18
420
        0
176
     1
 90
       50
176
     1
 90
        3
176
     1
 62
     5
420
      255
176
     1
290
     0
176
     1
 90
       50
176
     1
 90
       50
176
     1
 90
       50
176
     1
290
     0
176
     1
 90
       50
176
     1
 62
   256
176
     0
 40
1.0
176
     0
 90
        2
176
     1
  1
strokes_ogs.tif
176
     1
290
     0
176
     1
 40
1.0
176
     1
 40
1.0
176
     1
  0
VISUALSTYLE
  5
10027
102
{ACAD_REACTORS
330
1001C
102
}
330
1001C
100
AcDbVisualStyle
  2
Dim
 70
    11
177
     3
291
     1
 70
    58
 90
        2
176
     1
 90
        2
176
     1
 90
        0
176
     1
 90
        0
176
     1
 40
0.6
176
     1
 40
30.0
176
     1
 62
     7
420
 16777215
176
     1
 90
        1
176
     1
 90
        4
176
     1
 62
     7
176
     1
 62
   257
176
     1
 90
        1
176
     1
 90
        1
176
     1
 40
1.0
176
     1
 90
        8
176
     1
 62
     7
176
     1
 40
1.0
176
     1
 90
        1
176
     1
 90
        6
176
     1
 90
        2
176
     1
 62
     7
176
     1
 90
        5
176
     1
 90
        0
176
     1
 90
        0
176
     1
290
     0
176
     1
 90
        1
176
     1
 40
-50.0
176
     1
 90
        0
176
     1
290
     0
176
     1
290
     1
176
     1
290
     1
176
     1
290
     0
176
     1
290
     0
176
     1
290
     0
176
     1
290
     0
176
     1
290
     0
176
     1
290
     0
176
     1
 90
       50
176
     1
 40
0.0
176
     1
 40
1.0
176
     1
 90
        0
176
     1
 62
    18
420
        0
176
     1
 90
       50
176
     1
 90
        3
176
     1
 62
     5
420
      255
176
     1
290
     0
176
     1
 90
       50
176
     1
 90
       50
176
     1
 90
       50
176
     1
290
     0
176
     1
 90
       50
176
     1
 62
   256
176
     0
 40
1.0
176
     0
 90
        2
176
     1
  1
strokes_ogs.tif
176
     1
290
     0
176
     1
 40
1.0
176
     1
 40
1.0
176
     1
  0
VISUALSTYLE
  5
10034
102
{ACAD_REACTORS
330
1001C
102
}
330
1001C
100
AcDbVisualStyle
  2
EdgeColorOff
 70
    22
177
     3
291
     1
 70
    58
 90
        2
176
     0
 90
        2
176
     0
 90
        0
176
     0
 90
        0
176
     0
 40
0.6
176
     0
 40
30.0
176
     0
 62
     7
420
 16777215
176
     0
 90
        1
176
     0
 90
        4
176
     0
 62
     7
176
     0
 62
   257
176
     0
 90
        1
176
     0
 90
        1
176
     0
 40
1.0
176
     0
 90
        8
176
     2
 62
     7
176
     0
 40
1.0
176
     0
 90
        1
176
     0
 90
        6
176
     0
 90
        2
176
     0
 62
     7
176
     0
 90
        5
176
     0
 90
        0
176
     0
 90
        0
176
     0
290
     0
176
     0
 90
        1
176
     0
 40
0.0
176
     0
 90
        0
176
     0
290
     0
176
     1
290
     1
176
     1
290
     1
176
     1
290
     0
176
     1
290
     0
176
     1
290
     0
176
     1
290
     0
176
     1
290
     0
176
     1
290
     0
176
     1
 90
       50
176
     0
 40
0.0
176
     0
 40
1.0
176
     0
 90
        0
176
     0
 62
    18
420
        0
176
     0
 90
       50
176
     0
 90
        3
176
     0
 62
     5
420
      255
176
     0
290
     0
176
     1
 90
       50
176
     0
 90
       50
176
     0
 90
       50
176
     0
290
     0
176
     1
 90
       50
176
     0
 62
   256
176
     0
 40
1.0
176
     0
 90
        2
176
     0
  1
strokes_ogs.tif
176
     0
290
     0
176
     1
 40
1.0
176
     0
 40
1.0
176
     0
  0
VISUALSTYLE
  5
1002B
102
{ACAD_REACTORS
330
1001C
102
}
330
1001C
100
AcDbVisualStyle
  2
Facepattern
 70
    15
177
     3
291
     1
 70
    58
 90
        2
176
     1
 90
        2
176
     1
 90
        0
176
     1
 90
        0
176
     1
 40
0.6
176
     1
 40
30.0
176
     1
 62
     7
420
 16777215
176
     1
 90
        1
176
     1
 90
        4
176
     1
 62
     7
176
     1
 62
   257
176
     1
 90
        1
176
     1
 90
        1
176
     1
 40
1.0
176
     1
 90
        8
176
     1
 62
     7
176
     1
 40
1.0
176
     1
 90
        1
176
     1
 90
        6
176
     1
 90
        2
176
     1
 62
     7
176
     1
 90
        5
176
     1
 90
        0
176
     1
 90
        0
176
     1
290
     0
176
     1
 90
        1
176
     1
 40
0.0
176
     1
 90
        0
176
     1
290
     0
176
     1
290
     1
176
     1
290
     1
176
     1
290
     0
176
     1
290
     0
176
     1
290
     0
176
     1
290
     0
176
     1
290
     0
176
     1
290
     0
176
     1
 90
       50
176
     1
 40
0.0
176
     1
 40
1.0
176
     1
 90
        0
176
     1
 62
    18
420
        0
176
     1
 90
       50
176
     1
 90
        3
176
     1
 62
     5
420
      255
176
     1
290
     0
176
     1
 90
       50
176
     1
 90
       50
176
     1
 90
       50
176
     1
290
     0
176
     1
 90
       50
176
     1
 62
   256
176
     0
 40
1.0
176
     0
 90
        2
176
     1
  1
strokes_ogs.tif
176
     1
290
     0
176
     1
 40
1.0
176
     1
 40
1.0
176
     1
  0
VISUALSTYLE
  5
1001D
102
{ACAD_REACTORS
330
1001C
102
}
330
1001C
100
AcDbVisualStyle
  2
Flat
 70
     0
177
     3
291
     1
 70
    58
 90
        2
176
     1
 90
        1
176
     1
 90
        1
176
     1
 90
        2
176
     1
 40
0.6
176
     1
 40
30.0
176
     1
 62
     7
420
 16777215
176
     1
 90
        0
176
     1
 90
        0
176
     1
 62
     7
176
     1
 62
   257
176
     1
 90
        1
176
     1
 90
        1
176
     1
 40
1.0
176
     1
 90
        8
176
     1
 62
     7
176
     1
 40
1.0
176
     1
 90
        1
176
     1
 90
        6
176
     1
 90
        2
176
     1
 62
     7
176
     1
 90
        5
176
     1
 90
        0
176
     1
 90
        0
176
     1
290
     0
176
     1
 90
       13
176
     1
 40
0.0
176
     1
 90
        0
176
     1
290
     0
176
     1
290
     1
176
     1
290
     1
176
     1
290
     0
176
     1
290
     0
176
     1
290
     0
176
     1
290
     0
176
     1
290
     0
176
     1
290
     0
176
     1
 90
       50
176
     1
 40
0.0
176
     1
 40
1.0
176
     1
 90
        0
176
     1
 62
    18
420
        0
176
     1
 90
       50
176
     1
 90
        3
176
     1
 62
     5
420
      255
176
     1
290
     0
176
     1
 90
       50
176
     1
 90
       50
176
     1
 90
       50
176
     1
290
     0
176
     1
 90
       50
176
     1
 62
   256
176
     0
 40
1.0
176
     0
 90
        2
176
     1
  1
strokes_ogs.tif
176
     1
290
     0
176
     1
 40
1.0
176
     1
 40
1.0
176
     1
  0
VISUALSTYLE
  5
1001E
102
{ACAD_REACTORS
330
1001C
102
}
330
1001C
100
AcDbVisualStyle
  2
FlatWithEdges
 70
     1
177
     3
291
     1
 70
    58
 90
        2
176
     1
 90
        1
176
     1
 90
        1
176
     1
 90
        2
176
     1
 40
0.6
176
     1
 40
30.0
176
     1
 62
     7
420
 16777215
176
     1
 90
        1
176
     1
 90
        0
176
     1
 62
     7
176
     1
 62
   257
176
     1
 90
        1
176
     1
 90
        1
176
     1
 40
1.0
176
     1
 90
        0
176
     1
 62
   257
176
     1
 40
1.0
176
     1
 90
        1
176
     1
 90
        6
176
     1
 90
        2
176
     1
 62
     7
176
     1
 90
        5
176
     1
 90
        0
176
     1
 90
        0
176
     1
290
     0
176
     1
 90
       13
176
     1
 40
0.0
176
     1
 90
        0
176
     1
290
     0
176
     1
290
     1
176
     1
290
     1
176
     1
290
     0
176
     1
290
     0
176
     1
290
     0
176
     1
290
     0
176
     1
290
     0
176
     1
290
     0
176
     1
 90
       50
176
     1
 40
0.0
176
     1
 40
1.0
176
     1
 90
        0
176
     1
 62
    18
420
        0
176
     1
 90
       50
176
     1
 90
        3
176
     1
 62
     5
420
      255
176
     1
290
     0
176
     1
 90
       50
176
     1
 90
       50
176
     1
 90
       50
176
     1
290
     0
176
     1
 90
       50
176
     1
 62
   256
176
     0
 40
1.0
176
     0
 90
        2
176
     1
  1
strokes_ogs.tif
176
     1
290
     0
176
     1
 40
1.0
176
     1
 40
1.0
176
     1
  0
VISUALSTYLE
  5
1001F
102
{ACAD_REACTORS
330
1001C
102
}
330
1001C
100
AcDbVisualStyle
  2
Gouraud
 70
     2
177
     3
291
     1
 70
    58
 90
        2
176
     1
 90
        2
176
     1
 90
        1
176
     1
 90
        2
176
     1
 40
0.6
176
     1
 40
30.0
176
     1
 62
     7
420
 16777215
176
     1
 90
        0
176
     1
 90
        0
176
     1
 62
     7
176
     1
 62
   257
176
     1
 90
        1
176
     1
 90
        1
176
     1
 40
1.0
176
     1
 90
        0
176
     1
 62
     7
176
     1
 40
1.0
176
     1
 90
        1
176
     1
 90
        6
176
     1
 90
        2
176
     1
 62
     7
176
     1
 90
        5
176
     1
 90
        0
176
     1
 90
        0
176
     1
290
     0
176
     1
 90
       13
176
     1
 40
0.0
176
     1
 90
        0
176
     1
290
     0
176
     1
290
     1
176
     1
290
     1
176
     1
290
     0
176
     1
290
     0
176
     1
290
     0
176
     1
290
     0
176
     1
290
     0
176
     1
290
     0
176
     1
 90
       50
176
     1
 40
0.0
176
     1
 40
1.0
176
     1
 90
        0
176
     1
 62
    18
420
        0
176
     1
 90
       50
176
     1
 90
        3
176
     1
 62
     5
420
      255
176
     1
290
     0
176
     1
 90
       50
176
     1
 90
       50
176
     1
 90
       50
176
     1
290
     0
176
     1
 90
       50
176
     1
 62
   256
176
     0
 40
1.0
176
     0
 90
        2
176
     1
  1
strokes_ogs.tif
176
     1
290
     0
176
     1
 40
1.0
176
     1
 40
1.0
176
     1
  0
VISUALSTYLE
  5
10020
102
{ACAD_REACTORS
330
1001C
102
}
330
1001C
100
AcDbVisualStyle
  2
GouraudWithEdges
 70
     3
177
     3
291
     1
 70
    58
 90
        2
176
     1
 90
        2
176
     1
 90
        1
176
     1
 90
        2
176
     1
 40
0.6
176
     1
 40
30.0
176
     1
 62
     7
420
 16777215
176
     1
 90
        1
176
     1
 90
        0
176
     1
 62
     7
176
     1
 62
   257
176
     1
 90
        1
176
     1
 90
        1
176
     1
 40
1.0
176
     1
 90
        0
176
     1
 62
   257
176
     1
 40
1.0
176
     1
 90
        1
176
     1
 90
        6
176
     1
 90
        2
176
     1
 62
     7
176
     1
 90
        5
176
     1
 90
        0
176
     1
 90
        0
176
     1
290
     0
176
     1
 90
       13
176
     1
 40
0.0
176
     1
 90
        0
176
     1
290
     0
176
     1
290
     1
176
     1
290
     1
176
     1
290
     0
176
     1
290
     0
176
     1
290
     0
176
     1
290
     0
176
     1
290
     0
176
     1
290
     0
176
     1
 90
       50
176
     1
 40
0.0
176
     1
 40
1.0
176
     1
 90
        0
176
     1
 62
    18
420
        0
176
     1
 90
       50
176
     1
 90
        3
176
     1
 62
     5
420
      255
176
     1
290
     0
176
     1
 90
       50
176
     1
 90
       50
176
     1
 90
       50
176
     1
290
     0
176
     1
 90
       50
176
     1
 62
   256
176
     0
 40
1.0
176
     0
 90
        2
176
     1
  1
strokes_ogs.tif
176
     1
290
     0
176
     1
 40
1.0
176
     1
 40
1.0
176
     1
  0
VISUALSTYLE
  5
10024
102
{ACAD_REACTORS
330
1001C
102
}
330
1001C
100
AcDbVisualStyle
  2
Hidden
 70
     6
177
     3
291
     0
 70
    58
 90
        1
176
     1
 90
        2
176
     1
 90
        2
176
     1
 90
        0
176
     1
 40
0.6
176
     1
 40
30.0
176
     1
 62
     7
420
 16777215
176
     1
 90
        2
176
     1
 90
        2
176
     1
 62
     7
176
     1
 62
   257
176
     1
 90
        2
176
     1
 90
        1
176
     1
 40
40.0
176
     1
 90
        0
176
     1
 62
   257
176
     1
 40
1.0
176
     1
 90
        1
176
     1
 90
        6
176
     1
 90
        2
176
     1
 62
     7
176
     1
 90
        3
176
     1
 90
        0
176
     1
 90
        0
176
     1
290
     0
176
     1
 90
        1
176
     1
 40
0.0
176
     1
 90
        0
176
     1
290
     0
176
     1
290
     1
176
     1
290
     1
176
     1
290
     0
176
     1
290
     0
176
     1
290
     0
176
     1
290
     0
176
     1
290
     0
176
     1
290
     0
176
     1
 90
       50
176
     1
 40
0.0
176
     1
 40
1.0
176
     1
 90
        0
176
     1
 62
    18
420
        0
176
     1
 90
       50
176
     1
 90
        3
176
     1
 62
     5
420
      255
176
     1
290
     0
176
     1
 90
       50
176
     1
 90
       50
176
     1
 90
       50
176
     1
290
     0
176
     1
 90
       50
176
     1
 62
   256
176
     0
 40
1.0
176
     0
 90
        2
176
     1
  1
strokes_ogs.tif
176
     1
290
     0
176
     1
 40
1.0
176
     1
 40
1.0
176
     1
  0
VISUALSTYLE
  5
10032
102
{ACAD_REACTORS
330
1001C
102
}
330
1001C
100
AcDbVisualStyle
  2
JitterOff
 70
    20
177
     3
291
     1
 70
    58
 90
        2
176
     0
 90
        2
176
     0
 90
        0
176
     0
 90
        0
176
     0
 40
0.6
176
     0
 40
30.0
176
     0
 62
     7
420
 16777215
176
     0
 90
        1
176
     0
 90
        4
176
     0
 62
     7
176
     0
 62
   257
176
     0
 90
        1
176
     0
 90
        1
176
     0
 40
1.0
176
     0
 90
       10
176
     2
 62
     7
176
     0
 40
1.0
176
     0
 90
        1
176
     0
 90
        6
176
     0
 90
        2
176
     0
 62
     7
176
     0
 90
        5
176
     0
 90
        0
176
     0
 90
        0
176
     0
290
     0
176
     0
 90
        1
176
     0
 40
0.0
176
     0
 90
        0
176
     0
290
     0
176
     1
290
     1
176
     1
290
     1
176
     1
290
     0
176
     1
290
     0
176
     1
290
     0
176
     1
290
     0
176
     1
290
     0
176
     1
290
     0
176
     1
 90
       50
176
     0
 40
0.0
176
     0
 40
1.0
176
     0
 90
        0
176
     0
 62
    18
420
        0
176
     0
 90
       50
176
     0
 90
        3
176
     0
 62
     5
420
      255
176
     0
290
     0
176
     1
 90
       50
176
     0
 90
       50
176
     0
 90
       50
176
     0
290
     0
176
     1
 90
       50
176
     0
 62
   256
176
     0
 40
1.0
176
     0
 90
        2
176
     0
  1
strokes_ogs.tif
176
     0
290
     0
176
     1
 40
1.0
176
     0
 40
1.0
176
     0
  0
VISUALSTYLE
  5
1002A
102
{ACAD_REACTORS
330
1001C
102
}
330
1001C
100
AcDbVisualStyle
  2
Linepattern
 70
    14
177
     3
291
     1
 70
    58
 90
        2
176
     1
 90
        2
176
     1
 90
        0
176
     1
 90
        0
176
     1
 40
0.6
176
     1
 40
30.0
176
     1
 62
     7
420
 16777215
176
     1
 90
        1
176
     1
 90
        4
176
     1
 62
     7
176
     1
 62
   257
176
     1
 90
        7
176
     1
 90
        7
176
     1
 40
1.0
176
     1
 90
        8
176
     1
 62
     7
176
     1
 40
1.0
176
     1
 90
        1
176
     1
 90
        6
176
     1
 90
        2
176
     1
 62
     7
176
     1
 90
        5
176
     1
 90
        0
176
     1
 90
        0
176
     1
290
     0
176
     1
 90
        1
176
     1
 40
0.0
176
     1
 90
        0
176
     1
290
     0
176
     1
290
     1
176
     1
290
     1
176
     1
290
     0
176
     1
290
     0
176
     1
290
     0
176
     1
290
     0
176
     1
290
     0
176
     1
290
     0
176
     1
 90
       50
176
     1
 40
0.0
176
     1
 40
1.0
176
     1
 90
        0
176
     1
 62
    18
420
        0
176
     1
 90
       50
176
     1
 90
        3
176
     1
 62
     5
420
      255
176
     1
290
     0
176
     1
 90
       50
176
     1
 90
       50
176
     1
 90
       50
176
     1
290
     0
176
     1
 90
       50
176
     1
 62
   256
176
     0
 40
1.0
176
     0
 90
        2
176
     1
  1
strokes_ogs.tif
176
     1
290
     0
176
     1
 40
1.0
176
     1
 40
1.0
176
     1
  0
VISUALSTYLE
  5
10033
102
{ACAD_REACTORS
330
1001C
102
}
330
1001C
100
AcDbVisualStyle
  2
OverhangOff
 70
    21
177
     3
291
     1
 70
    58
 90
        2
176
     0
 90
        2
176
     0
 90
        0
176
     0
 90
        0
176
     0
 40
0.6
176
     0
 40
30.0
176
     0
 62
     7
420
 16777215
176
     0
 90
        1
176
     0
 90
        4
176
     0
 62
     7
176
     0
 62
   257
176
     0
 90
        1
176
     0
 90
        1
176
     0
 40
1.0
176
     0
 90
        9
176
     2
 62
     7
176
     0
 40
1.0
176
     0
 90
        1
176
     0
 90
        6
176
     0
 90
        2
176
     0
 62
     7
176
     0
 90
        5
176
     0
 90
        0
176
     0
 90
        0
176
     0
290
     0
176
     0
 90
        1
176
     0
 40
0.0
176
     0
 90
        0
176
     0
290
     0
176
     1
290
     1
176
     1
290
     1
176
     1
290
     0
176
     1
290
     0
176
     1
290
     0
176
     1
290
     0
176
     1
290
     0
176
     1
290
     0
176
     1
 90
       50
176
     0
 40
0.0
176
     0
 40
1.0
176
     0
 90
        0
176
     0
 62
    18
420
        0
176
     0
 90
       50
176
     0
 90
        3
176
     0
 62
     5
420
      255
176
     0
290
     0
176
     1
 90
       50
176
     0
 90
       50
176
     0
 90
       50
176
     0
290
     0
176
     1
 90
       50
176
     0
 62
   256
176
     0
 40
1.0
176
     0
 90
        2
176
     0
  1
strokes_ogs.tif
176
     0
290
     0
176
     1
 40
1.0
176
     0
 40
1.0
176
     0
  0
VISUALSTYLE
  5
10026
102
{ACAD_REACTORS
330
1001C
102
}
330
1001C
100
AcDbVisualStyle
  2
Realistic
 70
     8
177
     3
291
     0
 70
    58
 90
        2
176
     1
 90
        3
176
     1
 90
        0
176
     1
 90
        2
176
     1
 40
0.6
176
     1
 40
30.0
176
     1
 62
     7
420
 16777215
176
     1
 90
        0
176
     1
 90
        0
176
     1
 62
     7
176
     1
 62
   257
176
     1
 90
        1
176
     1
 90
        1
176
     1
 40
1.0
176
     1
 90
        8
176
     1
 62
   257
176
     1
 40
1.0
176
     1
 90
        1
176
     1
 90
        6
176
     1
 90
        2
176
     1
 62
     7
176
     1
 90
        3
176
     1
 90
        0
176
     1
 90
        0
176
     1
290
     0
176
     1
 90
       13
176
     1
 40
0.0
176
     1
 90
        0
176
     1
290
     0
176
     1
290
     1
176
     1
290
     1
176
     1
290
     0
176
     1
290
     0
176
     1
290
     0
176
     1
290
     0
176
     1
290
     0
176
     1
290
     0
176
     1
 90
       50
176
     1
 40
0.0
176
     1
 40
1.0
176
     1
 90
        0
176
     1
 62
    18
420
        0
176
     1
 90
       50
176
     1
 90
        3
176
     1
 62
     5
420
      255
176
     1
290
     0
176
     1
 90
       50
176
     1
 90
       50
176
     1
 90
       50
176
     1
290
     0
176
     1
 90
       50
176
     1
 62
   256
176
     0
 40
1.0
176
     0
 90
        2
176
     1
  1
strokes_ogs.tif
176
     1
290
     0
176
     1
 40
1.0
176
     1
 40
1.0
176
     1
  0
VISUALSTYLE
  5
10031
102
{ACAD_REACTORS
330
1001C
102
}
330
1001C
100
AcDbVisualStyle
  2
Shaded
 70
    27
177
     3
291
     0
 70
    58
 90
        2
176
     1
 90
        2
176
     1
 90
        1
176
     1
 90
        2
176
     1
 40
0.6
176
     1
 40
30.0
176
     1
 62
     7
420
 16777215
176
     1
 90
        0
176
     1
 90
        4
176
     1
 62
     7
176
     1
 62
   257
176
     1
 90
        1
176
     1
 90
        1
176
     1
 40
1.0
176
     1
 90
        8
176
     1
 62
   257
176
     1
 40
1.0
176
     1
 90
        1
176
     1
 90
        6
176
     1
 90
        2
176
     1
 62
     8
420
  7895160
176
     1
 90
        3
176
     1
 90
        0
176
     1
 90
        0
176
     1
290
     0
176
     1
 90
        5
176
     1
 40
0.0
176
     1
 90
        0
176
     1
290
     0
176
     1
290
     1
176
     1
290
     1
176
     1
290
     0
176
     1
290
     0
176
     1
290
     0
176
     1
290
     0
176
     1
290
     0
176
     1
290
     0
176
     1
 90
       50
176
     1
 40
0.0
176
     1
 40
1.0
176
     1
 90
        0
176
     1
 62
    18
420
        0
176
     1
 90
       50
176
     1
 90
        3
176
     1
 62
     5
420
      255
176
     1
290
     0
176
     1
 90
       50
176
     1
 90
       50
176
     1
 90
       50
176
     1
290
     0
176
     1
 90
       50
176
     1
 62
   256
176
     0
 40
1.0
176
     0
 90
        2
176
     1
  1
strokes_ogs.tif
176
     1
290
     0
176
     1
 40
1.0
176
     1
 40
1.0
176
     1
  0
VISUALSTYLE
  5
10030
102
{ACAD_REACTORS
330
1001C
102
}
330
1001C
100
AcDbVisualStyle
  2
Shaded with edges
 70
    26
177
     3
291
     0
 70
    58
 90
        2
176
     1
 90
        2
176
     1
 90
        1
176
     1
 90
        2
176
     1
 40
0.6
176
     1
 40
30.0
176
     1
 62
     7
420
 16777215
176
     1
 90
        1
176
     1
 90
       10
176
     1
 62
     7
176
     1
 62
   257
176
     1
 90
        2
176
     1
 90
        1
176
     1
 40
1.0
176
     1
 90
        8
176
     1
 62
   257
176
     1
 40
1.0
176
     1
 90
        1
176
     1
 90
        6
176
     1
 90
        2
176
     1
 62
     7
176
     1
 90
        3
176
     1
 90
        0
176
     1
 90
        0
176
     1
290
     0
176
     1
 90
        5
176
     1
 40
0.0
176
     1
 90
        0
176
     1
290
     0
176
     1
290
     1
176
     1
290
     1
176
     1
290
     0
176
     1
290
     0
176
     1
290
     0
176
     1
290
     0
176
     1
290
     0
176
     1
290
     0
176
     1
 90
       50
176
     1
 40
0.0
176
     1
 40
1.0
176
     1
 90
        0
176
     1
 62
    18
420
        0
176
     1
 90
       50
176
     1
 90
        3
176
     1
 62
     5
420
      255
176
     1
290
     0
176
     1
 90
       50
176
     1
 90
       50
176
     1
 90
       50
176
     1
290
     0
176
     1
 90
       50
176
     1
 62
   256
176
     0
 40
1.0
176
     0
 90
        2
176
     1
  1
strokes_ogs.tif
176
     1
290
     0
176
     1
 40
1.0
176
     1
 40
1.0
176
     1
  0
VISUALSTYLE
  5
1002D
102
{ACAD_REACTORS
330
1001C
102
}
330
1001C
100
AcDbVisualStyle
  2
Shades of Gray
 70
    23
177
     3
291
     0
 70
    58
 90
        2
176
     1
 90
        2
176
     1
 90
        3
176
     1
 90
        0
176
     1
 40
0.6
176
     1
 40
30.0
176
     1
 62
     7
420
 16777215
176
     1
 90
        2
176
     1
 90
        2
176
     1
 62
     7
176
     1
 62
     7
176
     1
 90
        1
176
     1
 90
        1
176
     1
 40
40.0
176
     1
 90
        8
176
     1
 62
     7
176
     1
 40
1.0
176
     1
 90
        1
176
     1
 90
        6
176
     1
 90
        2
176
     1
 62
     7
176
     1
 90
        3
176
     1
 90
        0
176
     1
 90
        0
176
     1
290
     0
176
     1
 90
        1
176
     1
 40
0.0
176
     1
 90
        0
176
     1
290
     0
176
     1
290
     1
176
     1
290
     1
176
     1
290
     0
176
     1
290
     0
176
     1
290
     0
176
     1
290
     0
176
     1
290
     0
176
     1
290
     0
176
     1
 90
       50
176
     1
 40
0.0
176
     1
 40
1.0
176
     1
 90
        0
176
     1
 62
    18
420
        0
176
     1
 90
       50
176
     1
 90
        3
176
     1
 62
     5
420
      255
176
     1
290
     0
176
     1
 90
       50
176
     1
 90
       50
176
     1
 90
       50
176
     1
290
     0
176
     1
 90
       50
176
     1
 62
   256
176
     0
 40
1.0
176
     0
 90
        2
176
     1
  1
strokes_ogs.tif
176
     1
290
     0
176
     1
 40
1.0
176
     1
 40
1.0
176
     1
  0
VISUALSTYLE
  5
1002E
102
{ACAD_REACTORS
330
1001C
102
}
330
1001C
100
AcDbVisualStyle
  2
Sketchy
 70
    24
177
     3
291
     0
 70
    58
 90
        1
176
     1
 90
        2
176
     1
 90
        2
176
     1
 90
        0
176
     1
 40
0.6
176
     1
 40
30.0
176
     1
 62
     7
420
 16777215
176
     1
 90
        2
176
     1
 90
        2
176
     1
 62
     7
176
     1
 62
     7
176
     1
 90
        1
176
     1
 90
        1
176
     1
 40
40.0
176
     1
 90
       11
176
     1
 62
     7
176
     1
 40
1.0
176
     1
 90
        1
176
     1
 90
        6
176
     1
 90
        2
176
     1
 62
     7
176
     1
 90
        6
176
     1
 90
        0
176
     1
 90
        0
176
     1
290
     0
176
     1
 90
        1
176
     1
 40
0.0
176
     1
 90
        0
176
     1
290
     0
176
     1
290
     1
176
     1
290
     1
176
     1
290
     0
176
     1
290
     0
176
     1
290
     0
176
     1
290
     0
176
     1
290
     0
176
     1
290
     0
176
     1
 90
       50
176
     1
 40
0.0
176
     1
 40
1.0
176
     1
 90
        0
176
     1
 62
    18
420
        0
176
     1
 90
       50
176
     1
 90
        3
176
     1
 62
     5
420
      255
176
     1
290
     0
176
     1
 90
       50
176
     1
 90
       50
176
     1
 90
       50
176
     1
290
     0
176
     1
 90
       50
176
     1
 62
   256
176
     0
 40
1.0
176
     0
 90
        2
176
     1
  1
strokes_ogs.tif
176
     1
290
     0
176
     1
 40
1.0
176
     1
 40
1.0
176
     1
  0
VISUALSTYLE
  5
10029
102
{ACAD_REACTORS
330
1001C
102
}
330
1001C
100
AcDbVisualStyle
  2
Thicken
 70
    13
177
     3
291
     1
 70
    58
 90
        2
176
     1
 90
        2
176
     1
 90
        0
176
     1
 90
        0
176
     1
 40
0.6
176
     1
 40
30.0
176
     1
 62
     7
420
 16777215
176
     1
 90
        1
176
     1
 90
        4
176
     1
 62
     7
176
     1
 62
   257
176
     1
 90
        1
176
     1
 90
        1
176
     1
 40
1.0
176
     1
 90
       12
176
     1
 62
     7
176
     1
 40
1.0
176
     1
 90
        1
176
     1
 90
        6
176
     1
 90
        2
176
     1
 62
     7
176
     1
 90
        5
176
     1
 90
        0
176
     1
 90
        0
176
     1
290
     0
176
     1
 90
        1
176
     1
 40
0.0
176
     1
 90
        0
176
     1
290
     0
176
     1
290
     1
176
     1
290
     1
176
     1
290
     0
176
     1
290
     0
176
     1
290
     0
176
     1
290
     0
176
     1
290
     0
176
     1
290
     0
176
     1
 90
       50
176
     1
 40
0.0
176
     1
 40
1.0
176
     1
 90
        0
176
     1
 62
    18
420
        0
176
     1
 90
       50
176
     1
 90
        3
176
     1
 62
     5
420
      255
176
     1
290
     0
176
     1
 90
       50
176
     1
 90
       50
176
     1
 90
       50
176
     1
290
     0
176
     1
 90
       50
176
     1
 62
   256
176
     0
 40
1.0
176
     0
 90
        2
176
     1
  1
strokes_ogs.tif
176
     1
290
     0
176
     1
 40
1.0
176
     1
 40
1.0
176
     1
  0
VISUALSTYLE
  5
10023
102
{ACAD_REACTORS
330
1001C
102
}
330
1001C
100
AcDbVisualStyle
  2
Wireframe
 70
     5
177
     3
291
     0
 70
    58
 90
        0
176
     1
 90
        2
176
     1
 90
        0
176
     1
 90
        0
176
     1
 40
0.6
176
     1
 40
30.0
176
     1
 62
     7
420
 16777215
176
     1
 90
        1
176
     1
 90
        4
176
     1
 62
     7
176
     1
 62
   257
176
     1
 90
        1
176
     1
 90
        1
176
     1
 40
1.0
176
     1
 90
        0
176
     1
 62
   257
176
     1
 40
1.0
176
     1
 90
        1
176
     1
 90
        6
176
     1
 90
        2
176
     1
 62
     7
176
     1
 90
        3
176
     1
 90
        0
176
     1
 90
        0
176
     1
290
     0
176
     1
 90
        1
176
     1
 40
0.0
176
     1
 90
        0
176
     1
290
     0
176
     1
290
     1
176
     1
290
     1
176
     1
290
     0
176
     1
290
     0
176
     1
290
     0
176
     1
290
     0
176
     1
290
     0
176
     1
290
     0
176
     1
 90
       50
176
     1
 40
0.0
176
     1
 40
1.0
176
     1
 90
        0
176
     1
 62
    18
420
        0
176
     1
 90
       50
176
     1
 90
        3
176
     1
 62
     5
420
      255
176
     1
290
     0
176
     1
 90
       50
176
     1
 90
       50
176
     1
 90
       50
176
     1
290
     0
176
     1
 90
       50
176
     1
 62
   256
176
     0
 40
1.0
176
     0
 90
        2
176
     1
  1
strokes_ogs.tif
176
     1
290
     0
176
     1
 40
1.0
176
     1
 40
1.0
176
     1
  0
VISUALSTYLE
  5
1002F
102
{ACAD_REACTORS
330
1001C
102
}
330
1001C
100
AcDbVisualStyle
  2
X-Ray
 70
    25
177
     3
291
     0
 70
    58
 90
        2
176
     1
 90
        2
176
     1
 90
        1
176
     1
 90
        1
176
     1
 40
0.5
176
     1
 40
30.0
176
     1
 62
     7
420
 16777215
176
     1
 90
        1
176
     1
 90
        0
176
     1
 62
     7
176
     1
 62
   257
176
     1
 90
        1
176
     1
 90
        1
176
     1
 40
1.0
176
     1
 90
        8
176
     1
 62
     7
176
     1
 40
1.0
176
     1
 90
        1
176
     1
 90
        6
176
     1
 90
        2
176
     1
 62
     7
176
     1
 90
        3
176
     1
 90
        0
176
     1
 90
        0
176
     1
290
     0
176
     1
 90
       13
176
     1
 40
0.0
176
     1
 90
        0
176
     1
290
     0
176
     1
290
     1
176
     1
290
     1
176
     1
290
     0
176
     1
290
     0
176
     1
290
     0
176
     1
290
     0
176
     1
290
     0
176
     1
290
     0
176
     1
 90
       50
176
     1
 40
0.0
176
     1
 40
1.0
176
     1
 90
        0
176
     1
 62
    18
420
        0
176
     1
 90
       50
176
     1
 90
        3
176
     1
 62
     5
420
      255
176
     1
290
     0
176
     1
 90
       50
176
     1
 90
       50
176
     1
 90
       50
176
     1
290
     0
176
     1
 90
       50
176
     1
 62
   256
176
     0
 40
1.0
176
     0
 90
        2
176
     1
  1
strokes_ogs.tif
176
     1
290
     0
176
     1
 40
1.0
176
     1
 40
1.0
176
     1
  0
DICTIONARYVAR
  5
10061
102
{ACAD_REACTORS
330
1005B
102
}
330
1005B
100
DictionaryVariables
280
     0
  1
1:1
  0
DICTIONARYVAR
  5
1005D
102
{ACAD_REACTORS
330
1005B
102
}
330
1005B
100
DictionaryVariables
280
     0
  1
STANDARD
  0
DICTIONARYVAR
  5
1005C
102
{ACAD_REACTORS
330
1005B
102
}
330
1005B
100
DictionaryVariables
280
     0
  1
STANDARD
  0
DICTIONARYVAR
  5
1005E
102
{ACAD_REACTORS
330
1005B
102
}
330
1005B
100
DictionaryVariables
280
     0
  1
Metric50
  0
DICTIONARYVAR
  5
1005F
102
{ACAD_REACTORS
330
1005B
102
}
330
1005B
100
DictionaryVariables
280
     0
  1
Metric50
  0
DICTIONARYVAR
  5
10063
102
{ACAD_REACTORS
330
1005B
102
}
330
1005B
100
DictionaryVariables
280
     0
  1
1
  0
DICTIONARYVAR
  5
10064
102
{ACAD_REACTORS
330
1005B
102
}
330
1005B
100
DictionaryVariables
280
     0
  1
15
  0
DICTIONARYVAR
  5
10062
102
{ACAD_REACTORS
330
1005B
102
}
330
1005B
100
DictionaryVariables
280
     0
  1
0
  0
DICTIONARYVAR
  5
10060
102
{ACAD_REACTORS
330
1005B
102
}
330
1005B
100
DictionaryVariables
280
     0
  1
0
  0
DICTIONARY
  5
1006A
330
1004F
100
AcDbDictionary
280
     1
281
     1
  3
ACAD_XREC_ROUNDTRIP
360
1006B
  0
DICTIONARY
  5
1000D
330
1000C
100
AcDbDictionary
280
     1
281
     1
  3
BUMPTILE
360
1000F
  3
DIFFUSETILE
360
1000E
  3
OPACITYTILE
360
10012
  3
REFLECTIONTILE
360
10011
  3
REFRACTIONTILE
360
10013
  3
SPECULARTILE
360
10010
  0
DICTIONARY
  5
10005
330
10004
100
AcDbDictionary
280
     1
281
     1
  3
BUMPTILE
360
10007
  3
DIFFUSETILE
360
10006
  3
OPACITYTILE
360
1000A
  3
REFLECTIONTILE
360
10009
  3
REFRACTIONTILE
360
1000B
  3
SPECULARTILE
360
10008
  0
DICTIONARY
  5
10015
330
10014
100
AcDbDictionary
280
     1
281
     1
  3
BUMPTILE
360
10017
  3
DIFFUSETILE
360
10016
  3
OPACITYTILE
360
1001A
  3
REFLECTIONTILE
360
10019
  3
REFRACTIONTILE
360
1001B
  3
SPECULARTILE
360
10018
  0
DICTIONARY
  5
10068
330
1004D
100
AcDbDictionary
280
     1
281
     1
  3
ACAD_XREC_ROUNDTRIP
360
10069
  0
DICTIONARY
  5
10066
330
10037
100
AcDbDictionary
280
     1
281
     1
  3
ACAD_ROUNDTRIP_2008_TABLESTYLE_CELLSTYLEMAP
360
10067
  0
XRECORD
  5
1006B
102
{ACAD_REACTORS
330
1006A
102
}
330
1006A
100
AcDbXrecord
280
     1
102
DISPLAYNAME
  1
Metric50
102
FLAGS
 90
        0
  0
XRECORD
  5
1000F
102
{ACAD_REACTORS
330
1000D
102
}
330
1000D
100
AcDbXrecord
280
     1
270
     1
271
     1
  0
XRECORD
  5
1000E
102
{ACAD_REACTORS
330
1000D
102
}
330
1000D
100
AcDbXrecord
280
     1
270
     1
271
     1
  0
XRECORD
  5
10012
102
{ACAD_REACTORS
330
1000D
102
}
330
1000D
100
AcDbXrecord
280
     1
270
     1
271
     1
  0
XRECORD
  5
10011
102
{ACAD_REACTORS
330
1000D
102
}
330
1000D
100
AcDbXrecord
280
     1
270
     1
271
     1
  0
XRECORD
  5
10013
102
{ACAD_REACTORS
330
1000D
102
}
330
1000D
100
AcDbXrecord
280
     1
270
     1
271
     1
  0
XRECORD
  5
10010
102
{ACAD_REACTORS
330
1000D
102
}
330
1000D
100
AcDbXrecord
280
     1
270
     1
271
     1
  0
XRECORD
  5
10007
102
{ACAD_REACTORS
330
10005
102
}
330
10005
100
AcDbXrecord
280
     1
270
     1
271
     1
  0
XRECORD
  5
10006
102
{ACAD_REACTORS
330
10005
102
}
330
10005
100
AcDbXrecord
280
     1
270
     1
271
     1
  0
XRECORD
  5
1000A
102
{ACAD_REACTORS
330
10005
102
}
330
10005
100
AcDbXrecord
280
     1
270
     1
271
     1
  0
XRECORD
  5
10009
102
{ACAD_REACTORS
330
10005
102
}
330
10005
100
AcDbXrecord
280
     1
270
     1
271
     1
  0
XRECORD
  5
1000B
102
{ACAD_REACTORS
330
10005
102
}
330
10005
100
AcDbXrecord
280
     1
270
     1
271
     1
  0
XRECORD
  5
10008
102
{ACAD_REACTORS
330
10005
102
}
330
10005
100
AcDbXrecord
280
     1
270
     1
271
     1
  0
XRECORD
  5
10017
102
{ACAD_REACTORS
330
10015
102
}
330
10015
100
AcDbXrecord
280
     1
270
     1
271
     1
  0
XRECORD
  5
10016
102
{ACAD_REACTORS
330
10015
102
}
330
10015
100
AcDbXrecord
280
     1
270
     1
271
     1
  0
XRECORD
  5
1001A
102
{ACAD_REACTORS
330
10015
102
}
330
10015
100
AcDbXrecord
280
     1
270
     1
271
     1
  0
XRECORD
  5
10019
102
{ACAD_REACTORS
330
10015
102
}
330
10015
100
AcDbXrecord
280
     1
270
     1
271
     1
  0
XRECORD
  5
1001B
102
{ACAD_REACTORS
330
10015
102
}
330
10015
100
AcDbXrecord
280
     1
270
     1
271
     1
  0
XRECORD
  5
10018
102
{ACAD_REACTORS
330
10015
102
}
330
10015
100
AcDbXrecord
280
     1
270
     1
271
     1
  0
XRECORD
  5
10069
102
{ACAD_REACTORS
330
10068
102
}
330
10068
100
AcDbXrecord
280
     1
102
DISPLAYNAME
  1
Metric50
102
FLAGS
 90
        0
  0
CELLSTYLEMAP
  5
10067
102
{ACAD_REACTORS
330
10066
102
}
330
10066
100
AcDbCellStyleMap
 90
        3
300
CELLSTYLE
  1
TABLEFORMAT_BEGIN
 90
        5
170
     1
 91
        0
 92
    32768
 62
   257
 93
        1
300
CONTENTFORMAT
  1
CONTENTFORMAT_BEGIN
 90
        0
 91
        0
 92
      512
 93
        0
300

 40
0.0
140
1.0
 94
        5
 62
     0
340
11
144
6.0
309
CONTENTFORMAT_END
171
     1
301
MARGIN
  1
CELLMARGIN_BEGIN
 40
1.5
 40
1.5
 40
1.5
 40
1.5
 40
4.5
 40
4.5
309
CELLMARGIN_END
 94
        6
 95
        1
302
GRIDFORMAT
  1
GRIDFORMAT_BEGIN
 90
        0
 91
        1
 62
     0
 92
       -2
340
0
 93
        0
 40
1.125
309
GRIDFORMAT_END
 95
        2
302
GRIDFORMAT
  1
GRIDFORMAT_BEGIN
 90
        0
 91
        1
 62
     0
 92
       -2
340
0
 93
        0
 40
1.125
309
GRIDFORMAT_END
 95
        4
302
GRIDFORMAT
  1
GRIDFORMAT_BEGIN
 90
        0
 91
        1
 62
     0
 92
       -2
340
0
 93
        0
 40
1.125
309
GRIDFORMAT_END
 95
        8
302
GRIDFORMAT
  1
GRIDFORMAT_BEGIN
 90
        0
 91
        1
 62
     0
 92
       -2
340
0
 93
        0
 40
1.125
309
GRIDFORMAT_END
 95
       16
302
GRIDFORMAT
  1
GRIDFORMAT_BEGIN
 90
        0
 91
        1
 62
     0
 92
       -2
340
0
 93
        0
 40
1.125
309
GRIDFORMAT_END
 95
       32
302
GRIDFORMAT
  1
GRIDFORMAT_BEGIN
 90
        0
 91
        1
 62
     0
 92
       -2
340
0
 93
        0
 40
1.125
309
GRIDFORMAT_END
309
TABLEFORMAT_END
  1
CELLSTYLE_BEGIN
 90
        1
 91
        1
300
_TITLE
309
CELLSTYLE_END
300
CELLSTYLE
  1
TABLEFORMAT_BEGIN
 90
        5
170
     1
 91
        0
 92
        0
 62
   257
 93
        1
300
CONTENTFORMAT
  1
CONTENTFORMAT_BEGIN
 90
        0
 91
        0
 92
      512
 93
        0
300

 40
0.0
140
1.0
 94
        5
 62
     0
340
11
144
4.5
309
CONTENTFORMAT_END
171
     1
301
MARGIN
  1
CELLMARGIN_BEGIN
 40
1.5
 40
1.5
 40
1.5
 40
1.5
 40
4.5
 40
4.5
309
CELLMARGIN_END
 94
        6
 95
        1
302
GRIDFORMAT
  1
GRIDFORMAT_BEGIN
 90
        0
 91
        1
 62
     0
 92
       -2
340
0
 93
        0
 40
1.125
309
GRIDFORMAT_END
 95
        2
302
GRIDFORMAT
  1
GRIDFORMAT_BEGIN
 90
        0
 91
        1
 62
     0
 92
       -2
340
0
 93
        0
 40
1.125
309
GRIDFORMAT_END
 95
        4
302
GRIDFORMAT
  1
GRIDFORMAT_BEGIN
 90
        0
 91
        1
 62
     0
 92
       -2
340
0
 93
        0
 40
1.125
309
GRIDFORMAT_END
 95
        8
302
GRIDFORMAT
  1
GRIDFORMAT_BEGIN
 90
        0
 91
        1
 62
     0
 92
       -2
340
0
 93
        0
 40
1.125
309
GRIDFORMAT_END
 95
       16
302
GRIDFORMAT
  1
GRIDFORMAT_BEGIN
 90
        0
 91
        1
 62
     0
 92
       -2
340
0
 93
        0
 40
1.125
309
GRIDFORMAT_END
 95
       32
302
GRIDFORMAT
  1
GRIDFORMAT_BEGIN
 90
        0
 91
        1
 62
     0
 92
       -2
340
0
 93
        0
 40
1.125
309
GRIDFORMAT_END
309
TABLEFORMAT_END
  1
CELLSTYLE_BEGIN
 90
        2
 91
        1
300
_HEADER
309
CELLSTYLE_END
300
CELLSTYLE
  1
TABLEFORMAT_BEGIN
 90
        5
170
     1
 91
        0
 92
        0
 62
   257
 93
        1
300
CONTENTFORMAT
  1
CONTENTFORMAT_BEGIN
 90
        0
 91
        0
 92
      512
 93
        0
300

 40
0.0
140
1.0
 94
        2
 62
     0
340
11
144
4.5
309
CONTENTFORMAT_END
171
     1
301
MARGIN
  1
CELLMARGIN_BEGIN
 40
1.5
 40
1.5
 40
1.5
 40
1.5
 40
4.5
 40
4.5
309
CELLMARGIN_END
 94
        6
 95
        1
302
GRIDFORMAT
  1
GRIDFORMAT_BEGIN
 90
        0
 91
        1
 62
     0
 92
       -2
340
0
 93
        0
 40
1.125
309
GRIDFORMAT_END
 95
        2
302
GRIDFORMAT
  1
GRIDFORMAT_BEGIN
 90
        0
 91
        1
 62
     0
 92
       -2
340
0
 93
        0
 40
1.125
309
GRIDFORMAT_END
 95
        4
302
GRIDFORMAT
  1
GRIDFORMAT_BEGIN
 90
        0
 91
        1
 62
     0
 92
       -2
340
0
 93
        0
 40
1.125
309
GRIDFORMAT_END
 95
        8
302
GRIDFORMAT
  1
GRIDFORMAT_BEGIN
 90
        0
 91
        1
 62
     0
 92
       -2
340
0
 93
        0
 40
1.125
309
GRIDFORMAT_END
 95
       16
302
GRIDFORMAT
  1
GRIDFORMAT_BEGIN
 90
        0
 91
        1
 62
     0
 92
       -2
340
0
 93
        0
 40
1.125
309
GRIDFORMAT_END
 95
       32
302
GRIDFORMAT
  1
GRIDFORMAT_BEGIN
 90
        0
 91
        1
 62
     0
 92
       -2
340
0
 93
        0
 40
1.125
309
GRIDFORMAT_END
309
TABLEFORMAT_END
  1
CELLSTYLE_BEGIN
 90
        3
 91
        2
300
_DATA
309
CELLSTYLE_END
  0
ENDSEC
  0
EOF
