  0
SECTION
  2
HEADER
  9
$ACADVER
  1
AC1014
  9
$HANDSEED
  5
FFFF
  9
$MEASUREMENT
 70
     1
  0
ENDSEC
  0
SECTION
  2
TABLES
  0
TABLE
  2
VPORT
  5
8
330
0
100
AcDbSymbolTable
 70
     4
  0
VPORT
  5
2E
330
8
100
AcDbSymbolTableRecord
100
AcDbViewportTableRecord
  2
*ACTIVE
 70
     0
 10
0.0
 20
0.0
 11
1.0
 21
1.0
 12
210.0
 22
148.5
 13
0.0
 23
0.0
 14
10.0
 24
10.0
 15
10.0
 25
10.0
 16
0.0
 26
0.0
 36
1.0
 17
0.0
 27
0.0
 37
0.0
 40
341.0
 41
1.24
 42
50.0
 43
0.0
 44
0.0
 50
0.0
 51
0.0
 71
     0
 72
   100
 73
     1
 74
     3
 75
     0
 76
     0
 77
     0
 78
     0
  0
ENDTAB
  0
TABLE
  2
LTYPE
  5
5
330
0
100
AcDbSymbolTable
 70
     1
  0
LTYPE
  5
14
330
5
100
AcDbSymbolTableRecord
100
AcDbLinetypeTableRecord
  2
BYBLOCK
 70
     0
  3

 72
    65
 73
     0
 40
0.0
  0
LTYPE
  5
15
330
5
100
AcDbSymbolTableRecord
100
AcDbLinetypeTableRecord
  2
BYLAYER
 70
     0
  3

 72
    65
 73
     0
 40
0.0
  0
LTYPE
  5
16
330
5
100
AcDbSymbolTableRecord
100
AcDbLinetypeTableRecord
  2
CONTINUOUS
 70
     0
  3
Solid line
 72
    65
 73
     0
 40
0.0
  0
ENDTAB
  0
TABLE
  2
LAYER
  5
2
100
AcDbSymbolTable
 70
2
  0
LAYER
  5
50
100
AcDbSymbolTableRecord
100
AcDbLayerTableRecord
  2
0
 70
0
  6
CONTINUOUS
  0
LAYER
  5
51
100
AcDbSymbolTableRecord
100
AcDbLayerTableRecord
  2
Layer_1
 70
0
  6
CONTINUOUS
  0
ENDTAB
  0
TABLE
  2
STYLE
  5
3
330
0
100
AcDbSymbolTable
 70
     1
  0
STYLE
  5
11
330
3
100
AcDbSymbolTableRecord
100
AcDbTextStyleTableRecord
  2
STANDARD
 70
     0
 40
0.0
 41
1.0
 50
0.0
 71
     0
 42
2.5
  3
txt
  4

  0
ENDTAB
  0
TABLE
  2
VIEW
  5
6
330
0
100
AcDbSymbolTable
 70
     0
  0
ENDTAB
  0
TABLE
  2
UCS
  5
7
330
0
100
AcDbSymbolTable
 70
     0
  0
ENDTAB
  0
TABLE
  2
APPID
  5
9
330
0
100
AcDbSymbolTable
 70
     2
  0
APPID
  5
12
330
9
100
AcDbSymbolTableRecord
100
AcDbRegAppTableRecord
  2
ACAD
 70
     0
  0
ENDTAB
  0
TABLE
  2
DIMSTYLE
  5
A
330
0
100
AcDbSymbolTable
 70
     1
  0
DIMSTYLE
105
27
330
A
100
AcDbSymbolTableRecord
100
AcDbDimStyleTableRecord
  2
ISO-25
 70
     0
  3

  4

  5

  6

  7

 40
1.0
 41
2.5
 42
0.625
 43
3.75
 44
1.25
 45
0.0
 46
0.0
 47
0.0
 48
0.0
140
2.5
141
2.5
142
0.0
143
0.03937007874016
144
1.0
145
0.0
146
1.0
147
0.625
 71
     0
 72
     0
 73
     0
 74
     0
 75
     0
 76
     0
 77
     1
 78
     8
170
     0
171
     3
172
     1
173
     0
174
     0
175
     0
176
     0
177
     0
178
     0
270
     2
271
     2
272
     2
273
     2
274
     3
340
11
275
     0
280
     0
281
     0
282
     0
283
     0
284
     8
285
     0
286
     0
287
     3
288
     0
  0
ENDTAB
  0
TABLE
  2
BLOCK_RECORD
  5
1
330
0
100
AcDbSymbolTable
 70
     1
  0
BLOCK_RECORD
  5
1F
330
1
100
AcDbSymbolTableRecord
100
AcDbBlockTableRecord
  2
*MODEL_SPACE
  0
BLOCK_RECORD
  5
1B
330
1
100
AcDbSymbolTableRecord
100
AcDbBlockTableRecord
  2
*PAPER_SPACE
  0
ENDTAB
  0
ENDSEC
  0
SECTION
  2
BLOCKS
  0
BLOCK
  5
20
330
1F
100
AcDbEntity
  8
0
100
AcDbBlockBegin
  2
*MODEL_SPACE
 70
     0
 10
0.0
 20
0.0
 30
0.0
  3
*MODEL_SPACE
  1

  0
ENDBLK
  5
21
330
1F
100
AcDbEntity
  8
0
100
AcDbBlockEnd
  0
BLOCK
  5
1C
330
1B
100
AcDbEntity
 67
     1
  8
0
100
AcDbBlockBegin
  2
*PAPER_SPACE
  1

  0
ENDBLK
  5
1D
330
1B
100
AcDbEntity
 67
     1
  8
0
100
AcDbBlockEnd
  0
ENDSEC
  0
SECTION
  2
ENTITIES
  0
LINE
  5
100
100
AcDbEntity
  8
Layer_1
 62
7
100
AcDbLine
 10
297.641158
 20
0.258823
 30
0.0
 11
297.641158
 21
44.258834
 31
0.0
  0
LINE
  5
101
100
AcDbEntity
  8
Layer_1
 62
7
100
AcDbLine
 10
297.641158
 20
44.258834
 30
0.0
 11
302.641158
 21
44.258834
 31
0.0
  0
LINE
  5
102
100
AcDbEntity
  8
Layer_1
 62
7
100
AcDbLine
 10
302.641158
 20
44.258834
 30
0.0
 11
302.641158
 21
39.258835
 31
0.0
  0
LINE
  5
103
100
AcDbEntity
  8
Layer_1
 62
7
100
AcDbLine
 10
302.641158
 20
39.258835
 30
0.0
 11
327.641159
 21
39.258835
 31
0.0
  0
LINE
  5
104
100
AcDbEntity
  8
Layer_1
 62
7
100
AcDbLine
 10
327.641159
 20
39.258835
 30
0.0
 11
327.641159
 21
44.258834
 31
0.0
  0
LINE
  5
105
100
AcDbEntity
  8
Layer_1
 62
7
100
AcDbLine
 10
327.641159
 20
44.258834
 30
0.0
 11
332.641158
 21
44.258834
 31
0.0
  0
LINE
  5
106
100
AcDbEntity
  8
Layer_1
 62
7
100
AcDbLine
 10
332.641158
 20
44.258834
 30
0.0
 11
332.641158
 21
0.258823
 31
0.0
  0
LINE
  5
107
100
AcDbEntity
  8
Layer_1
 62
7
100
AcDbLine
 10
332.641158
 20
0.258823
 30
0.0
 11
327.641159
 21
0.258823
 31
0.0
  0
LINE
  5
108
100
AcDbEntity
  8
Layer_1
 62
7
100
AcDbLine
 10
327.641159
 20
0.258823
 30
0.0
 11
327.641159
 21
5.258841
 31
0.0
  0
LINE
  5
109
100
AcDbEntity
  8
Layer_1
 62
7
100
AcDbLine
 10
327.641159
 20
5.258841
 30
0.0
 11
302.641158
 21
5.258841
 31
0.0
  0
LINE
  5
10a
100
AcDbEntity
  8
Layer_1
 62
7
100
AcDbLine
 10
302.641158
 20
5.258841
 30
0.0
 11
302.641158
 21
0.258823
 31
0.0
  0
LINE
  5
10b
100
AcDbEntity
  8
Layer_1
 62
7
100
AcDbLine
 10
302.641158
 20
0.258823
 30
0.0
 11
297.641158
 21
0.258823
 31
0.0
  0
LINE
  5
10c
100
AcDbEntity
  8
Layer_1
 62
7
100
AcDbLine
 10
262.641164
 20
0.258823
 30
0.0
 11
262.641164
 21
44.258834
 31
0.0
  0
LINE
  5
10d
100
AcDbEntity
  8
Layer_1
 62
7
100
AcDbLine
 10
262.641164
 20
44.258834
 30
0.0
 11
267.641163
 21
44.258834
 31
0.0
  0
LINE
  5
10e
100
AcDbEntity
  8
Layer_1
 62
7
100
AcDbLine
 10
267.641163
 20
44.258834
 30
0.0
 11
267.641163
 21
39.258835
 31
0.0
  0
LINE
  5
10f
100
AcDbEntity
  8
Layer_1
 62
7
100
AcDbLine
 10
267.641163
 20
39.258835
 30
0.0
 11
277.641163
 21
39.258835
 31
0.0
  0
LINE
  5
110
100
AcDbEntity
  8
Layer_1
 62
7
100
AcDbLine
 10
277.641163
 20
39.258835
 30
0.0
 11
277.641163
 21
34.258840
 31
0.0
  0
LINE
  5
111
100
AcDbEntity
  8
Layer_1
 62
7
100
AcDbLine
 10
277.641163
 20
34.258840
 30
0.0
 11
282.641164
 21
34.258840
 31
0.0
  0
LINE
  5
112
100
AcDbEntity
  8
Layer_1
 62
7
100
AcDbLine
 10
282.641164
 20
34.258840
 30
0.0
 11
282.641164
 21
39.258835
 31
0.0
  0
LINE
  5
113
100
AcDbEntity
  8
Layer_1
 62
7
100
AcDbLine
 10
282.641164
 20
39.258835
 30
0.0
 11
292.641164
 21
39.258835
 31
0.0
  0
LINE
  5
114
100
AcDbEntity
  8
Layer_1
 62
7
100
AcDbLine
 10
292.641164
 20
39.258835
 30
0.0
 11
292.641164
 21
44.258834
 31
0.0
  0
LINE
  5
115
100
AcDbEntity
  8
Layer_1
 62
7
100
AcDbLine
 10
292.641164
 20
44.258834
 30
0.0
 11
297.641164
 21
44.258834
 31
0.0
  0
LINE
  5
116
100
AcDbEntity
  8
Layer_1
 62
7
100
AcDbLine
 10
297.641164
 20
44.258834
 30
0.0
 11
297.641164
 21
0.258823
 31
0.0
  0
LINE
  5
117
100
AcDbEntity
  8
Layer_1
 62
7
100
AcDbLine
 10
297.641164
 20
0.258823
 30
0.0
 11
292.641164
 21
0.258823
 31
0.0
  0
LINE
  5
118
100
AcDbEntity
  8
Layer_1
 62
7
100
AcDbLine
 10
292.641164
 20
0.258823
 30
0.0
 11
292.641164
 21
5.258841
 31
0.0
  0
LINE
  5
119
100
AcDbEntity
  8
Layer_1
 62
7
100
AcDbLine
 10
292.641164
 20
5.258841
 30
0.0
 11
267.641163
 21
5.258841
 31
0.0
  0
LINE
  5
11a
100
AcDbEntity
  8
Layer_1
 62
7
100
AcDbLine
 10
267.641163
 20
5.258841
 30
0.0
 11
267.641163
 21
0.258823
 31
0.0
  0
LINE
  5
11b
100
AcDbEntity
  8
Layer_1
 62
7
100
AcDbLine
 10
267.641163
 20
0.258823
 30
0.0
 11
262.641164
 21
0.258823
 31
0.0
  0
LINE
  5
11c
100
AcDbEntity
  8
Layer_1
 62
7
100
AcDbLine
 10
202.641115
 20
29.858829
 30
0.0
 11
207.641134
 21
29.858829
 31
0.0
  0
LINE
  5
11d
100
AcDbEntity
  8
Layer_1
 62
7
100
AcDbLine
 10
207.641134
 20
29.858829
 30
0.0
 11
207.641134
 21
24.958829
 31
0.0
  0
LINE
  5
11e
100
AcDbEntity
  8
Layer_1
 62
7
100
AcDbLine
 10
207.641134
 20
24.958829
 30
0.0
 11
217.641114
 21
24.958829
 31
0.0
  0
LINE
  5
11f
100
AcDbEntity
  8
Layer_1
 62
7
100
AcDbLine
 10
217.641114
 20
24.958829
 30
0.0
 11
217.641114
 21
29.858829
 31
0.0
  0
LINE
  5
120
100
AcDbEntity
  8
Layer_1
 62
7
100
AcDbLine
 10
217.641114
 20
29.858829
 30
0.0
 11
222.641132
 21
29.858829
 31
0.0
  0
LINE
  5
121
100
AcDbEntity
  8
Layer_1
 62
7
100
AcDbLine
 10
222.641132
 20
29.858829
 30
0.0
 11
222.641132
 21
0.258829
 31
0.0
  0
LINE
  5
122
100
AcDbEntity
  8
Layer_1
 62
7
100
AcDbLine
 10
222.641132
 20
0.258829
 30
0.0
 11
217.641114
 21
0.258829
 31
0.0
  0
LINE
  5
123
100
AcDbEntity
  8
Layer_1
 62
7
100
AcDbLine
 10
217.641114
 20
0.258829
 30
0.0
 11
217.641114
 21
5.158829
 31
0.0
  0
LINE
  5
124
100
AcDbEntity
  8
Layer_1
 62
7
100
AcDbLine
 10
217.641114
 20
5.158829
 30
0.0
 11
207.641134
 21
5.158829
 31
0.0
  0
LINE
  5
125
100
AcDbEntity
  8
Layer_1
 62
7
100
AcDbLine
 10
207.641134
 20
5.158829
 30
0.0
 11
207.641134
 21
0.258829
 31
0.0
  0
LINE
  5
126
100
AcDbEntity
  8
Layer_1
 62
7
100
AcDbLine
 10
207.641134
 20
0.258829
 30
0.0
 11
202.641115
 21
0.258829
 31
0.0
  0
LINE
  5
127
100
AcDbEntity
  8
Layer_1
 62
7
100
AcDbLine
 10
202.641115
 20
0.258829
 30
0.0
 11
202.641115
 21
29.858829
 31
0.0
  0
LINE
  5
128
100
AcDbEntity
  8
Layer_1
 62
7
100
AcDbLine
 10
212.641124
 20
19.058829
 30
0.0
 11
213.142124
 21
19.026829
 31
0.0
  0
LINE
  5
129
100
AcDbEntity
  8
Layer_1
 62
7
100
AcDbLine
 10
213.142124
 20
19.026829
 30
0.0
 11
213.636126
 21
18.932829
 31
0.0
  0
LINE
  5
12a
100
AcDbEntity
  8
Layer_1
 62
7
100
AcDbLine
 10
213.636126
 20
18.932829
 30
0.0
 11
214.113110
 21
18.777829
 31
0.0
  0
LINE
  5
12b
100
AcDbEntity
  8
Layer_1
 62
7
100
AcDbLine
 10
214.113110
 20
18.777829
 30
0.0
 11
214.568109
 21
18.563829
 31
0.0
  0
LINE
  5
12c
100
AcDbEntity
  8
Layer_1
 62
7
100
AcDbLine
 10
214.568109
 20
18.563829
 30
0.0
 11
214.992119
 21
18.294829
 31
0.0
  0
LINE
  5
12d
100
AcDbEntity
  8
Layer_1
 62
7
100
AcDbLine
 10
214.992119
 20
18.294829
 30
0.0
 11
215.379131
 21
17.974829
 31
0.0
  0
LINE
  5
12e
100
AcDbEntity
  8
Layer_1
 62
7
100
AcDbLine
 10
215.379131
 20
17.974829
 30
0.0
 11
215.723131
 21
17.608829
 31
0.0
  0
LINE
  5
12f
100
AcDbEntity
  8
Layer_1
 62
7
100
AcDbLine
 10
215.723131
 20
17.608829
 30
0.0
 11
216.018110
 21
17.201829
 31
0.0
  0
LINE
  5
130
100
AcDbEntity
  8
Layer_1
 62
7
100
AcDbLine
 10
216.018110
 20
17.201829
 30
0.0
 11
216.260116
 21
16.761829
 31
0.0
  0
LINE
  5
131
100
AcDbEntity
  8
Layer_1
 62
7
100
AcDbLine
 10
216.260116
 20
16.761829
 30
0.0
 11
216.445112
 21
16.294829
 31
0.0
  0
LINE
  5
132
100
AcDbEntity
  8
Layer_1
 62
7
100
AcDbLine
 10
216.445112
 20
16.294829
 30
0.0
 11
216.570108
 21
15.808829
 31
0.0
  0
LINE
  5
133
100
AcDbEntity
  8
Layer_1
 62
7
100
AcDbLine
 10
216.570108
 20
15.808829
 30
0.0
 11
216.633129
 21
15.309829
 31
0.0
  0
LINE
  5
134
100
AcDbEntity
  8
Layer_1
 62
7
100
AcDbLine
 10
216.633129
 20
15.309829
 30
0.0
 11
216.633129
 21
14.807829
 31
0.0
  0
LINE
  5
135
100
AcDbEntity
  8
Layer_1
 62
7
100
AcDbLine
 10
216.633129
 20
14.807829
 30
0.0
 11
216.570108
 21
14.308829
 31
0.0
  0
LINE
  5
136
100
AcDbEntity
  8
Layer_1
 62
7
100
AcDbLine
 10
216.570108
 20
14.308829
 30
0.0
 11
216.445112
 21
13.822829
 31
0.0
  0
LINE
  5
137
100
AcDbEntity
  8
Layer_1
 62
7
100
AcDbLine
 10
216.445112
 20
13.822829
 30
0.0
 11
216.260116
 21
13.355829
 31
0.0
  0
LINE
  5
138
100
AcDbEntity
  8
Layer_1
 62
7
100
AcDbLine
 10
216.260116
 20
13.355829
 30
0.0
 11
216.018110
 21
12.915829
 31
0.0
  0
LINE
  5
139
100
AcDbEntity
  8
Layer_1
 62
7
100
AcDbLine
 10
216.018110
 20
12.915829
 30
0.0
 11
215.723131
 21
12.508829
 31
0.0
  0
LINE
  5
13a
100
AcDbEntity
  8
Layer_1
 62
7
100
AcDbLine
 10
215.723131
 20
12.508829
 30
0.0
 11
215.379131
 21
12.142829
 31
0.0
  0
LINE
  5
13b
100
AcDbEntity
  8
Layer_1
 62
7
100
AcDbLine
 10
215.379131
 20
12.142829
 30
0.0
 11
214.992119
 21
11.822829
 31
0.0
  0
LINE
  5
13c
100
AcDbEntity
  8
Layer_1
 62
7
100
AcDbLine
 10
214.992119
 20
11.822829
 30
0.0
 11
214.568109
 21
11.553829
 31
0.0
  0
LINE
  5
13d
100
AcDbEntity
  8
Layer_1
 62
7
100
AcDbLine
 10
214.568109
 20
11.553829
 30
0.0
 11
214.113110
 21
11.339829
 31
0.0
  0
LINE
  5
13e
100
AcDbEntity
  8
Layer_1
 62
7
100
AcDbLine
 10
214.113110
 20
11.339829
 30
0.0
 11
213.636126
 21
11.184829
 31
0.0
  0
LINE
  5
13f
100
AcDbEntity
  8
Layer_1
 62
7
100
AcDbLine
 10
213.636126
 20
11.184829
 30
0.0
 11
213.142124
 21
11.090829
 31
0.0
  0
LINE
  5
140
100
AcDbEntity
  8
Layer_1
 62
7
100
AcDbLine
 10
213.142124
 20
11.090829
 30
0.0
 11
212.641124
 21
11.058829
 31
0.0
  0
LINE
  5
141
100
AcDbEntity
  8
Layer_1
 62
7
100
AcDbLine
 10
212.641124
 20
11.058829
 30
0.0
 11
212.140123
 21
11.090829
 31
0.0
  0
LINE
  5
142
100
AcDbEntity
  8
Layer_1
 62
7
100
AcDbLine
 10
212.140123
 20
11.090829
 30
0.0
 11
211.646121
 21
11.184829
 31
0.0
  0
LINE
  5
143
100
AcDbEntity
  8
Layer_1
 62
7
100
AcDbLine
 10
211.646121
 20
11.184829
 30
0.0
 11
211.169109
 21
11.339829
 31
0.0
  0
LINE
  5
144
100
AcDbEntity
  8
Layer_1
 62
7
100
AcDbLine
 10
211.169109
 20
11.339829
 30
0.0
 11
210.714110
 21
11.553829
 31
0.0
  0
LINE
  5
145
100
AcDbEntity
  8
Layer_1
 62
7
100
AcDbLine
 10
210.714110
 20
11.553829
 30
0.0
 11
210.290128
 21
11.822829
 31
0.0
  0
LINE
  5
146
100
AcDbEntity
  8
Layer_1
 62
7
100
AcDbLine
 10
210.290128
 20
11.822829
 30
0.0
 11
209.903116
 21
12.142829
 31
0.0
  0
LINE
  5
147
100
AcDbEntity
  8
Layer_1
 62
7
100
AcDbLine
 10
209.903116
 20
12.142829
 30
0.0
 11
209.559116
 21
12.508829
 31
0.0
  0
LINE
  5
148
100
AcDbEntity
  8
Layer_1
 62
7
100
AcDbLine
 10
209.559116
 20
12.508829
 30
0.0
 11
209.264109
 21
12.915829
 31
0.0
  0
LINE
  5
149
100
AcDbEntity
  8
Layer_1
 62
7
100
AcDbLine
 10
209.264109
 20
12.915829
 30
0.0
 11
209.022132
 21
13.355829
 31
0.0
  0
LINE
  5
14a
100
AcDbEntity
  8
Layer_1
 62
7
100
AcDbLine
 10
209.022132
 20
13.355829
 30
0.0
 11
208.837135
 21
13.822829
 31
0.0
  0
LINE
  5
14b
100
AcDbEntity
  8
Layer_1
 62
7
100
AcDbLine
 10
208.837135
 20
13.822829
 30
0.0
 11
208.712110
 21
14.308829
 31
0.0
  0
LINE
  5
14c
100
AcDbEntity
  8
Layer_1
 62
7
100
AcDbLine
 10
208.712110
 20
14.308829
 30
0.0
 11
208.649118
 21
14.807829
 31
0.0
  0
LINE
  5
14d
100
AcDbEntity
  8
Layer_1
 62
7
100
AcDbLine
 10
208.649118
 20
14.807829
 30
0.0
 11
208.649118
 21
15.309829
 31
0.0
  0
LINE
  5
14e
100
AcDbEntity
  8
Layer_1
 62
7
100
AcDbLine
 10
208.649118
 20
15.309829
 30
0.0
 11
208.712110
 21
15.808829
 31
0.0
  0
LINE
  5
14f
100
AcDbEntity
  8
Layer_1
 62
7
100
AcDbLine
 10
208.712110
 20
15.808829
 30
0.0
 11
208.837135
 21
16.294829
 31
0.0
  0
LINE
  5
150
100
AcDbEntity
  8
Layer_1
 62
7
100
AcDbLine
 10
208.837135
 20
16.294829
 30
0.0
 11
209.022132
 21
16.761829
 31
0.0
  0
LINE
  5
151
100
AcDbEntity
  8
Layer_1
 62
7
100
AcDbLine
 10
209.022132
 20
16.761829
 30
0.0
 11
209.264109
 21
17.201829
 31
0.0
  0
LINE
  5
152
100
AcDbEntity
  8
Layer_1
 62
7
100
AcDbLine
 10
209.264109
 20
17.201829
 30
0.0
 11
209.559116
 21
17.608829
 31
0.0
  0
LINE
  5
153
100
AcDbEntity
  8
Layer_1
 62
7
100
AcDbLine
 10
209.559116
 20
17.608829
 30
0.0
 11
209.903116
 21
17.974829
 31
0.0
  0
LINE
  5
154
100
AcDbEntity
  8
Layer_1
 62
7
100
AcDbLine
 10
209.903116
 20
17.974829
 30
0.0
 11
210.290128
 21
18.294829
 31
0.0
  0
LINE
  5
155
100
AcDbEntity
  8
Layer_1
 62
7
100
AcDbLine
 10
210.290128
 20
18.294829
 30
0.0
 11
210.714110
 21
18.563829
 31
0.0
  0
LINE
  5
156
100
AcDbEntity
  8
Layer_1
 62
7
100
AcDbLine
 10
210.714110
 20
18.563829
 30
0.0
 11
211.169109
 21
18.777829
 31
0.0
  0
LINE
  5
157
100
AcDbEntity
  8
Layer_1
 62
7
100
AcDbLine
 10
211.169109
 20
18.777829
 30
0.0
 11
211.646121
 21
18.932829
 31
0.0
  0
LINE
  5
158
100
AcDbEntity
  8
Layer_1
 62
7
100
AcDbLine
 10
211.646121
 20
18.932829
 30
0.0
 11
212.140123
 21
19.026829
 31
0.0
  0
LINE
  5
159
100
AcDbEntity
  8
Layer_1
 62
7
100
AcDbLine
 10
212.140123
 20
19.026829
 30
0.0
 11
212.641124
 21
19.058829
 31
0.0
  0
LINE
  5
15a
100
AcDbEntity
  8
Layer_1
 62
7
100
AcDbLine
 10
29.741111
 20
50.141125
 30
0.0
 11
29.741111
 21
45.141135
 31
0.0
  0
LINE
  5
15b
100
AcDbEntity
  8
Layer_1
 62
7
100
AcDbLine
 10
29.741111
 20
45.141135
 30
0.0
 11
24.841111
 21
45.141135
 31
0.0
  0
LINE
  5
15c
100
AcDbEntity
  8
Layer_1
 62
7
100
AcDbLine
 10
24.841111
 20
45.141135
 30
0.0
 11
24.841111
 21
40.141117
 31
0.0
  0
LINE
  5
15d
100
AcDbEntity
  8
Layer_1
 62
7
100
AcDbLine
 10
24.841111
 20
40.141117
 30
0.0
 11
29.741111
 21
40.141117
 31
0.0
  0
LINE
  5
15e
100
AcDbEntity
  8
Layer_1
 62
7
100
AcDbLine
 10
29.741111
 20
40.141117
 30
0.0
 11
29.741111
 21
35.141127
 31
0.0
  0
LINE
  5
15f
100
AcDbEntity
  8
Layer_1
 62
7
100
AcDbLine
 10
29.741111
 20
35.141127
 30
0.0
 11
24.841111
 21
35.141127
 31
0.0
  0
LINE
  5
160
100
AcDbEntity
  8
Layer_1
 62
7
100
AcDbLine
 10
24.841111
 20
35.141127
 30
0.0
 11
24.841111
 21
30.141137
 31
0.0
  0
LINE
  5
161
100
AcDbEntity
  8
Layer_1
 62
7
100
AcDbLine
 10
24.841111
 20
30.141137
 30
0.0
 11
29.741111
 21
30.141137
 31
0.0
  0
LINE
  5
162
100
AcDbEntity
  8
Layer_1
 62
7
100
AcDbLine
 10
29.741111
 20
30.141137
 30
0.0
 11
29.741111
 21
25.141119
 31
0.0
  0
LINE
  5
163
100
AcDbEntity
  8
Layer_1
 62
7
100
AcDbLine
 10
29.741111
 20
25.141119
 30
0.0
 11
24.841111
 21
25.141119
 31
0.0
  0
LINE
  5
164
100
AcDbEntity
  8
Layer_1
 62
7
100
AcDbLine
 10
24.841111
 20
25.141119
 30
0.0
 11
24.841111
 21
20.141129
 31
0.0
  0
LINE
  5
165
100
AcDbEntity
  8
Layer_1
 62
7
100
AcDbLine
 10
24.841111
 20
20.141129
 30
0.0
 11
29.741111
 21
20.141129
 31
0.0
  0
LINE
  5
166
100
AcDbEntity
  8
Layer_1
 62
7
100
AcDbLine
 10
29.741111
 20
20.141129
 30
0.0
 11
29.741111
 21
15.141139
 31
0.0
  0
LINE
  5
167
100
AcDbEntity
  8
Layer_1
 62
7
100
AcDbLine
 10
29.741111
 20
15.141139
 30
0.0
 11
24.841111
 21
15.141139
 31
0.0
  0
LINE
  5
168
100
AcDbEntity
  8
Layer_1
 62
7
100
AcDbLine
 10
24.841111
 20
15.141139
 30
0.0
 11
24.841111
 21
10.141129
 31
0.0
  0
LINE
  5
169
100
AcDbEntity
  8
Layer_1
 62
7
100
AcDbLine
 10
24.841111
 20
10.141129
 30
0.0
 11
29.741111
 21
10.141129
 31
0.0
  0
LINE
  5
16a
100
AcDbEntity
  8
Layer_1
 62
7
100
AcDbLine
 10
29.741111
 20
10.141129
 30
0.0
 11
29.741111
 21
5.141128
 31
0.0
  0
LINE
  5
16b
100
AcDbEntity
  8
Layer_1
 62
7
100
AcDbLine
 10
29.741111
 20
5.141128
 30
0.0
 11
24.841111
 21
5.141128
 31
0.0
  0
LINE
  5
16c
100
AcDbEntity
  8
Layer_1
 62
7
100
AcDbLine
 10
24.841111
 20
5.141128
 30
0.0
 11
24.841111
 21
0.141129
 31
0.0
  0
LINE
  5
16d
100
AcDbEntity
  8
Layer_1
 62
7
100
AcDbLine
 10
24.841111
 20
0.141129
 30
0.0
 11
5.041111
 21
0.141129
 31
0.0
  0
LINE
  5
16e
100
AcDbEntity
  8
Layer_1
 62
7
100
AcDbLine
 10
5.041111
 20
0.141129
 30
0.0
 11
5.041111
 21
5.141128
 31
0.0
  0
LINE
  5
16f
100
AcDbEntity
  8
Layer_1
 62
7
100
AcDbLine
 10
5.041111
 20
5.141128
 30
0.0
 11
0.141111
 21
5.141128
 31
0.0
  0
LINE
  5
170
100
AcDbEntity
  8
Layer_1
 62
7
100
AcDbLine
 10
0.141111
 20
5.141128
 30
0.0
 11
0.141111
 21
10.141129
 31
0.0
  0
LINE
  5
171
100
AcDbEntity
  8
Layer_1
 62
7
100
AcDbLine
 10
0.141111
 20
10.141129
 30
0.0
 11
5.041111
 21
10.141129
 31
0.0
  0
LINE
  5
172
100
AcDbEntity
  8
Layer_1
 62
7
100
AcDbLine
 10
5.041111
 20
10.141129
 30
0.0
 11
5.041111
 21
15.141139
 31
0.0
  0
LINE
  5
173
100
AcDbEntity
  8
Layer_1
 62
7
100
AcDbLine
 10
5.041111
 20
15.141139
 30
0.0
 11
0.141111
 21
15.141139
 31
0.0
  0
LINE
  5
174
100
AcDbEntity
  8
Layer_1
 62
7
100
AcDbLine
 10
0.141111
 20
15.141139
 30
0.0
 11
0.141111
 21
20.141129
 31
0.0
  0
LINE
  5
175
100
AcDbEntity
  8
Layer_1
 62
7
100
AcDbLine
 10
0.141111
 20
20.141129
 30
0.0
 11
5.041111
 21
20.141129
 31
0.0
  0
LINE
  5
176
100
AcDbEntity
  8
Layer_1
 62
7
100
AcDbLine
 10
5.041111
 20
20.141129
 30
0.0
 11
5.041111
 21
25.141119
 31
0.0
  0
LINE
  5
177
100
AcDbEntity
  8
Layer_1
 62
7
100
AcDbLine
 10
5.041111
 20
25.141119
 30
0.0
 11
0.141111
 21
25.141119
 31
0.0
  0
LINE
  5
178
100
AcDbEntity
  8
Layer_1
 62
7
100
AcDbLine
 10
0.141111
 20
25.141119
 30
0.0
 11
0.141111
 21
30.141137
 31
0.0
  0
LINE
  5
179
100
AcDbEntity
  8
Layer_1
 62
7
100
AcDbLine
 10
0.141111
 20
30.141137
 30
0.0
 11
5.041111
 21
30.141137
 31
0.0
  0
LINE
  5
17a
100
AcDbEntity
  8
Layer_1
 62
7
100
AcDbLine
 10
5.041111
 20
30.141137
 30
0.0
 11
5.041111
 21
35.141127
 31
0.0
  0
LINE
  5
17b
100
AcDbEntity
  8
Layer_1
 62
7
100
AcDbLine
 10
5.041111
 20
35.141127
 30
0.0
 11
0.141111
 21
35.141127
 31
0.0
  0
LINE
  5
17c
100
AcDbEntity
  8
Layer_1
 62
7
100
AcDbLine
 10
0.141111
 20
35.141127
 30
0.0
 11
0.141111
 21
40.141117
 31
0.0
  0
LINE
  5
17d
100
AcDbEntity
  8
Layer_1
 62
7
100
AcDbLine
 10
0.141111
 20
40.141117
 30
0.0
 11
5.041111
 21
40.141117
 31
0.0
  0
LINE
  5
17e
100
AcDbEntity
  8
Layer_1
 62
7
100
AcDbLine
 10
5.041111
 20
40.141117
 30
0.0
 11
5.041111
 21
45.141135
 31
0.0
  0
LINE
  5
17f
100
AcDbEntity
  8
Layer_1
 62
7
100
AcDbLine
 10
5.041111
 20
45.141135
 30
0.0
 11
0.141111
 21
45.141135
 31
0.0
  0
LINE
  5
180
100
AcDbEntity
  8
Layer_1
 62
7
100
AcDbLine
 10
0.141111
 20
45.141135
 30
0.0
 11
0.141111
 21
50.141125
 31
0.0
  0
LINE
  5
181
100
AcDbEntity
  8
Layer_1
 62
7
100
AcDbLine
 10
0.141111
 20
50.141125
 30
0.0
 11
5.041111
 21
50.141125
 31
0.0
  0
LINE
  5
182
100
AcDbEntity
  8
Layer_1
 62
7
100
AcDbLine
 10
5.041111
 20
50.141125
 30
0.0
 11
5.041111
 21
55.141144
 31
0.0
  0
LINE
  5
183
100
AcDbEntity
  8
Layer_1
 62
7
100
AcDbLine
 10
5.041111
 20
55.141144
 30
0.0
 11
24.841111
 21
55.141144
 31
0.0
  0
LINE
  5
184
100
AcDbEntity
  8
Layer_1
 62
7
100
AcDbLine
 10
24.841111
 20
55.141144
 30
0.0
 11
24.841111
 21
50.141125
 31
0.0
  0
LINE
  5
185
100
AcDbEntity
  8
Layer_1
 62
7
100
AcDbLine
 10
24.841111
 20
50.141125
 30
0.0
 11
29.741111
 21
50.141125
 31
0.0
  0
LINE
  5
186
100
AcDbEntity
  8
Layer_1
 62
7
100
AcDbLine
 10
54.441111
 20
55.141115
 30
0.0
 11
54.441111
 21
50.141125
 31
0.0
  0
LINE
  5
187
100
AcDbEntity
  8
Layer_1
 62
7
100
AcDbLine
 10
54.441111
 20
50.141125
 30
0.0
 11
49.541111
 21
50.141125
 31
0.0
  0
LINE
  5
188
100
AcDbEntity
  8
Layer_1
 62
7
100
AcDbLine
 10
49.541111
 20
50.141125
 30
0.0
 11
49.541111
 21
45.141107
 31
0.0
  0
LINE
  5
189
100
AcDbEntity
  8
Layer_1
 62
7
100
AcDbLine
 10
49.541111
 20
45.141107
 30
0.0
 11
54.441111
 21
45.141107
 31
0.0
  0
LINE
  5
18a
100
AcDbEntity
  8
Layer_1
 62
7
100
AcDbLine
 10
54.441111
 20
45.141107
 30
0.0
 11
54.441111
 21
40.141117
 31
0.0
  0
LINE
  5
18b
100
AcDbEntity
  8
Layer_1
 62
7
100
AcDbLine
 10
54.441111
 20
40.141117
 30
0.0
 11
49.541111
 21
40.141117
 31
0.0
  0
LINE
  5
18c
100
AcDbEntity
  8
Layer_1
 62
7
100
AcDbLine
 10
49.541111
 20
40.141117
 30
0.0
 11
49.541111
 21
35.141127
 31
0.0
  0
LINE
  5
18d
100
AcDbEntity
  8
Layer_1
 62
7
100
AcDbLine
 10
49.541111
 20
35.141127
 30
0.0
 11
54.441111
 21
35.141127
 31
0.0
  0
LINE
  5
18e
100
AcDbEntity
  8
Layer_1
 62
7
100
AcDbLine
 10
54.441111
 20
35.141127
 30
0.0
 11
54.441111
 21
30.141109
 31
0.0
  0
LINE
  5
18f
100
AcDbEntity
  8
Layer_1
 62
7
100
AcDbLine
 10
54.441111
 20
30.141109
 30
0.0
 11
49.541111
 21
30.141109
 31
0.0
  0
LINE
  5
190
100
AcDbEntity
  8
Layer_1
 62
7
100
AcDbLine
 10
49.541111
 20
30.141109
 30
0.0
 11
49.541111
 21
25.141119
 31
0.0
  0
LINE
  5
191
100
AcDbEntity
  8
Layer_1
 62
7
100
AcDbLine
 10
49.541111
 20
25.141119
 30
0.0
 11
54.441111
 21
25.141119
 31
0.0
  0
LINE
  5
192
100
AcDbEntity
  8
Layer_1
 62
7
100
AcDbLine
 10
54.441111
 20
25.141119
 30
0.0
 11
54.441111
 21
20.141129
 31
0.0
  0
LINE
  5
193
100
AcDbEntity
  8
Layer_1
 62
7
100
AcDbLine
 10
54.441111
 20
20.141129
 30
0.0
 11
49.541111
 21
20.141129
 31
0.0
  0
LINE
  5
194
100
AcDbEntity
  8
Layer_1
 62
7
100
AcDbLine
 10
49.541111
 20
20.141129
 30
0.0
 11
49.541111
 21
15.141119
 31
0.0
  0
LINE
  5
195
100
AcDbEntity
  8
Layer_1
 62
7
100
AcDbLine
 10
49.541111
 20
15.141119
 30
0.0
 11
54.441111
 21
15.141119
 31
0.0
  0
LINE
  5
196
100
AcDbEntity
  8
Layer_1
 62
7
100
AcDbLine
 10
54.441111
 20
15.141119
 30
0.0
 11
54.441111
 21
10.141118
 31
0.0
  0
LINE
  5
197
100
AcDbEntity
  8
Layer_1
 62
7
100
AcDbLine
 10
54.441111
 20
10.141118
 30
0.0
 11
49.541111
 21
10.141118
 31
0.0
  0
LINE
  5
198
100
AcDbEntity
  8
Layer_1
 62
7
100
AcDbLine
 10
49.541111
 20
10.141118
 30
0.0
 11
49.541111
 21
5.141119
 31
0.0
  0
LINE
  5
199
100
AcDbEntity
  8
Layer_1
 62
7
100
AcDbLine
 10
49.541111
 20
5.141119
 30
0.0
 11
29.741111
 21
5.141119
 31
0.0
  0
LINE
  5
19a
100
AcDbEntity
  8
Layer_1
 62
7
100
AcDbLine
 10
29.741111
 20
5.141119
 30
0.0
 11
29.741111
 21
10.141118
 31
0.0
  0
LINE
  5
19b
100
AcDbEntity
  8
Layer_1
 62
7
100
AcDbLine
 10
29.741111
 20
10.141118
 30
0.0
 11
24.841111
 21
10.141118
 31
0.0
  0
LINE
  5
19c
100
AcDbEntity
  8
Layer_1
 62
7
100
AcDbLine
 10
24.841111
 20
10.141118
 30
0.0
 11
24.841111
 21
15.141119
 31
0.0
  0
LINE
  5
19d
100
AcDbEntity
  8
Layer_1
 62
7
100
AcDbLine
 10
24.841111
 20
15.141119
 30
0.0
 11
29.741111
 21
15.141119
 31
0.0
  0
LINE
  5
19e
100
AcDbEntity
  8
Layer_1
 62
7
100
AcDbLine
 10
29.741111
 20
15.141119
 30
0.0
 11
29.741111
 21
20.141129
 31
0.0
  0
LINE
  5
19f
100
AcDbEntity
  8
Layer_1
 62
7
100
AcDbLine
 10
29.741111
 20
20.141129
 30
0.0
 11
24.841111
 21
20.141129
 31
0.0
  0
LINE
  5
1a0
100
AcDbEntity
  8
Layer_1
 62
7
100
AcDbLine
 10
24.841111
 20
20.141129
 30
0.0
 11
24.841111
 21
25.141119
 31
0.0
  0
LINE
  5
1a1
100
AcDbEntity
  8
Layer_1
 62
7
100
AcDbLine
 10
24.841111
 20
25.141119
 30
0.0
 11
29.741111
 21
25.141119
 31
0.0
  0
LINE
  5
1a2
100
AcDbEntity
  8
Layer_1
 62
7
100
AcDbLine
 10
29.741111
 20
25.141119
 30
0.0
 11
29.741111
 21
30.141109
 31
0.0
  0
LINE
  5
1a3
100
AcDbEntity
  8
Layer_1
 62
7
100
AcDbLine
 10
29.741111
 20
30.141109
 30
0.0
 11
24.841111
 21
30.141109
 31
0.0
  0
LINE
  5
1a4
100
AcDbEntity
  8
Layer_1
 62
7
100
AcDbLine
 10
24.841111
 20
30.141109
 30
0.0
 11
24.841111
 21
35.141127
 31
0.0
  0
LINE
  5
1a5
100
AcDbEntity
  8
Layer_1
 62
7
100
AcDbLine
 10
24.841111
 20
35.141127
 30
0.0
 11
29.741111
 21
35.141127
 31
0.0
  0
LINE
  5
1a6
100
AcDbEntity
  8
Layer_1
 62
7
100
AcDbLine
 10
29.741111
 20
35.141127
 30
0.0
 11
29.741111
 21
40.141117
 31
0.0
  0
LINE
  5
1a7
100
AcDbEntity
  8
Layer_1
 62
7
100
AcDbLine
 10
29.741111
 20
40.141117
 30
0.0
 11
24.841111
 21
40.141117
 31
0.0
  0
LINE
  5
1a8
100
AcDbEntity
  8
Layer_1
 62
7
100
AcDbLine
 10
24.841111
 20
40.141117
 30
0.0
 11
24.841111
 21
45.141107
 31
0.0
  0
LINE
  5
1a9
100
AcDbEntity
  8
Layer_1
 62
7
100
AcDbLine
 10
24.841111
 20
45.141107
 30
0.0
 11
29.741111
 21
45.141107
 31
0.0
  0
LINE
  5
1aa
100
AcDbEntity
  8
Layer_1
 62
7
100
AcDbLine
 10
29.741111
 20
45.141107
 30
0.0
 11
29.741111
 21
50.141125
 31
0.0
  0
LINE
  5
1ab
100
AcDbEntity
  8
Layer_1
 62
7
100
AcDbLine
 10
29.741111
 20
50.141125
 30
0.0
 11
24.841111
 21
50.141125
 31
0.0
  0
LINE
  5
1ac
100
AcDbEntity
  8
Layer_1
 62
7
100
AcDbLine
 10
24.841111
 20
50.141125
 30
0.0
 11
24.841111
 21
55.141115
 31
0.0
  0
LINE
  5
1ad
100
AcDbEntity
  8
Layer_1
 62
7
100
AcDbLine
 10
24.841111
 20
55.141115
 30
0.0
 11
29.741111
 21
55.141115
 31
0.0
  0
LINE
  5
1ae
100
AcDbEntity
  8
Layer_1
 62
7
100
AcDbLine
 10
29.741111
 20
55.141115
 30
0.0
 11
29.741111
 21
60.141134
 31
0.0
  0
LINE
  5
1af
100
AcDbEntity
  8
Layer_1
 62
7
100
AcDbLine
 10
29.741111
 20
60.141134
 30
0.0
 11
49.541111
 21
60.141134
 31
0.0
  0
LINE
  5
1b0
100
AcDbEntity
  8
Layer_1
 62
7
100
AcDbLine
 10
49.541111
 20
60.141134
 30
0.0
 11
49.541111
 21
55.141115
 31
0.0
  0
LINE
  5
1b1
100
AcDbEntity
  8
Layer_1
 62
7
100
AcDbLine
 10
49.541111
 20
55.141115
 30
0.0
 11
54.441111
 21
55.141115
 31
0.0
  0
LINE
  5
1b2
100
AcDbEntity
  8
Layer_1
 62
7
100
AcDbLine
 10
79.141113
 20
50.141097
 30
0.0
 11
79.141113
 21
45.141107
 31
0.0
  0
LINE
  5
1b3
100
AcDbEntity
  8
Layer_1
 62
7
100
AcDbLine
 10
79.141113
 20
45.141107
 30
0.0
 11
74.241112
 21
45.141107
 31
0.0
  0
LINE
  5
1b4
100
AcDbEntity
  8
Layer_1
 62
7
100
AcDbLine
 10
74.241112
 20
45.141107
 30
0.0
 11
74.241112
 21
40.141089
 31
0.0
  0
LINE
  5
1b5
100
AcDbEntity
  8
Layer_1
 62
7
100
AcDbLine
 10
74.241112
 20
40.141089
 30
0.0
 11
79.141113
 21
40.141089
 31
0.0
  0
LINE
  5
1b6
100
AcDbEntity
  8
Layer_1
 62
7
100
AcDbLine
 10
79.141113
 20
40.141089
 30
0.0
 11
79.141113
 21
35.141099
 31
0.0
  0
LINE
  5
1b7
100
AcDbEntity
  8
Layer_1
 62
7
100
AcDbLine
 10
79.141113
 20
35.141099
 30
0.0
 11
74.241112
 21
35.141099
 31
0.0
  0
LINE
  5
1b8
100
AcDbEntity
  8
Layer_1
 62
7
100
AcDbLine
 10
74.241112
 20
35.141099
 30
0.0
 11
74.241112
 21
30.141109
 31
0.0
  0
LINE
  5
1b9
100
AcDbEntity
  8
Layer_1
 62
7
100
AcDbLine
 10
74.241112
 20
30.141109
 30
0.0
 11
79.141113
 21
30.141109
 31
0.0
  0
LINE
  5
1ba
100
AcDbEntity
  8
Layer_1
 62
7
100
AcDbLine
 10
79.141113
 20
30.141109
 30
0.0
 11
79.141113
 21
25.141091
 31
0.0
  0
LINE
  5
1bb
100
AcDbEntity
  8
Layer_1
 62
7
100
AcDbLine
 10
79.141113
 20
25.141091
 30
0.0
 11
74.241112
 21
25.141091
 31
0.0
  0
LINE
  5
1bc
100
AcDbEntity
  8
Layer_1
 62
7
100
AcDbLine
 10
74.241112
 20
25.141091
 30
0.0
 11
74.241112
 21
20.141101
 31
0.0
  0
LINE
  5
1bd
100
AcDbEntity
  8
Layer_1
 62
7
100
AcDbLine
 10
74.241112
 20
20.141101
 30
0.0
 11
79.141113
 21
20.141101
 31
0.0
  0
LINE
  5
1be
100
AcDbEntity
  8
Layer_1
 62
7
100
AcDbLine
 10
79.141113
 20
20.141101
 30
0.0
 11
79.141113
 21
15.141111
 31
0.0
  0
LINE
  5
1bf
100
AcDbEntity
  8
Layer_1
 62
7
100
AcDbLine
 10
79.141113
 20
15.141111
 30
0.0
 11
74.241112
 21
15.141111
 31
0.0
  0
LINE
  5
1c0
100
AcDbEntity
  8
Layer_1
 62
7
100
AcDbLine
 10
74.241112
 20
15.141111
 30
0.0
 11
74.241112
 21
10.141101
 31
0.0
  0
LINE
  5
1c1
100
AcDbEntity
  8
Layer_1
 62
7
100
AcDbLine
 10
74.241112
 20
10.141101
 30
0.0
 11
79.141113
 21
10.141101
 31
0.0
  0
LINE
  5
1c2
100
AcDbEntity
  8
Layer_1
 62
7
100
AcDbLine
 10
79.141113
 20
10.141101
 30
0.0
 11
79.141113
 21
5.141100
 31
0.0
  0
LINE
  5
1c3
100
AcDbEntity
  8
Layer_1
 62
7
100
AcDbLine
 10
79.141113
 20
5.141100
 30
0.0
 11
74.241112
 21
5.141100
 31
0.0
  0
LINE
  5
1c4
100
AcDbEntity
  8
Layer_1
 62
7
100
AcDbLine
 10
74.241112
 20
5.141100
 30
0.0
 11
74.241112
 21
0.141101
 31
0.0
  0
LINE
  5
1c5
100
AcDbEntity
  8
Layer_1
 62
7
100
AcDbLine
 10
74.241112
 20
0.141101
 30
0.0
 11
54.441113
 21
0.141101
 31
0.0
  0
LINE
  5
1c6
100
AcDbEntity
  8
Layer_1
 62
7
100
AcDbLine
 10
54.441113
 20
0.141101
 30
0.0
 11
54.441113
 21
5.141100
 31
0.0
  0
LINE
  5
1c7
100
AcDbEntity
  8
Layer_1
 62
7
100
AcDbLine
 10
54.441113
 20
5.141100
 30
0.0
 11
49.541112
 21
5.141100
 31
0.0
  0
LINE
  5
1c8
100
AcDbEntity
  8
Layer_1
 62
7
100
AcDbLine
 10
49.541112
 20
5.141100
 30
0.0
 11
49.541112
 21
10.141101
 31
0.0
  0
LINE
  5
1c9
100
AcDbEntity
  8
Layer_1
 62
7
100
AcDbLine
 10
49.541112
 20
10.141101
 30
0.0
 11
54.441113
 21
10.141101
 31
0.0
  0
LINE
  5
1ca
100
AcDbEntity
  8
Layer_1
 62
7
100
AcDbLine
 10
54.441113
 20
10.141101
 30
0.0
 11
54.441113
 21
15.141111
 31
0.0
  0
LINE
  5
1cb
100
AcDbEntity
  8
Layer_1
 62
7
100
AcDbLine
 10
54.441113
 20
15.141111
 30
0.0
 11
49.541112
 21
15.141111
 31
0.0
  0
LINE
  5
1cc
100
AcDbEntity
  8
Layer_1
 62
7
100
AcDbLine
 10
49.541112
 20
15.141111
 30
0.0
 11
49.541112
 21
20.141101
 31
0.0
  0
LINE
  5
1cd
100
AcDbEntity
  8
Layer_1
 62
7
100
AcDbLine
 10
49.541112
 20
20.141101
 30
0.0
 11
54.441113
 21
20.141101
 31
0.0
  0
LINE
  5
1ce
100
AcDbEntity
  8
Layer_1
 62
7
100
AcDbLine
 10
54.441113
 20
20.141101
 30
0.0
 11
54.441113
 21
25.141091
 31
0.0
  0
LINE
  5
1cf
100
AcDbEntity
  8
Layer_1
 62
7
100
AcDbLine
 10
54.441113
 20
25.141091
 30
0.0
 11
49.541112
 21
25.141091
 31
0.0
  0
LINE
  5
1d0
100
AcDbEntity
  8
Layer_1
 62
7
100
AcDbLine
 10
49.541112
 20
25.141091
 30
0.0
 11
49.541112
 21
30.141109
 31
0.0
  0
LINE
  5
1d1
100
AcDbEntity
  8
Layer_1
 62
7
100
AcDbLine
 10
49.541112
 20
30.141109
 30
0.0
 11
54.441113
 21
30.141109
 31
0.0
  0
LINE
  5
1d2
100
AcDbEntity
  8
Layer_1
 62
7
100
AcDbLine
 10
54.441113
 20
30.141109
 30
0.0
 11
54.441113
 21
35.141099
 31
0.0
  0
LINE
  5
1d3
100
AcDbEntity
  8
Layer_1
 62
7
100
AcDbLine
 10
54.441113
 20
35.141099
 30
0.0
 11
49.541112
 21
35.141099
 31
0.0
  0
LINE
  5
1d4
100
AcDbEntity
  8
Layer_1
 62
7
100
AcDbLine
 10
49.541112
 20
35.141099
 30
0.0
 11
49.541112
 21
40.141089
 31
0.0
  0
LINE
  5
1d5
100
AcDbEntity
  8
Layer_1
 62
7
100
AcDbLine
 10
49.541112
 20
40.141089
 30
0.0
 11
54.441113
 21
40.141089
 31
0.0
  0
LINE
  5
1d6
100
AcDbEntity
  8
Layer_1
 62
7
100
AcDbLine
 10
54.441113
 20
40.141089
 30
0.0
 11
54.441113
 21
45.141107
 31
0.0
  0
LINE
  5
1d7
100
AcDbEntity
  8
Layer_1
 62
7
100
AcDbLine
 10
54.441113
 20
45.141107
 30
0.0
 11
49.541112
 21
45.141107
 31
0.0
  0
LINE
  5
1d8
100
AcDbEntity
  8
Layer_1
 62
7
100
AcDbLine
 10
49.541112
 20
45.141107
 30
0.0
 11
49.541112
 21
50.141097
 31
0.0
  0
LINE
  5
1d9
100
AcDbEntity
  8
Layer_1
 62
7
100
AcDbLine
 10
49.541112
 20
50.141097
 30
0.0
 11
54.441113
 21
50.141097
 31
0.0
  0
LINE
  5
1da
100
AcDbEntity
  8
Layer_1
 62
7
100
AcDbLine
 10
54.441113
 20
50.141097
 30
0.0
 11
54.441113
 21
55.141115
 31
0.0
  0
LINE
  5
1db
100
AcDbEntity
  8
Layer_1
 62
7
100
AcDbLine
 10
54.441113
 20
55.141115
 30
0.0
 11
74.241112
 21
55.141115
 31
0.0
  0
LINE
  5
1dc
100
AcDbEntity
  8
Layer_1
 62
7
100
AcDbLine
 10
74.241112
 20
55.141115
 30
0.0
 11
74.241112
 21
50.141097
 31
0.0
  0
LINE
  5
1dd
100
AcDbEntity
  8
Layer_1
 62
7
100
AcDbLine
 10
74.241112
 20
50.141097
 30
0.0
 11
79.141113
 21
50.141097
 31
0.0
  0
LINE
  5
1de
100
AcDbEntity
  8
Layer_1
 62
7
100
AcDbLine
 10
103.841111
 20
55.141087
 30
0.0
 11
103.841111
 21
50.141097
 31
0.0
  0
LINE
  5
1df
100
AcDbEntity
  8
Layer_1
 62
7
100
AcDbLine
 10
103.841111
 20
50.141097
 30
0.0
 11
98.941111
 21
50.141097
 31
0.0
  0
LINE
  5
1e0
100
AcDbEntity
  8
Layer_1
 62
7
100
AcDbLine
 10
98.941111
 20
50.141097
 30
0.0
 11
98.941111
 21
45.141079
 31
0.0
  0
LINE
  5
1e1
100
AcDbEntity
  8
Layer_1
 62
7
100
AcDbLine
 10
98.941111
 20
45.141079
 30
0.0
 11
103.841111
 21
45.141079
 31
0.0
  0
LINE
  5
1e2
100
AcDbEntity
  8
Layer_1
 62
7
100
AcDbLine
 10
103.841111
 20
45.141079
 30
0.0
 11
103.841111
 21
40.141089
 31
0.0
  0
LINE
  5
1e3
100
AcDbEntity
  8
Layer_1
 62
7
100
AcDbLine
 10
103.841111
 20
40.141089
 30
0.0
 11
98.941111
 21
40.141089
 31
0.0
  0
LINE
  5
1e4
100
AcDbEntity
  8
Layer_1
 62
7
100
AcDbLine
 10
98.941111
 20
40.141089
 30
0.0
 11
98.941111
 21
35.141099
 31
0.0
  0
LINE
  5
1e5
100
AcDbEntity
  8
Layer_1
 62
7
100
AcDbLine
 10
98.941111
 20
35.141099
 30
0.0
 11
103.841111
 21
35.141099
 31
0.0
  0
LINE
  5
1e6
100
AcDbEntity
  8
Layer_1
 62
7
100
AcDbLine
 10
103.841111
 20
35.141099
 30
0.0
 11
103.841111
 21
30.141081
 31
0.0
  0
LINE
  5
1e7
100
AcDbEntity
  8
Layer_1
 62
7
100
AcDbLine
 10
103.841111
 20
30.141081
 30
0.0
 11
98.941111
 21
30.141081
 31
0.0
  0
LINE
  5
1e8
100
AcDbEntity
  8
Layer_1
 62
7
100
AcDbLine
 10
98.941111
 20
30.141081
 30
0.0
 11
98.941111
 21
25.141091
 31
0.0
  0
LINE
  5
1e9
100
AcDbEntity
  8
Layer_1
 62
7
100
AcDbLine
 10
98.941111
 20
25.141091
 30
0.0
 11
103.841111
 21
25.141091
 31
0.0
  0
LINE
  5
1ea
100
AcDbEntity
  8
Layer_1
 62
7
100
AcDbLine
 10
103.841111
 20
25.141091
 30
0.0
 11
103.841111
 21
20.141101
 31
0.0
  0
LINE
  5
1eb
100
AcDbEntity
  8
Layer_1
 62
7
100
AcDbLine
 10
103.841111
 20
20.141101
 30
0.0
 11
98.941111
 21
20.141101
 31
0.0
  0
LINE
  5
1ec
100
AcDbEntity
  8
Layer_1
 62
7
100
AcDbLine
 10
98.941111
 20
20.141101
 30
0.0
 11
98.941111
 21
15.141091
 31
0.0
  0
LINE
  5
1ed
100
AcDbEntity
  8
Layer_1
 62
7
100
AcDbLine
 10
98.941111
 20
15.141091
 30
0.0
 11
103.841111
 21
15.141091
 31
0.0
  0
LINE
  5
1ee
100
AcDbEntity
  8
Layer_1
 62
7
100
AcDbLine
 10
103.841111
 20
15.141091
 30
0.0
 11
103.841111
 21
10.141090
 31
0.0
  0
LINE
  5
1ef
100
AcDbEntity
  8
Layer_1
 62
7
100
AcDbLine
 10
103.841111
 20
10.141090
 30
0.0
 11
98.941111
 21
10.141090
 31
0.0
  0
LINE
  5
1f0
100
AcDbEntity
  8
Layer_1
 62
7
100
AcDbLine
 10
98.941111
 20
10.141090
 30
0.0
 11
98.941111
 21
5.141091
 31
0.0
  0
LINE
  5
1f1
100
AcDbEntity
  8
Layer_1
 62
7
100
AcDbLine
 10
98.941111
 20
5.141091
 30
0.0
 11
79.141111
 21
5.141091
 31
0.0
  0
LINE
  5
1f2
100
AcDbEntity
  8
Layer_1
 62
7
100
AcDbLine
 10
79.141111
 20
5.141091
 30
0.0
 11
79.141111
 21
10.141090
 31
0.0
  0
LINE
  5
1f3
100
AcDbEntity
  8
Layer_1
 62
7
100
AcDbLine
 10
79.141111
 20
10.141090
 30
0.0
 11
74.241111
 21
10.141090
 31
0.0
  0
LINE
  5
1f4
100
AcDbEntity
  8
Layer_1
 62
7
100
AcDbLine
 10
74.241111
 20
10.141090
 30
0.0
 11
74.241111
 21
15.141091
 31
0.0
  0
LINE
  5
1f5
100
AcDbEntity
  8
Layer_1
 62
7
100
AcDbLine
 10
74.241111
 20
15.141091
 30
0.0
 11
79.141111
 21
15.141091
 31
0.0
  0
LINE
  5
1f6
100
AcDbEntity
  8
Layer_1
 62
7
100
AcDbLine
 10
79.141111
 20
15.141091
 30
0.0
 11
79.141111
 21
20.141101
 31
0.0
  0
LINE
  5
1f7
100
AcDbEntity
  8
Layer_1
 62
7
100
AcDbLine
 10
79.141111
 20
20.141101
 30
0.0
 11
74.241111
 21
20.141101
 31
0.0
  0
LINE
  5
1f8
100
AcDbEntity
  8
Layer_1
 62
7
100
AcDbLine
 10
74.241111
 20
20.141101
 30
0.0
 11
74.241111
 21
25.141091
 31
0.0
  0
LINE
  5
1f9
100
AcDbEntity
  8
Layer_1
 62
7
100
AcDbLine
 10
74.241111
 20
25.141091
 30
0.0
 11
79.141111
 21
25.141091
 31
0.0
  0
LINE
  5
1fa
100
AcDbEntity
  8
Layer_1
 62
7
100
AcDbLine
 10
79.141111
 20
25.141091
 30
0.0
 11
79.141111
 21
30.141081
 31
0.0
  0
LINE
  5
1fb
100
AcDbEntity
  8
Layer_1
 62
7
100
AcDbLine
 10
79.141111
 20
30.141081
 30
0.0
 11
74.241111
 21
30.141081
 31
0.0
  0
LINE
  5
1fc
100
AcDbEntity
  8
Layer_1
 62
7
100
AcDbLine
 10
74.241111
 20
30.141081
 30
0.0
 11
74.241111
 21
35.141099
 31
0.0
  0
LINE
  5
1fd
100
AcDbEntity
  8
Layer_1
 62
7
100
AcDbLine
 10
74.241111
 20
35.141099
 30
0.0
 11
79.141111
 21
35.141099
 31
0.0
  0
LINE
  5
1fe
100
AcDbEntity
  8
Layer_1
 62
7
100
AcDbLine
 10
79.141111
 20
35.141099
 30
0.0
 11
79.141111
 21
40.141089
 31
0.0
  0
LINE
  5
1ff
100
AcDbEntity
  8
Layer_1
 62
7
100
AcDbLine
 10
79.141111
 20
40.141089
 30
0.0
 11
74.241111
 21
40.141089
 31
0.0
  0
LINE
  5
200
100
AcDbEntity
  8
Layer_1
 62
7
100
AcDbLine
 10
74.241111
 20
40.141089
 30
0.0
 11
74.241111
 21
45.141079
 31
0.0
  0
LINE
  5
201
100
AcDbEntity
  8
Layer_1
 62
7
100
AcDbLine
 10
74.241111
 20
45.141079
 30
0.0
 11
79.141111
 21
45.141079
 31
0.0
  0
LINE
  5
202
100
AcDbEntity
  8
Layer_1
 62
7
100
AcDbLine
 10
79.141111
 20
45.141079
 30
0.0
 11
79.141111
 21
50.141097
 31
0.0
  0
LINE
  5
203
100
AcDbEntity
  8
Layer_1
 62
7
100
AcDbLine
 10
79.141111
 20
50.141097
 30
0.0
 11
74.241111
 21
50.141097
 31
0.0
  0
LINE
  5
204
100
AcDbEntity
  8
Layer_1
 62
7
100
AcDbLine
 10
74.241111
 20
50.141097
 30
0.0
 11
74.241111
 21
55.141087
 31
0.0
  0
LINE
  5
205
100
AcDbEntity
  8
Layer_1
 62
7
100
AcDbLine
 10
74.241111
 20
55.141087
 30
0.0
 11
79.141111
 21
55.141087
 31
0.0
  0
LINE
  5
206
100
AcDbEntity
  8
Layer_1
 62
7
100
AcDbLine
 10
79.141111
 20
55.141087
 30
0.0
 11
79.141111
 21
60.141105
 31
0.0
  0
LINE
  5
207
100
AcDbEntity
  8
Layer_1
 62
7
100
AcDbLine
 10
79.141111
 20
60.141105
 30
0.0
 11
98.941111
 21
60.141105
 31
0.0
  0
LINE
  5
208
100
AcDbEntity
  8
Layer_1
 62
7
100
AcDbLine
 10
98.941111
 20
60.141105
 30
0.0
 11
98.941111
 21
55.141087
 31
0.0
  0
LINE
  5
209
100
AcDbEntity
  8
Layer_1
 62
7
100
AcDbLine
 10
98.941111
 20
55.141087
 30
0.0
 11
103.841111
 21
55.141087
 31
0.0
  0
LINE
  5
20a
100
AcDbEntity
  8
Layer_1
 62
7
100
AcDbLine
 10
128.541110
 20
50.141097
 30
0.0
 11
128.541110
 21
45.141107
 31
0.0
  0
LINE
  5
20b
100
AcDbEntity
  8
Layer_1
 62
7
100
AcDbLine
 10
128.541110
 20
45.141107
 30
0.0
 11
123.641110
 21
45.141107
 31
0.0
  0
LINE
  5
20c
100
AcDbEntity
  8
Layer_1
 62
7
100
AcDbLine
 10
123.641110
 20
45.141107
 30
0.0
 11
123.641110
 21
40.141089
 31
0.0
  0
LINE
  5
20d
100
AcDbEntity
  8
Layer_1
 62
7
100
AcDbLine
 10
123.641110
 20
40.141089
 30
0.0
 11
128.541110
 21
40.141089
 31
0.0
  0
LINE
  5
20e
100
AcDbEntity
  8
Layer_1
 62
7
100
AcDbLine
 10
128.541110
 20
40.141089
 30
0.0
 11
128.541110
 21
35.141099
 31
0.0
  0
LINE
  5
20f
100
AcDbEntity
  8
Layer_1
 62
7
100
AcDbLine
 10
128.541110
 20
35.141099
 30
0.0
 11
123.641110
 21
35.141099
 31
0.0
  0
LINE
  5
210
100
AcDbEntity
  8
Layer_1
 62
7
100
AcDbLine
 10
123.641110
 20
35.141099
 30
0.0
 11
123.641110
 21
30.141109
 31
0.0
  0
LINE
  5
211
100
AcDbEntity
  8
Layer_1
 62
7
100
AcDbLine
 10
123.641110
 20
30.141109
 30
0.0
 11
128.541110
 21
30.141109
 31
0.0
  0
LINE
  5
212
100
AcDbEntity
  8
Layer_1
 62
7
100
AcDbLine
 10
128.541110
 20
30.141109
 30
0.0
 11
128.541110
 21
25.141091
 31
0.0
  0
LINE
  5
213
100
AcDbEntity
  8
Layer_1
 62
7
100
AcDbLine
 10
128.541110
 20
25.141091
 30
0.0
 11
123.641110
 21
25.141091
 31
0.0
  0
LINE
  5
214
100
AcDbEntity
  8
Layer_1
 62
7
100
AcDbLine
 10
123.641110
 20
25.141091
 30
0.0
 11
123.641110
 21
20.141101
 31
0.0
  0
LINE
  5
215
100
AcDbEntity
  8
Layer_1
 62
7
100
AcDbLine
 10
123.641110
 20
20.141101
 30
0.0
 11
128.541110
 21
20.141101
 31
0.0
  0
LINE
  5
216
100
AcDbEntity
  8
Layer_1
 62
7
100
AcDbLine
 10
128.541110
 20
20.141101
 30
0.0
 11
128.541110
 21
15.141111
 31
0.0
  0
LINE
  5
217
100
AcDbEntity
  8
Layer_1
 62
7
100
AcDbLine
 10
128.541110
 20
15.141111
 30
0.0
 11
123.641110
 21
15.141111
 31
0.0
  0
LINE
  5
218
100
AcDbEntity
  8
Layer_1
 62
7
100
AcDbLine
 10
123.641110
 20
15.141111
 30
0.0
 11
123.641110
 21
10.141101
 31
0.0
  0
LINE
  5
219
100
AcDbEntity
  8
Layer_1
 62
7
100
AcDbLine
 10
123.641110
 20
10.141101
 30
0.0
 11
128.541110
 21
10.141101
 31
0.0
  0
LINE
  5
21a
100
AcDbEntity
  8
Layer_1
 62
7
100
AcDbLine
 10
128.541110
 20
10.141101
 30
0.0
 11
128.541110
 21
5.141100
 31
0.0
  0
LINE
  5
21b
100
AcDbEntity
  8
Layer_1
 62
7
100
AcDbLine
 10
128.541110
 20
5.141100
 30
0.0
 11
123.641110
 21
5.141100
 31
0.0
  0
LINE
  5
21c
100
AcDbEntity
  8
Layer_1
 62
7
100
AcDbLine
 10
123.641110
 20
5.141100
 30
0.0
 11
123.641110
 21
0.141101
 31
0.0
  0
LINE
  5
21d
100
AcDbEntity
  8
Layer_1
 62
7
100
AcDbLine
 10
123.641110
 20
0.141101
 30
0.0
 11
103.841110
 21
0.141101
 31
0.0
  0
LINE
  5
21e
100
AcDbEntity
  8
Layer_1
 62
7
100
AcDbLine
 10
103.841110
 20
0.141101
 30
0.0
 11
103.841110
 21
5.141100
 31
0.0
  0
LINE
  5
21f
100
AcDbEntity
  8
Layer_1
 62
7
100
AcDbLine
 10
103.841110
 20
5.141100
 30
0.0
 11
98.941110
 21
5.141100
 31
0.0
  0
LINE
  5
220
100
AcDbEntity
  8
Layer_1
 62
7
100
AcDbLine
 10
98.941110
 20
5.141100
 30
0.0
 11
98.941110
 21
10.141101
 31
0.0
  0
LINE
  5
221
100
AcDbEntity
  8
Layer_1
 62
7
100
AcDbLine
 10
98.941110
 20
10.141101
 30
0.0
 11
103.841110
 21
10.141101
 31
0.0
  0
LINE
  5
222
100
AcDbEntity
  8
Layer_1
 62
7
100
AcDbLine
 10
103.841110
 20
10.141101
 30
0.0
 11
103.841110
 21
15.141111
 31
0.0
  0
LINE
  5
223
100
AcDbEntity
  8
Layer_1
 62
7
100
AcDbLine
 10
103.841110
 20
15.141111
 30
0.0
 11
98.941110
 21
15.141111
 31
0.0
  0
LINE
  5
224
100
AcDbEntity
  8
Layer_1
 62
7
100
AcDbLine
 10
98.941110
 20
15.141111
 30
0.0
 11
98.941110
 21
20.141101
 31
0.0
  0
LINE
  5
225
100
AcDbEntity
  8
Layer_1
 62
7
100
AcDbLine
 10
98.941110
 20
20.141101
 30
0.0
 11
103.841110
 21
20.141101
 31
0.0
  0
LINE
  5
226
100
AcDbEntity
  8
Layer_1
 62
7
100
AcDbLine
 10
103.841110
 20
20.141101
 30
0.0
 11
103.841110
 21
25.141091
 31
0.0
  0
LINE
  5
227
100
AcDbEntity
  8
Layer_1
 62
7
100
AcDbLine
 10
103.841110
 20
25.141091
 30
0.0
 11
98.941110
 21
25.141091
 31
0.0
  0
LINE
  5
228
100
AcDbEntity
  8
Layer_1
 62
7
100
AcDbLine
 10
98.941110
 20
25.141091
 30
0.0
 11
98.941110
 21
30.141109
 31
0.0
  0
LINE
  5
229
100
AcDbEntity
  8
Layer_1
 62
7
100
AcDbLine
 10
98.941110
 20
30.141109
 30
0.0
 11
103.841110
 21
30.141109
 31
0.0
  0
LINE
  5
22a
100
AcDbEntity
  8
Layer_1
 62
7
100
AcDbLine
 10
103.841110
 20
30.141109
 30
0.0
 11
103.841110
 21
35.141099
 31
0.0
  0
LINE
  5
22b
100
AcDbEntity
  8
Layer_1
 62
7
100
AcDbLine
 10
103.841110
 20
35.141099
 30
0.0
 11
98.941110
 21
35.141099
 31
0.0
  0
LINE
  5
22c
100
AcDbEntity
  8
Layer_1
 62
7
100
AcDbLine
 10
98.941110
 20
35.141099
 30
0.0
 11
98.941110
 21
40.141089
 31
0.0
  0
LINE
  5
22d
100
AcDbEntity
  8
Layer_1
 62
7
100
AcDbLine
 10
98.941110
 20
40.141089
 30
0.0
 11
103.841110
 21
40.141089
 31
0.0
  0
LINE
  5
22e
100
AcDbEntity
  8
Layer_1
 62
7
100
AcDbLine
 10
103.841110
 20
40.141089
 30
0.0
 11
103.841110
 21
45.141107
 31
0.0
  0
LINE
  5
22f
100
AcDbEntity
  8
Layer_1
 62
7
100
AcDbLine
 10
103.841110
 20
45.141107
 30
0.0
 11
98.941110
 21
45.141107
 31
0.0
  0
LINE
  5
230
100
AcDbEntity
  8
Layer_1
 62
7
100
AcDbLine
 10
98.941110
 20
45.141107
 30
0.0
 11
98.941110
 21
50.141097
 31
0.0
  0
LINE
  5
231
100
AcDbEntity
  8
Layer_1
 62
7
100
AcDbLine
 10
98.941110
 20
50.141097
 30
0.0
 11
103.841110
 21
50.141097
 31
0.0
  0
LINE
  5
232
100
AcDbEntity
  8
Layer_1
 62
7
100
AcDbLine
 10
103.841110
 20
50.141097
 30
0.0
 11
103.841110
 21
55.141115
 31
0.0
  0
LINE
  5
233
100
AcDbEntity
  8
Layer_1
 62
7
100
AcDbLine
 10
103.841110
 20
55.141115
 30
0.0
 11
123.641110
 21
55.141115
 31
0.0
  0
LINE
  5
234
100
AcDbEntity
  8
Layer_1
 62
7
100
AcDbLine
 10
123.641110
 20
55.141115
 30
0.0
 11
123.641110
 21
50.141097
 31
0.0
  0
LINE
  5
235
100
AcDbEntity
  8
Layer_1
 62
7
100
AcDbLine
 10
123.641110
 20
50.141097
 30
0.0
 11
128.541110
 21
50.141097
 31
0.0
  0
LINE
  5
236
100
AcDbEntity
  8
Layer_1
 62
7
100
AcDbLine
 10
153.241108
 20
55.141087
 30
0.0
 11
153.241108
 21
50.141097
 31
0.0
  0
LINE
  5
237
100
AcDbEntity
  8
Layer_1
 62
7
100
AcDbLine
 10
153.241108
 20
50.141097
 30
0.0
 11
148.341108
 21
50.141097
 31
0.0
  0
LINE
  5
238
100
AcDbEntity
  8
Layer_1
 62
7
100
AcDbLine
 10
148.341108
 20
50.141097
 30
0.0
 11
148.341108
 21
45.141079
 31
0.0
  0
LINE
  5
239
100
AcDbEntity
  8
Layer_1
 62
7
100
AcDbLine
 10
148.341108
 20
45.141079
 30
0.0
 11
153.241108
 21
45.141079
 31
0.0
  0
LINE
  5
23a
100
AcDbEntity
  8
Layer_1
 62
7
100
AcDbLine
 10
153.241108
 20
45.141079
 30
0.0
 11
153.241108
 21
40.141089
 31
0.0
  0
LINE
  5
23b
100
AcDbEntity
  8
Layer_1
 62
7
100
AcDbLine
 10
153.241108
 20
40.141089
 30
0.0
 11
148.341108
 21
40.141089
 31
0.0
  0
LINE
  5
23c
100
AcDbEntity
  8
Layer_1
 62
7
100
AcDbLine
 10
148.341108
 20
40.141089
 30
0.0
 11
148.341108
 21
35.141099
 31
0.0
  0
LINE
  5
23d
100
AcDbEntity
  8
Layer_1
 62
7
100
AcDbLine
 10
148.341108
 20
35.141099
 30
0.0
 11
153.241108
 21
35.141099
 31
0.0
  0
LINE
  5
23e
100
AcDbEntity
  8
Layer_1
 62
7
100
AcDbLine
 10
153.241108
 20
35.141099
 30
0.0
 11
153.241108
 21
30.141081
 31
0.0
  0
LINE
  5
23f
100
AcDbEntity
  8
Layer_1
 62
7
100
AcDbLine
 10
153.241108
 20
30.141081
 30
0.0
 11
148.341108
 21
30.141081
 31
0.0
  0
LINE
  5
240
100
AcDbEntity
  8
Layer_1
 62
7
100
AcDbLine
 10
148.341108
 20
30.141081
 30
0.0
 11
148.341108
 21
25.141091
 31
0.0
  0
LINE
  5
241
100
AcDbEntity
  8
Layer_1
 62
7
100
AcDbLine
 10
148.341108
 20
25.141091
 30
0.0
 11
153.241108
 21
25.141091
 31
0.0
  0
LINE
  5
242
100
AcDbEntity
  8
Layer_1
 62
7
100
AcDbLine
 10
153.241108
 20
25.141091
 30
0.0
 11
153.241108
 21
20.141101
 31
0.0
  0
LINE
  5
243
100
AcDbEntity
  8
Layer_1
 62
7
100
AcDbLine
 10
153.241108
 20
20.141101
 30
0.0
 11
148.341108
 21
20.141101
 31
0.0
  0
LINE
  5
244
100
AcDbEntity
  8
Layer_1
 62
7
100
AcDbLine
 10
148.341108
 20
20.141101
 30
0.0
 11
148.341108
 21
15.141091
 31
0.0
  0
LINE
  5
245
100
AcDbEntity
  8
Layer_1
 62
7
100
AcDbLine
 10
148.341108
 20
15.141091
 30
0.0
 11
153.241108
 21
15.141091
 31
0.0
  0
LINE
  5
246
100
AcDbEntity
  8
Layer_1
 62
7
100
AcDbLine
 10
153.241108
 20
15.141091
 30
0.0
 11
153.241108
 21
10.141090
 31
0.0
  0
LINE
  5
247
100
AcDbEntity
  8
Layer_1
 62
7
100
AcDbLine
 10
153.241108
 20
10.141090
 30
0.0
 11
148.341108
 21
10.141090
 31
0.0
  0
LINE
  5
248
100
AcDbEntity
  8
Layer_1
 62
7
100
AcDbLine
 10
148.341108
 20
10.141090
 30
0.0
 11
148.341108
 21
5.141091
 31
0.0
  0
LINE
  5
249
100
AcDbEntity
  8
Layer_1
 62
7
100
AcDbLine
 10
148.341108
 20
5.141091
 30
0.0
 11
128.541108
 21
5.141091
 31
0.0
  0
LINE
  5
24a
100
AcDbEntity
  8
Layer_1
 62
7
100
AcDbLine
 10
128.541108
 20
5.141091
 30
0.0
 11
128.541108
 21
10.141090
 31
0.0
  0
LINE
  5
24b
100
AcDbEntity
  8
Layer_1
 62
7
100
AcDbLine
 10
128.541108
 20
10.141090
 30
0.0
 11
123.641108
 21
10.141090
 31
0.0
  0
LINE
  5
24c
100
AcDbEntity
  8
Layer_1
 62
7
100
AcDbLine
 10
123.641108
 20
10.141090
 30
0.0
 11
123.641108
 21
15.141091
 31
0.0
  0
LINE
  5
24d
100
AcDbEntity
  8
Layer_1
 62
7
100
AcDbLine
 10
123.641108
 20
15.141091
 30
0.0
 11
128.541108
 21
15.141091
 31
0.0
  0
LINE
  5
24e
100
AcDbEntity
  8
Layer_1
 62
7
100
AcDbLine
 10
128.541108
 20
15.141091
 30
0.0
 11
128.541108
 21
20.141101
 31
0.0
  0
LINE
  5
24f
100
AcDbEntity
  8
Layer_1
 62
7
100
AcDbLine
 10
128.541108
 20
20.141101
 30
0.0
 11
123.641108
 21
20.141101
 31
0.0
  0
LINE
  5
250
100
AcDbEntity
  8
Layer_1
 62
7
100
AcDbLine
 10
123.641108
 20
20.141101
 30
0.0
 11
123.641108
 21
25.141091
 31
0.0
  0
LINE
  5
251
100
AcDbEntity
  8
Layer_1
 62
7
100
AcDbLine
 10
123.641108
 20
25.141091
 30
0.0
 11
128.541108
 21
25.141091
 31
0.0
  0
LINE
  5
252
100
AcDbEntity
  8
Layer_1
 62
7
100
AcDbLine
 10
128.541108
 20
25.141091
 30
0.0
 11
128.541108
 21
30.141081
 31
0.0
  0
LINE
  5
253
100
AcDbEntity
  8
Layer_1
 62
7
100
AcDbLine
 10
128.541108
 20
30.141081
 30
0.0
 11
123.641108
 21
30.141081
 31
0.0
  0
LINE
  5
254
100
AcDbEntity
  8
Layer_1
 62
7
100
AcDbLine
 10
123.641108
 20
30.141081
 30
0.0
 11
123.641108
 21
35.141099
 31
0.0
  0
LINE
  5
255
100
AcDbEntity
  8
Layer_1
 62
7
100
AcDbLine
 10
123.641108
 20
35.141099
 30
0.0
 11
128.541108
 21
35.141099
 31
0.0
  0
LINE
  5
256
100
AcDbEntity
  8
Layer_1
 62
7
100
AcDbLine
 10
128.541108
 20
35.141099
 30
0.0
 11
128.541108
 21
40.141089
 31
0.0
  0
LINE
  5
257
100
AcDbEntity
  8
Layer_1
 62
7
100
AcDbLine
 10
128.541108
 20
40.141089
 30
0.0
 11
123.641108
 21
40.141089
 31
0.0
  0
LINE
  5
258
100
AcDbEntity
  8
Layer_1
 62
7
100
AcDbLine
 10
123.641108
 20
40.141089
 30
0.0
 11
123.641108
 21
45.141079
 31
0.0
  0
LINE
  5
259
100
AcDbEntity
  8
Layer_1
 62
7
100
AcDbLine
 10
123.641108
 20
45.141079
 30
0.0
 11
128.541108
 21
45.141079
 31
0.0
  0
LINE
  5
25a
100
AcDbEntity
  8
Layer_1
 62
7
100
AcDbLine
 10
128.541108
 20
45.141079
 30
0.0
 11
128.541108
 21
50.141097
 31
0.0
  0
LINE
  5
25b
100
AcDbEntity
  8
Layer_1
 62
7
100
AcDbLine
 10
128.541108
 20
50.141097
 30
0.0
 11
123.641108
 21
50.141097
 31
0.0
  0
LINE
  5
25c
100
AcDbEntity
  8
Layer_1
 62
7
100
AcDbLine
 10
123.641108
 20
50.141097
 30
0.0
 11
123.641108
 21
55.141087
 31
0.0
  0
LINE
  5
25d
100
AcDbEntity
  8
Layer_1
 62
7
100
AcDbLine
 10
123.641108
 20
55.141087
 30
0.0
 11
128.541108
 21
55.141087
 31
0.0
  0
LINE
  5
25e
100
AcDbEntity
  8
Layer_1
 62
7
100
AcDbLine
 10
128.541108
 20
55.141087
 30
0.0
 11
128.541108
 21
60.141105
 31
0.0
  0
LINE
  5
25f
100
AcDbEntity
  8
Layer_1
 62
7
100
AcDbLine
 10
128.541108
 20
60.141105
 30
0.0
 11
148.341108
 21
60.141105
 31
0.0
  0
LINE
  5
260
100
AcDbEntity
  8
Layer_1
 62
7
100
AcDbLine
 10
148.341108
 20
60.141105
 30
0.0
 11
148.341108
 21
55.141087
 31
0.0
  0
LINE
  5
261
100
AcDbEntity
  8
Layer_1
 62
7
100
AcDbLine
 10
148.341108
 20
55.141087
 30
0.0
 11
153.241108
 21
55.141087
 31
0.0
  0
LINE
  5
262
100
AcDbEntity
  8
Layer_1
 62
7
100
AcDbLine
 10
177.941113
 20
50.141069
 30
0.0
 11
177.941113
 21
45.141079
 31
0.0
  0
LINE
  5
263
100
AcDbEntity
  8
Layer_1
 62
7
100
AcDbLine
 10
177.941113
 20
45.141079
 30
0.0
 11
173.041112
 21
45.141079
 31
0.0
  0
LINE
  5
264
100
AcDbEntity
  8
Layer_1
 62
7
100
AcDbLine
 10
173.041112
 20
45.141079
 30
0.0
 11
173.041112
 21
40.141061
 31
0.0
  0
LINE
  5
265
100
AcDbEntity
  8
Layer_1
 62
7
100
AcDbLine
 10
173.041112
 20
40.141061
 30
0.0
 11
177.941113
 21
40.141061
 31
0.0
  0
LINE
  5
266
100
AcDbEntity
  8
Layer_1
 62
7
100
AcDbLine
 10
177.941113
 20
40.141061
 30
0.0
 11
177.941113
 21
35.141071
 31
0.0
  0
LINE
  5
267
100
AcDbEntity
  8
Layer_1
 62
7
100
AcDbLine
 10
177.941113
 20
35.141071
 30
0.0
 11
173.041112
 21
35.141071
 31
0.0
  0
LINE
  5
268
100
AcDbEntity
  8
Layer_1
 62
7
100
AcDbLine
 10
173.041112
 20
35.141071
 30
0.0
 11
173.041112
 21
30.141081
 31
0.0
  0
LINE
  5
269
100
AcDbEntity
  8
Layer_1
 62
7
100
AcDbLine
 10
173.041112
 20
30.141081
 30
0.0
 11
177.941113
 21
30.141081
 31
0.0
  0
LINE
  5
26a
100
AcDbEntity
  8
Layer_1
 62
7
100
AcDbLine
 10
177.941113
 20
30.141081
 30
0.0
 11
177.941113
 21
25.141062
 31
0.0
  0
LINE
  5
26b
100
AcDbEntity
  8
Layer_1
 62
7
100
AcDbLine
 10
177.941113
 20
25.141062
 30
0.0
 11
173.041112
 21
25.141062
 31
0.0
  0
LINE
  5
26c
100
AcDbEntity
  8
Layer_1
 62
7
100
AcDbLine
 10
173.041112
 20
25.141062
 30
0.0
 11
173.041112
 21
20.141072
 31
0.0
  0
LINE
  5
26d
100
AcDbEntity
  8
Layer_1
 62
7
100
AcDbLine
 10
173.041112
 20
20.141072
 30
0.0
 11
177.941113
 21
20.141072
 31
0.0
  0
LINE
  5
26e
100
AcDbEntity
  8
Layer_1
 62
7
100
AcDbLine
 10
177.941113
 20
20.141072
 30
0.0
 11
177.941113
 21
15.141082
 31
0.0
  0
LINE
  5
26f
100
AcDbEntity
  8
Layer_1
 62
7
100
AcDbLine
 10
177.941113
 20
15.141082
 30
0.0
 11
173.041112
 21
15.141082
 31
0.0
  0
LINE
  5
270
100
AcDbEntity
  8
Layer_1
 62
7
100
AcDbLine
 10
173.041112
 20
15.141082
 30
0.0
 11
173.041112
 21
10.141073
 31
0.0
  0
LINE
  5
271
100
AcDbEntity
  8
Layer_1
 62
7
100
AcDbLine
 10
173.041112
 20
10.141073
 30
0.0
 11
177.941113
 21
10.141073
 31
0.0
  0
LINE
  5
272
100
AcDbEntity
  8
Layer_1
 62
7
100
AcDbLine
 10
177.941113
 20
10.141073
 30
0.0
 11
177.941113
 21
5.141071
 31
0.0
  0
LINE
  5
273
100
AcDbEntity
  8
Layer_1
 62
7
100
AcDbLine
 10
177.941113
 20
5.141071
 30
0.0
 11
173.041112
 21
5.141071
 31
0.0
  0
LINE
  5
274
100
AcDbEntity
  8
Layer_1
 62
7
100
AcDbLine
 10
173.041112
 20
5.141071
 30
0.0
 11
173.041112
 21
0.141073
 31
0.0
  0
LINE
  5
275
100
AcDbEntity
  8
Layer_1
 62
7
100
AcDbLine
 10
173.041112
 20
0.141073
 30
0.0
 11
153.241113
 21
0.141073
 31
0.0
  0
LINE
  5
276
100
AcDbEntity
  8
Layer_1
 62
7
100
AcDbLine
 10
153.241113
 20
0.141073
 30
0.0
 11
153.241113
 21
5.141071
 31
0.0
  0
LINE
  5
277
100
AcDbEntity
  8
Layer_1
 62
7
100
AcDbLine
 10
153.241113
 20
5.141071
 30
0.0
 11
148.341112
 21
5.141071
 31
0.0
  0
LINE
  5
278
100
AcDbEntity
  8
Layer_1
 62
7
100
AcDbLine
 10
148.341112
 20
5.141071
 30
0.0
 11
148.341112
 21
10.141073
 31
0.0
  0
LINE
  5
279
100
AcDbEntity
  8
Layer_1
 62
7
100
AcDbLine
 10
148.341112
 20
10.141073
 30
0.0
 11
153.241113
 21
10.141073
 31
0.0
  0
LINE
  5
27a
100
AcDbEntity
  8
Layer_1
 62
7
100
AcDbLine
 10
153.241113
 20
10.141073
 30
0.0
 11
153.241113
 21
15.141082
 31
0.0
  0
LINE
  5
27b
100
AcDbEntity
  8
Layer_1
 62
7
100
AcDbLine
 10
153.241113
 20
15.141082
 30
0.0
 11
148.341112
 21
15.141082
 31
0.0
  0
LINE
  5
27c
100
AcDbEntity
  8
Layer_1
 62
7
100
AcDbLine
 10
148.341112
 20
15.141082
 30
0.0
 11
148.341112
 21
20.141072
 31
0.0
  0
LINE
  5
27d
100
AcDbEntity
  8
Layer_1
 62
7
100
AcDbLine
 10
148.341112
 20
20.141072
 30
0.0
 11
153.241113
 21
20.141072
 31
0.0
  0
LINE
  5
27e
100
AcDbEntity
  8
Layer_1
 62
7
100
AcDbLine
 10
153.241113
 20
20.141072
 30
0.0
 11
153.241113
 21
25.141062
 31
0.0
  0
LINE
  5
27f
100
AcDbEntity
  8
Layer_1
 62
7
100
AcDbLine
 10
153.241113
 20
25.141062
 30
0.0
 11
148.341112
 21
25.141062
 31
0.0
  0
LINE
  5
280
100
AcDbEntity
  8
Layer_1
 62
7
100
AcDbLine
 10
148.341112
 20
25.141062
 30
0.0
 11
148.341112
 21
30.141081
 31
0.0
  0
LINE
  5
281
100
AcDbEntity
  8
Layer_1
 62
7
100
AcDbLine
 10
148.341112
 20
30.141081
 30
0.0
 11
153.241113
 21
30.141081
 31
0.0
  0
LINE
  5
282
100
AcDbEntity
  8
Layer_1
 62
7
100
AcDbLine
 10
153.241113
 20
30.141081
 30
0.0
 11
153.241113
 21
35.141071
 31
0.0
  0
LINE
  5
283
100
AcDbEntity
  8
Layer_1
 62
7
100
AcDbLine
 10
153.241113
 20
35.141071
 30
0.0
 11
148.341112
 21
35.141071
 31
0.0
  0
LINE
  5
284
100
AcDbEntity
  8
Layer_1
 62
7
100
AcDbLine
 10
148.341112
 20
35.141071
 30
0.0
 11
148.341112
 21
40.141061
 31
0.0
  0
LINE
  5
285
100
AcDbEntity
  8
Layer_1
 62
7
100
AcDbLine
 10
148.341112
 20
40.141061
 30
0.0
 11
153.241113
 21
40.141061
 31
0.0
  0
LINE
  5
286
100
AcDbEntity
  8
Layer_1
 62
7
100
AcDbLine
 10
153.241113
 20
40.141061
 30
0.0
 11
153.241113
 21
45.141079
 31
0.0
  0
LINE
  5
287
100
AcDbEntity
  8
Layer_1
 62
7
100
AcDbLine
 10
153.241113
 20
45.141079
 30
0.0
 11
148.341112
 21
45.141079
 31
0.0
  0
LINE
  5
288
100
AcDbEntity
  8
Layer_1
 62
7
100
AcDbLine
 10
148.341112
 20
45.141079
 30
0.0
 11
148.341112
 21
50.141069
 31
0.0
  0
LINE
  5
289
100
AcDbEntity
  8
Layer_1
 62
7
100
AcDbLine
 10
148.341112
 20
50.141069
 30
0.0
 11
153.241113
 21
50.141069
 31
0.0
  0
LINE
  5
28a
100
AcDbEntity
  8
Layer_1
 62
7
100
AcDbLine
 10
153.241113
 20
50.141069
 30
0.0
 11
153.241113
 21
55.141087
 31
0.0
  0
LINE
  5
28b
100
AcDbEntity
  8
Layer_1
 62
7
100
AcDbLine
 10
153.241113
 20
55.141087
 30
0.0
 11
173.041112
 21
55.141087
 31
0.0
  0
LINE
  5
28c
100
AcDbEntity
  8
Layer_1
 62
7
100
AcDbLine
 10
173.041112
 20
55.141087
 30
0.0
 11
173.041112
 21
50.141069
 31
0.0
  0
LINE
  5
28d
100
AcDbEntity
  8
Layer_1
 62
7
100
AcDbLine
 10
173.041112
 20
50.141069
 30
0.0
 11
177.941113
 21
50.141069
 31
0.0
  0
LINE
  5
28e
100
AcDbEntity
  8
Layer_1
 62
7
100
AcDbLine
 10
202.641111
 20
55.141059
 30
0.0
 11
202.641111
 21
50.141069
 31
0.0
  0
LINE
  5
28f
100
AcDbEntity
  8
Layer_1
 62
7
100
AcDbLine
 10
202.641111
 20
50.141069
 30
0.0
 11
197.741111
 21
50.141069
 31
0.0
  0
LINE
  5
290
100
AcDbEntity
  8
Layer_1
 62
7
100
AcDbLine
 10
197.741111
 20
50.141069
 30
0.0
 11
197.741111
 21
45.141051
 31
0.0
  0
LINE
  5
291
100
AcDbEntity
  8
Layer_1
 62
7
100
AcDbLine
 10
197.741111
 20
45.141051
 30
0.0
 11
202.641111
 21
45.141051
 31
0.0
  0
LINE
  5
292
100
AcDbEntity
  8
Layer_1
 62
7
100
AcDbLine
 10
202.641111
 20
45.141051
 30
0.0
 11
202.641111
 21
40.141061
 31
0.0
  0
LINE
  5
293
100
AcDbEntity
  8
Layer_1
 62
7
100
AcDbLine
 10
202.641111
 20
40.141061
 30
0.0
 11
197.741111
 21
40.141061
 31
0.0
  0
LINE
  5
294
100
AcDbEntity
  8
Layer_1
 62
7
100
AcDbLine
 10
197.741111
 20
40.141061
 30
0.0
 11
197.741111
 21
35.141071
 31
0.0
  0
LINE
  5
295
100
AcDbEntity
  8
Layer_1
 62
7
100
AcDbLine
 10
197.741111
 20
35.141071
 30
0.0
 11
202.641111
 21
35.141071
 31
0.0
  0
LINE
  5
296
100
AcDbEntity
  8
Layer_1
 62
7
100
AcDbLine
 10
202.641111
 20
35.141071
 30
0.0
 11
202.641111
 21
30.141052
 31
0.0
  0
LINE
  5
297
100
AcDbEntity
  8
Layer_1
 62
7
100
AcDbLine
 10
202.641111
 20
30.141052
 30
0.0
 11
197.741111
 21
30.141052
 31
0.0
  0
LINE
  5
298
100
AcDbEntity
  8
Layer_1
 62
7
100
AcDbLine
 10
197.741111
 20
30.141052
 30
0.0
 11
197.741111
 21
25.141062
 31
0.0
  0
LINE
  5
299
100
AcDbEntity
  8
Layer_1
 62
7
100
AcDbLine
 10
197.741111
 20
25.141062
 30
0.0
 11
202.641111
 21
25.141062
 31
0.0
  0
LINE
  5
29a
100
AcDbEntity
  8
Layer_1
 62
7
100
AcDbLine
 10
202.641111
 20
25.141062
 30
0.0
 11
202.641111
 21
20.141072
 31
0.0
  0
LINE
  5
29b
100
AcDbEntity
  8
Layer_1
 62
7
100
AcDbLine
 10
202.641111
 20
20.141072
 30
0.0
 11
197.741111
 21
20.141072
 31
0.0
  0
LINE
  5
29c
100
AcDbEntity
  8
Layer_1
 62
7
100
AcDbLine
 10
197.741111
 20
20.141072
 30
0.0
 11
197.741111
 21
15.141063
 31
0.0
  0
LINE
  5
29d
100
AcDbEntity
  8
Layer_1
 62
7
100
AcDbLine
 10
197.741111
 20
15.141063
 30
0.0
 11
202.641111
 21
15.141063
 31
0.0
  0
LINE
  5
29e
100
AcDbEntity
  8
Layer_1
 62
7
100
AcDbLine
 10
202.641111
 20
15.141063
 30
0.0
 11
202.641111
 21
10.141061
 31
0.0
  0
LINE
  5
29f
100
AcDbEntity
  8
Layer_1
 62
7
100
AcDbLine
 10
202.641111
 20
10.141061
 30
0.0
 11
197.741111
 21
10.141061
 31
0.0
  0
LINE
  5
2a0
100
AcDbEntity
  8
Layer_1
 62
7
100
AcDbLine
 10
197.741111
 20
10.141061
 30
0.0
 11
197.741111
 21
5.141063
 31
0.0
  0
LINE
  5
2a1
100
AcDbEntity
  8
Layer_1
 62
7
100
AcDbLine
 10
197.741111
 20
5.141063
 30
0.0
 11
177.941111
 21
5.141063
 31
0.0
  0
LINE
  5
2a2
100
AcDbEntity
  8
Layer_1
 62
7
100
AcDbLine
 10
177.941111
 20
5.141063
 30
0.0
 11
177.941111
 21
10.141061
 31
0.0
  0
LINE
  5
2a3
100
AcDbEntity
  8
Layer_1
 62
7
100
AcDbLine
 10
177.941111
 20
10.141061
 30
0.0
 11
173.041111
 21
10.141061
 31
0.0
  0
LINE
  5
2a4
100
AcDbEntity
  8
Layer_1
 62
7
100
AcDbLine
 10
173.041111
 20
10.141061
 30
0.0
 11
173.041111
 21
15.141063
 31
0.0
  0
LINE
  5
2a5
100
AcDbEntity
  8
Layer_1
 62
7
100
AcDbLine
 10
173.041111
 20
15.141063
 30
0.0
 11
177.941111
 21
15.141063
 31
0.0
  0
LINE
  5
2a6
100
AcDbEntity
  8
Layer_1
 62
7
100
AcDbLine
 10
177.941111
 20
15.141063
 30
0.0
 11
177.941111
 21
20.141072
 31
0.0
  0
LINE
  5
2a7
100
AcDbEntity
  8
Layer_1
 62
7
100
AcDbLine
 10
177.941111
 20
20.141072
 30
0.0
 11
173.041111
 21
20.141072
 31
0.0
  0
LINE
  5
2a8
100
AcDbEntity
  8
Layer_1
 62
7
100
AcDbLine
 10
173.041111
 20
20.141072
 30
0.0
 11
173.041111
 21
25.141062
 31
0.0
  0
LINE
  5
2a9
100
AcDbEntity
  8
Layer_1
 62
7
100
AcDbLine
 10
173.041111
 20
25.141062
 30
0.0
 11
177.941111
 21
25.141062
 31
0.0
  0
LINE
  5
2aa
100
AcDbEntity
  8
Layer_1
 62
7
100
AcDbLine
 10
177.941111
 20
25.141062
 30
0.0
 11
177.941111
 21
30.141052
 31
0.0
  0
LINE
  5
2ab
100
AcDbEntity
  8
Layer_1
 62
7
100
AcDbLine
 10
177.941111
 20
30.141052
 30
0.0
 11
173.041111
 21
30.141052
 31
0.0
  0
LINE
  5
2ac
100
AcDbEntity
  8
Layer_1
 62
7
100
AcDbLine
 10
173.041111
 20
30.141052
 30
0.0
 11
173.041111
 21
35.141071
 31
0.0
  0
LINE
  5
2ad
100
AcDbEntity
  8
Layer_1
 62
7
100
AcDbLine
 10
173.041111
 20
35.141071
 30
0.0
 11
177.941111
 21
35.141071
 31
0.0
  0
LINE
  5
2ae
100
AcDbEntity
  8
Layer_1
 62
7
100
AcDbLine
 10
177.941111
 20
35.141071
 30
0.0
 11
177.941111
 21
40.141061
 31
0.0
  0
LINE
  5
2af
100
AcDbEntity
  8
Layer_1
 62
7
100
AcDbLine
 10
177.941111
 20
40.141061
 30
0.0
 11
173.041111
 21
40.141061
 31
0.0
  0
LINE
  5
2b0
100
AcDbEntity
  8
Layer_1
 62
7
100
AcDbLine
 10
173.041111
 20
40.141061
 30
0.0
 11
173.041111
 21
45.141051
 31
0.0
  0
LINE
  5
2b1
100
AcDbEntity
  8
Layer_1
 62
7
100
AcDbLine
 10
173.041111
 20
45.141051
 30
0.0
 11
177.941111
 21
45.141051
 31
0.0
  0
LINE
  5
2b2
100
AcDbEntity
  8
Layer_1
 62
7
100
AcDbLine
 10
177.941111
 20
45.141051
 30
0.0
 11
177.941111
 21
50.141069
 31
0.0
  0
LINE
  5
2b3
100
AcDbEntity
  8
Layer_1
 62
7
100
AcDbLine
 10
177.941111
 20
50.141069
 30
0.0
 11
173.041111
 21
50.141069
 31
0.0
  0
LINE
  5
2b4
100
AcDbEntity
  8
Layer_1
 62
7
100
AcDbLine
 10
173.041111
 20
50.141069
 30
0.0
 11
173.041111
 21
55.141059
 31
0.0
  0
LINE
  5
2b5
100
AcDbEntity
  8
Layer_1
 62
7
100
AcDbLine
 10
173.041111
 20
55.141059
 30
0.0
 11
177.941111
 21
55.141059
 31
0.0
  0
LINE
  5
2b6
100
AcDbEntity
  8
Layer_1
 62
7
100
AcDbLine
 10
177.941111
 20
55.141059
 30
0.0
 11
177.941111
 21
60.141077
 31
0.0
  0
LINE
  5
2b7
100
AcDbEntity
  8
Layer_1
 62
7
100
AcDbLine
 10
177.941111
 20
60.141077
 30
0.0
 11
197.741111
 21
60.141077
 31
0.0
  0
LINE
  5
2b8
100
AcDbEntity
  8
Layer_1
 62
7
100
AcDbLine
 10
197.741111
 20
60.141077
 30
0.0
 11
197.741111
 21
55.141059
 31
0.0
  0
LINE
  5
2b9
100
AcDbEntity
  8
Layer_1
 62
7
100
AcDbLine
 10
197.741111
 20
55.141059
 30
0.0
 11
202.641111
 21
55.141059
 31
0.0
  0
LINE
  5
2ba
100
AcDbEntity
  8
Layer_1
 62
7
100
AcDbLine
 10
202.641115
 20
59.458826
 30
0.0
 11
207.641134
 21
59.458826
 31
0.0
  0
LINE
  5
2bb
100
AcDbEntity
  8
Layer_1
 62
7
100
AcDbLine
 10
207.641134
 20
59.458826
 30
0.0
 11
207.641134
 21
54.558826
 31
0.0
  0
LINE
  5
2bc
100
AcDbEntity
  8
Layer_1
 62
7
100
AcDbLine
 10
207.641134
 20
54.558826
 30
0.0
 11
217.641114
 21
54.558826
 31
0.0
  0
LINE
  5
2bd
100
AcDbEntity
  8
Layer_1
 62
7
100
AcDbLine
 10
217.641114
 20
54.558826
 30
0.0
 11
217.641114
 21
59.458826
 31
0.0
  0
LINE
  5
2be
100
AcDbEntity
  8
Layer_1
 62
7
100
AcDbLine
 10
217.641114
 20
59.458826
 30
0.0
 11
222.641132
 21
59.458826
 31
0.0
  0
LINE
  5
2bf
100
AcDbEntity
  8
Layer_1
 62
7
100
AcDbLine
 10
222.641132
 20
59.458826
 30
0.0
 11
222.641132
 21
29.858826
 31
0.0
  0
LINE
  5
2c0
100
AcDbEntity
  8
Layer_1
 62
7
100
AcDbLine
 10
222.641132
 20
29.858826
 30
0.0
 11
217.641114
 21
29.858826
 31
0.0
  0
LINE
  5
2c1
100
AcDbEntity
  8
Layer_1
 62
7
100
AcDbLine
 10
217.641114
 20
29.858826
 30
0.0
 11
217.641114
 21
34.758826
 31
0.0
  0
LINE
  5
2c2
100
AcDbEntity
  8
Layer_1
 62
7
100
AcDbLine
 10
217.641114
 20
34.758826
 30
0.0
 11
207.641134
 21
34.758826
 31
0.0
  0
LINE
  5
2c3
100
AcDbEntity
  8
Layer_1
 62
7
100
AcDbLine
 10
207.641134
 20
34.758826
 30
0.0
 11
207.641134
 21
29.858826
 31
0.0
  0
LINE
  5
2c4
100
AcDbEntity
  8
Layer_1
 62
7
100
AcDbLine
 10
207.641134
 20
29.858826
 30
0.0
 11
202.641115
 21
29.858826
 31
0.0
  0
LINE
  5
2c5
100
AcDbEntity
  8
Layer_1
 62
7
100
AcDbLine
 10
202.641115
 20
29.858826
 30
0.0
 11
202.641115
 21
59.458826
 31
0.0
  0
LINE
  5
2c6
100
AcDbEntity
  8
Layer_1
 62
7
100
AcDbLine
 10
212.641124
 20
48.658826
 30
0.0
 11
213.142124
 21
48.626826
 31
0.0
  0
LINE
  5
2c7
100
AcDbEntity
  8
Layer_1
 62
7
100
AcDbLine
 10
213.142124
 20
48.626826
 30
0.0
 11
213.636126
 21
48.532826
 31
0.0
  0
LINE
  5
2c8
100
AcDbEntity
  8
Layer_1
 62
7
100
AcDbLine
 10
213.636126
 20
48.532826
 30
0.0
 11
214.113110
 21
48.377826
 31
0.0
  0
LINE
  5
2c9
100
AcDbEntity
  8
Layer_1
 62
7
100
AcDbLine
 10
214.113110
 20
48.377826
 30
0.0
 11
214.568109
 21
48.163826
 31
0.0
  0
LINE
  5
2ca
100
AcDbEntity
  8
Layer_1
 62
7
100
AcDbLine
 10
214.568109
 20
48.163826
 30
0.0
 11
214.992119
 21
47.894826
 31
0.0
  0
LINE
  5
2cb
100
AcDbEntity
  8
Layer_1
 62
7
100
AcDbLine
 10
214.992119
 20
47.894826
 30
0.0
 11
215.379131
 21
47.574826
 31
0.0
  0
LINE
  5
2cc
100
AcDbEntity
  8
Layer_1
 62
7
100
AcDbLine
 10
215.379131
 20
47.574826
 30
0.0
 11
215.723131
 21
47.208826
 31
0.0
  0
LINE
  5
2cd
100
AcDbEntity
  8
Layer_1
 62
7
100
AcDbLine
 10
215.723131
 20
47.208826
 30
0.0
 11
216.018110
 21
46.801826
 31
0.0
  0
LINE
  5
2ce
100
AcDbEntity
  8
Layer_1
 62
7
100
AcDbLine
 10
216.018110
 20
46.801826
 30
0.0
 11
216.260116
 21
46.361826
 31
0.0
  0
LINE
  5
2cf
100
AcDbEntity
  8
Layer_1
 62
7
100
AcDbLine
 10
216.260116
 20
46.361826
 30
0.0
 11
216.445112
 21
45.894826
 31
0.0
  0
LINE
  5
2d0
100
AcDbEntity
  8
Layer_1
 62
7
100
AcDbLine
 10
216.445112
 20
45.894826
 30
0.0
 11
216.570108
 21
45.408826
 31
0.0
  0
LINE
  5
2d1
100
AcDbEntity
  8
Layer_1
 62
7
100
AcDbLine
 10
216.570108
 20
45.408826
 30
0.0
 11
216.633129
 21
44.909826
 31
0.0
  0
LINE
  5
2d2
100
AcDbEntity
  8
Layer_1
 62
7
100
AcDbLine
 10
216.633129
 20
44.909826
 30
0.0
 11
216.633129
 21
44.407826
 31
0.0
  0
LINE
  5
2d3
100
AcDbEntity
  8
Layer_1
 62
7
100
AcDbLine
 10
216.633129
 20
44.407826
 30
0.0
 11
216.570108
 21
43.908826
 31
0.0
  0
LINE
  5
2d4
100
AcDbEntity
  8
Layer_1
 62
7
100
AcDbLine
 10
216.570108
 20
43.908826
 30
0.0
 11
216.445112
 21
43.422826
 31
0.0
  0
LINE
  5
2d5
100
AcDbEntity
  8
Layer_1
 62
7
100
AcDbLine
 10
216.445112
 20
43.422826
 30
0.0
 11
216.260116
 21
42.955826
 31
0.0
  0
LINE
  5
2d6
100
AcDbEntity
  8
Layer_1
 62
7
100
AcDbLine
 10
216.260116
 20
42.955826
 30
0.0
 11
216.018110
 21
42.515826
 31
0.0
  0
LINE
  5
2d7
100
AcDbEntity
  8
Layer_1
 62
7
100
AcDbLine
 10
216.018110
 20
42.515826
 30
0.0
 11
215.723131
 21
42.108826
 31
0.0
  0
LINE
  5
2d8
100
AcDbEntity
  8
Layer_1
 62
7
100
AcDbLine
 10
215.723131
 20
42.108826
 30
0.0
 11
215.379131
 21
41.742826
 31
0.0
  0
LINE
  5
2d9
100
AcDbEntity
  8
Layer_1
 62
7
100
AcDbLine
 10
215.379131
 20
41.742826
 30
0.0
 11
214.992119
 21
41.422826
 31
0.0
  0
LINE
  5
2da
100
AcDbEntity
  8
Layer_1
 62
7
100
AcDbLine
 10
214.992119
 20
41.422826
 30
0.0
 11
214.568109
 21
41.153826
 31
0.0
  0
LINE
  5
2db
100
AcDbEntity
  8
Layer_1
 62
7
100
AcDbLine
 10
214.568109
 20
41.153826
 30
0.0
 11
214.113110
 21
40.939826
 31
0.0
  0
LINE
  5
2dc
100
AcDbEntity
  8
Layer_1
 62
7
100
AcDbLine
 10
214.113110
 20
40.939826
 30
0.0
 11
213.636126
 21
40.784826
 31
0.0
  0
LINE
  5
2dd
100
AcDbEntity
  8
Layer_1
 62
7
100
AcDbLine
 10
213.636126
 20
40.784826
 30
0.0
 11
213.142124
 21
40.690826
 31
0.0
  0
LINE
  5
2de
100
AcDbEntity
  8
Layer_1
 62
7
100
AcDbLine
 10
213.142124
 20
40.690826
 30
0.0
 11
212.641124
 21
40.658826
 31
0.0
  0
LINE
  5
2df
100
AcDbEntity
  8
Layer_1
 62
7
100
AcDbLine
 10
212.641124
 20
40.658826
 30
0.0
 11
212.140123
 21
40.690826
 31
0.0
  0
LINE
  5
2e0
100
AcDbEntity
  8
Layer_1
 62
7
100
AcDbLine
 10
212.140123
 20
40.690826
 30
0.0
 11
211.646121
 21
40.784826
 31
0.0
  0
LINE
  5
2e1
100
AcDbEntity
  8
Layer_1
 62
7
100
AcDbLine
 10
211.646121
 20
40.784826
 30
0.0
 11
211.169109
 21
40.939826
 31
0.0
  0
LINE
  5
2e2
100
AcDbEntity
  8
Layer_1
 62
7
100
AcDbLine
 10
211.169109
 20
40.939826
 30
0.0
 11
210.714110
 21
41.153826
 31
0.0
  0
LINE
  5
2e3
100
AcDbEntity
  8
Layer_1
 62
7
100
AcDbLine
 10
210.714110
 20
41.153826
 30
0.0
 11
210.290128
 21
41.422826
 31
0.0
  0
LINE
  5
2e4
100
AcDbEntity
  8
Layer_1
 62
7
100
AcDbLine
 10
210.290128
 20
41.422826
 30
0.0
 11
209.903116
 21
41.742826
 31
0.0
  0
LINE
  5
2e5
100
AcDbEntity
  8
Layer_1
 62
7
100
AcDbLine
 10
209.903116
 20
41.742826
 30
0.0
 11
209.559116
 21
42.108826
 31
0.0
  0
LINE
  5
2e6
100
AcDbEntity
  8
Layer_1
 62
7
100
AcDbLine
 10
209.559116
 20
42.108826
 30
0.0
 11
209.264109
 21
42.515826
 31
0.0
  0
LINE
  5
2e7
100
AcDbEntity
  8
Layer_1
 62
7
100
AcDbLine
 10
209.264109
 20
42.515826
 30
0.0
 11
209.022132
 21
42.955826
 31
0.0
  0
LINE
  5
2e8
100
AcDbEntity
  8
Layer_1
 62
7
100
AcDbLine
 10
209.022132
 20
42.955826
 30
0.0
 11
208.837135
 21
43.422826
 31
0.0
  0
LINE
  5
2e9
100
AcDbEntity
  8
Layer_1
 62
7
100
AcDbLine
 10
208.837135
 20
43.422826
 30
0.0
 11
208.712110
 21
43.908826
 31
0.0
  0
LINE
  5
2ea
100
AcDbEntity
  8
Layer_1
 62
7
100
AcDbLine
 10
208.712110
 20
43.908826
 30
0.0
 11
208.649118
 21
44.407826
 31
0.0
  0
LINE
  5
2eb
100
AcDbEntity
  8
Layer_1
 62
7
100
AcDbLine
 10
208.649118
 20
44.407826
 30
0.0
 11
208.649118
 21
44.909826
 31
0.0
  0
LINE
  5
2ec
100
AcDbEntity
  8
Layer_1
 62
7
100
AcDbLine
 10
208.649118
 20
44.909826
 30
0.0
 11
208.712110
 21
45.408826
 31
0.0
  0
LINE
  5
2ed
100
AcDbEntity
  8
Layer_1
 62
7
100
AcDbLine
 10
208.712110
 20
45.408826
 30
0.0
 11
208.837135
 21
45.894826
 31
0.0
  0
LINE
  5
2ee
100
AcDbEntity
  8
Layer_1
 62
7
100
AcDbLine
 10
208.837135
 20
45.894826
 30
0.0
 11
209.022132
 21
46.361826
 31
0.0
  0
LINE
  5
2ef
100
AcDbEntity
  8
Layer_1
 62
7
100
AcDbLine
 10
209.022132
 20
46.361826
 30
0.0
 11
209.264109
 21
46.801826
 31
0.0
  0
LINE
  5
2f0
100
AcDbEntity
  8
Layer_1
 62
7
100
AcDbLine
 10
209.264109
 20
46.801826
 30
0.0
 11
209.559116
 21
47.208826
 31
0.0
  0
LINE
  5
2f1
100
AcDbEntity
  8
Layer_1
 62
7
100
AcDbLine
 10
209.559116
 20
47.208826
 30
0.0
 11
209.903116
 21
47.574826
 31
0.0
  0
LINE
  5
2f2
100
AcDbEntity
  8
Layer_1
 62
7
100
AcDbLine
 10
209.903116
 20
47.574826
 30
0.0
 11
210.290128
 21
47.894826
 31
0.0
  0
LINE
  5
2f3
100
AcDbEntity
  8
Layer_1
 62
7
100
AcDbLine
 10
210.290128
 20
47.894826
 30
0.0
 11
210.714110
 21
48.163826
 31
0.0
  0
LINE
  5
2f4
100
AcDbEntity
  8
Layer_1
 62
7
100
AcDbLine
 10
210.714110
 20
48.163826
 30
0.0
 11
211.169109
 21
48.377826
 31
0.0
  0
LINE
  5
2f5
100
AcDbEntity
  8
Layer_1
 62
7
100
AcDbLine
 10
211.169109
 20
48.377826
 30
0.0
 11
211.646121
 21
48.532826
 31
0.0
  0
LINE
  5
2f6
100
AcDbEntity
  8
Layer_1
 62
7
100
AcDbLine
 10
211.646121
 20
48.532826
 30
0.0
 11
212.140123
 21
48.626826
 31
0.0
  0
LINE
  5
2f7
100
AcDbEntity
  8
Layer_1
 62
7
100
AcDbLine
 10
212.140123
 20
48.626826
 30
0.0
 11
212.641124
 21
48.658826
 31
0.0
  0
LINE
  5
2f8
100
AcDbEntity
  8
Layer_1
 62
7
100
AcDbLine
 10
222.641132
 20
29.858826
 30
0.0
 11
227.641150
 21
29.858826
 31
0.0
  0
LINE
  5
2f9
100
AcDbEntity
  8
Layer_1
 62
7
100
AcDbLine
 10
227.641150
 20
29.858826
 30
0.0
 11
227.641150
 21
24.958826
 31
0.0
  0
LINE
  5
2fa
100
AcDbEntity
  8
Layer_1
 62
7
100
AcDbLine
 10
227.641150
 20
24.958826
 30
0.0
 11
237.641130
 21
24.958826
 31
0.0
  0
LINE
  5
2fb
100
AcDbEntity
  8
Layer_1
 62
7
100
AcDbLine
 10
237.641130
 20
24.958826
 30
0.0
 11
237.641130
 21
29.858826
 31
0.0
  0
LINE
  5
2fc
100
AcDbEntity
  8
Layer_1
 62
7
100
AcDbLine
 10
237.641130
 20
29.858826
 30
0.0
 11
242.641148
 21
29.858826
 31
0.0
  0
LINE
  5
2fd
100
AcDbEntity
  8
Layer_1
 62
7
100
AcDbLine
 10
242.641148
 20
29.858826
 30
0.0
 11
242.641148
 21
0.258826
 31
0.0
  0
LINE
  5
2fe
100
AcDbEntity
  8
Layer_1
 62
7
100
AcDbLine
 10
242.641148
 20
0.258826
 30
0.0
 11
237.641130
 21
0.258826
 31
0.0
  0
LINE
  5
2ff
100
AcDbEntity
  8
Layer_1
 62
7
100
AcDbLine
 10
237.641130
 20
0.258826
 30
0.0
 11
237.641130
 21
5.158826
 31
0.0
  0
LINE
  5
300
100
AcDbEntity
  8
Layer_1
 62
7
100
AcDbLine
 10
237.641130
 20
5.158826
 30
0.0
 11
227.641150
 21
5.158826
 31
0.0
  0
LINE
  5
301
100
AcDbEntity
  8
Layer_1
 62
7
100
AcDbLine
 10
227.641150
 20
5.158826
 30
0.0
 11
227.641150
 21
0.258826
 31
0.0
  0
LINE
  5
302
100
AcDbEntity
  8
Layer_1
 62
7
100
AcDbLine
 10
227.641150
 20
0.258826
 30
0.0
 11
222.641132
 21
0.258826
 31
0.0
  0
LINE
  5
303
100
AcDbEntity
  8
Layer_1
 62
7
100
AcDbLine
 10
222.641132
 20
0.258826
 30
0.0
 11
222.641132
 21
29.858826
 31
0.0
  0
LINE
  5
304
100
AcDbEntity
  8
Layer_1
 62
7
100
AcDbLine
 10
232.641140
 20
19.058826
 30
0.0
 11
233.142141
 21
19.026826
 31
0.0
  0
LINE
  5
305
100
AcDbEntity
  8
Layer_1
 62
7
100
AcDbLine
 10
233.142141
 20
19.026826
 30
0.0
 11
233.636143
 21
18.932826
 31
0.0
  0
LINE
  5
306
100
AcDbEntity
  8
Layer_1
 62
7
100
AcDbLine
 10
233.636143
 20
18.932826
 30
0.0
 11
234.113126
 21
18.777826
 31
0.0
  0
LINE
  5
307
100
AcDbEntity
  8
Layer_1
 62
7
100
AcDbLine
 10
234.113126
 20
18.777826
 30
0.0
 11
234.568125
 21
18.563826
 31
0.0
  0
LINE
  5
308
100
AcDbEntity
  8
Layer_1
 62
7
100
AcDbLine
 10
234.568125
 20
18.563826
 30
0.0
 11
234.992136
 21
18.294826
 31
0.0
  0
LINE
  5
309
100
AcDbEntity
  8
Layer_1
 62
7
100
AcDbLine
 10
234.992136
 20
18.294826
 30
0.0
 11
235.379147
 21
17.974826
 31
0.0
  0
LINE
  5
30a
100
AcDbEntity
  8
Layer_1
 62
7
100
AcDbLine
 10
235.379147
 20
17.974826
 30
0.0
 11
235.723148
 21
17.608826
 31
0.0
  0
LINE
  5
30b
100
AcDbEntity
  8
Layer_1
 62
7
100
AcDbLine
 10
235.723148
 20
17.608826
 30
0.0
 11
236.018126
 21
17.201826
 31
0.0
  0
LINE
  5
30c
100
AcDbEntity
  8
Layer_1
 62
7
100
AcDbLine
 10
236.018126
 20
17.201826
 30
0.0
 11
236.260132
 21
16.761826
 31
0.0
  0
LINE
  5
30d
100
AcDbEntity
  8
Layer_1
 62
7
100
AcDbLine
 10
236.260132
 20
16.761826
 30
0.0
 11
236.445129
 21
16.294826
 31
0.0
  0
LINE
  5
30e
100
AcDbEntity
  8
Layer_1
 62
7
100
AcDbLine
 10
236.445129
 20
16.294826
 30
0.0
 11
236.570125
 21
15.808826
 31
0.0
  0
LINE
  5
30f
100
AcDbEntity
  8
Layer_1
 62
7
100
AcDbLine
 10
236.570125
 20
15.808826
 30
0.0
 11
236.633145
 21
15.309826
 31
0.0
  0
LINE
  5
310
100
AcDbEntity
  8
Layer_1
 62
7
100
AcDbLine
 10
236.633145
 20
15.309826
 30
0.0
 11
236.633145
 21
14.807826
 31
0.0
  0
LINE
  5
311
100
AcDbEntity
  8
Layer_1
 62
7
100
AcDbLine
 10
236.633145
 20
14.807826
 30
0.0
 11
236.570125
 21
14.308826
 31
0.0
  0
LINE
  5
312
100
AcDbEntity
  8
Layer_1
 62
7
100
AcDbLine
 10
236.570125
 20
14.308826
 30
0.0
 11
236.445129
 21
13.822826
 31
0.0
  0
LINE
  5
313
100
AcDbEntity
  8
Layer_1
 62
7
100
AcDbLine
 10
236.445129
 20
13.822826
 30
0.0
 11
236.260132
 21
13.355826
 31
0.0
  0
LINE
  5
314
100
AcDbEntity
  8
Layer_1
 62
7
100
AcDbLine
 10
236.260132
 20
13.355826
 30
0.0
 11
236.018126
 21
12.915826
 31
0.0
  0
LINE
  5
315
100
AcDbEntity
  8
Layer_1
 62
7
100
AcDbLine
 10
236.018126
 20
12.915826
 30
0.0
 11
235.723148
 21
12.508826
 31
0.0
  0
LINE
  5
316
100
AcDbEntity
  8
Layer_1
 62
7
100
AcDbLine
 10
235.723148
 20
12.508826
 30
0.0
 11
235.379147
 21
12.142826
 31
0.0
  0
LINE
  5
317
100
AcDbEntity
  8
Layer_1
 62
7
100
AcDbLine
 10
235.379147
 20
12.142826
 30
0.0
 11
234.992136
 21
11.822826
 31
0.0
  0
LINE
  5
318
100
AcDbEntity
  8
Layer_1
 62
7
100
AcDbLine
 10
234.992136
 20
11.822826
 30
0.0
 11
234.568125
 21
11.553826
 31
0.0
  0
LINE
  5
319
100
AcDbEntity
  8
Layer_1
 62
7
100
AcDbLine
 10
234.568125
 20
11.553826
 30
0.0
 11
234.113126
 21
11.339826
 31
0.0
  0
LINE
  5
31a
100
AcDbEntity
  8
Layer_1
 62
7
100
AcDbLine
 10
234.113126
 20
11.339826
 30
0.0
 11
233.636143
 21
11.184826
 31
0.0
  0
LINE
  5
31b
100
AcDbEntity
  8
Layer_1
 62
7
100
AcDbLine
 10
233.636143
 20
11.184826
 30
0.0
 11
233.142141
 21
11.090826
 31
0.0
  0
LINE
  5
31c
100
AcDbEntity
  8
Layer_1
 62
7
100
AcDbLine
 10
233.142141
 20
11.090826
 30
0.0
 11
232.641140
 21
11.058826
 31
0.0
  0
LINE
  5
31d
100
AcDbEntity
  8
Layer_1
 62
7
100
AcDbLine
 10
232.641140
 20
11.058826
 30
0.0
 11
232.140139
 21
11.090826
 31
0.0
  0
LINE
  5
31e
100
AcDbEntity
  8
Layer_1
 62
7
100
AcDbLine
 10
232.140139
 20
11.090826
 30
0.0
 11
231.646137
 21
11.184826
 31
0.0
  0
LINE
  5
31f
100
AcDbEntity
  8
Layer_1
 62
7
100
AcDbLine
 10
231.646137
 20
11.184826
 30
0.0
 11
231.169125
 21
11.339826
 31
0.0
  0
LINE
  5
320
100
AcDbEntity
  8
Layer_1
 62
7
100
AcDbLine
 10
231.169125
 20
11.339826
 30
0.0
 11
230.714127
 21
11.553826
 31
0.0
  0
LINE
  5
321
100
AcDbEntity
  8
Layer_1
 62
7
100
AcDbLine
 10
230.714127
 20
11.553826
 30
0.0
 11
230.290144
 21
11.822826
 31
0.0
  0
LINE
  5
322
100
AcDbEntity
  8
Layer_1
 62
7
100
AcDbLine
 10
230.290144
 20
11.822826
 30
0.0
 11
229.903133
 21
12.142826
 31
0.0
  0
LINE
  5
323
100
AcDbEntity
  8
Layer_1
 62
7
100
AcDbLine
 10
229.903133
 20
12.142826
 30
0.0
 11
229.559132
 21
12.508826
 31
0.0
  0
LINE
  5
324
100
AcDbEntity
  8
Layer_1
 62
7
100
AcDbLine
 10
229.559132
 20
12.508826
 30
0.0
 11
229.264125
 21
12.915826
 31
0.0
  0
LINE
  5
325
100
AcDbEntity
  8
Layer_1
 62
7
100
AcDbLine
 10
229.264125
 20
12.915826
 30
0.0
 11
229.022148
 21
13.355826
 31
0.0
  0
LINE
  5
326
100
AcDbEntity
  8
Layer_1
 62
7
100
AcDbLine
 10
229.022148
 20
13.355826
 30
0.0
 11
228.837151
 21
13.822826
 31
0.0
  0
LINE
  5
327
100
AcDbEntity
  8
Layer_1
 62
7
100
AcDbLine
 10
228.837151
 20
13.822826
 30
0.0
 11
228.712127
 21
14.308826
 31
0.0
  0
LINE
  5
328
100
AcDbEntity
  8
Layer_1
 62
7
100
AcDbLine
 10
228.712127
 20
14.308826
 30
0.0
 11
228.649135
 21
14.807826
 31
0.0
  0
LINE
  5
329
100
AcDbEntity
  8
Layer_1
 62
7
100
AcDbLine
 10
228.649135
 20
14.807826
 30
0.0
 11
228.649135
 21
15.309826
 31
0.0
  0
LINE
  5
32a
100
AcDbEntity
  8
Layer_1
 62
7
100
AcDbLine
 10
228.649135
 20
15.309826
 30
0.0
 11
228.712127
 21
15.808826
 31
0.0
  0
LINE
  5
32b
100
AcDbEntity
  8
Layer_1
 62
7
100
AcDbLine
 10
228.712127
 20
15.808826
 30
0.0
 11
228.837151
 21
16.294826
 31
0.0
  0
LINE
  5
32c
100
AcDbEntity
  8
Layer_1
 62
7
100
AcDbLine
 10
228.837151
 20
16.294826
 30
0.0
 11
229.022148
 21
16.761826
 31
0.0
  0
LINE
  5
32d
100
AcDbEntity
  8
Layer_1
 62
7
100
AcDbLine
 10
229.022148
 20
16.761826
 30
0.0
 11
229.264125
 21
17.201826
 31
0.0
  0
LINE
  5
32e
100
AcDbEntity
  8
Layer_1
 62
7
100
AcDbLine
 10
229.264125
 20
17.201826
 30
0.0
 11
229.559132
 21
17.608826
 31
0.0
  0
LINE
  5
32f
100
AcDbEntity
  8
Layer_1
 62
7
100
AcDbLine
 10
229.559132
 20
17.608826
 30
0.0
 11
229.903133
 21
17.974826
 31
0.0
  0
LINE
  5
330
100
AcDbEntity
  8
Layer_1
 62
7
100
AcDbLine
 10
229.903133
 20
17.974826
 30
0.0
 11
230.290144
 21
18.294826
 31
0.0
  0
LINE
  5
331
100
AcDbEntity
  8
Layer_1
 62
7
100
AcDbLine
 10
230.290144
 20
18.294826
 30
0.0
 11
230.714127
 21
18.563826
 31
0.0
  0
LINE
  5
332
100
AcDbEntity
  8
Layer_1
 62
7
100
AcDbLine
 10
230.714127
 20
18.563826
 30
0.0
 11
231.169125
 21
18.777826
 31
0.0
  0
LINE
  5
333
100
AcDbEntity
  8
Layer_1
 62
7
100
AcDbLine
 10
231.169125
 20
18.777826
 30
0.0
 11
231.646137
 21
18.932826
 31
0.0
  0
LINE
  5
334
100
AcDbEntity
  8
Layer_1
 62
7
100
AcDbLine
 10
231.646137
 20
18.932826
 30
0.0
 11
232.140139
 21
19.026826
 31
0.0
  0
LINE
  5
335
100
AcDbEntity
  8
Layer_1
 62
7
100
AcDbLine
 10
232.140139
 20
19.026826
 30
0.0
 11
232.641140
 21
19.058826
 31
0.0
  0
LINE
  5
336
100
AcDbEntity
  8
Layer_1
 62
7
100
AcDbLine
 10
222.641132
 20
59.458823
 30
0.0
 11
227.641150
 21
59.458823
 31
0.0
  0
LINE
  5
337
100
AcDbEntity
  8
Layer_1
 62
7
100
AcDbLine
 10
227.641150
 20
59.458823
 30
0.0
 11
227.641150
 21
54.558823
 31
0.0
  0
LINE
  5
338
100
AcDbEntity
  8
Layer_1
 62
7
100
AcDbLine
 10
227.641150
 20
54.558823
 30
0.0
 11
237.641130
 21
54.558823
 31
0.0
  0
LINE
  5
339
100
AcDbEntity
  8
Layer_1
 62
7
100
AcDbLine
 10
237.641130
 20
54.558823
 30
0.0
 11
237.641130
 21
59.458823
 31
0.0
  0
LINE
  5
33a
100
AcDbEntity
  8
Layer_1
 62
7
100
AcDbLine
 10
237.641130
 20
59.458823
 30
0.0
 11
242.641148
 21
59.458823
 31
0.0
  0
LINE
  5
33b
100
AcDbEntity
  8
Layer_1
 62
7
100
AcDbLine
 10
242.641148
 20
59.458823
 30
0.0
 11
242.641148
 21
29.858823
 31
0.0
  0
LINE
  5
33c
100
AcDbEntity
  8
Layer_1
 62
7
100
AcDbLine
 10
242.641148
 20
29.858823
 30
0.0
 11
237.641130
 21
29.858823
 31
0.0
  0
LINE
  5
33d
100
AcDbEntity
  8
Layer_1
 62
7
100
AcDbLine
 10
237.641130
 20
29.858823
 30
0.0
 11
237.641130
 21
34.758823
 31
0.0
  0
LINE
  5
33e
100
AcDbEntity
  8
Layer_1
 62
7
100
AcDbLine
 10
237.641130
 20
34.758823
 30
0.0
 11
227.641150
 21
34.758823
 31
0.0
  0
LINE
  5
33f
100
AcDbEntity
  8
Layer_1
 62
7
100
AcDbLine
 10
227.641150
 20
34.758823
 30
0.0
 11
227.641150
 21
29.858823
 31
0.0
  0
LINE
  5
340
100
AcDbEntity
  8
Layer_1
 62
7
100
AcDbLine
 10
227.641150
 20
29.858823
 30
0.0
 11
222.641132
 21
29.858823
 31
0.0
  0
LINE
  5
341
100
AcDbEntity
  8
Layer_1
 62
7
100
AcDbLine
 10
222.641132
 20
29.858823
 30
0.0
 11
222.641132
 21
59.458823
 31
0.0
  0
LINE
  5
342
100
AcDbEntity
  8
Layer_1
 62
7
100
AcDbLine
 10
232.641140
 20
48.658823
 30
0.0
 11
233.142141
 21
48.626823
 31
0.0
  0
LINE
  5
343
100
AcDbEntity
  8
Layer_1
 62
7
100
AcDbLine
 10
233.142141
 20
48.626823
 30
0.0
 11
233.636143
 21
48.532823
 31
0.0
  0
LINE
  5
344
100
AcDbEntity
  8
Layer_1
 62
7
100
AcDbLine
 10
233.636143
 20
48.532823
 30
0.0
 11
234.113126
 21
48.377823
 31
0.0
  0
LINE
  5
345
100
AcDbEntity
  8
Layer_1
 62
7
100
AcDbLine
 10
234.113126
 20
48.377823
 30
0.0
 11
234.568125
 21
48.163823
 31
0.0
  0
LINE
  5
346
100
AcDbEntity
  8
Layer_1
 62
7
100
AcDbLine
 10
234.568125
 20
48.163823
 30
0.0
 11
234.992136
 21
47.894823
 31
0.0
  0
LINE
  5
347
100
AcDbEntity
  8
Layer_1
 62
7
100
AcDbLine
 10
234.992136
 20
47.894823
 30
0.0
 11
235.379147
 21
47.574823
 31
0.0
  0
LINE
  5
348
100
AcDbEntity
  8
Layer_1
 62
7
100
AcDbLine
 10
235.379147
 20
47.574823
 30
0.0
 11
235.723148
 21
47.208823
 31
0.0
  0
LINE
  5
349
100
AcDbEntity
  8
Layer_1
 62
7
100
AcDbLine
 10
235.723148
 20
47.208823
 30
0.0
 11
236.018126
 21
46.801823
 31
0.0
  0
LINE
  5
34a
100
AcDbEntity
  8
Layer_1
 62
7
100
AcDbLine
 10
236.018126
 20
46.801823
 30
0.0
 11
236.260132
 21
46.361823
 31
0.0
  0
LINE
  5
34b
100
AcDbEntity
  8
Layer_1
 62
7
100
AcDbLine
 10
236.260132
 20
46.361823
 30
0.0
 11
236.445129
 21
45.894823
 31
0.0
  0
LINE
  5
34c
100
AcDbEntity
  8
Layer_1
 62
7
100
AcDbLine
 10
236.445129
 20
45.894823
 30
0.0
 11
236.570125
 21
45.408823
 31
0.0
  0
LINE
  5
34d
100
AcDbEntity
  8
Layer_1
 62
7
100
AcDbLine
 10
236.570125
 20
45.408823
 30
0.0
 11
236.633145
 21
44.909823
 31
0.0
  0
LINE
  5
34e
100
AcDbEntity
  8
Layer_1
 62
7
100
AcDbLine
 10
236.633145
 20
44.909823
 30
0.0
 11
236.633145
 21
44.407823
 31
0.0
  0
LINE
  5
34f
100
AcDbEntity
  8
Layer_1
 62
7
100
AcDbLine
 10
236.633145
 20
44.407823
 30
0.0
 11
236.570125
 21
43.908823
 31
0.0
  0
LINE
  5
350
100
AcDbEntity
  8
Layer_1
 62
7
100
AcDbLine
 10
236.570125
 20
43.908823
 30
0.0
 11
236.445129
 21
43.422823
 31
0.0
  0
LINE
  5
351
100
AcDbEntity
  8
Layer_1
 62
7
100
AcDbLine
 10
236.445129
 20
43.422823
 30
0.0
 11
236.260132
 21
42.955823
 31
0.0
  0
LINE
  5
352
100
AcDbEntity
  8
Layer_1
 62
7
100
AcDbLine
 10
236.260132
 20
42.955823
 30
0.0
 11
236.018126
 21
42.515823
 31
0.0
  0
LINE
  5
353
100
AcDbEntity
  8
Layer_1
 62
7
100
AcDbLine
 10
236.018126
 20
42.515823
 30
0.0
 11
235.723148
 21
42.108823
 31
0.0
  0
LINE
  5
354
100
AcDbEntity
  8
Layer_1
 62
7
100
AcDbLine
 10
235.723148
 20
42.108823
 30
0.0
 11
235.379147
 21
41.742823
 31
0.0
  0
LINE
  5
355
100
AcDbEntity
  8
Layer_1
 62
7
100
AcDbLine
 10
235.379147
 20
41.742823
 30
0.0
 11
234.992136
 21
41.422823
 31
0.0
  0
LINE
  5
356
100
AcDbEntity
  8
Layer_1
 62
7
100
AcDbLine
 10
234.992136
 20
41.422823
 30
0.0
 11
234.568125
 21
41.153823
 31
0.0
  0
LINE
  5
357
100
AcDbEntity
  8
Layer_1
 62
7
100
AcDbLine
 10
234.568125
 20
41.153823
 30
0.0
 11
234.113126
 21
40.939823
 31
0.0
  0
LINE
  5
358
100
AcDbEntity
  8
Layer_1
 62
7
100
AcDbLine
 10
234.113126
 20
40.939823
 30
0.0
 11
233.636143
 21
40.784823
 31
0.0
  0
LINE
  5
359
100
AcDbEntity
  8
Layer_1
 62
7
100
AcDbLine
 10
233.636143
 20
40.784823
 30
0.0
 11
233.142141
 21
40.690823
 31
0.0
  0
LINE
  5
35a
100
AcDbEntity
  8
Layer_1
 62
7
100
AcDbLine
 10
233.142141
 20
40.690823
 30
0.0
 11
232.641140
 21
40.658823
 31
0.0
  0
LINE
  5
35b
100
AcDbEntity
  8
Layer_1
 62
7
100
AcDbLine
 10
232.641140
 20
40.658823
 30
0.0
 11
232.140139
 21
40.690823
 31
0.0
  0
LINE
  5
35c
100
AcDbEntity
  8
Layer_1
 62
7
100
AcDbLine
 10
232.140139
 20
40.690823
 30
0.0
 11
231.646137
 21
40.784823
 31
0.0
  0
LINE
  5
35d
100
AcDbEntity
  8
Layer_1
 62
7
100
AcDbLine
 10
231.646137
 20
40.784823
 30
0.0
 11
231.169125
 21
40.939823
 31
0.0
  0
LINE
  5
35e
100
AcDbEntity
  8
Layer_1
 62
7
100
AcDbLine
 10
231.169125
 20
40.939823
 30
0.0
 11
230.714127
 21
41.153823
 31
0.0
  0
LINE
  5
35f
100
AcDbEntity
  8
Layer_1
 62
7
100
AcDbLine
 10
230.714127
 20
41.153823
 30
0.0
 11
230.290144
 21
41.422823
 31
0.0
  0
LINE
  5
360
100
AcDbEntity
  8
Layer_1
 62
7
100
AcDbLine
 10
230.290144
 20
41.422823
 30
0.0
 11
229.903133
 21
41.742823
 31
0.0
  0
LINE
  5
361
100
AcDbEntity
  8
Layer_1
 62
7
100
AcDbLine
 10
229.903133
 20
41.742823
 30
0.0
 11
229.559132
 21
42.108823
 31
0.0
  0
LINE
  5
362
100
AcDbEntity
  8
Layer_1
 62
7
100
AcDbLine
 10
229.559132
 20
42.108823
 30
0.0
 11
229.264125
 21
42.515823
 31
0.0
  0
LINE
  5
363
100
AcDbEntity
  8
Layer_1
 62
7
100
AcDbLine
 10
229.264125
 20
42.515823
 30
0.0
 11
229.022148
 21
42.955823
 31
0.0
  0
LINE
  5
364
100
AcDbEntity
  8
Layer_1
 62
7
100
AcDbLine
 10
229.022148
 20
42.955823
 30
0.0
 11
228.837151
 21
43.422823
 31
0.0
  0
LINE
  5
365
100
AcDbEntity
  8
Layer_1
 62
7
100
AcDbLine
 10
228.837151
 20
43.422823
 30
0.0
 11
228.712127
 21
43.908823
 31
0.0
  0
LINE
  5
366
100
AcDbEntity
  8
Layer_1
 62
7
100
AcDbLine
 10
228.712127
 20
43.908823
 30
0.0
 11
228.649135
 21
44.407823
 31
0.0
  0
LINE
  5
367
100
AcDbEntity
  8
Layer_1
 62
7
100
AcDbLine
 10
228.649135
 20
44.407823
 30
0.0
 11
228.649135
 21
44.909823
 31
0.0
  0
LINE
  5
368
100
AcDbEntity
  8
Layer_1
 62
7
100
AcDbLine
 10
228.649135
 20
44.909823
 30
0.0
 11
228.712127
 21
45.408823
 31
0.0
  0
LINE
  5
369
100
AcDbEntity
  8
Layer_1
 62
7
100
AcDbLine
 10
228.712127
 20
45.408823
 30
0.0
 11
228.837151
 21
45.894823
 31
0.0
  0
LINE
  5
36a
100
AcDbEntity
  8
Layer_1
 62
7
100
AcDbLine
 10
228.837151
 20
45.894823
 30
0.0
 11
229.022148
 21
46.361823
 31
0.0
  0
LINE
  5
36b
100
AcDbEntity
  8
Layer_1
 62
7
100
AcDbLine
 10
229.022148
 20
46.361823
 30
0.0
 11
229.264125
 21
46.801823
 31
0.0
  0
LINE
  5
36c
100
AcDbEntity
  8
Layer_1
 62
7
100
AcDbLine
 10
229.264125
 20
46.801823
 30
0.0
 11
229.559132
 21
47.208823
 31
0.0
  0
LINE
  5
36d
100
AcDbEntity
  8
Layer_1
 62
7
100
AcDbLine
 10
229.559132
 20
47.208823
 30
0.0
 11
229.903133
 21
47.574823
 31
0.0
  0
LINE
  5
36e
100
AcDbEntity
  8
Layer_1
 62
7
100
AcDbLine
 10
229.903133
 20
47.574823
 30
0.0
 11
230.290144
 21
47.894823
 31
0.0
  0
LINE
  5
36f
100
AcDbEntity
  8
Layer_1
 62
7
100
AcDbLine
 10
230.290144
 20
47.894823
 30
0.0
 11
230.714127
 21
48.163823
 31
0.0
  0
LINE
  5
370
100
AcDbEntity
  8
Layer_1
 62
7
100
AcDbLine
 10
230.714127
 20
48.163823
 30
0.0
 11
231.169125
 21
48.377823
 31
0.0
  0
LINE
  5
371
100
AcDbEntity
  8
Layer_1
 62
7
100
AcDbLine
 10
231.169125
 20
48.377823
 30
0.0
 11
231.646137
 21
48.532823
 31
0.0
  0
LINE
  5
372
100
AcDbEntity
  8
Layer_1
 62
7
100
AcDbLine
 10
231.646137
 20
48.532823
 30
0.0
 11
232.140139
 21
48.626823
 31
0.0
  0
LINE
  5
373
100
AcDbEntity
  8
Layer_1
 62
7
100
AcDbLine
 10
232.140139
 20
48.626823
 30
0.0
 11
232.641140
 21
48.658823
 31
0.0
  0
LINE
  5
374
100
AcDbEntity
  8
Layer_1
 62
7
100
AcDbLine
 10
242.641148
 20
29.858823
 30
0.0
 11
247.641166
 21
29.858823
 31
0.0
  0
LINE
  5
375
100
AcDbEntity
  8
Layer_1
 62
7
100
AcDbLine
 10
247.641166
 20
29.858823
 30
0.0
 11
247.641166
 21
24.958823
 31
0.0
  0
LINE
  5
376
100
AcDbEntity
  8
Layer_1
 62
7
100
AcDbLine
 10
247.641166
 20
24.958823
 30
0.0
 11
257.641146
 21
24.958823
 31
0.0
  0
LINE
  5
377
100
AcDbEntity
  8
Layer_1
 62
7
100
AcDbLine
 10
257.641146
 20
24.958823
 30
0.0
 11
257.641146
 21
29.858823
 31
0.0
  0
LINE
  5
378
100
AcDbEntity
  8
Layer_1
 62
7
100
AcDbLine
 10
257.641146
 20
29.858823
 30
0.0
 11
262.641165
 21
29.858823
 31
0.0
  0
LINE
  5
379
100
AcDbEntity
  8
Layer_1
 62
7
100
AcDbLine
 10
262.641165
 20
29.858823
 30
0.0
 11
262.641165
 21
0.258823
 31
0.0
  0
LINE
  5
37a
100
AcDbEntity
  8
Layer_1
 62
7
100
AcDbLine
 10
262.641165
 20
0.258823
 30
0.0
 11
257.641146
 21
0.258823
 31
0.0
  0
LINE
  5
37b
100
AcDbEntity
  8
Layer_1
 62
7
100
AcDbLine
 10
257.641146
 20
0.258823
 30
0.0
 11
257.641146
 21
5.158823
 31
0.0
  0
LINE
  5
37c
100
AcDbEntity
  8
Layer_1
 62
7
100
AcDbLine
 10
257.641146
 20
5.158823
 30
0.0
 11
247.641166
 21
5.158823
 31
0.0
  0
LINE
  5
37d
100
AcDbEntity
  8
Layer_1
 62
7
100
AcDbLine
 10
247.641166
 20
5.158823
 30
0.0
 11
247.641166
 21
0.258823
 31
0.0
  0
LINE
  5
37e
100
AcDbEntity
  8
Layer_1
 62
7
100
AcDbLine
 10
247.641166
 20
0.258823
 30
0.0
 11
242.641148
 21
0.258823
 31
0.0
  0
LINE
  5
37f
100
AcDbEntity
  8
Layer_1
 62
7
100
AcDbLine
 10
242.641148
 20
0.258823
 30
0.0
 11
242.641148
 21
29.858823
 31
0.0
  0
LINE
  5
380
100
AcDbEntity
  8
Layer_1
 62
7
100
AcDbLine
 10
252.641156
 20
19.058823
 30
0.0
 11
253.142157
 21
19.026823
 31
0.0
  0
LINE
  5
381
100
AcDbEntity
  8
Layer_1
 62
7
100
AcDbLine
 10
253.142157
 20
19.026823
 30
0.0
 11
253.636159
 21
18.932823
 31
0.0
  0
LINE
  5
382
100
AcDbEntity
  8
Layer_1
 62
7
100
AcDbLine
 10
253.636159
 20
18.932823
 30
0.0
 11
254.113143
 21
18.777823
 31
0.0
  0
LINE
  5
383
100
AcDbEntity
  8
Layer_1
 62
7
100
AcDbLine
 10
254.113143
 20
18.777823
 30
0.0
 11
254.568142
 21
18.563823
 31
0.0
  0
LINE
  5
384
100
AcDbEntity
  8
Layer_1
 62
7
100
AcDbLine
 10
254.568142
 20
18.563823
 30
0.0
 11
254.992152
 21
18.294823
 31
0.0
  0
LINE
  5
385
100
AcDbEntity
  8
Layer_1
 62
7
100
AcDbLine
 10
254.992152
 20
18.294823
 30
0.0
 11
255.379164
 21
17.974823
 31
0.0
  0
LINE
  5
386
100
AcDbEntity
  8
Layer_1
 62
7
100
AcDbLine
 10
255.379164
 20
17.974823
 30
0.0
 11
255.723164
 21
17.608823
 31
0.0
  0
LINE
  5
387
100
AcDbEntity
  8
Layer_1
 62
7
100
AcDbLine
 10
255.723164
 20
17.608823
 30
0.0
 11
256.018143
 21
17.201823
 31
0.0
  0
LINE
  5
388
100
AcDbEntity
  8
Layer_1
 62
7
100
AcDbLine
 10
256.018143
 20
17.201823
 30
0.0
 11
256.260148
 21
16.761823
 31
0.0
  0
LINE
  5
389
100
AcDbEntity
  8
Layer_1
 62
7
100
AcDbLine
 10
256.260148
 20
16.761823
 30
0.0
 11
256.445145
 21
16.294823
 31
0.0
  0
LINE
  5
38a
100
AcDbEntity
  8
Layer_1
 62
7
100
AcDbLine
 10
256.445145
 20
16.294823
 30
0.0
 11
256.570141
 21
15.808823
 31
0.0
  0
LINE
  5
38b
100
AcDbEntity
  8
Layer_1
 62
7
100
AcDbLine
 10
256.570141
 20
15.808823
 30
0.0
 11
256.633162
 21
15.309823
 31
0.0
  0
LINE
  5
38c
100
AcDbEntity
  8
Layer_1
 62
7
100
AcDbLine
 10
256.633162
 20
15.309823
 30
0.0
 11
256.633162
 21
14.807823
 31
0.0
  0
LINE
  5
38d
100
AcDbEntity
  8
Layer_1
 62
7
100
AcDbLine
 10
256.633162
 20
14.807823
 30
0.0
 11
256.570141
 21
14.308823
 31
0.0
  0
LINE
  5
38e
100
AcDbEntity
  8
Layer_1
 62
7
100
AcDbLine
 10
256.570141
 20
14.308823
 30
0.0
 11
256.445145
 21
13.822823
 31
0.0
  0
LINE
  5
38f
100
AcDbEntity
  8
Layer_1
 62
7
100
AcDbLine
 10
256.445145
 20
13.822823
 30
0.0
 11
256.260148
 21
13.355823
 31
0.0
  0
LINE
  5
390
100
AcDbEntity
  8
Layer_1
 62
7
100
AcDbLine
 10
256.260148
 20
13.355823
 30
0.0
 11
256.018143
 21
12.915823
 31
0.0
  0
LINE
  5
391
100
AcDbEntity
  8
Layer_1
 62
7
100
AcDbLine
 10
256.018143
 20
12.915823
 30
0.0
 11
255.723164
 21
12.508823
 31
0.0
  0
LINE
  5
392
100
AcDbEntity
  8
Layer_1
 62
7
100
AcDbLine
 10
255.723164
 20
12.508823
 30
0.0
 11
255.379164
 21
12.142823
 31
0.0
  0
LINE
  5
393
100
AcDbEntity
  8
Layer_1
 62
7
100
AcDbLine
 10
255.379164
 20
12.142823
 30
0.0
 11
254.992152
 21
11.822823
 31
0.0
  0
LINE
  5
394
100
AcDbEntity
  8
Layer_1
 62
7
100
AcDbLine
 10
254.992152
 20
11.822823
 30
0.0
 11
254.568142
 21
11.553823
 31
0.0
  0
LINE
  5
395
100
AcDbEntity
  8
Layer_1
 62
7
100
AcDbLine
 10
254.568142
 20
11.553823
 30
0.0
 11
254.113143
 21
11.339823
 31
0.0
  0
LINE
  5
396
100
AcDbEntity
  8
Layer_1
 62
7
100
AcDbLine
 10
254.113143
 20
11.339823
 30
0.0
 11
253.636159
 21
11.184823
 31
0.0
  0
LINE
  5
397
100
AcDbEntity
  8
Layer_1
 62
7
100
AcDbLine
 10
253.636159
 20
11.184823
 30
0.0
 11
253.142157
 21
11.090823
 31
0.0
  0
LINE
  5
398
100
AcDbEntity
  8
Layer_1
 62
7
100
AcDbLine
 10
253.142157
 20
11.090823
 30
0.0
 11
252.641156
 21
11.058823
 31
0.0
  0
LINE
  5
399
100
AcDbEntity
  8
Layer_1
 62
7
100
AcDbLine
 10
252.641156
 20
11.058823
 30
0.0
 11
252.140156
 21
11.090823
 31
0.0
  0
LINE
  5
39a
100
AcDbEntity
  8
Layer_1
 62
7
100
AcDbLine
 10
252.140156
 20
11.090823
 30
0.0
 11
251.646154
 21
11.184823
 31
0.0
  0
LINE
  5
39b
100
AcDbEntity
  8
Layer_1
 62
7
100
AcDbLine
 10
251.646154
 20
11.184823
 30
0.0
 11
251.169142
 21
11.339823
 31
0.0
  0
LINE
  5
39c
100
AcDbEntity
  8
Layer_1
 62
7
100
AcDbLine
 10
251.169142
 20
11.339823
 30
0.0
 11
250.714143
 21
11.553823
 31
0.0
  0
LINE
  5
39d
100
AcDbEntity
  8
Layer_1
 62
7
100
AcDbLine
 10
250.714143
 20
11.553823
 30
0.0
 11
250.290161
 21
11.822823
 31
0.0
  0
LINE
  5
39e
100
AcDbEntity
  8
Layer_1
 62
7
100
AcDbLine
 10
250.290161
 20
11.822823
 30
0.0
 11
249.903149
 21
12.142823
 31
0.0
  0
LINE
  5
39f
100
AcDbEntity
  8
Layer_1
 62
7
100
AcDbLine
 10
249.903149
 20
12.142823
 30
0.0
 11
249.559149
 21
12.508823
 31
0.0
  0
LINE
  5
3a0
100
AcDbEntity
  8
Layer_1
 62
7
100
AcDbLine
 10
249.559149
 20
12.508823
 30
0.0
 11
249.264142
 21
12.915823
 31
0.0
  0
LINE
  5
3a1
100
AcDbEntity
  8
Layer_1
 62
7
100
AcDbLine
 10
249.264142
 20
12.915823
 30
0.0
 11
249.022164
 21
13.355823
 31
0.0
  0
LINE
  5
3a2
100
AcDbEntity
  8
Layer_1
 62
7
100
AcDbLine
 10
249.022164
 20
13.355823
 30
0.0
 11
248.837168
 21
13.822823
 31
0.0
  0
LINE
  5
3a3
100
AcDbEntity
  8
Layer_1
 62
7
100
AcDbLine
 10
248.837168
 20
13.822823
 30
0.0
 11
248.712143
 21
14.308823
 31
0.0
  0
LINE
  5
3a4
100
AcDbEntity
  8
Layer_1
 62
7
100
AcDbLine
 10
248.712143
 20
14.308823
 30
0.0
 11
248.649151
 21
14.807823
 31
0.0
  0
LINE
  5
3a5
100
AcDbEntity
  8
Layer_1
 62
7
100
AcDbLine
 10
248.649151
 20
14.807823
 30
0.0
 11
248.649151
 21
15.309823
 31
0.0
  0
LINE
  5
3a6
100
AcDbEntity
  8
Layer_1
 62
7
100
AcDbLine
 10
248.649151
 20
15.309823
 30
0.0
 11
248.712143
 21
15.808823
 31
0.0
  0
LINE
  5
3a7
100
AcDbEntity
  8
Layer_1
 62
7
100
AcDbLine
 10
248.712143
 20
15.808823
 30
0.0
 11
248.837168
 21
16.294823
 31
0.0
  0
LINE
  5
3a8
100
AcDbEntity
  8
Layer_1
 62
7
100
AcDbLine
 10
248.837168
 20
16.294823
 30
0.0
 11
249.022164
 21
16.761823
 31
0.0
  0
LINE
  5
3a9
100
AcDbEntity
  8
Layer_1
 62
7
100
AcDbLine
 10
249.022164
 20
16.761823
 30
0.0
 11
249.264142
 21
17.201823
 31
0.0
  0
LINE
  5
3aa
100
AcDbEntity
  8
Layer_1
 62
7
100
AcDbLine
 10
249.264142
 20
17.201823
 30
0.0
 11
249.559149
 21
17.608823
 31
0.0
  0
LINE
  5
3ab
100
AcDbEntity
  8
Layer_1
 62
7
100
AcDbLine
 10
249.559149
 20
17.608823
 30
0.0
 11
249.903149
 21
17.974823
 31
0.0
  0
LINE
  5
3ac
100
AcDbEntity
  8
Layer_1
 62
7
100
AcDbLine
 10
249.903149
 20
17.974823
 30
0.0
 11
250.290161
 21
18.294823
 31
0.0
  0
LINE
  5
3ad
100
AcDbEntity
  8
Layer_1
 62
7
100
AcDbLine
 10
250.290161
 20
18.294823
 30
0.0
 11
250.714143
 21
18.563823
 31
0.0
  0
LINE
  5
3ae
100
AcDbEntity
  8
Layer_1
 62
7
100
AcDbLine
 10
250.714143
 20
18.563823
 30
0.0
 11
251.169142
 21
18.777823
 31
0.0
  0
LINE
  5
3af
100
AcDbEntity
  8
Layer_1
 62
7
100
AcDbLine
 10
251.169142
 20
18.777823
 30
0.0
 11
251.646154
 21
18.932823
 31
0.0
  0
LINE
  5
3b0
100
AcDbEntity
  8
Layer_1
 62
7
100
AcDbLine
 10
251.646154
 20
18.932823
 30
0.0
 11
252.140156
 21
19.026823
 31
0.0
  0
LINE
  5
3b1
100
AcDbEntity
  8
Layer_1
 62
7
100
AcDbLine
 10
252.140156
 20
19.026823
 30
0.0
 11
252.641156
 21
19.058823
 31
0.0
  0
LINE
  5
3b2
100
AcDbEntity
  8
Layer_1
 62
7
100
AcDbLine
 10
242.641148
 20
59.458820
 30
0.0
 11
247.641166
 21
59.458820
 31
0.0
  0
LINE
  5
3b3
100
AcDbEntity
  8
Layer_1
 62
7
100
AcDbLine
 10
247.641166
 20
59.458820
 30
0.0
 11
247.641166
 21
54.558820
 31
0.0
  0
LINE
  5
3b4
100
AcDbEntity
  8
Layer_1
 62
7
100
AcDbLine
 10
247.641166
 20
54.558820
 30
0.0
 11
257.641146
 21
54.558820
 31
0.0
  0
LINE
  5
3b5
100
AcDbEntity
  8
Layer_1
 62
7
100
AcDbLine
 10
257.641146
 20
54.558820
 30
0.0
 11
257.641146
 21
59.458820
 31
0.0
  0
LINE
  5
3b6
100
AcDbEntity
  8
Layer_1
 62
7
100
AcDbLine
 10
257.641146
 20
59.458820
 30
0.0
 11
262.641165
 21
59.458820
 31
0.0
  0
LINE
  5
3b7
100
AcDbEntity
  8
Layer_1
 62
7
100
AcDbLine
 10
262.641165
 20
59.458820
 30
0.0
 11
262.641165
 21
29.858820
 31
0.0
  0
LINE
  5
3b8
100
AcDbEntity
  8
Layer_1
 62
7
100
AcDbLine
 10
262.641165
 20
29.858820
 30
0.0
 11
257.641146
 21
29.858820
 31
0.0
  0
LINE
  5
3b9
100
AcDbEntity
  8
Layer_1
 62
7
100
AcDbLine
 10
257.641146
 20
29.858820
 30
0.0
 11
257.641146
 21
34.758820
 31
0.0
  0
LINE
  5
3ba
100
AcDbEntity
  8
Layer_1
 62
7
100
AcDbLine
 10
257.641146
 20
34.758820
 30
0.0
 11
247.641166
 21
34.758820
 31
0.0
  0
LINE
  5
3bb
100
AcDbEntity
  8
Layer_1
 62
7
100
AcDbLine
 10
247.641166
 20
34.758820
 30
0.0
 11
247.641166
 21
29.858820
 31
0.0
  0
LINE
  5
3bc
100
AcDbEntity
  8
Layer_1
 62
7
100
AcDbLine
 10
247.641166
 20
29.858820
 30
0.0
 11
242.641148
 21
29.858820
 31
0.0
  0
LINE
  5
3bd
100
AcDbEntity
  8
Layer_1
 62
7
100
AcDbLine
 10
242.641148
 20
29.858820
 30
0.0
 11
242.641148
 21
59.458820
 31
0.0
  0
LINE
  5
3be
100
AcDbEntity
  8
Layer_1
 62
7
100
AcDbLine
 10
252.641156
 20
48.658820
 30
0.0
 11
253.142157
 21
48.626821
 31
0.0
  0
LINE
  5
3bf
100
AcDbEntity
  8
Layer_1
 62
7
100
AcDbLine
 10
253.142157
 20
48.626821
 30
0.0
 11
253.636159
 21
48.532820
 31
0.0
  0
LINE
  5
3c0
100
AcDbEntity
  8
Layer_1
 62
7
100
AcDbLine
 10
253.636159
 20
48.532820
 30
0.0
 11
254.113143
 21
48.377820
 31
0.0
  0
LINE
  5
3c1
100
AcDbEntity
  8
Layer_1
 62
7
100
AcDbLine
 10
254.113143
 20
48.377820
 30
0.0
 11
254.568142
 21
48.163820
 31
0.0
  0
LINE
  5
3c2
100
AcDbEntity
  8
Layer_1
 62
7
100
AcDbLine
 10
254.568142
 20
48.163820
 30
0.0
 11
254.992152
 21
47.894820
 31
0.0
  0
LINE
  5
3c3
100
AcDbEntity
  8
Layer_1
 62
7
100
AcDbLine
 10
254.992152
 20
47.894820
 30
0.0
 11
255.379164
 21
47.574820
 31
0.0
  0
LINE
  5
3c4
100
AcDbEntity
  8
Layer_1
 62
7
100
AcDbLine
 10
255.379164
 20
47.574820
 30
0.0
 11
255.723164
 21
47.208820
 31
0.0
  0
LINE
  5
3c5
100
AcDbEntity
  8
Layer_1
 62
7
100
AcDbLine
 10
255.723164
 20
47.208820
 30
0.0
 11
256.018143
 21
46.801820
 31
0.0
  0
LINE
  5
3c6
100
AcDbEntity
  8
Layer_1
 62
7
100
AcDbLine
 10
256.018143
 20
46.801820
 30
0.0
 11
256.260148
 21
46.361820
 31
0.0
  0
LINE
  5
3c7
100
AcDbEntity
  8
Layer_1
 62
7
100
AcDbLine
 10
256.260148
 20
46.361820
 30
0.0
 11
256.445145
 21
45.894820
 31
0.0
  0
LINE
  5
3c8
100
AcDbEntity
  8
Layer_1
 62
7
100
AcDbLine
 10
256.445145
 20
45.894820
 30
0.0
 11
256.570141
 21
45.408820
 31
0.0
  0
LINE
  5
3c9
100
AcDbEntity
  8
Layer_1
 62
7
100
AcDbLine
 10
256.570141
 20
45.408820
 30
0.0
 11
256.633162
 21
44.909820
 31
0.0
  0
LINE
  5
3ca
100
AcDbEntity
  8
Layer_1
 62
7
100
AcDbLine
 10
256.633162
 20
44.909820
 30
0.0
 11
256.633162
 21
44.407820
 31
0.0
  0
LINE
  5
3cb
100
AcDbEntity
  8
Layer_1
 62
7
100
AcDbLine
 10
256.633162
 20
44.407820
 30
0.0
 11
256.570141
 21
43.908820
 31
0.0
  0
LINE
  5
3cc
100
AcDbEntity
  8
Layer_1
 62
7
100
AcDbLine
 10
256.570141
 20
43.908820
 30
0.0
 11
256.445145
 21
43.422820
 31
0.0
  0
LINE
  5
3cd
100
AcDbEntity
  8
Layer_1
 62
7
100
AcDbLine
 10
256.445145
 20
43.422820
 30
0.0
 11
256.260148
 21
42.955820
 31
0.0
  0
LINE
  5
3ce
100
AcDbEntity
  8
Layer_1
 62
7
100
AcDbLine
 10
256.260148
 20
42.955820
 30
0.0
 11
256.018143
 21
42.515820
 31
0.0
  0
LINE
  5
3cf
100
AcDbEntity
  8
Layer_1
 62
7
100
AcDbLine
 10
256.018143
 20
42.515820
 30
0.0
 11
255.723164
 21
42.108820
 31
0.0
  0
LINE
  5
3d0
100
AcDbEntity
  8
Layer_1
 62
7
100
AcDbLine
 10
255.723164
 20
42.108820
 30
0.0
 11
255.379164
 21
41.742821
 31
0.0
  0
LINE
  5
3d1
100
AcDbEntity
  8
Layer_1
 62
7
100
AcDbLine
 10
255.379164
 20
41.742821
 30
0.0
 11
254.992152
 21
41.422820
 31
0.0
  0
LINE
  5
3d2
100
AcDbEntity
  8
Layer_1
 62
7
100
AcDbLine
 10
254.992152
 20
41.422820
 30
0.0
 11
254.568142
 21
41.153820
 31
0.0
  0
LINE
  5
3d3
100
AcDbEntity
  8
Layer_1
 62
7
100
AcDbLine
 10
254.568142
 20
41.153820
 30
0.0
 11
254.113143
 21
40.939820
 31
0.0
  0
LINE
  5
3d4
100
AcDbEntity
  8
Layer_1
 62
7
100
AcDbLine
 10
254.113143
 20
40.939820
 30
0.0
 11
253.636159
 21
40.784820
 31
0.0
  0
LINE
  5
3d5
100
AcDbEntity
  8
Layer_1
 62
7
100
AcDbLine
 10
253.636159
 20
40.784820
 30
0.0
 11
253.142157
 21
40.690820
 31
0.0
  0
LINE
  5
3d6
100
AcDbEntity
  8
Layer_1
 62
7
100
AcDbLine
 10
253.142157
 20
40.690820
 30
0.0
 11
252.641156
 21
40.658820
 31
0.0
  0
LINE
  5
3d7
100
AcDbEntity
  8
Layer_1
 62
7
100
AcDbLine
 10
252.641156
 20
40.658820
 30
0.0
 11
252.140156
 21
40.690820
 31
0.0
  0
LINE
  5
3d8
100
AcDbEntity
  8
Layer_1
 62
7
100
AcDbLine
 10
252.140156
 20
40.690820
 30
0.0
 11
251.646154
 21
40.784820
 31
0.0
  0
LINE
  5
3d9
100
AcDbEntity
  8
Layer_1
 62
7
100
AcDbLine
 10
251.646154
 20
40.784820
 30
0.0
 11
251.169142
 21
40.939820
 31
0.0
  0
LINE
  5
3da
100
AcDbEntity
  8
Layer_1
 62
7
100
AcDbLine
 10
251.169142
 20
40.939820
 30
0.0
 11
250.714143
 21
41.153820
 31
0.0
  0
LINE
  5
3db
100
AcDbEntity
  8
Layer_1
 62
7
100
AcDbLine
 10
250.714143
 20
41.153820
 30
0.0
 11
250.290161
 21
41.422820
 31
0.0
  0
LINE
  5
3dc
100
AcDbEntity
  8
Layer_1
 62
7
100
AcDbLine
 10
250.290161
 20
41.422820
 30
0.0
 11
249.903149
 21
41.742821
 31
0.0
  0
LINE
  5
3dd
100
AcDbEntity
  8
Layer_1
 62
7
100
AcDbLine
 10
249.903149
 20
41.742821
 30
0.0
 11
249.559149
 21
42.108820
 31
0.0
  0
LINE
  5
3de
100
AcDbEntity
  8
Layer_1
 62
7
100
AcDbLine
 10
249.559149
 20
42.108820
 30
0.0
 11
249.264142
 21
42.515820
 31
0.0
  0
LINE
  5
3df
100
AcDbEntity
  8
Layer_1
 62
7
100
AcDbLine
 10
249.264142
 20
42.515820
 30
0.0
 11
249.022164
 21
42.955820
 31
0.0
  0
LINE
  5
3e0
100
AcDbEntity
  8
Layer_1
 62
7
100
AcDbLine
 10
249.022164
 20
42.955820
 30
0.0
 11
248.837168
 21
43.422820
 31
0.0
  0
LINE
  5
3e1
100
AcDbEntity
  8
Layer_1
 62
7
100
AcDbLine
 10
248.837168
 20
43.422820
 30
0.0
 11
248.712143
 21
43.908820
 31
0.0
  0
LINE
  5
3e2
100
AcDbEntity
  8
Layer_1
 62
7
100
AcDbLine
 10
248.712143
 20
43.908820
 30
0.0
 11
248.649151
 21
44.407820
 31
0.0
  0
LINE
  5
3e3
100
AcDbEntity
  8
Layer_1
 62
7
100
AcDbLine
 10
248.649151
 20
44.407820
 30
0.0
 11
248.649151
 21
44.909820
 31
0.0
  0
LINE
  5
3e4
100
AcDbEntity
  8
Layer_1
 62
7
100
AcDbLine
 10
248.649151
 20
44.909820
 30
0.0
 11
248.712143
 21
45.408820
 31
0.0
  0
LINE
  5
3e5
100
AcDbEntity
  8
Layer_1
 62
7
100
AcDbLine
 10
248.712143
 20
45.408820
 30
0.0
 11
248.837168
 21
45.894820
 31
0.0
  0
LINE
  5
3e6
100
AcDbEntity
  8
Layer_1
 62
7
100
AcDbLine
 10
248.837168
 20
45.894820
 30
0.0
 11
249.022164
 21
46.361820
 31
0.0
  0
LINE
  5
3e7
100
AcDbEntity
  8
Layer_1
 62
7
100
AcDbLine
 10
249.022164
 20
46.361820
 30
0.0
 11
249.264142
 21
46.801820
 31
0.0
  0
LINE
  5
3e8
100
AcDbEntity
  8
Layer_1
 62
7
100
AcDbLine
 10
249.264142
 20
46.801820
 30
0.0
 11
249.559149
 21
47.208820
 31
0.0
  0
LINE
  5
3e9
100
AcDbEntity
  8
Layer_1
 62
7
100
AcDbLine
 10
249.559149
 20
47.208820
 30
0.0
 11
249.903149
 21
47.574820
 31
0.0
  0
LINE
  5
3ea
100
AcDbEntity
  8
Layer_1
 62
7
100
AcDbLine
 10
249.903149
 20
47.574820
 30
0.0
 11
250.290161
 21
47.894820
 31
0.0
  0
LINE
  5
3eb
100
AcDbEntity
  8
Layer_1
 62
7
100
AcDbLine
 10
250.290161
 20
47.894820
 30
0.0
 11
250.714143
 21
48.163820
 31
0.0
  0
LINE
  5
3ec
100
AcDbEntity
  8
Layer_1
 62
7
100
AcDbLine
 10
250.714143
 20
48.163820
 30
0.0
 11
251.169142
 21
48.377820
 31
0.0
  0
LINE
  5
3ed
100
AcDbEntity
  8
Layer_1
 62
7
100
AcDbLine
 10
251.169142
 20
48.377820
 30
0.0
 11
251.646154
 21
48.532820
 31
0.0
  0
LINE
  5
3ee
100
AcDbEntity
  8
Layer_1
 62
7
100
AcDbLine
 10
251.646154
 20
48.532820
 30
0.0
 11
252.140156
 21
48.626821
 31
0.0
  0
LINE
  5
3ef
100
AcDbEntity
  8
Layer_1
 62
7
100
AcDbLine
 10
252.140156
 20
48.626821
 30
0.0
 11
252.641156
 21
48.658820
 31
0.0
  0
ENDSEC
  0
SECTION
  2
OBJECTS
  0
DICTIONARY
  5
C
330
0
100
AcDbDictionary
  3
ACAD_GROUP
350
D
  3
ACAD_MLINESTYLE
350
17
  0
DICTIONARY
  5
D
330
C
100
AcDbDictionary
  0
DICTIONARY
  5
1A
330
C
100
AcDbDictionary
  0
DICTIONARY
  5
17
330
C
100
AcDbDictionary
  3
STANDARD
350
18
  0
DICTIONARY
  5
19
330
C
100
AcDbDictionary
  0
ENDSEC
  0
EOF
