  0
SECTION
  2
BLOCKS
  0
ENDSEC
  0
SECTION
  2
ENTITIES
  0
LINE
  8
0
 10
0
 11
0
 20
0
 21
55
  0
LINE
  8
0
 10
0
 11
55
 20
55
 21
55
  0
LINE
  8
0
 10
55
 11
55
 20
55
 21
0
  0
LINE
  8
0
 10
55
 11
0
 20
0
 21
0
  0
LINE
  8
0
 10
2.5
 11
2.512
 20
4
 21
4.188
  0
LINE
  8
0
 10
2.512
 11
2.547
 20
4.188
 21
4.373
  0
LINE
  8
0
 10
2.547
 11
2.605
 20
4.373
 21
4.552
  0
LINE
  8
0
 10
2.605
 11
2.686
 20
4.552
 21
4.723
  0
LINE
  8
0
 10
2.686
 11
2.786
 20
4.723
 21
4.882
  0
LINE
  8
0
 10
2.786
 11
2.907
 20
4.882
 21
5.027
  0
LINE
  8
0
 10
2.907
 11
3.044
 20
5.027
 21
5.156
  0
LINE
  8
0
 10
3.044
 11
3.196
 20
5.156
 21
5.266
  0
LINE
  8
0
 10
3.196
 11
3.361
 20
5.266
 21
5.357
  0
LINE
  8
0
 10
3.361
 11
3.536
 20
5.357
 21
5.427
  0
LINE
  8
0
 10
3.536
 11
3.719
 20
5.427
 21
5.473
  0
LINE
  8
0
 10
3.719
 11
3.906
 20
5.473
 21
5.497
  0
LINE
  8
0
 10
3.906
 11
4.094
 20
5.497
 21
5.497
  0
LINE
  8
0
 10
4.094
 11
4.281
 20
5.497
 21
5.473
  0
LINE
  8
0
 10
4.281
 11
4.464
 20
5.473
 21
5.427
  0
LINE
  8
0
 10
4.464
 11
4.639
 20
5.427
 21
5.357
  0
LINE
  8
0
 10
4.639
 11
4.804
 20
5.357
 21
5.266
  0
LINE
  8
0
 10
4.804
 11
4.956
 20
5.266
 21
5.156
  0
LINE
  8
0
 10
4.956
 11
5.093
 20
5.156
 21
5.027
  0
LINE
  8
0
 10
5.093
 11
5.214
 20
5.027
 21
4.882
  0
LINE
  8
0
 10
5.214
 11
5.314
 20
4.882
 21
4.723
  0
LINE
  8
0
 10
5.314
 11
5.395
 20
4.723
 21
4.552
  0
LINE
  8
0
 10
5.395
 11
5.453
 20
4.552
 21
4.373
  0
LINE
  8
0
 10
5.453
 11
5.488
 20
4.373
 21
4.188
  0
LINE
  8
0
 10
5.488
 11
5.5
 20
4.188
 21
4
  0
LINE
  8
0
 10
5.5
 11
5.488
 20
4
 21
3.812
  0
LINE
  8
0
 10
5.488
 11
5.453
 20
3.812
 21
3.627
  0
LINE
  8
0
 10
5.453
 11
5.395
 20
3.627
 21
3.448
  0
LINE
  8
0
 10
5.395
 11
5.314
 20
3.448
 21
3.277
  0
LINE
  8
0
 10
5.314
 11
5.214
 20
3.277
 21
3.118
  0
LINE
  8
0
 10
5.214
 11
5.093
 20
3.118
 21
2.973
  0
LINE
  8
0
 10
5.093
 11
4.956
 20
2.973
 21
2.844
  0
LINE
  8
0
 10
4.956
 11
4.804
 20
2.844
 21
2.734
  0
LINE
  8
0
 10
4.804
 11
4.639
 20
2.734
 21
2.643
  0
LINE
  8
0
 10
4.639
 11
4.464
 20
2.643
 21
2.573
  0
LINE
  8
0
 10
4.464
 11
4.281
 20
2.573
 21
2.527
  0
LINE
  8
0
 10
4.281
 11
4.094
 20
2.527
 21
2.503
  0
LINE
  8
0
 10
4.094
 11
3.906
 20
2.503
 21
2.503
  0
LINE
  8
0
 10
3.906
 11
3.719
 20
2.503
 21
2.527
  0
LINE
  8
0
 10
3.719
 11
3.536
 20
2.527
 21
2.573
  0
LINE
  8
0
 10
3.536
 11
3.361
 20
2.573
 21
2.643
  0
LINE
  8
0
 10
3.361
 11
3.196
 20
2.643
 21
2.734
  0
LINE
  8
0
 10
3.196
 11
3.044
 20
2.734
 21
2.844
  0
LINE
  8
0
 10
3.044
 11
2.907
 20
2.844
 21
2.973
  0
LINE
  8
0
 10
2.907
 11
2.786
 20
2.973
 21
3.118
  0
LINE
  8
0
 10
2.786
 11
2.686
 20
3.118
 21
3.277
  0
LINE
  8
0
 10
2.686
 11
2.605
 20
3.277
 21
3.448
  0
LINE
  8
0
 10
2.605
 11
2.547
 20
3.448
 21
3.627
  0
LINE
  8
0
 10
2.547
 11
2.512
 20
3.627
 21
3.812
  0
LINE
  8
0
 10
2.512
 11
2.5
 20
3.812
 21
4
  0
LINE
  8
0
 10
2.503
 11
2.503
 20
50.906
 21
51.094
  0
LINE
  8
0
 10
2.503
 11
2.527
 20
51.094
 21
51.281
  0
LINE
  8
0
 10
2.527
 11
2.573
 20
51.281
 21
51.464
  0
LINE
  8
0
 10
2.573
 11
2.643
 20
51.464
 21
51.639
  0
LINE
  8
0
 10
2.643
 11
2.734
 20
51.639
 21
51.804
  0
LINE
  8
0
 10
2.734
 11
2.844
 20
51.804
 21
51.956
  0
LINE
  8
0
 10
2.844
 11
2.973
 20
51.956
 21
52.093
  0
LINE
  8
0
 10
2.973
 11
3.118
 20
52.093
 21
52.214
  0
LINE
  8
0
 10
3.118
 11
3.277
 20
52.214
 21
52.314
  0
LINE
  8
0
 10
3.277
 11
3.448
 20
52.314
 21
52.395
  0
LINE
  8
0
 10
3.448
 11
3.627
 20
52.395
 21
52.453
  0
LINE
  8
0
 10
3.627
 11
3.812
 20
52.453
 21
52.488
  0
LINE
  8
0
 10
3.812
 11
4
 20
52.488
 21
52.5
  0
LINE
  8
0
 10
4
 11
4.188
 20
52.5
 21
52.488
  0
LINE
  8
0
 10
4.188
 11
4.373
 20
52.488
 21
52.453
  0
LINE
  8
0
 10
4.373
 11
4.552
 20
52.453
 21
52.395
  0
LINE
  8
0
 10
4.552
 11
4.723
 20
52.395
 21
52.314
  0
LINE
  8
0
 10
4.723
 11
4.882
 20
52.314
 21
52.214
  0
LINE
  8
0
 10
4.882
 11
5.027
 20
52.214
 21
52.093
  0
LINE
  8
0
 10
5.027
 11
5.156
 20
52.093
 21
51.956
  0
LINE
  8
0
 10
5.156
 11
5.266
 20
51.956
 21
51.804
  0
LINE
  8
0
 10
5.266
 11
5.357
 20
51.804
 21
51.639
  0
LINE
  8
0
 10
5.357
 11
5.427
 20
51.639
 21
51.464
  0
LINE
  8
0
 10
5.427
 11
5.473
 20
51.464
 21
51.281
  0
LINE
  8
0
 10
5.473
 11
5.497
 20
51.281
 21
51.094
  0
LINE
  8
0
 10
5.497
 11
5.497
 20
51.094
 21
50.906
  0
LINE
  8
0
 10
5.497
 11
5.473
 20
50.906
 21
50.719
  0
LINE
  8
0
 10
5.473
 11
5.427
 20
50.719
 21
50.536
  0
LINE
  8
0
 10
5.427
 11
5.357
 20
50.536
 21
50.361
  0
LINE
  8
0
 10
5.357
 11
5.266
 20
50.361
 21
50.196
  0
LINE
  8
0
 10
5.266
 11
5.156
 20
50.196
 21
50.044
  0
LINE
  8
0
 10
5.156
 11
5.027
 20
50.044
 21
49.907
  0
LINE
  8
0
 10
5.027
 11
4.882
 20
49.907
 21
49.786
  0
LINE
  8
0
 10
4.882
 11
4.723
 20
49.786
 21
49.686
  0
LINE
  8
0
 10
4.723
 11
4.552
 20
49.686
 21
49.605
  0
LINE
  8
0
 10
4.552
 11
4.373
 20
49.605
 21
49.547
  0
LINE
  8
0
 10
4.373
 11
4.188
 20
49.547
 21
49.512
  0
LINE
  8
0
 10
4.188
 11
4
 20
49.512
 21
49.5
  0
LINE
  8
0
 10
4
 11
3.812
 20
49.5
 21
49.512
  0
LINE
  8
0
 10
3.812
 11
3.627
 20
49.512
 21
49.547
  0
LINE
  8
0
 10
3.627
 11
3.448
 20
49.547
 21
49.605
  0
LINE
  8
0
 10
3.448
 11
3.277
 20
49.605
 21
49.686
  0
LINE
  8
0
 10
3.277
 11
3.118
 20
49.686
 21
49.786
  0
LINE
  8
0
 10
3.118
 11
2.973
 20
49.786
 21
49.907
  0
LINE
  8
0
 10
2.973
 11
2.844
 20
49.907
 21
50.044
  0
LINE
  8
0
 10
2.844
 11
2.734
 20
50.044
 21
50.196
  0
LINE
  8
0
 10
2.734
 11
2.643
 20
50.196
 21
50.361
  0
LINE
  8
0
 10
2.643
 11
2.573
 20
50.361
 21
50.536
  0
LINE
  8
0
 10
2.573
 11
2.527
 20
50.536
 21
50.719
  0
LINE
  8
0
 10
2.527
 11
2.503
 20
50.719
 21
50.906
  0
LINE
  8
0
 10
19.5
 11
19.563
 20
27.5
 21
28.503
  0
LINE
  8
0
 10
19.563
 11
19.751
 20
28.503
 21
29.49
  0
LINE
  8
0
 10
19.751
 11
20.062
 20
29.49
 21
30.445
  0
LINE
  8
0
 10
20.062
 11
20.49
 20
30.445
 21
31.354
  0
LINE
  8
0
 10
20.49
 11
21.028
 20
31.354
 21
32.202
  0
LINE
  8
0
 10
21.028
 11
21.668
 20
32.202
 21
32.976
  0
LINE
  8
0
 10
21.668
 11
22.401
 20
32.976
 21
33.664
  0
LINE
  8
0
 10
22.401
 11
23.213
 20
33.664
 21
34.255
  0
LINE
  8
0
 10
23.213
 11
24.094
 20
34.255
 21
34.739
  0
LINE
  8
0
 10
24.094
 11
25.028
 20
34.739
 21
35.108
  0
LINE
  8
0
 10
25.028
 11
26.001
 20
35.108
 21
35.358
  0
LINE
  8
0
 10
26.001
 11
26.998
 20
35.358
 21
35.484
  0
LINE
  8
0
 10
26.998
 11
28.002
 20
35.484
 21
35.484
  0
LINE
  8
0
 10
28.002
 11
28.999
 20
35.484
 21
35.358
  0
LINE
  8
0
 10
28.999
 11
29.972
 20
35.358
 21
35.108
  0
LINE
  8
0
 10
29.972
 11
30.906
 20
35.108
 21
34.739
  0
LINE
  8
0
 10
30.906
 11
31.787
 20
34.739
 21
34.255
  0
LINE
  8
0
 10
31.787
 11
32.599
 20
34.255
 21
33.664
  0
LINE
  8
0
 10
32.599
 11
33.332
 20
33.664
 21
32.976
  0
LINE
  8
0
 10
33.332
 11
33.972
 20
32.976
 21
32.202
  0
LINE
  8
0
 10
33.972
 11
34.51
 20
32.202
 21
31.354
  0
LINE
  8
0
 10
34.51
 11
34.938
 20
31.354
 21
30.445
  0
LINE
  8
0
 10
34.938
 11
35.249
 20
30.445
 21
29.49
  0
LINE
  8
0
 10
35.249
 11
35.437
 20
29.49
 21
28.503
  0
LINE
  8
0
 10
35.437
 11
35.5
 20
28.503
 21
27.5
  0
LINE
  8
0
 10
35.5
 11
35.437
 20
27.5
 21
26.497
  0
LINE
  8
0
 10
35.437
 11
35.249
 20
26.497
 21
25.51
  0
LINE
  8
0
 10
35.249
 11
34.938
 20
25.51
 21
24.555
  0
LINE
  8
0
 10
34.938
 11
34.51
 20
24.555
 21
23.646
  0
LINE
  8
0
 10
34.51
 11
33.972
 20
23.646
 21
22.798
  0
LINE
  8
0
 10
33.972
 11
33.332
 20
22.798
 21
22.024
  0
LINE
  8
0
 10
33.332
 11
32.599
 20
22.024
 21
21.336
  0
LINE
  8
0
 10
32.599
 11
31.787
 20
21.336
 21
20.745
  0
LINE
  8
0
 10
31.787
 11
30.906
 20
20.745
 21
20.261
  0
LINE
  8
0
 10
30.906
 11
29.972
 20
20.261
 21
19.892
  0
LINE
  8
0
 10
29.972
 11
28.999
 20
19.892
 21
19.642
  0
LINE
  8
0
 10
28.999
 11
28.002
 20
19.642
 21
19.516
  0
LINE
  8
0
 10
28.002
 11
26.998
 20
19.516
 21
19.516
  0
LINE
  8
0
 10
26.998
 11
26.001
 20
19.516
 21
19.642
  0
LINE
  8
0
 10
26.001
 11
25.028
 20
19.642
 21
19.892
  0
LINE
  8
0
 10
25.028
 11
24.094
 20
19.892
 21
20.261
  0
LINE
  8
0
 10
24.094
 11
23.213
 20
20.261
 21
20.745
  0
LINE
  8
0
 10
23.213
 11
22.401
 20
20.745
 21
21.336
  0
LINE
  8
0
 10
22.401
 11
21.668
 20
21.336
 21
22.024
  0
LINE
  8
0
 10
21.668
 11
21.028
 20
22.024
 21
22.798
  0
LINE
  8
0
 10
21.028
 11
20.49
 20
22.798
 21
23.646
  0
LINE
  8
0
 10
20.49
 11
20.062
 20
23.646
 21
24.555
  0
LINE
  8
0
 10
20.062
 11
19.751
 20
24.555
 21
25.51
  0
LINE
  8
0
 10
19.751
 11
19.563
 20
25.51
 21
26.497
  0
LINE
  8
0
 10
19.563
 11
19.5
 20
26.497
 21
27.5
  0
LINE
  8
0
 10
41
 11
41.032
 20
27.5
 21
28.001
  0
LINE
  8
0
 10
41.032
 11
41.126
 20
28.001
 21
28.495
  0
LINE
  8
0
 10
41.126
 11
41.281
 20
28.495
 21
28.972
  0
LINE
  8
0
 10
41.281
 11
41.495
 20
28.972
 21
29.427
  0
LINE
  8
0
 10
41.495
 11
41.764
 20
29.427
 21
29.851
  0
LINE
  8
0
 10
41.764
 11
42.084
 20
29.851
 21
30.238
  0
LINE
  8
0
 10
42.084
 11
42.45
 20
30.238
 21
30.582
  0
LINE
  8
0
 10
42.45
 11
42.857
 20
30.582
 21
30.877
  0
LINE
  8
0
 10
42.857
 11
43.297
 20
30.877
 21
31.119
  0
LINE
  8
0
 10
43.297
 11
43.764
 20
31.119
 21
31.304
  0
LINE
  8
0
 10
43.764
 11
44.25
 20
31.304
 21
31.429
  0
LINE
  8
0
 10
44.25
 11
44.749
 20
31.429
 21
31.492
  0
LINE
  8
0
 10
44.749
 11
45.251
 20
31.492
 21
31.492
  0
LINE
  8
0
 10
45.251
 11
45.75
 20
31.492
 21
31.429
  0
LINE
  8
0
 10
45.75
 11
46.236
 20
31.429
 21
31.304
  0
LINE
  8
0
 10
46.236
 11
46.703
 20
31.304
 21
31.119
  0
LINE
  8
0
 10
46.703
 11
47.143
 20
31.119
 21
30.877
  0
LINE
  8
0
 10
47.143
 11
47.55
 20
30.877
 21
30.582
  0
LINE
  8
0
 10
47.55
 11
47.916
 20
30.582
 21
30.238
  0
LINE
  8
0
 10
47.916
 11
48.236
 20
30.238
 21
29.851
  0
LINE
  8
0
 10
48.236
 11
48.505
 20
29.851
 21
29.427
  0
LINE
  8
0
 10
48.505
 11
48.719
 20
29.427
 21
28.972
  0
LINE
  8
0
 10
48.719
 11
48.874
 20
28.972
 21
28.495
  0
LINE
  8
0
 10
48.874
 11
48.968
 20
28.495
 21
28.001
  0
LINE
  8
0
 10
48.968
 11
49
 20
28.001
 21
27.5
  0
LINE
  8
0
 10
49
 11
48.968
 20
27.5
 21
26.999
  0
LINE
  8
0
 10
48.968
 11
48.874
 20
26.999
 21
26.505
  0
LINE
  8
0
 10
48.874
 11
48.719
 20
26.505
 21
26.028
  0
LINE
  8
0
 10
48.719
 11
48.505
 20
26.028
 21
25.573
  0
LINE
  8
0
 10
48.505
 11
48.236
 20
25.573
 21
25.149
  0
LINE
  8
0
 10
48.236
 11
47.916
 20
25.149
 21
24.762
  0
LINE
  8
0
 10
47.916
 11
47.55
 20
24.762
 21
24.418
  0
LINE
  8
0
 10
47.55
 11
47.143
 20
24.418
 21
24.123
  0
LINE
  8
0
 10
47.143
 11
46.703
 20
24.123
 21
23.881
  0
LINE
  8
0
 10
46.703
 11
46.236
 20
23.881
 21
23.696
  0
LINE
  8
0
 10
46.236
 11
45.75
 20
23.696
 21
23.571
  0
LINE
  8
0
 10
45.75
 11
45.251
 20
23.571
 21
23.508
  0
LINE
  8
0
 10
45.251
 11
44.749
 20
23.508
 21
23.508
  0
LINE
  8
0
 10
44.749
 11
44.25
 20
23.508
 21
23.571
  0
LINE
  8
0
 10
44.25
 11
43.764
 20
23.571
 21
23.696
  0
LINE
  8
0
 10
43.764
 11
43.297
 20
23.696
 21
23.881
  0
LINE
  8
0
 10
43.297
 11
42.857
 20
23.881
 21
24.123
  0
LINE
  8
0
 10
42.857
 11
42.45
 20
24.123
 21
24.418
  0
LINE
  8
0
 10
42.45
 11
42.084
 20
24.418
 21
24.762
  0
LINE
  8
0
 10
42.084
 11
41.764
 20
24.762
 21
25.149
  0
LINE
  8
0
 10
41.764
 11
41.495
 20
25.149
 21
25.573
  0
LINE
  8
0
 10
41.495
 11
41.281
 20
25.573
 21
26.028
  0
LINE
  8
0
 10
41.281
 11
41.126
 20
26.028
 21
26.505
  0
LINE
  8
0
 10
41.126
 11
41.032
 20
26.505
 21
26.999
  0
LINE
  8
0
 10
41.032
 11
41
 20
26.999
 21
27.5
  0
LINE
  8
0
 10
49.5
 11
49.512
 20
51
 21
51.188
  0
LINE
  8
0
 10
49.512
 11
49.547
 20
51.188
 21
51.373
  0
LINE
  8
0
 10
49.547
 11
49.605
 20
51.373
 21
51.552
  0
LINE
  8
0
 10
49.605
 11
49.686
 20
51.552
 21
51.723
  0
LINE
  8
0
 10
49.686
 11
49.786
 20
51.723
 21
51.882
  0
LINE
  8
0
 10
49.786
 11
49.907
 20
51.882
 21
52.027
  0
LINE
  8
0
 10
49.907
 11
50.044
 20
52.027
 21
52.156
  0
LINE
  8
0
 10
50.044
 11
50.196
 20
52.156
 21
52.266
  0
LINE
  8
0
 10
50.196
 11
50.361
 20
52.266
 21
52.357
  0
LINE
  8
0
 10
50.361
 11
50.536
 20
52.357
 21
52.427
  0
LINE
  8
0
 10
50.536
 11
50.719
 20
52.427
 21
52.473
  0
LINE
  8
0
 10
50.719
 11
50.906
 20
52.473
 21
52.497
  0
LINE
  8
0
 10
50.906
 11
51.094
 20
52.497
 21
52.497
  0
LINE
  8
0
 10
51.094
 11
51.281
 20
52.497
 21
52.473
  0
LINE
  8
0
 10
51.281
 11
51.464
 20
52.473
 21
52.427
  0
LINE
  8
0
 10
51.464
 11
51.639
 20
52.427
 21
52.357
  0
LINE
  8
0
 10
51.639
 11
51.804
 20
52.357
 21
52.266
  0
LINE
  8
0
 10
51.804
 11
51.956
 20
52.266
 21
52.156
  0
LINE
  8
0
 10
51.956
 11
52.093
 20
52.156
 21
52.027
  0
LINE
  8
0
 10
52.093
 11
52.214
 20
52.027
 21
51.882
  0
LINE
  8
0
 10
52.214
 11
52.314
 20
51.882
 21
51.723
  0
LINE
  8
0
 10
52.314
 11
52.395
 20
51.723
 21
51.552
  0
LINE
  8
0
 10
52.395
 11
52.453
 20
51.552
 21
51.373
  0
LINE
  8
0
 10
52.453
 11
52.488
 20
51.373
 21
51.188
  0
LINE
  8
0
 10
52.488
 11
52.5
 20
51.188
 21
51
  0
LINE
  8
0
 10
52.5
 11
52.488
 20
51
 21
50.812
  0
LINE
  8
0
 10
52.488
 11
52.453
 20
50.812
 21
50.627
  0
LINE
  8
0
 10
52.453
 11
52.395
 20
50.627
 21
50.448
  0
LINE
  8
0
 10
52.395
 11
52.314
 20
50.448
 21
50.277
  0
LINE
  8
0
 10
52.314
 11
52.214
 20
50.277
 21
50.118
  0
LINE
  8
0
 10
52.214
 11
52.093
 20
50.118
 21
49.973
  0
LINE
  8
0
 10
52.093
 11
51.956
 20
49.973
 21
49.844
  0
LINE
  8
0
 10
51.956
 11
51.804
 20
49.844
 21
49.734
  0
LINE
  8
0
 10
51.804
 11
51.639
 20
49.734
 21
49.643
  0
LINE
  8
0
 10
51.639
 11
51.464
 20
49.643
 21
49.573
  0
LINE
  8
0
 10
51.464
 11
51.281
 20
49.573
 21
49.527
  0
LINE
  8
0
 10
51.281
 11
51.094
 20
49.527
 21
49.503
  0
LINE
  8
0
 10
51.094
 11
50.906
 20
49.503
 21
49.503
  0
LINE
  8
0
 10
50.906
 11
50.719
 20
49.503
 21
49.527
  0
LINE
  8
0
 10
50.719
 11
50.536
 20
49.527
 21
49.573
  0
LINE
  8
0
 10
50.536
 11
50.361
 20
49.573
 21
49.643
  0
LINE
  8
0
 10
50.361
 11
50.196
 20
49.643
 21
49.734
  0
LINE
  8
0
 10
50.196
 11
50.044
 20
49.734
 21
49.844
  0
LINE
  8
0
 10
50.044
 11
49.907
 20
49.844
 21
49.973
  0
LINE
  8
0
 10
49.907
 11
49.786
 20
49.973
 21
50.118
  0
LINE
  8
0
 10
49.786
 11
49.686
 20
50.118
 21
50.277
  0
LINE
  8
0
 10
49.686
 11
49.605
 20
50.277
 21
50.448
  0
LINE
  8
0
 10
49.605
 11
49.547
 20
50.448
 21
50.627
  0
LINE
  8
0
 10
49.547
 11
49.512
 20
50.627
 21
50.812
  0
LINE
  8
0
 10
49.512
 11
49.5
 20
50.812
 21
51
  0
LINE
  8
0
 10
49.503
 11
49.503
 20
3.906
 21
4.094
  0
LINE
  8
0
 10
49.503
 11
49.527
 20
4.094
 21
4.281
  0
LINE
  8
0
 10
49.527
 11
49.573
 20
4.281
 21
4.464
  0
LINE
  8
0
 10
49.573
 11
49.643
 20
4.464
 21
4.639
  0
LINE
  8
0
 10
49.643
 11
49.734
 20
4.639
 21
4.804
  0
LINE
  8
0
 10
49.734
 11
49.844
 20
4.804
 21
4.956
  0
LINE
  8
0
 10
49.844
 11
49.973
 20
4.956
 21
5.093
  0
LINE
  8
0
 10
49.973
 11
50.118
 20
5.093
 21
5.214
  0
LINE
  8
0
 10
50.118
 11
50.277
 20
5.214
 21
5.314
  0
LINE
  8
0
 10
50.277
 11
50.448
 20
5.314
 21
5.395
  0
LINE
  8
0
 10
50.448
 11
50.627
 20
5.395
 21
5.453
  0
LINE
  8
0
 10
50.627
 11
50.812
 20
5.453
 21
5.488
  0
LINE
  8
0
 10
50.812
 11
51
 20
5.488
 21
5.5
  0
LINE
  8
0
 10
51
 11
51.188
 20
5.5
 21
5.488
  0
LINE
  8
0
 10
51.188
 11
51.373
 20
5.488
 21
5.453
  0
LINE
  8
0
 10
51.373
 11
51.552
 20
5.453
 21
5.395
  0
LINE
  8
0
 10
51.552
 11
51.723
 20
5.395
 21
5.314
  0
LINE
  8
0
 10
51.723
 11
51.882
 20
5.314
 21
5.214
  0
LINE
  8
0
 10
51.882
 11
52.027
 20
5.214
 21
5.093
  0
LINE
  8
0
 10
52.027
 11
52.156
 20
5.093
 21
4.956
  0
LINE
  8
0
 10
52.156
 11
52.266
 20
4.956
 21
4.804
  0
LINE
  8
0
 10
52.266
 11
52.357
 20
4.804
 21
4.639
  0
LINE
  8
0
 10
52.357
 11
52.427
 20
4.639
 21
4.464
  0
LINE
  8
0
 10
52.427
 11
52.473
 20
4.464
 21
4.281
  0
LINE
  8
0
 10
52.473
 11
52.497
 20
4.281
 21
4.094
  0
LINE
  8
0
 10
52.497
 11
52.497
 20
4.094
 21
3.906
  0
LINE
  8
0
 10
52.497
 11
52.473
 20
3.906
 21
3.719
  0
LINE
  8
0
 10
52.473
 11
52.427
 20
3.719
 21
3.536
  0
LINE
  8
0
 10
52.427
 11
52.357
 20
3.536
 21
3.361
  0
LINE
  8
0
 10
52.357
 11
52.266
 20
3.361
 21
3.196
  0
LINE
  8
0
 10
52.266
 11
52.156
 20
3.196
 21
3.044
  0
LINE
  8
0
 10
52.156
 11
52.027
 20
3.044
 21
2.907
  0
LINE
  8
0
 10
52.027
 11
51.882
 20
2.907
 21
2.786
  0
LINE
  8
0
 10
51.882
 11
51.723
 20
2.786
 21
2.686
  0
LINE
  8
0
 10
51.723
 11
51.552
 20
2.686
 21
2.605
  0
LINE
  8
0
 10
51.552
 11
51.373
 20
2.605
 21
2.547
  0
LINE
  8
0
 10
51.373
 11
51.188
 20
2.547
 21
2.512
  0
LINE
  8
0
 10
51.188
 11
51
 20
2.512
 21
2.5
  0
LINE
  8
0
 10
51
 11
50.812
 20
2.5
 21
2.512
  0
LINE
  8
0
 10
50.812
 11
50.627
 20
2.512
 21
2.547
  0
LINE
  8
0
 10
50.627
 11
50.448
 20
2.547
 21
2.605
  0
LINE
  8
0
 10
50.448
 11
50.277
 20
2.605
 21
2.686
  0
LINE
  8
0
 10
50.277
 11
50.118
 20
2.686
 21
2.786
  0
LINE
  8
0
 10
50.118
 11
49.973
 20
2.786
 21
2.907
  0
LINE
  8
0
 10
49.973
 11
49.844
 20
2.907
 21
3.044
  0
LINE
  8
0
 10
49.844
 11
49.734
 20
3.044
 21
3.196
  0
LINE
  8
0
 10
49.734
 11
49.643
 20
3.196
 21
3.361
  0
LINE
  8
0
 10
49.643
 11
49.573
 20
3.361
 21
3.536
  0
LINE
  8
0
 10
49.573
 11
49.527
 20
3.536
 21
3.719
  0
LINE
  8
0
 10
49.527
 11
49.503
 20
3.719
 21
3.906
  0
ENDSEC
  0
SECTION
  2
OBJECTS
  0
DICTIONARY
  0
ENDSEC
  0
EOF
