  0
SECTION
  2
BLOCKS
  0
ENDSEC
  0
SECTION
  2
ENTITIES
  0
LINE
  8
0
 10
0
 11
0
 20
0
 21
55
  0
LINE
  8
0
 10
0
 11
55
 20
55
 21
55
  0
LINE
  8
0
 10
55
 11
55
 20
55
 21
0
  0
LINE
  8
0
 10
55
 11
0
 20
0
 21
0
  0
LINE
  8
0
 10
2.5
 11
2.512
 20
4
 21
4.188
  0
LINE
  8
0
 10
2.512
 11
2.547
 20
4.188
 21
4.373
  0
LINE
  8
0
 10
2.547
 11
2.605
 20
4.373
 21
4.552
  0
LINE
  8
0
 10
2.605
 11
2.686
 20
4.552
 21
4.723
  0
LINE
  8
0
 10
2.686
 11
2.786
 20
4.723
 21
4.882
  0
LINE
  8
0
 10
2.786
 11
2.907
 20
4.882
 21
5.027
  0
LINE
  8
0
 10
2.907
 11
3.044
 20
5.027
 21
5.156
  0
LINE
  8
0
 10
3.044
 11
3.196
 20
5.156
 21
5.266
  0
LINE
  8
0
 10
3.196
 11
3.361
 20
5.266
 21
5.357
  0
LINE
  8
0
 10
3.361
 11
3.536
 20
5.357
 21
5.427
  0
LINE
  8
0
 10
3.536
 11
3.719
 20
5.427
 21
5.473
  0
LINE
  8
0
 10
3.719
 11
3.906
 20
5.473
 21
5.497
  0
LINE
  8
0
 10
3.906
 11
4.094
 20
5.497
 21
5.497
  0
LINE
  8
0
 10
4.094
 11
4.281
 20
5.497
 21
5.473
  0
LINE
  8
0
 10
4.281
 11
4.464
 20
5.473
 21
5.427
  0
LINE
  8
0
 10
4.464
 11
4.639
 20
5.427
 21
5.357
  0
LINE
  8
0
 10
4.639
 11
4.804
 20
5.357
 21
5.266
  0
LINE
  8
0
 10
4.804
 11
4.956
 20
5.266
 21
5.156
  0
LINE
  8
0
 10
4.956
 11
5.093
 20
5.156
 21
5.027
  0
LINE
  8
0
 10
5.093
 11
5.214
 20
5.027
 21
4.882
  0
LINE
  8
0
 10
5.214
 11
5.314
 20
4.882
 21
4.723
  0
LINE
  8
0
 10
5.314
 11
5.395
 20
4.723
 21
4.552
  0
LINE
  8
0
 10
5.395
 11
5.453
 20
4.552
 21
4.373
  0
LINE
  8
0
 10
5.453
 11
5.488
 20
4.373
 21
4.188
  0
LINE
  8
0
 10
5.488
 11
5.5
 20
4.188
 21
4
  0
LINE
  8
0
 10
5.5
 11
5.488
 20
4
 21
3.812
  0
LINE
  8
0
 10
5.488
 11
5.453
 20
3.812
 21
3.627
  0
LINE
  8
0
 10
5.453
 11
5.395
 20
3.627
 21
3.448
  0
LINE
  8
0
 10
5.395
 11
5.314
 20
3.448
 21
3.277
  0
LINE
  8
0
 10
5.314
 11
5.214
 20
3.277
 21
3.118
  0
LINE
  8
0
 10
5.214
 11
5.093
 20
3.118
 21
2.973
  0
LINE
  8
0
 10
5.093
 11
4.956
 20
2.973
 21
2.844
  0
LINE
  8
0
 10
4.956
 11
4.804
 20
2.844
 21
2.734
  0
LINE
  8
0
 10
4.804
 11
4.639
 20
2.734
 21
2.643
  0
LINE
  8
0
 10
4.639
 11
4.464
 20
2.643
 21
2.573
  0
LINE
  8
0
 10
4.464
 11
4.281
 20
2.573
 21
2.527
  0
LINE
  8
0
 10
4.281
 11
4.094
 20
2.527
 21
2.503
  0
LINE
  8
0
 10
4.094
 11
3.906
 20
2.503
 21
2.503
  0
LINE
  8
0
 10
3.906
 11
3.719
 20
2.503
 21
2.527
  0
LINE
  8
0
 10
3.719
 11
3.536
 20
2.527
 21
2.573
  0
LINE
  8
0
 10
3.536
 11
3.361
 20
2.573
 21
2.643
  0
LINE
  8
0
 10
3.361
 11
3.196
 20
2.643
 21
2.734
  0
LINE
  8
0
 10
3.196
 11
3.044
 20
2.734
 21
2.844
  0
LINE
  8
0
 10
3.044
 11
2.907
 20
2.844
 21
2.973
  0
LINE
  8
0
 10
2.907
 11
2.786
 20
2.973
 21
3.118
  0
LINE
  8
0
 10
2.786
 11
2.686
 20
3.118
 21
3.277
  0
LINE
  8
0
 10
2.686
 11
2.605
 20
3.277
 21
3.448
  0
LINE
  8
0
 10
2.605
 11
2.547
 20
3.448
 21
3.627
  0
LINE
  8
0
 10
2.547
 11
2.512
 20
3.627
 21
3.812
  0
LINE
  8
0
 10
2.512
 11
2.5
 20
3.812
 21
4
  0
LINE
  8
0
 10
2.503
 11
2.503
 20
50.906
 21
51.094
  0
LINE
  8
0
 10
2.503
 11
2.527
 20
51.094
 21
51.281
  0
LINE
  8
0
 10
2.527
 11
2.573
 20
51.281
 21
51.464
  0
LINE
  8
0
 10
2.573
 11
2.643
 20
51.464
 21
51.639
  0
LINE
  8
0
 10
2.643
 11
2.734
 20
51.639
 21
51.804
  0
LINE
  8
0
 10
2.734
 11
2.844
 20
51.804
 21
51.956
  0
LINE
  8
0
 10
2.844
 11
2.973
 20
51.956
 21
52.093
  0
LINE
  8
0
 10
2.973
 11
3.118
 20
52.093
 21
52.214
  0
LINE
  8
0
 10
3.118
 11
3.277
 20
52.214
 21
52.314
  0
LINE
  8
0
 10
3.277
 11
3.448
 20
52.314
 21
52.395
  0
LINE
  8
0
 10
3.448
 11
3.627
 20
52.395
 21
52.453
  0
LINE
  8
0
 10
3.627
 11
3.812
 20
52.453
 21
52.488
  0
LINE
  8
0
 10
3.812
 11
4
 20
52.488
 21
52.5
  0
LINE
  8
0
 10
4
 11
4.188
 20
52.5
 21
52.488
  0
LINE
  8
0
 10
4.188
 11
4.373
 20
52.488
 21
52.453
  0
LINE
  8
0
 10
4.373
 11
4.552
 20
52.453
 21
52.395
  0
LINE
  8
0
 10
4.552
 11
4.723
 20
52.395
 21
52.314
  0
LINE
  8
0
 10
4.723
 11
4.882
 20
52.314
 21
52.214
  0
LINE
  8
0
 10
4.882
 11
5.027
 20
52.214
 21
52.093
  0
LINE
  8
0
 10
5.027
 11
5.156
 20
52.093
 21
51.956
  0
LINE
  8
0
 10
5.156
 11
5.266
 20
51.956
 21
51.804
  0
LINE
  8
0
 10
5.266
 11
5.357
 20
51.804
 21
51.639
  0
LINE
  8
0
 10
5.357
 11
5.427
 20
51.639
 21
51.464
  0
LINE
  8
0
 10
5.427
 11
5.473
 20
51.464
 21
51.281
  0
LINE
  8
0
 10
5.473
 11
5.497
 20
51.281
 21
51.094
  0
LINE
  8
0
 10
5.497
 11
5.497
 20
51.094
 21
50.906
  0
LINE
  8
0
 10
5.497
 11
5.473
 20
50.906
 21
50.719
  0
LINE
  8
0
 10
5.473
 11
5.427
 20
50.719
 21
50.536
  0
LINE
  8
0
 10
5.427
 11
5.357
 20
50.536
 21
50.361
  0
LINE
  8
0
 10
5.357
 11
5.266
 20
50.361
 21
50.196
  0
LINE
  8
0
 10
5.266
 11
5.156
 20
50.196
 21
50.044
  0
LINE
  8
0
 10
5.156
 11
5.027
 20
50.044
 21
49.907
  0
LINE
  8
0
 10
5.027
 11
4.882
 20
49.907
 21
49.786
  0
LINE
  8
0
 10
4.882
 11
4.723
 20
49.786
 21
49.686
  0
LINE
  8
0
 10
4.723
 11
4.552
 20
49.686
 21
49.605
  0
LINE
  8
0
 10
4.552
 11
4.373
 20
49.605
 21
49.547
  0
LINE
  8
0
 10
4.373
 11
4.188
 20
49.547
 21
49.512
  0
LINE
  8
0
 10
4.188
 11
4
 20
49.512
 21
49.5
  0
LINE
  8
0
 10
4
 11
3.812
 20
49.5
 21
49.512
  0
LINE
  8
0
 10
3.812
 11
3.627
 20
49.512
 21
49.547
  0
LINE
  8
0
 10
3.627
 11
3.448
 20
49.547
 21
49.605
  0
LINE
  8
0
 10
3.448
 11
3.277
 20
49.605
 21
49.686
  0
LINE
  8
0
 10
3.277
 11
3.118
 20
49.686
 21
49.786
  0
LINE
  8
0
 10
3.118
 11
2.973
 20
49.786
 21
49.907
  0
LINE
  8
0
 10
2.973
 11
2.844
 20
49.907
 21
50.044
  0
LINE
  8
0
 10
2.844
 11
2.734
 20
50.044
 21
50.196
  0
LINE
  8
0
 10
2.734
 11
2.643
 20
50.196
 21
50.361
  0
LINE
  8
0
 10
2.643
 11
2.573
 20
50.361
 21
50.536
  0
LINE
  8
0
 10
2.573
 11
2.527
 20
50.536
 21
50.719
  0
LINE
  8
0
 10
2.527
 11
2.503
 20
50.719
 21
50.906
  0
LINE
  8
0
 10
6.1
 11
6.1
 20
6.1
 21
48.9
  0
LINE
  8
0
 10
6.1
 11
48.9
 20
48.9
 21
48.9
  0
LINE
  8
0
 10
48.9
 11
48.9
 20
48.9
 21
6.1
  0
LINE
  8
0
 10
48.9
 11
6.1
 20
6.1
 21
6.1
  0
LINE
  8
0
 10
49.5
 11
49.512
 20
51
 21
51.188
  0
LINE
  8
0
 10
49.512
 11
49.547
 20
51.188
 21
51.373
  0
LINE
  8
0
 10
49.547
 11
49.605
 20
51.373
 21
51.552
  0
LINE
  8
0
 10
49.605
 11
49.686
 20
51.552
 21
51.723
  0
LINE
  8
0
 10
49.686
 11
49.786
 20
51.723
 21
51.882
  0
LINE
  8
0
 10
49.786
 11
49.907
 20
51.882
 21
52.027
  0
LINE
  8
0
 10
49.907
 11
50.044
 20
52.027
 21
52.156
  0
LINE
  8
0
 10
50.044
 11
50.196
 20
52.156
 21
52.266
  0
LINE
  8
0
 10
50.196
 11
50.361
 20
52.266
 21
52.357
  0
LINE
  8
0
 10
50.361
 11
50.536
 20
52.357
 21
52.427
  0
LINE
  8
0
 10
50.536
 11
50.719
 20
52.427
 21
52.473
  0
LINE
  8
0
 10
50.719
 11
50.906
 20
52.473
 21
52.497
  0
LINE
  8
0
 10
50.906
 11
51.094
 20
52.497
 21
52.497
  0
LINE
  8
0
 10
51.094
 11
51.281
 20
52.497
 21
52.473
  0
LINE
  8
0
 10
51.281
 11
51.464
 20
52.473
 21
52.427
  0
LINE
  8
0
 10
51.464
 11
51.639
 20
52.427
 21
52.357
  0
LINE
  8
0
 10
51.639
 11
51.804
 20
52.357
 21
52.266
  0
LINE
  8
0
 10
51.804
 11
51.956
 20
52.266
 21
52.156
  0
LINE
  8
0
 10
51.956
 11
52.093
 20
52.156
 21
52.027
  0
LINE
  8
0
 10
52.093
 11
52.214
 20
52.027
 21
51.882
  0
LINE
  8
0
 10
52.214
 11
52.314
 20
51.882
 21
51.723
  0
LINE
  8
0
 10
52.314
 11
52.395
 20
51.723
 21
51.552
  0
LINE
  8
0
 10
52.395
 11
52.453
 20
51.552
 21
51.373
  0
LINE
  8
0
 10
52.453
 11
52.488
 20
51.373
 21
51.188
  0
LINE
  8
0
 10
52.488
 11
52.5
 20
51.188
 21
51
  0
LINE
  8
0
 10
52.5
 11
52.488
 20
51
 21
50.812
  0
LINE
  8
0
 10
52.488
 11
52.453
 20
50.812
 21
50.627
  0
LINE
  8
0
 10
52.453
 11
52.395
 20
50.627
 21
50.448
  0
LINE
  8
0
 10
52.395
 11
52.314
 20
50.448
 21
50.277
  0
LINE
  8
0
 10
52.314
 11
52.214
 20
50.277
 21
50.118
  0
LINE
  8
0
 10
52.214
 11
52.093
 20
50.118
 21
49.973
  0
LINE
  8
0
 10
52.093
 11
51.956
 20
49.973
 21
49.844
  0
LINE
  8
0
 10
51.956
 11
51.804
 20
49.844
 21
49.734
  0
LINE
  8
0
 10
51.804
 11
51.639
 20
49.734
 21
49.643
  0
LINE
  8
0
 10
51.639
 11
51.464
 20
49.643
 21
49.573
  0
LINE
  8
0
 10
51.464
 11
51.281
 20
49.573
 21
49.527
  0
LINE
  8
0
 10
51.281
 11
51.094
 20
49.527
 21
49.503
  0
LINE
  8
0
 10
51.094
 11
50.906
 20
49.503
 21
49.503
  0
LINE
  8
0
 10
50.906
 11
50.719
 20
49.503
 21
49.527
  0
LINE
  8
0
 10
50.719
 11
50.536
 20
49.527
 21
49.573
  0
LINE
  8
0
 10
50.536
 11
50.361
 20
49.573
 21
49.643
  0
LINE
  8
0
 10
50.361
 11
50.196
 20
49.643
 21
49.734
  0
LINE
  8
0
 10
50.196
 11
50.044
 20
49.734
 21
49.844
  0
LINE
  8
0
 10
50.044
 11
49.907
 20
49.844
 21
49.973
  0
LINE
  8
0
 10
49.907
 11
49.786
 20
49.973
 21
50.118
  0
LINE
  8
0
 10
49.786
 11
49.686
 20
50.118
 21
50.277
  0
LINE
  8
0
 10
49.686
 11
49.605
 20
50.277
 21
50.448
  0
LINE
  8
0
 10
49.605
 11
49.547
 20
50.448
 21
50.627
  0
LINE
  8
0
 10
49.547
 11
49.512
 20
50.627
 21
50.812
  0
LINE
  8
0
 10
49.512
 11
49.5
 20
50.812
 21
51
  0
LINE
  8
0
 10
49.503
 11
49.503
 20
3.906
 21
4.094
  0
LINE
  8
0
 10
49.503
 11
49.527
 20
4.094
 21
4.281
  0
LINE
  8
0
 10
49.527
 11
49.573
 20
4.281
 21
4.464
  0
LINE
  8
0
 10
49.573
 11
49.643
 20
4.464
 21
4.639
  0
LINE
  8
0
 10
49.643
 11
49.734
 20
4.639
 21
4.804
  0
LINE
  8
0
 10
49.734
 11
49.844
 20
4.804
 21
4.956
  0
LINE
  8
0
 10
49.844
 11
49.973
 20
4.956
 21
5.093
  0
LINE
  8
0
 10
49.973
 11
50.118
 20
5.093
 21
5.214
  0
LINE
  8
0
 10
50.118
 11
50.277
 20
5.214
 21
5.314
  0
LINE
  8
0
 10
50.277
 11
50.448
 20
5.314
 21
5.395
  0
LINE
  8
0
 10
50.448
 11
50.627
 20
5.395
 21
5.453
  0
LINE
  8
0
 10
50.627
 11
50.812
 20
5.453
 21
5.488
  0
LINE
  8
0
 10
50.812
 11
51
 20
5.488
 21
5.5
  0
LINE
  8
0
 10
51
 11
51.188
 20
5.5
 21
5.488
  0
LINE
  8
0
 10
51.188
 11
51.373
 20
5.488
 21
5.453
  0
LINE
  8
0
 10
51.373
 11
51.552
 20
5.453
 21
5.395
  0
LINE
  8
0
 10
51.552
 11
51.723
 20
5.395
 21
5.314
  0
LINE
  8
0
 10
51.723
 11
51.882
 20
5.314
 21
5.214
  0
LINE
  8
0
 10
51.882
 11
52.027
 20
5.214
 21
5.093
  0
LINE
  8
0
 10
52.027
 11
52.156
 20
5.093
 21
4.956
  0
LINE
  8
0
 10
52.156
 11
52.266
 20
4.956
 21
4.804
  0
LINE
  8
0
 10
52.266
 11
52.357
 20
4.804
 21
4.639
  0
LINE
  8
0
 10
52.357
 11
52.427
 20
4.639
 21
4.464
  0
LINE
  8
0
 10
52.427
 11
52.473
 20
4.464
 21
4.281
  0
LINE
  8
0
 10
52.473
 11
52.497
 20
4.281
 21
4.094
  0
LINE
  8
0
 10
52.497
 11
52.497
 20
4.094
 21
3.906
  0
LINE
  8
0
 10
52.497
 11
52.473
 20
3.906
 21
3.719
  0
LINE
  8
0
 10
52.473
 11
52.427
 20
3.719
 21
3.536
  0
LINE
  8
0
 10
52.427
 11
52.357
 20
3.536
 21
3.361
  0
LINE
  8
0
 10
52.357
 11
52.266
 20
3.361
 21
3.196
  0
LINE
  8
0
 10
52.266
 11
52.156
 20
3.196
 21
3.044
  0
LINE
  8
0
 10
52.156
 11
52.027
 20
3.044
 21
2.907
  0
LINE
  8
0
 10
52.027
 11
51.882
 20
2.907
 21
2.786
  0
LINE
  8
0
 10
51.882
 11
51.723
 20
2.786
 21
2.686
  0
LINE
  8
0
 10
51.723
 11
51.552
 20
2.686
 21
2.605
  0
LINE
  8
0
 10
51.552
 11
51.373
 20
2.605
 21
2.547
  0
LINE
  8
0
 10
51.373
 11
51.188
 20
2.547
 21
2.512
  0
LINE
  8
0
 10
51.188
 11
51
 20
2.512
 21
2.5
  0
LINE
  8
0
 10
51
 11
50.812
 20
2.5
 21
2.512
  0
LINE
  8
0
 10
50.812
 11
50.627
 20
2.512
 21
2.547
  0
LINE
  8
0
 10
50.627
 11
50.448
 20
2.547
 21
2.605
  0
LINE
  8
0
 10
50.448
 11
50.277
 20
2.605
 21
2.686
  0
LINE
  8
0
 10
50.277
 11
50.118
 20
2.686
 21
2.786
  0
LINE
  8
0
 10
50.118
 11
49.973
 20
2.786
 21
2.907
  0
LINE
  8
0
 10
49.973
 11
49.844
 20
2.907
 21
3.044
  0
LINE
  8
0
 10
49.844
 11
49.734
 20
3.044
 21
3.196
  0
LINE
  8
0
 10
49.734
 11
49.643
 20
3.196
 21
3.361
  0
LINE
  8
0
 10
49.643
 11
49.573
 20
3.361
 21
3.536
  0
LINE
  8
0
 10
49.573
 11
49.527
 20
3.536
 21
3.719
  0
LINE
  8
0
 10
49.527
 11
49.503
 20
3.719
 21
3.906
  0
ENDSEC
  0
SECTION
  2
OBJECTS
  0
DICTIONARY
  0
ENDSEC
  0
EOF
