  0
SECTION
  2
BLOCKS
  0
ENDSEC
  0
SECTION
  2
ENTITIES
  0
LINE
  8
0
 10
-14.8
 11
-14.8
 20
-22.5
 21
-17.5
  0
LINE
  8
0
 10
-14.8
 11
-9.9
 20
-17.5
 21
-17.5
  0
LINE
  8
0
 10
-9.9
 11
-9.9
 20
-17.5
 21
-12.5
  0
LINE
  8
0
 10
-9.9
 11
-14.8
 20
-12.5
 21
-12.5
  0
LINE
  8
0
 10
-14.8
 11
-14.8
 20
-12.5
 21
-7.5
  0
LINE
  8
0
 10
-14.8
 11
-9.9
 20
-7.5
 21
-7.5
  0
LINE
  8
0
 10
-9.9
 11
-9.9
 20
-7.5
 21
-2.5
  0
LINE
  8
0
 10
-9.9
 11
-14.8
 20
-2.5
 21
-2.5
  0
LINE
  8
0
 10
-14.8
 11
-14.8
 20
-2.5
 21
2.5
  0
LINE
  8
0
 10
-14.8
 11
-9.9
 20
2.5
 21
2.5
  0
LINE
  8
0
 10
-9.9
 11
-9.9
 20
2.5
 21
7.5
  0
LINE
  8
0
 10
-9.9
 11
-14.8
 20
7.5
 21
7.5
  0
LINE
  8
0
 10
-14.8
 11
-14.8
 20
7.5
 21
12.5
  0
LINE
  8
0
 10
-14.8
 11
-9.9
 20
12.5
 21
12.5
  0
LINE
  8
0
 10
-9.9
 11
-9.9
 20
12.5
 21
17.5
  0
LINE
  8
0
 10
-9.9
 11
-14.8
 20
17.5
 21
17.5
  0
LINE
  8
0
 10
-14.8
 11
-14.8
 20
17.5
 21
22.5
  0
LINE
  8
0
 10
-14.8
 11
-9.9
 20
22.5
 21
22.5
  0
LINE
  8
0
 10
-9.9
 11
-9.9
 20
22.5
 21
27.5
  0
LINE
  8
0
 10
-9.9
 11
9.9
 20
27.5
 21
27.5
  0
LINE
  8
0
 10
9.9
 11
9.9
 20
27.5
 21
22.5
  0
LINE
  8
0
 10
9.9
 11
14.8
 20
22.5
 21
22.5
  0
LINE
  8
0
 10
14.8
 11
14.8
 20
22.5
 21
17.5
  0
LINE
  8
0
 10
14.8
 11
9.9
 20
17.5
 21
17.5
  0
LINE
  8
0
 10
9.9
 11
9.9
 20
17.5
 21
12.5
  0
LINE
  8
0
 10
9.9
 11
14.8
 20
12.5
 21
12.5
  0
LINE
  8
0
 10
14.8
 11
14.8
 20
12.5
 21
7.5
  0
LINE
  8
0
 10
14.8
 11
9.9
 20
7.5
 21
7.5
  0
LINE
  8
0
 10
9.9
 11
9.9
 20
7.5
 21
2.5
  0
LINE
  8
0
 10
9.9
 11
14.8
 20
2.5
 21
2.5
  0
LINE
  8
0
 10
14.8
 11
14.8
 20
2.5
 21
-2.5
  0
LINE
  8
0
 10
14.8
 11
9.9
 20
-2.5
 21
-2.5
  0
LINE
  8
0
 10
9.9
 11
9.9
 20
-2.5
 21
-7.5
  0
LINE
  8
0
 10
9.9
 11
14.8
 20
-7.5
 21
-7.5
  0
LINE
  8
0
 10
14.8
 11
14.8
 20
-7.5
 21
-12.5
  0
LINE
  8
0
 10
14.8
 11
9.9
 20
-12.5
 21
-12.5
  0
LINE
  8
0
 10
9.9
 11
9.9
 20
-12.5
 21
-17.5
  0
LINE
  8
0
 10
9.9
 11
14.8
 20
-17.5
 21
-17.5
  0
LINE
  8
0
 10
14.8
 11
14.8
 20
-17.5
 21
-22.5
  0
LINE
  8
0
 10
14.8
 11
9.9
 20
-22.5
 21
-22.5
  0
LINE
  8
0
 10
9.9
 11
9.9
 20
-22.5
 21
-27.5
  0
LINE
  8
0
 10
9.9
 11
-9.9
 20
-27.5
 21
-27.5
  0
LINE
  8
0
 10
-9.9
 11
-9.9
 20
-27.5
 21
-22.5
  0
LINE
  8
0
 10
-9.9
 11
-14.8
 20
-22.5
 21
-22.5
  0
ENDSEC
  0
SECTION
  2
OBJECTS
  0
DICTIONARY
  0
ENDSEC
  0
EOF
