  0
SECTION
  2
HEADER
  9
$ACADVER
  1
AC1027
  9
$ACADMAINTVER
 70
    55
  9
$DWGCODEPAGE
  3
ANSI_1252
  9
$LASTSAVEDBY
  1
Moritz
  9
$REQUIREDVERSIONS
160
                 0
  9
$INSBASE
 10
0.0
 20
0.0
 30
0.0
  9
$EXTMIN
 10
0.141111
 20
0.141117
 30
0.0
  9
$EXTMAX
 10
212.141116
 20
70.14113
 30
0.0
  9
$LIMMIN
 10
0.0
 20
0.0
  9
$LIMMAX
 10
12.0
 20
9.0
  9
$ORTHOMODE
 70
     0
  9
$REGENMODE
 70
     1
  9
$FILLMODE
 70
     1
  9
$QTEXTMODE
 70
     0
  9
$MIRRTEXT
 70
     0
  9
$LTSCALE
 40
1.0
  9
$ATTMODE
 70
     1
  9
$TEXTSIZE
 40
2.5
  9
$TRACEWID
 40
0.05
  9
$TEXTSTYLE
  7
STANDARD
  9
$CLAYER
  8
0
  9
$CELTYPE
  6
CONTINUOUS
  9
$CECOLOR
 62
   256
  9
$CELTSCALE
 40
1.0
  9
$DISPSILH
 70
     0
  9
$DIMSCALE
 40
1.0
  9
$DIMASZ
 40
0.18
  9
$DIMEXO
 40
0.0625
  9
$DIMDLI
 40
0.38
  9
$DIMRND
 40
0.0
  9
$DIMDLE
 40
0.0
  9
$DIMEXE
 40
0.18
  9
$DIMTP
 40
0.0
  9
$DIMTM
 40
0.0
  9
$DIMTXT
 40
0.18
  9
$DIMCEN
 40
0.09
  9
$DIMTSZ
 40
0.0
  9
$DIMTOL
 70
     0
  9
$DIMLIM
 70
     0
  9
$DIMTIH
 70
     1
  9
$DIMTOH
 70
     1
  9
$DIMSE1
 70
     0
  9
$DIMSE2
 70
     0
  9
$DIMTAD
 70
     0
  9
$DIMZIN
 70
     0
  9
$DIMBLK
  1

  9
$DIMASO
 70
     1
  9
$DIMSHO
 70
     1
  9
$DIMPOST
  1

  9
$DIMAPOST
  1

  9
$DIMALT
 70
     0
  9
$DIMALTD
 70
     2
  9
$DIMALTF
 40
25.4
  9
$DIMLFAC
 40
1.0
  9
$DIMTOFL
 70
     0
  9
$DIMTVP
 40
0.0
  9
$DIMTIX
 70
     0
  9
$DIMSOXD
 70
     0
  9
$DIMSAH
 70
     0
  9
$DIMBLK1
  1

  9
$DIMBLK2
  1

  9
$DIMSTYLE
  2
ISO-25
  9
$DIMCLRD
 70
     0
  9
$DIMCLRE
 70
     0
  9
$DIMCLRT
 70
     0
  9
$DIMTFAC
 40
1.0
  9
$DIMGAP
 40
0.09
  9
$DIMJUST
 70
     0
  9
$DIMSD1
 70
     0
  9
$DIMSD2
 70
     0
  9
$DIMTOLJ
 70
     1
  9
$DIMTZIN
 70
     0
  9
$DIMALTZ
 70
     0
  9
$DIMALTTZ
 70
     0
  9
$DIMUPT
 70
     0
  9
$DIMDEC
 70
     4
  9
$DIMTDEC
 70
     4
  9
$DIMALTU
 70
     2
  9
$DIMALTTD
 70
     2
  9
$DIMTXSTY
  7
STANDARD
  9
$DIMAUNIT
 70
     0
  9
$DIMADEC
 70
     0
  9
$DIMALTRND
 40
0.0
  9
$DIMAZIN
 70
     0
  9
$DIMDSEP
 70
    46
  9
$DIMATFIT
 70
     3
  9
$DIMFRAC
 70
     0
  9
$DIMLDRBLK
  1

  9
$DIMLUNIT
 70
     2
  9
$DIMLWD
 70
    -2
  9
$DIMLWE
 70
    -2
  9
$DIMTMOVE
 70
     0
  9
$DIMFXL
 40
1.0
  9
$DIMFXLON
 70
     0
  9
$DIMJOGANG
 40
0.7853981633974483
  9
$DIMTFILL
 70
     0
  9
$DIMTFILLCLR
 70
     0
  9
$DIMARCSYM
 70
     0
  9
$DIMLTYPE
  6

  9
$DIMLTEX1
  6

  9
$DIMLTEX2
  6

  9
$DIMTXTDIRECTION
 70
     0
  9
$LUNITS
 70
     2
  9
$LUPREC
 70
     4
  9
$SKETCHINC
 40
0.1
  9
$FILLETRAD
 40
0.0
  9
$AUNITS
 70
     0
  9
$AUPREC
 70
     0
  9
$MENU
  1
.
  9
$ELEVATION
 40
0.0
  9
$PELEVATION
 40
0.0
  9
$THICKNESS
 40
0.0
  9
$LIMCHECK
 70
     0
  9
$CHAMFERA
 40
0.0
  9
$CHAMFERB
 40
0.0
  9
$CHAMFERC
 40
0.0
  9
$CHAMFERD
 40
0.0
  9
$SKPOLY
 70
     0
  9
$TDCREATE
 40
2457064.840986956
  9
$TDUCREATE
 40
2457064.799320289
  9
$TDUPDATE
 40
2457064.841339224
  9
$TDUUPDATE
 40
2457064.799672558
  9
$TDINDWG
 40
0.0003524884
  9
$TDUSRTIMER
 40
0.0003524884
  9
$USRTIMER
 70
     1
  9
$ANGBASE
 50
0.0
  9
$ANGDIR
 70
     0
  9
$PDMODE
 70
     0
  9
$PDSIZE
 40
0.0
  9
$PLINEWID
 40
0.0
  9
$SPLFRAME
 70
     0
  9
$SPLINETYPE
 70
     6
  9
$SPLINESEGS
 70
     8
  9
$HANDSEED
  5
100A4
  9
$SURFTAB1
 70
     6
  9
$SURFTAB2
 70
     6
  9
$SURFTYPE
 70
     6
  9
$SURFU
 70
     6
  9
$SURFV
 70
     6
  9
$UCSBASE
  2

  9
$UCSNAME
  2

  9
$UCSORG
 10
0.0
 20
0.0
 30
0.0
  9
$UCSXDIR
 10
1.0
 20
0.0
 30
0.0
  9
$UCSYDIR
 10
0.0
 20
1.0
 30
0.0
  9
$UCSORTHOREF
  2

  9
$UCSORTHOVIEW
 70
     0
  9
$UCSORGTOP
 10
0.0
 20
0.0
 30
0.0
  9
$UCSORGBOTTOM
 10
0.0
 20
0.0
 30
0.0
  9
$UCSORGLEFT
 10
0.0
 20
0.0
 30
0.0
  9
$UCSORGRIGHT
 10
0.0
 20
0.0
 30
0.0
  9
$UCSORGFRONT
 10
0.0
 20
0.0
 30
0.0
  9
$UCSORGBACK
 10
0.0
 20
0.0
 30
0.0
  9
$PUCSBASE
  2

  9
$PUCSNAME
  2

  9
$PUCSORG
 10
0.0
 20
0.0
 30
0.0
  9
$PUCSXDIR
 10
1.0
 20
0.0
 30
0.0
  9
$PUCSYDIR
 10
0.0
 20
1.0
 30
0.0
  9
$PUCSORTHOREF
  2

  9
$PUCSORTHOVIEW
 70
     0
  9
$PUCSORGTOP
 10
0.0
 20
0.0
 30
0.0
  9
$PUCSORGBOTTOM
 10
0.0
 20
0.0
 30
0.0
  9
$PUCSORGLEFT
 10
0.0
 20
0.0
 30
0.0
  9
$PUCSORGRIGHT
 10
0.0
 20
0.0
 30
0.0
  9
$PUCSORGFRONT
 10
0.0
 20
0.0
 30
0.0
  9
$PUCSORGBACK
 10
0.0
 20
0.0
 30
0.0
  9
$USERI1
 70
     0
  9
$USERI2
 70
     0
  9
$USERI3
 70
     0
  9
$USERI4
 70
     0
  9
$USERI5
 70
     0
  9
$USERR1
 40
0.0
  9
$USERR2
 40
0.0
  9
$USERR3
 40
0.0
  9
$USERR4
 40
0.0
  9
$USERR5
 40
0.0
  9
$WORLDVIEW
 70
     1
  9
$SHADEDGE
 70
     3
  9
$SHADEDIF
 70
    70
  9
$TILEMODE
 70
     1
  9
$MAXACTVP
 70
    64
  9
$PINSBASE
 10
0.0
 20
0.0
 30
0.0
  9
$PLIMCHECK
 70
     0
  9
$PEXTMIN
 10
1.000000000000000E+20
 20
1.000000000000000E+20
 30
1.000000000000000E+20
  9
$PEXTMAX
 10
-1.000000000000000E+20
 20
-1.000000000000000E+20
 30
-1.000000000000000E+20
  9
$PLIMMIN
 10
0.0
 20
0.0
  9
$PLIMMAX
 10
12.0
 20
9.0
  9
$UNITMODE
 70
     0
  9
$VISRETAIN
 70
     1
  9
$PLINEGEN
 70
     0
  9
$PSLTSCALE
 70
     1
  9
$TREEDEPTH
 70
  3020
  9
$CMLSTYLE
  2
STANDARD
  9
$CMLJUST
 70
     0
  9
$CMLSCALE
 40
1.0
  9
$PROXYGRAPHICS
 70
     1
  9
$MEASUREMENT
 70
     1
  9
$CELWEIGHT
370
    -1
  9
$ENDCAPS
280
     0
  9
$JOINSTYLE
280
     0
  9
$LWDISPLAY
290
     0
  9
$INSUNITS
 70
     0
  9
$HYPERLINKBASE
  1

  9
$STYLESHEET
  1

  9
$XEDIT
290
     1
  9
$CEPSNTYPE
380
     0
  9
$PSTYLEMODE
290
     1
  9
$FINGERPRINTGUID
  2
{A0837379-BA3A-43F0-A2D3-6C52835E4CB8}
  9
$VERSIONGUID
  2
{B925FA31-F022-432D-AD5A-F8B94388FB52}
  9
$EXTNAMES
290
     1
  9
$PSVPSCALE
 40
0.0
  9
$OLESTARTUP
290
     0
  9
$SORTENTS
280
   127
  9
$INDEXCTL
280
     0
  9
$HIDETEXT
280
     0
  9
$XCLIPFRAME
280
     2
  9
$HALOGAP
280
     0
  9
$OBSCOLOR
 70
   257
  9
$OBSLTYPE
280
     0
  9
$INTERSECTIONDISPLAY
280
     0
  9
$INTERSECTIONCOLOR
 70
   257
  9
$DIMASSOC
280
     1
  9
$PROJECTNAME
  1

  9
$CAMERADISPLAY
290
     0
  9
$LENSLENGTH
 40
50.0
  9
$CAMERAHEIGHT
 40
0.0
  9
$STEPSPERSEC
 40
2.0
  9
$STEPSIZE
 40
6.0
  9
$3DDWFPREC
 40
2.0
  9
$PSOLWIDTH
 40
0.25
  9
$PSOLHEIGHT
 40
4.0
  9
$LOFTANG1
 40
1.570796326794896
  9
$LOFTANG2
 40
1.570796326794896
  9
$LOFTMAG1
 40
0.0
  9
$LOFTMAG2
 40
0.0
  9
$LOFTPARAM
 70
     7
  9
$LOFTNORMALS
280
     1
  9
$LATITUDE
 40
37.795
  9
$LONGITUDE
 40
-122.394
  9
$NORTHDIRECTION
 40
0.0
  9
$TIMEZONE
 70
 -8000
  9
$LIGHTGLYPHDISPLAY
280
     1
  9
$TILEMODELIGHTSYNCH
280
     1
  9
$CMATERIAL
347
10004
  9
$SOLIDHIST
280
     0
  9
$SHOWHIST
280
     1
  9
$DWFFRAME
280
     2
  9
$DGNFRAME
280
     0
  9
$REALWORLDSCALE
290
     1
  9
$INTERFERECOLOR
 62
     1
  9
$INTERFEREOBJVS
345
10026
  9
$INTERFEREVPVS
346
10023
  9
$CSHADOW
280
     0
  9
$SHADOWPLANELOCATION
 40
0.0
  0
ENDSEC
  0
SECTION
  2
CLASSES
  0
CLASS
  1
ACDBDICTIONARYWDFLT
  2
AcDbDictionaryWithDefault
  3
ObjectDBX Classes
 90
        0
 91
        1
280
     0
281
     0
  0
CLASS
  1
MATERIAL
  2
AcDbMaterial
  3
ObjectDBX Classes
 90
     1153
 91
        3
280
     0
281
     0
  0
CLASS
  1
VISUALSTYLE
  2
AcDbVisualStyle
  3
ObjectDBX Classes
 90
     4095
 91
       24
280
     0
281
     0
  0
CLASS
  1
TABLESTYLE
  2
AcDbTableStyle
  3
ObjectDBX Classes
 90
     4095
 91
        1
280
     0
281
     0
  0
CLASS
  1
SCALE
  2
AcDbScale
  3
ObjectDBX Classes
 90
     1153
 91
       17
280
     0
281
     0
  0
CLASS
  1
MLEADERSTYLE
  2
AcDbMLeaderStyle
  3
ACDB_MLEADERSTYLE_CLASS
 90
     4095
 91
        1
280
     0
281
     0
  0
CLASS
  1
ACDBSECTIONVIEWSTYLE
  2
AcDbSectionViewStyle
  3
ObjectDBX Classes
 90
     1025
 91
        1
280
     0
281
     0
  0
CLASS
  1
ACDBDETAILVIEWSTYLE
  2
AcDbDetailViewStyle
  3
ObjectDBX Classes
 90
     1025
 91
        1
280
     0
281
     0
  0
CLASS
  1
DICTIONARYVAR
  2
AcDbDictionaryVar
  3
ObjectDBX Classes
 90
        0
 91
        9
280
     0
281
     0
  0
CLASS
  1
CELLSTYLEMAP
  2
AcDbCellStyleMap
  3
ObjectDBX Classes
 90
     1152
 91
        1
280
     0
281
     0
  0
ENDSEC
  0
SECTION
  2
TABLES
  0
TABLE
  2
VPORT
  5
8
330
0
100
AcDbSymbolTable
 70
     1
  0
VPORT
  5
2E
330
8
100
AcDbSymbolTableRecord
100
AcDbViewportTableRecord
  2
*ACTIVE
 70
     0
 10
0.0
 20
0.0
 11
1.0
 21
1.0
 12
400.4425621890548
 22
148.5
 13
0.0
 23
0.0
 14
10.0
 24
10.0
 15
10.0
 25
10.0
 16
0.0
 26
0.0
 36
1.0
 17
0.0
 27
0.0
 37
0.0
 40
341.0
 41
2.356965174129353
 42
50.0
 43
0.0
 44
0.0
 50
0.0
 51
0.0
 71
     0
 72
   100
 73
     1
 74
     3
 75
     0
 76
     0
 77
     0
 78
     0
281
     0
 65
     1
110
0.0
120
0.0
130
0.0
111
1.0
121
0.0
131
0.0
112
0.0
122
1.0
132
0.0
 79
     0
146
0.0
348
10022
 60
     3
 61
     5
292
     1
282
     1
141
0.0
142
0.0
 63
   250
421
  3355443
1001
ACAD_NAV_VCDISPLAY
1070
     3
  0
ENDTAB
  0
TABLE
  2
LTYPE
  5
5
330
0
100
AcDbSymbolTable
 70
     1
  0
LTYPE
  5
14
330
5
100
AcDbSymbolTableRecord
100
AcDbLinetypeTableRecord
  2
BYBLOCK
 70
     0
  3

 72
    65
 73
     0
 40
0.0
  0
LTYPE
  5
15
330
5
100
AcDbSymbolTableRecord
100
AcDbLinetypeTableRecord
  2
BYLAYER
 70
     0
  3

 72
    65
 73
     0
 40
0.0
  0
LTYPE
  5
16
330
5
100
AcDbSymbolTableRecord
100
AcDbLinetypeTableRecord
  2
CONTINUOUS
 70
     0
  3
Solid line
 72
    65
 73
     0
 40
0.0
  0
ENDTAB
  0
TABLE
  2
LAYER
  5
2
330
0
100
AcDbSymbolTable
 70
     2
  0
LAYER
  5
50
102
{ACAD_XDICTIONARY
360
1008E
102
}
330
2
100
AcDbSymbolTableRecord
100
AcDbLayerTableRecord
  2
0
 70
     0
 62
     7
  6
CONTINUOUS
370
    -3
390
10002
347
10014
348
0
  0
LAYER
  5
51
102
{ACAD_XDICTIONARY
360
10090
102
}
330
2
100
AcDbSymbolTableRecord
100
AcDbLayerTableRecord
  2
LAYER_1
 70
     0
 62
     7
  6
CONTINUOUS
370
    -3
390
10002
347
10014
348
0
  0
ENDTAB
  0
TABLE
  2
STYLE
  5
3
330
0
100
AcDbSymbolTable
 70
     1
  0
STYLE
  5
11
330
3
100
AcDbSymbolTableRecord
100
AcDbTextStyleTableRecord
  2
STANDARD
 70
     0
 40
0.0
 41
1.0
 50
0.0
 71
     0
 42
2.5
  3
txt
  4

  0
ENDTAB
  0
TABLE
  2
VIEW
  5
6
330
0
100
AcDbSymbolTable
 70
     0
  0
ENDTAB
  0
TABLE
  2
UCS
  5
7
330
0
100
AcDbSymbolTable
 70
     0
  0
ENDTAB
  0
TABLE
  2
APPID
  5
9
330
0
100
AcDbSymbolTable
 70
     2
  0
APPID
  5
12
330
9
100
AcDbSymbolTableRecord
100
AcDbRegAppTableRecord
  2
ACAD
 70
     0
  0
APPID
  5
1009C
330
9
100
AcDbSymbolTableRecord
100
AcDbRegAppTableRecord
  2
ACAD_NAV_VCDISPLAY
 70
     0
  0
ENDTAB
  0
TABLE
  2
DIMSTYLE
  5
A
330
0
100
AcDbSymbolTable
 70
     1
100
AcDbDimStyleTable
 71
     0
  0
DIMSTYLE
105
27
330
A
100
AcDbSymbolTableRecord
100
AcDbDimStyleTableRecord
  2
ISO-25
 70
     0
 41
2.5
 42
0.625
 43
3.75
 44
1.25
 73
     0
 74
     0
 77
     1
 78
     8
140
2.5
141
2.5
143
0.03937007874016
147
0.625
171
     3
172
     1
271
     2
272
     2
274
     3
283
     0
284
     8
340
11
  0
ENDTAB
  0
TABLE
  2
BLOCK_RECORD
  5
1
330
0
100
AcDbSymbolTable
 70
     0
  0
BLOCK_RECORD
  5
1F
330
1
100
AcDbSymbolTableRecord
100
AcDbBlockTableRecord
  2
*MODEL_SPACE
340
10052
 70
     0
280
     1
281
     0
  0
BLOCK_RECORD
  5
1B
330
1
100
AcDbSymbolTableRecord
100
AcDbBlockTableRecord
  2
*PAPER_SPACE
340
10053
 70
     0
280
     1
281
     0
  0
ENDTAB
  0
ENDSEC
  0
SECTION
  2
BLOCKS
  0
BLOCK
  5
20
330
1F
100
AcDbEntity
  8
0
100
AcDbBlockBegin
  2
*MODEL_SPACE
 70
     0
 10
0.0
 20
0.0
 30
0.0
  3
*MODEL_SPACE
  1

  0
ENDBLK
  5
21
330
1F
100
AcDbEntity
  8
0
100
AcDbBlockEnd
  0
BLOCK
  5
1C
330
1B
100
AcDbEntity
 67
     1
  8
0
100
AcDbBlockBegin
  2
*PAPER_SPACE
 70
     0
 10
0.0
 20
0.0
 30
0.0
  3
*PAPER_SPACE
  1

  0
ENDBLK
  5
1D
330
1B
100
AcDbEntity
 67
     1
  8
0
100
AcDbBlockEnd
  0
ENDSEC
  0
SECTION
  2
ENTITIES
  0
LWPOLYLINE
  5
100
330
1F
100
AcDbEntity
  8
LAYER_1
 62
     7
100
AcDbPolyline
 90
       17
 70
     0
 43
0.0
 10
92.141113
 20
0.141117
 10
82.14111199999999
 20
0.141117
 10
82.14111199999999
 20
5.141106999999999
 10
76.041112
 20
5.141106999999999
 10
76.041112
 20
7.216117999999998
 10
77.291112
 20
7.216117999999998
 10
77.291112
 20
8.86613
 10
76.041112
 20
8.86613
 10
76.041112
 20
11.041132
 10
73.241112
 20
11.041132
 10
73.241112
 20
8.86613
 10
71.991112
 20
8.86613
 10
71.991112
 20
7.216117999999998
 10
73.241112
 20
7.216117999999998
 10
73.241112
 20
5.141106999999999
 10
67.14111199999999
 20
5.141106999999999
 10
67.14111199999999
 20
0.141117
  0
LWPOLYLINE
  5
101
330
1F
100
AcDbEntity
  8
LAYER_1
 62
     7
100
AcDbPolyline
 90
        2
 70
     0
 43
0.0
 10
0.141111
 20
35.141123
 10
62.141111
 20
35.141123
  0
LWPOLYLINE
  5
102
330
1F
100
AcDbEntity
  8
LAYER_1
 62
     7
100
AcDbPolyline
 90
        5
 70
     0
 43
0.0
 10
3.141110999999999
 20
2.641125999999999
 10
3.141110999999999
 20
7.641116
 10
8.141111
 20
7.641116
 10
8.141111
 20
2.641125999999999
 10
3.141110999999999
 20
2.641125999999999
  0
LWPOLYLINE
  5
103
330
1F
100
AcDbEntity
  8
LAYER_1
 62
     7
100
AcDbPolyline
 90
        5
 70
     0
 43
0.0
 10
3.141110999999999
 20
27.641133
 10
3.141110999999999
 20
32.641123
 10
8.141111
 20
32.641123
 10
8.141111
 20
27.641133
 10
3.141110999999999
 20
27.641133
  0
LWPOLYLINE
  5
104
330
1F
100
AcDbEntity
  8
LAYER_1
 62
     7
100
AcDbPolyline
 90
       51
 70
     0
 43
0.0
 10
11.441111
 20
17.641125
 10
11.474111
 20
18.16713
 10
11.573111
 20
18.685121
 10
11.736111
 20
19.18711
 10
11.961111
 20
19.664122
 10
12.243111
 20
20.110117
 10
12.579111
 20
20.516122
 10
12.964111
 20
20.877113
 10
13.391111
 20
21.187134
 10
13.853111
 20
21.441134
 10
14.343111
 20
21.635133
 10
14.854111
 20
21.767129
 10
15.377111
 20
21.833112
 10
15.905111
 20
21.833112
 10
16.428111
 20
21.767129
 10
16.939111
 20
21.635133
 10
17.429111
 20
21.441134
 10
17.891111
 20
21.187134
 10
18.318111
 20
20.877113
 10
18.703111
 20
20.516122
 10
19.039111
 20
20.110117
 10
19.321111
 20
19.664122
 10
19.546111
 20
19.18711
 10
19.709111
 20
18.685121
 10
19.808111
 20
18.16713
 10
19.84111099999999
 20
17.641125
 10
19.808111
 20
17.115119
 10
19.709111
 20
16.597128
 10
19.546111
 20
16.095111
 10
19.321111
 20
15.618127
 10
19.039111
 20
15.172132
 10
18.703111
 20
14.766127
 10
18.318111
 20
14.405136
 10
17.891111
 20
14.095115
 10
17.429111
 20
13.841115
 10
16.939111
 20
13.647116
 10
16.428111
 20
13.51512
 10
15.905111
 20
13.449137
 10
15.377111
 20
13.449137
 10
14.854111
 20
13.51512
 10
14.343111
 20
13.647116
 10
13.853111
 20
13.841115
 10
13.391111
 20
14.095115
 10
12.964111
 20
14.405136
 10
12.579111
 20
14.766127
 10
12.243111
 20
15.172132
 10
11.961111
 20
15.618127
 10
11.736111
 20
16.095111
 10
11.573111
 20
16.597128
 10
11.474111
 20
17.115119
 10
11.441111
 20
17.641125
  0
LWPOLYLINE
  5
105
330
1F
100
AcDbEntity
  8
LAYER_1
 62
     7
100
AcDbPolyline
 90
       51
 70
     0
 43
0.0
 10
14.141111
 20
5.141135
 10
14.153111
 20
5.329124
 10
14.188111
 20
5.51412
 10
14.246111
 20
5.693133999999999
 10
14.327111
 20
5.864131999999999
 10
14.427111
 20
6.023136
 10
14.548111
 20
6.168114
 10
14.685111
 20
6.297118
 10
14.837111
 20
6.407128
 10
15.002111
 20
6.498116
 10
15.177111
 20
6.568135999999999
 10
15.360111
 20
6.61411
 10
15.547111
 20
6.638099
 10
15.735111
 20
6.638127
 10
15.922111
 20
6.614138
 10
16.105111
 20
6.568135999999999
 10
16.280111
 20
6.498116
 10
16.445111
 20
6.407128
 10
16.597111
 20
6.297118
 10
16.734111
 20
6.168114
 10
16.855111
 20
6.023136
 10
16.955111
 20
5.864131999999999
 10
17.036111
 20
5.693133999999999
 10
17.094111
 20
5.51412
 10
17.129111
 20
5.329124
 10
17.141111
 20
5.141135
 10
17.129111
 20
4.953119
 10
17.094111
 20
4.768121999999999
 10
17.036111
 20
4.589137
 10
16.955111
 20
4.418109999999999
 10
16.855111
 20
4.259134999999999
 10
16.734111
 20
4.114129
 10
16.597111
 20
3.985125
 10
16.445111
 20
3.875115
 10
16.280111
 20
3.784126
 10
16.105111
 20
3.714134999999999
 10
15.922111
 20
3.668133
 10
15.735111
 20
3.644144
 10
15.547111
 20
3.644116
 10
15.360111
 20
3.668105
 10
15.177111
 20
3.714134999999999
 10
15.002111
 20
3.784126
 10
14.837111
 20
3.875115
 10
14.685111
 20
3.985125
 10
14.548111
 20
4.114129
 10
14.427111
 20
4.259134999999999
 10
14.327111
 20
4.418109999999999
 10
14.246111
 20
4.589137
 10
14.188111
 20
4.768121999999999
 10
14.153111
 20
4.953119
 10
14.141111
 20
5.141135
  0
LWPOLYLINE
  5
106
330
1F
100
AcDbEntity
  8
LAYER_1
 62
     7
100
AcDbPolyline
 90
       51
 70
     0
 43
0.0
 10
14.141111
 20
30.141114
 10
14.153111
 20
30.32913
 10
14.188111
 20
30.514127
 10
14.246111
 20
30.693112
 10
14.327111
 20
30.864111
 10
14.427111
 20
31.023115
 10
14.548111
 20
31.16812
 10
14.685111
 20
31.297124
 10
14.837111
 20
31.407134
 10
15.002111
 20
31.498123
 10
15.177111
 20
31.568114
 10
15.360111
 20
31.614116
 10
15.547111
 20
31.638105
 10
15.735111
 20
31.63813300000001
 10
15.922111
 20
31.614144
 10
16.105111
 20
31.568114
 10
16.280111
 20
31.498123
 10
16.445111
 20
31.407134
 10
16.597111
 20
31.297124
 10
16.734111
 20
31.16812
 10
16.855111
 20
31.023115
 10
16.955111
 20
30.864111
 10
17.036111
 20
30.693112
 10
17.094111
 20
30.514127
 10
17.129111
 20
30.32913
 10
17.141111
 20
30.141114
 10
17.129111
 20
29.953125
 10
17.094111
 20
29.768129
 10
17.036111
 20
29.58911500000001
 10
16.955111
 20
29.418117
 10
16.855111
 20
29.259113
 10
16.734111
 20
29.114135
 10
16.597111
 20
28.985131
 10
16.445111
 20
28.875121
 10
16.280111
 20
28.784133
 10
16.105111
 20
28.714113
 10
15.922111
 20
28.668111
 10
15.735111
 20
28.644122
 10
15.547111
 20
28.644122
 10
15.360111
 20
28.668111
 10
15.177111
 20
28.714113
 10
15.002111
 20
28.784133
 10
14.837111
 20
28.875121
 10
14.685111
 20
28.985131
 10
14.548111
 20
29.114135
 10
14.427111
 20
29.259113
 10
14.327111
 20
29.418117
 10
14.246111
 20
29.58911500000001
 10
14.188111
 20
29.768129
 10
14.153111
 20
29.953125
 10
14.141111
 20
30.141114
  0
LWPOLYLINE
  5
107
330
1F
100
AcDbEntity
  8
LAYER_1
 62
     7
100
AcDbPolyline
 90
        5
 70
     0
 43
0.0
 10
23.141111
 20
2.641125999999999
 10
23.141111
 20
7.641116
 10
28.141111
 20
7.641116
 10
28.141111
 20
2.641125999999999
 10
23.141111
 20
2.641125999999999
  0
LWPOLYLINE
  5
108
330
1F
100
AcDbEntity
  8
LAYER_1
 62
     7
100
AcDbPolyline
 90
        5
 70
     0
 43
0.0
 10
23.141111
 20
27.641133
 10
23.141111
 20
32.641123
 10
28.141111
 20
32.641123
 10
28.141111
 20
27.641133
 10
23.141111
 20
27.641133
  0
LWPOLYLINE
  5
109
330
1F
100
AcDbEntity
  8
LAYER_1
 62
     7
100
AcDbPolyline
 90
        5
 70
     0
 43
0.0
 10
142.141114
 20
0.141117
 10
132.141113
 20
0.141117
 10
132.141113
 20
5.141106999999999
 10
117.141113
 20
5.141106999999999
 10
117.141113
 20
0.141117
  0
LWPOLYLINE
  5
10A
330
1F
100
AcDbEntity
  8
LAYER_1
 62
     7
100
AcDbPolyline
 90
       51
 70
     0
 43
0.0
 10
117.141113
 20
15.141115
 10
117.200113
 20
16.081113
 10
117.377113
 20
17.006125
 10
117.668113
 20
17.902124
 10
118.069113
 20
18.754124
 10
118.573113
 20
19.549116
 10
119.174113
 20
20.275105
 10
119.860113
 20
20.920123
 10
120.622113
 20
21.47311
 10
121.448113
 20
21.927121
 10
122.323113
 20
22.274113
 10
123.236113
 20
22.508103
 10
124.170113
 20
22.6261
 10
125.112113
 20
22.6261
 10
126.046113
 20
22.508103
 10
126.959113
 20
22.274113
 10
127.834113
 20
21.927121
 10
128.660113
 20
21.47311
 10
129.422113
 20
20.920123
 10
130.108113
 20
20.275105
 10
130.709113
 20
19.549116
 10
131.213113
 20
18.754124
 10
131.614113
 20
17.902124
 10
131.905113
 20
17.006125
 10
132.082113
 20
16.081113
 10
132.141113
 20
15.141115
 10
132.082113
 20
14.201118
 10
131.905113
 20
13.276106
 10
131.614113
 20
12.380107
 10
131.213113
 20
11.528107
 10
130.709113
 20
10.733115
 10
130.108113
 20
10.007126
 10
129.422113
 20
9.362106999999999
 10
128.660113
 20
8.809121000000001
 10
127.834113
 20
8.355109999999999
 10
126.959113
 20
8.008117999999999
 10
126.046113
 20
7.774128
 10
125.112113
 20
7.656102
 10
124.170113
 20
7.656102
 10
123.236113
 20
7.774128
 10
122.323113
 20
8.008117999999999
 10
121.448113
 20
8.355109999999999
 10
120.622113
 20
8.809121000000001
 10
119.860113
 20
9.362106999999999
 10
119.174113
 20
10.007126
 10
118.573113
 20
10.733115
 10
118.069113
 20
11.528107
 10
117.668113
 20
12.380107
 10
117.377113
 20
13.276106
 10
117.200113
 20
14.201118
 10
117.141113
 20
15.141115
  0
LWPOLYLINE
  5
10B
330
1F
100
AcDbEntity
  8
LAYER_1
 62
     7
100
AcDbPolyline
 90
        2
 70
     0
 43
0.0
 10
0.141111
 20
70.14113
 10
31.141111
 20
70.14113
  0
LWPOLYLINE
  5
10C
330
1F
100
AcDbEntity
  8
LAYER_1
 62
     7
100
AcDbPolyline
 90
        5
 70
     0
 43
0.0
 10
3.141110999999999
 20
37.641133
 10
3.141110999999999
 20
42.64112299999999
 10
8.141111
 20
42.64112299999999
 10
8.141111
 20
37.641133
 10
3.141110999999999
 20
37.641133
  0
LWPOLYLINE
  5
10D
330
1F
100
AcDbEntity
  8
LAYER_1
 62
     7
100
AcDbPolyline
 90
        5
 70
     0
 43
0.0
 10
3.141110999999999
 20
62.64114
 10
3.141110999999999
 20
67.64113
 10
8.141111
 20
67.64113
 10
8.141111
 20
62.64114
 10
3.141110999999999
 20
62.64114
  0
LWPOLYLINE
  5
10E
330
1F
100
AcDbEntity
  8
LAYER_1
 62
     7
100
AcDbPolyline
 90
       51
 70
     0
 43
0.0
 10
11.441111
 20
52.64113199999999
 10
11.474111
 20
53.167137
 10
11.573111
 20
53.68512800000001
 10
11.736111
 20
54.187117
 10
11.961111
 20
54.664129
 10
12.243111
 20
55.11012499999999
 10
12.579111
 20
55.51612900000001
 10
12.964111
 20
55.87711999999999
 10
13.391111
 20
56.187141
 10
13.853111
 20
56.441141
 10
14.343111
 20
56.635141
 10
14.854111
 20
56.767136
 10
15.377111
 20
56.83311899999999
 10
15.905111
 20
56.83311899999999
 10
16.428111
 20
56.767136
 10
16.939111
 20
56.635141
 10
17.429111
 20
56.441141
 10
17.891111
 20
56.187141
 10
18.318111
 20
55.87711999999999
 10
18.703111
 20
55.51612900000001
 10
19.039111
 20
55.11012499999999
 10
19.321111
 20
54.664129
 10
19.546111
 20
54.187117
 10
19.709111
 20
53.68512800000001
 10
19.808111
 20
53.167137
 10
19.84111099999999
 20
52.64113199999999
 10
19.808111
 20
52.115126
 10
19.709111
 20
51.59713499999999
 10
19.546111
 20
51.09511799999999
 10
19.321111
 20
50.61813499999999
 10
19.039111
 20
50.172139
 10
18.703111
 20
49.766134
 10
18.318111
 20
49.405143
 10
17.891111
 20
49.09512199999999
 10
17.429111
 20
48.841122
 10
16.939111
 20
48.647123
 10
16.428111
 20
48.515127
 10
15.905111
 20
48.449144
 10
15.377111
 20
48.449144
 10
14.854111
 20
48.515127
 10
14.343111
 20
48.647123
 10
13.853111
 20
48.841122
 10
13.391111
 20
49.09512199999999
 10
12.964111
 20
49.405143
 10
12.579111
 20
49.766134
 10
12.243111
 20
50.172139
 10
11.961111
 20
50.61813499999999
 10
11.736111
 20
51.09511799999999
 10
11.573111
 20
51.59713499999999
 10
11.474111
 20
52.115126
 10
11.441111
 20
52.64113199999999
  0
LWPOLYLINE
  5
10F
330
1F
100
AcDbEntity
  8
LAYER_1
 62
     7
100
AcDbPolyline
 90
       51
 70
     0
 43
0.0
 10
14.141111
 20
40.141143
 10
14.153111
 20
40.329131
 10
14.188111
 20
40.514127
 10
14.246111
 20
40.69314099999999
 10
14.327111
 20
40.864139
 10
14.427111
 20
41.02314299999999
 10
14.548111
 20
41.16812099999999
 10
14.685111
 20
41.297125
 10
14.837111
 20
41.40713499999999
 10
15.002111
 20
41.49812299999999
 10
15.177111
 20
41.56814299999999
 10
15.360111
 20
41.614117
 10
15.547111
 20
41.638106
 10
15.735111
 20
41.638134
 10
15.922111
 20
41.614145
 10
16.105111
 20
41.56814299999999
 10
16.280111
 20
41.49812299999999
 10
16.445111
 20
41.40713499999999
 10
16.597111
 20
41.297125
 10
16.734111
 20
41.16812099999999
 10
16.855111
 20
41.02314299999999
 10
16.955111
 20
40.864139
 10
17.036111
 20
40.69314099999999
 10
17.094111
 20
40.514127
 10
17.129111
 20
40.329131
 10
17.141111
 20
40.141143
 10
17.129111
 20
39.953126
 10
17.094111
 20
39.768129
 10
17.036111
 20
39.589144
 10
16.955111
 20
39.418117
 10
16.855111
 20
39.259142
 10
16.734111
 20
39.114136
 10
16.597111
 20
38.985132
 10
16.445111
 20
38.875122
 10
16.280111
 20
38.784133
 10
16.105111
 20
38.714142
 10
15.922111
 20
38.66814
 10
15.735111
 20
38.644151
 10
15.547111
 20
38.644123
 10
15.360111
 20
38.668112
 10
15.177111
 20
38.714142
 10
15.002111
 20
38.784133
 10
14.837111
 20
38.875122
 10
14.685111
 20
38.985132
 10
14.548111
 20
39.114136
 10
14.427111
 20
39.259142
 10
14.327111
 20
39.418117
 10
14.246111
 20
39.589144
 10
14.188111
 20
39.768129
 10
14.153111
 20
39.953126
 10
14.141111
 20
40.141143
  0
LWPOLYLINE
  5
110
330
1F
100
AcDbEntity
  8
LAYER_1
 62
     7
100
AcDbPolyline
 90
       51
 70
     0
 43
0.0
 10
14.141111
 20
65.141121
 10
14.153111
 20
65.329137
 10
14.188111
 20
65.514134
 10
14.246111
 20
65.69311899999999
 10
14.327111
 20
65.864118
 10
14.427111
 20
66.023122
 10
14.548111
 20
66.168127
 10
14.685111
 20
66.297131
 10
14.837111
 20
66.40714100000001
 10
15.002111
 20
66.49813
 10
15.177111
 20
66.56812099999999
 10
15.360111
 20
66.61412299999999
 10
15.547111
 20
66.63811199999999
 10
15.735111
 20
66.63814000000001
 10
15.922111
 20
66.61415100000001
 10
16.105111
 20
66.56812099999999
 10
16.280111
 20
66.49813
 10
16.445111
 20
66.40714100000001
 10
16.597111
 20
66.297131
 10
16.734111
 20
66.168127
 10
16.855111
 20
66.023122
 10
16.955111
 20
65.864118
 10
17.036111
 20
65.69311899999999
 10
17.094111
 20
65.514134
 10
17.129111
 20
65.329137
 10
17.141111
 20
65.141121
 10
17.129111
 20
64.95313299999999
 10
17.094111
 20
64.76813599999999
 10
17.036111
 20
64.589122
 10
16.955111
 20
64.418124
 10
16.855111
 20
64.25912
 10
16.734111
 20
64.114142
 10
16.597111
 20
63.98513900000001
 10
16.445111
 20
63.875128
 10
16.280111
 20
63.78414
 10
16.105111
 20
63.714121
 10
15.922111
 20
63.668118
 10
15.735111
 20
63.64412900000001
 10
15.547111
 20
63.64412900000001
 10
15.360111
 20
63.668118
 10
15.177111
 20
63.714121
 10
15.002111
 20
63.78414
 10
14.837111
 20
63.875128
 10
14.685111
 20
63.98513900000001
 10
14.548111
 20
64.114142
 10
14.427111
 20
64.25912
 10
14.327111
 20
64.418124
 10
14.246111
 20
64.589122
 10
14.188111
 20
64.76813599999999
 10
14.153111
 20
64.95313299999999
 10
14.141111
 20
65.141121
  0
LWPOLYLINE
  5
111
330
1F
100
AcDbEntity
  8
LAYER_1
 62
     7
100
AcDbPolyline
 90
        5
 70
     0
 43
0.0
 10
23.141111
 20
37.641133
 10
23.141111
 20
42.64112299999999
 10
28.141111
 20
42.64112299999999
 10
28.141111
 20
37.641133
 10
23.141111
 20
37.641133
  0
LWPOLYLINE
  5
112
330
1F
100
AcDbEntity
  8
LAYER_1
 62
     7
100
AcDbPolyline
 90
        5
 70
     0
 43
0.0
 10
23.141111
 20
62.64114
 10
23.141111
 20
67.64113
 10
28.141111
 20
67.64113
 10
28.141111
 20
62.64114
 10
23.141111
 20
62.64114
  0
LWPOLYLINE
  5
114
330
1F
100
AcDbEntity
  8
LAYER_1
 62
     7
100
AcDbPolyline
 90
        5
 70
     0
 43
0.0
 10
34.14111099999999
 20
2.641125999999999
 10
34.14111099999999
 20
7.641116
 10
39.14111099999999
 20
7.641116
 10
39.14111099999999
 20
2.641125999999999
 10
34.14111099999999
 20
2.641125999999999
  0
LWPOLYLINE
  5
115
330
1F
100
AcDbEntity
  8
LAYER_1
 62
     7
100
AcDbPolyline
 90
        5
 70
     0
 43
0.0
 10
34.14111099999999
 20
27.641133
 10
34.14111099999999
 20
32.641123
 10
39.14111099999999
 20
32.641123
 10
39.14111099999999
 20
27.641133
 10
34.14111099999999
 20
27.641133
  0
LWPOLYLINE
  5
116
330
1F
100
AcDbEntity
  8
LAYER_1
 62
     7
100
AcDbPolyline
 90
       51
 70
     0
 43
0.0
 10
42.441111
 20
17.641125
 10
42.47411099999999
 20
18.16713
 10
42.57311099999999
 20
18.685121
 10
42.736111
 20
19.18711
 10
42.961111
 20
19.664122
 10
43.243111
 20
20.110117
 10
43.57911099999999
 20
20.516122
 10
43.96411099999999
 20
20.877113
 10
44.39111099999999
 20
21.187134
 10
44.85311099999999
 20
21.441134
 10
45.343111
 20
21.635133
 10
45.85411099999999
 20
21.767129
 10
46.37711099999999
 20
21.833112
 10
46.905111
 20
21.833112
 10
47.42811099999999
 20
21.767129
 10
47.93911099999999
 20
21.635133
 10
48.429111
 20
21.441134
 10
48.891111
 20
21.187134
 10
49.318111
 20
20.877113
 10
49.70311099999999
 20
20.516122
 10
50.03911099999999
 20
20.110117
 10
50.321111
 20
19.664122
 10
50.54611099999999
 20
19.18711
 10
50.709111
 20
18.685121
 10
50.808111
 20
18.16713
 10
50.841111
 20
17.641125
 10
50.808111
 20
17.115119
 10
50.709111
 20
16.597128
 10
50.54611099999999
 20
16.095111
 10
50.321111
 20
15.618127
 10
50.03911099999999
 20
15.172132
 10
49.70311099999999
 20
14.766127
 10
49.318111
 20
14.405136
 10
48.891111
 20
14.095115
 10
48.429111
 20
13.841115
 10
47.93911099999999
 20
13.647116
 10
47.42811099999999
 20
13.51512
 10
46.905111
 20
13.449137
 10
46.37711099999999
 20
13.449137
 10
45.85411099999999
 20
13.51512
 10
45.343111
 20
13.647116
 10
44.85311099999999
 20
13.841115
 10
44.39111099999999
 20
14.095115
 10
43.96411099999999
 20
14.405136
 10
43.57911099999999
 20
14.766127
 10
43.243111
 20
15.172132
 10
42.961111
 20
15.618127
 10
42.736111
 20
16.095111
 10
42.57311099999999
 20
16.597128
 10
42.47411099999999
 20
17.115119
 10
42.441111
 20
17.641125
  0
LWPOLYLINE
  5
117
330
1F
100
AcDbEntity
  8
LAYER_1
 62
     7
100
AcDbPolyline
 90
       51
 70
     0
 43
0.0
 10
45.141111
 20
5.141135
 10
45.15311099999999
 20
5.329124
 10
45.18811099999999
 20
5.51412
 10
45.246111
 20
5.693133999999999
 10
45.327111
 20
5.864131999999999
 10
45.427111
 20
6.023136
 10
45.548111
 20
6.168114
 10
45.685111
 20
6.297118
 10
45.837111
 20
6.407128
 10
46.002111
 20
6.498116
 10
46.177111
 20
6.568135999999999
 10
46.360111
 20
6.61411
 10
46.547111
 20
6.638099
 10
46.73511099999999
 20
6.638127
 10
46.922111
 20
6.614138
 10
47.105111
 20
6.568135999999999
 10
47.28011099999999
 20
6.498116
 10
47.44511099999999
 20
6.407128
 10
47.59711099999999
 20
6.297118
 10
47.73411099999999
 20
6.168114
 10
47.85511099999999
 20
6.023136
 10
47.95511099999999
 20
5.864131999999999
 10
48.036111
 20
5.693133999999999
 10
48.094111
 20
5.51412
 10
48.129111
 20
5.329124
 10
48.14111099999999
 20
5.141135
 10
48.129111
 20
4.953119
 10
48.094111
 20
4.768121999999999
 10
48.036111
 20
4.589137
 10
47.95511099999999
 20
4.418109999999999
 10
47.85511099999999
 20
4.259134999999999
 10
47.73411099999999
 20
4.114129
 10
47.59711099999999
 20
3.985125
 10
47.44511099999999
 20
3.875115
 10
47.28011099999999
 20
3.784126
 10
47.105111
 20
3.714134999999999
 10
46.922111
 20
3.668133
 10
46.73511099999999
 20
3.644144
 10
46.547111
 20
3.644116
 10
46.360111
 20
3.668105
 10
46.177111
 20
3.714134999999999
 10
46.002111
 20
3.784126
 10
45.837111
 20
3.875115
 10
45.685111
 20
3.985125
 10
45.548111
 20
4.114129
 10
45.427111
 20
4.259134999999999
 10
45.327111
 20
4.418109999999999
 10
45.246111
 20
4.589137
 10
45.18811099999999
 20
4.768121999999999
 10
45.15311099999999
 20
4.953119
 10
45.141111
 20
5.141135
  0
LWPOLYLINE
  5
118
330
1F
100
AcDbEntity
  8
LAYER_1
 62
     7
100
AcDbPolyline
 90
       51
 70
     0
 43
0.0
 10
45.141111
 20
30.141114
 10
45.15311099999999
 20
30.32913
 10
45.18811099999999
 20
30.514127
 10
45.246111
 20
30.693112
 10
45.327111
 20
30.864111
 10
45.427111
 20
31.023115
 10
45.548111
 20
31.16812
 10
45.685111
 20
31.297124
 10
45.837111
 20
31.407134
 10
46.002111
 20
31.498123
 10
46.177111
 20
31.568114
 10
46.360111
 20
31.614116
 10
46.547111
 20
31.638105
 10
46.73511099999999
 20
31.63813300000001
 10
46.922111
 20
31.614144
 10
47.105111
 20
31.568114
 10
47.28011099999999
 20
31.498123
 10
47.44511099999999
 20
31.407134
 10
47.59711099999999
 20
31.297124
 10
47.73411099999999
 20
31.16812
 10
47.85511099999999
 20
31.023115
 10
47.95511099999999
 20
30.864111
 10
48.036111
 20
30.693112
 10
48.094111
 20
30.514127
 10
48.129111
 20
30.32913
 10
48.14111099999999
 20
30.141114
 10
48.129111
 20
29.953125
 10
48.094111
 20
29.768129
 10
48.036111
 20
29.58911500000001
 10
47.95511099999999
 20
29.418117
 10
47.85511099999999
 20
29.259113
 10
47.73411099999999
 20
29.114135
 10
47.59711099999999
 20
28.985131
 10
47.44511099999999
 20
28.875121
 10
47.28011099999999
 20
28.784133
 10
47.105111
 20
28.714113
 10
46.922111
 20
28.668111
 10
46.73511099999999
 20
28.644122
 10
46.547111
 20
28.644122
 10
46.360111
 20
28.668111
 10
46.177111
 20
28.714113
 10
46.002111
 20
28.784133
 10
45.837111
 20
28.875121
 10
45.685111
 20
28.985131
 10
45.548111
 20
29.114135
 10
45.427111
 20
29.259113
 10
45.327111
 20
29.418117
 10
45.246111
 20
29.58911500000001
 10
45.18811099999999
 20
29.768129
 10
45.15311099999999
 20
29.953125
 10
45.141111
 20
30.141114
  0
LWPOLYLINE
  5
119
330
1F
100
AcDbEntity
  8
LAYER_1
 62
     7
100
AcDbPolyline
 90
        5
 70
     0
 43
0.0
 10
54.14111099999999
 20
2.641125999999999
 10
54.14111099999999
 20
7.641116
 10
59.14111099999999
 20
7.641116
 10
59.14111099999999
 20
2.641125999999999
 10
54.14111099999999
 20
2.641125999999999
  0
LWPOLYLINE
  5
11A
330
1F
100
AcDbEntity
  8
LAYER_1
 62
     7
100
AcDbPolyline
 90
        5
 70
     0
 43
0.0
 10
54.14111099999999
 20
27.641133
 10
54.14111099999999
 20
32.641123
 10
59.14111099999999
 20
32.641123
 10
59.14111099999999
 20
27.641133
 10
54.14111099999999
 20
27.641133
  0
LWPOLYLINE
  5
11B
330
1F
100
AcDbEntity
  8
LAYER_1
 62
     7
100
AcDbPolyline
 90
       16
 70
     0
 43
0.0
 10
51.14111199999999
 20
35.141124
 10
51.14111199999999
 20
40.14111399999999
 10
45.04111199999999
 20
40.14111399999999
 10
45.04111199999999
 20
42.21612499999999
 10
46.29111199999999
 20
42.21612499999999
 10
46.29111199999999
 20
43.866137
 10
45.04111199999999
 20
43.866137
 10
45.04111199999999
 20
46.041139
 10
42.241112
 20
46.041139
 10
42.241112
 20
43.866137
 10
40.991112
 20
43.866137
 10
40.991112
 20
42.21612499999999
 10
42.241112
 20
42.21612499999999
 10
42.241112
 20
40.14111399999999
 10
36.141112
 20
40.14111399999999
 10
36.141112
 20
35.141124
  0
LWPOLYLINE
  5
11C
330
1F
100
AcDbEntity
  8
LAYER_1
 62
     7
100
AcDbPolyline
 90
       14
 70
     0
 43
0.0
 10
82.14111199999999
 20
38.941108
 10
76.041112
 20
38.941108
 10
76.041112
 20
41.016119
 10
77.291112
 20
41.016119
 10
77.291112
 20
42.66613099999999
 10
76.041112
 20
42.66613099999999
 10
76.041112
 20
44.84113299999999
 10
73.241112
 20
44.84113299999999
 10
73.241112
 20
42.66613099999999
 10
71.991112
 20
42.66613099999999
 10
71.991112
 20
41.016119
 10
73.241112
 20
41.016119
 10
73.241112
 20
38.941108
 10
67.14111199999999
 20
38.941108
  0
LWPOLYLINE
  5
11D
330
1F
100
AcDbEntity
  8
LAYER_1
 62
     7
100
AcDbPolyline
 90
       17
 70
     0
 43
0.0
 10
117.141113
 20
0.141117
 10
107.141112
 20
0.141117
 10
107.141112
 20
5.141106999999999
 10
101.041113
 20
5.141106999999999
 10
101.041113
 20
7.216117999999998
 10
102.291113
 20
7.216117999999998
 10
102.291113
 20
8.86613
 10
101.041113
 20
8.86613
 10
101.041113
 20
11.041132
 10
98.241112
 20
11.041132
 10
98.241112
 20
8.86613
 10
96.991112
 20
8.86613
 10
96.991112
 20
7.216117999999998
 10
98.241112
 20
7.216117999999998
 10
98.241112
 20
5.141106999999999
 10
92.141113
 20
5.141106999999999
 10
92.141113
 20
0.141117
  0
LWPOLYLINE
  5
11E
330
1F
100
AcDbEntity
  8
LAYER_1
 62
     7
100
AcDbPolyline
 90
       14
 70
     0
 43
0.0
 10
107.141112
 20
38.941105
 10
101.041113
 20
38.941105
 10
101.041113
 20
41.016116
 10
102.291113
 20
41.016116
 10
102.291113
 20
42.66612799999999
 10
101.041113
 20
42.66612799999999
 10
101.041113
 20
44.84112999999999
 10
98.241112
 20
44.84112999999999
 10
98.241112
 20
42.66612799999999
 10
96.991112
 20
42.66612799999999
 10
96.991112
 20
41.016116
 10
98.241112
 20
41.016116
 10
98.241112
 20
38.941105
 10
92.141113
 20
38.941105
  0
LWPOLYLINE
  5
11F
330
1F
100
AcDbEntity
  8
LAYER_1
 62
     7
100
AcDbPolyline
 90
        2
 70
     0
 43
0.0
 10
132.141113
 20
35.141105
 10
117.141113
 20
35.141105
  0
LWPOLYLINE
  5
120
330
1F
100
AcDbEntity
  8
LAYER_1
 62
     7
100
AcDbPolyline
 90
       51
 70
     0
 43
0.0
 10
117.141113
 20
45.14111299999999
 10
117.200113
 20
46.08111
 10
117.377113
 20
47.006122
 10
117.668113
 20
47.902121
 10
118.069113
 20
48.75412199999999
 10
118.573113
 20
49.549113
 10
119.174113
 20
50.275102
 10
119.860113
 20
50.920121
 10
120.622113
 20
51.473107
 10
121.448113
 20
51.927118
 10
122.323113
 20
52.27411
 10
123.236113
 20
52.508101
 10
124.170113
 20
52.62609799999999
 10
125.112113
 20
52.62609799999999
 10
126.046113
 20
52.508101
 10
126.959113
 20
52.27411
 10
127.834113
 20
51.927118
 10
128.660113
 20
51.473107
 10
129.422113
 20
50.920121
 10
130.108113
 20
50.275102
 10
130.709113
 20
49.549113
 10
131.213113
 20
48.75412199999999
 10
131.614113
 20
47.902121
 10
131.905113
 20
47.006122
 10
132.082113
 20
46.08111
 10
132.141113
 20
45.14111299999999
 10
132.082113
 20
44.20111499999999
 10
131.905113
 20
43.276104
 10
131.614113
 20
42.380105
 10
131.213113
 20
41.52810399999999
 10
130.709113
 20
40.733112
 10
130.108113
 20
40.007124
 10
129.422113
 20
39.362105
 10
128.660113
 20
38.809119
 10
127.834113
 20
38.355108
 10
126.959113
 20
38.008115
 10
126.046113
 20
37.774125
 10
125.112113
 20
37.65610000000001
 10
124.170113
 20
37.65610000000001
 10
123.236113
 20
37.774125
 10
122.323113
 20
38.008115
 10
121.448113
 20
38.355108
 10
120.622113
 20
38.809119
 10
119.860113
 20
39.362105
 10
119.174113
 20
40.007124
 10
118.573113
 20
40.733112
 10
118.069113
 20
41.52810399999999
 10
117.668113
 20
42.380105
 10
117.377113
 20
43.276104
 10
117.200113
 20
44.20111499999999
 10
117.141113
 20
45.14111299999999
  0
LWPOLYLINE
  5
121
330
1F
100
AcDbEntity
  8
LAYER_1
 62
     7
100
AcDbPolyline
 90
        5
 70
     0
 43
0.0
 10
167.141115
 20
0.141117
 10
157.141114
 20
0.141117
 10
157.141114
 20
5.141106999999999
 10
142.141114
 20
5.141106999999999
 10
142.141114
 20
0.141117
  0
LWPOLYLINE
  5
122
330
1F
100
AcDbEntity
  8
LAYER_1
 62
     7
100
AcDbPolyline
 90
       51
 70
     0
 43
0.0
 10
142.141114
 20
15.141115
 10
142.200114
 20
16.081113
 10
142.3771139999999
 20
17.006125
 10
142.668114
 20
17.902124
 10
143.069114
 20
18.754124
 10
143.573114
 20
19.549116
 10
144.174114
 20
20.275105
 10
144.860114
 20
20.920123
 10
145.622114
 20
21.47311
 10
146.448114
 20
21.927121
 10
147.323114
 20
22.274113
 10
148.236114
 20
22.508103
 10
149.1701139999999
 20
22.6261
 10
150.112114
 20
22.6261
 10
151.046114
 20
22.508103
 10
151.959114
 20
22.274113
 10
152.834114
 20
21.927121
 10
153.660114
 20
21.47311
 10
154.422114
 20
20.920123
 10
155.108114
 20
20.275105
 10
155.709114
 20
19.549116
 10
156.213114
 20
18.754124
 10
156.614114
 20
17.902124
 10
156.905114
 20
17.006125
 10
157.082114
 20
16.081113
 10
157.141114
 20
15.141115
 10
157.082114
 20
14.201118
 10
156.905114
 20
13.276106
 10
156.614114
 20
12.380107
 10
156.213114
 20
11.528107
 10
155.709114
 20
10.733115
 10
155.108114
 20
10.007126
 10
154.422114
 20
9.362106999999999
 10
153.660114
 20
8.809121000000001
 10
152.834114
 20
8.355109999999999
 10
151.959114
 20
8.008117999999999
 10
151.046114
 20
7.774128
 10
150.112114
 20
7.656102
 10
149.1701139999999
 20
7.656102
 10
148.236114
 20
7.774128
 10
147.323114
 20
8.008117999999999
 10
146.448114
 20
8.355109999999999
 10
145.622114
 20
8.809121000000001
 10
144.860114
 20
9.362106999999999
 10
144.174114
 20
10.007126
 10
143.573114
 20
10.733115
 10
143.069114
 20
11.528107
 10
142.668114
 20
12.380107
 10
142.3771139999999
 20
13.276106
 10
142.200114
 20
14.201118
 10
142.141114
 20
15.141115
  0
LWPOLYLINE
  5
123
330
1F
100
AcDbEntity
  8
LAYER_1
 62
     7
100
AcDbPolyline
 90
        2
 70
     0
 43
0.0
 10
157.141114
 20
35.14110200000001
 10
142.141114
 20
35.14110200000001
  0
LWPOLYLINE
  5
124
330
1F
100
AcDbEntity
  8
LAYER_1
 62
     7
100
AcDbPolyline
 90
       51
 70
     0
 43
0.0
 10
142.141114
 20
45.14110999999999
 10
142.200114
 20
46.081107
 10
142.3771139999999
 20
47.006119
 10
142.668114
 20
47.902118
 10
143.069114
 20
48.754119
 10
143.573114
 20
49.549111
 10
144.174114
 20
50.275099
 10
144.860114
 20
50.920118
 10
145.622114
 20
51.473104
 10
146.448114
 20
51.927115
 10
147.323114
 20
52.274107
 10
148.236114
 20
52.50809799999999
 10
149.1701139999999
 20
52.62609499999999
 10
150.112114
 20
52.62609499999999
 10
151.046114
 20
52.50809799999999
 10
151.959114
 20
52.274107
 10
152.834114
 20
51.927115
 10
153.660114
 20
51.473104
 10
154.422114
 20
50.920118
 10
155.108114
 20
50.275099
 10
155.709114
 20
49.549111
 10
156.213114
 20
48.754119
 10
156.614114
 20
47.902118
 10
156.905114
 20
47.006119
 10
157.082114
 20
46.081107
 10
157.141114
 20
45.14110999999999
 10
157.082114
 20
44.201112
 10
156.905114
 20
43.276101
 10
156.614114
 20
42.380102
 10
156.213114
 20
41.52810099999999
 10
155.709114
 20
40.733109
 10
155.108114
 20
40.007121
 10
154.422114
 20
39.362102
 10
153.660114
 20
38.809116
 10
152.834114
 20
38.355105
 10
151.959114
 20
38.008113
 10
151.046114
 20
37.774122
 10
150.112114
 20
37.656097
 10
149.1701139999999
 20
37.656097
 10
148.236114
 20
37.774122
 10
147.323114
 20
38.008113
 10
146.448114
 20
38.355105
 10
145.622114
 20
38.809116
 10
144.860114
 20
39.362102
 10
144.174114
 20
40.007121
 10
143.573114
 20
40.733109
 10
143.069114
 20
41.52810099999999
 10
142.668114
 20
42.380102
 10
142.3771139999999
 20
43.276101
 10
142.200114
 20
44.201112
 10
142.141114
 20
45.14110999999999
  0
LWPOLYLINE
  5
125
330
1F
100
AcDbEntity
  8
LAYER_1
 62
     7
100
AcDbPolyline
 90
        5
 70
     0
 43
0.0
 10
192.141116
 20
0.141117
 10
182.141115
 20
0.141117
 10
182.141115
 20
5.141106999999999
 10
167.141115
 20
5.141106999999999
 10
167.141115
 20
0.141117
  0
LWPOLYLINE
  5
126
330
1F
100
AcDbEntity
  8
LAYER_1
 62
     7
100
AcDbPolyline
 90
       51
 70
     0
 43
0.0
 10
167.141115
 20
15.141115
 10
167.200115
 20
16.081113
 10
167.377115
 20
17.006125
 10
167.668115
 20
17.902124
 10
168.069115
 20
18.754124
 10
168.573115
 20
19.549116
 10
169.174115
 20
20.275105
 10
169.860115
 20
20.920123
 10
170.622115
 20
21.47311
 10
171.448115
 20
21.927121
 10
172.323115
 20
22.274113
 10
173.236115
 20
22.508103
 10
174.170115
 20
22.6261
 10
175.112115
 20
22.6261
 10
176.046115
 20
22.508103
 10
176.959115
 20
22.274113
 10
177.834115
 20
21.927121
 10
178.660115
 20
21.47311
 10
179.422115
 20
20.920123
 10
180.108115
 20
20.275105
 10
180.709115
 20
19.549116
 10
181.213115
 20
18.754124
 10
181.614115
 20
17.902124
 10
181.905115
 20
17.006125
 10
182.082115
 20
16.081113
 10
182.141115
 20
15.141115
 10
182.082115
 20
14.201118
 10
181.905115
 20
13.276106
 10
181.614115
 20
12.380107
 10
181.213115
 20
11.528107
 10
180.709115
 20
10.733115
 10
180.108115
 20
10.007126
 10
179.422115
 20
9.362106999999999
 10
178.660115
 20
8.809121000000001
 10
177.834115
 20
8.355109999999999
 10
176.959115
 20
8.008117999999999
 10
176.046115
 20
7.774128
 10
175.112115
 20
7.656102
 10
174.170115
 20
7.656102
 10
173.236115
 20
7.774128
 10
172.323115
 20
8.008117999999999
 10
171.448115
 20
8.355109999999999
 10
170.622115
 20
8.809121000000001
 10
169.860115
 20
9.362106999999999
 10
169.174115
 20
10.007126
 10
168.573115
 20
10.733115
 10
168.069115
 20
11.528107
 10
167.668115
 20
12.380107
 10
167.377115
 20
13.276106
 10
167.200115
 20
14.201118
 10
167.141115
 20
15.141115
  0
LWPOLYLINE
  5
127
330
1F
100
AcDbEntity
  8
LAYER_1
 62
     7
100
AcDbPolyline
 90
        2
 70
     0
 43
0.0
 10
182.141115
 20
35.141105
 10
167.141115
 20
35.141105
  0
LWPOLYLINE
  5
128
330
1F
100
AcDbEntity
  8
LAYER_1
 62
     7
100
AcDbPolyline
 90
       51
 70
     0
 43
0.0
 10
167.141115
 20
45.14111299999999
 10
167.200115
 20
46.08111
 10
167.377115
 20
47.006122
 10
167.668115
 20
47.902121
 10
168.069115
 20
48.75412199999999
 10
168.573115
 20
49.549113
 10
169.174115
 20
50.275102
 10
169.860115
 20
50.920121
 10
170.622115
 20
51.473107
 10
171.448115
 20
51.927118
 10
172.323115
 20
52.27411
 10
173.236115
 20
52.508101
 10
174.170115
 20
52.62609799999999
 10
175.112115
 20
52.62609799999999
 10
176.046115
 20
52.508101
 10
176.959115
 20
52.27411
 10
177.834115
 20
51.927118
 10
178.660115
 20
51.473107
 10
179.422115
 20
50.920121
 10
180.108115
 20
50.275102
 10
180.709115
 20
49.549113
 10
181.213115
 20
48.75412199999999
 10
181.614115
 20
47.902121
 10
181.905115
 20
47.006122
 10
182.082115
 20
46.08111
 10
182.141115
 20
45.14111299999999
 10
182.082115
 20
44.20111499999999
 10
181.905115
 20
43.276104
 10
181.614115
 20
42.380105
 10
181.213115
 20
41.52810399999999
 10
180.709115
 20
40.733112
 10
180.108115
 20
40.007124
 10
179.422115
 20
39.362105
 10
178.660115
 20
38.809119
 10
177.834115
 20
38.355108
 10
176.959115
 20
38.008115
 10
176.046115
 20
37.774125
 10
175.112115
 20
37.65610000000001
 10
174.170115
 20
37.65610000000001
 10
173.236115
 20
37.774125
 10
172.323115
 20
38.008115
 10
171.448115
 20
38.355108
 10
170.622115
 20
38.809119
 10
169.860115
 20
39.362105
 10
169.174115
 20
40.007124
 10
168.573115
 20
40.733112
 10
168.069115
 20
41.52810399999999
 10
167.668115
 20
42.380105
 10
167.377115
 20
43.276104
 10
167.200115
 20
44.20111499999999
 10
167.141115
 20
45.14111299999999
  0
LWPOLYLINE
  5
129
330
1F
100
AcDbEntity
  8
LAYER_1
 62
     7
100
AcDbPolyline
 90
       43
 70
     0
 43
0.0
 10
187.141116
 20
33.941117
 10
192.141116
 20
33.941117
 10
192.141116
 20
28.941105
 10
198.241116
 20
28.941105
 10
198.241116
 20
26.866122
 10
196.991116
 20
26.866122
 10
196.991116
 20
25.21611
 10
198.241116
 20
25.21611
 10
198.241116
 20
23.041108
 10
201.041116
 20
23.041108
 10
201.041116
 20
25.21611
 10
202.291116
 20
25.21611
 10
202.291116
 20
26.866122
 10
201.041116
 20
26.866122
 10
201.041116
 20
28.941105
 10
207.141116
 20
28.941105
 10
207.141116
 20
33.941117
 10
212.141116
 20
33.941117
 10
212.141116
 20
24.541119
 10
207.141116
 20
24.541119
 10
207.141116
 20
19.541129
 10
212.141116
 20
19.541129
 10
212.141116
 20
14.541111
 10
207.141116
 20
14.541111
 10
207.141116
 20
9.541121
 10
212.141116
 20
9.541121
 10
212.141116
 20
0.141117
 10
207.141116
 20
0.141117
 10
207.141116
 20
5.141106999999999
 10
201.041116
 20
5.141106999999999
 10
201.041116
 20
7.216117999999998
 10
202.291116
 20
7.216117999999998
 10
202.291116
 20
8.86613
 10
201.041116
 20
8.86613
 10
201.041116
 20
11.041132
 10
198.241116
 20
11.041132
 10
198.241116
 20
8.86613
 10
196.991116
 20
8.86613
 10
196.991116
 20
7.216117999999998
 10
198.241116
 20
7.216117999999998
 10
198.241116
 20
5.141106999999999
 10
192.141116
 20
5.141106999999999
 10
192.141116
 20
0.141117
  0
LWPOLYLINE
  5
10057
330
1F
100
AcDbEntity
  8
LAYER_1
 62
     7
100
AcDbPolyline
 90
        4
 70
     0
 43
0.0
 10
187.141116
 20
19.541129
 10
192.141116
 20
19.541129
 10
192.141116
 20
24.541119
 10
187.141116
 20
24.541119
  0
LWPOLYLINE
  5
10058
330
1F
100
AcDbEntity
  8
LAYER_1
 62
     7
100
AcDbPolyline
 90
        4
 70
     0
 43
0.0
 10
187.141116
 20
9.541121
 10
192.141116
 20
9.541121
 10
192.141116
 20
14.541111
 10
187.141116
 20
14.541111
  0
LWPOLYLINE
  5
10059
330
1F
100
AcDbEntity
  8
LAYER_1
 62
     7
100
AcDbPolyline
 90
        5
 70
     0
 43
0.0
 10
167.141115
 20
60.141111
 10
167.141115
 20
55.141121
 10
182.141115
 20
55.141121
 10
182.141115
 20
60.141111
 10
187.141115
 20
60.141111
  0
LWPOLYLINE
  5
1005B
330
1F
100
AcDbEntity
  8
LAYER_1
 62
     7
100
AcDbPolyline
 90
        2
 70
     0
 43
0.0
 10
182.141115
 20
30.141114
 10
187.141115
 20
30.141114
  0
LINE
  5
1005C
330
1F
100
AcDbEntity
  8
LAYER_1
 62
     7
100
AcDbLine
 10
187.141115
 20
60.141111
 30
0.0
 11
187.141115
 21
0.141117
 31
0.0
  0
LWPOLYLINE
  5
1005D
330
1F
100
AcDbEntity
  8
LAYER_1
 62
     7
100
AcDbPolyline
 90
        4
 70
     0
 43
0.0
 10
167.141115
 20
35.141105
 10
167.141115
 20
25.141124
 10
182.141115
 20
25.141124
 10
182.141115
 20
35.141105
  0
LWPOLYLINE
  5
1005F
330
1F
100
AcDbEntity
  8
LAYER_1
 62
     7
100
AcDbPolyline
 90
        5
 70
     0
 43
0.0
 10
142.141114
 20
60.141108
 10
142.141114
 20
55.14111800000001
 10
157.141114
 20
55.14111800000001
 10
157.141114
 20
60.141108
 10
167.141115
 20
60.141111
  0
LWPOLYLINE
  5
10061
330
1F
100
AcDbEntity
  8
LAYER_1
 62
     7
100
AcDbPolyline
 90
        2
 70
     0
 43
0.0
 10
157.141114
 20
30.141114
 10
167.141115
 20
30.141114
  0
LINE
  5
10062
330
1F
100
AcDbEntity
  8
LAYER_1
 62
     7
100
AcDbLine
 10
162.141114
 20
60.141108
 30
0.0
 11
162.141114
 21
0.141117
 31
0.0
  0
LWPOLYLINE
  5
10063
330
1F
100
AcDbEntity
  8
LAYER_1
 62
     7
100
AcDbPolyline
 90
        4
 70
     0
 43
0.0
 10
142.141114
 20
35.14110200000001
 10
142.141114
 20
25.141124
 10
157.141114
 20
25.141124
 10
157.141114
 20
35.14110200000001
  0
LWPOLYLINE
  5
10065
330
1F
100
AcDbEntity
  8
LAYER_1
 62
     7
100
AcDbPolyline
 90
        6
 70
     0
 43
0.0
 10
112.141113
 20
60.141111
 10
117.141113
 20
60.141111
 10
117.141113
 20
55.141121
 10
132.141113
 20
55.141121
 10
132.141113
 20
60.141111
 10
142.141114
 20
60.141108
  0
LWPOLYLINE
  5
10066
330
1F
100
AcDbEntity
  8
LAYER_1
 62
     7
100
AcDbPolyline
 90
        4
 70
     0
 43
0.0
 10
112.141113
 20
48.341109
 10
107.141112
 20
48.341109
 10
107.141112
 20
43.34111899999999
 10
112.141113
 20
43.34111899999999
  0
LWPOLYLINE
  5
10067
330
1F
100
AcDbEntity
  8
LAYER_1
 62
     7
100
AcDbPolyline
 90
        4
 70
     0
 43
0.0
 10
112.141113
 20
58.34111700000001
 10
107.141112
 20
58.34111700000001
 10
107.141112
 20
53.341127
 10
112.141113
 20
53.341127
  0
LWPOLYLINE
  5
10068
330
1F
100
AcDbEntity
  8
LAYER_1
 62
     7
100
AcDbPolyline
 90
       17
 70
     0
 43
0.0
 10
92.141113
 20
67.74111600000001
 10
92.141113
 20
62.741103
 10
98.241112
 20
62.741103
 10
98.241112
 20
60.666121
 10
96.991112
 20
60.666121
 10
96.991112
 20
59.016108
 10
98.241112
 20
59.016108
 10
98.241112
 20
56.841106
 10
101.041113
 20
56.841106
 10
101.041113
 20
59.016108
 10
102.291113
 20
59.016108
 10
102.291113
 20
60.666121
 10
101.041113
 20
60.666121
 10
101.041113
 20
62.741103
 10
107.141112
 20
62.741103
 10
107.141112
 20
67.74111600000001
 10
112.141113
 20
67.74111600000001
  0
LWPOLYLINE
  5
10069
330
1F
100
AcDbEntity
  8
LAYER_1
 62
     7
100
AcDbPolyline
 90
        2
 70
     0
 43
0.0
 10
92.141113
 20
53.341127
 10
92.141113
 20
58.34111700000001
  0
LWPOLYLINE
  5
1006A
330
1F
100
AcDbEntity
  8
LAYER_1
 62
     7
100
AcDbPolyline
 90
        2
 70
     0
 43
0.0
 10
92.141113
 20
43.34111899999999
 10
92.141113
 20
48.341109
  0
LWPOLYLINE
  5
1006C
330
1F
100
AcDbEntity
  8
LAYER_1
 62
     7
100
AcDbPolyline
 90
        4
 70
     0
 43
0.0
 10
112.141113
 20
14.541111
 10
107.141112
 20
14.541111
 10
107.141112
 20
9.541121
 10
112.141113
 20
9.541121
  0
LWPOLYLINE
  5
1006D
330
1F
100
AcDbEntity
  8
LAYER_1
 62
     7
100
AcDbPolyline
 90
        4
 70
     0
 43
0.0
 10
112.141113
 20
24.541119
 10
107.141112
 20
24.541119
 10
107.141112
 20
19.541129
 10
112.141113
 20
19.541129
  0
LWPOLYLINE
  5
1006E
330
1F
100
AcDbEntity
  8
LAYER_1
 62
     7
100
AcDbPolyline
 90
        2
 70
     0
 43
0.0
 10
107.141112
 20
33.941117
 10
112.141113
 20
33.941117
  0
LWPOLYLINE
  5
1006F
330
1F
100
AcDbEntity
  8
LAYER_1
 62
     7
100
AcDbPolyline
 90
       16
 70
     0
 43
0.0
 10
92.141113
 20
38.941105
 10
92.141113
 20
28.941105
 10
98.241112
 20
28.941105
 10
98.241112
 20
26.866122
 10
96.991112
 20
26.866122
 10
96.991112
 20
25.21611
 10
98.241112
 20
25.21611
 10
98.241112
 20
23.041108
 10
101.041113
 20
23.041108
 10
101.041113
 20
25.21611
 10
102.291113
 20
25.21611
 10
102.291113
 20
26.866122
 10
101.041113
 20
26.866122
 10
101.041113
 20
28.941105
 10
107.141112
 20
28.941105
 10
107.141112
 20
38.941105
  0
LWPOLYLINE
  5
10070
330
1F
100
AcDbEntity
  8
LAYER_1
 62
     7
100
AcDbPolyline
 90
        2
 70
     0
 43
0.0
 10
92.141113
 20
19.541129
 10
92.141113
 20
24.541119
  0
LWPOLYLINE
  5
10071
330
1F
100
AcDbEntity
  8
LAYER_1
 62
     7
100
AcDbPolyline
 90
        2
 70
     0
 43
0.0
 10
92.141113
 20
9.541121
 10
92.141113
 20
14.541111
  0
LWPOLYLINE
  5
10073
330
1F
100
AcDbEntity
  8
LAYER_1
 62
     7
100
AcDbPolyline
 90
        4
 70
     0
 43
0.0
 10
92.141113
 20
48.341109
 10
82.14111199999999
 20
48.341112
 10
82.14111199999999
 20
43.34112199999999
 10
92.141113
 20
43.34111899999999
  0
LWPOLYLINE
  5
10074
330
1F
100
AcDbEntity
  8
LAYER_1
 62
     7
100
AcDbPolyline
 90
        2
 70
     0
 43
0.0
 10
87.14111199999999
 20
53.34113000000001
 10
87.14111199999999
 20
48.341112
  0
LWPOLYLINE
  5
10075
330
1F
100
AcDbEntity
  8
LAYER_1
 62
     7
100
AcDbPolyline
 90
        4
 70
     0
 43
0.0
 10
92.141113
 20
58.34111700000001
 10
82.14111199999999
 20
58.34112
 10
82.14111199999999
 20
53.34113000000001
 10
92.141113
 20
53.341127
  0
LWPOLYLINE
  5
10076
330
1F
100
AcDbEntity
  8
LAYER_1
 62
     7
100
AcDbPolyline
 90
        2
 70
     0
 43
0.0
 10
87.14111199999999
 20
67.741118
 10
87.14111199999999
 20
58.34112
  0
LWPOLYLINE
  5
10077
330
1F
100
AcDbEntity
  8
LAYER_1
 62
     7
100
AcDbPolyline
 90
       26
 70
     0
 43
0.0
 10
62.141112
 20
43.34112199999999
 10
67.14111199999999
 20
43.34112199999999
 10
67.14111199999999
 20
48.341112
 10
62.141112
 20
48.341112
 10
62.141112
 20
53.34113000000001
 10
67.14111199999999
 20
53.34113000000001
 10
67.14111199999999
 20
58.34112
 10
62.141112
 20
58.34112
 10
62.141112
 20
67.741118
 10
67.14111199999999
 20
67.741118
 10
67.14111199999999
 20
62.741106
 10
73.241112
 20
62.741106
 10
73.241112
 20
60.666123
 10
71.991112
 20
60.666123
 10
71.991112
 20
59.016111
 10
73.241112
 20
59.016111
 10
73.241112
 20
56.841109
 10
76.041112
 20
56.841109
 10
76.041112
 20
59.016111
 10
77.291112
 20
59.016111
 10
77.291112
 20
60.666123
 10
76.041112
 20
60.666123
 10
76.041112
 20
62.741106
 10
82.14111199999999
 20
62.741106
 10
82.14111199999999
 20
67.741118
 10
92.141113
 20
67.74111600000001
  0
LWPOLYLINE
  5
10078
330
1F
100
AcDbEntity
  8
LAYER_1
 62
     7
100
AcDbPolyline
 90
       27
 70
     0
 43
0.0
 10
31.141111
 20
68.941124
 10
36.141112
 20
68.941124
 10
36.141112
 20
63.941112
 10
42.241112
 20
63.941112
 10
42.241112
 20
61.866129
 10
40.991112
 20
61.866129
 10
40.991112
 20
60.21611700000001
 10
42.241112
 20
60.21611700000001
 10
42.241112
 20
58.04111500000001
 10
45.04111199999999
 20
58.04111500000001
 10
45.04111199999999
 20
60.21611700000001
 10
46.29111199999999
 20
60.21611700000001
 10
46.29111199999999
 20
61.866129
 10
45.04111199999999
 20
61.866129
 10
45.04111199999999
 20
63.941112
 10
51.14111199999999
 20
63.941112
 10
51.14111199999999
 20
68.941124
 10
56.14111199999999
 20
68.941124
 10
56.14111199999999
 20
59.541126
 10
51.14111199999999
 20
59.541126
 10
51.14111199999999
 20
54.541136
 10
56.14111199999999
 20
54.541136
 10
56.14111199999999
 20
49.54111799999999
 10
51.14111199999999
 20
49.54111799999999
 10
51.14111199999999
 20
44.54112799999999
 10
56.14111199999999
 20
44.54112799999999
 10
56.14111199999999
 20
35.141124
  0
LWPOLYLINE
  5
10079
330
1F
100
AcDbEntity
  8
LAYER_1
 62
     7
100
AcDbPolyline
 90
        4
 70
     0
 43
0.0
 10
31.141111
 20
54.541136
 10
36.141112
 20
54.541136
 10
36.141112
 20
59.541126
 10
31.141111
 20
59.541126
  0
LWPOLYLINE
  5
1007A
330
1F
100
AcDbEntity
  8
LAYER_1
 62
     7
100
AcDbPolyline
 90
        4
 70
     0
 43
0.0
 10
31.141111
 20
44.54112799999999
 10
36.141112
 20
44.54112799999999
 10
36.141112
 20
49.54111799999999
 10
31.141111
 20
49.54111799999999
  0
LINE
  5
1007B
330
1F
100
AcDbEntity
  8
LAYER_1
 62
     7
100
AcDbLine
 10
62.141112
 20
43.34112199999999
 30
0.0
 11
62.141111
 21
0.141117
 31
0.0
  0
LWPOLYLINE
  5
1007C
330
1F
100
AcDbEntity
  8
LAYER_1
 62
     7
100
AcDbPolyline
 90
        2
 70
     0
 43
0.0
 10
132.141113
 20
30.141114
 10
142.141114
 20
30.141114
  0
LINE
  5
1007D
330
1F
100
AcDbEntity
  8
LAYER_1
 62
     7
100
AcDbLine
 10
137.141113
 20
60.141111
 30
0.0
 11
137.141113
 21
0.141117
 31
0.0
  0
LWPOLYLINE
  5
1007E
330
1F
100
AcDbEntity
  8
LAYER_1
 62
     7
100
AcDbPolyline
 90
        4
 70
     0
 43
0.0
 10
117.141113
 20
35.141105
 10
117.141113
 20
25.141124
 10
132.141113
 20
25.141124
 10
132.141113
 20
35.141105
  0
LWPOLYLINE
  5
1007F
330
1F
100
AcDbEntity
  8
LAYER_1
 62
     7
100
AcDbPolyline
 90
        2
 70
     0
 43
0.0
 10
112.141113
 20
30.141114
 10
117.141113
 20
30.141114
  0
LINE
  5
10080
330
1F
100
AcDbEntity
  8
LAYER_1
 62
     7
100
AcDbLine
 10
112.141113
 20
0.141117
 30
0.0
 11
112.141113
 21
67.74111600000001
 31
0.0
  0
LINE
  5
10081
330
1F
100
AcDbEntity
  8
LAYER_1
 62
     7
100
AcDbLine
 10
67.14111199999999
 20
0.141117
 30
0.0
 11
0.141111
 21
0.141117
 31
0.0
  0
LINE
  5
10082
330
1F
100
AcDbEntity
  8
LAYER_1
 62
     7
100
AcDbLine
 10
31.141111
 20
70.14113
 30
0.0
 11
31.141111
 21
0.141117
 31
0.0
  0
LINE
  5
10083
330
1F
100
AcDbEntity
  8
LAYER_1
 62
     7
100
AcDbLine
 10
0.141111
 20
0.141117
 30
0.0
 11
0.141111
 21
70.14113
 31
0.0
  0
LWPOLYLINE
  5
10084
330
1F
100
AcDbEntity
  8
LAYER_1
 62
     7
100
AcDbPolyline
 90
        2
 70
     0
 43
0.0
 10
87.14111199999999
 20
9.541121
 10
87.14111199999999
 20
0.141117
  0
LWPOLYLINE
  5
10085
330
1F
100
AcDbEntity
  8
LAYER_1
 62
     7
100
AcDbPolyline
 90
        4
 70
     0
 43
0.0
 10
92.141113
 20
14.541111
 10
82.14111199999999
 20
14.541111
 10
82.14111199999999
 20
9.541121
 10
92.141113
 20
9.541121
  0
LWPOLYLINE
  5
10086
330
1F
100
AcDbEntity
  8
LAYER_1
 62
     7
100
AcDbPolyline
 90
        2
 70
     0
 43
0.0
 10
87.14111199999999
 20
19.541129
 10
87.14111199999999
 20
14.541111
  0
LWPOLYLINE
  5
10087
330
1F
100
AcDbEntity
  8
LAYER_1
 62
     7
100
AcDbPolyline
 90
        4
 70
     0
 43
0.0
 10
92.141113
 20
24.541119
 10
82.14111199999999
 20
24.541119
 10
82.14111199999999
 20
19.541129
 10
92.141113
 20
19.541129
  0
LWPOLYLINE
  5
10088
330
1F
100
AcDbEntity
  8
LAYER_1
 62
     7
100
AcDbPolyline
 90
        2
 70
     0
 43
0.0
 10
82.14111199999999
 20
33.941117
 10
92.141113
 20
33.941117
  0
LINE
  5
10089
330
1F
100
AcDbEntity
  8
LAYER_1
 62
     7
100
AcDbLine
 10
87.14111199999999
 20
43.34112199999999
 30
0.0
 11
87.14111199999999
 21
24.541119
 31
0.0
  0
LWPOLYLINE
  5
1008A
330
1F
100
AcDbEntity
  8
LAYER_1
 62
     7
100
AcDbPolyline
 90
       16
 70
     0
 43
0.0
 10
67.14111199999999
 20
38.941108
 10
67.14111199999999
 20
28.941105
 10
73.241112
 20
28.941105
 10
73.241112
 20
26.866122
 10
71.991112
 20
26.866122
 10
71.991112
 20
25.21611
 10
73.241112
 20
25.21611
 10
73.241112
 20
23.041108
 10
76.041112
 20
23.041108
 10
76.041112
 20
25.21611
 10
77.291112
 20
25.21611
 10
77.291112
 20
26.866122
 10
76.041112
 20
26.866122
 10
76.041112
 20
28.941105
 10
82.14111199999999
 20
28.941105
 10
82.14111199999999
 20
38.941108
  0
LWPOLYLINE
  5
1008B
330
1F
100
AcDbEntity
  8
LAYER_1
 62
     7
100
AcDbPolyline
 90
        2
 70
     0
 43
0.0
 10
62.141112
 20
33.941117
 10
67.14111199999999
 20
33.941117
  0
LWPOLYLINE
  5
1008C
330
1F
100
AcDbEntity
  8
LAYER_1
 62
     7
100
AcDbPolyline
 90
        4
 70
     0
 43
0.0
 10
62.141112
 20
19.541129
 10
67.14111199999999
 20
19.541129
 10
67.14111199999999
 20
24.541119
 10
62.141112
 20
24.541119
  0
LWPOLYLINE
  5
1008D
330
1F
100
AcDbEntity
  8
LAYER_1
 62
     7
100
AcDbPolyline
 90
        4
 70
     0
 43
0.0
 10
62.141112
 20
9.541121
 10
67.14111199999999
 20
9.541121
 10
67.14111199999999
 20
14.541111
 10
62.141112
 20
14.541111
  0
ENDSEC
  0
SECTION
  2
OBJECTS
  0
DICTIONARY
  5
C
330
0
100
AcDbDictionary
281
     1
  3
ACAD_CIP_PREVIOUS_PRODUCT_INFO
350
10056
  3
ACAD_COLOR
350
10035
  3
ACAD_DETAILVIEWSTYLE
350
1004E
  3
ACAD_GROUP
350
D
  3
ACAD_LAYOUT
350
10050
  3
ACAD_MATERIAL
350
10003
  3
ACAD_MLEADERSTYLE
350
1004A
  3
ACAD_MLINESTYLE
350
17
  3
ACAD_PLOTSETTINGS
350
10051
  3
ACAD_PLOTSTYLENAME
350
10001
  3
ACAD_SCALELIST
350
10038
  3
ACAD_SECTIONVIEWSTYLE
350
1004C
  3
ACAD_TABLESTYLE
350
10036
  3
ACAD_VISUALSTYLE
350
1001C
  3
ACDB_RECOMPOSE_DATA
350
100A3
  3
AcDbVariableDictionary
350
10092
  0
DICTIONARY
  5
1008E
330
50
100
AcDbDictionary
280
     1
281
     1
  3
ADSK_XREC_LAYER_RECONCILED
360
1008F
  0
DICTIONARY
  5
10090
330
51
100
AcDbDictionary
280
     1
281
     1
  3
ADSK_XREC_LAYER_RECONCILED
360
10091
  0
XRECORD
  5
10056
102
{ACAD_REACTORS
330
C
102
}
330
C
100
AcDbXrecord
280
     1
300
ACD
300
2014
300
ACD_F_S
  0
DICTIONARY
  5
10035
102
{ACAD_REACTORS
330
C
102
}
330
C
100
AcDbDictionary
281
     1
  0
DICTIONARY
  5
1004E
102
{ACAD_REACTORS
330
C
102
}
330
C
100
AcDbDictionary
281
     1
  3
Metric50
350
1004F
  0
DICTIONARY
  5
D
330
C
100
AcDbDictionary
281
     1
  0
DICTIONARY
  5
10050
102
{ACAD_REACTORS
330
C
102
}
330
C
100
AcDbDictionary
281
     1
  3
Layout1
350
10053
  3
Model
350
10052
  0
DICTIONARY
  5
10003
102
{ACAD_REACTORS
330
C
102
}
330
C
100
AcDbDictionary
281
     1
  3
ByBlock
350
1000C
  3
ByLayer
350
10004
  3
Global
350
10014
  0
DICTIONARY
  5
1004A
102
{ACAD_REACTORS
330
C
102
}
330
C
100
AcDbDictionary
281
     1
  3
Standard
350
1004B
  0
DICTIONARY
  5
17
330
C
100
AcDbDictionary
281
     1
  0
DICTIONARY
  5
10051
102
{ACAD_REACTORS
330
C
102
}
330
C
100
AcDbDictionary
281
     1
  0
ACDBDICTIONARYWDFLT
  5
10001
102
{ACAD_REACTORS
330
C
102
}
330
C
100
AcDbDictionary
281
     1
  3
Normal
350
10002
100
AcDbDictionaryWithDefault
340
10002
  0
DICTIONARY
  5
10038
102
{ACAD_REACTORS
330
C
102
}
330
C
100
AcDbDictionary
281
     1
  3
A0
350
10039
  3
A1
350
1003A
  3
A2
350
1003B
  3
A3
350
1003C
  3
A4
350
1003D
  3
A5
350
1003E
  3
A6
350
1003F
  3
A7
350
10040
  3
A8
350
10041
  3
A9
350
10042
  3
B0
350
10043
  3
B1
350
10044
  3
B2
350
10045
  3
B3
350
10046
  3
B4
350
10047
  3
B5
350
10048
  3
B6
350
10049
  0
DICTIONARY
  5
1004C
102
{ACAD_REACTORS
330
C
102
}
330
C
100
AcDbDictionary
281
     1
  3
Metric50
350
1004D
  0
DICTIONARY
  5
10036
102
{ACAD_REACTORS
330
C
102
}
330
C
100
AcDbDictionary
281
     1
  3
Standard
350
10037
  0
DICTIONARY
  5
1001C
102
{ACAD_REACTORS
330
C
102
}
330
C
100
AcDbDictionary
281
     1
  3
2dWireframe
350
10022
  3
Basic
350
10021
  3
Brighten
350
10028
  3
ColorChange
350
1002C
  3
Conceptual
350
10025
  3
Dim
350
10027
  3
EdgeColorOff
350
10034
  3
Facepattern
350
1002B
  3
Flat
350
1001D
  3
FlatWithEdges
350
1001E
  3
Gouraud
350
1001F
  3
GouraudWithEdges
350
10020
  3
Hidden
350
10024
  3
JitterOff
350
10032
  3
Linepattern
350
1002A
  3
OverhangOff
350
10033
  3
Realistic
350
10026
  3
Shaded
350
10031
  3
Shaded with edges
350
10030
  3
Shades of Gray
350
1002D
  3
Sketchy
350
1002E
  3
Thicken
350
10029
  3
Wireframe
350
10023
  3
X-Ray
350
1002F
  0
XRECORD
  5
100A3
102
{ACAD_REACTORS
330
C
102
}
330
C
100
AcDbXrecord
280
     1
 90
        1
330
10037
330
1004D
330
1004F
  0
DICTIONARY
  5
10092
102
{ACAD_REACTORS
330
C
102
}
330
C
100
AcDbDictionary
281
     1
  3
CANNOSCALE
350
10098
  3
CMLEADERSTYLE
350
10094
  3
CTABLESTYLE
350
10093
  3
CVIEWDETAILSTYLE
350
10095
  3
CVIEWSECTIONSTYLE
350
10096
  3
LAYEREVAL
350
1009A
  3
LAYERNOTIFY
350
1009B
  3
LIGHTINGUNITS
350
10099
  3
MSLTSCALE
350
10097
  0
XRECORD
  5
1008F
102
{ACAD_REACTORS
330
1008E
102
}
330
1008E
100
AcDbXrecord
280
     1
290
     1
  0
XRECORD
  5
10091
102
{ACAD_REACTORS
330
10090
102
}
330
10090
100
AcDbXrecord
280
     1
290
     1
  0
ACDBDETAILVIEWSTYLE
  5
1004F
102
{ACAD_XDICTIONARY
360
100A1
102
}
102
{ACAD_REACTORS
330
1004E
102
}
330
1004E
100
AcDbModelDocViewStyle
 70
     0
  3
Metric50
290
     0
100
AcDbDetailViewStyle
 70
     0
 71
     0
 90
        3
 71
     1
340
11
 62
   256
 40
5.0
340
0
 62
   256
 40
5.0
300

 40
0.0
280
     1
 71
     2
340
16
 90
       25
 62
   256
 71
     3
340
11
 62
   256
 40
5.0
 90
        0
 40
15.0
 90
        1
300
%<\AcVar ViewDetailId>% (%<\AcVar ViewScale \f "%sn">%)
 71
     4
340
16
 90
       25
 62
   256
340
16
 90
       25
 62
   256
280
     0
  0
LAYOUT
  5
10053
102
{ACAD_REACTORS
330
10050
102
}
330
10050
100
AcDbPlotSettings
  1

  2
Canon LBP6020
  4

  6

 40
0.0
 41
0.0
 42
0.0
 43
0.0
 44
0.0
 45
0.0
 46
0.0
 47
0.0
 48
0.0
 49
0.0
140
0.0
141
0.0
142
1.0
143
1.0
 70
   688
 72
     0
 73
     0
 74
     5
  7

 75
    16
147
1.0
 76
     0
 77
     2
 78
   300
148
0.0
149
0.0
100
AcDbLayout
  1
Layout1
 70
     1
 71
     1
 10
0.0
 20
0.0
 11
12.0
 21
9.0
 12
0.0
 22
0.0
 32
0.0
 14
1.000000000000000E+20
 24
1.000000000000000E+20
 34
1.000000000000000E+20
 15
-1.000000000000000E+20
 25
-1.000000000000000E+20
 35
-1.000000000000000E+20
146
0.0
 13
0.0
 23
0.0
 33
0.0
 16
1.0
 26
0.0
 36
0.0
 17
0.0
 27
1.0
 37
0.0
 76
     0
330
1B
  0
LAYOUT
  5
10052
102
{ACAD_REACTORS
330
10050
102
}
330
10050
100
AcDbPlotSettings
  1

  2
Canon LBP6020
  4

  6

 40
0.0
 41
0.0
 42
0.0
 43
0.0
 44
0.0
 45
0.0
 46
0.0
 47
0.0
 48
0.0
 49
0.0
140
0.0
141
0.0
142
1.0
143
1.0
 70
  1712
 72
     0
 73
     0
 74
     0
  7

 75
     0
147
1.0
 76
     0
 77
     2
 78
   300
148
0.0
149
0.0
100
AcDbLayout
  1
Model
 70
     1
 71
     0
 10
0.0
 20
0.0
 11
12.0
 21
9.0
 12
0.0
 22
0.0
 32
0.0
 14
0.0
 24
0.0
 34
0.0
 15
0.0
 25
0.0
 35
0.0
146
0.0
 13
0.0
 23
0.0
 33
0.0
 16
1.0
 26
0.0
 36
0.0
 17
0.0
 27
1.0
 37
0.0
 76
     0
330
1F
331
2E
  0
MATERIAL
  5
1000C
102
{ACAD_XDICTIONARY
360
1000D
102
}
102
{ACAD_REACTORS
330
10003
102
}
330
10003
100
AcDbMaterial
  1
ByBlock
 72
     0
 43
0.0208333333333333
 43
0.0
 43
0.0
 43
0.0
 43
0.0
 43
0.0208333333333333
 43
0.0
 43
0.0
 43
0.0
 43
0.0
 43
1.0
 43
0.0
 43
0.0
 43
0.0
 43
0.0
 43
1.0
 77
     0
 47
0.0208333333333333
 47
0.0
 47
0.0
 47
0.0
 47
0.0
 47
0.0208333333333333
 47
0.0
 47
0.0
 47
0.0
 47
0.0
 47
1.0
 47
0.0
 47
0.0
 47
0.0
 47
0.0
 47
1.0
171
     0
 49
0.0208333333333333
 49
0.0
 49
0.0
 49
0.0
 49
0.0
 49
0.0208333333333333
 49
0.0
 49
0.0
 49
0.0
 49
0.0
 49
1.0
 49
0.0
 49
0.0
 49
0.0
 49
0.0
 49
1.0
175
     0
142
0.0208333333333333
142
0.0
142
0.0
142
0.0
142
0.0
142
0.0208333333333333
142
0.0
142
0.0
142
0.0
142
0.0
142
1.0
142
0.0
142
0.0
142
0.0
142
0.0
142
1.0
179
     0
144
0.0208333333333333
144
0.0
144
0.0
144
0.0
144
0.0
144
0.0208333333333333
144
0.0
144
0.0
144
0.0
144
0.0
144
1.0
144
0.0
144
0.0
144
0.0
144
0.0
144
1.0
147
0.0208333333333333
147
0.0
147
0.0
147
0.0
147
0.0
147
0.0208333333333333
147
0.0
147
0.0
147
0.0
147
0.0
147
1.0
147
0.0
147
0.0
147
0.0
147
0.0
147
1.0
  0
MATERIAL
  5
10004
102
{ACAD_XDICTIONARY
360
10005
102
}
102
{ACAD_REACTORS
330
10003
102
}
330
10003
100
AcDbMaterial
  1
ByLayer
 72
     0
 43
0.0208333333333333
 43
0.0
 43
0.0
 43
0.0
 43
0.0
 43
0.0208333333333333
 43
0.0
 43
0.0
 43
0.0
 43
0.0
 43
1.0
 43
0.0
 43
0.0
 43
0.0
 43
0.0
 43
1.0
 77
     0
 47
0.0208333333333333
 47
0.0
 47
0.0
 47
0.0
 47
0.0
 47
0.0208333333333333
 47
0.0
 47
0.0
 47
0.0
 47
0.0
 47
1.0
 47
0.0
 47
0.0
 47
0.0
 47
0.0
 47
1.0
171
     0
 49
0.0208333333333333
 49
0.0
 49
0.0
 49
0.0
 49
0.0
 49
0.0208333333333333
 49
0.0
 49
0.0
 49
0.0
 49
0.0
 49
1.0
 49
0.0
 49
0.0
 49
0.0
 49
0.0
 49
1.0
175
     0
142
0.0208333333333333
142
0.0
142
0.0
142
0.0
142
0.0
142
0.0208333333333333
142
0.0
142
0.0
142
0.0
142
0.0
142
1.0
142
0.0
142
0.0
142
0.0
142
0.0
142
1.0
179
     0
144
0.0208333333333333
144
0.0
144
0.0
144
0.0
144
0.0
144
0.0208333333333333
144
0.0
144
0.0
144
0.0
144
0.0
144
1.0
144
0.0
144
0.0
144
0.0
144
0.0
144
1.0
147
0.0208333333333333
147
0.0
147
0.0
147
0.0
147
0.0
147
0.0208333333333333
147
0.0
147
0.0
147
0.0
147
0.0
147
1.0
147
0.0
147
0.0
147
0.0
147
0.0
147
1.0
  0
MATERIAL
  5
10014
102
{ACAD_XDICTIONARY
360
10015
102
}
102
{ACAD_REACTORS
330
10003
102
}
330
10003
100
AcDbMaterial
  1
Global
 72
     0
 43
0.0208333333333333
 43
0.0
 43
0.0
 43
0.0
 43
0.0
 43
0.0208333333333333
 43
0.0
 43
0.0
 43
0.0
 43
0.0
 43
1.0
 43
0.0
 43
0.0
 43
0.0
 43
0.0
 43
1.0
 77
     0
 47
0.0208333333333333
 47
0.0
 47
0.0
 47
0.0
 47
0.0
 47
0.0208333333333333
 47
0.0
 47
0.0
 47
0.0
 47
0.0
 47
1.0
 47
0.0
 47
0.0
 47
0.0
 47
0.0
 47
1.0
171
     0
 49
0.0208333333333333
 49
0.0
 49
0.0
 49
0.0
 49
0.0
 49
0.0208333333333333
 49
0.0
 49
0.0
 49
0.0
 49
0.0
 49
1.0
 49
0.0
 49
0.0
 49
0.0
 49
0.0
 49
1.0
175
     0
142
0.0208333333333333
142
0.0
142
0.0
142
0.0
142
0.0
142
0.0208333333333333
142
0.0
142
0.0
142
0.0
142
0.0
142
1.0
142
0.0
142
0.0
142
0.0
142
0.0
142
1.0
179
     0
144
0.0208333333333333
144
0.0
144
0.0
144
0.0
144
0.0
144
0.0208333333333333
144
0.0
144
0.0
144
0.0
144
0.0
144
1.0
144
0.0
144
0.0
144
0.0
144
0.0
144
1.0
147
0.0208333333333333
147
0.0
147
0.0
147
0.0
147
0.0
147
0.0208333333333333
147
0.0
147
0.0
147
0.0
147
0.0
147
1.0
147
0.0
147
0.0
147
0.0
147
0.0
147
1.0
  0
MLEADERSTYLE
  5
1004B
102
{ACAD_REACTORS
330
1004A
102
}
330
1004A
100
AcDbMLeaderStyle
179
     2
170
     2
171
     1
172
     0
 90
        2
 40
0.0
 41
0.0
173
     1
 91
-1056964608
340
14
 92
       -2
290
     1
 42
2.0
291
     1
 43
0.36
  3
Standard
 44
4.0
300

342
11
174
     1
178
     6
175
     1
176
     0
 93
-1056964608
 45
4.0
292
     0
297
     0
 46
4.0
 94
-1056964608
 47
1.0
 49
1.0
140
1.0
293
     1
141
0.0
294
     1
177
     0
142
1.0
295
     0
296
     0
143
0.125
271
     0
272
     9
273
     9
298
     0
  0
ACDBPLACEHOLDER
  5
10002
102
{ACAD_REACTORS
330
10001
102
}
330
10001
  0
SCALE
  5
10039
102
{ACAD_REACTORS
330
10038
102
}
330
10038
100
AcDbScale
 70
     0
300
1:1
140
1.0
141
1.0
290
     1
  0
SCALE
  5
1003A
102
{ACAD_REACTORS
330
10038
102
}
330
10038
100
AcDbScale
 70
     0
300
1:2
140
1.0
141
2.0
290
     0
  0
SCALE
  5
1003B
102
{ACAD_REACTORS
330
10038
102
}
330
10038
100
AcDbScale
 70
     0
300
1:4
140
1.0
141
4.0
290
     0
  0
SCALE
  5
1003C
102
{ACAD_REACTORS
330
10038
102
}
330
10038
100
AcDbScale
 70
     0
300
1:5
140
1.0
141
5.0
290
     0
  0
SCALE
  5
1003D
102
{ACAD_REACTORS
330
10038
102
}
330
10038
100
AcDbScale
 70
     0
300
1:8
140
1.0
141
8.0
290
     0
  0
SCALE
  5
1003E
102
{ACAD_REACTORS
330
10038
102
}
330
10038
100
AcDbScale
 70
     0
300
1:10
140
1.0
141
10.0
290
     0
  0
SCALE
  5
1003F
102
{ACAD_REACTORS
330
10038
102
}
330
10038
100
AcDbScale
 70
     0
300
1:16
140
1.0
141
16.0
290
     0
  0
SCALE
  5
10040
102
{ACAD_REACTORS
330
10038
102
}
330
10038
100
AcDbScale
 70
     0
300
1:20
140
1.0
141
20.0
290
     0
  0
SCALE
  5
10041
102
{ACAD_REACTORS
330
10038
102
}
330
10038
100
AcDbScale
 70
     0
300
1:30
140
1.0
141
30.0
290
     0
  0
SCALE
  5
10042
102
{ACAD_REACTORS
330
10038
102
}
330
10038
100
AcDbScale
 70
     0
300
1:40
140
1.0
141
40.0
290
     0
  0
SCALE
  5
10043
102
{ACAD_REACTORS
330
10038
102
}
330
10038
100
AcDbScale
 70
     0
300
1:50
140
1.0
141
50.0
290
     0
  0
SCALE
  5
10044
102
{ACAD_REACTORS
330
10038
102
}
330
10038
100
AcDbScale
 70
     0
300
1:100
140
1.0
141
100.0
290
     0
  0
SCALE
  5
10045
102
{ACAD_REACTORS
330
10038
102
}
330
10038
100
AcDbScale
 70
     0
300
2:1
140
2.0
141
1.0
290
     0
  0
SCALE
  5
10046
102
{ACAD_REACTORS
330
10038
102
}
330
10038
100
AcDbScale
 70
     0
300
4:1
140
4.0
141
1.0
290
     0
  0
SCALE
  5
10047
102
{ACAD_REACTORS
330
10038
102
}
330
10038
100
AcDbScale
 70
     0
300
8:1
140
8.0
141
1.0
290
     0
  0
SCALE
  5
10048
102
{ACAD_REACTORS
330
10038
102
}
330
10038
100
AcDbScale
 70
     0
300
10:1
140
10.0
141
1.0
290
     0
  0
SCALE
  5
10049
102
{ACAD_REACTORS
330
10038
102
}
330
10038
100
AcDbScale
 70
     0
300
100:1
140
100.0
141
1.0
290
     0
  0
ACDBSECTIONVIEWSTYLE
  5
1004D
102
{ACAD_XDICTIONARY
360
1009F
102
}
102
{ACAD_REACTORS
330
1004C
102
}
330
1004C
100
AcDbModelDocViewStyle
 70
     0
  3
Metric50
290
     0
100
AcDbSectionViewStyle
 70
     0
 71
     0
 90
      102
 71
     1
340
11
 62
   256
 40
5.0
340
0
340
0
 62
   256
 40
5.0
300
I, O, Q, S, X, Z
 40
10.0
 90
        0
 40
2.5
 90
        0
 71
     2
340
16
 90
       25
 62
   256
340
16
 90
       50
 62
   256
 40
5.0
 40
2.5
 40
5.0
 71
     3
340
11
 62
   256
 40
5.0
 90
        0
 40
15.0
 90
        1
300
%<\AcVar ViewSectionStartId>%-%<\AcVar ViewSectionEndId>% (%<\AcVar ViewScale \f "%sn">%)
 71
     4
 62
   256
 62
   257
300
ANSI31
 40
1.0
 90
        0
290
     0
290
     0
 90
        6
 40
0.0
 40
1.570796326794896
 40
0.2617993877991494
 40
1.308996938995747
 40
-0.2617993877991494
 40
1.832595714594046
  0
TABLESTYLE
  5
10037
102
{ACAD_XDICTIONARY
360
1009D
102
}
102
{ACAD_REACTORS
330
10036
102
}
330
10036
100
AcDbTableStyle
280
     0
  3
Standard
 70
     0
 71
     0
 40
1.5
 41
1.5
280
     0
281
     0
  7
STANDARD
140
4.5
170
     2
 62
     0
 63
     7
283
     0
 90
      512
 91
        0
  1

274
    -2
284
     1
 64
     0
275
    -2
285
     1
 65
     0
276
    -2
286
     1
 66
     0
277
    -2
287
     1
 67
     0
278
    -2
288
     1
 68
     0
279
    -2
289
     1
 69
     0
  7
STANDARD
140
6.0
170
     5
 62
     0
 63
     7
283
     0
 90
      512
 91
        0
  1

274
    -2
284
     1
 64
     0
275
    -2
285
     1
 65
     0
276
    -2
286
     1
 66
     0
277
    -2
287
     1
 67
     0
278
    -2
288
     1
 68
     0
279
    -2
289
     1
 69
     0
  7
STANDARD
140
4.5
170
     5
 62
     0
 63
     7
283
     0
 90
      512
 91
        0
  1

274
    -2
284
     1
 64
     0
275
    -2
285
     1
 65
     0
276
    -2
286
     1
 66
     0
277
    -2
287
     1
 67
     0
278
    -2
288
     1
 68
     0
279
    -2
289
     1
 69
     0
  0
VISUALSTYLE
  5
10022
102
{ACAD_REACTORS
330
1001C
102
}
330
1001C
100
AcDbVisualStyle
  2
2dWireframe
 70
     4
177
     3
291
     0
 70
    58
 90
        0
176
     1
 90
        2
176
     1
 90
        0
176
     1
 90
        0
176
     1
 40
0.6
176
     1
 40
30.0
176
     1
 62
     7
420
 16777215
176
     1
 90
        1
176
     1
 90
        4
176
     1
 62
     7
176
     1
 62
   257
176
     1
 90
        1
176
     1
 90
        1
176
     1
 40
1.0
176
     1
 90
        0
176
     1
 62
   257
176
     1
 40
1.0
176
     1
 90
        1
176
     1
 90
        6
176
     1
 90
        2
176
     1
 62
     7
176
     1
 90
        5
176
     1
 90
        0
176
     1
 90
        0
176
     1
290
     0
176
     1
 90
        1
176
     1
 40
0.0
176
     1
 90
        0
176
     1
290
     1
176
     1
290
     1
176
     1
290
     0
176
     1
290
     0
176
     1
290
     0
176
     1
290
     0
176
     1
290
     0
176
     1
290
     0
176
     1
290
     0
176
     1
 90
       50
176
     1
 40
0.0
176
     1
 40
1.0
176
     1
 90
        0
176
     1
 62
    18
420
        0
176
     1
 90
       50
176
     1
 90
        3
176
     1
 62
     5
420
      255
176
     1
290
     0
176
     1
 90
       50
176
     1
 90
       50
176
     1
 90
       50
176
     1
290
     0
176
     1
 90
       50
176
     1
 62
   256
176
     0
 40
1.0
176
     0
 90
        2
176
     1
  1
strokes_ogs.tif
176
     1
290
     0
176
     1
 40
1.0
176
     1
 40
1.0
176
     1
  0
VISUALSTYLE
  5
10021
102
{ACAD_REACTORS
330
1001C
102
}
330
1001C
100
AcDbVisualStyle
  2
Basic
 70
     7
177
     3
291
     1
 70
    58
 90
        1
176
     1
 90
        0
176
     1
 90
        1
176
     1
 90
        0
176
     1
 40
0.6
176
     1
 40
30.0
176
     1
 62
     7
420
 16777215
176
     1
 90
        0
176
     1
 90
        4
176
     1
 62
     7
176
     1
 62
   257
176
     1
 90
        1
176
     1
 90
        1
176
     1
 40
1.0
176
     1
 90
        8
176
     1
 62
     7
176
     1
 40
1.0
176
     1
 90
        1
176
     1
 90
        6
176
     1
 90
        2
176
     1
 62
     7
176
     1
 90
        5
176
     1
 90
        0
176
     1
 90
        0
176
     1
290
     0
176
     1
 90
        1
176
     1
 40
0.0
176
     1
 90
        0
176
     1
290
     0
176
     1
290
     1
176
     1
290
     1
176
     1
290
     0
176
     1
290
     0
176
     1
290
     0
176
     1
290
     0
176
     1
290
     0
176
     1
290
     0
176
     1
 90
       50
176
     1
 40
0.0
176
     1
 40
1.0
176
     1
 90
        0
176
     1
 62
    18
420
        0
176
     1
 90
       50
176
     1
 90
        3
176
     1
 62
     5
420
      255
176
     1
290
     0
176
     1
 90
       50
176
     1
 90
       50
176
     1
 90
       50
176
     1
290
     0
176
     1
 90
       50
176
     1
 62
   256
176
     0
 40
1.0
176
     0
 90
        2
176
     1
  1
strokes_ogs.tif
176
     1
290
     0
176
     1
 40
1.0
176
     1
 40
1.0
176
     1
  0
VISUALSTYLE
  5
10028
102
{ACAD_REACTORS
330
1001C
102
}
330
1001C
100
AcDbVisualStyle
  2
Brighten
 70
    12
177
     3
291
     1
 70
    58
 90
        2
176
     1
 90
        2
176
     1
 90
        0
176
     1
 90
        0
176
     1
 40
0.6
176
     1
 40
30.0
176
     1
 62
     7
420
 16777215
176
     1
 90
        1
176
     1
 90
        4
176
     1
 62
     7
176
     1
 62
   257
176
     1
 90
        1
176
     1
 90
        1
176
     1
 40
1.0
176
     1
 90
        8
176
     1
 62
     7
176
     1
 40
1.0
176
     1
 90
        1
176
     1
 90
        6
176
     1
 90
        2
176
     1
 62
     7
176
     1
 90
        5
176
     1
 90
        0
176
     1
 90
        0
176
     1
290
     0
176
     1
 90
        1
176
     1
 40
50.0
176
     1
 90
        0
176
     1
290
     0
176
     1
290
     1
176
     1
290
     1
176
     1
290
     0
176
     1
290
     0
176
     1
290
     0
176
     1
290
     0
176
     1
290
     0
176
     1
290
     0
176
     1
 90
       50
176
     1
 40
0.0
176
     1
 40
1.0
176
     1
 90
        0
176
     1
 62
    18
420
        0
176
     1
 90
       50
176
     1
 90
        3
176
     1
 62
     5
420
      255
176
     1
290
     0
176
     1
 90
       50
176
     1
 90
       50
176
     1
 90
       50
176
     1
290
     0
176
     1
 90
       50
176
     1
 62
   256
176
     0
 40
1.0
176
     0
 90
        2
176
     1
  1
strokes_ogs.tif
176
     1
290
     0
176
     1
 40
1.0
176
     1
 40
1.0
176
     1
  0
VISUALSTYLE
  5
1002C
102
{ACAD_REACTORS
330
1001C
102
}
330
1001C
100
AcDbVisualStyle
  2
ColorChange
 70
    16
177
     3
291
     1
 70
    58
 90
        2
176
     1
 90
        2
176
     1
 90
        3
176
     1
 90
        0
176
     1
 40
0.6
176
     1
 40
30.0
176
     1
 62
     8
420
  8421504
176
     1
 90
        1
176
     1
 90
        4
176
     1
 62
     7
176
     1
 62
   257
176
     1
 90
        1
176
     1
 90
        1
176
     1
 40
1.0
176
     1
 90
        8
176
     1
 62
     8
420
  8421504
176
     1
 40
1.0
176
     1
 90
        1
176
     1
 90
        6
176
     1
 90
        2
176
     1
 62
     7
176
     1
 90
        5
176
     1
 90
        0
176
     1
 90
        0
176
     1
290
     0
176
     1
 90
        1
176
     1
 40
0.0
176
     1
 90
        0
176
     1
290
     0
176
     1
290
     1
176
     1
290
     1
176
     1
290
     0
176
     1
290
     0
176
     1
290
     0
176
     1
290
     0
176
     1
290
     0
176
     1
290
     0
176
     1
 90
       50
176
     1
 40
0.0
176
     1
 40
1.0
176
     1
 90
        0
176
     1
 62
    18
420
        0
176
     1
 90
       50
176
     1
 90
        3
176
     1
 62
     5
420
      255
176
     1
290
     0
176
     1
 90
       50
176
     1
 90
       50
176
     1
 90
       50
176
     1
290
     0
176
     1
 90
       50
176
     1
 62
   256
176
     0
 40
1.0
176
     0
 90
        2
176
     1
  1
strokes_ogs.tif
176
     1
290
     0
176
     1
 40
1.0
176
     1
 40
1.0
176
     1
  0
VISUALSTYLE
  5
10025
102
{ACAD_REACTORS
330
1001C
102
}
330
1001C
100
AcDbVisualStyle
  2
Conceptual
 70
     9
177
     3
291
     0
 70
    58
 90
        3
176
     1
 90
        2
176
     1
 90
        0
176
     1
 90
        0
176
     1
 40
0.6
176
     1
 40
30.0
176
     1
 62
     7
420
 16777215
176
     1
 90
        2
176
     1
 90
        2
176
     1
 62
     7
176
     1
 62
   257
176
     1
 90
        1
176
     1
 90
        1
176
     1
 40
179.0
176
     1
 90
        8
176
     1
 62
     7
176
     1
 40
1.0
176
     1
 90
        1
176
     1
 90
        6
176
     1
 90
        2
176
     1
 62
     7
176
     1
 90
        3
176
     1
 90
        0
176
     1
 90
        0
176
     1
290
     0
176
     1
 90
        1
176
     1
 40
0.0
176
     1
 90
        0
176
     1
290
     0
176
     1
290
     1
176
     1
290
     1
176
     1
290
     0
176
     1
290
     0
176
     1
290
     0
176
     1
290
     0
176
     1
290
     0
176
     1
290
     0
176
     1
 90
       50
176
     1
 40
0.0
176
     1
 40
1.0
176
     1
 90
        0
176
     1
 62
    18
420
        0
176
     1
 90
       50
176
     1
 90
        3
176
     1
 62
     5
420
      255
176
     1
290
     0
176
     1
 90
       50
176
     1
 90
       50
176
     1
 90
       50
176
     1
290
     0
176
     1
 90
       50
176
     1
 62
   256
176
     0
 40
1.0
176
     0
 90
        2
176
     1
  1
strokes_ogs.tif
176
     1
290
     0
176
     1
 40
1.0
176
     1
 40
1.0
176
     1
  0
VISUALSTYLE
  5
10027
102
{ACAD_REACTORS
330
1001C
102
}
330
1001C
100
AcDbVisualStyle
  2
Dim
 70
    11
177
     3
291
     1
 70
    58
 90
        2
176
     1
 90
        2
176
     1
 90
        0
176
     1
 90
        0
176
     1
 40
0.6
176
     1
 40
30.0
176
     1
 62
     7
420
 16777215
176
     1
 90
        1
176
     1
 90
        4
176
     1
 62
     7
176
     1
 62
   257
176
     1
 90
        1
176
     1
 90
        1
176
     1
 40
1.0
176
     1
 90
        8
176
     1
 62
     7
176
     1
 40
1.0
176
     1
 90
        1
176
     1
 90
        6
176
     1
 90
        2
176
     1
 62
     7
176
     1
 90
        5
176
     1
 90
        0
176
     1
 90
        0
176
     1
290
     0
176
     1
 90
        1
176
     1
 40
-50.0
176
     1
 90
        0
176
     1
290
     0
176
     1
290
     1
176
     1
290
     1
176
     1
290
     0
176
     1
290
     0
176
     1
290
     0
176
     1
290
     0
176
     1
290
     0
176
     1
290
     0
176
     1
 90
       50
176
     1
 40
0.0
176
     1
 40
1.0
176
     1
 90
        0
176
     1
 62
    18
420
        0
176
     1
 90
       50
176
     1
 90
        3
176
     1
 62
     5
420
      255
176
     1
290
     0
176
     1
 90
       50
176
     1
 90
       50
176
     1
 90
       50
176
     1
290
     0
176
     1
 90
       50
176
     1
 62
   256
176
     0
 40
1.0
176
     0
 90
        2
176
     1
  1
strokes_ogs.tif
176
     1
290
     0
176
     1
 40
1.0
176
     1
 40
1.0
176
     1
  0
VISUALSTYLE
  5
10034
102
{ACAD_REACTORS
330
1001C
102
}
330
1001C
100
AcDbVisualStyle
  2
EdgeColorOff
 70
    22
177
     3
291
     1
 70
    58
 90
        2
176
     0
 90
        2
176
     0
 90
        0
176
     0
 90
        0
176
     0
 40
0.6
176
     0
 40
30.0
176
     0
 62
     7
420
 16777215
176
     0
 90
        1
176
     0
 90
        4
176
     0
 62
     7
176
     0
 62
   257
176
     0
 90
        1
176
     0
 90
        1
176
     0
 40
1.0
176
     0
 90
        8
176
     2
 62
     7
176
     0
 40
1.0
176
     0
 90
        1
176
     0
 90
        6
176
     0
 90
        2
176
     0
 62
     7
176
     0
 90
        5
176
     0
 90
        0
176
     0
 90
        0
176
     0
290
     0
176
     0
 90
        1
176
     0
 40
0.0
176
     0
 90
        0
176
     0
290
     0
176
     1
290
     1
176
     1
290
     1
176
     1
290
     0
176
     1
290
     0
176
     1
290
     0
176
     1
290
     0
176
     1
290
     0
176
     1
290
     0
176
     1
 90
       50
176
     0
 40
0.0
176
     0
 40
1.0
176
     0
 90
        0
176
     0
 62
    18
420
        0
176
     0
 90
       50
176
     0
 90
        3
176
     0
 62
     5
420
      255
176
     0
290
     0
176
     1
 90
       50
176
     0
 90
       50
176
     0
 90
       50
176
     0
290
     0
176
     1
 90
       50
176
     0
 62
   256
176
     0
 40
1.0
176
     0
 90
        2
176
     0
  1
strokes_ogs.tif
176
     0
290
     0
176
     1
 40
1.0
176
     0
 40
1.0
176
     0
  0
VISUALSTYLE
  5
1002B
102
{ACAD_REACTORS
330
1001C
102
}
330
1001C
100
AcDbVisualStyle
  2
Facepattern
 70
    15
177
     3
291
     1
 70
    58
 90
        2
176
     1
 90
        2
176
     1
 90
        0
176
     1
 90
        0
176
     1
 40
0.6
176
     1
 40
30.0
176
     1
 62
     7
420
 16777215
176
     1
 90
        1
176
     1
 90
        4
176
     1
 62
     7
176
     1
 62
   257
176
     1
 90
        1
176
     1
 90
        1
176
     1
 40
1.0
176
     1
 90
        8
176
     1
 62
     7
176
     1
 40
1.0
176
     1
 90
        1
176
     1
 90
        6
176
     1
 90
        2
176
     1
 62
     7
176
     1
 90
        5
176
     1
 90
        0
176
     1
 90
        0
176
     1
290
     0
176
     1
 90
        1
176
     1
 40
0.0
176
     1
 90
        0
176
     1
290
     0
176
     1
290
     1
176
     1
290
     1
176
     1
290
     0
176
     1
290
     0
176
     1
290
     0
176
     1
290
     0
176
     1
290
     0
176
     1
290
     0
176
     1
 90
       50
176
     1
 40
0.0
176
     1
 40
1.0
176
     1
 90
        0
176
     1
 62
    18
420
        0
176
     1
 90
       50
176
     1
 90
        3
176
     1
 62
     5
420
      255
176
     1
290
     0
176
     1
 90
       50
176
     1
 90
       50
176
     1
 90
       50
176
     1
290
     0
176
     1
 90
       50
176
     1
 62
   256
176
     0
 40
1.0
176
     0
 90
        2
176
     1
  1
strokes_ogs.tif
176
     1
290
     0
176
     1
 40
1.0
176
     1
 40
1.0
176
     1
  0
VISUALSTYLE
  5
1001D
102
{ACAD_REACTORS
330
1001C
102
}
330
1001C
100
AcDbVisualStyle
  2
Flat
 70
     0
177
     3
291
     1
 70
    58
 90
        2
176
     1
 90
        1
176
     1
 90
        1
176
     1
 90
        2
176
     1
 40
0.6
176
     1
 40
30.0
176
     1
 62
     7
420
 16777215
176
     1
 90
        0
176
     1
 90
        0
176
     1
 62
     7
176
     1
 62
   257
176
     1
 90
        1
176
     1
 90
        1
176
     1
 40
1.0
176
     1
 90
        8
176
     1
 62
     7
176
     1
 40
1.0
176
     1
 90
        1
176
     1
 90
        6
176
     1
 90
        2
176
     1
 62
     7
176
     1
 90
        5
176
     1
 90
        0
176
     1
 90
        0
176
     1
290
     0
176
     1
 90
       13
176
     1
 40
0.0
176
     1
 90
        0
176
     1
290
     0
176
     1
290
     1
176
     1
290
     1
176
     1
290
     0
176
     1
290
     0
176
     1
290
     0
176
     1
290
     0
176
     1
290
     0
176
     1
290
     0
176
     1
 90
       50
176
     1
 40
0.0
176
     1
 40
1.0
176
     1
 90
        0
176
     1
 62
    18
420
        0
176
     1
 90
       50
176
     1
 90
        3
176
     1
 62
     5
420
      255
176
     1
290
     0
176
     1
 90
       50
176
     1
 90
       50
176
     1
 90
       50
176
     1
290
     0
176
     1
 90
       50
176
     1
 62
   256
176
     0
 40
1.0
176
     0
 90
        2
176
     1
  1
strokes_ogs.tif
176
     1
290
     0
176
     1
 40
1.0
176
     1
 40
1.0
176
     1
  0
VISUALSTYLE
  5
1001E
102
{ACAD_REACTORS
330
1001C
102
}
330
1001C
100
AcDbVisualStyle
  2
FlatWithEdges
 70
     1
177
     3
291
     1
 70
    58
 90
        2
176
     1
 90
        1
176
     1
 90
        1
176
     1
 90
        2
176
     1
 40
0.6
176
     1
 40
30.0
176
     1
 62
     7
420
 16777215
176
     1
 90
        1
176
     1
 90
        0
176
     1
 62
     7
176
     1
 62
   257
176
     1
 90
        1
176
     1
 90
        1
176
     1
 40
1.0
176
     1
 90
        0
176
     1
 62
   257
176
     1
 40
1.0
176
     1
 90
        1
176
     1
 90
        6
176
     1
 90
        2
176
     1
 62
     7
176
     1
 90
        5
176
     1
 90
        0
176
     1
 90
        0
176
     1
290
     0
176
     1
 90
       13
176
     1
 40
0.0
176
     1
 90
        0
176
     1
290
     0
176
     1
290
     1
176
     1
290
     1
176
     1
290
     0
176
     1
290
     0
176
     1
290
     0
176
     1
290
     0
176
     1
290
     0
176
     1
290
     0
176
     1
 90
       50
176
     1
 40
0.0
176
     1
 40
1.0
176
     1
 90
        0
176
     1
 62
    18
420
        0
176
     1
 90
       50
176
     1
 90
        3
176
     1
 62
     5
420
      255
176
     1
290
     0
176
     1
 90
       50
176
     1
 90
       50
176
     1
 90
       50
176
     1
290
     0
176
     1
 90
       50
176
     1
 62
   256
176
     0
 40
1.0
176
     0
 90
        2
176
     1
  1
strokes_ogs.tif
176
     1
290
     0
176
     1
 40
1.0
176
     1
 40
1.0
176
     1
  0
VISUALSTYLE
  5
1001F
102
{ACAD_REACTORS
330
1001C
102
}
330
1001C
100
AcDbVisualStyle
  2
Gouraud
 70
     2
177
     3
291
     1
 70
    58
 90
        2
176
     1
 90
        2
176
     1
 90
        1
176
     1
 90
        2
176
     1
 40
0.6
176
     1
 40
30.0
176
     1
 62
     7
420
 16777215
176
     1
 90
        0
176
     1
 90
        0
176
     1
 62
     7
176
     1
 62
   257
176
     1
 90
        1
176
     1
 90
        1
176
     1
 40
1.0
176
     1
 90
        0
176
     1
 62
     7
176
     1
 40
1.0
176
     1
 90
        1
176
     1
 90
        6
176
     1
 90
        2
176
     1
 62
     7
176
     1
 90
        5
176
     1
 90
        0
176
     1
 90
        0
176
     1
290
     0
176
     1
 90
       13
176
     1
 40
0.0
176
     1
 90
        0
176
     1
290
     0
176
     1
290
     1
176
     1
290
     1
176
     1
290
     0
176
     1
290
     0
176
     1
290
     0
176
     1
290
     0
176
     1
290
     0
176
     1
290
     0
176
     1
 90
       50
176
     1
 40
0.0
176
     1
 40
1.0
176
     1
 90
        0
176
     1
 62
    18
420
        0
176
     1
 90
       50
176
     1
 90
        3
176
     1
 62
     5
420
      255
176
     1
290
     0
176
     1
 90
       50
176
     1
 90
       50
176
     1
 90
       50
176
     1
290
     0
176
     1
 90
       50
176
     1
 62
   256
176
     0
 40
1.0
176
     0
 90
        2
176
     1
  1
strokes_ogs.tif
176
     1
290
     0
176
     1
 40
1.0
176
     1
 40
1.0
176
     1
  0
VISUALSTYLE
  5
10020
102
{ACAD_REACTORS
330
1001C
102
}
330
1001C
100
AcDbVisualStyle
  2
GouraudWithEdges
 70
     3
177
     3
291
     1
 70
    58
 90
        2
176
     1
 90
        2
176
     1
 90
        1
176
     1
 90
        2
176
     1
 40
0.6
176
     1
 40
30.0
176
     1
 62
     7
420
 16777215
176
     1
 90
        1
176
     1
 90
        0
176
     1
 62
     7
176
     1
 62
   257
176
     1
 90
        1
176
     1
 90
        1
176
     1
 40
1.0
176
     1
 90
        0
176
     1
 62
   257
176
     1
 40
1.0
176
     1
 90
        1
176
     1
 90
        6
176
     1
 90
        2
176
     1
 62
     7
176
     1
 90
        5
176
     1
 90
        0
176
     1
 90
        0
176
     1
290
     0
176
     1
 90
       13
176
     1
 40
0.0
176
     1
 90
        0
176
     1
290
     0
176
     1
290
     1
176
     1
290
     1
176
     1
290
     0
176
     1
290
     0
176
     1
290
     0
176
     1
290
     0
176
     1
290
     0
176
     1
290
     0
176
     1
 90
       50
176
     1
 40
0.0
176
     1
 40
1.0
176
     1
 90
        0
176
     1
 62
    18
420
        0
176
     1
 90
       50
176
     1
 90
        3
176
     1
 62
     5
420
      255
176
     1
290
     0
176
     1
 90
       50
176
     1
 90
       50
176
     1
 90
       50
176
     1
290
     0
176
     1
 90
       50
176
     1
 62
   256
176
     0
 40
1.0
176
     0
 90
        2
176
     1
  1
strokes_ogs.tif
176
     1
290
     0
176
     1
 40
1.0
176
     1
 40
1.0
176
     1
  0
VISUALSTYLE
  5
10024
102
{ACAD_REACTORS
330
1001C
102
}
330
1001C
100
AcDbVisualStyle
  2
Hidden
 70
     6
177
     3
291
     0
 70
    58
 90
        1
176
     1
 90
        2
176
     1
 90
        2
176
     1
 90
        0
176
     1
 40
0.6
176
     1
 40
30.0
176
     1
 62
     7
420
 16777215
176
     1
 90
        2
176
     1
 90
        2
176
     1
 62
     7
176
     1
 62
   257
176
     1
 90
        2
176
     1
 90
        1
176
     1
 40
40.0
176
     1
 90
        0
176
     1
 62
   257
176
     1
 40
1.0
176
     1
 90
        1
176
     1
 90
        6
176
     1
 90
        2
176
     1
 62
     7
176
     1
 90
        3
176
     1
 90
        0
176
     1
 90
        0
176
     1
290
     0
176
     1
 90
        1
176
     1
 40
0.0
176
     1
 90
        0
176
     1
290
     0
176
     1
290
     1
176
     1
290
     1
176
     1
290
     0
176
     1
290
     0
176
     1
290
     0
176
     1
290
     0
176
     1
290
     0
176
     1
290
     0
176
     1
 90
       50
176
     1
 40
0.0
176
     1
 40
1.0
176
     1
 90
        0
176
     1
 62
    18
420
        0
176
     1
 90
       50
176
     1
 90
        3
176
     1
 62
     5
420
      255
176
     1
290
     0
176
     1
 90
       50
176
     1
 90
       50
176
     1
 90
       50
176
     1
290
     0
176
     1
 90
       50
176
     1
 62
   256
176
     0
 40
1.0
176
     0
 90
        2
176
     1
  1
strokes_ogs.tif
176
     1
290
     0
176
     1
 40
1.0
176
     1
 40
1.0
176
     1
  0
VISUALSTYLE
  5
10032
102
{ACAD_REACTORS
330
1001C
102
}
330
1001C
100
AcDbVisualStyle
  2
JitterOff
 70
    20
177
     3
291
     1
 70
    58
 90
        2
176
     0
 90
        2
176
     0
 90
        0
176
     0
 90
        0
176
     0
 40
0.6
176
     0
 40
30.0
176
     0
 62
     7
420
 16777215
176
     0
 90
        1
176
     0
 90
        4
176
     0
 62
     7
176
     0
 62
   257
176
     0
 90
        1
176
     0
 90
        1
176
     0
 40
1.0
176
     0
 90
       10
176
     2
 62
     7
176
     0
 40
1.0
176
     0
 90
        1
176
     0
 90
        6
176
     0
 90
        2
176
     0
 62
     7
176
     0
 90
        5
176
     0
 90
        0
176
     0
 90
        0
176
     0
290
     0
176
     0
 90
        1
176
     0
 40
0.0
176
     0
 90
        0
176
     0
290
     0
176
     1
290
     1
176
     1
290
     1
176
     1
290
     0
176
     1
290
     0
176
     1
290
     0
176
     1
290
     0
176
     1
290
     0
176
     1
290
     0
176
     1
 90
       50
176
     0
 40
0.0
176
     0
 40
1.0
176
     0
 90
        0
176
     0
 62
    18
420
        0
176
     0
 90
       50
176
     0
 90
        3
176
     0
 62
     5
420
      255
176
     0
290
     0
176
     1
 90
       50
176
     0
 90
       50
176
     0
 90
       50
176
     0
290
     0
176
     1
 90
       50
176
     0
 62
   256
176
     0
 40
1.0
176
     0
 90
        2
176
     0
  1
strokes_ogs.tif
176
     0
290
     0
176
     1
 40
1.0
176
     0
 40
1.0
176
     0
  0
VISUALSTYLE
  5
1002A
102
{ACAD_REACTORS
330
1001C
102
}
330
1001C
100
AcDbVisualStyle
  2
Linepattern
 70
    14
177
     3
291
     1
 70
    58
 90
        2
176
     1
 90
        2
176
     1
 90
        0
176
     1
 90
        0
176
     1
 40
0.6
176
     1
 40
30.0
176
     1
 62
     7
420
 16777215
176
     1
 90
        1
176
     1
 90
        4
176
     1
 62
     7
176
     1
 62
   257
176
     1
 90
        7
176
     1
 90
        7
176
     1
 40
1.0
176
     1
 90
        8
176
     1
 62
     7
176
     1
 40
1.0
176
     1
 90
        1
176
     1
 90
        6
176
     1
 90
        2
176
     1
 62
     7
176
     1
 90
        5
176
     1
 90
        0
176
     1
 90
        0
176
     1
290
     0
176
     1
 90
        1
176
     1
 40
0.0
176
     1
 90
        0
176
     1
290
     0
176
     1
290
     1
176
     1
290
     1
176
     1
290
     0
176
     1
290
     0
176
     1
290
     0
176
     1
290
     0
176
     1
290
     0
176
     1
290
     0
176
     1
 90
       50
176
     1
 40
0.0
176
     1
 40
1.0
176
     1
 90
        0
176
     1
 62
    18
420
        0
176
     1
 90
       50
176
     1
 90
        3
176
     1
 62
     5
420
      255
176
     1
290
     0
176
     1
 90
       50
176
     1
 90
       50
176
     1
 90
       50
176
     1
290
     0
176
     1
 90
       50
176
     1
 62
   256
176
     0
 40
1.0
176
     0
 90
        2
176
     1
  1
strokes_ogs.tif
176
     1
290
     0
176
     1
 40
1.0
176
     1
 40
1.0
176
     1
  0
VISUALSTYLE
  5
10033
102
{ACAD_REACTORS
330
1001C
102
}
330
1001C
100
AcDbVisualStyle
  2
OverhangOff
 70
    21
177
     3
291
     1
 70
    58
 90
        2
176
     0
 90
        2
176
     0
 90
        0
176
     0
 90
        0
176
     0
 40
0.6
176
     0
 40
30.0
176
     0
 62
     7
420
 16777215
176
     0
 90
        1
176
     0
 90
        4
176
     0
 62
     7
176
     0
 62
   257
176
     0
 90
        1
176
     0
 90
        1
176
     0
 40
1.0
176
     0
 90
        9
176
     2
 62
     7
176
     0
 40
1.0
176
     0
 90
        1
176
     0
 90
        6
176
     0
 90
        2
176
     0
 62
     7
176
     0
 90
        5
176
     0
 90
        0
176
     0
 90
        0
176
     0
290
     0
176
     0
 90
        1
176
     0
 40
0.0
176
     0
 90
        0
176
     0
290
     0
176
     1
290
     1
176
     1
290
     1
176
     1
290
     0
176
     1
290
     0
176
     1
290
     0
176
     1
290
     0
176
     1
290
     0
176
     1
290
     0
176
     1
 90
       50
176
     0
 40
0.0
176
     0
 40
1.0
176
     0
 90
        0
176
     0
 62
    18
420
        0
176
     0
 90
       50
176
     0
 90
        3
176
     0
 62
     5
420
      255
176
     0
290
     0
176
     1
 90
       50
176
     0
 90
       50
176
     0
 90
       50
176
     0
290
     0
176
     1
 90
       50
176
     0
 62
   256
176
     0
 40
1.0
176
     0
 90
        2
176
     0
  1
strokes_ogs.tif
176
     0
290
     0
176
     1
 40
1.0
176
     0
 40
1.0
176
     0
  0
VISUALSTYLE
  5
10026
102
{ACAD_REACTORS
330
1001C
102
}
330
1001C
100
AcDbVisualStyle
  2
Realistic
 70
     8
177
     3
291
     0
 70
    58
 90
        2
176
     1
 90
        3
176
     1
 90
        0
176
     1
 90
        2
176
     1
 40
0.6
176
     1
 40
30.0
176
     1
 62
     7
420
 16777215
176
     1
 90
        0
176
     1
 90
        0
176
     1
 62
     7
176
     1
 62
   257
176
     1
 90
        1
176
     1
 90
        1
176
     1
 40
1.0
176
     1
 90
        8
176
     1
 62
   257
176
     1
 40
1.0
176
     1
 90
        1
176
     1
 90
        6
176
     1
 90
        2
176
     1
 62
     7
176
     1
 90
        3
176
     1
 90
        0
176
     1
 90
        0
176
     1
290
     0
176
     1
 90
       13
176
     1
 40
0.0
176
     1
 90
        0
176
     1
290
     0
176
     1
290
     1
176
     1
290
     1
176
     1
290
     0
176
     1
290
     0
176
     1
290
     0
176
     1
290
     0
176
     1
290
     0
176
     1
290
     0
176
     1
 90
       50
176
     1
 40
0.0
176
     1
 40
1.0
176
     1
 90
        0
176
     1
 62
    18
420
        0
176
     1
 90
       50
176
     1
 90
        3
176
     1
 62
     5
420
      255
176
     1
290
     0
176
     1
 90
       50
176
     1
 90
       50
176
     1
 90
       50
176
     1
290
     0
176
     1
 90
       50
176
     1
 62
   256
176
     0
 40
1.0
176
     0
 90
        2
176
     1
  1
strokes_ogs.tif
176
     1
290
     0
176
     1
 40
1.0
176
     1
 40
1.0
176
     1
  0
VISUALSTYLE
  5
10031
102
{ACAD_REACTORS
330
1001C
102
}
330
1001C
100
AcDbVisualStyle
  2
Shaded
 70
    27
177
     3
291
     0
 70
    58
 90
        2
176
     1
 90
        2
176
     1
 90
        1
176
     1
 90
        2
176
     1
 40
0.6
176
     1
 40
30.0
176
     1
 62
     7
420
 16777215
176
     1
 90
        0
176
     1
 90
        4
176
     1
 62
     7
176
     1
 62
   257
176
     1
 90
        1
176
     1
 90
        1
176
     1
 40
1.0
176
     1
 90
        8
176
     1
 62
   257
176
     1
 40
1.0
176
     1
 90
        1
176
     1
 90
        6
176
     1
 90
        2
176
     1
 62
     8
420
  7895160
176
     1
 90
        3
176
     1
 90
        0
176
     1
 90
        0
176
     1
290
     0
176
     1
 90
        5
176
     1
 40
0.0
176
     1
 90
        0
176
     1
290
     0
176
     1
290
     1
176
     1
290
     1
176
     1
290
     0
176
     1
290
     0
176
     1
290
     0
176
     1
290
     0
176
     1
290
     0
176
     1
290
     0
176
     1
 90
       50
176
     1
 40
0.0
176
     1
 40
1.0
176
     1
 90
        0
176
     1
 62
    18
420
        0
176
     1
 90
       50
176
     1
 90
        3
176
     1
 62
     5
420
      255
176
     1
290
     0
176
     1
 90
       50
176
     1
 90
       50
176
     1
 90
       50
176
     1
290
     0
176
     1
 90
       50
176
     1
 62
   256
176
     0
 40
1.0
176
     0
 90
        2
176
     1
  1
strokes_ogs.tif
176
     1
290
     0
176
     1
 40
1.0
176
     1
 40
1.0
176
     1
  0
VISUALSTYLE
  5
10030
102
{ACAD_REACTORS
330
1001C
102
}
330
1001C
100
AcDbVisualStyle
  2
Shaded with edges
 70
    26
177
     3
291
     0
 70
    58
 90
        2
176
     1
 90
        2
176
     1
 90
        1
176
     1
 90
        2
176
     1
 40
0.6
176
     1
 40
30.0
176
     1
 62
     7
420
 16777215
176
     1
 90
        1
176
     1
 90
       10
176
     1
 62
     7
176
     1
 62
   257
176
     1
 90
        2
176
     1
 90
        1
176
     1
 40
1.0
176
     1
 90
        8
176
     1
 62
   257
176
     1
 40
1.0
176
     1
 90
        1
176
     1
 90
        6
176
     1
 90
        2
176
     1
 62
     7
176
     1
 90
        3
176
     1
 90
        0
176
     1
 90
        0
176
     1
290
     0
176
     1
 90
        5
176
     1
 40
0.0
176
     1
 90
        0
176
     1
290
     0
176
     1
290
     1
176
     1
290
     1
176
     1
290
     0
176
     1
290
     0
176
     1
290
     0
176
     1
290
     0
176
     1
290
     0
176
     1
290
     0
176
     1
 90
       50
176
     1
 40
0.0
176
     1
 40
1.0
176
     1
 90
        0
176
     1
 62
    18
420
        0
176
     1
 90
       50
176
     1
 90
        3
176
     1
 62
     5
420
      255
176
     1
290
     0
176
     1
 90
       50
176
     1
 90
       50
176
     1
 90
       50
176
     1
290
     0
176
     1
 90
       50
176
     1
 62
   256
176
     0
 40
1.0
176
     0
 90
        2
176
     1
  1
strokes_ogs.tif
176
     1
290
     0
176
     1
 40
1.0
176
     1
 40
1.0
176
     1
  0
VISUALSTYLE
  5
1002D
102
{ACAD_REACTORS
330
1001C
102
}
330
1001C
100
AcDbVisualStyle
  2
Shades of Gray
 70
    23
177
     3
291
     0
 70
    58
 90
        2
176
     1
 90
        2
176
     1
 90
        3
176
     1
 90
        0
176
     1
 40
0.6
176
     1
 40
30.0
176
     1
 62
     7
420
 16777215
176
     1
 90
        2
176
     1
 90
        2
176
     1
 62
     7
176
     1
 62
     7
176
     1
 90
        1
176
     1
 90
        1
176
     1
 40
40.0
176
     1
 90
        8
176
     1
 62
     7
176
     1
 40
1.0
176
     1
 90
        1
176
     1
 90
        6
176
     1
 90
        2
176
     1
 62
     7
176
     1
 90
        3
176
     1
 90
        0
176
     1
 90
        0
176
     1
290
     0
176
     1
 90
        1
176
     1
 40
0.0
176
     1
 90
        0
176
     1
290
     0
176
     1
290
     1
176
     1
290
     1
176
     1
290
     0
176
     1
290
     0
176
     1
290
     0
176
     1
290
     0
176
     1
290
     0
176
     1
290
     0
176
     1
 90
       50
176
     1
 40
0.0
176
     1
 40
1.0
176
     1
 90
        0
176
     1
 62
    18
420
        0
176
     1
 90
       50
176
     1
 90
        3
176
     1
 62
     5
420
      255
176
     1
290
     0
176
     1
 90
       50
176
     1
 90
       50
176
     1
 90
       50
176
     1
290
     0
176
     1
 90
       50
176
     1
 62
   256
176
     0
 40
1.0
176
     0
 90
        2
176
     1
  1
strokes_ogs.tif
176
     1
290
     0
176
     1
 40
1.0
176
     1
 40
1.0
176
     1
  0
VISUALSTYLE
  5
1002E
102
{ACAD_REACTORS
330
1001C
102
}
330
1001C
100
AcDbVisualStyle
  2
Sketchy
 70
    24
177
     3
291
     0
 70
    58
 90
        1
176
     1
 90
        2
176
     1
 90
        2
176
     1
 90
        0
176
     1
 40
0.6
176
     1
 40
30.0
176
     1
 62
     7
420
 16777215
176
     1
 90
        2
176
     1
 90
        2
176
     1
 62
     7
176
     1
 62
     7
176
     1
 90
        1
176
     1
 90
        1
176
     1
 40
40.0
176
     1
 90
       11
176
     1
 62
     7
176
     1
 40
1.0
176
     1
 90
        1
176
     1
 90
        6
176
     1
 90
        2
176
     1
 62
     7
176
     1
 90
        6
176
     1
 90
        0
176
     1
 90
        0
176
     1
290
     0
176
     1
 90
        1
176
     1
 40
0.0
176
     1
 90
        0
176
     1
290
     0
176
     1
290
     1
176
     1
290
     1
176
     1
290
     0
176
     1
290
     0
176
     1
290
     0
176
     1
290
     0
176
     1
290
     0
176
     1
290
     0
176
     1
 90
       50
176
     1
 40
0.0
176
     1
 40
1.0
176
     1
 90
        0
176
     1
 62
    18
420
        0
176
     1
 90
       50
176
     1
 90
        3
176
     1
 62
     5
420
      255
176
     1
290
     0
176
     1
 90
       50
176
     1
 90
       50
176
     1
 90
       50
176
     1
290
     0
176
     1
 90
       50
176
     1
 62
   256
176
     0
 40
1.0
176
     0
 90
        2
176
     1
  1
strokes_ogs.tif
176
     1
290
     0
176
     1
 40
1.0
176
     1
 40
1.0
176
     1
  0
VISUALSTYLE
  5
10029
102
{ACAD_REACTORS
330
1001C
102
}
330
1001C
100
AcDbVisualStyle
  2
Thicken
 70
    13
177
     3
291
     1
 70
    58
 90
        2
176
     1
 90
        2
176
     1
 90
        0
176
     1
 90
        0
176
     1
 40
0.6
176
     1
 40
30.0
176
     1
 62
     7
420
 16777215
176
     1
 90
        1
176
     1
 90
        4
176
     1
 62
     7
176
     1
 62
   257
176
     1
 90
        1
176
     1
 90
        1
176
     1
 40
1.0
176
     1
 90
       12
176
     1
 62
     7
176
     1
 40
1.0
176
     1
 90
        1
176
     1
 90
        6
176
     1
 90
        2
176
     1
 62
     7
176
     1
 90
        5
176
     1
 90
        0
176
     1
 90
        0
176
     1
290
     0
176
     1
 90
        1
176
     1
 40
0.0
176
     1
 90
        0
176
     1
290
     0
176
     1
290
     1
176
     1
290
     1
176
     1
290
     0
176
     1
290
     0
176
     1
290
     0
176
     1
290
     0
176
     1
290
     0
176
     1
290
     0
176
     1
 90
       50
176
     1
 40
0.0
176
     1
 40
1.0
176
     1
 90
        0
176
     1
 62
    18
420
        0
176
     1
 90
       50
176
     1
 90
        3
176
     1
 62
     5
420
      255
176
     1
290
     0
176
     1
 90
       50
176
     1
 90
       50
176
     1
 90
       50
176
     1
290
     0
176
     1
 90
       50
176
     1
 62
   256
176
     0
 40
1.0
176
     0
 90
        2
176
     1
  1
strokes_ogs.tif
176
     1
290
     0
176
     1
 40
1.0
176
     1
 40
1.0
176
     1
  0
VISUALSTYLE
  5
10023
102
{ACAD_REACTORS
330
1001C
102
}
330
1001C
100
AcDbVisualStyle
  2
Wireframe
 70
     5
177
     3
291
     0
 70
    58
 90
        0
176
     1
 90
        2
176
     1
 90
        0
176
     1
 90
        0
176
     1
 40
0.6
176
     1
 40
30.0
176
     1
 62
     7
420
 16777215
176
     1
 90
        1
176
     1
 90
        4
176
     1
 62
     7
176
     1
 62
   257
176
     1
 90
        1
176
     1
 90
        1
176
     1
 40
1.0
176
     1
 90
        0
176
     1
 62
   257
176
     1
 40
1.0
176
     1
 90
        1
176
     1
 90
        6
176
     1
 90
        2
176
     1
 62
     7
176
     1
 90
        3
176
     1
 90
        0
176
     1
 90
        0
176
     1
290
     0
176
     1
 90
        1
176
     1
 40
0.0
176
     1
 90
        0
176
     1
290
     0
176
     1
290
     1
176
     1
290
     1
176
     1
290
     0
176
     1
290
     0
176
     1
290
     0
176
     1
290
     0
176
     1
290
     0
176
     1
290
     0
176
     1
 90
       50
176
     1
 40
0.0
176
     1
 40
1.0
176
     1
 90
        0
176
     1
 62
    18
420
        0
176
     1
 90
       50
176
     1
 90
        3
176
     1
 62
     5
420
      255
176
     1
290
     0
176
     1
 90
       50
176
     1
 90
       50
176
     1
 90
       50
176
     1
290
     0
176
     1
 90
       50
176
     1
 62
   256
176
     0
 40
1.0
176
     0
 90
        2
176
     1
  1
strokes_ogs.tif
176
     1
290
     0
176
     1
 40
1.0
176
     1
 40
1.0
176
     1
  0
VISUALSTYLE
  5
1002F
102
{ACAD_REACTORS
330
1001C
102
}
330
1001C
100
AcDbVisualStyle
  2
X-Ray
 70
    25
177
     3
291
     0
 70
    58
 90
        2
176
     1
 90
        2
176
     1
 90
        1
176
     1
 90
        1
176
     1
 40
0.5
176
     1
 40
30.0
176
     1
 62
     7
420
 16777215
176
     1
 90
        1
176
     1
 90
        0
176
     1
 62
     7
176
     1
 62
   257
176
     1
 90
        1
176
     1
 90
        1
176
     1
 40
1.0
176
     1
 90
        8
176
     1
 62
     7
176
     1
 40
1.0
176
     1
 90
        1
176
     1
 90
        6
176
     1
 90
        2
176
     1
 62
     7
176
     1
 90
        3
176
     1
 90
        0
176
     1
 90
        0
176
     1
290
     0
176
     1
 90
       13
176
     1
 40
0.0
176
     1
 90
        0
176
     1
290
     0
176
     1
290
     1
176
     1
290
     1
176
     1
290
     0
176
     1
290
     0
176
     1
290
     0
176
     1
290
     0
176
     1
290
     0
176
     1
290
     0
176
     1
 90
       50
176
     1
 40
0.0
176
     1
 40
1.0
176
     1
 90
        0
176
     1
 62
    18
420
        0
176
     1
 90
       50
176
     1
 90
        3
176
     1
 62
     5
420
      255
176
     1
290
     0
176
     1
 90
       50
176
     1
 90
       50
176
     1
 90
       50
176
     1
290
     0
176
     1
 90
       50
176
     1
 62
   256
176
     0
 40
1.0
176
     0
 90
        2
176
     1
  1
strokes_ogs.tif
176
     1
290
     0
176
     1
 40
1.0
176
     1
 40
1.0
176
     1
  0
DICTIONARYVAR
  5
10098
102
{ACAD_REACTORS
330
10092
102
}
330
10092
100
DictionaryVariables
280
     0
  1
1:1
  0
DICTIONARYVAR
  5
10094
102
{ACAD_REACTORS
330
10092
102
}
330
10092
100
DictionaryVariables
280
     0
  1
STANDARD
  0
DICTIONARYVAR
  5
10093
102
{ACAD_REACTORS
330
10092
102
}
330
10092
100
DictionaryVariables
280
     0
  1
STANDARD
  0
DICTIONARYVAR
  5
10095
102
{ACAD_REACTORS
330
10092
102
}
330
10092
100
DictionaryVariables
280
     0
  1
Metric50
  0
DICTIONARYVAR
  5
10096
102
{ACAD_REACTORS
330
10092
102
}
330
10092
100
DictionaryVariables
280
     0
  1
Metric50
  0
DICTIONARYVAR
  5
1009A
102
{ACAD_REACTORS
330
10092
102
}
330
10092
100
DictionaryVariables
280
     0
  1
1
  0
DICTIONARYVAR
  5
1009B
102
{ACAD_REACTORS
330
10092
102
}
330
10092
100
DictionaryVariables
280
     0
  1
15
  0
DICTIONARYVAR
  5
10099
102
{ACAD_REACTORS
330
10092
102
}
330
10092
100
DictionaryVariables
280
     0
  1
0
  0
DICTIONARYVAR
  5
10097
102
{ACAD_REACTORS
330
10092
102
}
330
10092
100
DictionaryVariables
280
     0
  1
0
  0
DICTIONARY
  5
100A1
330
1004F
100
AcDbDictionary
280
     1
281
     1
  3
ACAD_XREC_ROUNDTRIP
360
100A2
  0
DICTIONARY
  5
1000D
330
1000C
100
AcDbDictionary
280
     1
281
     1
  3
BUMPTILE
360
1000F
  3
DIFFUSETILE
360
1000E
  3
OPACITYTILE
360
10012
  3
REFLECTIONTILE
360
10011
  3
REFRACTIONTILE
360
10013
  3
SPECULARTILE
360
10010
  0
DICTIONARY
  5
10005
330
10004
100
AcDbDictionary
280
     1
281
     1
  3
BUMPTILE
360
10007
  3
DIFFUSETILE
360
10006
  3
OPACITYTILE
360
1000A
  3
REFLECTIONTILE
360
10009
  3
REFRACTIONTILE
360
1000B
  3
SPECULARTILE
360
10008
  0
DICTIONARY
  5
10015
330
10014
100
AcDbDictionary
280
     1
281
     1
  3
BUMPTILE
360
10017
  3
DIFFUSETILE
360
10016
  3
OPACITYTILE
360
1001A
  3
REFLECTIONTILE
360
10019
  3
REFRACTIONTILE
360
1001B
  3
SPECULARTILE
360
10018
  0
DICTIONARY
  5
1009F
330
1004D
100
AcDbDictionary
280
     1
281
     1
  3
ACAD_XREC_ROUNDTRIP
360
100A0
  0
DICTIONARY
  5
1009D
330
10037
100
AcDbDictionary
280
     1
281
     1
  3
ACAD_ROUNDTRIP_2008_TABLESTYLE_CELLSTYLEMAP
360
1009E
  0
XRECORD
  5
100A2
102
{ACAD_REACTORS
330
100A1
102
}
330
100A1
100
AcDbXrecord
280
     1
102
DISPLAYNAME
  1
Metric50
102
FLAGS
 90
        0
  0
XRECORD
  5
1000F
102
{ACAD_REACTORS
330
1000D
102
}
330
1000D
100
AcDbXrecord
280
     1
270
     1
271
     1
  0
XRECORD
  5
1000E
102
{ACAD_REACTORS
330
1000D
102
}
330
1000D
100
AcDbXrecord
280
     1
270
     1
271
     1
  0
XRECORD
  5
10012
102
{ACAD_REACTORS
330
1000D
102
}
330
1000D
100
AcDbXrecord
280
     1
270
     1
271
     1
  0
XRECORD
  5
10011
102
{ACAD_REACTORS
330
1000D
102
}
330
1000D
100
AcDbXrecord
280
     1
270
     1
271
     1
  0
XRECORD
  5
10013
102
{ACAD_REACTORS
330
1000D
102
}
330
1000D
100
AcDbXrecord
280
     1
270
     1
271
     1
  0
XRECORD
  5
10010
102
{ACAD_REACTORS
330
1000D
102
}
330
1000D
100
AcDbXrecord
280
     1
270
     1
271
     1
  0
XRECORD
  5
10007
102
{ACAD_REACTORS
330
10005
102
}
330
10005
100
AcDbXrecord
280
     1
270
     1
271
     1
  0
XRECORD
  5
10006
102
{ACAD_REACTORS
330
10005
102
}
330
10005
100
AcDbXrecord
280
     1
270
     1
271
     1
  0
XRECORD
  5
1000A
102
{ACAD_REACTORS
330
10005
102
}
330
10005
100
AcDbXrecord
280
     1
270
     1
271
     1
  0
XRECORD
  5
10009
102
{ACAD_REACTORS
330
10005
102
}
330
10005
100
AcDbXrecord
280
     1
270
     1
271
     1
  0
XRECORD
  5
1000B
102
{ACAD_REACTORS
330
10005
102
}
330
10005
100
AcDbXrecord
280
     1
270
     1
271
     1
  0
XRECORD
  5
10008
102
{ACAD_REACTORS
330
10005
102
}
330
10005
100
AcDbXrecord
280
     1
270
     1
271
     1
  0
XRECORD
  5
10017
102
{ACAD_REACTORS
330
10015
102
}
330
10015
100
AcDbXrecord
280
     1
270
     1
271
     1
  0
XRECORD
  5
10016
102
{ACAD_REACTORS
330
10015
102
}
330
10015
100
AcDbXrecord
280
     1
270
     1
271
     1
  0
XRECORD
  5
1001A
102
{ACAD_REACTORS
330
10015
102
}
330
10015
100
AcDbXrecord
280
     1
270
     1
271
     1
  0
XRECORD
  5
10019
102
{ACAD_REACTORS
330
10015
102
}
330
10015
100
AcDbXrecord
280
     1
270
     1
271
     1
  0
XRECORD
  5
1001B
102
{ACAD_REACTORS
330
10015
102
}
330
10015
100
AcDbXrecord
280
     1
270
     1
271
     1
  0
XRECORD
  5
10018
102
{ACAD_REACTORS
330
10015
102
}
330
10015
100
AcDbXrecord
280
     1
270
     1
271
     1
  0
XRECORD
  5
100A0
102
{ACAD_REACTORS
330
1009F
102
}
330
1009F
100
AcDbXrecord
280
     1
102
DISPLAYNAME
  1
Metric50
102
FLAGS
 90
        0
  0
CELLSTYLEMAP
  5
1009E
102
{ACAD_REACTORS
330
1009D
102
}
330
1009D
100
AcDbCellStyleMap
 90
        3
300
CELLSTYLE
  1
TABLEFORMAT_BEGIN
 90
        5
170
     1
 91
        0
 92
    32768
 62
   257
 93
        1
300
CONTENTFORMAT
  1
CONTENTFORMAT_BEGIN
 90
        0
 91
        0
 92
      512
 93
        0
300

 40
0.0
140
1.0
 94
        5
 62
     0
340
11
144
6.0
309
CONTENTFORMAT_END
171
     1
301
MARGIN
  1
CELLMARGIN_BEGIN
 40
1.5
 40
1.5
 40
1.5
 40
1.5
 40
4.5
 40
4.5
309
CELLMARGIN_END
 94
        6
 95
        1
302
GRIDFORMAT
  1
GRIDFORMAT_BEGIN
 90
        0
 91
        1
 62
     0
 92
       -2
340
0
 93
        0
 40
1.125
309
GRIDFORMAT_END
 95
        2
302
GRIDFORMAT
  1
GRIDFORMAT_BEGIN
 90
        0
 91
        1
 62
     0
 92
       -2
340
0
 93
        0
 40
1.125
309
GRIDFORMAT_END
 95
        4
302
GRIDFORMAT
  1
GRIDFORMAT_BEGIN
 90
        0
 91
        1
 62
     0
 92
       -2
340
0
 93
        0
 40
1.125
309
GRIDFORMAT_END
 95
        8
302
GRIDFORMAT
  1
GRIDFORMAT_BEGIN
 90
        0
 91
        1
 62
     0
 92
       -2
340
0
 93
        0
 40
1.125
309
GRIDFORMAT_END
 95
       16
302
GRIDFORMAT
  1
GRIDFORMAT_BEGIN
 90
        0
 91
        1
 62
     0
 92
       -2
340
0
 93
        0
 40
1.125
309
GRIDFORMAT_END
 95
       32
302
GRIDFORMAT
  1
GRIDFORMAT_BEGIN
 90
        0
 91
        1
 62
     0
 92
       -2
340
0
 93
        0
 40
1.125
309
GRIDFORMAT_END
309
TABLEFORMAT_END
  1
CELLSTYLE_BEGIN
 90
        1
 91
        1
300
_TITLE
309
CELLSTYLE_END
300
CELLSTYLE
  1
TABLEFORMAT_BEGIN
 90
        5
170
     1
 91
        0
 92
        0
 62
   257
 93
        1
300
CONTENTFORMAT
  1
CONTENTFORMAT_BEGIN
 90
        0
 91
        0
 92
      512
 93
        0
300

 40
0.0
140
1.0
 94
        5
 62
     0
340
11
144
4.5
309
CONTENTFORMAT_END
171
     1
301
MARGIN
  1
CELLMARGIN_BEGIN
 40
1.5
 40
1.5
 40
1.5
 40
1.5
 40
4.5
 40
4.5
309
CELLMARGIN_END
 94
        6
 95
        1
302
GRIDFORMAT
  1
GRIDFORMAT_BEGIN
 90
        0
 91
        1
 62
     0
 92
       -2
340
0
 93
        0
 40
1.125
309
GRIDFORMAT_END
 95
        2
302
GRIDFORMAT
  1
GRIDFORMAT_BEGIN
 90
        0
 91
        1
 62
     0
 92
       -2
340
0
 93
        0
 40
1.125
309
GRIDFORMAT_END
 95
        4
302
GRIDFORMAT
  1
GRIDFORMAT_BEGIN
 90
        0
 91
        1
 62
     0
 92
       -2
340
0
 93
        0
 40
1.125
309
GRIDFORMAT_END
 95
        8
302
GRIDFORMAT
  1
GRIDFORMAT_BEGIN
 90
        0
 91
        1
 62
     0
 92
       -2
340
0
 93
        0
 40
1.125
309
GRIDFORMAT_END
 95
       16
302
GRIDFORMAT
  1
GRIDFORMAT_BEGIN
 90
        0
 91
        1
 62
     0
 92
       -2
340
0
 93
        0
 40
1.125
309
GRIDFORMAT_END
 95
       32
302
GRIDFORMAT
  1
GRIDFORMAT_BEGIN
 90
        0
 91
        1
 62
     0
 92
       -2
340
0
 93
        0
 40
1.125
309
GRIDFORMAT_END
309
TABLEFORMAT_END
  1
CELLSTYLE_BEGIN
 90
        2
 91
        1
300
_HEADER
309
CELLSTYLE_END
300
CELLSTYLE
  1
TABLEFORMAT_BEGIN
 90
        5
170
     1
 91
        0
 92
        0
 62
   257
 93
        1
300
CONTENTFORMAT
  1
CONTENTFORMAT_BEGIN
 90
        0
 91
        0
 92
      512
 93
        0
300

 40
0.0
140
1.0
 94
        2
 62
     0
340
11
144
4.5
309
CONTENTFORMAT_END
171
     1
301
MARGIN
  1
CELLMARGIN_BEGIN
 40
1.5
 40
1.5
 40
1.5
 40
1.5
 40
4.5
 40
4.5
309
CELLMARGIN_END
 94
        6
 95
        1
302
GRIDFORMAT
  1
GRIDFORMAT_BEGIN
 90
        0
 91
        1
 62
     0
 92
       -2
340
0
 93
        0
 40
1.125
309
GRIDFORMAT_END
 95
        2
302
GRIDFORMAT
  1
GRIDFORMAT_BEGIN
 90
        0
 91
        1
 62
     0
 92
       -2
340
0
 93
        0
 40
1.125
309
GRIDFORMAT_END
 95
        4
302
GRIDFORMAT
  1
GRIDFORMAT_BEGIN
 90
        0
 91
        1
 62
     0
 92
       -2
340
0
 93
        0
 40
1.125
309
GRIDFORMAT_END
 95
        8
302
GRIDFORMAT
  1
GRIDFORMAT_BEGIN
 90
        0
 91
        1
 62
     0
 92
       -2
340
0
 93
        0
 40
1.125
309
GRIDFORMAT_END
 95
       16
302
GRIDFORMAT
  1
GRIDFORMAT_BEGIN
 90
        0
 91
        1
 62
     0
 92
       -2
340
0
 93
        0
 40
1.125
309
GRIDFORMAT_END
 95
       32
302
GRIDFORMAT
  1
GRIDFORMAT_BEGIN
 90
        0
 91
        1
 62
     0
 92
       -2
340
0
 93
        0
 40
1.125
309
GRIDFORMAT_END
309
TABLEFORMAT_END
  1
CELLSTYLE_BEGIN
 90
        3
 91
        2
300
_DATA
309
CELLSTYLE_END
  0
ENDSEC
  0
EOF
