  0
SECTION
  2
BLOCKS
  0
ENDSEC
  0
SECTION
  2
ENTITIES
  0
LINE
  8
0
 10
-112.5
 11
-112.5
 20
-100
 21
100
  0
LINE
  8
0
 10
-112.5
 11
112.5
 20
100
 21
100
  0
LINE
  8
0
 10
112.5
 11
112.5
 20
100
 21
-100
  0
LINE
  8
0
 10
112.5
 11
-112.5
 20
-100
 21
-100
  0
LINE
  8
0
 10
-108.05
 11
-108.034
 20
-60
 21
-59.749
  0
LINE
  8
0
 10
-108.034
 11
-107.987
 20
-59.749
 21
-59.503
  0
LINE
  8
0
 10
-107.987
 11
-107.91
 20
-59.503
 21
-59.264
  0
LINE
  8
0
 10
-107.91
 11
-107.803
 20
-59.264
 21
-59.036
  0
LINE
  8
0
 10
-107.803
 11
-107.668
 20
-59.036
 21
-58.824
  0
LINE
  8
0
 10
-107.668
 11
-107.508
 20
-58.824
 21
-58.631
  0
LINE
  8
0
 10
-107.508
 11
-107.325
 20
-58.631
 21
-58.459
  0
LINE
  8
0
 10
-107.325
 11
-107.122
 20
-58.459
 21
-58.311
  0
LINE
  8
0
 10
-107.122
 11
-106.902
 20
-58.311
 21
-58.19
  0
LINE
  8
0
 10
-106.902
 11
-106.668
 20
-58.19
 21
-58.098
  0
LINE
  8
0
 10
-106.668
 11
-106.425
 20
-58.098
 21
-58.035
  0
LINE
  8
0
 10
-106.425
 11
-106.176
 20
-58.035
 21
-58.004
  0
LINE
  8
0
 10
-106.176
 11
-105.924
 20
-58.004
 21
-58.004
  0
LINE
  8
0
 10
-105.924
 11
-105.675
 20
-58.004
 21
-58.035
  0
LINE
  8
0
 10
-105.675
 11
-105.432
 20
-58.035
 21
-58.098
  0
LINE
  8
0
 10
-105.432
 11
-105.198
 20
-58.098
 21
-58.19
  0
LINE
  8
0
 10
-105.198
 11
-104.978
 20
-58.19
 21
-58.311
  0
LINE
  8
0
 10
-104.978
 11
-104.775
 20
-58.311
 21
-58.459
  0
LINE
  8
0
 10
-104.775
 11
-104.592
 20
-58.459
 21
-58.631
  0
LINE
  8
0
 10
-104.592
 11
-104.432
 20
-58.631
 21
-58.824
  0
LINE
  8
0
 10
-104.432
 11
-104.297
 20
-58.824
 21
-59.036
  0
LINE
  8
0
 10
-104.297
 11
-104.19
 20
-59.036
 21
-59.264
  0
LINE
  8
0
 10
-104.19
 11
-104.113
 20
-59.264
 21
-59.503
  0
LINE
  8
0
 10
-104.113
 11
-104.066
 20
-59.503
 21
-59.749
  0
LINE
  8
0
 10
-104.066
 11
-104.05
 20
-59.749
 21
-60
  0
LINE
  8
0
 10
-104.05
 11
-104.066
 20
-60
 21
-60.251
  0
LINE
  8
0
 10
-104.066
 11
-104.113
 20
-60.251
 21
-60.497
  0
LINE
  8
0
 10
-104.113
 11
-104.19
 20
-60.497
 21
-60.736
  0
LINE
  8
0
 10
-104.19
 11
-104.297
 20
-60.736
 21
-60.964
  0
LINE
  8
0
 10
-104.297
 11
-104.432
 20
-60.964
 21
-61.176
  0
LINE
  8
0
 10
-104.432
 11
-104.592
 20
-61.176
 21
-61.369
  0
LINE
  8
0
 10
-104.592
 11
-104.775
 20
-61.369
 21
-61.541
  0
LINE
  8
0
 10
-104.775
 11
-104.978
 20
-61.541
 21
-61.689
  0
LINE
  8
0
 10
-104.978
 11
-105.198
 20
-61.689
 21
-61.81
  0
LINE
  8
0
 10
-105.198
 11
-105.432
 20
-61.81
 21
-61.902
  0
LINE
  8
0
 10
-105.432
 11
-105.675
 20
-61.902
 21
-61.965
  0
LINE
  8
0
 10
-105.675
 11
-105.924
 20
-61.965
 21
-61.996
  0
LINE
  8
0
 10
-105.924
 11
-106.176
 20
-61.996
 21
-61.996
  0
LINE
  8
0
 10
-106.176
 11
-106.425
 20
-61.996
 21
-61.965
  0
LINE
  8
0
 10
-106.425
 11
-106.668
 20
-61.965
 21
-61.902
  0
LINE
  8
0
 10
-106.668
 11
-106.902
 20
-61.902
 21
-61.81
  0
LINE
  8
0
 10
-106.902
 11
-107.122
 20
-61.81
 21
-61.689
  0
LINE
  8
0
 10
-107.122
 11
-107.325
 20
-61.689
 21
-61.541
  0
LINE
  8
0
 10
-107.325
 11
-107.508
 20
-61.541
 21
-61.369
  0
LINE
  8
0
 10
-107.508
 11
-107.668
 20
-61.369
 21
-61.176
  0
LINE
  8
0
 10
-107.668
 11
-107.803
 20
-61.176
 21
-60.964
  0
LINE
  8
0
 10
-107.803
 11
-107.91
 20
-60.964
 21
-60.736
  0
LINE
  8
0
 10
-107.91
 11
-107.987
 20
-60.736
 21
-60.497
  0
LINE
  8
0
 10
-107.987
 11
-108.034
 20
-60.497
 21
-60.251
  0
LINE
  8
0
 10
-108.034
 11
-108.05
 20
-60.251
 21
-60
  0
LINE
  8
0
 10
-108.05
 11
-108.034
 20
60
 21
60.251
  0
LINE
  8
0
 10
-108.034
 11
-107.987
 20
60.251
 21
60.497
  0
LINE
  8
0
 10
-107.987
 11
-107.91
 20
60.497
 21
60.736
  0
LINE
  8
0
 10
-107.91
 11
-107.803
 20
60.736
 21
60.964
  0
LINE
  8
0
 10
-107.803
 11
-107.668
 20
60.964
 21
61.176
  0
LINE
  8
0
 10
-107.668
 11
-107.508
 20
61.176
 21
61.369
  0
LINE
  8
0
 10
-107.508
 11
-107.325
 20
61.369
 21
61.541
  0
LINE
  8
0
 10
-107.325
 11
-107.122
 20
61.541
 21
61.689
  0
LINE
  8
0
 10
-107.122
 11
-106.902
 20
61.689
 21
61.81
  0
LINE
  8
0
 10
-106.902
 11
-106.668
 20
61.81
 21
61.902
  0
LINE
  8
0
 10
-106.668
 11
-106.425
 20
61.902
 21
61.965
  0
LINE
  8
0
 10
-106.425
 11
-106.176
 20
61.965
 21
61.996
  0
LINE
  8
0
 10
-106.176
 11
-105.924
 20
61.996
 21
61.996
  0
LINE
  8
0
 10
-105.924
 11
-105.675
 20
61.996
 21
61.965
  0
LINE
  8
0
 10
-105.675
 11
-105.432
 20
61.965
 21
61.902
  0
LINE
  8
0
 10
-105.432
 11
-105.198
 20
61.902
 21
61.81
  0
LINE
  8
0
 10
-105.198
 11
-104.978
 20
61.81
 21
61.689
  0
LINE
  8
0
 10
-104.978
 11
-104.775
 20
61.689
 21
61.541
  0
LINE
  8
0
 10
-104.775
 11
-104.592
 20
61.541
 21
61.369
  0
LINE
  8
0
 10
-104.592
 11
-104.432
 20
61.369
 21
61.176
  0
LINE
  8
0
 10
-104.432
 11
-104.297
 20
61.176
 21
60.964
  0
LINE
  8
0
 10
-104.297
 11
-104.19
 20
60.964
 21
60.736
  0
LINE
  8
0
 10
-104.19
 11
-104.113
 20
60.736
 21
60.497
  0
LINE
  8
0
 10
-104.113
 11
-104.066
 20
60.497
 21
60.251
  0
LINE
  8
0
 10
-104.066
 11
-104.05
 20
60.251
 21
60
  0
LINE
  8
0
 10
-104.05
 11
-104.066
 20
60
 21
59.749
  0
LINE
  8
0
 10
-104.066
 11
-104.113
 20
59.749
 21
59.503
  0
LINE
  8
0
 10
-104.113
 11
-104.19
 20
59.503
 21
59.264
  0
LINE
  8
0
 10
-104.19
 11
-104.297
 20
59.264
 21
59.036
  0
LINE
  8
0
 10
-104.297
 11
-104.432
 20
59.036
 21
58.824
  0
LINE
  8
0
 10
-104.432
 11
-104.592
 20
58.824
 21
58.631
  0
LINE
  8
0
 10
-104.592
 11
-104.775
 20
58.631
 21
58.459
  0
LINE
  8
0
 10
-104.775
 11
-104.978
 20
58.459
 21
58.311
  0
LINE
  8
0
 10
-104.978
 11
-105.198
 20
58.311
 21
58.19
  0
LINE
  8
0
 10
-105.198
 11
-105.432
 20
58.19
 21
58.098
  0
LINE
  8
0
 10
-105.432
 11
-105.675
 20
58.098
 21
58.035
  0
LINE
  8
0
 10
-105.675
 11
-105.924
 20
58.035
 21
58.004
  0
LINE
  8
0
 10
-105.924
 11
-106.176
 20
58.004
 21
58.004
  0
LINE
  8
0
 10
-106.176
 11
-106.425
 20
58.004
 21
58.035
  0
LINE
  8
0
 10
-106.425
 11
-106.668
 20
58.035
 21
58.098
  0
LINE
  8
0
 10
-106.668
 11
-106.902
 20
58.098
 21
58.19
  0
LINE
  8
0
 10
-106.902
 11
-107.122
 20
58.19
 21
58.311
  0
LINE
  8
0
 10
-107.122
 11
-107.325
 20
58.311
 21
58.459
  0
LINE
  8
0
 10
-107.325
 11
-107.508
 20
58.459
 21
58.631
  0
LINE
  8
0
 10
-107.508
 11
-107.668
 20
58.631
 21
58.824
  0
LINE
  8
0
 10
-107.668
 11
-107.803
 20
58.824
 21
59.036
  0
LINE
  8
0
 10
-107.803
 11
-107.91
 20
59.036
 21
59.264
  0
LINE
  8
0
 10
-107.91
 11
-107.987
 20
59.264
 21
59.503
  0
LINE
  8
0
 10
-107.987
 11
-108.034
 20
59.503
 21
59.749
  0
LINE
  8
0
 10
-108.034
 11
-108.05
 20
59.749
 21
60
  0
LINE
  8
0
 10
-60.458
 11
-56.922
 20
-32.173
 21
-28.638
  0
LINE
  8
0
 10
-56.922
 11
-53.387
 20
-28.638
 21
-32.173
  0
LINE
  8
0
 10
-53.387
 11
-56.922
 20
-32.173
 21
-35.709
  0
LINE
  8
0
 10
-56.922
 11
-60.458
 20
-35.709
 21
-32.173
  0
LINE
  8
0
 10
-60.458
 11
-56.922
 20
32.173
 21
35.709
  0
LINE
  8
0
 10
-56.922
 11
-53.387
 20
35.709
 21
32.173
  0
LINE
  8
0
 10
-53.387
 11
-56.922
 20
32.173
 21
28.638
  0
LINE
  8
0
 10
-56.922
 11
-60.458
 20
28.638
 21
32.173
  0
LINE
  8
0
 10
-51.5
 11
-51.488
 20
-50
 21
-49.812
  0
LINE
  8
0
 10
-51.488
 11
-51.453
 20
-49.812
 21
-49.627
  0
LINE
  8
0
 10
-51.453
 11
-51.395
 20
-49.627
 21
-49.448
  0
LINE
  8
0
 10
-51.395
 11
-51.314
 20
-49.448
 21
-49.277
  0
LINE
  8
0
 10
-51.314
 11
-51.214
 20
-49.277
 21
-49.118
  0
LINE
  8
0
 10
-51.214
 11
-51.093
 20
-49.118
 21
-48.973
  0
LINE
  8
0
 10
-51.093
 11
-50.956
 20
-48.973
 21
-48.844
  0
LINE
  8
0
 10
-50.956
 11
-50.804
 20
-48.844
 21
-48.734
  0
LINE
  8
0
 10
-50.804
 11
-50.639
 20
-48.734
 21
-48.643
  0
LINE
  8
0
 10
-50.639
 11
-50.464
 20
-48.643
 21
-48.573
  0
LINE
  8
0
 10
-50.464
 11
-50.281
 20
-48.573
 21
-48.527
  0
LINE
  8
0
 10
-50.281
 11
-50.094
 20
-48.527
 21
-48.503
  0
LINE
  8
0
 10
-50.094
 11
-49.906
 20
-48.503
 21
-48.503
  0
LINE
  8
0
 10
-49.906
 11
-49.719
 20
-48.503
 21
-48.527
  0
LINE
  8
0
 10
-49.719
 11
-49.536
 20
-48.527
 21
-48.573
  0
LINE
  8
0
 10
-49.536
 11
-49.361
 20
-48.573
 21
-48.643
  0
LINE
  8
0
 10
-49.361
 11
-49.196
 20
-48.643
 21
-48.734
  0
LINE
  8
0
 10
-49.196
 11
-49.044
 20
-48.734
 21
-48.844
  0
LINE
  8
0
 10
-49.044
 11
-48.907
 20
-48.844
 21
-48.973
  0
LINE
  8
0
 10
-48.907
 11
-48.786
 20
-48.973
 21
-49.118
  0
LINE
  8
0
 10
-48.786
 11
-48.686
 20
-49.118
 21
-49.277
  0
LINE
  8
0
 10
-48.686
 11
-48.605
 20
-49.277
 21
-49.448
  0
LINE
  8
0
 10
-48.605
 11
-48.547
 20
-49.448
 21
-49.627
  0
LINE
  8
0
 10
-48.547
 11
-48.512
 20
-49.627
 21
-49.812
  0
LINE
  8
0
 10
-48.512
 11
-48.5
 20
-49.812
 21
-50
  0
LINE
  8
0
 10
-48.5
 11
-48.512
 20
-50
 21
-50.188
  0
LINE
  8
0
 10
-48.512
 11
-48.547
 20
-50.188
 21
-50.373
  0
LINE
  8
0
 10
-48.547
 11
-48.605
 20
-50.373
 21
-50.552
  0
LINE
  8
0
 10
-48.605
 11
-48.686
 20
-50.552
 21
-50.723
  0
LINE
  8
0
 10
-48.686
 11
-48.786
 20
-50.723
 21
-50.882
  0
LINE
  8
0
 10
-48.786
 11
-48.907
 20
-50.882
 21
-51.027
  0
LINE
  8
0
 10
-48.907
 11
-49.044
 20
-51.027
 21
-51.156
  0
LINE
  8
0
 10
-49.044
 11
-49.196
 20
-51.156
 21
-51.266
  0
LINE
  8
0
 10
-49.196
 11
-49.361
 20
-51.266
 21
-51.357
  0
LINE
  8
0
 10
-49.361
 11
-49.536
 20
-51.357
 21
-51.427
  0
LINE
  8
0
 10
-49.536
 11
-49.719
 20
-51.427
 21
-51.473
  0
LINE
  8
0
 10
-49.719
 11
-49.906
 20
-51.473
 21
-51.497
  0
LINE
  8
0
 10
-49.906
 11
-50.094
 20
-51.497
 21
-51.497
  0
LINE
  8
0
 10
-50.094
 11
-50.281
 20
-51.497
 21
-51.473
  0
LINE
  8
0
 10
-50.281
 11
-50.464
 20
-51.473
 21
-51.427
  0
LINE
  8
0
 10
-50.464
 11
-50.639
 20
-51.427
 21
-51.357
  0
LINE
  8
0
 10
-50.639
 11
-50.804
 20
-51.357
 21
-51.266
  0
LINE
  8
0
 10
-50.804
 11
-50.956
 20
-51.266
 21
-51.156
  0
LINE
  8
0
 10
-50.956
 11
-51.093
 20
-51.156
 21
-51.027
  0
LINE
  8
0
 10
-51.093
 11
-51.214
 20
-51.027
 21
-50.882
  0
LINE
  8
0
 10
-51.214
 11
-51.314
 20
-50.882
 21
-50.723
  0
LINE
  8
0
 10
-51.314
 11
-51.395
 20
-50.723
 21
-50.552
  0
LINE
  8
0
 10
-51.395
 11
-51.453
 20
-50.552
 21
-50.373
  0
LINE
  8
0
 10
-51.453
 11
-51.488
 20
-50.373
 21
-50.188
  0
LINE
  8
0
 10
-51.488
 11
-51.5
 20
-50.188
 21
-50
  0
LINE
  8
0
 10
-51.497
 11
-51.497
 20
49.906
 21
50.094
  0
LINE
  8
0
 10
-51.497
 11
-51.473
 20
50.094
 21
50.281
  0
LINE
  8
0
 10
-51.473
 11
-51.427
 20
50.281
 21
50.464
  0
LINE
  8
0
 10
-51.427
 11
-51.357
 20
50.464
 21
50.639
  0
LINE
  8
0
 10
-51.357
 11
-51.266
 20
50.639
 21
50.804
  0
LINE
  8
0
 10
-51.266
 11
-51.156
 20
50.804
 21
50.956
  0
LINE
  8
0
 10
-51.156
 11
-51.027
 20
50.956
 21
51.093
  0
LINE
  8
0
 10
-51.027
 11
-50.882
 20
51.093
 21
51.214
  0
LINE
  8
0
 10
-50.882
 11
-50.723
 20
51.214
 21
51.314
  0
LINE
  8
0
 10
-50.723
 11
-50.552
 20
51.314
 21
51.395
  0
LINE
  8
0
 10
-50.552
 11
-50.373
 20
51.395
 21
51.453
  0
LINE
  8
0
 10
-50.373
 11
-50.188
 20
51.453
 21
51.488
  0
LINE
  8
0
 10
-50.188
 11
-50
 20
51.488
 21
51.5
  0
LINE
  8
0
 10
-50
 11
-49.812
 20
51.5
 21
51.488
  0
LINE
  8
0
 10
-49.812
 11
-49.627
 20
51.488
 21
51.453
  0
LINE
  8
0
 10
-49.627
 11
-49.448
 20
51.453
 21
51.395
  0
LINE
  8
0
 10
-49.448
 11
-49.277
 20
51.395
 21
51.314
  0
LINE
  8
0
 10
-49.277
 11
-49.118
 20
51.314
 21
51.214
  0
LINE
  8
0
 10
-49.118
 11
-48.973
 20
51.214
 21
51.093
  0
LINE
  8
0
 10
-48.973
 11
-48.844
 20
51.093
 21
50.956
  0
LINE
  8
0
 10
-48.844
 11
-48.734
 20
50.956
 21
50.804
  0
LINE
  8
0
 10
-48.734
 11
-48.643
 20
50.804
 21
50.639
  0
LINE
  8
0
 10
-48.643
 11
-48.573
 20
50.639
 21
50.464
  0
LINE
  8
0
 10
-48.573
 11
-48.527
 20
50.464
 21
50.281
  0
LINE
  8
0
 10
-48.527
 11
-48.503
 20
50.281
 21
50.094
  0
LINE
  8
0
 10
-48.503
 11
-48.503
 20
50.094
 21
49.906
  0
LINE
  8
0
 10
-48.503
 11
-48.527
 20
49.906
 21
49.719
  0
LINE
  8
0
 10
-48.527
 11
-48.573
 20
49.719
 21
49.536
  0
LINE
  8
0
 10
-48.573
 11
-48.643
 20
49.536
 21
49.361
  0
LINE
  8
0
 10
-48.643
 11
-48.734
 20
49.361
 21
49.196
  0
LINE
  8
0
 10
-48.734
 11
-48.844
 20
49.196
 21
49.044
  0
LINE
  8
0
 10
-48.844
 11
-48.973
 20
49.044
 21
48.907
  0
LINE
  8
0
 10
-48.973
 11
-49.118
 20
48.907
 21
48.786
  0
LINE
  8
0
 10
-49.118
 11
-49.277
 20
48.786
 21
48.686
  0
LINE
  8
0
 10
-49.277
 11
-49.448
 20
48.686
 21
48.605
  0
LINE
  8
0
 10
-49.448
 11
-49.627
 20
48.605
 21
48.547
  0
LINE
  8
0
 10
-49.627
 11
-49.812
 20
48.547
 21
48.512
  0
LINE
  8
0
 10
-49.812
 11
-50
 20
48.512
 21
48.5
  0
LINE
  8
0
 10
-50
 11
-50.188
 20
48.5
 21
48.512
  0
LINE
  8
0
 10
-50.188
 11
-50.373
 20
48.512
 21
48.547
  0
LINE
  8
0
 10
-50.373
 11
-50.552
 20
48.547
 21
48.605
  0
LINE
  8
0
 10
-50.552
 11
-50.723
 20
48.605
 21
48.686
  0
LINE
  8
0
 10
-50.723
 11
-50.882
 20
48.686
 21
48.786
  0
LINE
  8
0
 10
-50.882
 11
-51.027
 20
48.786
 21
48.907
  0
LINE
  8
0
 10
-51.027
 11
-51.156
 20
48.907
 21
49.044
  0
LINE
  8
0
 10
-51.156
 11
-51.266
 20
49.044
 21
49.196
  0
LINE
  8
0
 10
-51.266
 11
-51.357
 20
49.196
 21
49.361
  0
LINE
  8
0
 10
-51.357
 11
-51.427
 20
49.361
 21
49.536
  0
LINE
  8
0
 10
-51.427
 11
-51.473
 20
49.536
 21
49.719
  0
LINE
  8
0
 10
-51.473
 11
-51.497
 20
49.719
 21
49.906
  0
LINE
  8
0
 10
-46.047
 11
-46.03
 20
-44.501
 21
-44.313
  0
LINE
  8
0
 10
-46.03
 11
-45.988
 20
-44.313
 21
-44.13
  0
LINE
  8
0
 10
-45.988
 11
-45.924
 20
-44.13
 21
-43.952
  0
LINE
  8
0
 10
-45.924
 11
-45.839
 20
-43.952
 21
-43.784
  0
LINE
  8
0
 10
-45.839
 11
-45.733
 20
-43.784
 21
-43.628
  0
LINE
  8
0
 10
-45.733
 11
-45.608
 20
-43.628
 21
-43.487
  0
LINE
  8
0
 10
-45.608
 11
-45.467
 20
-43.487
 21
-43.363
  0
LINE
  8
0
 10
-45.467
 11
-45.311
 20
-43.363
 21
-43.257
  0
LINE
  8
0
 10
-45.311
 11
-45.144
 20
-43.257
 21
-43.171
  0
LINE
  8
0
 10
-45.144
 11
-44.966
 20
-43.171
 21
-43.107
  0
LINE
  8
0
 10
-44.966
 11
-44.782
 20
-43.107
 21
-43.066
  0
LINE
  8
0
 10
-44.782
 11
-44.594
 20
-43.066
 21
-43.049
  0
LINE
  8
0
 10
-44.594
 11
-44.406
 20
-43.049
 21
-43.054
  0
LINE
  8
0
 10
-44.406
 11
-44.221
 20
-43.054
 21
-43.084
  0
LINE
  8
0
 10
-44.221
 11
-44.04
 20
-43.084
 21
-43.136
  0
LINE
  8
0
 10
-44.04
 11
-43.867
 20
-43.136
 21
-43.211
  0
LINE
  8
0
 10
-43.867
 11
-43.705
 20
-43.211
 21
-43.307
  0
LINE
  8
0
 10
-43.705
 11
-43.556
 20
-43.307
 21
-43.423
  0
LINE
  8
0
 10
-43.556
 11
-43.423
 20
-43.423
 21
-43.556
  0
LINE
  8
0
 10
-43.423
 11
-43.307
 20
-43.556
 21
-43.705
  0
LINE
  8
0
 10
-43.307
 11
-43.211
 20
-43.705
 21
-43.867
  0
LINE
  8
0
 10
-43.211
 11
-43.136
 20
-43.867
 21
-44.04
  0
LINE
  8
0
 10
-43.136
 11
-43.084
 20
-44.04
 21
-44.221
  0
LINE
  8
0
 10
-43.084
 11
-43.054
 20
-44.221
 21
-44.406
  0
LINE
  8
0
 10
-43.054
 11
-43.049
 20
-44.406
 21
-44.594
  0
LINE
  8
0
 10
-43.049
 11
-43.066
 20
-44.594
 21
-44.782
  0
LINE
  8
0
 10
-43.066
 11
-43.107
 20
-44.782
 21
-44.966
  0
LINE
  8
0
 10
-43.107
 11
-43.171
 20
-44.966
 21
-45.144
  0
LINE
  8
0
 10
-43.171
 11
-43.257
 20
-45.144
 21
-45.311
  0
LINE
  8
0
 10
-43.257
 11
-43.363
 20
-45.311
 21
-45.467
  0
LINE
  8
0
 10
-43.363
 11
-43.487
 20
-45.467
 21
-45.608
  0
LINE
  8
0
 10
-43.487
 11
-43.628
 20
-45.608
 21
-45.733
  0
LINE
  8
0
 10
-43.628
 11
-43.784
 20
-45.733
 21
-45.839
  0
LINE
  8
0
 10
-43.784
 11
-43.952
 20
-45.839
 21
-45.924
  0
LINE
  8
0
 10
-43.952
 11
-44.13
 20
-45.924
 21
-45.988
  0
LINE
  8
0
 10
-44.13
 11
-44.313
 20
-45.988
 21
-46.03
  0
LINE
  8
0
 10
-44.313
 11
-44.501
 20
-46.03
 21
-46.047
  0
LINE
  8
0
 10
-44.501
 11
-44.689
 20
-46.047
 21
-46.041
  0
LINE
  8
0
 10
-44.689
 11
-44.874
 20
-46.041
 21
-46.011
  0
LINE
  8
0
 10
-44.874
 11
-45.055
 20
-46.011
 21
-45.959
  0
LINE
  8
0
 10
-45.055
 11
-45.229
 20
-45.959
 21
-45.885
  0
LINE
  8
0
 10
-45.229
 11
-45.391
 20
-45.885
 21
-45.788
  0
LINE
  8
0
 10
-45.391
 11
-45.54
 20
-45.788
 21
-45.673
  0
LINE
  8
0
 10
-45.54
 11
-45.673
 20
-45.673
 21
-45.54
  0
LINE
  8
0
 10
-45.673
 11
-45.788
 20
-45.54
 21
-45.391
  0
LINE
  8
0
 10
-45.788
 11
-45.885
 20
-45.391
 21
-45.229
  0
LINE
  8
0
 10
-45.885
 11
-45.959
 20
-45.229
 21
-45.055
  0
LINE
  8
0
 10
-45.959
 11
-46.011
 20
-45.055
 21
-44.874
  0
LINE
  8
0
 10
-46.011
 11
-46.041
 20
-44.874
 21
-44.689
  0
LINE
  8
0
 10
-46.041
 11
-46.047
 20
-44.689
 21
-44.501
  0
LINE
  8
0
 10
-46.047
 11
-46.041
 20
44.501
 21
44.689
  0
LINE
  8
0
 10
-46.041
 11
-46.011
 20
44.689
 21
44.874
  0
LINE
  8
0
 10
-46.011
 11
-45.959
 20
44.874
 21
45.055
  0
LINE
  8
0
 10
-45.959
 11
-45.885
 20
45.055
 21
45.229
  0
LINE
  8
0
 10
-45.885
 11
-45.788
 20
45.229
 21
45.391
  0
LINE
  8
0
 10
-45.788
 11
-45.673
 20
45.391
 21
45.54
  0
LINE
  8
0
 10
-45.673
 11
-45.54
 20
45.54
 21
45.673
  0
LINE
  8
0
 10
-45.54
 11
-45.391
 20
45.673
 21
45.788
  0
LINE
  8
0
 10
-45.391
 11
-45.229
 20
45.788
 21
45.885
  0
LINE
  8
0
 10
-45.229
 11
-45.055
 20
45.885
 21
45.959
  0
LINE
  8
0
 10
-45.055
 11
-44.874
 20
45.959
 21
46.011
  0
LINE
  8
0
 10
-44.874
 11
-44.689
 20
46.011
 21
46.041
  0
LINE
  8
0
 10
-44.689
 11
-44.501
 20
46.041
 21
46.047
  0
LINE
  8
0
 10
-44.501
 11
-44.313
 20
46.047
 21
46.03
  0
LINE
  8
0
 10
-44.313
 11
-44.13
 20
46.03
 21
45.988
  0
LINE
  8
0
 10
-44.13
 11
-43.952
 20
45.988
 21
45.924
  0
LINE
  8
0
 10
-43.952
 11
-43.784
 20
45.924
 21
45.839
  0
LINE
  8
0
 10
-43.784
 11
-43.628
 20
45.839
 21
45.733
  0
LINE
  8
0
 10
-43.628
 11
-43.487
 20
45.733
 21
45.608
  0
LINE
  8
0
 10
-43.487
 11
-43.363
 20
45.608
 21
45.467
  0
LINE
  8
0
 10
-43.363
 11
-43.257
 20
45.467
 21
45.311
  0
LINE
  8
0
 10
-43.257
 11
-43.171
 20
45.311
 21
45.144
  0
LINE
  8
0
 10
-43.171
 11
-43.107
 20
45.144
 21
44.966
  0
LINE
  8
0
 10
-43.107
 11
-43.066
 20
44.966
 21
44.782
  0
LINE
  8
0
 10
-43.066
 11
-43.049
 20
44.782
 21
44.594
  0
LINE
  8
0
 10
-43.049
 11
-43.054
 20
44.594
 21
44.406
  0
LINE
  8
0
 10
-43.054
 11
-43.084
 20
44.406
 21
44.221
  0
LINE
  8
0
 10
-43.084
 11
-43.136
 20
44.221
 21
44.04
  0
LINE
  8
0
 10
-43.136
 11
-43.211
 20
44.04
 21
43.867
  0
LINE
  8
0
 10
-43.211
 11
-43.307
 20
43.867
 21
43.705
  0
LINE
  8
0
 10
-43.307
 11
-43.423
 20
43.705
 21
43.556
  0
LINE
  8
0
 10
-43.423
 11
-43.556
 20
43.556
 21
43.423
  0
LINE
  8
0
 10
-43.556
 11
-43.705
 20
43.423
 21
43.307
  0
LINE
  8
0
 10
-43.705
 11
-43.867
 20
43.307
 21
43.211
  0
LINE
  8
0
 10
-43.867
 11
-44.04
 20
43.211
 21
43.136
  0
LINE
  8
0
 10
-44.04
 11
-44.221
 20
43.136
 21
43.084
  0
LINE
  8
0
 10
-44.221
 11
-44.406
 20
43.084
 21
43.054
  0
LINE
  8
0
 10
-44.406
 11
-44.594
 20
43.054
 21
43.049
  0
LINE
  8
0
 10
-44.594
 11
-44.782
 20
43.049
 21
43.066
  0
LINE
  8
0
 10
-44.782
 11
-44.966
 20
43.066
 21
43.107
  0
LINE
  8
0
 10
-44.966
 11
-45.144
 20
43.107
 21
43.171
  0
LINE
  8
0
 10
-45.144
 11
-45.311
 20
43.171
 21
43.257
  0
LINE
  8
0
 10
-45.311
 11
-45.467
 20
43.257
 21
43.363
  0
LINE
  8
0
 10
-45.467
 11
-45.608
 20
43.363
 21
43.487
  0
LINE
  8
0
 10
-45.608
 11
-45.733
 20
43.487
 21
43.628
  0
LINE
  8
0
 10
-45.733
 11
-45.839
 20
43.628
 21
43.784
  0
LINE
  8
0
 10
-45.839
 11
-45.924
 20
43.784
 21
43.952
  0
LINE
  8
0
 10
-45.924
 11
-45.988
 20
43.952
 21
44.13
  0
LINE
  8
0
 10
-45.988
 11
-46.03
 20
44.13
 21
44.313
  0
LINE
  8
0
 10
-46.03
 11
-46.047
 20
44.313
 21
44.501
  0
LINE
  8
0
 10
-35.709
 11
-32.173
 20
-56.922
 21
-53.387
  0
LINE
  8
0
 10
-32.173
 11
-28.638
 20
-53.387
 21
-56.922
  0
LINE
  8
0
 10
-28.638
 11
-32.173
 20
-56.922
 21
-60.458
  0
LINE
  8
0
 10
-32.173
 11
-35.709
 20
-60.458
 21
-56.922
  0
LINE
  8
0
 10
-35.709
 11
-32.173
 20
56.922
 21
60.458
  0
LINE
  8
0
 10
-32.173
 11
-28.638
 20
60.458
 21
56.922
  0
LINE
  8
0
 10
-28.638
 11
-32.173
 20
56.922
 21
53.387
  0
LINE
  8
0
 10
-32.173
 11
-35.709
 20
53.387
 21
56.922
  0
LINE
  8
0
 10
28.638
 11
32.173
 20
-56.922
 21
-53.387
  0
LINE
  8
0
 10
32.173
 11
35.709
 20
-53.387
 21
-56.922
  0
LINE
  8
0
 10
35.709
 11
32.173
 20
-56.922
 21
-60.458
  0
LINE
  8
0
 10
32.173
 11
28.638
 20
-60.458
 21
-56.922
  0
LINE
  8
0
 10
28.638
 11
32.173
 20
56.922
 21
60.458
  0
LINE
  8
0
 10
32.173
 11
35.709
 20
60.458
 21
56.922
  0
LINE
  8
0
 10
35.709
 11
32.173
 20
56.922
 21
53.387
  0
LINE
  8
0
 10
32.173
 11
28.638
 20
53.387
 21
56.922
  0
LINE
  8
0
 10
43.049
 11
43.054
 20
-44.594
 21
-44.406
  0
LINE
  8
0
 10
43.054
 11
43.084
 20
-44.406
 21
-44.221
  0
LINE
  8
0
 10
43.084
 11
43.136
 20
-44.221
 21
-44.04
  0
LINE
  8
0
 10
43.136
 11
43.211
 20
-44.04
 21
-43.867
  0
LINE
  8
0
 10
43.211
 11
43.307
 20
-43.867
 21
-43.705
  0
LINE
  8
0
 10
43.307
 11
43.423
 20
-43.705
 21
-43.556
  0
LINE
  8
0
 10
43.423
 11
43.556
 20
-43.556
 21
-43.423
  0
LINE
  8
0
 10
43.556
 11
43.705
 20
-43.423
 21
-43.307
  0
LINE
  8
0
 10
43.705
 11
43.867
 20
-43.307
 21
-43.211
  0
LINE
  8
0
 10
43.867
 11
44.04
 20
-43.211
 21
-43.136
  0
LINE
  8
0
 10
44.04
 11
44.221
 20
-43.136
 21
-43.084
  0
LINE
  8
0
 10
44.221
 11
44.406
 20
-43.084
 21
-43.054
  0
LINE
  8
0
 10
44.406
 11
44.594
 20
-43.054
 21
-43.049
  0
LINE
  8
0
 10
44.594
 11
44.782
 20
-43.049
 21
-43.066
  0
LINE
  8
0
 10
44.782
 11
44.966
 20
-43.066
 21
-43.107
  0
LINE
  8
0
 10
44.966
 11
45.144
 20
-43.107
 21
-43.171
  0
LINE
  8
0
 10
45.144
 11
45.311
 20
-43.171
 21
-43.257
  0
LINE
  8
0
 10
45.311
 11
45.467
 20
-43.257
 21
-43.363
  0
LINE
  8
0
 10
45.467
 11
45.608
 20
-43.363
 21
-43.487
  0
LINE
  8
0
 10
45.608
 11
45.733
 20
-43.487
 21
-43.628
  0
LINE
  8
0
 10
45.733
 11
45.839
 20
-43.628
 21
-43.784
  0
LINE
  8
0
 10
45.839
 11
45.924
 20
-43.784
 21
-43.952
  0
LINE
  8
0
 10
45.924
 11
45.988
 20
-43.952
 21
-44.13
  0
LINE
  8
0
 10
45.988
 11
46.03
 20
-44.13
 21
-44.313
  0
LINE
  8
0
 10
46.03
 11
46.047
 20
-44.313
 21
-44.501
  0
LINE
  8
0
 10
46.047
 11
46.041
 20
-44.501
 21
-44.689
  0
LINE
  8
0
 10
46.041
 11
46.011
 20
-44.689
 21
-44.874
  0
LINE
  8
0
 10
46.011
 11
45.959
 20
-44.874
 21
-45.055
  0
LINE
  8
0
 10
45.959
 11
45.885
 20
-45.055
 21
-45.229
  0
LINE
  8
0
 10
45.885
 11
45.788
 20
-45.229
 21
-45.391
  0
LINE
  8
0
 10
45.788
 11
45.673
 20
-45.391
 21
-45.54
  0
LINE
  8
0
 10
45.673
 11
45.54
 20
-45.54
 21
-45.673
  0
LINE
  8
0
 10
45.54
 11
45.391
 20
-45.673
 21
-45.788
  0
LINE
  8
0
 10
45.391
 11
45.229
 20
-45.788
 21
-45.885
  0
LINE
  8
0
 10
45.229
 11
45.055
 20
-45.885
 21
-45.959
  0
LINE
  8
0
 10
45.055
 11
44.874
 20
-45.959
 21
-46.011
  0
LINE
  8
0
 10
44.874
 11
44.689
 20
-46.011
 21
-46.041
  0
LINE
  8
0
 10
44.689
 11
44.501
 20
-46.041
 21
-46.047
  0
LINE
  8
0
 10
44.501
 11
44.313
 20
-46.047
 21
-46.03
  0
LINE
  8
0
 10
44.313
 11
44.13
 20
-46.03
 21
-45.988
  0
LINE
  8
0
 10
44.13
 11
43.952
 20
-45.988
 21
-45.924
  0
LINE
  8
0
 10
43.952
 11
43.784
 20
-45.924
 21
-45.839
  0
LINE
  8
0
 10
43.784
 11
43.628
 20
-45.839
 21
-45.733
  0
LINE
  8
0
 10
43.628
 11
43.487
 20
-45.733
 21
-45.608
  0
LINE
  8
0
 10
43.487
 11
43.363
 20
-45.608
 21
-45.467
  0
LINE
  8
0
 10
43.363
 11
43.257
 20
-45.467
 21
-45.311
  0
LINE
  8
0
 10
43.257
 11
43.171
 20
-45.311
 21
-45.144
  0
LINE
  8
0
 10
43.171
 11
43.107
 20
-45.144
 21
-44.966
  0
LINE
  8
0
 10
43.107
 11
43.066
 20
-44.966
 21
-44.782
  0
LINE
  8
0
 10
43.066
 11
43.049
 20
-44.782
 21
-44.594
  0
LINE
  8
0
 10
43.049
 11
43.066
 20
44.594
 21
44.782
  0
LINE
  8
0
 10
43.066
 11
43.107
 20
44.782
 21
44.966
  0
LINE
  8
0
 10
43.107
 11
43.171
 20
44.966
 21
45.144
  0
LINE
  8
0
 10
43.171
 11
43.257
 20
45.144
 21
45.311
  0
LINE
  8
0
 10
43.257
 11
43.363
 20
45.311
 21
45.467
  0
LINE
  8
0
 10
43.363
 11
43.487
 20
45.467
 21
45.608
  0
LINE
  8
0
 10
43.487
 11
43.628
 20
45.608
 21
45.733
  0
LINE
  8
0
 10
43.628
 11
43.784
 20
45.733
 21
45.839
  0
LINE
  8
0
 10
43.784
 11
43.952
 20
45.839
 21
45.924
  0
LINE
  8
0
 10
43.952
 11
44.13
 20
45.924
 21
45.988
  0
LINE
  8
0
 10
44.13
 11
44.313
 20
45.988
 21
46.03
  0
LINE
  8
0
 10
44.313
 11
44.501
 20
46.03
 21
46.047
  0
LINE
  8
0
 10
44.501
 11
44.689
 20
46.047
 21
46.041
  0
LINE
  8
0
 10
44.689
 11
44.874
 20
46.041
 21
46.011
  0
LINE
  8
0
 10
44.874
 11
45.055
 20
46.011
 21
45.959
  0
LINE
  8
0
 10
45.055
 11
45.229
 20
45.959
 21
45.885
  0
LINE
  8
0
 10
45.229
 11
45.391
 20
45.885
 21
45.788
  0
LINE
  8
0
 10
45.391
 11
45.54
 20
45.788
 21
45.673
  0
LINE
  8
0
 10
45.54
 11
45.673
 20
45.673
 21
45.54
  0
LINE
  8
0
 10
45.673
 11
45.788
 20
45.54
 21
45.391
  0
LINE
  8
0
 10
45.788
 11
45.885
 20
45.391
 21
45.229
  0
LINE
  8
0
 10
45.885
 11
45.959
 20
45.229
 21
45.055
  0
LINE
  8
0
 10
45.959
 11
46.011
 20
45.055
 21
44.874
  0
LINE
  8
0
 10
46.011
 11
46.041
 20
44.874
 21
44.689
  0
LINE
  8
0
 10
46.041
 11
46.047
 20
44.689
 21
44.501
  0
LINE
  8
0
 10
46.047
 11
46.03
 20
44.501
 21
44.313
  0
LINE
  8
0
 10
46.03
 11
45.988
 20
44.313
 21
44.13
  0
LINE
  8
0
 10
45.988
 11
45.924
 20
44.13
 21
43.952
  0
LINE
  8
0
 10
45.924
 11
45.839
 20
43.952
 21
43.784
  0
LINE
  8
0
 10
45.839
 11
45.733
 20
43.784
 21
43.628
  0
LINE
  8
0
 10
45.733
 11
45.608
 20
43.628
 21
43.487
  0
LINE
  8
0
 10
45.608
 11
45.467
 20
43.487
 21
43.363
  0
LINE
  8
0
 10
45.467
 11
45.311
 20
43.363
 21
43.257
  0
LINE
  8
0
 10
45.311
 11
45.144
 20
43.257
 21
43.171
  0
LINE
  8
0
 10
45.144
 11
44.966
 20
43.171
 21
43.107
  0
LINE
  8
0
 10
44.966
 11
44.782
 20
43.107
 21
43.066
  0
LINE
  8
0
 10
44.782
 11
44.594
 20
43.066
 21
43.049
  0
LINE
  8
0
 10
44.594
 11
44.406
 20
43.049
 21
43.054
  0
LINE
  8
0
 10
44.406
 11
44.221
 20
43.054
 21
43.084
  0
LINE
  8
0
 10
44.221
 11
44.04
 20
43.084
 21
43.136
  0
LINE
  8
0
 10
44.04
 11
43.867
 20
43.136
 21
43.211
  0
LINE
  8
0
 10
43.867
 11
43.705
 20
43.211
 21
43.307
  0
LINE
  8
0
 10
43.705
 11
43.556
 20
43.307
 21
43.423
  0
LINE
  8
0
 10
43.556
 11
43.423
 20
43.423
 21
43.556
  0
LINE
  8
0
 10
43.423
 11
43.307
 20
43.556
 21
43.705
  0
LINE
  8
0
 10
43.307
 11
43.211
 20
43.705
 21
43.867
  0
LINE
  8
0
 10
43.211
 11
43.136
 20
43.867
 21
44.04
  0
LINE
  8
0
 10
43.136
 11
43.084
 20
44.04
 21
44.221
  0
LINE
  8
0
 10
43.084
 11
43.054
 20
44.221
 21
44.406
  0
LINE
  8
0
 10
43.054
 11
43.049
 20
44.406
 21
44.594
  0
LINE
  8
0
 10
48.5
 11
48.512
 20
50
 21
50.188
  0
LINE
  8
0
 10
48.512
 11
48.547
 20
50.188
 21
50.373
  0
LINE
  8
0
 10
48.547
 11
48.605
 20
50.373
 21
50.552
  0
LINE
  8
0
 10
48.605
 11
48.686
 20
50.552
 21
50.723
  0
LINE
  8
0
 10
48.686
 11
48.786
 20
50.723
 21
50.882
  0
LINE
  8
0
 10
48.786
 11
48.907
 20
50.882
 21
51.027
  0
LINE
  8
0
 10
48.907
 11
49.044
 20
51.027
 21
51.156
  0
LINE
  8
0
 10
49.044
 11
49.196
 20
51.156
 21
51.266
  0
LINE
  8
0
 10
49.196
 11
49.361
 20
51.266
 21
51.357
  0
LINE
  8
0
 10
49.361
 11
49.536
 20
51.357
 21
51.427
  0
LINE
  8
0
 10
49.536
 11
49.719
 20
51.427
 21
51.473
  0
LINE
  8
0
 10
49.719
 11
49.906
 20
51.473
 21
51.497
  0
LINE
  8
0
 10
49.906
 11
50.094
 20
51.497
 21
51.497
  0
LINE
  8
0
 10
50.094
 11
50.281
 20
51.497
 21
51.473
  0
LINE
  8
0
 10
50.281
 11
50.464
 20
51.473
 21
51.427
  0
LINE
  8
0
 10
50.464
 11
50.639
 20
51.427
 21
51.357
  0
LINE
  8
0
 10
50.639
 11
50.804
 20
51.357
 21
51.266
  0
LINE
  8
0
 10
50.804
 11
50.956
 20
51.266
 21
51.156
  0
LINE
  8
0
 10
50.956
 11
51.093
 20
51.156
 21
51.027
  0
LINE
  8
0
 10
51.093
 11
51.214
 20
51.027
 21
50.882
  0
LINE
  8
0
 10
51.214
 11
51.314
 20
50.882
 21
50.723
  0
LINE
  8
0
 10
51.314
 11
51.395
 20
50.723
 21
50.552
  0
LINE
  8
0
 10
51.395
 11
51.453
 20
50.552
 21
50.373
  0
LINE
  8
0
 10
51.453
 11
51.488
 20
50.373
 21
50.188
  0
LINE
  8
0
 10
51.488
 11
51.5
 20
50.188
 21
50
  0
LINE
  8
0
 10
51.5
 11
51.488
 20
50
 21
49.812
  0
LINE
  8
0
 10
51.488
 11
51.453
 20
49.812
 21
49.627
  0
LINE
  8
0
 10
51.453
 11
51.395
 20
49.627
 21
49.448
  0
LINE
  8
0
 10
51.395
 11
51.314
 20
49.448
 21
49.277
  0
LINE
  8
0
 10
51.314
 11
51.214
 20
49.277
 21
49.118
  0
LINE
  8
0
 10
51.214
 11
51.093
 20
49.118
 21
48.973
  0
LINE
  8
0
 10
51.093
 11
50.956
 20
48.973
 21
48.844
  0
LINE
  8
0
 10
50.956
 11
50.804
 20
48.844
 21
48.734
  0
LINE
  8
0
 10
50.804
 11
50.639
 20
48.734
 21
48.643
  0
LINE
  8
0
 10
50.639
 11
50.464
 20
48.643
 21
48.573
  0
LINE
  8
0
 10
50.464
 11
50.281
 20
48.573
 21
48.527
  0
LINE
  8
0
 10
50.281
 11
50.094
 20
48.527
 21
48.503
  0
LINE
  8
0
 10
50.094
 11
49.906
 20
48.503
 21
48.503
  0
LINE
  8
0
 10
49.906
 11
49.719
 20
48.503
 21
48.527
  0
LINE
  8
0
 10
49.719
 11
49.536
 20
48.527
 21
48.573
  0
LINE
  8
0
 10
49.536
 11
49.361
 20
48.573
 21
48.643
  0
LINE
  8
0
 10
49.361
 11
49.196
 20
48.643
 21
48.734
  0
LINE
  8
0
 10
49.196
 11
49.044
 20
48.734
 21
48.844
  0
LINE
  8
0
 10
49.044
 11
48.907
 20
48.844
 21
48.973
  0
LINE
  8
0
 10
48.907
 11
48.786
 20
48.973
 21
49.118
  0
LINE
  8
0
 10
48.786
 11
48.686
 20
49.118
 21
49.277
  0
LINE
  8
0
 10
48.686
 11
48.605
 20
49.277
 21
49.448
  0
LINE
  8
0
 10
48.605
 11
48.547
 20
49.448
 21
49.627
  0
LINE
  8
0
 10
48.547
 11
48.512
 20
49.627
 21
49.812
  0
LINE
  8
0
 10
48.512
 11
48.5
 20
49.812
 21
50
  0
LINE
  8
0
 10
48.503
 11
48.503
 20
-50.094
 21
-49.906
  0
LINE
  8
0
 10
48.503
 11
48.527
 20
-49.906
 21
-49.719
  0
LINE
  8
0
 10
48.527
 11
48.573
 20
-49.719
 21
-49.536
  0
LINE
  8
0
 10
48.573
 11
48.643
 20
-49.536
 21
-49.361
  0
LINE
  8
0
 10
48.643
 11
48.734
 20
-49.361
 21
-49.196
  0
LINE
  8
0
 10
48.734
 11
48.844
 20
-49.196
 21
-49.044
  0
LINE
  8
0
 10
48.844
 11
48.973
 20
-49.044
 21
-48.907
  0
LINE
  8
0
 10
48.973
 11
49.118
 20
-48.907
 21
-48.786
  0
LINE
  8
0
 10
49.118
 11
49.277
 20
-48.786
 21
-48.686
  0
LINE
  8
0
 10
49.277
 11
49.448
 20
-48.686
 21
-48.605
  0
LINE
  8
0
 10
49.448
 11
49.627
 20
-48.605
 21
-48.547
  0
LINE
  8
0
 10
49.627
 11
49.812
 20
-48.547
 21
-48.512
  0
LINE
  8
0
 10
49.812
 11
50
 20
-48.512
 21
-48.5
  0
LINE
  8
0
 10
50
 11
50.188
 20
-48.5
 21
-48.512
  0
LINE
  8
0
 10
50.188
 11
50.373
 20
-48.512
 21
-48.547
  0
LINE
  8
0
 10
50.373
 11
50.552
 20
-48.547
 21
-48.605
  0
LINE
  8
0
 10
50.552
 11
50.723
 20
-48.605
 21
-48.686
  0
LINE
  8
0
 10
50.723
 11
50.882
 20
-48.686
 21
-48.786
  0
LINE
  8
0
 10
50.882
 11
51.027
 20
-48.786
 21
-48.907
  0
LINE
  8
0
 10
51.027
 11
51.156
 20
-48.907
 21
-49.044
  0
LINE
  8
0
 10
51.156
 11
51.266
 20
-49.044
 21
-49.196
  0
LINE
  8
0
 10
51.266
 11
51.357
 20
-49.196
 21
-49.361
  0
LINE
  8
0
 10
51.357
 11
51.427
 20
-49.361
 21
-49.536
  0
LINE
  8
0
 10
51.427
 11
51.473
 20
-49.536
 21
-49.719
  0
LINE
  8
0
 10
51.473
 11
51.497
 20
-49.719
 21
-49.906
  0
LINE
  8
0
 10
51.497
 11
51.497
 20
-49.906
 21
-50.094
  0
LINE
  8
0
 10
51.497
 11
51.473
 20
-50.094
 21
-50.281
  0
LINE
  8
0
 10
51.473
 11
51.427
 20
-50.281
 21
-50.464
  0
LINE
  8
0
 10
51.427
 11
51.357
 20
-50.464
 21
-50.639
  0
LINE
  8
0
 10
51.357
 11
51.266
 20
-50.639
 21
-50.804
  0
LINE
  8
0
 10
51.266
 11
51.156
 20
-50.804
 21
-50.956
  0
LINE
  8
0
 10
51.156
 11
51.027
 20
-50.956
 21
-51.093
  0
LINE
  8
0
 10
51.027
 11
50.882
 20
-51.093
 21
-51.214
  0
LINE
  8
0
 10
50.882
 11
50.723
 20
-51.214
 21
-51.314
  0
LINE
  8
0
 10
50.723
 11
50.552
 20
-51.314
 21
-51.395
  0
LINE
  8
0
 10
50.552
 11
50.373
 20
-51.395
 21
-51.453
  0
LINE
  8
0
 10
50.373
 11
50.188
 20
-51.453
 21
-51.488
  0
LINE
  8
0
 10
50.188
 11
50
 20
-51.488
 21
-51.5
  0
LINE
  8
0
 10
50
 11
49.812
 20
-51.5
 21
-51.488
  0
LINE
  8
0
 10
49.812
 11
49.627
 20
-51.488
 21
-51.453
  0
LINE
  8
0
 10
49.627
 11
49.448
 20
-51.453
 21
-51.395
  0
LINE
  8
0
 10
49.448
 11
49.277
 20
-51.395
 21
-51.314
  0
LINE
  8
0
 10
49.277
 11
49.118
 20
-51.314
 21
-51.214
  0
LINE
  8
0
 10
49.118
 11
48.973
 20
-51.214
 21
-51.093
  0
LINE
  8
0
 10
48.973
 11
48.844
 20
-51.093
 21
-50.956
  0
LINE
  8
0
 10
48.844
 11
48.734
 20
-50.956
 21
-50.804
  0
LINE
  8
0
 10
48.734
 11
48.643
 20
-50.804
 21
-50.639
  0
LINE
  8
0
 10
48.643
 11
48.573
 20
-50.639
 21
-50.464
  0
LINE
  8
0
 10
48.573
 11
48.527
 20
-50.464
 21
-50.281
  0
LINE
  8
0
 10
48.527
 11
48.503
 20
-50.281
 21
-50.094
  0
LINE
  8
0
 10
53.387
 11
56.922
 20
-32.173
 21
-28.638
  0
LINE
  8
0
 10
56.922
 11
60.458
 20
-28.638
 21
-32.173
  0
LINE
  8
0
 10
60.458
 11
56.922
 20
-32.173
 21
-35.709
  0
LINE
  8
0
 10
56.922
 11
53.387
 20
-35.709
 21
-32.173
  0
LINE
  8
0
 10
53.387
 11
56.922
 20
32.173
 21
35.709
  0
LINE
  8
0
 10
56.922
 11
60.458
 20
35.709
 21
32.173
  0
LINE
  8
0
 10
60.458
 11
56.922
 20
32.173
 21
28.638
  0
LINE
  8
0
 10
56.922
 11
53.387
 20
28.638
 21
32.173
  0
LINE
  8
0
 10
104.05
 11
104.066
 20
-60
 21
-59.749
  0
LINE
  8
0
 10
104.066
 11
104.113
 20
-59.749
 21
-59.503
  0
LINE
  8
0
 10
104.113
 11
104.19
 20
-59.503
 21
-59.264
  0
LINE
  8
0
 10
104.19
 11
104.297
 20
-59.264
 21
-59.036
  0
LINE
  8
0
 10
104.297
 11
104.432
 20
-59.036
 21
-58.824
  0
LINE
  8
0
 10
104.432
 11
104.592
 20
-58.824
 21
-58.631
  0
LINE
  8
0
 10
104.592
 11
104.775
 20
-58.631
 21
-58.459
  0
LINE
  8
0
 10
104.775
 11
104.978
 20
-58.459
 21
-58.311
  0
LINE
  8
0
 10
104.978
 11
105.198
 20
-58.311
 21
-58.19
  0
LINE
  8
0
 10
105.198
 11
105.432
 20
-58.19
 21
-58.098
  0
LINE
  8
0
 10
105.432
 11
105.675
 20
-58.098
 21
-58.035
  0
LINE
  8
0
 10
105.675
 11
105.924
 20
-58.035
 21
-58.004
  0
LINE
  8
0
 10
105.924
 11
106.176
 20
-58.004
 21
-58.004
  0
LINE
  8
0
 10
106.176
 11
106.425
 20
-58.004
 21
-58.035
  0
LINE
  8
0
 10
106.425
 11
106.668
 20
-58.035
 21
-58.098
  0
LINE
  8
0
 10
106.668
 11
106.902
 20
-58.098
 21
-58.19
  0
LINE
  8
0
 10
106.902
 11
107.122
 20
-58.19
 21
-58.311
  0
LINE
  8
0
 10
107.122
 11
107.325
 20
-58.311
 21
-58.459
  0
LINE
  8
0
 10
107.325
 11
107.508
 20
-58.459
 21
-58.631
  0
LINE
  8
0
 10
107.508
 11
107.668
 20
-58.631
 21
-58.824
  0
LINE
  8
0
 10
107.668
 11
107.803
 20
-58.824
 21
-59.036
  0
LINE
  8
0
 10
107.803
 11
107.91
 20
-59.036
 21
-59.264
  0
LINE
  8
0
 10
107.91
 11
107.987
 20
-59.264
 21
-59.503
  0
LINE
  8
0
 10
107.987
 11
108.034
 20
-59.503
 21
-59.749
  0
LINE
  8
0
 10
108.034
 11
108.05
 20
-59.749
 21
-60
  0
LINE
  8
0
 10
108.05
 11
108.034
 20
-60
 21
-60.251
  0
LINE
  8
0
 10
108.034
 11
107.987
 20
-60.251
 21
-60.497
  0
LINE
  8
0
 10
107.987
 11
107.91
 20
-60.497
 21
-60.736
  0
LINE
  8
0
 10
107.91
 11
107.803
 20
-60.736
 21
-60.964
  0
LINE
  8
0
 10
107.803
 11
107.668
 20
-60.964
 21
-61.176
  0
LINE
  8
0
 10
107.668
 11
107.508
 20
-61.176
 21
-61.369
  0
LINE
  8
0
 10
107.508
 11
107.325
 20
-61.369
 21
-61.541
  0
LINE
  8
0
 10
107.325
 11
107.122
 20
-61.541
 21
-61.689
  0
LINE
  8
0
 10
107.122
 11
106.902
 20
-61.689
 21
-61.81
  0
LINE
  8
0
 10
106.902
 11
106.668
 20
-61.81
 21
-61.902
  0
LINE
  8
0
 10
106.668
 11
106.425
 20
-61.902
 21
-61.965
  0
LINE
  8
0
 10
106.425
 11
106.176
 20
-61.965
 21
-61.996
  0
LINE
  8
0
 10
106.176
 11
105.924
 20
-61.996
 21
-61.996
  0
LINE
  8
0
 10
105.924
 11
105.675
 20
-61.996
 21
-61.965
  0
LINE
  8
0
 10
105.675
 11
105.432
 20
-61.965
 21
-61.902
  0
LINE
  8
0
 10
105.432
 11
105.198
 20
-61.902
 21
-61.81
  0
LINE
  8
0
 10
105.198
 11
104.978
 20
-61.81
 21
-61.689
  0
LINE
  8
0
 10
104.978
 11
104.775
 20
-61.689
 21
-61.541
  0
LINE
  8
0
 10
104.775
 11
104.592
 20
-61.541
 21
-61.369
  0
LINE
  8
0
 10
104.592
 11
104.432
 20
-61.369
 21
-61.176
  0
LINE
  8
0
 10
104.432
 11
104.297
 20
-61.176
 21
-60.964
  0
LINE
  8
0
 10
104.297
 11
104.19
 20
-60.964
 21
-60.736
  0
LINE
  8
0
 10
104.19
 11
104.113
 20
-60.736
 21
-60.497
  0
LINE
  8
0
 10
104.113
 11
104.066
 20
-60.497
 21
-60.251
  0
LINE
  8
0
 10
104.066
 11
104.05
 20
-60.251
 21
-60
  0
LINE
  8
0
 10
104.05
 11
104.066
 20
60
 21
60.251
  0
LINE
  8
0
 10
104.066
 11
104.113
 20
60.251
 21
60.497
  0
LINE
  8
0
 10
104.113
 11
104.19
 20
60.497
 21
60.736
  0
LINE
  8
0
 10
104.19
 11
104.297
 20
60.736
 21
60.964
  0
LINE
  8
0
 10
104.297
 11
104.432
 20
60.964
 21
61.176
  0
LINE
  8
0
 10
104.432
 11
104.592
 20
61.176
 21
61.369
  0
LINE
  8
0
 10
104.592
 11
104.775
 20
61.369
 21
61.541
  0
LINE
  8
0
 10
104.775
 11
104.978
 20
61.541
 21
61.689
  0
LINE
  8
0
 10
104.978
 11
105.198
 20
61.689
 21
61.81
  0
LINE
  8
0
 10
105.198
 11
105.432
 20
61.81
 21
61.902
  0
LINE
  8
0
 10
105.432
 11
105.675
 20
61.902
 21
61.965
  0
LINE
  8
0
 10
105.675
 11
105.924
 20
61.965
 21
61.996
  0
LINE
  8
0
 10
105.924
 11
106.176
 20
61.996
 21
61.996
  0
LINE
  8
0
 10
106.176
 11
106.425
 20
61.996
 21
61.965
  0
LINE
  8
0
 10
106.425
 11
106.668
 20
61.965
 21
61.902
  0
LINE
  8
0
 10
106.668
 11
106.902
 20
61.902
 21
61.81
  0
LINE
  8
0
 10
106.902
 11
107.122
 20
61.81
 21
61.689
  0
LINE
  8
0
 10
107.122
 11
107.325
 20
61.689
 21
61.541
  0
LINE
  8
0
 10
107.325
 11
107.508
 20
61.541
 21
61.369
  0
LINE
  8
0
 10
107.508
 11
107.668
 20
61.369
 21
61.176
  0
LINE
  8
0
 10
107.668
 11
107.803
 20
61.176
 21
60.964
  0
LINE
  8
0
 10
107.803
 11
107.91
 20
60.964
 21
60.736
  0
LINE
  8
0
 10
107.91
 11
107.987
 20
60.736
 21
60.497
  0
LINE
  8
0
 10
107.987
 11
108.034
 20
60.497
 21
60.251
  0
LINE
  8
0
 10
108.034
 11
108.05
 20
60.251
 21
60
  0
LINE
  8
0
 10
108.05
 11
108.034
 20
60
 21
59.749
  0
LINE
  8
0
 10
108.034
 11
107.987
 20
59.749
 21
59.503
  0
LINE
  8
0
 10
107.987
 11
107.91
 20
59.503
 21
59.264
  0
LINE
  8
0
 10
107.91
 11
107.803
 20
59.264
 21
59.036
  0
LINE
  8
0
 10
107.803
 11
107.668
 20
59.036
 21
58.824
  0
LINE
  8
0
 10
107.668
 11
107.508
 20
58.824
 21
58.631
  0
LINE
  8
0
 10
107.508
 11
107.325
 20
58.631
 21
58.459
  0
LINE
  8
0
 10
107.325
 11
107.122
 20
58.459
 21
58.311
  0
LINE
  8
0
 10
107.122
 11
106.902
 20
58.311
 21
58.19
  0
LINE
  8
0
 10
106.902
 11
106.668
 20
58.19
 21
58.098
  0
LINE
  8
0
 10
106.668
 11
106.425
 20
58.098
 21
58.035
  0
LINE
  8
0
 10
106.425
 11
106.176
 20
58.035
 21
58.004
  0
LINE
  8
0
 10
106.176
 11
105.924
 20
58.004
 21
58.004
  0
LINE
  8
0
 10
105.924
 11
105.675
 20
58.004
 21
58.035
  0
LINE
  8
0
 10
105.675
 11
105.432
 20
58.035
 21
58.098
  0
LINE
  8
0
 10
105.432
 11
105.198
 20
58.098
 21
58.19
  0
LINE
  8
0
 10
105.198
 11
104.978
 20
58.19
 21
58.311
  0
LINE
  8
0
 10
104.978
 11
104.775
 20
58.311
 21
58.459
  0
LINE
  8
0
 10
104.775
 11
104.592
 20
58.459
 21
58.631
  0
LINE
  8
0
 10
104.592
 11
104.432
 20
58.631
 21
58.824
  0
LINE
  8
0
 10
104.432
 11
104.297
 20
58.824
 21
59.036
  0
LINE
  8
0
 10
104.297
 11
104.19
 20
59.036
 21
59.264
  0
LINE
  8
0
 10
104.19
 11
104.113
 20
59.264
 21
59.503
  0
LINE
  8
0
 10
104.113
 11
104.066
 20
59.503
 21
59.749
  0
LINE
  8
0
 10
104.066
 11
104.05
 20
59.749
 21
60
  0
ENDSEC
  0
SECTION
  2
OBJECTS
  0
DICTIONARY
  0
ENDSEC
  0
EOF
