  0
SECTION
  2
BLOCKS
  0
ENDSEC
  0
SECTION
  2
ENTITIES
  0
LINE
  8
0
 10
0
 11
0
 20
-5
 21
40
  0
LINE
  8
0
 10
0
 11
0.158
 20
40
 21
42.507
  0
LINE
  8
0
 10
0.158
 11
0.628
 20
42.507
 21
44.974
  0
LINE
  8
0
 10
0.628
 11
1.404
 20
44.974
 21
47.362
  0
LINE
  8
0
 10
1.404
 11
2.474
 20
47.362
 21
49.635
  0
LINE
  8
0
 10
2.474
 11
3.82
 20
49.635
 21
51.756
  0
LINE
  8
0
 10
3.82
 11
5.421
 20
51.756
 21
53.691
  0
LINE
  8
0
 10
5.421
 11
7.252
 20
53.691
 21
55.41
  0
LINE
  8
0
 10
7.252
 11
9.283
 20
55.41
 21
56.887
  0
LINE
  8
0
 10
9.283
 11
11.484
 20
56.887
 21
58.097
  0
LINE
  8
0
 10
11.484
 11
13.82
 20
58.097
 21
59.021
  0
LINE
  8
0
 10
13.82
 11
16.252
 20
59.021
 21
59.646
  0
LINE
  8
0
 10
16.252
 11
18.744
 20
59.646
 21
59.961
  0
LINE
  8
0
 10
18.744
 11
21.256
 20
59.961
 21
59.961
  0
LINE
  8
0
 10
21.256
 11
23.748
 20
59.961
 21
59.646
  0
LINE
  8
0
 10
23.748
 11
26.18
 20
59.646
 21
59.021
  0
LINE
  8
0
 10
26.18
 11
28.516
 20
59.021
 21
58.097
  0
LINE
  8
0
 10
28.516
 11
30.717
 20
58.097
 21
56.887
  0
LINE
  8
0
 10
30.717
 11
32.748
 20
56.887
 21
55.41
  0
LINE
  8
0
 10
32.748
 11
34.579
 20
55.41
 21
53.691
  0
LINE
  8
0
 10
34.579
 11
36.18
 20
53.691
 21
51.756
  0
LINE
  8
0
 10
36.18
 11
37.526
 20
51.756
 21
49.635
  0
LINE
  8
0
 10
37.526
 11
38.596
 20
49.635
 21
47.362
  0
LINE
  8
0
 10
38.596
 11
39.372
 20
47.362
 21
44.974
  0
LINE
  8
0
 10
39.372
 11
39.842
 20
44.974
 21
42.507
  0
LINE
  8
0
 10
39.842
 11
40
 20
42.507
 21
40
  0
LINE
  8
0
 10
40
 11
40
 20
40
 21
-5
  0
LINE
  8
0
 10
40
 11
35
 20
-5
 21
-5
  0
LINE
  8
0
 10
35
 11
35
 20
-5
 21
0
  0
LINE
  8
0
 10
35
 11
21.4
 20
0
 21
0
  0
LINE
  8
0
 10
21.4
 11
21.4
 20
0
 21
2.675
  0
LINE
  8
0
 10
21.4
 11
22.65
 20
2.675
 21
2.675
  0
LINE
  8
0
 10
22.65
 11
22.65
 20
2.675
 21
4.325
  0
LINE
  8
0
 10
22.65
 11
21.4
 20
4.325
 21
4.325
  0
LINE
  8
0
 10
21.4
 11
21.4
 20
4.325
 21
6.5
  0
LINE
  8
0
 10
21.4
 11
18.6
 20
6.5
 21
6.5
  0
LINE
  8
0
 10
18.6
 11
18.6
 20
6.5
 21
4.325
  0
LINE
  8
0
 10
18.6
 11
17.35
 20
4.325
 21
4.325
  0
LINE
  8
0
 10
17.35
 11
17.35
 20
4.325
 21
2.675
  0
LINE
  8
0
 10
17.35
 11
18.6
 20
2.675
 21
2.675
  0
LINE
  8
0
 10
18.6
 11
18.6
 20
2.675
 21
0
  0
LINE
  8
0
 10
18.6
 11
5
 20
0
 21
0
  0
LINE
  8
0
 10
5
 11
5
 20
0
 21
-5
  0
LINE
  8
0
 10
5
 11
0
 20
-5
 21
-5
  0
ENDSEC
  0
SECTION
  2
OBJECTS
  0
DICTIONARY
  0
ENDSEC
  0
EOF
