  0
SECTION
  2
BLOCKS
  0
ENDSEC
  0
SECTION
  2
ENTITIES
  0
LINE
  8
0
 10
-217.5
 11
-217.5
 20
-102.5
 21
102.5
  0
LINE
  8
0
 10
-217.5
 11
217.5
 20
102.5
 21
102.5
  0
LINE
  8
0
 10
217.5
 11
217.5
 20
102.5
 21
-102.5
  0
LINE
  8
0
 10
217.5
 11
-217.5
 20
-102.5
 21
-102.5
  0
LINE
  8
0
 10
-212.5
 11
-212.5
 20
-15
 21
-10
  0
LINE
  8
0
 10
-212.5
 11
-207.5
 20
-10
 21
-10
  0
LINE
  8
0
 10
-207.5
 11
-207.5
 20
-10
 21
-15
  0
LINE
  8
0
 10
-207.5
 11
-212.5
 20
-15
 21
-15
  0
LINE
  8
0
 10
-212.5
 11
-212.5
 20
10
 21
15
  0
LINE
  8
0
 10
-212.5
 11
-207.5
 20
15
 21
15
  0
LINE
  8
0
 10
-207.5
 11
-207.5
 20
15
 21
10
  0
LINE
  8
0
 10
-207.5
 11
-212.5
 20
10
 21
10
  0
LINE
  8
0
 10
-204.2
 11
-204.167
 20
0
 21
0.526
  0
LINE
  8
0
 10
-204.167
 11
-204.068
 20
0.526
 21
1.044
  0
LINE
  8
0
 10
-204.068
 11
-203.905
 20
1.044
 21
1.546
  0
LINE
  8
0
 10
-203.905
 11
-203.68
 20
1.546
 21
2.023
  0
LINE
  8
0
 10
-203.68
 11
-203.398
 20
2.023
 21
2.469
  0
LINE
  8
0
 10
-203.398
 11
-203.062
 20
2.469
 21
2.875
  0
LINE
  8
0
 10
-203.062
 11
-202.677
 20
2.875
 21
3.236
  0
LINE
  8
0
 10
-202.677
 11
-202.25
 20
3.236
 21
3.546
  0
LINE
  8
0
 10
-202.25
 11
-201.788
 20
3.546
 21
3.8
  0
LINE
  8
0
 10
-201.788
 11
-201.298
 20
3.8
 21
3.994
  0
LINE
  8
0
 10
-201.298
 11
-200.787
 20
3.994
 21
4.126
  0
LINE
  8
0
 10
-200.787
 11
-200.264
 20
4.126
 21
4.192
  0
LINE
  8
0
 10
-200.264
 11
-199.736
 20
4.192
 21
4.192
  0
LINE
  8
0
 10
-199.736
 11
-199.213
 20
4.192
 21
4.126
  0
LINE
  8
0
 10
-199.213
 11
-198.702
 20
4.126
 21
3.994
  0
LINE
  8
0
 10
-198.702
 11
-198.212
 20
3.994
 21
3.8
  0
LINE
  8
0
 10
-198.212
 11
-197.75
 20
3.8
 21
3.546
  0
LINE
  8
0
 10
-197.75
 11
-197.323
 20
3.546
 21
3.236
  0
LINE
  8
0
 10
-197.323
 11
-196.938
 20
3.236
 21
2.875
  0
LINE
  8
0
 10
-196.938
 11
-196.602
 20
2.875
 21
2.469
  0
LINE
  8
0
 10
-196.602
 11
-196.32
 20
2.469
 21
2.023
  0
LINE
  8
0
 10
-196.32
 11
-196.095
 20
2.023
 21
1.546
  0
LINE
  8
0
 10
-196.095
 11
-195.932
 20
1.546
 21
1.044
  0
LINE
  8
0
 10
-195.932
 11
-195.833
 20
1.044
 21
0.526
  0
LINE
  8
0
 10
-195.833
 11
-195.8
 20
0.526
 21
0
  0
LINE
  8
0
 10
-195.8
 11
-195.833
 20
0
 21
-0.526
  0
LINE
  8
0
 10
-195.833
 11
-195.932
 20
-0.526
 21
-1.044
  0
LINE
  8
0
 10
-195.932
 11
-196.095
 20
-1.044
 21
-1.546
  0
LINE
  8
0
 10
-196.095
 11
-196.32
 20
-1.546
 21
-2.023
  0
LINE
  8
0
 10
-196.32
 11
-196.602
 20
-2.023
 21
-2.469
  0
LINE
  8
0
 10
-196.602
 11
-196.938
 20
-2.469
 21
-2.875
  0
LINE
  8
0
 10
-196.938
 11
-197.323
 20
-2.875
 21
-3.236
  0
LINE
  8
0
 10
-197.323
 11
-197.75
 20
-3.236
 21
-3.546
  0
LINE
  8
0
 10
-197.75
 11
-198.212
 20
-3.546
 21
-3.8
  0
LINE
  8
0
 10
-198.212
 11
-198.702
 20
-3.8
 21
-3.994
  0
LINE
  8
0
 10
-198.702
 11
-199.213
 20
-3.994
 21
-4.126
  0
LINE
  8
0
 10
-199.213
 11
-199.736
 20
-4.126
 21
-4.192
  0
LINE
  8
0
 10
-199.736
 11
-200.264
 20
-4.192
 21
-4.192
  0
LINE
  8
0
 10
-200.264
 11
-200.787
 20
-4.192
 21
-4.126
  0
LINE
  8
0
 10
-200.787
 11
-201.298
 20
-4.126
 21
-3.994
  0
LINE
  8
0
 10
-201.298
 11
-201.788
 20
-3.994
 21
-3.8
  0
LINE
  8
0
 10
-201.788
 11
-202.25
 20
-3.8
 21
-3.546
  0
LINE
  8
0
 10
-202.25
 11
-202.677
 20
-3.546
 21
-3.236
  0
LINE
  8
0
 10
-202.677
 11
-203.062
 20
-3.236
 21
-2.875
  0
LINE
  8
0
 10
-203.062
 11
-203.398
 20
-2.875
 21
-2.469
  0
LINE
  8
0
 10
-203.398
 11
-203.68
 20
-2.469
 21
-2.023
  0
LINE
  8
0
 10
-203.68
 11
-203.905
 20
-2.023
 21
-1.546
  0
LINE
  8
0
 10
-203.905
 11
-204.068
 20
-1.546
 21
-1.044
  0
LINE
  8
0
 10
-204.068
 11
-204.167
 20
-1.044
 21
-0.526
  0
LINE
  8
0
 10
-204.167
 11
-204.2
 20
-0.526
 21
0
  0
LINE
  8
0
 10
-201.5
 11
-201.488
 20
-12.5
 21
-12.312
  0
LINE
  8
0
 10
-201.488
 11
-201.453
 20
-12.312
 21
-12.127
  0
LINE
  8
0
 10
-201.453
 11
-201.395
 20
-12.127
 21
-11.948
  0
LINE
  8
0
 10
-201.395
 11
-201.314
 20
-11.948
 21
-11.777
  0
LINE
  8
0
 10
-201.314
 11
-201.214
 20
-11.777
 21
-11.618
  0
LINE
  8
0
 10
-201.214
 11
-201.093
 20
-11.618
 21
-11.473
  0
LINE
  8
0
 10
-201.093
 11
-200.956
 20
-11.473
 21
-11.344
  0
LINE
  8
0
 10
-200.956
 11
-200.804
 20
-11.344
 21
-11.234
  0
LINE
  8
0
 10
-200.804
 11
-200.639
 20
-11.234
 21
-11.143
  0
LINE
  8
0
 10
-200.639
 11
-200.464
 20
-11.143
 21
-11.073
  0
LINE
  8
0
 10
-200.464
 11
-200.281
 20
-11.073
 21
-11.027
  0
LINE
  8
0
 10
-200.281
 11
-200.094
 20
-11.027
 21
-11.003
  0
LINE
  8
0
 10
-200.094
 11
-199.906
 20
-11.003
 21
-11.003
  0
LINE
  8
0
 10
-199.906
 11
-199.719
 20
-11.003
 21
-11.027
  0
LINE
  8
0
 10
-199.719
 11
-199.536
 20
-11.027
 21
-11.073
  0
LINE
  8
0
 10
-199.536
 11
-199.361
 20
-11.073
 21
-11.143
  0
LINE
  8
0
 10
-199.361
 11
-199.196
 20
-11.143
 21
-11.234
  0
LINE
  8
0
 10
-199.196
 11
-199.044
 20
-11.234
 21
-11.344
  0
LINE
  8
0
 10
-199.044
 11
-198.907
 20
-11.344
 21
-11.473
  0
LINE
  8
0
 10
-198.907
 11
-198.786
 20
-11.473
 21
-11.618
  0
LINE
  8
0
 10
-198.786
 11
-198.686
 20
-11.618
 21
-11.777
  0
LINE
  8
0
 10
-198.686
 11
-198.605
 20
-11.777
 21
-11.948
  0
LINE
  8
0
 10
-198.605
 11
-198.547
 20
-11.948
 21
-12.127
  0
LINE
  8
0
 10
-198.547
 11
-198.512
 20
-12.127
 21
-12.312
  0
LINE
  8
0
 10
-198.512
 11
-198.5
 20
-12.312
 21
-12.5
  0
LINE
  8
0
 10
-198.5
 11
-198.512
 20
-12.5
 21
-12.688
  0
LINE
  8
0
 10
-198.512
 11
-198.547
 20
-12.688
 21
-12.873
  0
LINE
  8
0
 10
-198.547
 11
-198.605
 20
-12.873
 21
-13.052
  0
LINE
  8
0
 10
-198.605
 11
-198.686
 20
-13.052
 21
-13.223
  0
LINE
  8
0
 10
-198.686
 11
-198.786
 20
-13.223
 21
-13.382
  0
LINE
  8
0
 10
-198.786
 11
-198.907
 20
-13.382
 21
-13.527
  0
LINE
  8
0
 10
-198.907
 11
-199.044
 20
-13.527
 21
-13.656
  0
LINE
  8
0
 10
-199.044
 11
-199.196
 20
-13.656
 21
-13.766
  0
LINE
  8
0
 10
-199.196
 11
-199.361
 20
-13.766
 21
-13.857
  0
LINE
  8
0
 10
-199.361
 11
-199.536
 20
-13.857
 21
-13.927
  0
LINE
  8
0
 10
-199.536
 11
-199.719
 20
-13.927
 21
-13.973
  0
LINE
  8
0
 10
-199.719
 11
-199.906
 20
-13.973
 21
-13.997
  0
LINE
  8
0
 10
-199.906
 11
-200.094
 20
-13.997
 21
-13.997
  0
LINE
  8
0
 10
-200.094
 11
-200.281
 20
-13.997
 21
-13.973
  0
LINE
  8
0
 10
-200.281
 11
-200.464
 20
-13.973
 21
-13.927
  0
LINE
  8
0
 10
-200.464
 11
-200.639
 20
-13.927
 21
-13.857
  0
LINE
  8
0
 10
-200.639
 11
-200.804
 20
-13.857
 21
-13.766
  0
LINE
  8
0
 10
-200.804
 11
-200.956
 20
-13.766
 21
-13.656
  0
LINE
  8
0
 10
-200.956
 11
-201.093
 20
-13.656
 21
-13.527
  0
LINE
  8
0
 10
-201.093
 11
-201.214
 20
-13.527
 21
-13.382
  0
LINE
  8
0
 10
-201.214
 11
-201.314
 20
-13.382
 21
-13.223
  0
LINE
  8
0
 10
-201.314
 11
-201.395
 20
-13.223
 21
-13.052
  0
LINE
  8
0
 10
-201.395
 11
-201.453
 20
-13.052
 21
-12.873
  0
LINE
  8
0
 10
-201.453
 11
-201.488
 20
-12.873
 21
-12.688
  0
LINE
  8
0
 10
-201.488
 11
-201.5
 20
-12.688
 21
-12.5
  0
LINE
  8
0
 10
-201.5
 11
-201.488
 20
12.5
 21
12.688
  0
LINE
  8
0
 10
-201.488
 11
-201.453
 20
12.688
 21
12.873
  0
LINE
  8
0
 10
-201.453
 11
-201.395
 20
12.873
 21
13.052
  0
LINE
  8
0
 10
-201.395
 11
-201.314
 20
13.052
 21
13.223
  0
LINE
  8
0
 10
-201.314
 11
-201.214
 20
13.223
 21
13.382
  0
LINE
  8
0
 10
-201.214
 11
-201.093
 20
13.382
 21
13.527
  0
LINE
  8
0
 10
-201.093
 11
-200.956
 20
13.527
 21
13.656
  0
LINE
  8
0
 10
-200.956
 11
-200.804
 20
13.656
 21
13.766
  0
LINE
  8
0
 10
-200.804
 11
-200.639
 20
13.766
 21
13.857
  0
LINE
  8
0
 10
-200.639
 11
-200.464
 20
13.857
 21
13.927
  0
LINE
  8
0
 10
-200.464
 11
-200.281
 20
13.927
 21
13.973
  0
LINE
  8
0
 10
-200.281
 11
-200.094
 20
13.973
 21
13.997
  0
LINE
  8
0
 10
-200.094
 11
-199.906
 20
13.997
 21
13.997
  0
LINE
  8
0
 10
-199.906
 11
-199.719
 20
13.997
 21
13.973
  0
LINE
  8
0
 10
-199.719
 11
-199.536
 20
13.973
 21
13.927
  0
LINE
  8
0
 10
-199.536
 11
-199.361
 20
13.927
 21
13.857
  0
LINE
  8
0
 10
-199.361
 11
-199.196
 20
13.857
 21
13.766
  0
LINE
  8
0
 10
-199.196
 11
-199.044
 20
13.766
 21
13.656
  0
LINE
  8
0
 10
-199.044
 11
-198.907
 20
13.656
 21
13.527
  0
LINE
  8
0
 10
-198.907
 11
-198.786
 20
13.527
 21
13.382
  0
LINE
  8
0
 10
-198.786
 11
-198.686
 20
13.382
 21
13.223
  0
LINE
  8
0
 10
-198.686
 11
-198.605
 20
13.223
 21
13.052
  0
LINE
  8
0
 10
-198.605
 11
-198.547
 20
13.052
 21
12.873
  0
LINE
  8
0
 10
-198.547
 11
-198.512
 20
12.873
 21
12.688
  0
LINE
  8
0
 10
-198.512
 11
-198.5
 20
12.688
 21
12.5
  0
LINE
  8
0
 10
-198.5
 11
-198.512
 20
12.5
 21
12.312
  0
LINE
  8
0
 10
-198.512
 11
-198.547
 20
12.312
 21
12.127
  0
LINE
  8
0
 10
-198.547
 11
-198.605
 20
12.127
 21
11.948
  0
LINE
  8
0
 10
-198.605
 11
-198.686
 20
11.948
 21
11.777
  0
LINE
  8
0
 10
-198.686
 11
-198.786
 20
11.777
 21
11.618
  0
LINE
  8
0
 10
-198.786
 11
-198.907
 20
11.618
 21
11.473
  0
LINE
  8
0
 10
-198.907
 11
-199.044
 20
11.473
 21
11.344
  0
LINE
  8
0
 10
-199.044
 11
-199.196
 20
11.344
 21
11.234
  0
LINE
  8
0
 10
-199.196
 11
-199.361
 20
11.234
 21
11.143
  0
LINE
  8
0
 10
-199.361
 11
-199.536
 20
11.143
 21
11.073
  0
LINE
  8
0
 10
-199.536
 11
-199.719
 20
11.073
 21
11.027
  0
LINE
  8
0
 10
-199.719
 11
-199.906
 20
11.027
 21
11.003
  0
LINE
  8
0
 10
-199.906
 11
-200.094
 20
11.003
 21
11.003
  0
LINE
  8
0
 10
-200.094
 11
-200.281
 20
11.003
 21
11.027
  0
LINE
  8
0
 10
-200.281
 11
-200.464
 20
11.027
 21
11.073
  0
LINE
  8
0
 10
-200.464
 11
-200.639
 20
11.073
 21
11.143
  0
LINE
  8
0
 10
-200.639
 11
-200.804
 20
11.143
 21
11.234
  0
LINE
  8
0
 10
-200.804
 11
-200.956
 20
11.234
 21
11.344
  0
LINE
  8
0
 10
-200.956
 11
-201.093
 20
11.344
 21
11.473
  0
LINE
  8
0
 10
-201.093
 11
-201.214
 20
11.473
 21
11.618
  0
LINE
  8
0
 10
-201.214
 11
-201.314
 20
11.618
 21
11.777
  0
LINE
  8
0
 10
-201.314
 11
-201.395
 20
11.777
 21
11.948
  0
LINE
  8
0
 10
-201.395
 11
-201.453
 20
11.948
 21
12.127
  0
LINE
  8
0
 10
-201.453
 11
-201.488
 20
12.127
 21
12.312
  0
LINE
  8
0
 10
-201.488
 11
-201.5
 20
12.312
 21
12.5
  0
LINE
  8
0
 10
-192.5
 11
-192.5
 20
-15
 21
-10
  0
LINE
  8
0
 10
-192.5
 11
-187.5
 20
-10
 21
-10
  0
LINE
  8
0
 10
-187.5
 11
-187.5
 20
-10
 21
-15
  0
LINE
  8
0
 10
-187.5
 11
-192.5
 20
-15
 21
-15
  0
LINE
  8
0
 10
-192.5
 11
-192.5
 20
10
 21
15
  0
LINE
  8
0
 10
-192.5
 11
-187.5
 20
15
 21
15
  0
LINE
  8
0
 10
-187.5
 11
-187.5
 20
15
 21
10
  0
LINE
  8
0
 10
-187.5
 11
-192.5
 20
10
 21
10
  0
LINE
  8
0
 10
-114.3
 11
-114.235
 20
-60
 21
-58.966
  0
LINE
  8
0
 10
-114.235
 11
-114.041
 20
-58.966
 21
-57.948
  0
LINE
  8
0
 10
-114.041
 11
-113.721
 20
-57.948
 21
-56.963
  0
LINE
  8
0
 10
-113.721
 11
-113.28
 20
-56.963
 21
-56.026
  0
LINE
  8
0
 10
-113.28
 11
-112.724
 20
-56.026
 21
-55.151
  0
LINE
  8
0
 10
-112.724
 11
-112.064
 20
-55.151
 21
-54.352
  0
LINE
  8
0
 10
-112.064
 11
-111.309
 20
-54.352
 21
-53.643
  0
LINE
  8
0
 10
-111.309
 11
-110.471
 20
-53.643
 21
-53.034
  0
LINE
  8
0
 10
-110.471
 11
-109.563
 20
-53.034
 21
-52.535
  0
LINE
  8
0
 10
-109.563
 11
-108.599
 20
-52.535
 21
-52.154
  0
LINE
  8
0
 10
-108.599
 11
-107.596
 20
-52.154
 21
-51.896
  0
LINE
  8
0
 10
-107.596
 11
-106.568
 20
-51.896
 21
-51.766
  0
LINE
  8
0
 10
-106.568
 11
-105.532
 20
-51.766
 21
-51.766
  0
LINE
  8
0
 10
-105.532
 11
-104.504
 20
-51.766
 21
-51.896
  0
LINE
  8
0
 10
-104.504
 11
-103.501
 20
-51.896
 21
-52.154
  0
LINE
  8
0
 10
-103.501
 11
-102.537
 20
-52.154
 21
-52.535
  0
LINE
  8
0
 10
-102.537
 11
-101.629
 20
-52.535
 21
-53.034
  0
LINE
  8
0
 10
-101.629
 11
-100.791
 20
-53.034
 21
-53.643
  0
LINE
  8
0
 10
-100.791
 11
-100.036
 20
-53.643
 21
-54.352
  0
LINE
  8
0
 10
-100.036
 11
-99.376
 20
-54.352
 21
-55.151
  0
LINE
  8
0
 10
-99.376
 11
-98.82
 20
-55.151
 21
-56.026
  0
LINE
  8
0
 10
-98.82
 11
-98.379
 20
-56.026
 21
-56.963
  0
LINE
  8
0
 10
-98.379
 11
-98.059
 20
-56.963
 21
-57.948
  0
LINE
  8
0
 10
-98.059
 11
-97.865
 20
-57.948
 21
-58.966
  0
LINE
  8
0
 10
-97.865
 11
-97.8
 20
-58.966
 21
-60
  0
LINE
  8
0
 10
-97.8
 11
-97.865
 20
-60
 21
-61.034
  0
LINE
  8
0
 10
-97.865
 11
-98.059
 20
-61.034
 21
-62.052
  0
LINE
  8
0
 10
-98.059
 11
-98.379
 20
-62.052
 21
-63.037
  0
LINE
  8
0
 10
-98.379
 11
-98.82
 20
-63.037
 21
-63.974
  0
LINE
  8
0
 10
-98.82
 11
-99.376
 20
-63.974
 21
-64.849
  0
LINE
  8
0
 10
-99.376
 11
-100.036
 20
-64.849
 21
-65.648
  0
LINE
  8
0
 10
-100.036
 11
-100.791
 20
-65.648
 21
-66.357
  0
LINE
  8
0
 10
-100.791
 11
-101.629
 20
-66.357
 21
-66.966
  0
LINE
  8
0
 10
-101.629
 11
-102.537
 20
-66.966
 21
-67.465
  0
LINE
  8
0
 10
-102.537
 11
-103.501
 20
-67.465
 21
-67.846
  0
LINE
  8
0
 10
-103.501
 11
-104.504
 20
-67.846
 21
-68.104
  0
LINE
  8
0
 10
-104.504
 11
-105.532
 20
-68.104
 21
-68.234
  0
LINE
  8
0
 10
-105.532
 11
-106.568
 20
-68.234
 21
-68.234
  0
LINE
  8
0
 10
-106.568
 11
-107.596
 20
-68.234
 21
-68.104
  0
LINE
  8
0
 10
-107.596
 11
-108.599
 20
-68.104
 21
-67.846
  0
LINE
  8
0
 10
-108.599
 11
-109.563
 20
-67.846
 21
-67.465
  0
LINE
  8
0
 10
-109.563
 11
-110.471
 20
-67.465
 21
-66.966
  0
LINE
  8
0
 10
-110.471
 11
-111.309
 20
-66.966
 21
-66.357
  0
LINE
  8
0
 10
-111.309
 11
-112.064
 20
-66.357
 21
-65.648
  0
LINE
  8
0
 10
-112.064
 11
-112.724
 20
-65.648
 21
-64.849
  0
LINE
  8
0
 10
-112.724
 11
-113.28
 20
-64.849
 21
-63.974
  0
LINE
  8
0
 10
-113.28
 11
-113.721
 20
-63.974
 21
-63.037
  0
LINE
  8
0
 10
-113.721
 11
-114.041
 20
-63.037
 21
-62.052
  0
LINE
  8
0
 10
-114.041
 11
-114.235
 20
-62.052
 21
-61.034
  0
LINE
  8
0
 10
-114.235
 11
-114.3
 20
-61.034
 21
-60
  0
LINE
  8
0
 10
-114.3
 11
-114.235
 20
60
 21
61.034
  0
LINE
  8
0
 10
-114.235
 11
-114.041
 20
61.034
 21
62.052
  0
LINE
  8
0
 10
-114.041
 11
-113.721
 20
62.052
 21
63.037
  0
LINE
  8
0
 10
-113.721
 11
-113.28
 20
63.037
 21
63.974
  0
LINE
  8
0
 10
-113.28
 11
-112.724
 20
63.974
 21
64.849
  0
LINE
  8
0
 10
-112.724
 11
-112.064
 20
64.849
 21
65.648
  0
LINE
  8
0
 10
-112.064
 11
-111.309
 20
65.648
 21
66.357
  0
LINE
  8
0
 10
-111.309
 11
-110.471
 20
66.357
 21
66.966
  0
LINE
  8
0
 10
-110.471
 11
-109.563
 20
66.966
 21
67.465
  0
LINE
  8
0
 10
-109.563
 11
-108.599
 20
67.465
 21
67.846
  0
LINE
  8
0
 10
-108.599
 11
-107.596
 20
67.846
 21
68.104
  0
LINE
  8
0
 10
-107.596
 11
-106.568
 20
68.104
 21
68.234
  0
LINE
  8
0
 10
-106.568
 11
-105.532
 20
68.234
 21
68.234
  0
LINE
  8
0
 10
-105.532
 11
-104.504
 20
68.234
 21
68.104
  0
LINE
  8
0
 10
-104.504
 11
-103.501
 20
68.104
 21
67.846
  0
LINE
  8
0
 10
-103.501
 11
-102.537
 20
67.846
 21
67.465
  0
LINE
  8
0
 10
-102.537
 11
-101.629
 20
67.465
 21
66.966
  0
LINE
  8
0
 10
-101.629
 11
-100.791
 20
66.966
 21
66.357
  0
LINE
  8
0
 10
-100.791
 11
-100.036
 20
66.357
 21
65.648
  0
LINE
  8
0
 10
-100.036
 11
-99.376
 20
65.648
 21
64.849
  0
LINE
  8
0
 10
-99.376
 11
-98.82
 20
64.849
 21
63.974
  0
LINE
  8
0
 10
-98.82
 11
-98.379
 20
63.974
 21
63.037
  0
LINE
  8
0
 10
-98.379
 11
-98.059
 20
63.037
 21
62.052
  0
LINE
  8
0
 10
-98.059
 11
-97.865
 20
62.052
 21
61.034
  0
LINE
  8
0
 10
-97.865
 11
-97.8
 20
61.034
 21
60
  0
LINE
  8
0
 10
-97.8
 11
-97.865
 20
60
 21
58.966
  0
LINE
  8
0
 10
-97.865
 11
-98.059
 20
58.966
 21
57.948
  0
LINE
  8
0
 10
-98.059
 11
-98.379
 20
57.948
 21
56.963
  0
LINE
  8
0
 10
-98.379
 11
-98.82
 20
56.963
 21
56.026
  0
LINE
  8
0
 10
-98.82
 11
-99.376
 20
56.026
 21
55.151
  0
LINE
  8
0
 10
-99.376
 11
-100.036
 20
55.151
 21
54.352
  0
LINE
  8
0
 10
-100.036
 11
-100.791
 20
54.352
 21
53.643
  0
LINE
  8
0
 10
-100.791
 11
-101.629
 20
53.643
 21
53.034
  0
LINE
  8
0
 10
-101.629
 11
-102.537
 20
53.034
 21
52.535
  0
LINE
  8
0
 10
-102.537
 11
-103.501
 20
52.535
 21
52.154
  0
LINE
  8
0
 10
-103.501
 11
-104.504
 20
52.154
 21
51.896
  0
LINE
  8
0
 10
-104.504
 11
-105.532
 20
51.896
 21
51.766
  0
LINE
  8
0
 10
-105.532
 11
-106.568
 20
51.766
 21
51.766
  0
LINE
  8
0
 10
-106.568
 11
-107.596
 20
51.766
 21
51.896
  0
LINE
  8
0
 10
-107.596
 11
-108.599
 20
51.896
 21
52.154
  0
LINE
  8
0
 10
-108.599
 11
-109.563
 20
52.154
 21
52.535
  0
LINE
  8
0
 10
-109.563
 11
-110.471
 20
52.535
 21
53.034
  0
LINE
  8
0
 10
-110.471
 11
-111.309
 20
53.034
 21
53.643
  0
LINE
  8
0
 10
-111.309
 11
-112.064
 20
53.643
 21
54.352
  0
LINE
  8
0
 10
-112.064
 11
-112.724
 20
54.352
 21
55.151
  0
LINE
  8
0
 10
-112.724
 11
-113.28
 20
55.151
 21
56.026
  0
LINE
  8
0
 10
-113.28
 11
-113.721
 20
56.026
 21
56.963
  0
LINE
  8
0
 10
-113.721
 11
-114.041
 20
56.963
 21
57.948
  0
LINE
  8
0
 10
-114.041
 11
-114.235
 20
57.948
 21
58.966
  0
LINE
  8
0
 10
-114.235
 11
-114.3
 20
58.966
 21
60
  0
LINE
  8
0
 10
-51.5
 11
-51.488
 20
-50
 21
-49.812
  0
LINE
  8
0
 10
-51.488
 11
-51.453
 20
-49.812
 21
-49.627
  0
LINE
  8
0
 10
-51.453
 11
-51.395
 20
-49.627
 21
-49.448
  0
LINE
  8
0
 10
-51.395
 11
-51.314
 20
-49.448
 21
-49.277
  0
LINE
  8
0
 10
-51.314
 11
-51.214
 20
-49.277
 21
-49.118
  0
LINE
  8
0
 10
-51.214
 11
-51.093
 20
-49.118
 21
-48.973
  0
LINE
  8
0
 10
-51.093
 11
-50.956
 20
-48.973
 21
-48.844
  0
LINE
  8
0
 10
-50.956
 11
-50.804
 20
-48.844
 21
-48.734
  0
LINE
  8
0
 10
-50.804
 11
-50.639
 20
-48.734
 21
-48.643
  0
LINE
  8
0
 10
-50.639
 11
-50.464
 20
-48.643
 21
-48.573
  0
LINE
  8
0
 10
-50.464
 11
-50.281
 20
-48.573
 21
-48.527
  0
LINE
  8
0
 10
-50.281
 11
-50.094
 20
-48.527
 21
-48.503
  0
LINE
  8
0
 10
-50.094
 11
-49.906
 20
-48.503
 21
-48.503
  0
LINE
  8
0
 10
-49.906
 11
-49.719
 20
-48.503
 21
-48.527
  0
LINE
  8
0
 10
-49.719
 11
-49.536
 20
-48.527
 21
-48.573
  0
LINE
  8
0
 10
-49.536
 11
-49.361
 20
-48.573
 21
-48.643
  0
LINE
  8
0
 10
-49.361
 11
-49.196
 20
-48.643
 21
-48.734
  0
LINE
  8
0
 10
-49.196
 11
-49.044
 20
-48.734
 21
-48.844
  0
LINE
  8
0
 10
-49.044
 11
-48.907
 20
-48.844
 21
-48.973
  0
LINE
  8
0
 10
-48.907
 11
-48.786
 20
-48.973
 21
-49.118
  0
LINE
  8
0
 10
-48.786
 11
-48.686
 20
-49.118
 21
-49.277
  0
LINE
  8
0
 10
-48.686
 11
-48.605
 20
-49.277
 21
-49.448
  0
LINE
  8
0
 10
-48.605
 11
-48.547
 20
-49.448
 21
-49.627
  0
LINE
  8
0
 10
-48.547
 11
-48.512
 20
-49.627
 21
-49.812
  0
LINE
  8
0
 10
-48.512
 11
-48.5
 20
-49.812
 21
-50
  0
LINE
  8
0
 10
-48.5
 11
-48.512
 20
-50
 21
-50.188
  0
LINE
  8
0
 10
-48.512
 11
-48.547
 20
-50.188
 21
-50.373
  0
LINE
  8
0
 10
-48.547
 11
-48.605
 20
-50.373
 21
-50.552
  0
LINE
  8
0
 10
-48.605
 11
-48.686
 20
-50.552
 21
-50.723
  0
LINE
  8
0
 10
-48.686
 11
-48.786
 20
-50.723
 21
-50.882
  0
LINE
  8
0
 10
-48.786
 11
-48.907
 20
-50.882
 21
-51.027
  0
LINE
  8
0
 10
-48.907
 11
-49.044
 20
-51.027
 21
-51.156
  0
LINE
  8
0
 10
-49.044
 11
-49.196
 20
-51.156
 21
-51.266
  0
LINE
  8
0
 10
-49.196
 11
-49.361
 20
-51.266
 21
-51.357
  0
LINE
  8
0
 10
-49.361
 11
-49.536
 20
-51.357
 21
-51.427
  0
LINE
  8
0
 10
-49.536
 11
-49.719
 20
-51.427
 21
-51.473
  0
LINE
  8
0
 10
-49.719
 11
-49.906
 20
-51.473
 21
-51.497
  0
LINE
  8
0
 10
-49.906
 11
-50.094
 20
-51.497
 21
-51.497
  0
LINE
  8
0
 10
-50.094
 11
-50.281
 20
-51.497
 21
-51.473
  0
LINE
  8
0
 10
-50.281
 11
-50.464
 20
-51.473
 21
-51.427
  0
LINE
  8
0
 10
-50.464
 11
-50.639
 20
-51.427
 21
-51.357
  0
LINE
  8
0
 10
-50.639
 11
-50.804
 20
-51.357
 21
-51.266
  0
LINE
  8
0
 10
-50.804
 11
-50.956
 20
-51.266
 21
-51.156
  0
LINE
  8
0
 10
-50.956
 11
-51.093
 20
-51.156
 21
-51.027
  0
LINE
  8
0
 10
-51.093
 11
-51.214
 20
-51.027
 21
-50.882
  0
LINE
  8
0
 10
-51.214
 11
-51.314
 20
-50.882
 21
-50.723
  0
LINE
  8
0
 10
-51.314
 11
-51.395
 20
-50.723
 21
-50.552
  0
LINE
  8
0
 10
-51.395
 11
-51.453
 20
-50.552
 21
-50.373
  0
LINE
  8
0
 10
-51.453
 11
-51.488
 20
-50.373
 21
-50.188
  0
LINE
  8
0
 10
-51.488
 11
-51.5
 20
-50.188
 21
-50
  0
LINE
  8
0
 10
-51.497
 11
-51.497
 20
49.906
 21
50.094
  0
LINE
  8
0
 10
-51.497
 11
-51.473
 20
50.094
 21
50.281
  0
LINE
  8
0
 10
-51.473
 11
-51.427
 20
50.281
 21
50.464
  0
LINE
  8
0
 10
-51.427
 11
-51.357
 20
50.464
 21
50.639
  0
LINE
  8
0
 10
-51.357
 11
-51.266
 20
50.639
 21
50.804
  0
LINE
  8
0
 10
-51.266
 11
-51.156
 20
50.804
 21
50.956
  0
LINE
  8
0
 10
-51.156
 11
-51.027
 20
50.956
 21
51.093
  0
LINE
  8
0
 10
-51.027
 11
-50.882
 20
51.093
 21
51.214
  0
LINE
  8
0
 10
-50.882
 11
-50.723
 20
51.214
 21
51.314
  0
LINE
  8
0
 10
-50.723
 11
-50.552
 20
51.314
 21
51.395
  0
LINE
  8
0
 10
-50.552
 11
-50.373
 20
51.395
 21
51.453
  0
LINE
  8
0
 10
-50.373
 11
-50.188
 20
51.453
 21
51.488
  0
LINE
  8
0
 10
-50.188
 11
-50
 20
51.488
 21
51.5
  0
LINE
  8
0
 10
-50
 11
-49.812
 20
51.5
 21
51.488
  0
LINE
  8
0
 10
-49.812
 11
-49.627
 20
51.488
 21
51.453
  0
LINE
  8
0
 10
-49.627
 11
-49.448
 20
51.453
 21
51.395
  0
LINE
  8
0
 10
-49.448
 11
-49.277
 20
51.395
 21
51.314
  0
LINE
  8
0
 10
-49.277
 11
-49.118
 20
51.314
 21
51.214
  0
LINE
  8
0
 10
-49.118
 11
-48.973
 20
51.214
 21
51.093
  0
LINE
  8
0
 10
-48.973
 11
-48.844
 20
51.093
 21
50.956
  0
LINE
  8
0
 10
-48.844
 11
-48.734
 20
50.956
 21
50.804
  0
LINE
  8
0
 10
-48.734
 11
-48.643
 20
50.804
 21
50.639
  0
LINE
  8
0
 10
-48.643
 11
-48.573
 20
50.639
 21
50.464
  0
LINE
  8
0
 10
-48.573
 11
-48.527
 20
50.464
 21
50.281
  0
LINE
  8
0
 10
-48.527
 11
-48.503
 20
50.281
 21
50.094
  0
LINE
  8
0
 10
-48.503
 11
-48.503
 20
50.094
 21
49.906
  0
LINE
  8
0
 10
-48.503
 11
-48.527
 20
49.906
 21
49.719
  0
LINE
  8
0
 10
-48.527
 11
-48.573
 20
49.719
 21
49.536
  0
LINE
  8
0
 10
-48.573
 11
-48.643
 20
49.536
 21
49.361
  0
LINE
  8
0
 10
-48.643
 11
-48.734
 20
49.361
 21
49.196
  0
LINE
  8
0
 10
-48.734
 11
-48.844
 20
49.196
 21
49.044
  0
LINE
  8
0
 10
-48.844
 11
-48.973
 20
49.044
 21
48.907
  0
LINE
  8
0
 10
-48.973
 11
-49.118
 20
48.907
 21
48.786
  0
LINE
  8
0
 10
-49.118
 11
-49.277
 20
48.786
 21
48.686
  0
LINE
  8
0
 10
-49.277
 11
-49.448
 20
48.686
 21
48.605
  0
LINE
  8
0
 10
-49.448
 11
-49.627
 20
48.605
 21
48.547
  0
LINE
  8
0
 10
-49.627
 11
-49.812
 20
48.547
 21
48.512
  0
LINE
  8
0
 10
-49.812
 11
-50
 20
48.512
 21
48.5
  0
LINE
  8
0
 10
-50
 11
-50.188
 20
48.5
 21
48.512
  0
LINE
  8
0
 10
-50.188
 11
-50.373
 20
48.512
 21
48.547
  0
LINE
  8
0
 10
-50.373
 11
-50.552
 20
48.547
 21
48.605
  0
LINE
  8
0
 10
-50.552
 11
-50.723
 20
48.605
 21
48.686
  0
LINE
  8
0
 10
-50.723
 11
-50.882
 20
48.686
 21
48.786
  0
LINE
  8
0
 10
-50.882
 11
-51.027
 20
48.786
 21
48.907
  0
LINE
  8
0
 10
-51.027
 11
-51.156
 20
48.907
 21
49.044
  0
LINE
  8
0
 10
-51.156
 11
-51.266
 20
49.044
 21
49.196
  0
LINE
  8
0
 10
-51.266
 11
-51.357
 20
49.196
 21
49.361
  0
LINE
  8
0
 10
-51.357
 11
-51.427
 20
49.361
 21
49.536
  0
LINE
  8
0
 10
-51.427
 11
-51.473
 20
49.536
 21
49.719
  0
LINE
  8
0
 10
-51.473
 11
-51.497
 20
49.719
 21
49.906
  0
LINE
  8
0
 10
48.5
 11
48.512
 20
50
 21
50.188
  0
LINE
  8
0
 10
48.512
 11
48.547
 20
50.188
 21
50.373
  0
LINE
  8
0
 10
48.547
 11
48.605
 20
50.373
 21
50.552
  0
LINE
  8
0
 10
48.605
 11
48.686
 20
50.552
 21
50.723
  0
LINE
  8
0
 10
48.686
 11
48.786
 20
50.723
 21
50.882
  0
LINE
  8
0
 10
48.786
 11
48.907
 20
50.882
 21
51.027
  0
LINE
  8
0
 10
48.907
 11
49.044
 20
51.027
 21
51.156
  0
LINE
  8
0
 10
49.044
 11
49.196
 20
51.156
 21
51.266
  0
LINE
  8
0
 10
49.196
 11
49.361
 20
51.266
 21
51.357
  0
LINE
  8
0
 10
49.361
 11
49.536
 20
51.357
 21
51.427
  0
LINE
  8
0
 10
49.536
 11
49.719
 20
51.427
 21
51.473
  0
LINE
  8
0
 10
49.719
 11
49.906
 20
51.473
 21
51.497
  0
LINE
  8
0
 10
49.906
 11
50.094
 20
51.497
 21
51.497
  0
LINE
  8
0
 10
50.094
 11
50.281
 20
51.497
 21
51.473
  0
LINE
  8
0
 10
50.281
 11
50.464
 20
51.473
 21
51.427
  0
LINE
  8
0
 10
50.464
 11
50.639
 20
51.427
 21
51.357
  0
LINE
  8
0
 10
50.639
 11
50.804
 20
51.357
 21
51.266
  0
LINE
  8
0
 10
50.804
 11
50.956
 20
51.266
 21
51.156
  0
LINE
  8
0
 10
50.956
 11
51.093
 20
51.156
 21
51.027
  0
LINE
  8
0
 10
51.093
 11
51.214
 20
51.027
 21
50.882
  0
LINE
  8
0
 10
51.214
 11
51.314
 20
50.882
 21
50.723
  0
LINE
  8
0
 10
51.314
 11
51.395
 20
50.723
 21
50.552
  0
LINE
  8
0
 10
51.395
 11
51.453
 20
50.552
 21
50.373
  0
LINE
  8
0
 10
51.453
 11
51.488
 20
50.373
 21
50.188
  0
LINE
  8
0
 10
51.488
 11
51.5
 20
50.188
 21
50
  0
LINE
  8
0
 10
51.5
 11
51.488
 20
50
 21
49.812
  0
LINE
  8
0
 10
51.488
 11
51.453
 20
49.812
 21
49.627
  0
LINE
  8
0
 10
51.453
 11
51.395
 20
49.627
 21
49.448
  0
LINE
  8
0
 10
51.395
 11
51.314
 20
49.448
 21
49.277
  0
LINE
  8
0
 10
51.314
 11
51.214
 20
49.277
 21
49.118
  0
LINE
  8
0
 10
51.214
 11
51.093
 20
49.118
 21
48.973
  0
LINE
  8
0
 10
51.093
 11
50.956
 20
48.973
 21
48.844
  0
LINE
  8
0
 10
50.956
 11
50.804
 20
48.844
 21
48.734
  0
LINE
  8
0
 10
50.804
 11
50.639
 20
48.734
 21
48.643
  0
LINE
  8
0
 10
50.639
 11
50.464
 20
48.643
 21
48.573
  0
LINE
  8
0
 10
50.464
 11
50.281
 20
48.573
 21
48.527
  0
LINE
  8
0
 10
50.281
 11
50.094
 20
48.527
 21
48.503
  0
LINE
  8
0
 10
50.094
 11
49.906
 20
48.503
 21
48.503
  0
LINE
  8
0
 10
49.906
 11
49.719
 20
48.503
 21
48.527
  0
LINE
  8
0
 10
49.719
 11
49.536
 20
48.527
 21
48.573
  0
LINE
  8
0
 10
49.536
 11
49.361
 20
48.573
 21
48.643
  0
LINE
  8
0
 10
49.361
 11
49.196
 20
48.643
 21
48.734
  0
LINE
  8
0
 10
49.196
 11
49.044
 20
48.734
 21
48.844
  0
LINE
  8
0
 10
49.044
 11
48.907
 20
48.844
 21
48.973
  0
LINE
  8
0
 10
48.907
 11
48.786
 20
48.973
 21
49.118
  0
LINE
  8
0
 10
48.786
 11
48.686
 20
49.118
 21
49.277
  0
LINE
  8
0
 10
48.686
 11
48.605
 20
49.277
 21
49.448
  0
LINE
  8
0
 10
48.605
 11
48.547
 20
49.448
 21
49.627
  0
LINE
  8
0
 10
48.547
 11
48.512
 20
49.627
 21
49.812
  0
LINE
  8
0
 10
48.512
 11
48.5
 20
49.812
 21
50
  0
LINE
  8
0
 10
48.503
 11
48.503
 20
-50.094
 21
-49.906
  0
LINE
  8
0
 10
48.503
 11
48.527
 20
-49.906
 21
-49.719
  0
LINE
  8
0
 10
48.527
 11
48.573
 20
-49.719
 21
-49.536
  0
LINE
  8
0
 10
48.573
 11
48.643
 20
-49.536
 21
-49.361
  0
LINE
  8
0
 10
48.643
 11
48.734
 20
-49.361
 21
-49.196
  0
LINE
  8
0
 10
48.734
 11
48.844
 20
-49.196
 21
-49.044
  0
LINE
  8
0
 10
48.844
 11
48.973
 20
-49.044
 21
-48.907
  0
LINE
  8
0
 10
48.973
 11
49.118
 20
-48.907
 21
-48.786
  0
LINE
  8
0
 10
49.118
 11
49.277
 20
-48.786
 21
-48.686
  0
LINE
  8
0
 10
49.277
 11
49.448
 20
-48.686
 21
-48.605
  0
LINE
  8
0
 10
49.448
 11
49.627
 20
-48.605
 21
-48.547
  0
LINE
  8
0
 10
49.627
 11
49.812
 20
-48.547
 21
-48.512
  0
LINE
  8
0
 10
49.812
 11
50
 20
-48.512
 21
-48.5
  0
LINE
  8
0
 10
50
 11
50.188
 20
-48.5
 21
-48.512
  0
LINE
  8
0
 10
50.188
 11
50.373
 20
-48.512
 21
-48.547
  0
LINE
  8
0
 10
50.373
 11
50.552
 20
-48.547
 21
-48.605
  0
LINE
  8
0
 10
50.552
 11
50.723
 20
-48.605
 21
-48.686
  0
LINE
  8
0
 10
50.723
 11
50.882
 20
-48.686
 21
-48.786
  0
LINE
  8
0
 10
50.882
 11
51.027
 20
-48.786
 21
-48.907
  0
LINE
  8
0
 10
51.027
 11
51.156
 20
-48.907
 21
-49.044
  0
LINE
  8
0
 10
51.156
 11
51.266
 20
-49.044
 21
-49.196
  0
LINE
  8
0
 10
51.266
 11
51.357
 20
-49.196
 21
-49.361
  0
LINE
  8
0
 10
51.357
 11
51.427
 20
-49.361
 21
-49.536
  0
LINE
  8
0
 10
51.427
 11
51.473
 20
-49.536
 21
-49.719
  0
LINE
  8
0
 10
51.473
 11
51.497
 20
-49.719
 21
-49.906
  0
LINE
  8
0
 10
51.497
 11
51.497
 20
-49.906
 21
-50.094
  0
LINE
  8
0
 10
51.497
 11
51.473
 20
-50.094
 21
-50.281
  0
LINE
  8
0
 10
51.473
 11
51.427
 20
-50.281
 21
-50.464
  0
LINE
  8
0
 10
51.427
 11
51.357
 20
-50.464
 21
-50.639
  0
LINE
  8
0
 10
51.357
 11
51.266
 20
-50.639
 21
-50.804
  0
LINE
  8
0
 10
51.266
 11
51.156
 20
-50.804
 21
-50.956
  0
LINE
  8
0
 10
51.156
 11
51.027
 20
-50.956
 21
-51.093
  0
LINE
  8
0
 10
51.027
 11
50.882
 20
-51.093
 21
-51.214
  0
LINE
  8
0
 10
50.882
 11
50.723
 20
-51.214
 21
-51.314
  0
LINE
  8
0
 10
50.723
 11
50.552
 20
-51.314
 21
-51.395
  0
LINE
  8
0
 10
50.552
 11
50.373
 20
-51.395
 21
-51.453
  0
LINE
  8
0
 10
50.373
 11
50.188
 20
-51.453
 21
-51.488
  0
LINE
  8
0
 10
50.188
 11
50
 20
-51.488
 21
-51.5
  0
LINE
  8
0
 10
50
 11
49.812
 20
-51.5
 21
-51.488
  0
LINE
  8
0
 10
49.812
 11
49.627
 20
-51.488
 21
-51.453
  0
LINE
  8
0
 10
49.627
 11
49.448
 20
-51.453
 21
-51.395
  0
LINE
  8
0
 10
49.448
 11
49.277
 20
-51.395
 21
-51.314
  0
LINE
  8
0
 10
49.277
 11
49.118
 20
-51.314
 21
-51.214
  0
LINE
  8
0
 10
49.118
 11
48.973
 20
-51.214
 21
-51.093
  0
LINE
  8
0
 10
48.973
 11
48.844
 20
-51.093
 21
-50.956
  0
LINE
  8
0
 10
48.844
 11
48.734
 20
-50.956
 21
-50.804
  0
LINE
  8
0
 10
48.734
 11
48.643
 20
-50.804
 21
-50.639
  0
LINE
  8
0
 10
48.643
 11
48.573
 20
-50.639
 21
-50.464
  0
LINE
  8
0
 10
48.573
 11
48.527
 20
-50.464
 21
-50.281
  0
LINE
  8
0
 10
48.527
 11
48.503
 20
-50.281
 21
-50.094
  0
LINE
  8
0
 10
97.8
 11
97.865
 20
-60
 21
-58.966
  0
LINE
  8
0
 10
97.865
 11
98.059
 20
-58.966
 21
-57.948
  0
LINE
  8
0
 10
98.059
 11
98.379
 20
-57.948
 21
-56.963
  0
LINE
  8
0
 10
98.379
 11
98.82
 20
-56.963
 21
-56.026
  0
LINE
  8
0
 10
98.82
 11
99.376
 20
-56.026
 21
-55.151
  0
LINE
  8
0
 10
99.376
 11
100.036
 20
-55.151
 21
-54.352
  0
LINE
  8
0
 10
100.036
 11
100.791
 20
-54.352
 21
-53.643
  0
LINE
  8
0
 10
100.791
 11
101.629
 20
-53.643
 21
-53.034
  0
LINE
  8
0
 10
101.629
 11
102.537
 20
-53.034
 21
-52.535
  0
LINE
  8
0
 10
102.537
 11
103.501
 20
-52.535
 21
-52.154
  0
LINE
  8
0
 10
103.501
 11
104.504
 20
-52.154
 21
-51.896
  0
LINE
  8
0
 10
104.504
 11
105.532
 20
-51.896
 21
-51.766
  0
LINE
  8
0
 10
105.532
 11
106.568
 20
-51.766
 21
-51.766
  0
LINE
  8
0
 10
106.568
 11
107.596
 20
-51.766
 21
-51.896
  0
LINE
  8
0
 10
107.596
 11
108.599
 20
-51.896
 21
-52.154
  0
LINE
  8
0
 10
108.599
 11
109.563
 20
-52.154
 21
-52.535
  0
LINE
  8
0
 10
109.563
 11
110.471
 20
-52.535
 21
-53.034
  0
LINE
  8
0
 10
110.471
 11
111.309
 20
-53.034
 21
-53.643
  0
LINE
  8
0
 10
111.309
 11
112.064
 20
-53.643
 21
-54.352
  0
LINE
  8
0
 10
112.064
 11
112.724
 20
-54.352
 21
-55.151
  0
LINE
  8
0
 10
112.724
 11
113.28
 20
-55.151
 21
-56.026
  0
LINE
  8
0
 10
113.28
 11
113.721
 20
-56.026
 21
-56.963
  0
LINE
  8
0
 10
113.721
 11
114.041
 20
-56.963
 21
-57.948
  0
LINE
  8
0
 10
114.041
 11
114.235
 20
-57.948
 21
-58.966
  0
LINE
  8
0
 10
114.235
 11
114.3
 20
-58.966
 21
-60
  0
LINE
  8
0
 10
114.3
 11
114.235
 20
-60
 21
-61.034
  0
LINE
  8
0
 10
114.235
 11
114.041
 20
-61.034
 21
-62.052
  0
LINE
  8
0
 10
114.041
 11
113.721
 20
-62.052
 21
-63.037
  0
LINE
  8
0
 10
113.721
 11
113.28
 20
-63.037
 21
-63.974
  0
LINE
  8
0
 10
113.28
 11
112.724
 20
-63.974
 21
-64.849
  0
LINE
  8
0
 10
112.724
 11
112.064
 20
-64.849
 21
-65.648
  0
LINE
  8
0
 10
112.064
 11
111.309
 20
-65.648
 21
-66.357
  0
LINE
  8
0
 10
111.309
 11
110.471
 20
-66.357
 21
-66.966
  0
LINE
  8
0
 10
110.471
 11
109.563
 20
-66.966
 21
-67.465
  0
LINE
  8
0
 10
109.563
 11
108.599
 20
-67.465
 21
-67.846
  0
LINE
  8
0
 10
108.599
 11
107.596
 20
-67.846
 21
-68.104
  0
LINE
  8
0
 10
107.596
 11
106.568
 20
-68.104
 21
-68.234
  0
LINE
  8
0
 10
106.568
 11
105.532
 20
-68.234
 21
-68.234
  0
LINE
  8
0
 10
105.532
 11
104.504
 20
-68.234
 21
-68.104
  0
LINE
  8
0
 10
104.504
 11
103.501
 20
-68.104
 21
-67.846
  0
LINE
  8
0
 10
103.501
 11
102.537
 20
-67.846
 21
-67.465
  0
LINE
  8
0
 10
102.537
 11
101.629
 20
-67.465
 21
-66.966
  0
LINE
  8
0
 10
101.629
 11
100.791
 20
-66.966
 21
-66.357
  0
LINE
  8
0
 10
100.791
 11
100.036
 20
-66.357
 21
-65.648
  0
LINE
  8
0
 10
100.036
 11
99.376
 20
-65.648
 21
-64.849
  0
LINE
  8
0
 10
99.376
 11
98.82
 20
-64.849
 21
-63.974
  0
LINE
  8
0
 10
98.82
 11
98.379
 20
-63.974
 21
-63.037
  0
LINE
  8
0
 10
98.379
 11
98.059
 20
-63.037
 21
-62.052
  0
LINE
  8
0
 10
98.059
 11
97.865
 20
-62.052
 21
-61.034
  0
LINE
  8
0
 10
97.865
 11
97.8
 20
-61.034
 21
-60
  0
LINE
  8
0
 10
97.8
 11
97.865
 20
60
 21
61.034
  0
LINE
  8
0
 10
97.865
 11
98.059
 20
61.034
 21
62.052
  0
LINE
  8
0
 10
98.059
 11
98.379
 20
62.052
 21
63.037
  0
LINE
  8
0
 10
98.379
 11
98.82
 20
63.037
 21
63.974
  0
LINE
  8
0
 10
98.82
 11
99.376
 20
63.974
 21
64.849
  0
LINE
  8
0
 10
99.376
 11
100.036
 20
64.849
 21
65.648
  0
LINE
  8
0
 10
100.036
 11
100.791
 20
65.648
 21
66.357
  0
LINE
  8
0
 10
100.791
 11
101.629
 20
66.357
 21
66.966
  0
LINE
  8
0
 10
101.629
 11
102.537
 20
66.966
 21
67.465
  0
LINE
  8
0
 10
102.537
 11
103.501
 20
67.465
 21
67.846
  0
LINE
  8
0
 10
103.501
 11
104.504
 20
67.846
 21
68.104
  0
LINE
  8
0
 10
104.504
 11
105.532
 20
68.104
 21
68.234
  0
LINE
  8
0
 10
105.532
 11
106.568
 20
68.234
 21
68.234
  0
LINE
  8
0
 10
106.568
 11
107.596
 20
68.234
 21
68.104
  0
LINE
  8
0
 10
107.596
 11
108.599
 20
68.104
 21
67.846
  0
LINE
  8
0
 10
108.599
 11
109.563
 20
67.846
 21
67.465
  0
LINE
  8
0
 10
109.563
 11
110.471
 20
67.465
 21
66.966
  0
LINE
  8
0
 10
110.471
 11
111.309
 20
66.966
 21
66.357
  0
LINE
  8
0
 10
111.309
 11
112.064
 20
66.357
 21
65.648
  0
LINE
  8
0
 10
112.064
 11
112.724
 20
65.648
 21
64.849
  0
LINE
  8
0
 10
112.724
 11
113.28
 20
64.849
 21
63.974
  0
LINE
  8
0
 10
113.28
 11
113.721
 20
63.974
 21
63.037
  0
LINE
  8
0
 10
113.721
 11
114.041
 20
63.037
 21
62.052
  0
LINE
  8
0
 10
114.041
 11
114.235
 20
62.052
 21
61.034
  0
LINE
  8
0
 10
114.235
 11
114.3
 20
61.034
 21
60
  0
LINE
  8
0
 10
114.3
 11
114.235
 20
60
 21
58.966
  0
LINE
  8
0
 10
114.235
 11
114.041
 20
58.966
 21
57.948
  0
LINE
  8
0
 10
114.041
 11
113.721
 20
57.948
 21
56.963
  0
LINE
  8
0
 10
113.721
 11
113.28
 20
56.963
 21
56.026
  0
LINE
  8
0
 10
113.28
 11
112.724
 20
56.026
 21
55.151
  0
LINE
  8
0
 10
112.724
 11
112.064
 20
55.151
 21
54.352
  0
LINE
  8
0
 10
112.064
 11
111.309
 20
54.352
 21
53.643
  0
LINE
  8
0
 10
111.309
 11
110.471
 20
53.643
 21
53.034
  0
LINE
  8
0
 10
110.471
 11
109.563
 20
53.034
 21
52.535
  0
LINE
  8
0
 10
109.563
 11
108.599
 20
52.535
 21
52.154
  0
LINE
  8
0
 10
108.599
 11
107.596
 20
52.154
 21
51.896
  0
LINE
  8
0
 10
107.596
 11
106.568
 20
51.896
 21
51.766
  0
LINE
  8
0
 10
106.568
 11
105.532
 20
51.766
 21
51.766
  0
LINE
  8
0
 10
105.532
 11
104.504
 20
51.766
 21
51.896
  0
LINE
  8
0
 10
104.504
 11
103.501
 20
51.896
 21
52.154
  0
LINE
  8
0
 10
103.501
 11
102.537
 20
52.154
 21
52.535
  0
LINE
  8
0
 10
102.537
 11
101.629
 20
52.535
 21
53.034
  0
LINE
  8
0
 10
101.629
 11
100.791
 20
53.034
 21
53.643
  0
LINE
  8
0
 10
100.791
 11
100.036
 20
53.643
 21
54.352
  0
LINE
  8
0
 10
100.036
 11
99.376
 20
54.352
 21
55.151
  0
LINE
  8
0
 10
99.376
 11
98.82
 20
55.151
 21
56.026
  0
LINE
  8
0
 10
98.82
 11
98.379
 20
56.026
 21
56.963
  0
LINE
  8
0
 10
98.379
 11
98.059
 20
56.963
 21
57.948
  0
LINE
  8
0
 10
98.059
 11
97.865
 20
57.948
 21
58.966
  0
LINE
  8
0
 10
97.865
 11
97.8
 20
58.966
 21
60
  0
LINE
  8
0
 10
120.5
 11
120.512
 20
0
 21
0.188
  0
LINE
  8
0
 10
120.512
 11
120.547
 20
0.188
 21
0.373
  0
LINE
  8
0
 10
120.547
 11
120.605
 20
0.373
 21
0.552
  0
LINE
  8
0
 10
120.605
 11
120.686
 20
0.552
 21
0.723
  0
LINE
  8
0
 10
120.686
 11
120.786
 20
0.723
 21
0.882
  0
LINE
  8
0
 10
120.786
 11
120.907
 20
0.882
 21
1.027
  0
LINE
  8
0
 10
120.907
 11
121.044
 20
1.027
 21
1.156
  0
LINE
  8
0
 10
121.044
 11
121.196
 20
1.156
 21
1.266
  0
LINE
  8
0
 10
121.196
 11
121.361
 20
1.266
 21
1.357
  0
LINE
  8
0
 10
121.361
 11
121.536
 20
1.357
 21
1.427
  0
LINE
  8
0
 10
121.536
 11
121.719
 20
1.427
 21
1.473
  0
LINE
  8
0
 10
121.719
 11
121.906
 20
1.473
 21
1.497
  0
LINE
  8
0
 10
121.906
 11
122.094
 20
1.497
 21
1.497
  0
LINE
  8
0
 10
122.094
 11
122.281
 20
1.497
 21
1.473
  0
LINE
  8
0
 10
122.281
 11
122.464
 20
1.473
 21
1.427
  0
LINE
  8
0
 10
122.464
 11
122.639
 20
1.427
 21
1.357
  0
LINE
  8
0
 10
122.639
 11
122.804
 20
1.357
 21
1.266
  0
LINE
  8
0
 10
122.804
 11
122.956
 20
1.266
 21
1.156
  0
LINE
  8
0
 10
122.956
 11
123.093
 20
1.156
 21
1.027
  0
LINE
  8
0
 10
123.093
 11
123.214
 20
1.027
 21
0.882
  0
LINE
  8
0
 10
123.214
 11
123.314
 20
0.882
 21
0.723
  0
LINE
  8
0
 10
123.314
 11
123.395
 20
0.723
 21
0.552
  0
LINE
  8
0
 10
123.395
 11
123.453
 20
0.552
 21
0.373
  0
LINE
  8
0
 10
123.453
 11
123.488
 20
0.373
 21
0.188
  0
LINE
  8
0
 10
123.488
 11
123.5
 20
0.188
 21
0
  0
LINE
  8
0
 10
123.5
 11
123.488
 20
0
 21
-0.188
  0
LINE
  8
0
 10
123.488
 11
123.453
 20
-0.188
 21
-0.373
  0
LINE
  8
0
 10
123.453
 11
123.395
 20
-0.373
 21
-0.552
  0
LINE
  8
0
 10
123.395
 11
123.314
 20
-0.552
 21
-0.723
  0
LINE
  8
0
 10
123.314
 11
123.214
 20
-0.723
 21
-0.882
  0
LINE
  8
0
 10
123.214
 11
123.093
 20
-0.882
 21
-1.027
  0
LINE
  8
0
 10
123.093
 11
122.956
 20
-1.027
 21
-1.156
  0
LINE
  8
0
 10
122.956
 11
122.804
 20
-1.156
 21
-1.266
  0
LINE
  8
0
 10
122.804
 11
122.639
 20
-1.266
 21
-1.357
  0
LINE
  8
0
 10
122.639
 11
122.464
 20
-1.357
 21
-1.427
  0
LINE
  8
0
 10
122.464
 11
122.281
 20
-1.427
 21
-1.473
  0
LINE
  8
0
 10
122.281
 11
122.094
 20
-1.473
 21
-1.497
  0
LINE
  8
0
 10
122.094
 11
121.906
 20
-1.497
 21
-1.497
  0
LINE
  8
0
 10
121.906
 11
121.719
 20
-1.497
 21
-1.473
  0
LINE
  8
0
 10
121.719
 11
121.536
 20
-1.473
 21
-1.427
  0
LINE
  8
0
 10
121.536
 11
121.361
 20
-1.427
 21
-1.357
  0
LINE
  8
0
 10
121.361
 11
121.196
 20
-1.357
 21
-1.266
  0
LINE
  8
0
 10
121.196
 11
121.044
 20
-1.266
 21
-1.156
  0
LINE
  8
0
 10
121.044
 11
120.907
 20
-1.156
 21
-1.027
  0
LINE
  8
0
 10
120.907
 11
120.786
 20
-1.027
 21
-0.882
  0
LINE
  8
0
 10
120.786
 11
120.686
 20
-0.882
 21
-0.723
  0
LINE
  8
0
 10
120.686
 11
120.605
 20
-0.723
 21
-0.552
  0
LINE
  8
0
 10
120.605
 11
120.547
 20
-0.552
 21
-0.373
  0
LINE
  8
0
 10
120.547
 11
120.512
 20
-0.373
 21
-0.188
  0
LINE
  8
0
 10
120.512
 11
120.5
 20
-0.188
 21
0
  0
LINE
  8
0
 10
125
 11
125.039
 20
0
 21
0.627
  0
LINE
  8
0
 10
125.039
 11
125.157
 20
0.627
 21
1.243
  0
LINE
  8
0
 10
125.157
 11
125.351
 20
1.243
 21
1.841
  0
LINE
  8
0
 10
125.351
 11
125.618
 20
1.841
 21
2.409
  0
LINE
  8
0
 10
125.618
 11
125.955
 20
2.409
 21
2.939
  0
LINE
  8
0
 10
125.955
 11
126.355
 20
2.939
 21
3.423
  0
LINE
  8
0
 10
126.355
 11
126.813
 20
3.423
 21
3.853
  0
LINE
  8
0
 10
126.813
 11
127.321
 20
3.853
 21
4.222
  0
LINE
  8
0
 10
127.321
 11
127.871
 20
4.222
 21
4.524
  0
LINE
  8
0
 10
127.871
 11
128.455
 20
4.524
 21
4.755
  0
LINE
  8
0
 10
128.455
 11
129.063
 20
4.755
 21
4.911
  0
LINE
  8
0
 10
129.063
 11
129.686
 20
4.911
 21
4.99
  0
LINE
  8
0
 10
129.686
 11
130.314
 20
4.99
 21
4.99
  0
LINE
  8
0
 10
130.314
 11
130.937
 20
4.99
 21
4.911
  0
LINE
  8
0
 10
130.937
 11
131.545
 20
4.911
 21
4.755
  0
LINE
  8
0
 10
131.545
 11
132.129
 20
4.755
 21
4.524
  0
LINE
  8
0
 10
132.129
 11
132.679
 20
4.524
 21
4.222
  0
LINE
  8
0
 10
132.679
 11
133.187
 20
4.222
 21
3.853
  0
LINE
  8
0
 10
133.187
 11
133.645
 20
3.853
 21
3.423
  0
LINE
  8
0
 10
133.645
 11
134.045
 20
3.423
 21
2.939
  0
LINE
  8
0
 10
134.045
 11
134.382
 20
2.939
 21
2.409
  0
LINE
  8
0
 10
134.382
 11
134.649
 20
2.409
 21
1.841
  0
LINE
  8
0
 10
134.649
 11
134.843
 20
1.841
 21
1.243
  0
LINE
  8
0
 10
134.843
 11
134.961
 20
1.243
 21
0.627
  0
LINE
  8
0
 10
134.961
 11
135
 20
0.627
 21
0
  0
LINE
  8
0
 10
135
 11
134.961
 20
0
 21
-0.627
  0
LINE
  8
0
 10
134.961
 11
134.843
 20
-0.627
 21
-1.243
  0
LINE
  8
0
 10
134.843
 11
134.649
 20
-1.243
 21
-1.841
  0
LINE
  8
0
 10
134.649
 11
134.382
 20
-1.841
 21
-2.409
  0
LINE
  8
0
 10
134.382
 11
134.045
 20
-2.409
 21
-2.939
  0
LINE
  8
0
 10
134.045
 11
133.645
 20
-2.939
 21
-3.423
  0
LINE
  8
0
 10
133.645
 11
133.187
 20
-3.423
 21
-3.853
  0
LINE
  8
0
 10
133.187
 11
132.679
 20
-3.853
 21
-4.222
  0
LINE
  8
0
 10
132.679
 11
132.129
 20
-4.222
 21
-4.524
  0
LINE
  8
0
 10
132.129
 11
131.545
 20
-4.524
 21
-4.755
  0
LINE
  8
0
 10
131.545
 11
130.937
 20
-4.755
 21
-4.911
  0
LINE
  8
0
 10
130.937
 11
130.314
 20
-4.911
 21
-4.99
  0
LINE
  8
0
 10
130.314
 11
129.686
 20
-4.99
 21
-4.99
  0
LINE
  8
0
 10
129.686
 11
129.063
 20
-4.99
 21
-4.911
  0
LINE
  8
0
 10
129.063
 11
128.455
 20
-4.911
 21
-4.755
  0
LINE
  8
0
 10
128.455
 11
127.871
 20
-4.755
 21
-4.524
  0
LINE
  8
0
 10
127.871
 11
127.321
 20
-4.524
 21
-4.222
  0
LINE
  8
0
 10
127.321
 11
126.813
 20
-4.222
 21
-3.853
  0
LINE
  8
0
 10
126.813
 11
126.355
 20
-3.853
 21
-3.423
  0
LINE
  8
0
 10
126.355
 11
125.955
 20
-3.423
 21
-2.939
  0
LINE
  8
0
 10
125.955
 11
125.618
 20
-2.939
 21
-2.409
  0
LINE
  8
0
 10
125.618
 11
125.351
 20
-2.409
 21
-1.841
  0
LINE
  8
0
 10
125.351
 11
125.157
 20
-1.841
 21
-1.243
  0
LINE
  8
0
 10
125.157
 11
125.039
 20
-1.243
 21
-0.627
  0
LINE
  8
0
 10
125.039
 11
125
 20
-0.627
 21
0
  0
LINE
  8
0
 10
128.503
 11
128.503
 20
-8.094
 21
-7.906
  0
LINE
  8
0
 10
128.503
 11
128.527
 20
-7.906
 21
-7.719
  0
LINE
  8
0
 10
128.527
 11
128.573
 20
-7.719
 21
-7.536
  0
LINE
  8
0
 10
128.573
 11
128.643
 20
-7.536
 21
-7.361
  0
LINE
  8
0
 10
128.643
 11
128.734
 20
-7.361
 21
-7.196
  0
LINE
  8
0
 10
128.734
 11
128.844
 20
-7.196
 21
-7.044
  0
LINE
  8
0
 10
128.844
 11
128.973
 20
-7.044
 21
-6.907
  0
LINE
  8
0
 10
128.973
 11
129.118
 20
-6.907
 21
-6.786
  0
LINE
  8
0
 10
129.118
 11
129.277
 20
-6.786
 21
-6.686
  0
LINE
  8
0
 10
129.277
 11
129.448
 20
-6.686
 21
-6.605
  0
LINE
  8
0
 10
129.448
 11
129.627
 20
-6.605
 21
-6.547
  0
LINE
  8
0
 10
129.627
 11
129.812
 20
-6.547
 21
-6.512
  0
LINE
  8
0
 10
129.812
 11
130
 20
-6.512
 21
-6.5
  0
LINE
  8
0
 10
130
 11
130.188
 20
-6.5
 21
-6.512
  0
LINE
  8
0
 10
130.188
 11
130.373
 20
-6.512
 21
-6.547
  0
LINE
  8
0
 10
130.373
 11
130.552
 20
-6.547
 21
-6.605
  0
LINE
  8
0
 10
130.552
 11
130.723
 20
-6.605
 21
-6.686
  0
LINE
  8
0
 10
130.723
 11
130.882
 20
-6.686
 21
-6.786
  0
LINE
  8
0
 10
130.882
 11
131.027
 20
-6.786
 21
-6.907
  0
LINE
  8
0
 10
131.027
 11
131.156
 20
-6.907
 21
-7.044
  0
LINE
  8
0
 10
131.156
 11
131.266
 20
-7.044
 21
-7.196
  0
LINE
  8
0
 10
131.266
 11
131.357
 20
-7.196
 21
-7.361
  0
LINE
  8
0
 10
131.357
 11
131.427
 20
-7.361
 21
-7.536
  0
LINE
  8
0
 10
131.427
 11
131.473
 20
-7.536
 21
-7.719
  0
LINE
  8
0
 10
131.473
 11
131.497
 20
-7.719
 21
-7.906
  0
LINE
  8
0
 10
131.497
 11
131.497
 20
-7.906
 21
-8.094
  0
LINE
  8
0
 10
131.497
 11
131.473
 20
-8.094
 21
-8.281
  0
LINE
  8
0
 10
131.473
 11
131.427
 20
-8.281
 21
-8.464
  0
LINE
  8
0
 10
131.427
 11
131.357
 20
-8.464
 21
-8.639
  0
LINE
  8
0
 10
131.357
 11
131.266
 20
-8.639
 21
-8.804
  0
LINE
  8
0
 10
131.266
 11
131.156
 20
-8.804
 21
-8.956
  0
LINE
  8
0
 10
131.156
 11
131.027
 20
-8.956
 21
-9.093
  0
LINE
  8
0
 10
131.027
 11
130.882
 20
-9.093
 21
-9.214
  0
LINE
  8
0
 10
130.882
 11
130.723
 20
-9.214
 21
-9.314
  0
LINE
  8
0
 10
130.723
 11
130.552
 20
-9.314
 21
-9.395
  0
LINE
  8
0
 10
130.552
 11
130.373
 20
-9.395
 21
-9.453
  0
LINE
  8
0
 10
130.373
 11
130.188
 20
-9.453
 21
-9.488
  0
LINE
  8
0
 10
130.188
 11
130
 20
-9.488
 21
-9.5
  0
LINE
  8
0
 10
130
 11
129.812
 20
-9.5
 21
-9.488
  0
LINE
  8
0
 10
129.812
 11
129.627
 20
-9.488
 21
-9.453
  0
LINE
  8
0
 10
129.627
 11
129.448
 20
-9.453
 21
-9.395
  0
LINE
  8
0
 10
129.448
 11
129.277
 20
-9.395
 21
-9.314
  0
LINE
  8
0
 10
129.277
 11
129.118
 20
-9.314
 21
-9.214
  0
LINE
  8
0
 10
129.118
 11
128.973
 20
-9.214
 21
-9.093
  0
LINE
  8
0
 10
128.973
 11
128.844
 20
-9.093
 21
-8.956
  0
LINE
  8
0
 10
128.844
 11
128.734
 20
-8.956
 21
-8.804
  0
LINE
  8
0
 10
128.734
 11
128.643
 20
-8.804
 21
-8.639
  0
LINE
  8
0
 10
128.643
 11
128.573
 20
-8.639
 21
-8.464
  0
LINE
  8
0
 10
128.573
 11
128.527
 20
-8.464
 21
-8.281
  0
LINE
  8
0
 10
128.527
 11
128.503
 20
-8.281
 21
-8.094
  0
LINE
  8
0
 10
128.503
 11
128.503
 20
7.906
 21
8.094
  0
LINE
  8
0
 10
128.503
 11
128.527
 20
8.094
 21
8.281
  0
LINE
  8
0
 10
128.527
 11
128.573
 20
8.281
 21
8.464
  0
LINE
  8
0
 10
128.573
 11
128.643
 20
8.464
 21
8.639
  0
LINE
  8
0
 10
128.643
 11
128.734
 20
8.639
 21
8.804
  0
LINE
  8
0
 10
128.734
 11
128.844
 20
8.804
 21
8.956
  0
LINE
  8
0
 10
128.844
 11
128.973
 20
8.956
 21
9.093
  0
LINE
  8
0
 10
128.973
 11
129.118
 20
9.093
 21
9.214
  0
LINE
  8
0
 10
129.118
 11
129.277
 20
9.214
 21
9.314
  0
LINE
  8
0
 10
129.277
 11
129.448
 20
9.314
 21
9.395
  0
LINE
  8
0
 10
129.448
 11
129.627
 20
9.395
 21
9.453
  0
LINE
  8
0
 10
129.627
 11
129.812
 20
9.453
 21
9.488
  0
LINE
  8
0
 10
129.812
 11
130
 20
9.488
 21
9.5
  0
LINE
  8
0
 10
130
 11
130.188
 20
9.5
 21
9.488
  0
LINE
  8
0
 10
130.188
 11
130.373
 20
9.488
 21
9.453
  0
LINE
  8
0
 10
130.373
 11
130.552
 20
9.453
 21
9.395
  0
LINE
  8
0
 10
130.552
 11
130.723
 20
9.395
 21
9.314
  0
LINE
  8
0
 10
130.723
 11
130.882
 20
9.314
 21
9.214
  0
LINE
  8
0
 10
130.882
 11
131.027
 20
9.214
 21
9.093
  0
LINE
  8
0
 10
131.027
 11
131.156
 20
9.093
 21
8.956
  0
LINE
  8
0
 10
131.156
 11
131.266
 20
8.956
 21
8.804
  0
LINE
  8
0
 10
131.266
 11
131.357
 20
8.804
 21
8.639
  0
LINE
  8
0
 10
131.357
 11
131.427
 20
8.639
 21
8.464
  0
LINE
  8
0
 10
131.427
 11
131.473
 20
8.464
 21
8.281
  0
LINE
  8
0
 10
131.473
 11
131.497
 20
8.281
 21
8.094
  0
LINE
  8
0
 10
131.497
 11
131.497
 20
8.094
 21
7.906
  0
LINE
  8
0
 10
131.497
 11
131.473
 20
7.906
 21
7.719
  0
LINE
  8
0
 10
131.473
 11
131.427
 20
7.719
 21
7.536
  0
LINE
  8
0
 10
131.427
 11
131.357
 20
7.536
 21
7.361
  0
LINE
  8
0
 10
131.357
 11
131.266
 20
7.361
 21
7.196
  0
LINE
  8
0
 10
131.266
 11
131.156
 20
7.196
 21
7.044
  0
LINE
  8
0
 10
131.156
 11
131.027
 20
7.044
 21
6.907
  0
LINE
  8
0
 10
131.027
 11
130.882
 20
6.907
 21
6.786
  0
LINE
  8
0
 10
130.882
 11
130.723
 20
6.786
 21
6.686
  0
LINE
  8
0
 10
130.723
 11
130.552
 20
6.686
 21
6.605
  0
LINE
  8
0
 10
130.552
 11
130.373
 20
6.605
 21
6.547
  0
LINE
  8
0
 10
130.373
 11
130.188
 20
6.547
 21
6.512
  0
LINE
  8
0
 10
130.188
 11
130
 20
6.512
 21
6.5
  0
LINE
  8
0
 10
130
 11
129.812
 20
6.5
 21
6.512
  0
LINE
  8
0
 10
129.812
 11
129.627
 20
6.512
 21
6.547
  0
LINE
  8
0
 10
129.627
 11
129.448
 20
6.547
 21
6.605
  0
LINE
  8
0
 10
129.448
 11
129.277
 20
6.605
 21
6.686
  0
LINE
  8
0
 10
129.277
 11
129.118
 20
6.686
 21
6.786
  0
LINE
  8
0
 10
129.118
 11
128.973
 20
6.786
 21
6.907
  0
LINE
  8
0
 10
128.973
 11
128.844
 20
6.907
 21
7.044
  0
LINE
  8
0
 10
128.844
 11
128.734
 20
7.044
 21
7.196
  0
LINE
  8
0
 10
128.734
 11
128.643
 20
7.196
 21
7.361
  0
LINE
  8
0
 10
128.643
 11
128.573
 20
7.361
 21
7.536
  0
LINE
  8
0
 10
128.573
 11
128.527
 20
7.536
 21
7.719
  0
LINE
  8
0
 10
128.527
 11
128.503
 20
7.719
 21
7.906
  0
LINE
  8
0
 10
136.5
 11
136.512
 20
0
 21
0.188
  0
LINE
  8
0
 10
136.512
 11
136.547
 20
0.188
 21
0.373
  0
LINE
  8
0
 10
136.547
 11
136.605
 20
0.373
 21
0.552
  0
LINE
  8
0
 10
136.605
 11
136.686
 20
0.552
 21
0.723
  0
LINE
  8
0
 10
136.686
 11
136.786
 20
0.723
 21
0.882
  0
LINE
  8
0
 10
136.786
 11
136.907
 20
0.882
 21
1.027
  0
LINE
  8
0
 10
136.907
 11
137.044
 20
1.027
 21
1.156
  0
LINE
  8
0
 10
137.044
 11
137.196
 20
1.156
 21
1.266
  0
LINE
  8
0
 10
137.196
 11
137.361
 20
1.266
 21
1.357
  0
LINE
  8
0
 10
137.361
 11
137.536
 20
1.357
 21
1.427
  0
LINE
  8
0
 10
137.536
 11
137.719
 20
1.427
 21
1.473
  0
LINE
  8
0
 10
137.719
 11
137.906
 20
1.473
 21
1.497
  0
LINE
  8
0
 10
137.906
 11
138.094
 20
1.497
 21
1.497
  0
LINE
  8
0
 10
138.094
 11
138.281
 20
1.497
 21
1.473
  0
LINE
  8
0
 10
138.281
 11
138.464
 20
1.473
 21
1.427
  0
LINE
  8
0
 10
138.464
 11
138.639
 20
1.427
 21
1.357
  0
LINE
  8
0
 10
138.639
 11
138.804
 20
1.357
 21
1.266
  0
LINE
  8
0
 10
138.804
 11
138.956
 20
1.266
 21
1.156
  0
LINE
  8
0
 10
138.956
 11
139.093
 20
1.156
 21
1.027
  0
LINE
  8
0
 10
139.093
 11
139.214
 20
1.027
 21
0.882
  0
LINE
  8
0
 10
139.214
 11
139.314
 20
0.882
 21
0.723
  0
LINE
  8
0
 10
139.314
 11
139.395
 20
0.723
 21
0.552
  0
LINE
  8
0
 10
139.395
 11
139.453
 20
0.552
 21
0.373
  0
LINE
  8
0
 10
139.453
 11
139.488
 20
0.373
 21
0.188
  0
LINE
  8
0
 10
139.488
 11
139.5
 20
0.188
 21
0
  0
LINE
  8
0
 10
139.5
 11
139.488
 20
0
 21
-0.188
  0
LINE
  8
0
 10
139.488
 11
139.453
 20
-0.188
 21
-0.373
  0
LINE
  8
0
 10
139.453
 11
139.395
 20
-0.373
 21
-0.552
  0
LINE
  8
0
 10
139.395
 11
139.314
 20
-0.552
 21
-0.723
  0
LINE
  8
0
 10
139.314
 11
139.214
 20
-0.723
 21
-0.882
  0
LINE
  8
0
 10
139.214
 11
139.093
 20
-0.882
 21
-1.027
  0
LINE
  8
0
 10
139.093
 11
138.956
 20
-1.027
 21
-1.156
  0
LINE
  8
0
 10
138.956
 11
138.804
 20
-1.156
 21
-1.266
  0
LINE
  8
0
 10
138.804
 11
138.639
 20
-1.266
 21
-1.357
  0
LINE
  8
0
 10
138.639
 11
138.464
 20
-1.357
 21
-1.427
  0
LINE
  8
0
 10
138.464
 11
138.281
 20
-1.427
 21
-1.473
  0
LINE
  8
0
 10
138.281
 11
138.094
 20
-1.473
 21
-1.497
  0
LINE
  8
0
 10
138.094
 11
137.906
 20
-1.497
 21
-1.497
  0
LINE
  8
0
 10
137.906
 11
137.719
 20
-1.497
 21
-1.473
  0
LINE
  8
0
 10
137.719
 11
137.536
 20
-1.473
 21
-1.427
  0
LINE
  8
0
 10
137.536
 11
137.361
 20
-1.427
 21
-1.357
  0
LINE
  8
0
 10
137.361
 11
137.196
 20
-1.357
 21
-1.266
  0
LINE
  8
0
 10
137.196
 11
137.044
 20
-1.266
 21
-1.156
  0
LINE
  8
0
 10
137.044
 11
136.907
 20
-1.156
 21
-1.027
  0
LINE
  8
0
 10
136.907
 11
136.786
 20
-1.027
 21
-0.882
  0
LINE
  8
0
 10
136.786
 11
136.686
 20
-0.882
 21
-0.723
  0
LINE
  8
0
 10
136.686
 11
136.605
 20
-0.723
 21
-0.552
  0
LINE
  8
0
 10
136.605
 11
136.547
 20
-0.552
 21
-0.373
  0
LINE
  8
0
 10
136.547
 11
136.512
 20
-0.373
 21
-0.188
  0
LINE
  8
0
 10
136.512
 11
136.5
 20
-0.188
 21
0
  0
LINE
  8
0
 10
187.5
 11
187.5
 20
-100
 21
-95
  0
LINE
  8
0
 10
187.5
 11
192.5
 20
-95
 21
-95
  0
LINE
  8
0
 10
192.5
 11
192.5
 20
-95
 21
-100
  0
LINE
  8
0
 10
192.5
 11
187.5
 20
-100
 21
-100
  0
LINE
  8
0
 10
187.5
 11
187.5
 20
-75
 21
-70
  0
LINE
  8
0
 10
187.5
 11
192.5
 20
-70
 21
-70
  0
LINE
  8
0
 10
192.5
 11
192.5
 20
-70
 21
-75
  0
LINE
  8
0
 10
192.5
 11
187.5
 20
-75
 21
-75
  0
LINE
  8
0
 10
187.5
 11
187.5
 20
70
 21
75
  0
LINE
  8
0
 10
187.5
 11
192.5
 20
75
 21
75
  0
LINE
  8
0
 10
192.5
 11
192.5
 20
75
 21
70
  0
LINE
  8
0
 10
192.5
 11
187.5
 20
70
 21
70
  0
LINE
  8
0
 10
187.5
 11
187.5
 20
95
 21
100
  0
LINE
  8
0
 10
187.5
 11
192.5
 20
100
 21
100
  0
LINE
  8
0
 10
192.5
 11
192.5
 20
100
 21
95
  0
LINE
  8
0
 10
192.5
 11
187.5
 20
95
 21
95
  0
LINE
  8
0
 10
195.8
 11
195.833
 20
-85
 21
-84.474
  0
LINE
  8
0
 10
195.833
 11
195.932
 20
-84.474
 21
-83.956
  0
LINE
  8
0
 10
195.932
 11
196.095
 20
-83.956
 21
-83.454
  0
LINE
  8
0
 10
196.095
 11
196.32
 20
-83.454
 21
-82.977
  0
LINE
  8
0
 10
196.32
 11
196.602
 20
-82.977
 21
-82.531
  0
LINE
  8
0
 10
196.602
 11
196.938
 20
-82.531
 21
-82.125
  0
LINE
  8
0
 10
196.938
 11
197.323
 20
-82.125
 21
-81.764
  0
LINE
  8
0
 10
197.323
 11
197.75
 20
-81.764
 21
-81.454
  0
LINE
  8
0
 10
197.75
 11
198.212
 20
-81.454
 21
-81.2
  0
LINE
  8
0
 10
198.212
 11
198.702
 20
-81.2
 21
-81.006
  0
LINE
  8
0
 10
198.702
 11
199.213
 20
-81.006
 21
-80.874
  0
LINE
  8
0
 10
199.213
 11
199.736
 20
-80.874
 21
-80.808
  0
LINE
  8
0
 10
199.736
 11
200.264
 20
-80.808
 21
-80.808
  0
LINE
  8
0
 10
200.264
 11
200.787
 20
-80.808
 21
-80.874
  0
LINE
  8
0
 10
200.787
 11
201.298
 20
-80.874
 21
-81.006
  0
LINE
  8
0
 10
201.298
 11
201.788
 20
-81.006
 21
-81.2
  0
LINE
  8
0
 10
201.788
 11
202.25
 20
-81.2
 21
-81.454
  0
LINE
  8
0
 10
202.25
 11
202.677
 20
-81.454
 21
-81.764
  0
LINE
  8
0
 10
202.677
 11
203.062
 20
-81.764
 21
-82.125
  0
LINE
  8
0
 10
203.062
 11
203.398
 20
-82.125
 21
-82.531
  0
LINE
  8
0
 10
203.398
 11
203.68
 20
-82.531
 21
-82.977
  0
LINE
  8
0
 10
203.68
 11
203.905
 20
-82.977
 21
-83.454
  0
LINE
  8
0
 10
203.905
 11
204.068
 20
-83.454
 21
-83.956
  0
LINE
  8
0
 10
204.068
 11
204.167
 20
-83.956
 21
-84.474
  0
LINE
  8
0
 10
204.167
 11
204.2
 20
-84.474
 21
-85
  0
LINE
  8
0
 10
204.2
 11
204.167
 20
-85
 21
-85.526
  0
LINE
  8
0
 10
204.167
 11
204.068
 20
-85.526
 21
-86.044
  0
LINE
  8
0
 10
204.068
 11
203.905
 20
-86.044
 21
-86.546
  0
LINE
  8
0
 10
203.905
 11
203.68
 20
-86.546
 21
-87.023
  0
LINE
  8
0
 10
203.68
 11
203.398
 20
-87.023
 21
-87.469
  0
LINE
  8
0
 10
203.398
 11
203.062
 20
-87.469
 21
-87.875
  0
LINE
  8
0
 10
203.062
 11
202.677
 20
-87.875
 21
-88.236
  0
LINE
  8
0
 10
202.677
 11
202.25
 20
-88.236
 21
-88.546
  0
LINE
  8
0
 10
202.25
 11
201.788
 20
-88.546
 21
-88.8
  0
LINE
  8
0
 10
201.788
 11
201.298
 20
-88.8
 21
-88.994
  0
LINE
  8
0
 10
201.298
 11
200.787
 20
-88.994
 21
-89.126
  0
LINE
  8
0
 10
200.787
 11
200.264
 20
-89.126
 21
-89.192
  0
LINE
  8
0
 10
200.264
 11
199.736
 20
-89.192
 21
-89.192
  0
LINE
  8
0
 10
199.736
 11
199.213
 20
-89.192
 21
-89.126
  0
LINE
  8
0
 10
199.213
 11
198.702
 20
-89.126
 21
-88.994
  0
LINE
  8
0
 10
198.702
 11
198.212
 20
-88.994
 21
-88.8
  0
LINE
  8
0
 10
198.212
 11
197.75
 20
-88.8
 21
-88.546
  0
LINE
  8
0
 10
197.75
 11
197.323
 20
-88.546
 21
-88.236
  0
LINE
  8
0
 10
197.323
 11
196.938
 20
-88.236
 21
-87.875
  0
LINE
  8
0
 10
196.938
 11
196.602
 20
-87.875
 21
-87.469
  0
LINE
  8
0
 10
196.602
 11
196.32
 20
-87.469
 21
-87.023
  0
LINE
  8
0
 10
196.32
 11
196.095
 20
-87.023
 21
-86.546
  0
LINE
  8
0
 10
196.095
 11
195.932
 20
-86.546
 21
-86.044
  0
LINE
  8
0
 10
195.932
 11
195.833
 20
-86.044
 21
-85.526
  0
LINE
  8
0
 10
195.833
 11
195.8
 20
-85.526
 21
-85
  0
LINE
  8
0
 10
195.8
 11
195.833
 20
85
 21
85.526
  0
LINE
  8
0
 10
195.833
 11
195.932
 20
85.526
 21
86.044
  0
LINE
  8
0
 10
195.932
 11
196.095
 20
86.044
 21
86.546
  0
LINE
  8
0
 10
196.095
 11
196.32
 20
86.546
 21
87.023
  0
LINE
  8
0
 10
196.32
 11
196.602
 20
87.023
 21
87.469
  0
LINE
  8
0
 10
196.602
 11
196.938
 20
87.469
 21
87.875
  0
LINE
  8
0
 10
196.938
 11
197.323
 20
87.875
 21
88.236
  0
LINE
  8
0
 10
197.323
 11
197.75
 20
88.236
 21
88.546
  0
LINE
  8
0
 10
197.75
 11
198.212
 20
88.546
 21
88.8
  0
LINE
  8
0
 10
198.212
 11
198.702
 20
88.8
 21
88.994
  0
LINE
  8
0
 10
198.702
 11
199.213
 20
88.994
 21
89.126
  0
LINE
  8
0
 10
199.213
 11
199.736
 20
89.126
 21
89.192
  0
LINE
  8
0
 10
199.736
 11
200.264
 20
89.192
 21
89.192
  0
LINE
  8
0
 10
200.264
 11
200.787
 20
89.192
 21
89.126
  0
LINE
  8
0
 10
200.787
 11
201.298
 20
89.126
 21
88.994
  0
LINE
  8
0
 10
201.298
 11
201.788
 20
88.994
 21
88.8
  0
LINE
  8
0
 10
201.788
 11
202.25
 20
88.8
 21
88.546
  0
LINE
  8
0
 10
202.25
 11
202.677
 20
88.546
 21
88.236
  0
LINE
  8
0
 10
202.677
 11
203.062
 20
88.236
 21
87.875
  0
LINE
  8
0
 10
203.062
 11
203.398
 20
87.875
 21
87.469
  0
LINE
  8
0
 10
203.398
 11
203.68
 20
87.469
 21
87.023
  0
LINE
  8
0
 10
203.68
 11
203.905
 20
87.023
 21
86.546
  0
LINE
  8
0
 10
203.905
 11
204.068
 20
86.546
 21
86.044
  0
LINE
  8
0
 10
204.068
 11
204.167
 20
86.044
 21
85.526
  0
LINE
  8
0
 10
204.167
 11
204.2
 20
85.526
 21
85
  0
LINE
  8
0
 10
204.2
 11
204.167
 20
85
 21
84.474
  0
LINE
  8
0
 10
204.167
 11
204.068
 20
84.474
 21
83.956
  0
LINE
  8
0
 10
204.068
 11
203.905
 20
83.956
 21
83.454
  0
LINE
  8
0
 10
203.905
 11
203.68
 20
83.454
 21
82.977
  0
LINE
  8
0
 10
203.68
 11
203.398
 20
82.977
 21
82.531
  0
LINE
  8
0
 10
203.398
 11
203.062
 20
82.531
 21
82.125
  0
LINE
  8
0
 10
203.062
 11
202.677
 20
82.125
 21
81.764
  0
LINE
  8
0
 10
202.677
 11
202.25
 20
81.764
 21
81.454
  0
LINE
  8
0
 10
202.25
 11
201.788
 20
81.454
 21
81.2
  0
LINE
  8
0
 10
201.788
 11
201.298
 20
81.2
 21
81.006
  0
LINE
  8
0
 10
201.298
 11
200.787
 20
81.006
 21
80.874
  0
LINE
  8
0
 10
200.787
 11
200.264
 20
80.874
 21
80.808
  0
LINE
  8
0
 10
200.264
 11
199.736
 20
80.808
 21
80.808
  0
LINE
  8
0
 10
199.736
 11
199.213
 20
80.808
 21
80.874
  0
LINE
  8
0
 10
199.213
 11
198.702
 20
80.874
 21
81.006
  0
LINE
  8
0
 10
198.702
 11
198.212
 20
81.006
 21
81.2
  0
LINE
  8
0
 10
198.212
 11
197.75
 20
81.2
 21
81.454
  0
LINE
  8
0
 10
197.75
 11
197.323
 20
81.454
 21
81.764
  0
LINE
  8
0
 10
197.323
 11
196.938
 20
81.764
 21
82.125
  0
LINE
  8
0
 10
196.938
 11
196.602
 20
82.125
 21
82.531
  0
LINE
  8
0
 10
196.602
 11
196.32
 20
82.531
 21
82.977
  0
LINE
  8
0
 10
196.32
 11
196.095
 20
82.977
 21
83.454
  0
LINE
  8
0
 10
196.095
 11
195.932
 20
83.454
 21
83.956
  0
LINE
  8
0
 10
195.932
 11
195.833
 20
83.956
 21
84.474
  0
LINE
  8
0
 10
195.833
 11
195.8
 20
84.474
 21
85
  0
LINE
  8
0
 10
198.5
 11
198.512
 20
-97.5
 21
-97.312
  0
LINE
  8
0
 10
198.512
 11
198.547
 20
-97.312
 21
-97.127
  0
LINE
  8
0
 10
198.547
 11
198.605
 20
-97.127
 21
-96.948
  0
LINE
  8
0
 10
198.605
 11
198.686
 20
-96.948
 21
-96.777
  0
LINE
  8
0
 10
198.686
 11
198.786
 20
-96.777
 21
-96.618
  0
LINE
  8
0
 10
198.786
 11
198.907
 20
-96.618
 21
-96.473
  0
LINE
  8
0
 10
198.907
 11
199.044
 20
-96.473
 21
-96.344
  0
LINE
  8
0
 10
199.044
 11
199.196
 20
-96.344
 21
-96.234
  0
LINE
  8
0
 10
199.196
 11
199.361
 20
-96.234
 21
-96.143
  0
LINE
  8
0
 10
199.361
 11
199.536
 20
-96.143
 21
-96.073
  0
LINE
  8
0
 10
199.536
 11
199.719
 20
-96.073
 21
-96.027
  0
LINE
  8
0
 10
199.719
 11
199.906
 20
-96.027
 21
-96.003
  0
LINE
  8
0
 10
199.906
 11
200.094
 20
-96.003
 21
-96.003
  0
LINE
  8
0
 10
200.094
 11
200.281
 20
-96.003
 21
-96.027
  0
LINE
  8
0
 10
200.281
 11
200.464
 20
-96.027
 21
-96.073
  0
LINE
  8
0
 10
200.464
 11
200.639
 20
-96.073
 21
-96.143
  0
LINE
  8
0
 10
200.639
 11
200.804
 20
-96.143
 21
-96.234
  0
LINE
  8
0
 10
200.804
 11
200.956
 20
-96.234
 21
-96.344
  0
LINE
  8
0
 10
200.956
 11
201.093
 20
-96.344
 21
-96.473
  0
LINE
  8
0
 10
201.093
 11
201.214
 20
-96.473
 21
-96.618
  0
LINE
  8
0
 10
201.214
 11
201.314
 20
-96.618
 21
-96.777
  0
LINE
  8
0
 10
201.314
 11
201.395
 20
-96.777
 21
-96.948
  0
LINE
  8
0
 10
201.395
 11
201.453
 20
-96.948
 21
-97.127
  0
LINE
  8
0
 10
201.453
 11
201.488
 20
-97.127
 21
-97.312
  0
LINE
  8
0
 10
201.488
 11
201.5
 20
-97.312
 21
-97.5
  0
LINE
  8
0
 10
201.5
 11
201.488
 20
-97.5
 21
-97.688
  0
LINE
  8
0
 10
201.488
 11
201.453
 20
-97.688
 21
-97.873
  0
LINE
  8
0
 10
201.453
 11
201.395
 20
-97.873
 21
-98.052
  0
LINE
  8
0
 10
201.395
 11
201.314
 20
-98.052
 21
-98.223
  0
LINE
  8
0
 10
201.314
 11
201.214
 20
-98.223
 21
-98.382
  0
LINE
  8
0
 10
201.214
 11
201.093
 20
-98.382
 21
-98.527
  0
LINE
  8
0
 10
201.093
 11
200.956
 20
-98.527
 21
-98.656
  0
LINE
  8
0
 10
200.956
 11
200.804
 20
-98.656
 21
-98.766
  0
LINE
  8
0
 10
200.804
 11
200.639
 20
-98.766
 21
-98.857
  0
LINE
  8
0
 10
200.639
 11
200.464
 20
-98.857
 21
-98.927
  0
LINE
  8
0
 10
200.464
 11
200.281
 20
-98.927
 21
-98.973
  0
LINE
  8
0
 10
200.281
 11
200.094
 20
-98.973
 21
-98.997
  0
LINE
  8
0
 10
200.094
 11
199.906
 20
-98.997
 21
-98.997
  0
LINE
  8
0
 10
199.906
 11
199.719
 20
-98.997
 21
-98.973
  0
LINE
  8
0
 10
199.719
 11
199.536
 20
-98.973
 21
-98.927
  0
LINE
  8
0
 10
199.536
 11
199.361
 20
-98.927
 21
-98.857
  0
LINE
  8
0
 10
199.361
 11
199.196
 20
-98.857
 21
-98.766
  0
LINE
  8
0
 10
199.196
 11
199.044
 20
-98.766
 21
-98.656
  0
LINE
  8
0
 10
199.044
 11
198.907
 20
-98.656
 21
-98.527
  0
LINE
  8
0
 10
198.907
 11
198.786
 20
-98.527
 21
-98.382
  0
LINE
  8
0
 10
198.786
 11
198.686
 20
-98.382
 21
-98.223
  0
LINE
  8
0
 10
198.686
 11
198.605
 20
-98.223
 21
-98.052
  0
LINE
  8
0
 10
198.605
 11
198.547
 20
-98.052
 21
-97.873
  0
LINE
  8
0
 10
198.547
 11
198.512
 20
-97.873
 21
-97.688
  0
LINE
  8
0
 10
198.512
 11
198.5
 20
-97.688
 21
-97.5
  0
LINE
  8
0
 10
198.5
 11
198.512
 20
-72.5
 21
-72.312
  0
LINE
  8
0
 10
198.512
 11
198.547
 20
-72.312
 21
-72.127
  0
LINE
  8
0
 10
198.547
 11
198.605
 20
-72.127
 21
-71.948
  0
LINE
  8
0
 10
198.605
 11
198.686
 20
-71.948
 21
-71.777
  0
LINE
  8
0
 10
198.686
 11
198.786
 20
-71.777
 21
-71.618
  0
LINE
  8
0
 10
198.786
 11
198.907
 20
-71.618
 21
-71.473
  0
LINE
  8
0
 10
198.907
 11
199.044
 20
-71.473
 21
-71.344
  0
LINE
  8
0
 10
199.044
 11
199.196
 20
-71.344
 21
-71.234
  0
LINE
  8
0
 10
199.196
 11
199.361
 20
-71.234
 21
-71.143
  0
LINE
  8
0
 10
199.361
 11
199.536
 20
-71.143
 21
-71.073
  0
LINE
  8
0
 10
199.536
 11
199.719
 20
-71.073
 21
-71.027
  0
LINE
  8
0
 10
199.719
 11
199.906
 20
-71.027
 21
-71.003
  0
LINE
  8
0
 10
199.906
 11
200.094
 20
-71.003
 21
-71.003
  0
LINE
  8
0
 10
200.094
 11
200.281
 20
-71.003
 21
-71.027
  0
LINE
  8
0
 10
200.281
 11
200.464
 20
-71.027
 21
-71.073
  0
LINE
  8
0
 10
200.464
 11
200.639
 20
-71.073
 21
-71.143
  0
LINE
  8
0
 10
200.639
 11
200.804
 20
-71.143
 21
-71.234
  0
LINE
  8
0
 10
200.804
 11
200.956
 20
-71.234
 21
-71.344
  0
LINE
  8
0
 10
200.956
 11
201.093
 20
-71.344
 21
-71.473
  0
LINE
  8
0
 10
201.093
 11
201.214
 20
-71.473
 21
-71.618
  0
LINE
  8
0
 10
201.214
 11
201.314
 20
-71.618
 21
-71.777
  0
LINE
  8
0
 10
201.314
 11
201.395
 20
-71.777
 21
-71.948
  0
LINE
  8
0
 10
201.395
 11
201.453
 20
-71.948
 21
-72.127
  0
LINE
  8
0
 10
201.453
 11
201.488
 20
-72.127
 21
-72.312
  0
LINE
  8
0
 10
201.488
 11
201.5
 20
-72.312
 21
-72.5
  0
LINE
  8
0
 10
201.5
 11
201.488
 20
-72.5
 21
-72.688
  0
LINE
  8
0
 10
201.488
 11
201.453
 20
-72.688
 21
-72.873
  0
LINE
  8
0
 10
201.453
 11
201.395
 20
-72.873
 21
-73.052
  0
LINE
  8
0
 10
201.395
 11
201.314
 20
-73.052
 21
-73.223
  0
LINE
  8
0
 10
201.314
 11
201.214
 20
-73.223
 21
-73.382
  0
LINE
  8
0
 10
201.214
 11
201.093
 20
-73.382
 21
-73.527
  0
LINE
  8
0
 10
201.093
 11
200.956
 20
-73.527
 21
-73.656
  0
LINE
  8
0
 10
200.956
 11
200.804
 20
-73.656
 21
-73.766
  0
LINE
  8
0
 10
200.804
 11
200.639
 20
-73.766
 21
-73.857
  0
LINE
  8
0
 10
200.639
 11
200.464
 20
-73.857
 21
-73.927
  0
LINE
  8
0
 10
200.464
 11
200.281
 20
-73.927
 21
-73.973
  0
LINE
  8
0
 10
200.281
 11
200.094
 20
-73.973
 21
-73.997
  0
LINE
  8
0
 10
200.094
 11
199.906
 20
-73.997
 21
-73.997
  0
LINE
  8
0
 10
199.906
 11
199.719
 20
-73.997
 21
-73.973
  0
LINE
  8
0
 10
199.719
 11
199.536
 20
-73.973
 21
-73.927
  0
LINE
  8
0
 10
199.536
 11
199.361
 20
-73.927
 21
-73.857
  0
LINE
  8
0
 10
199.361
 11
199.196
 20
-73.857
 21
-73.766
  0
LINE
  8
0
 10
199.196
 11
199.044
 20
-73.766
 21
-73.656
  0
LINE
  8
0
 10
199.044
 11
198.907
 20
-73.656
 21
-73.527
  0
LINE
  8
0
 10
198.907
 11
198.786
 20
-73.527
 21
-73.382
  0
LINE
  8
0
 10
198.786
 11
198.686
 20
-73.382
 21
-73.223
  0
LINE
  8
0
 10
198.686
 11
198.605
 20
-73.223
 21
-73.052
  0
LINE
  8
0
 10
198.605
 11
198.547
 20
-73.052
 21
-72.873
  0
LINE
  8
0
 10
198.547
 11
198.512
 20
-72.873
 21
-72.688
  0
LINE
  8
0
 10
198.512
 11
198.5
 20
-72.688
 21
-72.5
  0
LINE
  8
0
 10
198.5
 11
198.512
 20
72.5
 21
72.688
  0
LINE
  8
0
 10
198.512
 11
198.547
 20
72.688
 21
72.873
  0
LINE
  8
0
 10
198.547
 11
198.605
 20
72.873
 21
73.052
  0
LINE
  8
0
 10
198.605
 11
198.686
 20
73.052
 21
73.223
  0
LINE
  8
0
 10
198.686
 11
198.786
 20
73.223
 21
73.382
  0
LINE
  8
0
 10
198.786
 11
198.907
 20
73.382
 21
73.527
  0
LINE
  8
0
 10
198.907
 11
199.044
 20
73.527
 21
73.656
  0
LINE
  8
0
 10
199.044
 11
199.196
 20
73.656
 21
73.766
  0
LINE
  8
0
 10
199.196
 11
199.361
 20
73.766
 21
73.857
  0
LINE
  8
0
 10
199.361
 11
199.536
 20
73.857
 21
73.927
  0
LINE
  8
0
 10
199.536
 11
199.719
 20
73.927
 21
73.973
  0
LINE
  8
0
 10
199.719
 11
199.906
 20
73.973
 21
73.997
  0
LINE
  8
0
 10
199.906
 11
200.094
 20
73.997
 21
73.997
  0
LINE
  8
0
 10
200.094
 11
200.281
 20
73.997
 21
73.973
  0
LINE
  8
0
 10
200.281
 11
200.464
 20
73.973
 21
73.927
  0
LINE
  8
0
 10
200.464
 11
200.639
 20
73.927
 21
73.857
  0
LINE
  8
0
 10
200.639
 11
200.804
 20
73.857
 21
73.766
  0
LINE
  8
0
 10
200.804
 11
200.956
 20
73.766
 21
73.656
  0
LINE
  8
0
 10
200.956
 11
201.093
 20
73.656
 21
73.527
  0
LINE
  8
0
 10
201.093
 11
201.214
 20
73.527
 21
73.382
  0
LINE
  8
0
 10
201.214
 11
201.314
 20
73.382
 21
73.223
  0
LINE
  8
0
 10
201.314
 11
201.395
 20
73.223
 21
73.052
  0
LINE
  8
0
 10
201.395
 11
201.453
 20
73.052
 21
72.873
  0
LINE
  8
0
 10
201.453
 11
201.488
 20
72.873
 21
72.688
  0
LINE
  8
0
 10
201.488
 11
201.5
 20
72.688
 21
72.5
  0
LINE
  8
0
 10
201.5
 11
201.488
 20
72.5
 21
72.312
  0
LINE
  8
0
 10
201.488
 11
201.453
 20
72.312
 21
72.127
  0
LINE
  8
0
 10
201.453
 11
201.395
 20
72.127
 21
71.948
  0
LINE
  8
0
 10
201.395
 11
201.314
 20
71.948
 21
71.777
  0
LINE
  8
0
 10
201.314
 11
201.214
 20
71.777
 21
71.618
  0
LINE
  8
0
 10
201.214
 11
201.093
 20
71.618
 21
71.473
  0
LINE
  8
0
 10
201.093
 11
200.956
 20
71.473
 21
71.344
  0
LINE
  8
0
 10
200.956
 11
200.804
 20
71.344
 21
71.234
  0
LINE
  8
0
 10
200.804
 11
200.639
 20
71.234
 21
71.143
  0
LINE
  8
0
 10
200.639
 11
200.464
 20
71.143
 21
71.073
  0
LINE
  8
0
 10
200.464
 11
200.281
 20
71.073
 21
71.027
  0
LINE
  8
0
 10
200.281
 11
200.094
 20
71.027
 21
71.003
  0
LINE
  8
0
 10
200.094
 11
199.906
 20
71.003
 21
71.003
  0
LINE
  8
0
 10
199.906
 11
199.719
 20
71.003
 21
71.027
  0
LINE
  8
0
 10
199.719
 11
199.536
 20
71.027
 21
71.073
  0
LINE
  8
0
 10
199.536
 11
199.361
 20
71.073
 21
71.143
  0
LINE
  8
0
 10
199.361
 11
199.196
 20
71.143
 21
71.234
  0
LINE
  8
0
 10
199.196
 11
199.044
 20
71.234
 21
71.344
  0
LINE
  8
0
 10
199.044
 11
198.907
 20
71.344
 21
71.473
  0
LINE
  8
0
 10
198.907
 11
198.786
 20
71.473
 21
71.618
  0
LINE
  8
0
 10
198.786
 11
198.686
 20
71.618
 21
71.777
  0
LINE
  8
0
 10
198.686
 11
198.605
 20
71.777
 21
71.948
  0
LINE
  8
0
 10
198.605
 11
198.547
 20
71.948
 21
72.127
  0
LINE
  8
0
 10
198.547
 11
198.512
 20
72.127
 21
72.312
  0
LINE
  8
0
 10
198.512
 11
198.5
 20
72.312
 21
72.5
  0
LINE
  8
0
 10
198.5
 11
198.512
 20
97.5
 21
97.688
  0
LINE
  8
0
 10
198.512
 11
198.547
 20
97.688
 21
97.873
  0
LINE
  8
0
 10
198.547
 11
198.605
 20
97.873
 21
98.052
  0
LINE
  8
0
 10
198.605
 11
198.686
 20
98.052
 21
98.223
  0
LINE
  8
0
 10
198.686
 11
198.786
 20
98.223
 21
98.382
  0
LINE
  8
0
 10
198.786
 11
198.907
 20
98.382
 21
98.527
  0
LINE
  8
0
 10
198.907
 11
199.044
 20
98.527
 21
98.656
  0
LINE
  8
0
 10
199.044
 11
199.196
 20
98.656
 21
98.766
  0
LINE
  8
0
 10
199.196
 11
199.361
 20
98.766
 21
98.857
  0
LINE
  8
0
 10
199.361
 11
199.536
 20
98.857
 21
98.927
  0
LINE
  8
0
 10
199.536
 11
199.719
 20
98.927
 21
98.973
  0
LINE
  8
0
 10
199.719
 11
199.906
 20
98.973
 21
98.997
  0
LINE
  8
0
 10
199.906
 11
200.094
 20
98.997
 21
98.997
  0
LINE
  8
0
 10
200.094
 11
200.281
 20
98.997
 21
98.973
  0
LINE
  8
0
 10
200.281
 11
200.464
 20
98.973
 21
98.927
  0
LINE
  8
0
 10
200.464
 11
200.639
 20
98.927
 21
98.857
  0
LINE
  8
0
 10
200.639
 11
200.804
 20
98.857
 21
98.766
  0
LINE
  8
0
 10
200.804
 11
200.956
 20
98.766
 21
98.656
  0
LINE
  8
0
 10
200.956
 11
201.093
 20
98.656
 21
98.527
  0
LINE
  8
0
 10
201.093
 11
201.214
 20
98.527
 21
98.382
  0
LINE
  8
0
 10
201.214
 11
201.314
 20
98.382
 21
98.223
  0
LINE
  8
0
 10
201.314
 11
201.395
 20
98.223
 21
98.052
  0
LINE
  8
0
 10
201.395
 11
201.453
 20
98.052
 21
97.873
  0
LINE
  8
0
 10
201.453
 11
201.488
 20
97.873
 21
97.688
  0
LINE
  8
0
 10
201.488
 11
201.5
 20
97.688
 21
97.5
  0
LINE
  8
0
 10
201.5
 11
201.488
 20
97.5
 21
97.312
  0
LINE
  8
0
 10
201.488
 11
201.453
 20
97.312
 21
97.127
  0
LINE
  8
0
 10
201.453
 11
201.395
 20
97.127
 21
96.948
  0
LINE
  8
0
 10
201.395
 11
201.314
 20
96.948
 21
96.777
  0
LINE
  8
0
 10
201.314
 11
201.214
 20
96.777
 21
96.618
  0
LINE
  8
0
 10
201.214
 11
201.093
 20
96.618
 21
96.473
  0
LINE
  8
0
 10
201.093
 11
200.956
 20
96.473
 21
96.344
  0
LINE
  8
0
 10
200.956
 11
200.804
 20
96.344
 21
96.234
  0
LINE
  8
0
 10
200.804
 11
200.639
 20
96.234
 21
96.143
  0
LINE
  8
0
 10
200.639
 11
200.464
 20
96.143
 21
96.073
  0
LINE
  8
0
 10
200.464
 11
200.281
 20
96.073
 21
96.027
  0
LINE
  8
0
 10
200.281
 11
200.094
 20
96.027
 21
96.003
  0
LINE
  8
0
 10
200.094
 11
199.906
 20
96.003
 21
96.003
  0
LINE
  8
0
 10
199.906
 11
199.719
 20
96.003
 21
96.027
  0
LINE
  8
0
 10
199.719
 11
199.536
 20
96.027
 21
96.073
  0
LINE
  8
0
 10
199.536
 11
199.361
 20
96.073
 21
96.143
  0
LINE
  8
0
 10
199.361
 11
199.196
 20
96.143
 21
96.234
  0
LINE
  8
0
 10
199.196
 11
199.044
 20
96.234
 21
96.344
  0
LINE
  8
0
 10
199.044
 11
198.907
 20
96.344
 21
96.473
  0
LINE
  8
0
 10
198.907
 11
198.786
 20
96.473
 21
96.618
  0
LINE
  8
0
 10
198.786
 11
198.686
 20
96.618
 21
96.777
  0
LINE
  8
0
 10
198.686
 11
198.605
 20
96.777
 21
96.948
  0
LINE
  8
0
 10
198.605
 11
198.547
 20
96.948
 21
97.127
  0
LINE
  8
0
 10
198.547
 11
198.512
 20
97.127
 21
97.312
  0
LINE
  8
0
 10
198.512
 11
198.5
 20
97.312
 21
97.5
  0
LINE
  8
0
 10
207.5
 11
207.5
 20
-100
 21
-95
  0
LINE
  8
0
 10
207.5
 11
212.5
 20
-95
 21
-95
  0
LINE
  8
0
 10
212.5
 11
212.5
 20
-95
 21
-100
  0
LINE
  8
0
 10
212.5
 11
207.5
 20
-100
 21
-100
  0
LINE
  8
0
 10
207.5
 11
207.5
 20
-75
 21
-70
  0
LINE
  8
0
 10
207.5
 11
212.5
 20
-70
 21
-70
  0
LINE
  8
0
 10
212.5
 11
212.5
 20
-70
 21
-75
  0
LINE
  8
0
 10
212.5
 11
207.5
 20
-75
 21
-75
  0
LINE
  8
0
 10
207.5
 11
207.5
 20
70
 21
75
  0
LINE
  8
0
 10
207.5
 11
212.5
 20
75
 21
75
  0
LINE
  8
0
 10
212.5
 11
212.5
 20
75
 21
70
  0
LINE
  8
0
 10
212.5
 11
207.5
 20
70
 21
70
  0
LINE
  8
0
 10
207.5
 11
207.5
 20
95
 21
100
  0
LINE
  8
0
 10
207.5
 11
212.5
 20
100
 21
100
  0
LINE
  8
0
 10
212.5
 11
212.5
 20
100
 21
95
  0
LINE
  8
0
 10
212.5
 11
207.5
 20
95
 21
95
  0
ENDSEC
  0
SECTION
  2
OBJECTS
  0
DICTIONARY
  0
ENDSEC
  0
EOF
