  0
SECTION
  2
BLOCKS
  0
ENDSEC
  0
SECTION
  2
ENTITIES
  0
LINE
  8
0
 10
-225
 11
-225
 20
-225
 21
225
  0
LINE
  8
0
 10
-225
 11
225
 20
225
 21
225
  0
LINE
  8
0
 10
225
 11
225
 20
225
 21
-225
  0
LINE
  8
0
 10
225
 11
-225
 20
-225
 21
-225
  0
LINE
  8
0
 10
-216.5
 11
-216.488
 20
-215
 21
-214.812
  0
LINE
  8
0
 10
-216.488
 11
-216.453
 20
-214.812
 21
-214.627
  0
LINE
  8
0
 10
-216.453
 11
-216.395
 20
-214.627
 21
-214.448
  0
LINE
  8
0
 10
-216.395
 11
-216.314
 20
-214.448
 21
-214.277
  0
LINE
  8
0
 10
-216.314
 11
-216.214
 20
-214.277
 21
-214.118
  0
LINE
  8
0
 10
-216.214
 11
-216.093
 20
-214.118
 21
-213.973
  0
LINE
  8
0
 10
-216.093
 11
-215.956
 20
-213.973
 21
-213.844
  0
LINE
  8
0
 10
-215.956
 11
-215.804
 20
-213.844
 21
-213.734
  0
LINE
  8
0
 10
-215.804
 11
-215.639
 20
-213.734
 21
-213.643
  0
LINE
  8
0
 10
-215.639
 11
-215.464
 20
-213.643
 21
-213.573
  0
LINE
  8
0
 10
-215.464
 11
-215.281
 20
-213.573
 21
-213.527
  0
LINE
  8
0
 10
-215.281
 11
-215.094
 20
-213.527
 21
-213.503
  0
LINE
  8
0
 10
-215.094
 11
-214.906
 20
-213.503
 21
-213.503
  0
LINE
  8
0
 10
-214.906
 11
-214.719
 20
-213.503
 21
-213.527
  0
LINE
  8
0
 10
-214.719
 11
-214.536
 20
-213.527
 21
-213.573
  0
LINE
  8
0
 10
-214.536
 11
-214.361
 20
-213.573
 21
-213.643
  0
LINE
  8
0
 10
-214.361
 11
-214.196
 20
-213.643
 21
-213.734
  0
LINE
  8
0
 10
-214.196
 11
-214.044
 20
-213.734
 21
-213.844
  0
LINE
  8
0
 10
-214.044
 11
-213.907
 20
-213.844
 21
-213.973
  0
LINE
  8
0
 10
-213.907
 11
-213.786
 20
-213.973
 21
-214.118
  0
LINE
  8
0
 10
-213.786
 11
-213.686
 20
-214.118
 21
-214.277
  0
LINE
  8
0
 10
-213.686
 11
-213.605
 20
-214.277
 21
-214.448
  0
LINE
  8
0
 10
-213.605
 11
-213.547
 20
-214.448
 21
-214.627
  0
LINE
  8
0
 10
-213.547
 11
-213.512
 20
-214.627
 21
-214.812
  0
LINE
  8
0
 10
-213.512
 11
-213.5
 20
-214.812
 21
-215
  0
LINE
  8
0
 10
-213.5
 11
-213.512
 20
-215
 21
-215.188
  0
LINE
  8
0
 10
-213.512
 11
-213.547
 20
-215.188
 21
-215.373
  0
LINE
  8
0
 10
-213.547
 11
-213.605
 20
-215.373
 21
-215.552
  0
LINE
  8
0
 10
-213.605
 11
-213.686
 20
-215.552
 21
-215.723
  0
LINE
  8
0
 10
-213.686
 11
-213.786
 20
-215.723
 21
-215.882
  0
LINE
  8
0
 10
-213.786
 11
-213.907
 20
-215.882
 21
-216.027
  0
LINE
  8
0
 10
-213.907
 11
-214.044
 20
-216.027
 21
-216.156
  0
LINE
  8
0
 10
-214.044
 11
-214.196
 20
-216.156
 21
-216.266
  0
LINE
  8
0
 10
-214.196
 11
-214.361
 20
-216.266
 21
-216.357
  0
LINE
  8
0
 10
-214.361
 11
-214.536
 20
-216.357
 21
-216.427
  0
LINE
  8
0
 10
-214.536
 11
-214.719
 20
-216.427
 21
-216.473
  0
LINE
  8
0
 10
-214.719
 11
-214.906
 20
-216.473
 21
-216.497
  0
LINE
  8
0
 10
-214.906
 11
-215.094
 20
-216.497
 21
-216.497
  0
LINE
  8
0
 10
-215.094
 11
-215.281
 20
-216.497
 21
-216.473
  0
LINE
  8
0
 10
-215.281
 11
-215.464
 20
-216.473
 21
-216.427
  0
LINE
  8
0
 10
-215.464
 11
-215.639
 20
-216.427
 21
-216.357
  0
LINE
  8
0
 10
-215.639
 11
-215.804
 20
-216.357
 21
-216.266
  0
LINE
  8
0
 10
-215.804
 11
-215.956
 20
-216.266
 21
-216.156
  0
LINE
  8
0
 10
-215.956
 11
-216.093
 20
-216.156
 21
-216.027
  0
LINE
  8
0
 10
-216.093
 11
-216.214
 20
-216.027
 21
-215.882
  0
LINE
  8
0
 10
-216.214
 11
-216.314
 20
-215.882
 21
-215.723
  0
LINE
  8
0
 10
-216.314
 11
-216.395
 20
-215.723
 21
-215.552
  0
LINE
  8
0
 10
-216.395
 11
-216.453
 20
-215.552
 21
-215.373
  0
LINE
  8
0
 10
-216.453
 11
-216.488
 20
-215.373
 21
-215.188
  0
LINE
  8
0
 10
-216.488
 11
-216.5
 20
-215.188
 21
-215
  0
LINE
  8
0
 10
-216.5
 11
-216.488
 20
0
 21
0.188
  0
LINE
  8
0
 10
-216.488
 11
-216.453
 20
0.188
 21
0.373
  0
LINE
  8
0
 10
-216.453
 11
-216.395
 20
0.373
 21
0.552
  0
LINE
  8
0
 10
-216.395
 11
-216.314
 20
0.552
 21
0.723
  0
LINE
  8
0
 10
-216.314
 11
-216.214
 20
0.723
 21
0.882
  0
LINE
  8
0
 10
-216.214
 11
-216.093
 20
0.882
 21
1.027
  0
LINE
  8
0
 10
-216.093
 11
-215.956
 20
1.027
 21
1.156
  0
LINE
  8
0
 10
-215.956
 11
-215.804
 20
1.156
 21
1.266
  0
LINE
  8
0
 10
-215.804
 11
-215.639
 20
1.266
 21
1.357
  0
LINE
  8
0
 10
-215.639
 11
-215.464
 20
1.357
 21
1.427
  0
LINE
  8
0
 10
-215.464
 11
-215.281
 20
1.427
 21
1.473
  0
LINE
  8
0
 10
-215.281
 11
-215.094
 20
1.473
 21
1.497
  0
LINE
  8
0
 10
-215.094
 11
-214.906
 20
1.497
 21
1.497
  0
LINE
  8
0
 10
-214.906
 11
-214.719
 20
1.497
 21
1.473
  0
LINE
  8
0
 10
-214.719
 11
-214.536
 20
1.473
 21
1.427
  0
LINE
  8
0
 10
-214.536
 11
-214.361
 20
1.427
 21
1.357
  0
LINE
  8
0
 10
-214.361
 11
-214.196
 20
1.357
 21
1.266
  0
LINE
  8
0
 10
-214.196
 11
-214.044
 20
1.266
 21
1.156
  0
LINE
  8
0
 10
-214.044
 11
-213.907
 20
1.156
 21
1.027
  0
LINE
  8
0
 10
-213.907
 11
-213.786
 20
1.027
 21
0.882
  0
LINE
  8
0
 10
-213.786
 11
-213.686
 20
0.882
 21
0.723
  0
LINE
  8
0
 10
-213.686
 11
-213.605
 20
0.723
 21
0.552
  0
LINE
  8
0
 10
-213.605
 11
-213.547
 20
0.552
 21
0.373
  0
LINE
  8
0
 10
-213.547
 11
-213.512
 20
0.373
 21
0.188
  0
LINE
  8
0
 10
-213.512
 11
-213.5
 20
0.188
 21
0
  0
LINE
  8
0
 10
-213.5
 11
-213.512
 20
0
 21
-0.188
  0
LINE
  8
0
 10
-213.512
 11
-213.547
 20
-0.188
 21
-0.373
  0
LINE
  8
0
 10
-213.547
 11
-213.605
 20
-0.373
 21
-0.552
  0
LINE
  8
0
 10
-213.605
 11
-213.686
 20
-0.552
 21
-0.723
  0
LINE
  8
0
 10
-213.686
 11
-213.786
 20
-0.723
 21
-0.882
  0
LINE
  8
0
 10
-213.786
 11
-213.907
 20
-0.882
 21
-1.027
  0
LINE
  8
0
 10
-213.907
 11
-214.044
 20
-1.027
 21
-1.156
  0
LINE
  8
0
 10
-214.044
 11
-214.196
 20
-1.156
 21
-1.266
  0
LINE
  8
0
 10
-214.196
 11
-214.361
 20
-1.266
 21
-1.357
  0
LINE
  8
0
 10
-214.361
 11
-214.536
 20
-1.357
 21
-1.427
  0
LINE
  8
0
 10
-214.536
 11
-214.719
 20
-1.427
 21
-1.473
  0
LINE
  8
0
 10
-214.719
 11
-214.906
 20
-1.473
 21
-1.497
  0
LINE
  8
0
 10
-214.906
 11
-215.094
 20
-1.497
 21
-1.497
  0
LINE
  8
0
 10
-215.094
 11
-215.281
 20
-1.497
 21
-1.473
  0
LINE
  8
0
 10
-215.281
 11
-215.464
 20
-1.473
 21
-1.427
  0
LINE
  8
0
 10
-215.464
 11
-215.639
 20
-1.427
 21
-1.357
  0
LINE
  8
0
 10
-215.639
 11
-215.804
 20
-1.357
 21
-1.266
  0
LINE
  8
0
 10
-215.804
 11
-215.956
 20
-1.266
 21
-1.156
  0
LINE
  8
0
 10
-215.956
 11
-216.093
 20
-1.156
 21
-1.027
  0
LINE
  8
0
 10
-216.093
 11
-216.214
 20
-1.027
 21
-0.882
  0
LINE
  8
0
 10
-216.214
 11
-216.314
 20
-0.882
 21
-0.723
  0
LINE
  8
0
 10
-216.314
 11
-216.395
 20
-0.723
 21
-0.552
  0
LINE
  8
0
 10
-216.395
 11
-216.453
 20
-0.552
 21
-0.373
  0
LINE
  8
0
 10
-216.453
 11
-216.488
 20
-0.373
 21
-0.188
  0
LINE
  8
0
 10
-216.488
 11
-216.5
 20
-0.188
 21
0
  0
LINE
  8
0
 10
-216.497
 11
-216.497
 20
214.906
 21
215.094
  0
LINE
  8
0
 10
-216.497
 11
-216.473
 20
215.094
 21
215.281
  0
LINE
  8
0
 10
-216.473
 11
-216.427
 20
215.281
 21
215.464
  0
LINE
  8
0
 10
-216.427
 11
-216.357
 20
215.464
 21
215.639
  0
LINE
  8
0
 10
-216.357
 11
-216.266
 20
215.639
 21
215.804
  0
LINE
  8
0
 10
-216.266
 11
-216.156
 20
215.804
 21
215.956
  0
LINE
  8
0
 10
-216.156
 11
-216.027
 20
215.956
 21
216.093
  0
LINE
  8
0
 10
-216.027
 11
-215.882
 20
216.093
 21
216.214
  0
LINE
  8
0
 10
-215.882
 11
-215.723
 20
216.214
 21
216.314
  0
LINE
  8
0
 10
-215.723
 11
-215.552
 20
216.314
 21
216.395
  0
LINE
  8
0
 10
-215.552
 11
-215.373
 20
216.395
 21
216.453
  0
LINE
  8
0
 10
-215.373
 11
-215.188
 20
216.453
 21
216.488
  0
LINE
  8
0
 10
-215.188
 11
-215
 20
216.488
 21
216.5
  0
LINE
  8
0
 10
-215
 11
-214.812
 20
216.5
 21
216.488
  0
LINE
  8
0
 10
-214.812
 11
-214.627
 20
216.488
 21
216.453
  0
LINE
  8
0
 10
-214.627
 11
-214.448
 20
216.453
 21
216.395
  0
LINE
  8
0
 10
-214.448
 11
-214.277
 20
216.395
 21
216.314
  0
LINE
  8
0
 10
-214.277
 11
-214.118
 20
216.314
 21
216.214
  0
LINE
  8
0
 10
-214.118
 11
-213.973
 20
216.214
 21
216.093
  0
LINE
  8
0
 10
-213.973
 11
-213.844
 20
216.093
 21
215.956
  0
LINE
  8
0
 10
-213.844
 11
-213.734
 20
215.956
 21
215.804
  0
LINE
  8
0
 10
-213.734
 11
-213.643
 20
215.804
 21
215.639
  0
LINE
  8
0
 10
-213.643
 11
-213.573
 20
215.639
 21
215.464
  0
LINE
  8
0
 10
-213.573
 11
-213.527
 20
215.464
 21
215.281
  0
LINE
  8
0
 10
-213.527
 11
-213.503
 20
215.281
 21
215.094
  0
LINE
  8
0
 10
-213.503
 11
-213.503
 20
215.094
 21
214.906
  0
LINE
  8
0
 10
-213.503
 11
-213.527
 20
214.906
 21
214.719
  0
LINE
  8
0
 10
-213.527
 11
-213.573
 20
214.719
 21
214.536
  0
LINE
  8
0
 10
-213.573
 11
-213.643
 20
214.536
 21
214.361
  0
LINE
  8
0
 10
-213.643
 11
-213.734
 20
214.361
 21
214.196
  0
LINE
  8
0
 10
-213.734
 11
-213.844
 20
214.196
 21
214.044
  0
LINE
  8
0
 10
-213.844
 11
-213.973
 20
214.044
 21
213.907
  0
LINE
  8
0
 10
-213.973
 11
-214.118
 20
213.907
 21
213.786
  0
LINE
  8
0
 10
-214.118
 11
-214.277
 20
213.786
 21
213.686
  0
LINE
  8
0
 10
-214.277
 11
-214.448
 20
213.686
 21
213.605
  0
LINE
  8
0
 10
-214.448
 11
-214.627
 20
213.605
 21
213.547
  0
LINE
  8
0
 10
-214.627
 11
-214.812
 20
213.547
 21
213.512
  0
LINE
  8
0
 10
-214.812
 11
-215
 20
213.512
 21
213.5
  0
LINE
  8
0
 10
-215
 11
-215.188
 20
213.5
 21
213.512
  0
LINE
  8
0
 10
-215.188
 11
-215.373
 20
213.512
 21
213.547
  0
LINE
  8
0
 10
-215.373
 11
-215.552
 20
213.547
 21
213.605
  0
LINE
  8
0
 10
-215.552
 11
-215.723
 20
213.605
 21
213.686
  0
LINE
  8
0
 10
-215.723
 11
-215.882
 20
213.686
 21
213.786
  0
LINE
  8
0
 10
-215.882
 11
-216.027
 20
213.786
 21
213.907
  0
LINE
  8
0
 10
-216.027
 11
-216.156
 20
213.907
 21
214.044
  0
LINE
  8
0
 10
-216.156
 11
-216.266
 20
214.044
 21
214.196
  0
LINE
  8
0
 10
-216.266
 11
-216.357
 20
214.196
 21
214.361
  0
LINE
  8
0
 10
-216.357
 11
-216.427
 20
214.361
 21
214.536
  0
LINE
  8
0
 10
-216.427
 11
-216.473
 20
214.536
 21
214.719
  0
LINE
  8
0
 10
-216.473
 11
-216.497
 20
214.719
 21
214.906
  0
LINE
  8
0
 10
-202.5
 11
-202.48
 20
-200
 21
-199.687
  0
LINE
  8
0
 10
-202.48
 11
-202.421
 20
-199.687
 21
-199.378
  0
LINE
  8
0
 10
-202.421
 11
-202.324
 20
-199.378
 21
-199.08
  0
LINE
  8
0
 10
-202.324
 11
-202.191
 20
-199.08
 21
-198.796
  0
LINE
  8
0
 10
-202.191
 11
-202.023
 20
-198.796
 21
-198.531
  0
LINE
  8
0
 10
-202.023
 11
-201.822
 20
-198.531
 21
-198.289
  0
LINE
  8
0
 10
-201.822
 11
-201.594
 20
-198.289
 21
-198.074
  0
LINE
  8
0
 10
-201.594
 11
-201.34
 20
-198.074
 21
-197.889
  0
LINE
  8
0
 10
-201.34
 11
-201.064
 20
-197.889
 21
-197.738
  0
LINE
  8
0
 10
-201.064
 11
-200.773
 20
-197.738
 21
-197.622
  0
LINE
  8
0
 10
-200.773
 11
-200.468
 20
-197.622
 21
-197.544
  0
LINE
  8
0
 10
-200.468
 11
-200.157
 20
-197.544
 21
-197.505
  0
LINE
  8
0
 10
-200.157
 11
-199.843
 20
-197.505
 21
-197.505
  0
LINE
  8
0
 10
-199.843
 11
-199.532
 20
-197.505
 21
-197.544
  0
LINE
  8
0
 10
-199.532
 11
-199.227
 20
-197.544
 21
-197.622
  0
LINE
  8
0
 10
-199.227
 11
-198.936
 20
-197.622
 21
-197.738
  0
LINE
  8
0
 10
-198.936
 11
-198.66
 20
-197.738
 21
-197.889
  0
LINE
  8
0
 10
-198.66
 11
-198.406
 20
-197.889
 21
-198.074
  0
LINE
  8
0
 10
-198.406
 11
-198.178
 20
-198.074
 21
-198.289
  0
LINE
  8
0
 10
-198.178
 11
-197.977
 20
-198.289
 21
-198.531
  0
LINE
  8
0
 10
-197.977
 11
-197.809
 20
-198.531
 21
-198.796
  0
LINE
  8
0
 10
-197.809
 11
-197.676
 20
-198.796
 21
-199.08
  0
LINE
  8
0
 10
-197.676
 11
-197.579
 20
-199.08
 21
-199.378
  0
LINE
  8
0
 10
-197.579
 11
-197.52
 20
-199.378
 21
-199.687
  0
LINE
  8
0
 10
-197.52
 11
-197.5
 20
-199.687
 21
-200
  0
LINE
  8
0
 10
-197.5
 11
-197.52
 20
-200
 21
-200.313
  0
LINE
  8
0
 10
-197.52
 11
-197.579
 20
-200.313
 21
-200.622
  0
LINE
  8
0
 10
-197.579
 11
-197.676
 20
-200.622
 21
-200.92
  0
LINE
  8
0
 10
-197.676
 11
-197.809
 20
-200.92
 21
-201.204
  0
LINE
  8
0
 10
-197.809
 11
-197.977
 20
-201.204
 21
-201.469
  0
LINE
  8
0
 10
-197.977
 11
-198.178
 20
-201.469
 21
-201.711
  0
LINE
  8
0
 10
-198.178
 11
-198.406
 20
-201.711
 21
-201.926
  0
LINE
  8
0
 10
-198.406
 11
-198.66
 20
-201.926
 21
-202.111
  0
LINE
  8
0
 10
-198.66
 11
-198.936
 20
-202.111
 21
-202.262
  0
LINE
  8
0
 10
-198.936
 11
-199.227
 20
-202.262
 21
-202.378
  0
LINE
  8
0
 10
-199.227
 11
-199.532
 20
-202.378
 21
-202.456
  0
LINE
  8
0
 10
-199.532
 11
-199.843
 20
-202.456
 21
-202.495
  0
LINE
  8
0
 10
-199.843
 11
-200.157
 20
-202.495
 21
-202.495
  0
LINE
  8
0
 10
-200.157
 11
-200.468
 20
-202.495
 21
-202.456
  0
LINE
  8
0
 10
-200.468
 11
-200.773
 20
-202.456
 21
-202.378
  0
LINE
  8
0
 10
-200.773
 11
-201.064
 20
-202.378
 21
-202.262
  0
LINE
  8
0
 10
-201.064
 11
-201.34
 20
-202.262
 21
-202.111
  0
LINE
  8
0
 10
-201.34
 11
-201.594
 20
-202.111
 21
-201.926
  0
LINE
  8
0
 10
-201.594
 11
-201.822
 20
-201.926
 21
-201.711
  0
LINE
  8
0
 10
-201.822
 11
-202.023
 20
-201.711
 21
-201.469
  0
LINE
  8
0
 10
-202.023
 11
-202.191
 20
-201.469
 21
-201.204
  0
LINE
  8
0
 10
-202.191
 11
-202.324
 20
-201.204
 21
-200.92
  0
LINE
  8
0
 10
-202.324
 11
-202.421
 20
-200.92
 21
-200.622
  0
LINE
  8
0
 10
-202.421
 11
-202.48
 20
-200.622
 21
-200.313
  0
LINE
  8
0
 10
-202.48
 11
-202.5
 20
-200.313
 21
-200
  0
LINE
  8
0
 10
-202.495
 11
-202.495
 20
199.843
 21
200.157
  0
LINE
  8
0
 10
-202.495
 11
-202.456
 20
200.157
 21
200.468
  0
LINE
  8
0
 10
-202.456
 11
-202.378
 20
200.468
 21
200.773
  0
LINE
  8
0
 10
-202.378
 11
-202.262
 20
200.773
 21
201.064
  0
LINE
  8
0
 10
-202.262
 11
-202.111
 20
201.064
 21
201.34
  0
LINE
  8
0
 10
-202.111
 11
-201.926
 20
201.34
 21
201.594
  0
LINE
  8
0
 10
-201.926
 11
-201.711
 20
201.594
 21
201.822
  0
LINE
  8
0
 10
-201.711
 11
-201.469
 20
201.822
 21
202.023
  0
LINE
  8
0
 10
-201.469
 11
-201.204
 20
202.023
 21
202.191
  0
LINE
  8
0
 10
-201.204
 11
-200.92
 20
202.191
 21
202.324
  0
LINE
  8
0
 10
-200.92
 11
-200.622
 20
202.324
 21
202.421
  0
LINE
  8
0
 10
-200.622
 11
-200.313
 20
202.421
 21
202.48
  0
LINE
  8
0
 10
-200.313
 11
-200
 20
202.48
 21
202.5
  0
LINE
  8
0
 10
-200
 11
-199.687
 20
202.5
 21
202.48
  0
LINE
  8
0
 10
-199.687
 11
-199.378
 20
202.48
 21
202.421
  0
LINE
  8
0
 10
-199.378
 11
-199.08
 20
202.421
 21
202.324
  0
LINE
  8
0
 10
-199.08
 11
-198.796
 20
202.324
 21
202.191
  0
LINE
  8
0
 10
-198.796
 11
-198.531
 20
202.191
 21
202.023
  0
LINE
  8
0
 10
-198.531
 11
-198.289
 20
202.023
 21
201.822
  0
LINE
  8
0
 10
-198.289
 11
-198.074
 20
201.822
 21
201.594
  0
LINE
  8
0
 10
-198.074
 11
-197.889
 20
201.594
 21
201.34
  0
LINE
  8
0
 10
-197.889
 11
-197.738
 20
201.34
 21
201.064
  0
LINE
  8
0
 10
-197.738
 11
-197.622
 20
201.064
 21
200.773
  0
LINE
  8
0
 10
-197.622
 11
-197.544
 20
200.773
 21
200.468
  0
LINE
  8
0
 10
-197.544
 11
-197.505
 20
200.468
 21
200.157
  0
LINE
  8
0
 10
-197.505
 11
-197.505
 20
200.157
 21
199.843
  0
LINE
  8
0
 10
-197.505
 11
-197.544
 20
199.843
 21
199.532
  0
LINE
  8
0
 10
-197.544
 11
-197.622
 20
199.532
 21
199.227
  0
LINE
  8
0
 10
-197.622
 11
-197.738
 20
199.227
 21
198.936
  0
LINE
  8
0
 10
-197.738
 11
-197.889
 20
198.936
 21
198.66
  0
LINE
  8
0
 10
-197.889
 11
-198.074
 20
198.66
 21
198.406
  0
LINE
  8
0
 10
-198.074
 11
-198.289
 20
198.406
 21
198.178
  0
LINE
  8
0
 10
-198.289
 11
-198.531
 20
198.178
 21
197.977
  0
LINE
  8
0
 10
-198.531
 11
-198.796
 20
197.977
 21
197.809
  0
LINE
  8
0
 10
-198.796
 11
-199.08
 20
197.809
 21
197.676
  0
LINE
  8
0
 10
-199.08
 11
-199.378
 20
197.676
 21
197.579
  0
LINE
  8
0
 10
-199.378
 11
-199.687
 20
197.579
 21
197.52
  0
LINE
  8
0
 10
-199.687
 11
-200
 20
197.52
 21
197.5
  0
LINE
  8
0
 10
-200
 11
-200.313
 20
197.5
 21
197.52
  0
LINE
  8
0
 10
-200.313
 11
-200.622
 20
197.52
 21
197.579
  0
LINE
  8
0
 10
-200.622
 11
-200.92
 20
197.579
 21
197.676
  0
LINE
  8
0
 10
-200.92
 11
-201.204
 20
197.676
 21
197.809
  0
LINE
  8
0
 10
-201.204
 11
-201.469
 20
197.809
 21
197.977
  0
LINE
  8
0
 10
-201.469
 11
-201.711
 20
197.977
 21
198.178
  0
LINE
  8
0
 10
-201.711
 11
-201.926
 20
198.178
 21
198.406
  0
LINE
  8
0
 10
-201.926
 11
-202.111
 20
198.406
 21
198.66
  0
LINE
  8
0
 10
-202.111
 11
-202.262
 20
198.66
 21
198.936
  0
LINE
  8
0
 10
-202.262
 11
-202.378
 20
198.936
 21
199.227
  0
LINE
  8
0
 10
-202.378
 11
-202.456
 20
199.227
 21
199.532
  0
LINE
  8
0
 10
-202.456
 11
-202.495
 20
199.532
 21
199.843
  0
LINE
  8
0
 10
-1.497
 11
-1.497
 20
-215.094
 21
-214.906
  0
LINE
  8
0
 10
-1.497
 11
-1.473
 20
-214.906
 21
-214.719
  0
LINE
  8
0
 10
-1.473
 11
-1.427
 20
-214.719
 21
-214.536
  0
LINE
  8
0
 10
-1.427
 11
-1.357
 20
-214.536
 21
-214.361
  0
LINE
  8
0
 10
-1.357
 11
-1.266
 20
-214.361
 21
-214.196
  0
LINE
  8
0
 10
-1.266
 11
-1.156
 20
-214.196
 21
-214.044
  0
LINE
  8
0
 10
-1.156
 11
-1.027
 20
-214.044
 21
-213.907
  0
LINE
  8
0
 10
-1.027
 11
-0.882
 20
-213.907
 21
-213.786
  0
LINE
  8
0
 10
-0.882
 11
-0.723
 20
-213.786
 21
-213.686
  0
LINE
  8
0
 10
-0.723
 11
-0.552
 20
-213.686
 21
-213.605
  0
LINE
  8
0
 10
-0.552
 11
-0.373
 20
-213.605
 21
-213.547
  0
LINE
  8
0
 10
-0.373
 11
-0.188
 20
-213.547
 21
-213.512
  0
LINE
  8
0
 10
-0.188
 11
0
 20
-213.512
 21
-213.5
  0
LINE
  8
0
 10
0
 11
0.188
 20
-213.5
 21
-213.512
  0
LINE
  8
0
 10
0.188
 11
0.373
 20
-213.512
 21
-213.547
  0
LINE
  8
0
 10
0.373
 11
0.552
 20
-213.547
 21
-213.605
  0
LINE
  8
0
 10
0.552
 11
0.723
 20
-213.605
 21
-213.686
  0
LINE
  8
0
 10
0.723
 11
0.882
 20
-213.686
 21
-213.786
  0
LINE
  8
0
 10
0.882
 11
1.027
 20
-213.786
 21
-213.907
  0
LINE
  8
0
 10
1.027
 11
1.156
 20
-213.907
 21
-214.044
  0
LINE
  8
0
 10
1.156
 11
1.266
 20
-214.044
 21
-214.196
  0
LINE
  8
0
 10
1.266
 11
1.357
 20
-214.196
 21
-214.361
  0
LINE
  8
0
 10
1.357
 11
1.427
 20
-214.361
 21
-214.536
  0
LINE
  8
0
 10
1.427
 11
1.473
 20
-214.536
 21
-214.719
  0
LINE
  8
0
 10
1.473
 11
1.497
 20
-214.719
 21
-214.906
  0
LINE
  8
0
 10
1.497
 11
1.497
 20
-214.906
 21
-215.094
  0
LINE
  8
0
 10
1.497
 11
1.473
 20
-215.094
 21
-215.281
  0
LINE
  8
0
 10
1.473
 11
1.427
 20
-215.281
 21
-215.464
  0
LINE
  8
0
 10
1.427
 11
1.357
 20
-215.464
 21
-215.639
  0
LINE
  8
0
 10
1.357
 11
1.266
 20
-215.639
 21
-215.804
  0
LINE
  8
0
 10
1.266
 11
1.156
 20
-215.804
 21
-215.956
  0
LINE
  8
0
 10
1.156
 11
1.027
 20
-215.956
 21
-216.093
  0
LINE
  8
0
 10
1.027
 11
0.882
 20
-216.093
 21
-216.214
  0
LINE
  8
0
 10
0.882
 11
0.723
 20
-216.214
 21
-216.314
  0
LINE
  8
0
 10
0.723
 11
0.552
 20
-216.314
 21
-216.395
  0
LINE
  8
0
 10
0.552
 11
0.373
 20
-216.395
 21
-216.453
  0
LINE
  8
0
 10
0.373
 11
0.188
 20
-216.453
 21
-216.488
  0
LINE
  8
0
 10
0.188
 11
0
 20
-216.488
 21
-216.5
  0
LINE
  8
0
 10
0
 11
-0.188
 20
-216.5
 21
-216.488
  0
LINE
  8
0
 10
-0.188
 11
-0.373
 20
-216.488
 21
-216.453
  0
LINE
  8
0
 10
-0.373
 11
-0.552
 20
-216.453
 21
-216.395
  0
LINE
  8
0
 10
-0.552
 11
-0.723
 20
-216.395
 21
-216.314
  0
LINE
  8
0
 10
-0.723
 11
-0.882
 20
-216.314
 21
-216.214
  0
LINE
  8
0
 10
-0.882
 11
-1.027
 20
-216.214
 21
-216.093
  0
LINE
  8
0
 10
-1.027
 11
-1.156
 20
-216.093
 21
-215.956
  0
LINE
  8
0
 10
-1.156
 11
-1.266
 20
-215.956
 21
-215.804
  0
LINE
  8
0
 10
-1.266
 11
-1.357
 20
-215.804
 21
-215.639
  0
LINE
  8
0
 10
-1.357
 11
-1.427
 20
-215.639
 21
-215.464
  0
LINE
  8
0
 10
-1.427
 11
-1.473
 20
-215.464
 21
-215.281
  0
LINE
  8
0
 10
-1.473
 11
-1.497
 20
-215.281
 21
-215.094
  0
LINE
  8
0
 10
-1.497
 11
-1.497
 20
214.906
 21
215.094
  0
LINE
  8
0
 10
-1.497
 11
-1.473
 20
215.094
 21
215.281
  0
LINE
  8
0
 10
-1.473
 11
-1.427
 20
215.281
 21
215.464
  0
LINE
  8
0
 10
-1.427
 11
-1.357
 20
215.464
 21
215.639
  0
LINE
  8
0
 10
-1.357
 11
-1.266
 20
215.639
 21
215.804
  0
LINE
  8
0
 10
-1.266
 11
-1.156
 20
215.804
 21
215.956
  0
LINE
  8
0
 10
-1.156
 11
-1.027
 20
215.956
 21
216.093
  0
LINE
  8
0
 10
-1.027
 11
-0.882
 20
216.093
 21
216.214
  0
LINE
  8
0
 10
-0.882
 11
-0.723
 20
216.214
 21
216.314
  0
LINE
  8
0
 10
-0.723
 11
-0.552
 20
216.314
 21
216.395
  0
LINE
  8
0
 10
-0.552
 11
-0.373
 20
216.395
 21
216.453
  0
LINE
  8
0
 10
-0.373
 11
-0.188
 20
216.453
 21
216.488
  0
LINE
  8
0
 10
-0.188
 11
0
 20
216.488
 21
216.5
  0
LINE
  8
0
 10
0
 11
0.188
 20
216.5
 21
216.488
  0
LINE
  8
0
 10
0.188
 11
0.373
 20
216.488
 21
216.453
  0
LINE
  8
0
 10
0.373
 11
0.552
 20
216.453
 21
216.395
  0
LINE
  8
0
 10
0.552
 11
0.723
 20
216.395
 21
216.314
  0
LINE
  8
0
 10
0.723
 11
0.882
 20
216.314
 21
216.214
  0
LINE
  8
0
 10
0.882
 11
1.027
 20
216.214
 21
216.093
  0
LINE
  8
0
 10
1.027
 11
1.156
 20
216.093
 21
215.956
  0
LINE
  8
0
 10
1.156
 11
1.266
 20
215.956
 21
215.804
  0
LINE
  8
0
 10
1.266
 11
1.357
 20
215.804
 21
215.639
  0
LINE
  8
0
 10
1.357
 11
1.427
 20
215.639
 21
215.464
  0
LINE
  8
0
 10
1.427
 11
1.473
 20
215.464
 21
215.281
  0
LINE
  8
0
 10
1.473
 11
1.497
 20
215.281
 21
215.094
  0
LINE
  8
0
 10
1.497
 11
1.497
 20
215.094
 21
214.906
  0
LINE
  8
0
 10
1.497
 11
1.473
 20
214.906
 21
214.719
  0
LINE
  8
0
 10
1.473
 11
1.427
 20
214.719
 21
214.536
  0
LINE
  8
0
 10
1.427
 11
1.357
 20
214.536
 21
214.361
  0
LINE
  8
0
 10
1.357
 11
1.266
 20
214.361
 21
214.196
  0
LINE
  8
0
 10
1.266
 11
1.156
 20
214.196
 21
214.044
  0
LINE
  8
0
 10
1.156
 11
1.027
 20
214.044
 21
213.907
  0
LINE
  8
0
 10
1.027
 11
0.882
 20
213.907
 21
213.786
  0
LINE
  8
0
 10
0.882
 11
0.723
 20
213.786
 21
213.686
  0
LINE
  8
0
 10
0.723
 11
0.552
 20
213.686
 21
213.605
  0
LINE
  8
0
 10
0.552
 11
0.373
 20
213.605
 21
213.547
  0
LINE
  8
0
 10
0.373
 11
0.188
 20
213.547
 21
213.512
  0
LINE
  8
0
 10
0.188
 11
0
 20
213.512
 21
213.5
  0
LINE
  8
0
 10
0
 11
-0.188
 20
213.5
 21
213.512
  0
LINE
  8
0
 10
-0.188
 11
-0.373
 20
213.512
 21
213.547
  0
LINE
  8
0
 10
-0.373
 11
-0.552
 20
213.547
 21
213.605
  0
LINE
  8
0
 10
-0.552
 11
-0.723
 20
213.605
 21
213.686
  0
LINE
  8
0
 10
-0.723
 11
-0.882
 20
213.686
 21
213.786
  0
LINE
  8
0
 10
-0.882
 11
-1.027
 20
213.786
 21
213.907
  0
LINE
  8
0
 10
-1.027
 11
-1.156
 20
213.907
 21
214.044
  0
LINE
  8
0
 10
-1.156
 11
-1.266
 20
214.044
 21
214.196
  0
LINE
  8
0
 10
-1.266
 11
-1.357
 20
214.196
 21
214.361
  0
LINE
  8
0
 10
-1.357
 11
-1.427
 20
214.361
 21
214.536
  0
LINE
  8
0
 10
-1.427
 11
-1.473
 20
214.536
 21
214.719
  0
LINE
  8
0
 10
-1.473
 11
-1.497
 20
214.719
 21
214.906
  0
LINE
  8
0
 10
105
 11
105.012
 20
-23.5
 21
-23.312
  0
LINE
  8
0
 10
105.012
 11
105.047
 20
-23.312
 21
-23.127
  0
LINE
  8
0
 10
105.047
 11
105.105
 20
-23.127
 21
-22.948
  0
LINE
  8
0
 10
105.105
 11
105.186
 20
-22.948
 21
-22.777
  0
LINE
  8
0
 10
105.186
 11
105.286
 20
-22.777
 21
-22.618
  0
LINE
  8
0
 10
105.286
 11
105.407
 20
-22.618
 21
-22.473
  0
LINE
  8
0
 10
105.407
 11
105.544
 20
-22.473
 21
-22.344
  0
LINE
  8
0
 10
105.544
 11
105.696
 20
-22.344
 21
-22.234
  0
LINE
  8
0
 10
105.696
 11
105.861
 20
-22.234
 21
-22.143
  0
LINE
  8
0
 10
105.861
 11
106.036
 20
-22.143
 21
-22.073
  0
LINE
  8
0
 10
106.036
 11
106.219
 20
-22.073
 21
-22.027
  0
LINE
  8
0
 10
106.219
 11
106.406
 20
-22.027
 21
-22.003
  0
LINE
  8
0
 10
106.406
 11
106.594
 20
-22.003
 21
-22.003
  0
LINE
  8
0
 10
106.594
 11
106.781
 20
-22.003
 21
-22.027
  0
LINE
  8
0
 10
106.781
 11
106.964
 20
-22.027
 21
-22.073
  0
LINE
  8
0
 10
106.964
 11
107.139
 20
-22.073
 21
-22.143
  0
LINE
  8
0
 10
107.139
 11
107.304
 20
-22.143
 21
-22.234
  0
LINE
  8
0
 10
107.304
 11
107.456
 20
-22.234
 21
-22.344
  0
LINE
  8
0
 10
107.456
 11
107.593
 20
-22.344
 21
-22.473
  0
LINE
  8
0
 10
107.593
 11
107.714
 20
-22.473
 21
-22.618
  0
LINE
  8
0
 10
107.714
 11
107.814
 20
-22.618
 21
-22.777
  0
LINE
  8
0
 10
107.814
 11
107.895
 20
-22.777
 21
-22.948
  0
LINE
  8
0
 10
107.895
 11
107.953
 20
-22.948
 21
-23.127
  0
LINE
  8
0
 10
107.953
 11
107.988
 20
-23.127
 21
-23.312
  0
LINE
  8
0
 10
107.988
 11
108
 20
-23.312
 21
-23.5
  0
LINE
  8
0
 10
108
 11
107.988
 20
-23.5
 21
-23.688
  0
LINE
  8
0
 10
107.988
 11
107.953
 20
-23.688
 21
-23.873
  0
LINE
  8
0
 10
107.953
 11
107.895
 20
-23.873
 21
-24.052
  0
LINE
  8
0
 10
107.895
 11
107.814
 20
-24.052
 21
-24.223
  0
LINE
  8
0
 10
107.814
 11
107.714
 20
-24.223
 21
-24.382
  0
LINE
  8
0
 10
107.714
 11
107.593
 20
-24.382
 21
-24.527
  0
LINE
  8
0
 10
107.593
 11
107.456
 20
-24.527
 21
-24.656
  0
LINE
  8
0
 10
107.456
 11
107.304
 20
-24.656
 21
-24.766
  0
LINE
  8
0
 10
107.304
 11
107.139
 20
-24.766
 21
-24.857
  0
LINE
  8
0
 10
107.139
 11
106.964
 20
-24.857
 21
-24.927
  0
LINE
  8
0
 10
106.964
 11
106.781
 20
-24.927
 21
-24.973
  0
LINE
  8
0
 10
106.781
 11
106.594
 20
-24.973
 21
-24.997
  0
LINE
  8
0
 10
106.594
 11
106.406
 20
-24.997
 21
-24.997
  0
LINE
  8
0
 10
106.406
 11
106.219
 20
-24.997
 21
-24.973
  0
LINE
  8
0
 10
106.219
 11
106.036
 20
-24.973
 21
-24.927
  0
LINE
  8
0
 10
106.036
 11
105.861
 20
-24.927
 21
-24.857
  0
LINE
  8
0
 10
105.861
 11
105.696
 20
-24.857
 21
-24.766
  0
LINE
  8
0
 10
105.696
 11
105.544
 20
-24.766
 21
-24.656
  0
LINE
  8
0
 10
105.544
 11
105.407
 20
-24.656
 21
-24.527
  0
LINE
  8
0
 10
105.407
 11
105.286
 20
-24.527
 21
-24.382
  0
LINE
  8
0
 10
105.286
 11
105.186
 20
-24.382
 21
-24.223
  0
LINE
  8
0
 10
105.186
 11
105.105
 20
-24.223
 21
-24.052
  0
LINE
  8
0
 10
105.105
 11
105.047
 20
-24.052
 21
-23.873
  0
LINE
  8
0
 10
105.047
 11
105.012
 20
-23.873
 21
-23.688
  0
LINE
  8
0
 10
105.012
 11
105
 20
-23.688
 21
-23.5
  0
LINE
  8
0
 10
105.003
 11
105.003
 20
23.406
 21
23.594
  0
LINE
  8
0
 10
105.003
 11
105.027
 20
23.594
 21
23.781
  0
LINE
  8
0
 10
105.027
 11
105.073
 20
23.781
 21
23.964
  0
LINE
  8
0
 10
105.073
 11
105.143
 20
23.964
 21
24.139
  0
LINE
  8
0
 10
105.143
 11
105.234
 20
24.139
 21
24.304
  0
LINE
  8
0
 10
105.234
 11
105.344
 20
24.304
 21
24.456
  0
LINE
  8
0
 10
105.344
 11
105.473
 20
24.456
 21
24.593
  0
LINE
  8
0
 10
105.473
 11
105.618
 20
24.593
 21
24.714
  0
LINE
  8
0
 10
105.618
 11
105.777
 20
24.714
 21
24.814
  0
LINE
  8
0
 10
105.777
 11
105.948
 20
24.814
 21
24.895
  0
LINE
  8
0
 10
105.948
 11
106.127
 20
24.895
 21
24.953
  0
LINE
  8
0
 10
106.127
 11
106.312
 20
24.953
 21
24.988
  0
LINE
  8
0
 10
106.312
 11
106.5
 20
24.988
 21
25
  0
LINE
  8
0
 10
106.5
 11
106.688
 20
25
 21
24.988
  0
LINE
  8
0
 10
106.688
 11
106.873
 20
24.988
 21
24.953
  0
LINE
  8
0
 10
106.873
 11
107.052
 20
24.953
 21
24.895
  0
LINE
  8
0
 10
107.052
 11
107.223
 20
24.895
 21
24.814
  0
LINE
  8
0
 10
107.223
 11
107.382
 20
24.814
 21
24.714
  0
LINE
  8
0
 10
107.382
 11
107.527
 20
24.714
 21
24.593
  0
LINE
  8
0
 10
107.527
 11
107.656
 20
24.593
 21
24.456
  0
LINE
  8
0
 10
107.656
 11
107.766
 20
24.456
 21
24.304
  0
LINE
  8
0
 10
107.766
 11
107.857
 20
24.304
 21
24.139
  0
LINE
  8
0
 10
107.857
 11
107.927
 20
24.139
 21
23.964
  0
LINE
  8
0
 10
107.927
 11
107.973
 20
23.964
 21
23.781
  0
LINE
  8
0
 10
107.973
 11
107.997
 20
23.781
 21
23.594
  0
LINE
  8
0
 10
107.997
 11
107.997
 20
23.594
 21
23.406
  0
LINE
  8
0
 10
107.997
 11
107.973
 20
23.406
 21
23.219
  0
LINE
  8
0
 10
107.973
 11
107.927
 20
23.219
 21
23.036
  0
LINE
  8
0
 10
107.927
 11
107.857
 20
23.036
 21
22.861
  0
LINE
  8
0
 10
107.857
 11
107.766
 20
22.861
 21
22.696
  0
LINE
  8
0
 10
107.766
 11
107.656
 20
22.696
 21
22.544
  0
LINE
  8
0
 10
107.656
 11
107.527
 20
22.544
 21
22.407
  0
LINE
  8
0
 10
107.527
 11
107.382
 20
22.407
 21
22.286
  0
LINE
  8
0
 10
107.382
 11
107.223
 20
22.286
 21
22.186
  0
LINE
  8
0
 10
107.223
 11
107.052
 20
22.186
 21
22.105
  0
LINE
  8
0
 10
107.052
 11
106.873
 20
22.105
 21
22.047
  0
LINE
  8
0
 10
106.873
 11
106.688
 20
22.047
 21
22.012
  0
LINE
  8
0
 10
106.688
 11
106.5
 20
22.012
 21
22
  0
LINE
  8
0
 10
106.5
 11
106.312
 20
22
 21
22.012
  0
LINE
  8
0
 10
106.312
 11
106.127
 20
22.012
 21
22.047
  0
LINE
  8
0
 10
106.127
 11
105.948
 20
22.047
 21
22.105
  0
LINE
  8
0
 10
105.948
 11
105.777
 20
22.105
 21
22.186
  0
LINE
  8
0
 10
105.777
 11
105.618
 20
22.186
 21
22.286
  0
LINE
  8
0
 10
105.618
 11
105.473
 20
22.286
 21
22.407
  0
LINE
  8
0
 10
105.473
 11
105.344
 20
22.407
 21
22.544
  0
LINE
  8
0
 10
105.344
 11
105.234
 20
22.544
 21
22.696
  0
LINE
  8
0
 10
105.234
 11
105.143
 20
22.696
 21
22.861
  0
LINE
  8
0
 10
105.143
 11
105.073
 20
22.861
 21
23.036
  0
LINE
  8
0
 10
105.073
 11
105.027
 20
23.036
 21
23.219
  0
LINE
  8
0
 10
105.027
 11
105.003
 20
23.219
 21
23.406
  0
LINE
  8
0
 10
152
 11
152.012
 20
23.5
 21
23.688
  0
LINE
  8
0
 10
152.012
 11
152.047
 20
23.688
 21
23.873
  0
LINE
  8
0
 10
152.047
 11
152.105
 20
23.873
 21
24.052
  0
LINE
  8
0
 10
152.105
 11
152.186
 20
24.052
 21
24.223
  0
LINE
  8
0
 10
152.186
 11
152.286
 20
24.223
 21
24.382
  0
LINE
  8
0
 10
152.286
 11
152.407
 20
24.382
 21
24.527
  0
LINE
  8
0
 10
152.407
 11
152.544
 20
24.527
 21
24.656
  0
LINE
  8
0
 10
152.544
 11
152.696
 20
24.656
 21
24.766
  0
LINE
  8
0
 10
152.696
 11
152.861
 20
24.766
 21
24.857
  0
LINE
  8
0
 10
152.861
 11
153.036
 20
24.857
 21
24.927
  0
LINE
  8
0
 10
153.036
 11
153.219
 20
24.927
 21
24.973
  0
LINE
  8
0
 10
153.219
 11
153.406
 20
24.973
 21
24.997
  0
LINE
  8
0
 10
153.406
 11
153.594
 20
24.997
 21
24.997
  0
LINE
  8
0
 10
153.594
 11
153.781
 20
24.997
 21
24.973
  0
LINE
  8
0
 10
153.781
 11
153.964
 20
24.973
 21
24.927
  0
LINE
  8
0
 10
153.964
 11
154.139
 20
24.927
 21
24.857
  0
LINE
  8
0
 10
154.139
 11
154.304
 20
24.857
 21
24.766
  0
LINE
  8
0
 10
154.304
 11
154.456
 20
24.766
 21
24.656
  0
LINE
  8
0
 10
154.456
 11
154.593
 20
24.656
 21
24.527
  0
LINE
  8
0
 10
154.593
 11
154.714
 20
24.527
 21
24.382
  0
LINE
  8
0
 10
154.714
 11
154.814
 20
24.382
 21
24.223
  0
LINE
  8
0
 10
154.814
 11
154.895
 20
24.223
 21
24.052
  0
LINE
  8
0
 10
154.895
 11
154.953
 20
24.052
 21
23.873
  0
LINE
  8
0
 10
154.953
 11
154.988
 20
23.873
 21
23.688
  0
LINE
  8
0
 10
154.988
 11
155
 20
23.688
 21
23.5
  0
LINE
  8
0
 10
155
 11
154.988
 20
23.5
 21
23.312
  0
LINE
  8
0
 10
154.988
 11
154.953
 20
23.312
 21
23.127
  0
LINE
  8
0
 10
154.953
 11
154.895
 20
23.127
 21
22.948
  0
LINE
  8
0
 10
154.895
 11
154.814
 20
22.948
 21
22.777
  0
LINE
  8
0
 10
154.814
 11
154.714
 20
22.777
 21
22.618
  0
LINE
  8
0
 10
154.714
 11
154.593
 20
22.618
 21
22.473
  0
LINE
  8
0
 10
154.593
 11
154.456
 20
22.473
 21
22.344
  0
LINE
  8
0
 10
154.456
 11
154.304
 20
22.344
 21
22.234
  0
LINE
  8
0
 10
154.304
 11
154.139
 20
22.234
 21
22.143
  0
LINE
  8
0
 10
154.139
 11
153.964
 20
22.143
 21
22.073
  0
LINE
  8
0
 10
153.964
 11
153.781
 20
22.073
 21
22.027
  0
LINE
  8
0
 10
153.781
 11
153.594
 20
22.027
 21
22.003
  0
LINE
  8
0
 10
153.594
 11
153.406
 20
22.003
 21
22.003
  0
LINE
  8
0
 10
153.406
 11
153.219
 20
22.003
 21
22.027
  0
LINE
  8
0
 10
153.219
 11
153.036
 20
22.027
 21
22.073
  0
LINE
  8
0
 10
153.036
 11
152.861
 20
22.073
 21
22.143
  0
LINE
  8
0
 10
152.861
 11
152.696
 20
22.143
 21
22.234
  0
LINE
  8
0
 10
152.696
 11
152.544
 20
22.234
 21
22.344
  0
LINE
  8
0
 10
152.544
 11
152.407
 20
22.344
 21
22.473
  0
LINE
  8
0
 10
152.407
 11
152.286
 20
22.473
 21
22.618
  0
LINE
  8
0
 10
152.286
 11
152.186
 20
22.618
 21
22.777
  0
LINE
  8
0
 10
152.186
 11
152.105
 20
22.777
 21
22.948
  0
LINE
  8
0
 10
152.105
 11
152.047
 20
22.948
 21
23.127
  0
LINE
  8
0
 10
152.047
 11
152.012
 20
23.127
 21
23.312
  0
LINE
  8
0
 10
152.012
 11
152
 20
23.312
 21
23.5
  0
LINE
  8
0
 10
152.003
 11
152.003
 20
-23.594
 21
-23.406
  0
LINE
  8
0
 10
152.003
 11
152.027
 20
-23.406
 21
-23.219
  0
LINE
  8
0
 10
152.027
 11
152.073
 20
-23.219
 21
-23.036
  0
LINE
  8
0
 10
152.073
 11
152.143
 20
-23.036
 21
-22.861
  0
LINE
  8
0
 10
152.143
 11
152.234
 20
-22.861
 21
-22.696
  0
LINE
  8
0
 10
152.234
 11
152.344
 20
-22.696
 21
-22.544
  0
LINE
  8
0
 10
152.344
 11
152.473
 20
-22.544
 21
-22.407
  0
LINE
  8
0
 10
152.473
 11
152.618
 20
-22.407
 21
-22.286
  0
LINE
  8
0
 10
152.618
 11
152.777
 20
-22.286
 21
-22.186
  0
LINE
  8
0
 10
152.777
 11
152.948
 20
-22.186
 21
-22.105
  0
LINE
  8
0
 10
152.948
 11
153.127
 20
-22.105
 21
-22.047
  0
LINE
  8
0
 10
153.127
 11
153.312
 20
-22.047
 21
-22.012
  0
LINE
  8
0
 10
153.312
 11
153.5
 20
-22.012
 21
-22
  0
LINE
  8
0
 10
153.5
 11
153.688
 20
-22
 21
-22.012
  0
LINE
  8
0
 10
153.688
 11
153.873
 20
-22.012
 21
-22.047
  0
LINE
  8
0
 10
153.873
 11
154.052
 20
-22.047
 21
-22.105
  0
LINE
  8
0
 10
154.052
 11
154.223
 20
-22.105
 21
-22.186
  0
LINE
  8
0
 10
154.223
 11
154.382
 20
-22.186
 21
-22.286
  0
LINE
  8
0
 10
154.382
 11
154.527
 20
-22.286
 21
-22.407
  0
LINE
  8
0
 10
154.527
 11
154.656
 20
-22.407
 21
-22.544
  0
LINE
  8
0
 10
154.656
 11
154.766
 20
-22.544
 21
-22.696
  0
LINE
  8
0
 10
154.766
 11
154.857
 20
-22.696
 21
-22.861
  0
LINE
  8
0
 10
154.857
 11
154.927
 20
-22.861
 21
-23.036
  0
LINE
  8
0
 10
154.927
 11
154.973
 20
-23.036
 21
-23.219
  0
LINE
  8
0
 10
154.973
 11
154.997
 20
-23.219
 21
-23.406
  0
LINE
  8
0
 10
154.997
 11
154.997
 20
-23.406
 21
-23.594
  0
LINE
  8
0
 10
154.997
 11
154.973
 20
-23.594
 21
-23.781
  0
LINE
  8
0
 10
154.973
 11
154.927
 20
-23.781
 21
-23.964
  0
LINE
  8
0
 10
154.927
 11
154.857
 20
-23.964
 21
-24.139
  0
LINE
  8
0
 10
154.857
 11
154.766
 20
-24.139
 21
-24.304
  0
LINE
  8
0
 10
154.766
 11
154.656
 20
-24.304
 21
-24.456
  0
LINE
  8
0
 10
154.656
 11
154.527
 20
-24.456
 21
-24.593
  0
LINE
  8
0
 10
154.527
 11
154.382
 20
-24.593
 21
-24.714
  0
LINE
  8
0
 10
154.382
 11
154.223
 20
-24.714
 21
-24.814
  0
LINE
  8
0
 10
154.223
 11
154.052
 20
-24.814
 21
-24.895
  0
LINE
  8
0
 10
154.052
 11
153.873
 20
-24.895
 21
-24.953
  0
LINE
  8
0
 10
153.873
 11
153.688
 20
-24.953
 21
-24.988
  0
LINE
  8
0
 10
153.688
 11
153.5
 20
-24.988
 21
-25
  0
LINE
  8
0
 10
153.5
 11
153.312
 20
-25
 21
-24.988
  0
LINE
  8
0
 10
153.312
 11
153.127
 20
-24.988
 21
-24.953
  0
LINE
  8
0
 10
153.127
 11
152.948
 20
-24.953
 21
-24.895
  0
LINE
  8
0
 10
152.948
 11
152.777
 20
-24.895
 21
-24.814
  0
LINE
  8
0
 10
152.777
 11
152.618
 20
-24.814
 21
-24.714
  0
LINE
  8
0
 10
152.618
 11
152.473
 20
-24.714
 21
-24.593
  0
LINE
  8
0
 10
152.473
 11
152.344
 20
-24.593
 21
-24.456
  0
LINE
  8
0
 10
152.344
 11
152.234
 20
-24.456
 21
-24.304
  0
LINE
  8
0
 10
152.234
 11
152.143
 20
-24.304
 21
-24.139
  0
LINE
  8
0
 10
152.143
 11
152.073
 20
-24.139
 21
-23.964
  0
LINE
  8
0
 10
152.073
 11
152.027
 20
-23.964
 21
-23.781
  0
LINE
  8
0
 10
152.027
 11
152.003
 20
-23.781
 21
-23.594
  0
LINE
  8
0
 10
197.5
 11
197.52
 20
200
 21
200.313
  0
LINE
  8
0
 10
197.52
 11
197.579
 20
200.313
 21
200.622
  0
LINE
  8
0
 10
197.579
 11
197.676
 20
200.622
 21
200.92
  0
LINE
  8
0
 10
197.676
 11
197.809
 20
200.92
 21
201.204
  0
LINE
  8
0
 10
197.809
 11
197.977
 20
201.204
 21
201.469
  0
LINE
  8
0
 10
197.977
 11
198.178
 20
201.469
 21
201.711
  0
LINE
  8
0
 10
198.178
 11
198.406
 20
201.711
 21
201.926
  0
LINE
  8
0
 10
198.406
 11
198.66
 20
201.926
 21
202.111
  0
LINE
  8
0
 10
198.66
 11
198.936
 20
202.111
 21
202.262
  0
LINE
  8
0
 10
198.936
 11
199.227
 20
202.262
 21
202.378
  0
LINE
  8
0
 10
199.227
 11
199.532
 20
202.378
 21
202.456
  0
LINE
  8
0
 10
199.532
 11
199.843
 20
202.456
 21
202.495
  0
LINE
  8
0
 10
199.843
 11
200.157
 20
202.495
 21
202.495
  0
LINE
  8
0
 10
200.157
 11
200.468
 20
202.495
 21
202.456
  0
LINE
  8
0
 10
200.468
 11
200.773
 20
202.456
 21
202.378
  0
LINE
  8
0
 10
200.773
 11
201.064
 20
202.378
 21
202.262
  0
LINE
  8
0
 10
201.064
 11
201.34
 20
202.262
 21
202.111
  0
LINE
  8
0
 10
201.34
 11
201.594
 20
202.111
 21
201.926
  0
LINE
  8
0
 10
201.594
 11
201.822
 20
201.926
 21
201.711
  0
LINE
  8
0
 10
201.822
 11
202.023
 20
201.711
 21
201.469
  0
LINE
  8
0
 10
202.023
 11
202.191
 20
201.469
 21
201.204
  0
LINE
  8
0
 10
202.191
 11
202.324
 20
201.204
 21
200.92
  0
LINE
  8
0
 10
202.324
 11
202.421
 20
200.92
 21
200.622
  0
LINE
  8
0
 10
202.421
 11
202.48
 20
200.622
 21
200.313
  0
LINE
  8
0
 10
202.48
 11
202.5
 20
200.313
 21
200
  0
LINE
  8
0
 10
202.5
 11
202.48
 20
200
 21
199.687
  0
LINE
  8
0
 10
202.48
 11
202.421
 20
199.687
 21
199.378
  0
LINE
  8
0
 10
202.421
 11
202.324
 20
199.378
 21
199.08
  0
LINE
  8
0
 10
202.324
 11
202.191
 20
199.08
 21
198.796
  0
LINE
  8
0
 10
202.191
 11
202.023
 20
198.796
 21
198.531
  0
LINE
  8
0
 10
202.023
 11
201.822
 20
198.531
 21
198.289
  0
LINE
  8
0
 10
201.822
 11
201.594
 20
198.289
 21
198.074
  0
LINE
  8
0
 10
201.594
 11
201.34
 20
198.074
 21
197.889
  0
LINE
  8
0
 10
201.34
 11
201.064
 20
197.889
 21
197.738
  0
LINE
  8
0
 10
201.064
 11
200.773
 20
197.738
 21
197.622
  0
LINE
  8
0
 10
200.773
 11
200.468
 20
197.622
 21
197.544
  0
LINE
  8
0
 10
200.468
 11
200.157
 20
197.544
 21
197.505
  0
LINE
  8
0
 10
200.157
 11
199.843
 20
197.505
 21
197.505
  0
LINE
  8
0
 10
199.843
 11
199.532
 20
197.505
 21
197.544
  0
LINE
  8
0
 10
199.532
 11
199.227
 20
197.544
 21
197.622
  0
LINE
  8
0
 10
199.227
 11
198.936
 20
197.622
 21
197.738
  0
LINE
  8
0
 10
198.936
 11
198.66
 20
197.738
 21
197.889
  0
LINE
  8
0
 10
198.66
 11
198.406
 20
197.889
 21
198.074
  0
LINE
  8
0
 10
198.406
 11
198.178
 20
198.074
 21
198.289
  0
LINE
  8
0
 10
198.178
 11
197.977
 20
198.289
 21
198.531
  0
LINE
  8
0
 10
197.977
 11
197.809
 20
198.531
 21
198.796
  0
LINE
  8
0
 10
197.809
 11
197.676
 20
198.796
 21
199.08
  0
LINE
  8
0
 10
197.676
 11
197.579
 20
199.08
 21
199.378
  0
LINE
  8
0
 10
197.579
 11
197.52
 20
199.378
 21
199.687
  0
LINE
  8
0
 10
197.52
 11
197.5
 20
199.687
 21
200
  0
LINE
  8
0
 10
197.505
 11
197.505
 20
-200.157
 21
-199.843
  0
LINE
  8
0
 10
197.505
 11
197.544
 20
-199.843
 21
-199.532
  0
LINE
  8
0
 10
197.544
 11
197.622
 20
-199.532
 21
-199.227
  0
LINE
  8
0
 10
197.622
 11
197.738
 20
-199.227
 21
-198.936
  0
LINE
  8
0
 10
197.738
 11
197.889
 20
-198.936
 21
-198.66
  0
LINE
  8
0
 10
197.889
 11
198.074
 20
-198.66
 21
-198.406
  0
LINE
  8
0
 10
198.074
 11
198.289
 20
-198.406
 21
-198.178
  0
LINE
  8
0
 10
198.289
 11
198.531
 20
-198.178
 21
-197.977
  0
LINE
  8
0
 10
198.531
 11
198.796
 20
-197.977
 21
-197.809
  0
LINE
  8
0
 10
198.796
 11
199.08
 20
-197.809
 21
-197.676
  0
LINE
  8
0
 10
199.08
 11
199.378
 20
-197.676
 21
-197.579
  0
LINE
  8
0
 10
199.378
 11
199.687
 20
-197.579
 21
-197.52
  0
LINE
  8
0
 10
199.687
 11
200
 20
-197.52
 21
-197.5
  0
LINE
  8
0
 10
200
 11
200.313
 20
-197.5
 21
-197.52
  0
LINE
  8
0
 10
200.313
 11
200.622
 20
-197.52
 21
-197.579
  0
LINE
  8
0
 10
200.622
 11
200.92
 20
-197.579
 21
-197.676
  0
LINE
  8
0
 10
200.92
 11
201.204
 20
-197.676
 21
-197.809
  0
LINE
  8
0
 10
201.204
 11
201.469
 20
-197.809
 21
-197.977
  0
LINE
  8
0
 10
201.469
 11
201.711
 20
-197.977
 21
-198.178
  0
LINE
  8
0
 10
201.711
 11
201.926
 20
-198.178
 21
-198.406
  0
LINE
  8
0
 10
201.926
 11
202.111
 20
-198.406
 21
-198.66
  0
LINE
  8
0
 10
202.111
 11
202.262
 20
-198.66
 21
-198.936
  0
LINE
  8
0
 10
202.262
 11
202.378
 20
-198.936
 21
-199.227
  0
LINE
  8
0
 10
202.378
 11
202.456
 20
-199.227
 21
-199.532
  0
LINE
  8
0
 10
202.456
 11
202.495
 20
-199.532
 21
-199.843
  0
LINE
  8
0
 10
202.495
 11
202.495
 20
-199.843
 21
-200.157
  0
LINE
  8
0
 10
202.495
 11
202.456
 20
-200.157
 21
-200.468
  0
LINE
  8
0
 10
202.456
 11
202.378
 20
-200.468
 21
-200.773
  0
LINE
  8
0
 10
202.378
 11
202.262
 20
-200.773
 21
-201.064
  0
LINE
  8
0
 10
202.262
 11
202.111
 20
-201.064
 21
-201.34
  0
LINE
  8
0
 10
202.111
 11
201.926
 20
-201.34
 21
-201.594
  0
LINE
  8
0
 10
201.926
 11
201.711
 20
-201.594
 21
-201.822
  0
LINE
  8
0
 10
201.711
 11
201.469
 20
-201.822
 21
-202.023
  0
LINE
  8
0
 10
201.469
 11
201.204
 20
-202.023
 21
-202.191
  0
LINE
  8
0
 10
201.204
 11
200.92
 20
-202.191
 21
-202.324
  0
LINE
  8
0
 10
200.92
 11
200.622
 20
-202.324
 21
-202.421
  0
LINE
  8
0
 10
200.622
 11
200.313
 20
-202.421
 21
-202.48
  0
LINE
  8
0
 10
200.313
 11
200
 20
-202.48
 21
-202.5
  0
LINE
  8
0
 10
200
 11
199.687
 20
-202.5
 21
-202.48
  0
LINE
  8
0
 10
199.687
 11
199.378
 20
-202.48
 21
-202.421
  0
LINE
  8
0
 10
199.378
 11
199.08
 20
-202.421
 21
-202.324
  0
LINE
  8
0
 10
199.08
 11
198.796
 20
-202.324
 21
-202.191
  0
LINE
  8
0
 10
198.796
 11
198.531
 20
-202.191
 21
-202.023
  0
LINE
  8
0
 10
198.531
 11
198.289
 20
-202.023
 21
-201.822
  0
LINE
  8
0
 10
198.289
 11
198.074
 20
-201.822
 21
-201.594
  0
LINE
  8
0
 10
198.074
 11
197.889
 20
-201.594
 21
-201.34
  0
LINE
  8
0
 10
197.889
 11
197.738
 20
-201.34
 21
-201.064
  0
LINE
  8
0
 10
197.738
 11
197.622
 20
-201.064
 21
-200.773
  0
LINE
  8
0
 10
197.622
 11
197.544
 20
-200.773
 21
-200.468
  0
LINE
  8
0
 10
197.544
 11
197.505
 20
-200.468
 21
-200.157
  0
LINE
  8
0
 10
213.5
 11
213.512
 20
0
 21
0.188
  0
LINE
  8
0
 10
213.512
 11
213.547
 20
0.188
 21
0.373
  0
LINE
  8
0
 10
213.547
 11
213.605
 20
0.373
 21
0.552
  0
LINE
  8
0
 10
213.605
 11
213.686
 20
0.552
 21
0.723
  0
LINE
  8
0
 10
213.686
 11
213.786
 20
0.723
 21
0.882
  0
LINE
  8
0
 10
213.786
 11
213.907
 20
0.882
 21
1.027
  0
LINE
  8
0
 10
213.907
 11
214.044
 20
1.027
 21
1.156
  0
LINE
  8
0
 10
214.044
 11
214.196
 20
1.156
 21
1.266
  0
LINE
  8
0
 10
214.196
 11
214.361
 20
1.266
 21
1.357
  0
LINE
  8
0
 10
214.361
 11
214.536
 20
1.357
 21
1.427
  0
LINE
  8
0
 10
214.536
 11
214.719
 20
1.427
 21
1.473
  0
LINE
  8
0
 10
214.719
 11
214.906
 20
1.473
 21
1.497
  0
LINE
  8
0
 10
214.906
 11
215.094
 20
1.497
 21
1.497
  0
LINE
  8
0
 10
215.094
 11
215.281
 20
1.497
 21
1.473
  0
LINE
  8
0
 10
215.281
 11
215.464
 20
1.473
 21
1.427
  0
LINE
  8
0
 10
215.464
 11
215.639
 20
1.427
 21
1.357
  0
LINE
  8
0
 10
215.639
 11
215.804
 20
1.357
 21
1.266
  0
LINE
  8
0
 10
215.804
 11
215.956
 20
1.266
 21
1.156
  0
LINE
  8
0
 10
215.956
 11
216.093
 20
1.156
 21
1.027
  0
LINE
  8
0
 10
216.093
 11
216.214
 20
1.027
 21
0.882
  0
LINE
  8
0
 10
216.214
 11
216.314
 20
0.882
 21
0.723
  0
LINE
  8
0
 10
216.314
 11
216.395
 20
0.723
 21
0.552
  0
LINE
  8
0
 10
216.395
 11
216.453
 20
0.552
 21
0.373
  0
LINE
  8
0
 10
216.453
 11
216.488
 20
0.373
 21
0.188
  0
LINE
  8
0
 10
216.488
 11
216.5
 20
0.188
 21
0
  0
LINE
  8
0
 10
216.5
 11
216.488
 20
0
 21
-0.188
  0
LINE
  8
0
 10
216.488
 11
216.453
 20
-0.188
 21
-0.373
  0
LINE
  8
0
 10
216.453
 11
216.395
 20
-0.373
 21
-0.552
  0
LINE
  8
0
 10
216.395
 11
216.314
 20
-0.552
 21
-0.723
  0
LINE
  8
0
 10
216.314
 11
216.214
 20
-0.723
 21
-0.882
  0
LINE
  8
0
 10
216.214
 11
216.093
 20
-0.882
 21
-1.027
  0
LINE
  8
0
 10
216.093
 11
215.956
 20
-1.027
 21
-1.156
  0
LINE
  8
0
 10
215.956
 11
215.804
 20
-1.156
 21
-1.266
  0
LINE
  8
0
 10
215.804
 11
215.639
 20
-1.266
 21
-1.357
  0
LINE
  8
0
 10
215.639
 11
215.464
 20
-1.357
 21
-1.427
  0
LINE
  8
0
 10
215.464
 11
215.281
 20
-1.427
 21
-1.473
  0
LINE
  8
0
 10
215.281
 11
215.094
 20
-1.473
 21
-1.497
  0
LINE
  8
0
 10
215.094
 11
214.906
 20
-1.497
 21
-1.497
  0
LINE
  8
0
 10
214.906
 11
214.719
 20
-1.497
 21
-1.473
  0
LINE
  8
0
 10
214.719
 11
214.536
 20
-1.473
 21
-1.427
  0
LINE
  8
0
 10
214.536
 11
214.361
 20
-1.427
 21
-1.357
  0
LINE
  8
0
 10
214.361
 11
214.196
 20
-1.357
 21
-1.266
  0
LINE
  8
0
 10
214.196
 11
214.044
 20
-1.266
 21
-1.156
  0
LINE
  8
0
 10
214.044
 11
213.907
 20
-1.156
 21
-1.027
  0
LINE
  8
0
 10
213.907
 11
213.786
 20
-1.027
 21
-0.882
  0
LINE
  8
0
 10
213.786
 11
213.686
 20
-0.882
 21
-0.723
  0
LINE
  8
0
 10
213.686
 11
213.605
 20
-0.723
 21
-0.552
  0
LINE
  8
0
 10
213.605
 11
213.547
 20
-0.552
 21
-0.373
  0
LINE
  8
0
 10
213.547
 11
213.512
 20
-0.373
 21
-0.188
  0
LINE
  8
0
 10
213.512
 11
213.5
 20
-0.188
 21
0
  0
LINE
  8
0
 10
213.5
 11
213.512
 20
215
 21
215.188
  0
LINE
  8
0
 10
213.512
 11
213.547
 20
215.188
 21
215.373
  0
LINE
  8
0
 10
213.547
 11
213.605
 20
215.373
 21
215.552
  0
LINE
  8
0
 10
213.605
 11
213.686
 20
215.552
 21
215.723
  0
LINE
  8
0
 10
213.686
 11
213.786
 20
215.723
 21
215.882
  0
LINE
  8
0
 10
213.786
 11
213.907
 20
215.882
 21
216.027
  0
LINE
  8
0
 10
213.907
 11
214.044
 20
216.027
 21
216.156
  0
LINE
  8
0
 10
214.044
 11
214.196
 20
216.156
 21
216.266
  0
LINE
  8
0
 10
214.196
 11
214.361
 20
216.266
 21
216.357
  0
LINE
  8
0
 10
214.361
 11
214.536
 20
216.357
 21
216.427
  0
LINE
  8
0
 10
214.536
 11
214.719
 20
216.427
 21
216.473
  0
LINE
  8
0
 10
214.719
 11
214.906
 20
216.473
 21
216.497
  0
LINE
  8
0
 10
214.906
 11
215.094
 20
216.497
 21
216.497
  0
LINE
  8
0
 10
215.094
 11
215.281
 20
216.497
 21
216.473
  0
LINE
  8
0
 10
215.281
 11
215.464
 20
216.473
 21
216.427
  0
LINE
  8
0
 10
215.464
 11
215.639
 20
216.427
 21
216.357
  0
LINE
  8
0
 10
215.639
 11
215.804
 20
216.357
 21
216.266
  0
LINE
  8
0
 10
215.804
 11
215.956
 20
216.266
 21
216.156
  0
LINE
  8
0
 10
215.956
 11
216.093
 20
216.156
 21
216.027
  0
LINE
  8
0
 10
216.093
 11
216.214
 20
216.027
 21
215.882
  0
LINE
  8
0
 10
216.214
 11
216.314
 20
215.882
 21
215.723
  0
LINE
  8
0
 10
216.314
 11
216.395
 20
215.723
 21
215.552
  0
LINE
  8
0
 10
216.395
 11
216.453
 20
215.552
 21
215.373
  0
LINE
  8
0
 10
216.453
 11
216.488
 20
215.373
 21
215.188
  0
LINE
  8
0
 10
216.488
 11
216.5
 20
215.188
 21
215
  0
LINE
  8
0
 10
216.5
 11
216.488
 20
215
 21
214.812
  0
LINE
  8
0
 10
216.488
 11
216.453
 20
214.812
 21
214.627
  0
LINE
  8
0
 10
216.453
 11
216.395
 20
214.627
 21
214.448
  0
LINE
  8
0
 10
216.395
 11
216.314
 20
214.448
 21
214.277
  0
LINE
  8
0
 10
216.314
 11
216.214
 20
214.277
 21
214.118
  0
LINE
  8
0
 10
216.214
 11
216.093
 20
214.118
 21
213.973
  0
LINE
  8
0
 10
216.093
 11
215.956
 20
213.973
 21
213.844
  0
LINE
  8
0
 10
215.956
 11
215.804
 20
213.844
 21
213.734
  0
LINE
  8
0
 10
215.804
 11
215.639
 20
213.734
 21
213.643
  0
LINE
  8
0
 10
215.639
 11
215.464
 20
213.643
 21
213.573
  0
LINE
  8
0
 10
215.464
 11
215.281
 20
213.573
 21
213.527
  0
LINE
  8
0
 10
215.281
 11
215.094
 20
213.527
 21
213.503
  0
LINE
  8
0
 10
215.094
 11
214.906
 20
213.503
 21
213.503
  0
LINE
  8
0
 10
214.906
 11
214.719
 20
213.503
 21
213.527
  0
LINE
  8
0
 10
214.719
 11
214.536
 20
213.527
 21
213.573
  0
LINE
  8
0
 10
214.536
 11
214.361
 20
213.573
 21
213.643
  0
LINE
  8
0
 10
214.361
 11
214.196
 20
213.643
 21
213.734
  0
LINE
  8
0
 10
214.196
 11
214.044
 20
213.734
 21
213.844
  0
LINE
  8
0
 10
214.044
 11
213.907
 20
213.844
 21
213.973
  0
LINE
  8
0
 10
213.907
 11
213.786
 20
213.973
 21
214.118
  0
LINE
  8
0
 10
213.786
 11
213.686
 20
214.118
 21
214.277
  0
LINE
  8
0
 10
213.686
 11
213.605
 20
214.277
 21
214.448
  0
LINE
  8
0
 10
213.605
 11
213.547
 20
214.448
 21
214.627
  0
LINE
  8
0
 10
213.547
 11
213.512
 20
214.627
 21
214.812
  0
LINE
  8
0
 10
213.512
 11
213.5
 20
214.812
 21
215
  0
LINE
  8
0
 10
213.503
 11
213.503
 20
-215.094
 21
-214.906
  0
LINE
  8
0
 10
213.503
 11
213.527
 20
-214.906
 21
-214.719
  0
LINE
  8
0
 10
213.527
 11
213.573
 20
-214.719
 21
-214.536
  0
LINE
  8
0
 10
213.573
 11
213.643
 20
-214.536
 21
-214.361
  0
LINE
  8
0
 10
213.643
 11
213.734
 20
-214.361
 21
-214.196
  0
LINE
  8
0
 10
213.734
 11
213.844
 20
-214.196
 21
-214.044
  0
LINE
  8
0
 10
213.844
 11
213.973
 20
-214.044
 21
-213.907
  0
LINE
  8
0
 10
213.973
 11
214.118
 20
-213.907
 21
-213.786
  0
LINE
  8
0
 10
214.118
 11
214.277
 20
-213.786
 21
-213.686
  0
LINE
  8
0
 10
214.277
 11
214.448
 20
-213.686
 21
-213.605
  0
LINE
  8
0
 10
214.448
 11
214.627
 20
-213.605
 21
-213.547
  0
LINE
  8
0
 10
214.627
 11
214.812
 20
-213.547
 21
-213.512
  0
LINE
  8
0
 10
214.812
 11
215
 20
-213.512
 21
-213.5
  0
LINE
  8
0
 10
215
 11
215.188
 20
-213.5
 21
-213.512
  0
LINE
  8
0
 10
215.188
 11
215.373
 20
-213.512
 21
-213.547
  0
LINE
  8
0
 10
215.373
 11
215.552
 20
-213.547
 21
-213.605
  0
LINE
  8
0
 10
215.552
 11
215.723
 20
-213.605
 21
-213.686
  0
LINE
  8
0
 10
215.723
 11
215.882
 20
-213.686
 21
-213.786
  0
LINE
  8
0
 10
215.882
 11
216.027
 20
-213.786
 21
-213.907
  0
LINE
  8
0
 10
216.027
 11
216.156
 20
-213.907
 21
-214.044
  0
LINE
  8
0
 10
216.156
 11
216.266
 20
-214.044
 21
-214.196
  0
LINE
  8
0
 10
216.266
 11
216.357
 20
-214.196
 21
-214.361
  0
LINE
  8
0
 10
216.357
 11
216.427
 20
-214.361
 21
-214.536
  0
LINE
  8
0
 10
216.427
 11
216.473
 20
-214.536
 21
-214.719
  0
LINE
  8
0
 10
216.473
 11
216.497
 20
-214.719
 21
-214.906
  0
LINE
  8
0
 10
216.497
 11
216.497
 20
-214.906
 21
-215.094
  0
LINE
  8
0
 10
216.497
 11
216.473
 20
-215.094
 21
-215.281
  0
LINE
  8
0
 10
216.473
 11
216.427
 20
-215.281
 21
-215.464
  0
LINE
  8
0
 10
216.427
 11
216.357
 20
-215.464
 21
-215.639
  0
LINE
  8
0
 10
216.357
 11
216.266
 20
-215.639
 21
-215.804
  0
LINE
  8
0
 10
216.266
 11
216.156
 20
-215.804
 21
-215.956
  0
LINE
  8
0
 10
216.156
 11
216.027
 20
-215.956
 21
-216.093
  0
LINE
  8
0
 10
216.027
 11
215.882
 20
-216.093
 21
-216.214
  0
LINE
  8
0
 10
215.882
 11
215.723
 20
-216.214
 21
-216.314
  0
LINE
  8
0
 10
215.723
 11
215.552
 20
-216.314
 21
-216.395
  0
LINE
  8
0
 10
215.552
 11
215.373
 20
-216.395
 21
-216.453
  0
LINE
  8
0
 10
215.373
 11
215.188
 20
-216.453
 21
-216.488
  0
LINE
  8
0
 10
215.188
 11
215
 20
-216.488
 21
-216.5
  0
LINE
  8
0
 10
215
 11
214.812
 20
-216.5
 21
-216.488
  0
LINE
  8
0
 10
214.812
 11
214.627
 20
-216.488
 21
-216.453
  0
LINE
  8
0
 10
214.627
 11
214.448
 20
-216.453
 21
-216.395
  0
LINE
  8
0
 10
214.448
 11
214.277
 20
-216.395
 21
-216.314
  0
LINE
  8
0
 10
214.277
 11
214.118
 20
-216.314
 21
-216.214
  0
LINE
  8
0
 10
214.118
 11
213.973
 20
-216.214
 21
-216.093
  0
LINE
  8
0
 10
213.973
 11
213.844
 20
-216.093
 21
-215.956
  0
LINE
  8
0
 10
213.844
 11
213.734
 20
-215.956
 21
-215.804
  0
LINE
  8
0
 10
213.734
 11
213.643
 20
-215.804
 21
-215.639
  0
LINE
  8
0
 10
213.643
 11
213.573
 20
-215.639
 21
-215.464
  0
LINE
  8
0
 10
213.573
 11
213.527
 20
-215.464
 21
-215.281
  0
LINE
  8
0
 10
213.527
 11
213.503
 20
-215.281
 21
-215.094
  0
ENDSEC
  0
SECTION
  2
OBJECTS
  0
DICTIONARY
  0
ENDSEC
  0
EOF
