  0
SECTION
  2
BLOCKS
  0
ENDSEC
  0
SECTION
  2
ENTITIES
  0
LINE
  8
0
 10
-143.5
 11
-143.5
 20
-102.5
 21
102.5
  0
LINE
  8
0
 10
-143.5
 11
143.5
 20
102.5
 21
102.5
  0
LINE
  8
0
 10
143.5
 11
143.5
 20
102.5
 21
-102.5
  0
LINE
  8
0
 10
143.5
 11
-143.5
 20
-102.5
 21
-102.5
  0
LINE
  8
0
 10
-140
 11
-140
 20
-15
 21
-10
  0
LINE
  8
0
 10
-140
 11
-135
 20
-10
 21
-10
  0
LINE
  8
0
 10
-135
 11
-135
 20
-10
 21
-15
  0
LINE
  8
0
 10
-135
 11
-140
 20
-15
 21
-15
  0
LINE
  8
0
 10
-140
 11
-140
 20
10
 21
15
  0
LINE
  8
0
 10
-140
 11
-135
 20
15
 21
15
  0
LINE
  8
0
 10
-135
 11
-135
 20
15
 21
10
  0
LINE
  8
0
 10
-135
 11
-140
 20
10
 21
10
  0
LINE
  8
0
 10
-131.7
 11
-131.667
 20
0
 21
0.526
  0
LINE
  8
0
 10
-131.667
 11
-131.568
 20
0.526
 21
1.044
  0
LINE
  8
0
 10
-131.568
 11
-131.405
 20
1.044
 21
1.546
  0
LINE
  8
0
 10
-131.405
 11
-131.18
 20
1.546
 21
2.023
  0
LINE
  8
0
 10
-131.18
 11
-130.898
 20
2.023
 21
2.469
  0
LINE
  8
0
 10
-130.898
 11
-130.562
 20
2.469
 21
2.875
  0
LINE
  8
0
 10
-130.562
 11
-130.177
 20
2.875
 21
3.236
  0
LINE
  8
0
 10
-130.177
 11
-129.75
 20
3.236
 21
3.546
  0
LINE
  8
0
 10
-129.75
 11
-129.288
 20
3.546
 21
3.8
  0
LINE
  8
0
 10
-129.288
 11
-128.798
 20
3.8
 21
3.994
  0
LINE
  8
0
 10
-128.798
 11
-128.287
 20
3.994
 21
4.126
  0
LINE
  8
0
 10
-128.287
 11
-127.764
 20
4.126
 21
4.192
  0
LINE
  8
0
 10
-127.764
 11
-127.236
 20
4.192
 21
4.192
  0
LINE
  8
0
 10
-127.236
 11
-126.713
 20
4.192
 21
4.126
  0
LINE
  8
0
 10
-126.713
 11
-126.202
 20
4.126
 21
3.994
  0
LINE
  8
0
 10
-126.202
 11
-125.712
 20
3.994
 21
3.8
  0
LINE
  8
0
 10
-125.712
 11
-125.25
 20
3.8
 21
3.546
  0
LINE
  8
0
 10
-125.25
 11
-124.823
 20
3.546
 21
3.236
  0
LINE
  8
0
 10
-124.823
 11
-124.438
 20
3.236
 21
2.875
  0
LINE
  8
0
 10
-124.438
 11
-124.102
 20
2.875
 21
2.469
  0
LINE
  8
0
 10
-124.102
 11
-123.82
 20
2.469
 21
2.023
  0
LINE
  8
0
 10
-123.82
 11
-123.595
 20
2.023
 21
1.546
  0
LINE
  8
0
 10
-123.595
 11
-123.432
 20
1.546
 21
1.044
  0
LINE
  8
0
 10
-123.432
 11
-123.333
 20
1.044
 21
0.526
  0
LINE
  8
0
 10
-123.333
 11
-123.3
 20
0.526
 21
0
  0
LINE
  8
0
 10
-123.3
 11
-123.333
 20
0
 21
-0.526
  0
LINE
  8
0
 10
-123.333
 11
-123.432
 20
-0.526
 21
-1.044
  0
LINE
  8
0
 10
-123.432
 11
-123.595
 20
-1.044
 21
-1.546
  0
LINE
  8
0
 10
-123.595
 11
-123.82
 20
-1.546
 21
-2.023
  0
LINE
  8
0
 10
-123.82
 11
-124.102
 20
-2.023
 21
-2.469
  0
LINE
  8
0
 10
-124.102
 11
-124.438
 20
-2.469
 21
-2.875
  0
LINE
  8
0
 10
-124.438
 11
-124.823
 20
-2.875
 21
-3.236
  0
LINE
  8
0
 10
-124.823
 11
-125.25
 20
-3.236
 21
-3.546
  0
LINE
  8
0
 10
-125.25
 11
-125.712
 20
-3.546
 21
-3.8
  0
LINE
  8
0
 10
-125.712
 11
-126.202
 20
-3.8
 21
-3.994
  0
LINE
  8
0
 10
-126.202
 11
-126.713
 20
-3.994
 21
-4.126
  0
LINE
  8
0
 10
-126.713
 11
-127.236
 20
-4.126
 21
-4.192
  0
LINE
  8
0
 10
-127.236
 11
-127.764
 20
-4.192
 21
-4.192
  0
LINE
  8
0
 10
-127.764
 11
-128.287
 20
-4.192
 21
-4.126
  0
LINE
  8
0
 10
-128.287
 11
-128.798
 20
-4.126
 21
-3.994
  0
LINE
  8
0
 10
-128.798
 11
-129.288
 20
-3.994
 21
-3.8
  0
LINE
  8
0
 10
-129.288
 11
-129.75
 20
-3.8
 21
-3.546
  0
LINE
  8
0
 10
-129.75
 11
-130.177
 20
-3.546
 21
-3.236
  0
LINE
  8
0
 10
-130.177
 11
-130.562
 20
-3.236
 21
-2.875
  0
LINE
  8
0
 10
-130.562
 11
-130.898
 20
-2.875
 21
-2.469
  0
LINE
  8
0
 10
-130.898
 11
-131.18
 20
-2.469
 21
-2.023
  0
LINE
  8
0
 10
-131.18
 11
-131.405
 20
-2.023
 21
-1.546
  0
LINE
  8
0
 10
-131.405
 11
-131.568
 20
-1.546
 21
-1.044
  0
LINE
  8
0
 10
-131.568
 11
-131.667
 20
-1.044
 21
-0.526
  0
LINE
  8
0
 10
-131.667
 11
-131.7
 20
-0.526
 21
0
  0
LINE
  8
0
 10
-129
 11
-128.988
 20
-12.5
 21
-12.312
  0
LINE
  8
0
 10
-128.988
 11
-128.953
 20
-12.312
 21
-12.127
  0
LINE
  8
0
 10
-128.953
 11
-128.895
 20
-12.127
 21
-11.948
  0
LINE
  8
0
 10
-128.895
 11
-128.814
 20
-11.948
 21
-11.777
  0
LINE
  8
0
 10
-128.814
 11
-128.714
 20
-11.777
 21
-11.618
  0
LINE
  8
0
 10
-128.714
 11
-128.593
 20
-11.618
 21
-11.473
  0
LINE
  8
0
 10
-128.593
 11
-128.456
 20
-11.473
 21
-11.344
  0
LINE
  8
0
 10
-128.456
 11
-128.304
 20
-11.344
 21
-11.234
  0
LINE
  8
0
 10
-128.304
 11
-128.139
 20
-11.234
 21
-11.143
  0
LINE
  8
0
 10
-128.139
 11
-127.964
 20
-11.143
 21
-11.073
  0
LINE
  8
0
 10
-127.964
 11
-127.781
 20
-11.073
 21
-11.027
  0
LINE
  8
0
 10
-127.781
 11
-127.594
 20
-11.027
 21
-11.003
  0
LINE
  8
0
 10
-127.594
 11
-127.406
 20
-11.003
 21
-11.003
  0
LINE
  8
0
 10
-127.406
 11
-127.219
 20
-11.003
 21
-11.027
  0
LINE
  8
0
 10
-127.219
 11
-127.036
 20
-11.027
 21
-11.073
  0
LINE
  8
0
 10
-127.036
 11
-126.861
 20
-11.073
 21
-11.143
  0
LINE
  8
0
 10
-126.861
 11
-126.696
 20
-11.143
 21
-11.234
  0
LINE
  8
0
 10
-126.696
 11
-126.544
 20
-11.234
 21
-11.344
  0
LINE
  8
0
 10
-126.544
 11
-126.407
 20
-11.344
 21
-11.473
  0
LINE
  8
0
 10
-126.407
 11
-126.286
 20
-11.473
 21
-11.618
  0
LINE
  8
0
 10
-126.286
 11
-126.186
 20
-11.618
 21
-11.777
  0
LINE
  8
0
 10
-126.186
 11
-126.105
 20
-11.777
 21
-11.948
  0
LINE
  8
0
 10
-126.105
 11
-126.047
 20
-11.948
 21
-12.127
  0
LINE
  8
0
 10
-126.047
 11
-126.012
 20
-12.127
 21
-12.312
  0
LINE
  8
0
 10
-126.012
 11
-126
 20
-12.312
 21
-12.5
  0
LINE
  8
0
 10
-126
 11
-126.012
 20
-12.5
 21
-12.688
  0
LINE
  8
0
 10
-126.012
 11
-126.047
 20
-12.688
 21
-12.873
  0
LINE
  8
0
 10
-126.047
 11
-126.105
 20
-12.873
 21
-13.052
  0
LINE
  8
0
 10
-126.105
 11
-126.186
 20
-13.052
 21
-13.223
  0
LINE
  8
0
 10
-126.186
 11
-126.286
 20
-13.223
 21
-13.382
  0
LINE
  8
0
 10
-126.286
 11
-126.407
 20
-13.382
 21
-13.527
  0
LINE
  8
0
 10
-126.407
 11
-126.544
 20
-13.527
 21
-13.656
  0
LINE
  8
0
 10
-126.544
 11
-126.696
 20
-13.656
 21
-13.766
  0
LINE
  8
0
 10
-126.696
 11
-126.861
 20
-13.766
 21
-13.857
  0
LINE
  8
0
 10
-126.861
 11
-127.036
 20
-13.857
 21
-13.927
  0
LINE
  8
0
 10
-127.036
 11
-127.219
 20
-13.927
 21
-13.973
  0
LINE
  8
0
 10
-127.219
 11
-127.406
 20
-13.973
 21
-13.997
  0
LINE
  8
0
 10
-127.406
 11
-127.594
 20
-13.997
 21
-13.997
  0
LINE
  8
0
 10
-127.594
 11
-127.781
 20
-13.997
 21
-13.973
  0
LINE
  8
0
 10
-127.781
 11
-127.964
 20
-13.973
 21
-13.927
  0
LINE
  8
0
 10
-127.964
 11
-128.139
 20
-13.927
 21
-13.857
  0
LINE
  8
0
 10
-128.139
 11
-128.304
 20
-13.857
 21
-13.766
  0
LINE
  8
0
 10
-128.304
 11
-128.456
 20
-13.766
 21
-13.656
  0
LINE
  8
0
 10
-128.456
 11
-128.593
 20
-13.656
 21
-13.527
  0
LINE
  8
0
 10
-128.593
 11
-128.714
 20
-13.527
 21
-13.382
  0
LINE
  8
0
 10
-128.714
 11
-128.814
 20
-13.382
 21
-13.223
  0
LINE
  8
0
 10
-128.814
 11
-128.895
 20
-13.223
 21
-13.052
  0
LINE
  8
0
 10
-128.895
 11
-128.953
 20
-13.052
 21
-12.873
  0
LINE
  8
0
 10
-128.953
 11
-128.988
 20
-12.873
 21
-12.688
  0
LINE
  8
0
 10
-128.988
 11
-129
 20
-12.688
 21
-12.5
  0
LINE
  8
0
 10
-129
 11
-128.988
 20
12.5
 21
12.688
  0
LINE
  8
0
 10
-128.988
 11
-128.953
 20
12.688
 21
12.873
  0
LINE
  8
0
 10
-128.953
 11
-128.895
 20
12.873
 21
13.052
  0
LINE
  8
0
 10
-128.895
 11
-128.814
 20
13.052
 21
13.223
  0
LINE
  8
0
 10
-128.814
 11
-128.714
 20
13.223
 21
13.382
  0
LINE
  8
0
 10
-128.714
 11
-128.593
 20
13.382
 21
13.527
  0
LINE
  8
0
 10
-128.593
 11
-128.456
 20
13.527
 21
13.656
  0
LINE
  8
0
 10
-128.456
 11
-128.304
 20
13.656
 21
13.766
  0
LINE
  8
0
 10
-128.304
 11
-128.139
 20
13.766
 21
13.857
  0
LINE
  8
0
 10
-128.139
 11
-127.964
 20
13.857
 21
13.927
  0
LINE
  8
0
 10
-127.964
 11
-127.781
 20
13.927
 21
13.973
  0
LINE
  8
0
 10
-127.781
 11
-127.594
 20
13.973
 21
13.997
  0
LINE
  8
0
 10
-127.594
 11
-127.406
 20
13.997
 21
13.997
  0
LINE
  8
0
 10
-127.406
 11
-127.219
 20
13.997
 21
13.973
  0
LINE
  8
0
 10
-127.219
 11
-127.036
 20
13.973
 21
13.927
  0
LINE
  8
0
 10
-127.036
 11
-126.861
 20
13.927
 21
13.857
  0
LINE
  8
0
 10
-126.861
 11
-126.696
 20
13.857
 21
13.766
  0
LINE
  8
0
 10
-126.696
 11
-126.544
 20
13.766
 21
13.656
  0
LINE
  8
0
 10
-126.544
 11
-126.407
 20
13.656
 21
13.527
  0
LINE
  8
0
 10
-126.407
 11
-126.286
 20
13.527
 21
13.382
  0
LINE
  8
0
 10
-126.286
 11
-126.186
 20
13.382
 21
13.223
  0
LINE
  8
0
 10
-126.186
 11
-126.105
 20
13.223
 21
13.052
  0
LINE
  8
0
 10
-126.105
 11
-126.047
 20
13.052
 21
12.873
  0
LINE
  8
0
 10
-126.047
 11
-126.012
 20
12.873
 21
12.688
  0
LINE
  8
0
 10
-126.012
 11
-126
 20
12.688
 21
12.5
  0
LINE
  8
0
 10
-126
 11
-126.012
 20
12.5
 21
12.312
  0
LINE
  8
0
 10
-126.012
 11
-126.047
 20
12.312
 21
12.127
  0
LINE
  8
0
 10
-126.047
 11
-126.105
 20
12.127
 21
11.948
  0
LINE
  8
0
 10
-126.105
 11
-126.186
 20
11.948
 21
11.777
  0
LINE
  8
0
 10
-126.186
 11
-126.286
 20
11.777
 21
11.618
  0
LINE
  8
0
 10
-126.286
 11
-126.407
 20
11.618
 21
11.473
  0
LINE
  8
0
 10
-126.407
 11
-126.544
 20
11.473
 21
11.344
  0
LINE
  8
0
 10
-126.544
 11
-126.696
 20
11.344
 21
11.234
  0
LINE
  8
0
 10
-126.696
 11
-126.861
 20
11.234
 21
11.143
  0
LINE
  8
0
 10
-126.861
 11
-127.036
 20
11.143
 21
11.073
  0
LINE
  8
0
 10
-127.036
 11
-127.219
 20
11.073
 21
11.027
  0
LINE
  8
0
 10
-127.219
 11
-127.406
 20
11.027
 21
11.003
  0
LINE
  8
0
 10
-127.406
 11
-127.594
 20
11.003
 21
11.003
  0
LINE
  8
0
 10
-127.594
 11
-127.781
 20
11.003
 21
11.027
  0
LINE
  8
0
 10
-127.781
 11
-127.964
 20
11.027
 21
11.073
  0
LINE
  8
0
 10
-127.964
 11
-128.139
 20
11.073
 21
11.143
  0
LINE
  8
0
 10
-128.139
 11
-128.304
 20
11.143
 21
11.234
  0
LINE
  8
0
 10
-128.304
 11
-128.456
 20
11.234
 21
11.344
  0
LINE
  8
0
 10
-128.456
 11
-128.593
 20
11.344
 21
11.473
  0
LINE
  8
0
 10
-128.593
 11
-128.714
 20
11.473
 21
11.618
  0
LINE
  8
0
 10
-128.714
 11
-128.814
 20
11.618
 21
11.777
  0
LINE
  8
0
 10
-128.814
 11
-128.895
 20
11.777
 21
11.948
  0
LINE
  8
0
 10
-128.895
 11
-128.953
 20
11.948
 21
12.127
  0
LINE
  8
0
 10
-128.953
 11
-128.988
 20
12.127
 21
12.312
  0
LINE
  8
0
 10
-128.988
 11
-129
 20
12.312
 21
12.5
  0
LINE
  8
0
 10
-120
 11
-120
 20
-15
 21
-10
  0
LINE
  8
0
 10
-120
 11
-115
 20
-10
 21
-10
  0
LINE
  8
0
 10
-115
 11
-115
 20
-10
 21
-15
  0
LINE
  8
0
 10
-115
 11
-120
 20
-15
 21
-15
  0
LINE
  8
0
 10
-120
 11
-120
 20
10
 21
15
  0
LINE
  8
0
 10
-120
 11
-115
 20
15
 21
15
  0
LINE
  8
0
 10
-115
 11
-115
 20
15
 21
10
  0
LINE
  8
0
 10
-115
 11
-120
 20
10
 21
10
  0
LINE
  8
0
 10
-113.8
 11
-113.739
 20
-60
 21
-59.029
  0
LINE
  8
0
 10
-113.739
 11
-113.557
 20
-59.029
 21
-58.073
  0
LINE
  8
0
 10
-113.557
 11
-113.256
 20
-58.073
 21
-57.147
  0
LINE
  8
0
 10
-113.256
 11
-112.841
 20
-57.147
 21
-56.266
  0
LINE
  8
0
 10
-112.841
 11
-112.32
 20
-56.266
 21
-55.445
  0
LINE
  8
0
 10
-112.32
 11
-111.7
 20
-55.445
 21
-54.695
  0
LINE
  8
0
 10
-111.7
 11
-110.99
 20
-54.695
 21
-54.029
  0
LINE
  8
0
 10
-110.99
 11
-110.203
 20
-54.029
 21
-53.456
  0
LINE
  8
0
 10
-110.203
 11
-109.35
 20
-53.456
 21
-52.988
  0
LINE
  8
0
 10
-109.35
 11
-108.445
 20
-52.988
 21
-52.629
  0
LINE
  8
0
 10
-108.445
 11
-107.502
 20
-52.629
 21
-52.387
  0
LINE
  8
0
 10
-107.502
 11
-106.537
 20
-52.387
 21
-52.265
  0
LINE
  8
0
 10
-106.537
 11
-105.563
 20
-52.265
 21
-52.265
  0
LINE
  8
0
 10
-105.563
 11
-104.598
 20
-52.265
 21
-52.387
  0
LINE
  8
0
 10
-104.598
 11
-103.655
 20
-52.387
 21
-52.629
  0
LINE
  8
0
 10
-103.655
 11
-102.75
 20
-52.629
 21
-52.988
  0
LINE
  8
0
 10
-102.75
 11
-101.897
 20
-52.988
 21
-53.456
  0
LINE
  8
0
 10
-101.897
 11
-101.11
 20
-53.456
 21
-54.029
  0
LINE
  8
0
 10
-101.11
 11
-100.4
 20
-54.029
 21
-54.695
  0
LINE
  8
0
 10
-100.4
 11
-99.78
 20
-54.695
 21
-55.445
  0
LINE
  8
0
 10
-99.78
 11
-99.259
 20
-55.445
 21
-56.266
  0
LINE
  8
0
 10
-99.259
 11
-98.844
 20
-56.266
 21
-57.147
  0
LINE
  8
0
 10
-98.844
 11
-98.543
 20
-57.147
 21
-58.073
  0
LINE
  8
0
 10
-98.543
 11
-98.361
 20
-58.073
 21
-59.029
  0
LINE
  8
0
 10
-98.361
 11
-98.3
 20
-59.029
 21
-60
  0
LINE
  8
0
 10
-98.3
 11
-98.361
 20
-60
 21
-60.971
  0
LINE
  8
0
 10
-98.361
 11
-98.543
 20
-60.971
 21
-61.927
  0
LINE
  8
0
 10
-98.543
 11
-98.844
 20
-61.927
 21
-62.853
  0
LINE
  8
0
 10
-98.844
 11
-99.259
 20
-62.853
 21
-63.734
  0
LINE
  8
0
 10
-99.259
 11
-99.78
 20
-63.734
 21
-64.555
  0
LINE
  8
0
 10
-99.78
 11
-100.4
 20
-64.555
 21
-65.305
  0
LINE
  8
0
 10
-100.4
 11
-101.11
 20
-65.305
 21
-65.971
  0
LINE
  8
0
 10
-101.11
 11
-101.897
 20
-65.971
 21
-66.544
  0
LINE
  8
0
 10
-101.897
 11
-102.75
 20
-66.544
 21
-67.012
  0
LINE
  8
0
 10
-102.75
 11
-103.655
 20
-67.012
 21
-67.371
  0
LINE
  8
0
 10
-103.655
 11
-104.598
 20
-67.371
 21
-67.613
  0
LINE
  8
0
 10
-104.598
 11
-105.563
 20
-67.613
 21
-67.735
  0
LINE
  8
0
 10
-105.563
 11
-106.537
 20
-67.735
 21
-67.735
  0
LINE
  8
0
 10
-106.537
 11
-107.502
 20
-67.735
 21
-67.613
  0
LINE
  8
0
 10
-107.502
 11
-108.445
 20
-67.613
 21
-67.371
  0
LINE
  8
0
 10
-108.445
 11
-109.35
 20
-67.371
 21
-67.012
  0
LINE
  8
0
 10
-109.35
 11
-110.203
 20
-67.012
 21
-66.544
  0
LINE
  8
0
 10
-110.203
 11
-110.99
 20
-66.544
 21
-65.971
  0
LINE
  8
0
 10
-110.99
 11
-111.7
 20
-65.971
 21
-65.305
  0
LINE
  8
0
 10
-111.7
 11
-112.32
 20
-65.305
 21
-64.555
  0
LINE
  8
0
 10
-112.32
 11
-112.841
 20
-64.555
 21
-63.734
  0
LINE
  8
0
 10
-112.841
 11
-113.256
 20
-63.734
 21
-62.853
  0
LINE
  8
0
 10
-113.256
 11
-113.557
 20
-62.853
 21
-61.927
  0
LINE
  8
0
 10
-113.557
 11
-113.739
 20
-61.927
 21
-60.971
  0
LINE
  8
0
 10
-113.739
 11
-113.8
 20
-60.971
 21
-60
  0
LINE
  8
0
 10
-113.8
 11
-113.739
 20
0
 21
0.971
  0
LINE
  8
0
 10
-113.739
 11
-113.557
 20
0.971
 21
1.927
  0
LINE
  8
0
 10
-113.557
 11
-113.256
 20
1.927
 21
2.853
  0
LINE
  8
0
 10
-113.256
 11
-112.841
 20
2.853
 21
3.734
  0
LINE
  8
0
 10
-112.841
 11
-112.32
 20
3.734
 21
4.555
  0
LINE
  8
0
 10
-112.32
 11
-111.7
 20
4.555
 21
5.305
  0
LINE
  8
0
 10
-111.7
 11
-110.99
 20
5.305
 21
5.971
  0
LINE
  8
0
 10
-110.99
 11
-110.203
 20
5.971
 21
6.544
  0
LINE
  8
0
 10
-110.203
 11
-109.35
 20
6.544
 21
7.012
  0
LINE
  8
0
 10
-109.35
 11
-108.445
 20
7.012
 21
7.371
  0
LINE
  8
0
 10
-108.445
 11
-107.502
 20
7.371
 21
7.613
  0
LINE
  8
0
 10
-107.502
 11
-106.537
 20
7.613
 21
7.735
  0
LINE
  8
0
 10
-106.537
 11
-105.563
 20
7.735
 21
7.735
  0
LINE
  8
0
 10
-105.563
 11
-104.598
 20
7.735
 21
7.613
  0
LINE
  8
0
 10
-104.598
 11
-103.655
 20
7.613
 21
7.371
  0
LINE
  8
0
 10
-103.655
 11
-102.75
 20
7.371
 21
7.012
  0
LINE
  8
0
 10
-102.75
 11
-101.897
 20
7.012
 21
6.544
  0
LINE
  8
0
 10
-101.897
 11
-101.11
 20
6.544
 21
5.971
  0
LINE
  8
0
 10
-101.11
 11
-100.4
 20
5.971
 21
5.305
  0
LINE
  8
0
 10
-100.4
 11
-99.78
 20
5.305
 21
4.555
  0
LINE
  8
0
 10
-99.78
 11
-99.259
 20
4.555
 21
3.734
  0
LINE
  8
0
 10
-99.259
 11
-98.844
 20
3.734
 21
2.853
  0
LINE
  8
0
 10
-98.844
 11
-98.543
 20
2.853
 21
1.927
  0
LINE
  8
0
 10
-98.543
 11
-98.361
 20
1.927
 21
0.971
  0
LINE
  8
0
 10
-98.361
 11
-98.3
 20
0.971
 21
0
  0
LINE
  8
0
 10
-98.3
 11
-98.361
 20
0
 21
-0.971
  0
LINE
  8
0
 10
-98.361
 11
-98.543
 20
-0.971
 21
-1.927
  0
LINE
  8
0
 10
-98.543
 11
-98.844
 20
-1.927
 21
-2.853
  0
LINE
  8
0
 10
-98.844
 11
-99.259
 20
-2.853
 21
-3.734
  0
LINE
  8
0
 10
-99.259
 11
-99.78
 20
-3.734
 21
-4.555
  0
LINE
  8
0
 10
-99.78
 11
-100.4
 20
-4.555
 21
-5.305
  0
LINE
  8
0
 10
-100.4
 11
-101.11
 20
-5.305
 21
-5.971
  0
LINE
  8
0
 10
-101.11
 11
-101.897
 20
-5.971
 21
-6.544
  0
LINE
  8
0
 10
-101.897
 11
-102.75
 20
-6.544
 21
-7.012
  0
LINE
  8
0
 10
-102.75
 11
-103.655
 20
-7.012
 21
-7.371
  0
LINE
  8
0
 10
-103.655
 11
-104.598
 20
-7.371
 21
-7.613
  0
LINE
  8
0
 10
-104.598
 11
-105.563
 20
-7.613
 21
-7.735
  0
LINE
  8
0
 10
-105.563
 11
-106.537
 20
-7.735
 21
-7.735
  0
LINE
  8
0
 10
-106.537
 11
-107.502
 20
-7.735
 21
-7.613
  0
LINE
  8
0
 10
-107.502
 11
-108.445
 20
-7.613
 21
-7.371
  0
LINE
  8
0
 10
-108.445
 11
-109.35
 20
-7.371
 21
-7.012
  0
LINE
  8
0
 10
-109.35
 11
-110.203
 20
-7.012
 21
-6.544
  0
LINE
  8
0
 10
-110.203
 11
-110.99
 20
-6.544
 21
-5.971
  0
LINE
  8
0
 10
-110.99
 11
-111.7
 20
-5.971
 21
-5.305
  0
LINE
  8
0
 10
-111.7
 11
-112.32
 20
-5.305
 21
-4.555
  0
LINE
  8
0
 10
-112.32
 11
-112.841
 20
-4.555
 21
-3.734
  0
LINE
  8
0
 10
-112.841
 11
-113.256
 20
-3.734
 21
-2.853
  0
LINE
  8
0
 10
-113.256
 11
-113.557
 20
-2.853
 21
-1.927
  0
LINE
  8
0
 10
-113.557
 11
-113.739
 20
-1.927
 21
-0.971
  0
LINE
  8
0
 10
-113.739
 11
-113.8
 20
-0.971
 21
0
  0
LINE
  8
0
 10
-113.8
 11
-113.739
 20
60
 21
60.971
  0
LINE
  8
0
 10
-113.739
 11
-113.557
 20
60.971
 21
61.927
  0
LINE
  8
0
 10
-113.557
 11
-113.256
 20
61.927
 21
62.853
  0
LINE
  8
0
 10
-113.256
 11
-112.841
 20
62.853
 21
63.734
  0
LINE
  8
0
 10
-112.841
 11
-112.32
 20
63.734
 21
64.555
  0
LINE
  8
0
 10
-112.32
 11
-111.7
 20
64.555
 21
65.305
  0
LINE
  8
0
 10
-111.7
 11
-110.99
 20
65.305
 21
65.971
  0
LINE
  8
0
 10
-110.99
 11
-110.203
 20
65.971
 21
66.544
  0
LINE
  8
0
 10
-110.203
 11
-109.35
 20
66.544
 21
67.012
  0
LINE
  8
0
 10
-109.35
 11
-108.445
 20
67.012
 21
67.371
  0
LINE
  8
0
 10
-108.445
 11
-107.502
 20
67.371
 21
67.613
  0
LINE
  8
0
 10
-107.502
 11
-106.537
 20
67.613
 21
67.735
  0
LINE
  8
0
 10
-106.537
 11
-105.563
 20
67.735
 21
67.735
  0
LINE
  8
0
 10
-105.563
 11
-104.598
 20
67.735
 21
67.613
  0
LINE
  8
0
 10
-104.598
 11
-103.655
 20
67.613
 21
67.371
  0
LINE
  8
0
 10
-103.655
 11
-102.75
 20
67.371
 21
67.012
  0
LINE
  8
0
 10
-102.75
 11
-101.897
 20
67.012
 21
66.544
  0
LINE
  8
0
 10
-101.897
 11
-101.11
 20
66.544
 21
65.971
  0
LINE
  8
0
 10
-101.11
 11
-100.4
 20
65.971
 21
65.305
  0
LINE
  8
0
 10
-100.4
 11
-99.78
 20
65.305
 21
64.555
  0
LINE
  8
0
 10
-99.78
 11
-99.259
 20
64.555
 21
63.734
  0
LINE
  8
0
 10
-99.259
 11
-98.844
 20
63.734
 21
62.853
  0
LINE
  8
0
 10
-98.844
 11
-98.543
 20
62.853
 21
61.927
  0
LINE
  8
0
 10
-98.543
 11
-98.361
 20
61.927
 21
60.971
  0
LINE
  8
0
 10
-98.361
 11
-98.3
 20
60.971
 21
60
  0
LINE
  8
0
 10
-98.3
 11
-98.361
 20
60
 21
59.029
  0
LINE
  8
0
 10
-98.361
 11
-98.543
 20
59.029
 21
58.073
  0
LINE
  8
0
 10
-98.543
 11
-98.844
 20
58.073
 21
57.147
  0
LINE
  8
0
 10
-98.844
 11
-99.259
 20
57.147
 21
56.266
  0
LINE
  8
0
 10
-99.259
 11
-99.78
 20
56.266
 21
55.445
  0
LINE
  8
0
 10
-99.78
 11
-100.4
 20
55.445
 21
54.695
  0
LINE
  8
0
 10
-100.4
 11
-101.11
 20
54.695
 21
54.029
  0
LINE
  8
0
 10
-101.11
 11
-101.897
 20
54.029
 21
53.456
  0
LINE
  8
0
 10
-101.897
 11
-102.75
 20
53.456
 21
52.988
  0
LINE
  8
0
 10
-102.75
 11
-103.655
 20
52.988
 21
52.629
  0
LINE
  8
0
 10
-103.655
 11
-104.598
 20
52.629
 21
52.387
  0
LINE
  8
0
 10
-104.598
 11
-105.563
 20
52.387
 21
52.265
  0
LINE
  8
0
 10
-105.563
 11
-106.537
 20
52.265
 21
52.265
  0
LINE
  8
0
 10
-106.537
 11
-107.502
 20
52.265
 21
52.387
  0
LINE
  8
0
 10
-107.502
 11
-108.445
 20
52.387
 21
52.629
  0
LINE
  8
0
 10
-108.445
 11
-109.35
 20
52.629
 21
52.988
  0
LINE
  8
0
 10
-109.35
 11
-110.203
 20
52.988
 21
53.456
  0
LINE
  8
0
 10
-110.203
 11
-110.99
 20
53.456
 21
54.029
  0
LINE
  8
0
 10
-110.99
 11
-111.7
 20
54.029
 21
54.695
  0
LINE
  8
0
 10
-111.7
 11
-112.32
 20
54.695
 21
55.445
  0
LINE
  8
0
 10
-112.32
 11
-112.841
 20
55.445
 21
56.266
  0
LINE
  8
0
 10
-112.841
 11
-113.256
 20
56.266
 21
57.147
  0
LINE
  8
0
 10
-113.256
 11
-113.557
 20
57.147
 21
58.073
  0
LINE
  8
0
 10
-113.557
 11
-113.739
 20
58.073
 21
59.029
  0
LINE
  8
0
 10
-113.739
 11
-113.8
 20
59.029
 21
60
  0
LINE
  8
0
 10
-51.5
 11
-51.488
 20
-50
 21
-49.812
  0
LINE
  8
0
 10
-51.488
 11
-51.453
 20
-49.812
 21
-49.627
  0
LINE
  8
0
 10
-51.453
 11
-51.395
 20
-49.627
 21
-49.448
  0
LINE
  8
0
 10
-51.395
 11
-51.314
 20
-49.448
 21
-49.277
  0
LINE
  8
0
 10
-51.314
 11
-51.214
 20
-49.277
 21
-49.118
  0
LINE
  8
0
 10
-51.214
 11
-51.093
 20
-49.118
 21
-48.973
  0
LINE
  8
0
 10
-51.093
 11
-50.956
 20
-48.973
 21
-48.844
  0
LINE
  8
0
 10
-50.956
 11
-50.804
 20
-48.844
 21
-48.734
  0
LINE
  8
0
 10
-50.804
 11
-50.639
 20
-48.734
 21
-48.643
  0
LINE
  8
0
 10
-50.639
 11
-50.464
 20
-48.643
 21
-48.573
  0
LINE
  8
0
 10
-50.464
 11
-50.281
 20
-48.573
 21
-48.527
  0
LINE
  8
0
 10
-50.281
 11
-50.094
 20
-48.527
 21
-48.503
  0
LINE
  8
0
 10
-50.094
 11
-49.906
 20
-48.503
 21
-48.503
  0
LINE
  8
0
 10
-49.906
 11
-49.719
 20
-48.503
 21
-48.527
  0
LINE
  8
0
 10
-49.719
 11
-49.536
 20
-48.527
 21
-48.573
  0
LINE
  8
0
 10
-49.536
 11
-49.361
 20
-48.573
 21
-48.643
  0
LINE
  8
0
 10
-49.361
 11
-49.196
 20
-48.643
 21
-48.734
  0
LINE
  8
0
 10
-49.196
 11
-49.044
 20
-48.734
 21
-48.844
  0
LINE
  8
0
 10
-49.044
 11
-48.907
 20
-48.844
 21
-48.973
  0
LINE
  8
0
 10
-48.907
 11
-48.786
 20
-48.973
 21
-49.118
  0
LINE
  8
0
 10
-48.786
 11
-48.686
 20
-49.118
 21
-49.277
  0
LINE
  8
0
 10
-48.686
 11
-48.605
 20
-49.277
 21
-49.448
  0
LINE
  8
0
 10
-48.605
 11
-48.547
 20
-49.448
 21
-49.627
  0
LINE
  8
0
 10
-48.547
 11
-48.512
 20
-49.627
 21
-49.812
  0
LINE
  8
0
 10
-48.512
 11
-48.5
 20
-49.812
 21
-50
  0
LINE
  8
0
 10
-48.5
 11
-48.512
 20
-50
 21
-50.188
  0
LINE
  8
0
 10
-48.512
 11
-48.547
 20
-50.188
 21
-50.373
  0
LINE
  8
0
 10
-48.547
 11
-48.605
 20
-50.373
 21
-50.552
  0
LINE
  8
0
 10
-48.605
 11
-48.686
 20
-50.552
 21
-50.723
  0
LINE
  8
0
 10
-48.686
 11
-48.786
 20
-50.723
 21
-50.882
  0
LINE
  8
0
 10
-48.786
 11
-48.907
 20
-50.882
 21
-51.027
  0
LINE
  8
0
 10
-48.907
 11
-49.044
 20
-51.027
 21
-51.156
  0
LINE
  8
0
 10
-49.044
 11
-49.196
 20
-51.156
 21
-51.266
  0
LINE
  8
0
 10
-49.196
 11
-49.361
 20
-51.266
 21
-51.357
  0
LINE
  8
0
 10
-49.361
 11
-49.536
 20
-51.357
 21
-51.427
  0
LINE
  8
0
 10
-49.536
 11
-49.719
 20
-51.427
 21
-51.473
  0
LINE
  8
0
 10
-49.719
 11
-49.906
 20
-51.473
 21
-51.497
  0
LINE
  8
0
 10
-49.906
 11
-50.094
 20
-51.497
 21
-51.497
  0
LINE
  8
0
 10
-50.094
 11
-50.281
 20
-51.497
 21
-51.473
  0
LINE
  8
0
 10
-50.281
 11
-50.464
 20
-51.473
 21
-51.427
  0
LINE
  8
0
 10
-50.464
 11
-50.639
 20
-51.427
 21
-51.357
  0
LINE
  8
0
 10
-50.639
 11
-50.804
 20
-51.357
 21
-51.266
  0
LINE
  8
0
 10
-50.804
 11
-50.956
 20
-51.266
 21
-51.156
  0
LINE
  8
0
 10
-50.956
 11
-51.093
 20
-51.156
 21
-51.027
  0
LINE
  8
0
 10
-51.093
 11
-51.214
 20
-51.027
 21
-50.882
  0
LINE
  8
0
 10
-51.214
 11
-51.314
 20
-50.882
 21
-50.723
  0
LINE
  8
0
 10
-51.314
 11
-51.395
 20
-50.723
 21
-50.552
  0
LINE
  8
0
 10
-51.395
 11
-51.453
 20
-50.552
 21
-50.373
  0
LINE
  8
0
 10
-51.453
 11
-51.488
 20
-50.373
 21
-50.188
  0
LINE
  8
0
 10
-51.488
 11
-51.5
 20
-50.188
 21
-50
  0
LINE
  8
0
 10
-51.497
 11
-51.497
 20
49.906
 21
50.094
  0
LINE
  8
0
 10
-51.497
 11
-51.473
 20
50.094
 21
50.281
  0
LINE
  8
0
 10
-51.473
 11
-51.427
 20
50.281
 21
50.464
  0
LINE
  8
0
 10
-51.427
 11
-51.357
 20
50.464
 21
50.639
  0
LINE
  8
0
 10
-51.357
 11
-51.266
 20
50.639
 21
50.804
  0
LINE
  8
0
 10
-51.266
 11
-51.156
 20
50.804
 21
50.956
  0
LINE
  8
0
 10
-51.156
 11
-51.027
 20
50.956
 21
51.093
  0
LINE
  8
0
 10
-51.027
 11
-50.882
 20
51.093
 21
51.214
  0
LINE
  8
0
 10
-50.882
 11
-50.723
 20
51.214
 21
51.314
  0
LINE
  8
0
 10
-50.723
 11
-50.552
 20
51.314
 21
51.395
  0
LINE
  8
0
 10
-50.552
 11
-50.373
 20
51.395
 21
51.453
  0
LINE
  8
0
 10
-50.373
 11
-50.188
 20
51.453
 21
51.488
  0
LINE
  8
0
 10
-50.188
 11
-50
 20
51.488
 21
51.5
  0
LINE
  8
0
 10
-50
 11
-49.812
 20
51.5
 21
51.488
  0
LINE
  8
0
 10
-49.812
 11
-49.627
 20
51.488
 21
51.453
  0
LINE
  8
0
 10
-49.627
 11
-49.448
 20
51.453
 21
51.395
  0
LINE
  8
0
 10
-49.448
 11
-49.277
 20
51.395
 21
51.314
  0
LINE
  8
0
 10
-49.277
 11
-49.118
 20
51.314
 21
51.214
  0
LINE
  8
0
 10
-49.118
 11
-48.973
 20
51.214
 21
51.093
  0
LINE
  8
0
 10
-48.973
 11
-48.844
 20
51.093
 21
50.956
  0
LINE
  8
0
 10
-48.844
 11
-48.734
 20
50.956
 21
50.804
  0
LINE
  8
0
 10
-48.734
 11
-48.643
 20
50.804
 21
50.639
  0
LINE
  8
0
 10
-48.643
 11
-48.573
 20
50.639
 21
50.464
  0
LINE
  8
0
 10
-48.573
 11
-48.527
 20
50.464
 21
50.281
  0
LINE
  8
0
 10
-48.527
 11
-48.503
 20
50.281
 21
50.094
  0
LINE
  8
0
 10
-48.503
 11
-48.503
 20
50.094
 21
49.906
  0
LINE
  8
0
 10
-48.503
 11
-48.527
 20
49.906
 21
49.719
  0
LINE
  8
0
 10
-48.527
 11
-48.573
 20
49.719
 21
49.536
  0
LINE
  8
0
 10
-48.573
 11
-48.643
 20
49.536
 21
49.361
  0
LINE
  8
0
 10
-48.643
 11
-48.734
 20
49.361
 21
49.196
  0
LINE
  8
0
 10
-48.734
 11
-48.844
 20
49.196
 21
49.044
  0
LINE
  8
0
 10
-48.844
 11
-48.973
 20
49.044
 21
48.907
  0
LINE
  8
0
 10
-48.973
 11
-49.118
 20
48.907
 21
48.786
  0
LINE
  8
0
 10
-49.118
 11
-49.277
 20
48.786
 21
48.686
  0
LINE
  8
0
 10
-49.277
 11
-49.448
 20
48.686
 21
48.605
  0
LINE
  8
0
 10
-49.448
 11
-49.627
 20
48.605
 21
48.547
  0
LINE
  8
0
 10
-49.627
 11
-49.812
 20
48.547
 21
48.512
  0
LINE
  8
0
 10
-49.812
 11
-50
 20
48.512
 21
48.5
  0
LINE
  8
0
 10
-50
 11
-50.188
 20
48.5
 21
48.512
  0
LINE
  8
0
 10
-50.188
 11
-50.373
 20
48.512
 21
48.547
  0
LINE
  8
0
 10
-50.373
 11
-50.552
 20
48.547
 21
48.605
  0
LINE
  8
0
 10
-50.552
 11
-50.723
 20
48.605
 21
48.686
  0
LINE
  8
0
 10
-50.723
 11
-50.882
 20
48.686
 21
48.786
  0
LINE
  8
0
 10
-50.882
 11
-51.027
 20
48.786
 21
48.907
  0
LINE
  8
0
 10
-51.027
 11
-51.156
 20
48.907
 21
49.044
  0
LINE
  8
0
 10
-51.156
 11
-51.266
 20
49.044
 21
49.196
  0
LINE
  8
0
 10
-51.266
 11
-51.357
 20
49.196
 21
49.361
  0
LINE
  8
0
 10
-51.357
 11
-51.427
 20
49.361
 21
49.536
  0
LINE
  8
0
 10
-51.427
 11
-51.473
 20
49.536
 21
49.719
  0
LINE
  8
0
 10
-51.473
 11
-51.497
 20
49.719
 21
49.906
  0
LINE
  8
0
 10
48.5
 11
48.512
 20
50
 21
50.188
  0
LINE
  8
0
 10
48.512
 11
48.547
 20
50.188
 21
50.373
  0
LINE
  8
0
 10
48.547
 11
48.605
 20
50.373
 21
50.552
  0
LINE
  8
0
 10
48.605
 11
48.686
 20
50.552
 21
50.723
  0
LINE
  8
0
 10
48.686
 11
48.786
 20
50.723
 21
50.882
  0
LINE
  8
0
 10
48.786
 11
48.907
 20
50.882
 21
51.027
  0
LINE
  8
0
 10
48.907
 11
49.044
 20
51.027
 21
51.156
  0
LINE
  8
0
 10
49.044
 11
49.196
 20
51.156
 21
51.266
  0
LINE
  8
0
 10
49.196
 11
49.361
 20
51.266
 21
51.357
  0
LINE
  8
0
 10
49.361
 11
49.536
 20
51.357
 21
51.427
  0
LINE
  8
0
 10
49.536
 11
49.719
 20
51.427
 21
51.473
  0
LINE
  8
0
 10
49.719
 11
49.906
 20
51.473
 21
51.497
  0
LINE
  8
0
 10
49.906
 11
50.094
 20
51.497
 21
51.497
  0
LINE
  8
0
 10
50.094
 11
50.281
 20
51.497
 21
51.473
  0
LINE
  8
0
 10
50.281
 11
50.464
 20
51.473
 21
51.427
  0
LINE
  8
0
 10
50.464
 11
50.639
 20
51.427
 21
51.357
  0
LINE
  8
0
 10
50.639
 11
50.804
 20
51.357
 21
51.266
  0
LINE
  8
0
 10
50.804
 11
50.956
 20
51.266
 21
51.156
  0
LINE
  8
0
 10
50.956
 11
51.093
 20
51.156
 21
51.027
  0
LINE
  8
0
 10
51.093
 11
51.214
 20
51.027
 21
50.882
  0
LINE
  8
0
 10
51.214
 11
51.314
 20
50.882
 21
50.723
  0
LINE
  8
0
 10
51.314
 11
51.395
 20
50.723
 21
50.552
  0
LINE
  8
0
 10
51.395
 11
51.453
 20
50.552
 21
50.373
  0
LINE
  8
0
 10
51.453
 11
51.488
 20
50.373
 21
50.188
  0
LINE
  8
0
 10
51.488
 11
51.5
 20
50.188
 21
50
  0
LINE
  8
0
 10
51.5
 11
51.488
 20
50
 21
49.812
  0
LINE
  8
0
 10
51.488
 11
51.453
 20
49.812
 21
49.627
  0
LINE
  8
0
 10
51.453
 11
51.395
 20
49.627
 21
49.448
  0
LINE
  8
0
 10
51.395
 11
51.314
 20
49.448
 21
49.277
  0
LINE
  8
0
 10
51.314
 11
51.214
 20
49.277
 21
49.118
  0
LINE
  8
0
 10
51.214
 11
51.093
 20
49.118
 21
48.973
  0
LINE
  8
0
 10
51.093
 11
50.956
 20
48.973
 21
48.844
  0
LINE
  8
0
 10
50.956
 11
50.804
 20
48.844
 21
48.734
  0
LINE
  8
0
 10
50.804
 11
50.639
 20
48.734
 21
48.643
  0
LINE
  8
0
 10
50.639
 11
50.464
 20
48.643
 21
48.573
  0
LINE
  8
0
 10
50.464
 11
50.281
 20
48.573
 21
48.527
  0
LINE
  8
0
 10
50.281
 11
50.094
 20
48.527
 21
48.503
  0
LINE
  8
0
 10
50.094
 11
49.906
 20
48.503
 21
48.503
  0
LINE
  8
0
 10
49.906
 11
49.719
 20
48.503
 21
48.527
  0
LINE
  8
0
 10
49.719
 11
49.536
 20
48.527
 21
48.573
  0
LINE
  8
0
 10
49.536
 11
49.361
 20
48.573
 21
48.643
  0
LINE
  8
0
 10
49.361
 11
49.196
 20
48.643
 21
48.734
  0
LINE
  8
0
 10
49.196
 11
49.044
 20
48.734
 21
48.844
  0
LINE
  8
0
 10
49.044
 11
48.907
 20
48.844
 21
48.973
  0
LINE
  8
0
 10
48.907
 11
48.786
 20
48.973
 21
49.118
  0
LINE
  8
0
 10
48.786
 11
48.686
 20
49.118
 21
49.277
  0
LINE
  8
0
 10
48.686
 11
48.605
 20
49.277
 21
49.448
  0
LINE
  8
0
 10
48.605
 11
48.547
 20
49.448
 21
49.627
  0
LINE
  8
0
 10
48.547
 11
48.512
 20
49.627
 21
49.812
  0
LINE
  8
0
 10
48.512
 11
48.5
 20
49.812
 21
50
  0
LINE
  8
0
 10
48.503
 11
48.503
 20
-50.094
 21
-49.906
  0
LINE
  8
0
 10
48.503
 11
48.527
 20
-49.906
 21
-49.719
  0
LINE
  8
0
 10
48.527
 11
48.573
 20
-49.719
 21
-49.536
  0
LINE
  8
0
 10
48.573
 11
48.643
 20
-49.536
 21
-49.361
  0
LINE
  8
0
 10
48.643
 11
48.734
 20
-49.361
 21
-49.196
  0
LINE
  8
0
 10
48.734
 11
48.844
 20
-49.196
 21
-49.044
  0
LINE
  8
0
 10
48.844
 11
48.973
 20
-49.044
 21
-48.907
  0
LINE
  8
0
 10
48.973
 11
49.118
 20
-48.907
 21
-48.786
  0
LINE
  8
0
 10
49.118
 11
49.277
 20
-48.786
 21
-48.686
  0
LINE
  8
0
 10
49.277
 11
49.448
 20
-48.686
 21
-48.605
  0
LINE
  8
0
 10
49.448
 11
49.627
 20
-48.605
 21
-48.547
  0
LINE
  8
0
 10
49.627
 11
49.812
 20
-48.547
 21
-48.512
  0
LINE
  8
0
 10
49.812
 11
50
 20
-48.512
 21
-48.5
  0
LINE
  8
0
 10
50
 11
50.188
 20
-48.5
 21
-48.512
  0
LINE
  8
0
 10
50.188
 11
50.373
 20
-48.512
 21
-48.547
  0
LINE
  8
0
 10
50.373
 11
50.552
 20
-48.547
 21
-48.605
  0
LINE
  8
0
 10
50.552
 11
50.723
 20
-48.605
 21
-48.686
  0
LINE
  8
0
 10
50.723
 11
50.882
 20
-48.686
 21
-48.786
  0
LINE
  8
0
 10
50.882
 11
51.027
 20
-48.786
 21
-48.907
  0
LINE
  8
0
 10
51.027
 11
51.156
 20
-48.907
 21
-49.044
  0
LINE
  8
0
 10
51.156
 11
51.266
 20
-49.044
 21
-49.196
  0
LINE
  8
0
 10
51.266
 11
51.357
 20
-49.196
 21
-49.361
  0
LINE
  8
0
 10
51.357
 11
51.427
 20
-49.361
 21
-49.536
  0
LINE
  8
0
 10
51.427
 11
51.473
 20
-49.536
 21
-49.719
  0
LINE
  8
0
 10
51.473
 11
51.497
 20
-49.719
 21
-49.906
  0
LINE
  8
0
 10
51.497
 11
51.497
 20
-49.906
 21
-50.094
  0
LINE
  8
0
 10
51.497
 11
51.473
 20
-50.094
 21
-50.281
  0
LINE
  8
0
 10
51.473
 11
51.427
 20
-50.281
 21
-50.464
  0
LINE
  8
0
 10
51.427
 11
51.357
 20
-50.464
 21
-50.639
  0
LINE
  8
0
 10
51.357
 11
51.266
 20
-50.639
 21
-50.804
  0
LINE
  8
0
 10
51.266
 11
51.156
 20
-50.804
 21
-50.956
  0
LINE
  8
0
 10
51.156
 11
51.027
 20
-50.956
 21
-51.093
  0
LINE
  8
0
 10
51.027
 11
50.882
 20
-51.093
 21
-51.214
  0
LINE
  8
0
 10
50.882
 11
50.723
 20
-51.214
 21
-51.314
  0
LINE
  8
0
 10
50.723
 11
50.552
 20
-51.314
 21
-51.395
  0
LINE
  8
0
 10
50.552
 11
50.373
 20
-51.395
 21
-51.453
  0
LINE
  8
0
 10
50.373
 11
50.188
 20
-51.453
 21
-51.488
  0
LINE
  8
0
 10
50.188
 11
50
 20
-51.488
 21
-51.5
  0
LINE
  8
0
 10
50
 11
49.812
 20
-51.5
 21
-51.488
  0
LINE
  8
0
 10
49.812
 11
49.627
 20
-51.488
 21
-51.453
  0
LINE
  8
0
 10
49.627
 11
49.448
 20
-51.453
 21
-51.395
  0
LINE
  8
0
 10
49.448
 11
49.277
 20
-51.395
 21
-51.314
  0
LINE
  8
0
 10
49.277
 11
49.118
 20
-51.314
 21
-51.214
  0
LINE
  8
0
 10
49.118
 11
48.973
 20
-51.214
 21
-51.093
  0
LINE
  8
0
 10
48.973
 11
48.844
 20
-51.093
 21
-50.956
  0
LINE
  8
0
 10
48.844
 11
48.734
 20
-50.956
 21
-50.804
  0
LINE
  8
0
 10
48.734
 11
48.643
 20
-50.804
 21
-50.639
  0
LINE
  8
0
 10
48.643
 11
48.573
 20
-50.639
 21
-50.464
  0
LINE
  8
0
 10
48.573
 11
48.527
 20
-50.464
 21
-50.281
  0
LINE
  8
0
 10
48.527
 11
48.503
 20
-50.281
 21
-50.094
  0
LINE
  8
0
 10
98.3
 11
98.361
 20
-60
 21
-59.029
  0
LINE
  8
0
 10
98.361
 11
98.543
 20
-59.029
 21
-58.073
  0
LINE
  8
0
 10
98.543
 11
98.844
 20
-58.073
 21
-57.147
  0
LINE
  8
0
 10
98.844
 11
99.259
 20
-57.147
 21
-56.266
  0
LINE
  8
0
 10
99.259
 11
99.78
 20
-56.266
 21
-55.445
  0
LINE
  8
0
 10
99.78
 11
100.4
 20
-55.445
 21
-54.695
  0
LINE
  8
0
 10
100.4
 11
101.11
 20
-54.695
 21
-54.029
  0
LINE
  8
0
 10
101.11
 11
101.897
 20
-54.029
 21
-53.456
  0
LINE
  8
0
 10
101.897
 11
102.75
 20
-53.456
 21
-52.988
  0
LINE
  8
0
 10
102.75
 11
103.655
 20
-52.988
 21
-52.629
  0
LINE
  8
0
 10
103.655
 11
104.598
 20
-52.629
 21
-52.387
  0
LINE
  8
0
 10
104.598
 11
105.563
 20
-52.387
 21
-52.265
  0
LINE
  8
0
 10
105.563
 11
106.537
 20
-52.265
 21
-52.265
  0
LINE
  8
0
 10
106.537
 11
107.502
 20
-52.265
 21
-52.387
  0
LINE
  8
0
 10
107.502
 11
108.445
 20
-52.387
 21
-52.629
  0
LINE
  8
0
 10
108.445
 11
109.35
 20
-52.629
 21
-52.988
  0
LINE
  8
0
 10
109.35
 11
110.203
 20
-52.988
 21
-53.456
  0
LINE
  8
0
 10
110.203
 11
110.99
 20
-53.456
 21
-54.029
  0
LINE
  8
0
 10
110.99
 11
111.7
 20
-54.029
 21
-54.695
  0
LINE
  8
0
 10
111.7
 11
112.32
 20
-54.695
 21
-55.445
  0
LINE
  8
0
 10
112.32
 11
112.841
 20
-55.445
 21
-56.266
  0
LINE
  8
0
 10
112.841
 11
113.256
 20
-56.266
 21
-57.147
  0
LINE
  8
0
 10
113.256
 11
113.557
 20
-57.147
 21
-58.073
  0
LINE
  8
0
 10
113.557
 11
113.739
 20
-58.073
 21
-59.029
  0
LINE
  8
0
 10
113.739
 11
113.8
 20
-59.029
 21
-60
  0
LINE
  8
0
 10
113.8
 11
113.739
 20
-60
 21
-60.971
  0
LINE
  8
0
 10
113.739
 11
113.557
 20
-60.971
 21
-61.927
  0
LINE
  8
0
 10
113.557
 11
113.256
 20
-61.927
 21
-62.853
  0
LINE
  8
0
 10
113.256
 11
112.841
 20
-62.853
 21
-63.734
  0
LINE
  8
0
 10
112.841
 11
112.32
 20
-63.734
 21
-64.555
  0
LINE
  8
0
 10
112.32
 11
111.7
 20
-64.555
 21
-65.305
  0
LINE
  8
0
 10
111.7
 11
110.99
 20
-65.305
 21
-65.971
  0
LINE
  8
0
 10
110.99
 11
110.203
 20
-65.971
 21
-66.544
  0
LINE
  8
0
 10
110.203
 11
109.35
 20
-66.544
 21
-67.012
  0
LINE
  8
0
 10
109.35
 11
108.445
 20
-67.012
 21
-67.371
  0
LINE
  8
0
 10
108.445
 11
107.502
 20
-67.371
 21
-67.613
  0
LINE
  8
0
 10
107.502
 11
106.537
 20
-67.613
 21
-67.735
  0
LINE
  8
0
 10
106.537
 11
105.563
 20
-67.735
 21
-67.735
  0
LINE
  8
0
 10
105.563
 11
104.598
 20
-67.735
 21
-67.613
  0
LINE
  8
0
 10
104.598
 11
103.655
 20
-67.613
 21
-67.371
  0
LINE
  8
0
 10
103.655
 11
102.75
 20
-67.371
 21
-67.012
  0
LINE
  8
0
 10
102.75
 11
101.897
 20
-67.012
 21
-66.544
  0
LINE
  8
0
 10
101.897
 11
101.11
 20
-66.544
 21
-65.971
  0
LINE
  8
0
 10
101.11
 11
100.4
 20
-65.971
 21
-65.305
  0
LINE
  8
0
 10
100.4
 11
99.78
 20
-65.305
 21
-64.555
  0
LINE
  8
0
 10
99.78
 11
99.259
 20
-64.555
 21
-63.734
  0
LINE
  8
0
 10
99.259
 11
98.844
 20
-63.734
 21
-62.853
  0
LINE
  8
0
 10
98.844
 11
98.543
 20
-62.853
 21
-61.927
  0
LINE
  8
0
 10
98.543
 11
98.361
 20
-61.927
 21
-60.971
  0
LINE
  8
0
 10
98.361
 11
98.3
 20
-60.971
 21
-60
  0
LINE
  8
0
 10
98.3
 11
98.361
 20
0
 21
0.971
  0
LINE
  8
0
 10
98.361
 11
98.543
 20
0.971
 21
1.927
  0
LINE
  8
0
 10
98.543
 11
98.844
 20
1.927
 21
2.853
  0
LINE
  8
0
 10
98.844
 11
99.259
 20
2.853
 21
3.734
  0
LINE
  8
0
 10
99.259
 11
99.78
 20
3.734
 21
4.555
  0
LINE
  8
0
 10
99.78
 11
100.4
 20
4.555
 21
5.305
  0
LINE
  8
0
 10
100.4
 11
101.11
 20
5.305
 21
5.971
  0
LINE
  8
0
 10
101.11
 11
101.897
 20
5.971
 21
6.544
  0
LINE
  8
0
 10
101.897
 11
102.75
 20
6.544
 21
7.012
  0
LINE
  8
0
 10
102.75
 11
103.655
 20
7.012
 21
7.371
  0
LINE
  8
0
 10
103.655
 11
104.598
 20
7.371
 21
7.613
  0
LINE
  8
0
 10
104.598
 11
105.563
 20
7.613
 21
7.735
  0
LINE
  8
0
 10
105.563
 11
106.537
 20
7.735
 21
7.735
  0
LINE
  8
0
 10
106.537
 11
107.502
 20
7.735
 21
7.613
  0
LINE
  8
0
 10
107.502
 11
108.445
 20
7.613
 21
7.371
  0
LINE
  8
0
 10
108.445
 11
109.35
 20
7.371
 21
7.012
  0
LINE
  8
0
 10
109.35
 11
110.203
 20
7.012
 21
6.544
  0
LINE
  8
0
 10
110.203
 11
110.99
 20
6.544
 21
5.971
  0
LINE
  8
0
 10
110.99
 11
111.7
 20
5.971
 21
5.305
  0
LINE
  8
0
 10
111.7
 11
112.32
 20
5.305
 21
4.555
  0
LINE
  8
0
 10
112.32
 11
112.841
 20
4.555
 21
3.734
  0
LINE
  8
0
 10
112.841
 11
113.256
 20
3.734
 21
2.853
  0
LINE
  8
0
 10
113.256
 11
113.557
 20
2.853
 21
1.927
  0
LINE
  8
0
 10
113.557
 11
113.739
 20
1.927
 21
0.971
  0
LINE
  8
0
 10
113.739
 11
113.8
 20
0.971
 21
0
  0
LINE
  8
0
 10
113.8
 11
113.739
 20
0
 21
-0.971
  0
LINE
  8
0
 10
113.739
 11
113.557
 20
-0.971
 21
-1.927
  0
LINE
  8
0
 10
113.557
 11
113.256
 20
-1.927
 21
-2.853
  0
LINE
  8
0
 10
113.256
 11
112.841
 20
-2.853
 21
-3.734
  0
LINE
  8
0
 10
112.841
 11
112.32
 20
-3.734
 21
-4.555
  0
LINE
  8
0
 10
112.32
 11
111.7
 20
-4.555
 21
-5.305
  0
LINE
  8
0
 10
111.7
 11
110.99
 20
-5.305
 21
-5.971
  0
LINE
  8
0
 10
110.99
 11
110.203
 20
-5.971
 21
-6.544
  0
LINE
  8
0
 10
110.203
 11
109.35
 20
-6.544
 21
-7.012
  0
LINE
  8
0
 10
109.35
 11
108.445
 20
-7.012
 21
-7.371
  0
LINE
  8
0
 10
108.445
 11
107.502
 20
-7.371
 21
-7.613
  0
LINE
  8
0
 10
107.502
 11
106.537
 20
-7.613
 21
-7.735
  0
LINE
  8
0
 10
106.537
 11
105.563
 20
-7.735
 21
-7.735
  0
LINE
  8
0
 10
105.563
 11
104.598
 20
-7.735
 21
-7.613
  0
LINE
  8
0
 10
104.598
 11
103.655
 20
-7.613
 21
-7.371
  0
LINE
  8
0
 10
103.655
 11
102.75
 20
-7.371
 21
-7.012
  0
LINE
  8
0
 10
102.75
 11
101.897
 20
-7.012
 21
-6.544
  0
LINE
  8
0
 10
101.897
 11
101.11
 20
-6.544
 21
-5.971
  0
LINE
  8
0
 10
101.11
 11
100.4
 20
-5.971
 21
-5.305
  0
LINE
  8
0
 10
100.4
 11
99.78
 20
-5.305
 21
-4.555
  0
LINE
  8
0
 10
99.78
 11
99.259
 20
-4.555
 21
-3.734
  0
LINE
  8
0
 10
99.259
 11
98.844
 20
-3.734
 21
-2.853
  0
LINE
  8
0
 10
98.844
 11
98.543
 20
-2.853
 21
-1.927
  0
LINE
  8
0
 10
98.543
 11
98.361
 20
-1.927
 21
-0.971
  0
LINE
  8
0
 10
98.361
 11
98.3
 20
-0.971
 21
0
  0
LINE
  8
0
 10
98.3
 11
98.361
 20
60
 21
60.971
  0
LINE
  8
0
 10
98.361
 11
98.543
 20
60.971
 21
61.927
  0
LINE
  8
0
 10
98.543
 11
98.844
 20
61.927
 21
62.853
  0
LINE
  8
0
 10
98.844
 11
99.259
 20
62.853
 21
63.734
  0
LINE
  8
0
 10
99.259
 11
99.78
 20
63.734
 21
64.555
  0
LINE
  8
0
 10
99.78
 11
100.4
 20
64.555
 21
65.305
  0
LINE
  8
0
 10
100.4
 11
101.11
 20
65.305
 21
65.971
  0
LINE
  8
0
 10
101.11
 11
101.897
 20
65.971
 21
66.544
  0
LINE
  8
0
 10
101.897
 11
102.75
 20
66.544
 21
67.012
  0
LINE
  8
0
 10
102.75
 11
103.655
 20
67.012
 21
67.371
  0
LINE
  8
0
 10
103.655
 11
104.598
 20
67.371
 21
67.613
  0
LINE
  8
0
 10
104.598
 11
105.563
 20
67.613
 21
67.735
  0
LINE
  8
0
 10
105.563
 11
106.537
 20
67.735
 21
67.735
  0
LINE
  8
0
 10
106.537
 11
107.502
 20
67.735
 21
67.613
  0
LINE
  8
0
 10
107.502
 11
108.445
 20
67.613
 21
67.371
  0
LINE
  8
0
 10
108.445
 11
109.35
 20
67.371
 21
67.012
  0
LINE
  8
0
 10
109.35
 11
110.203
 20
67.012
 21
66.544
  0
LINE
  8
0
 10
110.203
 11
110.99
 20
66.544
 21
65.971
  0
LINE
  8
0
 10
110.99
 11
111.7
 20
65.971
 21
65.305
  0
LINE
  8
0
 10
111.7
 11
112.32
 20
65.305
 21
64.555
  0
LINE
  8
0
 10
112.32
 11
112.841
 20
64.555
 21
63.734
  0
LINE
  8
0
 10
112.841
 11
113.256
 20
63.734
 21
62.853
  0
LINE
  8
0
 10
113.256
 11
113.557
 20
62.853
 21
61.927
  0
LINE
  8
0
 10
113.557
 11
113.739
 20
61.927
 21
60.971
  0
LINE
  8
0
 10
113.739
 11
113.8
 20
60.971
 21
60
  0
LINE
  8
0
 10
113.8
 11
113.739
 20
60
 21
59.029
  0
LINE
  8
0
 10
113.739
 11
113.557
 20
59.029
 21
58.073
  0
LINE
  8
0
 10
113.557
 11
113.256
 20
58.073
 21
57.147
  0
LINE
  8
0
 10
113.256
 11
112.841
 20
57.147
 21
56.266
  0
LINE
  8
0
 10
112.841
 11
112.32
 20
56.266
 21
55.445
  0
LINE
  8
0
 10
112.32
 11
111.7
 20
55.445
 21
54.695
  0
LINE
  8
0
 10
111.7
 11
110.99
 20
54.695
 21
54.029
  0
LINE
  8
0
 10
110.99
 11
110.203
 20
54.029
 21
53.456
  0
LINE
  8
0
 10
110.203
 11
109.35
 20
53.456
 21
52.988
  0
LINE
  8
0
 10
109.35
 11
108.445
 20
52.988
 21
52.629
  0
LINE
  8
0
 10
108.445
 11
107.502
 20
52.629
 21
52.387
  0
LINE
  8
0
 10
107.502
 11
106.537
 20
52.387
 21
52.265
  0
LINE
  8
0
 10
106.537
 11
105.563
 20
52.265
 21
52.265
  0
LINE
  8
0
 10
105.563
 11
104.598
 20
52.265
 21
52.387
  0
LINE
  8
0
 10
104.598
 11
103.655
 20
52.387
 21
52.629
  0
LINE
  8
0
 10
103.655
 11
102.75
 20
52.629
 21
52.988
  0
LINE
  8
0
 10
102.75
 11
101.897
 20
52.988
 21
53.456
  0
LINE
  8
0
 10
101.897
 11
101.11
 20
53.456
 21
54.029
  0
LINE
  8
0
 10
101.11
 11
100.4
 20
54.029
 21
54.695
  0
LINE
  8
0
 10
100.4
 11
99.78
 20
54.695
 21
55.445
  0
LINE
  8
0
 10
99.78
 11
99.259
 20
55.445
 21
56.266
  0
LINE
  8
0
 10
99.259
 11
98.844
 20
56.266
 21
57.147
  0
LINE
  8
0
 10
98.844
 11
98.543
 20
57.147
 21
58.073
  0
LINE
  8
0
 10
98.543
 11
98.361
 20
58.073
 21
59.029
  0
LINE
  8
0
 10
98.361
 11
98.3
 20
59.029
 21
60
  0
LINE
  8
0
 10
115
 11
115
 20
-100
 21
-95
  0
LINE
  8
0
 10
115
 11
120
 20
-95
 21
-95
  0
LINE
  8
0
 10
120
 11
120
 20
-95
 21
-100
  0
LINE
  8
0
 10
120
 11
115
 20
-100
 21
-100
  0
LINE
  8
0
 10
115
 11
115
 20
-75
 21
-70
  0
LINE
  8
0
 10
115
 11
120
 20
-70
 21
-70
  0
LINE
  8
0
 10
120
 11
120
 20
-70
 21
-75
  0
LINE
  8
0
 10
120
 11
115
 20
-75
 21
-75
  0
LINE
  8
0
 10
115
 11
115
 20
70
 21
75
  0
LINE
  8
0
 10
115
 11
120
 20
75
 21
75
  0
LINE
  8
0
 10
120
 11
120
 20
75
 21
70
  0
LINE
  8
0
 10
120
 11
115
 20
70
 21
70
  0
LINE
  8
0
 10
115
 11
115
 20
95
 21
100
  0
LINE
  8
0
 10
115
 11
120
 20
100
 21
100
  0
LINE
  8
0
 10
120
 11
120
 20
100
 21
95
  0
LINE
  8
0
 10
120
 11
115
 20
95
 21
95
  0
LINE
  8
0
 10
118
 11
118.012
 20
0
 21
0.188
  0
LINE
  8
0
 10
118.012
 11
118.047
 20
0.188
 21
0.373
  0
LINE
  8
0
 10
118.047
 11
118.105
 20
0.373
 21
0.552
  0
LINE
  8
0
 10
118.105
 11
118.186
 20
0.552
 21
0.723
  0
LINE
  8
0
 10
118.186
 11
118.286
 20
0.723
 21
0.882
  0
LINE
  8
0
 10
118.286
 11
118.407
 20
0.882
 21
1.027
  0
LINE
  8
0
 10
118.407
 11
118.544
 20
1.027
 21
1.156
  0
LINE
  8
0
 10
118.544
 11
118.696
 20
1.156
 21
1.266
  0
LINE
  8
0
 10
118.696
 11
118.861
 20
1.266
 21
1.357
  0
LINE
  8
0
 10
118.861
 11
119.036
 20
1.357
 21
1.427
  0
LINE
  8
0
 10
119.036
 11
119.219
 20
1.427
 21
1.473
  0
LINE
  8
0
 10
119.219
 11
119.406
 20
1.473
 21
1.497
  0
LINE
  8
0
 10
119.406
 11
119.594
 20
1.497
 21
1.497
  0
LINE
  8
0
 10
119.594
 11
119.781
 20
1.497
 21
1.473
  0
LINE
  8
0
 10
119.781
 11
119.964
 20
1.473
 21
1.427
  0
LINE
  8
0
 10
119.964
 11
120.139
 20
1.427
 21
1.357
  0
LINE
  8
0
 10
120.139
 11
120.304
 20
1.357
 21
1.266
  0
LINE
  8
0
 10
120.304
 11
120.456
 20
1.266
 21
1.156
  0
LINE
  8
0
 10
120.456
 11
120.593
 20
1.156
 21
1.027
  0
LINE
  8
0
 10
120.593
 11
120.714
 20
1.027
 21
0.882
  0
LINE
  8
0
 10
120.714
 11
120.814
 20
0.882
 21
0.723
  0
LINE
  8
0
 10
120.814
 11
120.895
 20
0.723
 21
0.552
  0
LINE
  8
0
 10
120.895
 11
120.953
 20
0.552
 21
0.373
  0
LINE
  8
0
 10
120.953
 11
120.988
 20
0.373
 21
0.188
  0
LINE
  8
0
 10
120.988
 11
121
 20
0.188
 21
0
  0
LINE
  8
0
 10
121
 11
120.988
 20
0
 21
-0.188
  0
LINE
  8
0
 10
120.988
 11
120.953
 20
-0.188
 21
-0.373
  0
LINE
  8
0
 10
120.953
 11
120.895
 20
-0.373
 21
-0.552
  0
LINE
  8
0
 10
120.895
 11
120.814
 20
-0.552
 21
-0.723
  0
LINE
  8
0
 10
120.814
 11
120.714
 20
-0.723
 21
-0.882
  0
LINE
  8
0
 10
120.714
 11
120.593
 20
-0.882
 21
-1.027
  0
LINE
  8
0
 10
120.593
 11
120.456
 20
-1.027
 21
-1.156
  0
LINE
  8
0
 10
120.456
 11
120.304
 20
-1.156
 21
-1.266
  0
LINE
  8
0
 10
120.304
 11
120.139
 20
-1.266
 21
-1.357
  0
LINE
  8
0
 10
120.139
 11
119.964
 20
-1.357
 21
-1.427
  0
LINE
  8
0
 10
119.964
 11
119.781
 20
-1.427
 21
-1.473
  0
LINE
  8
0
 10
119.781
 11
119.594
 20
-1.473
 21
-1.497
  0
LINE
  8
0
 10
119.594
 11
119.406
 20
-1.497
 21
-1.497
  0
LINE
  8
0
 10
119.406
 11
119.219
 20
-1.497
 21
-1.473
  0
LINE
  8
0
 10
119.219
 11
119.036
 20
-1.473
 21
-1.427
  0
LINE
  8
0
 10
119.036
 11
118.861
 20
-1.427
 21
-1.357
  0
LINE
  8
0
 10
118.861
 11
118.696
 20
-1.357
 21
-1.266
  0
LINE
  8
0
 10
118.696
 11
118.544
 20
-1.266
 21
-1.156
  0
LINE
  8
0
 10
118.544
 11
118.407
 20
-1.156
 21
-1.027
  0
LINE
  8
0
 10
118.407
 11
118.286
 20
-1.027
 21
-0.882
  0
LINE
  8
0
 10
118.286
 11
118.186
 20
-0.882
 21
-0.723
  0
LINE
  8
0
 10
118.186
 11
118.105
 20
-0.723
 21
-0.552
  0
LINE
  8
0
 10
118.105
 11
118.047
 20
-0.552
 21
-0.373
  0
LINE
  8
0
 10
118.047
 11
118.012
 20
-0.373
 21
-0.188
  0
LINE
  8
0
 10
118.012
 11
118
 20
-0.188
 21
0
  0
LINE
  8
0
 10
122.5
 11
122.539
 20
0
 21
0.627
  0
LINE
  8
0
 10
122.539
 11
122.657
 20
0.627
 21
1.243
  0
LINE
  8
0
 10
122.657
 11
122.851
 20
1.243
 21
1.841
  0
LINE
  8
0
 10
122.851
 11
123.118
 20
1.841
 21
2.409
  0
LINE
  8
0
 10
123.118
 11
123.455
 20
2.409
 21
2.939
  0
LINE
  8
0
 10
123.455
 11
123.855
 20
2.939
 21
3.423
  0
LINE
  8
0
 10
123.855
 11
124.313
 20
3.423
 21
3.853
  0
LINE
  8
0
 10
124.313
 11
124.821
 20
3.853
 21
4.222
  0
LINE
  8
0
 10
124.821
 11
125.371
 20
4.222
 21
4.524
  0
LINE
  8
0
 10
125.371
 11
125.955
 20
4.524
 21
4.755
  0
LINE
  8
0
 10
125.955
 11
126.563
 20
4.755
 21
4.911
  0
LINE
  8
0
 10
126.563
 11
127.186
 20
4.911
 21
4.99
  0
LINE
  8
0
 10
127.186
 11
127.814
 20
4.99
 21
4.99
  0
LINE
  8
0
 10
127.814
 11
128.437
 20
4.99
 21
4.911
  0
LINE
  8
0
 10
128.437
 11
129.045
 20
4.911
 21
4.755
  0
LINE
  8
0
 10
129.045
 11
129.629
 20
4.755
 21
4.524
  0
LINE
  8
0
 10
129.629
 11
130.179
 20
4.524
 21
4.222
  0
LINE
  8
0
 10
130.179
 11
130.687
 20
4.222
 21
3.853
  0
LINE
  8
0
 10
130.687
 11
131.145
 20
3.853
 21
3.423
  0
LINE
  8
0
 10
131.145
 11
131.545
 20
3.423
 21
2.939
  0
LINE
  8
0
 10
131.545
 11
131.882
 20
2.939
 21
2.409
  0
LINE
  8
0
 10
131.882
 11
132.149
 20
2.409
 21
1.841
  0
LINE
  8
0
 10
132.149
 11
132.343
 20
1.841
 21
1.243
  0
LINE
  8
0
 10
132.343
 11
132.461
 20
1.243
 21
0.627
  0
LINE
  8
0
 10
132.461
 11
132.5
 20
0.627
 21
0
  0
LINE
  8
0
 10
132.5
 11
132.461
 20
0
 21
-0.627
  0
LINE
  8
0
 10
132.461
 11
132.343
 20
-0.627
 21
-1.243
  0
LINE
  8
0
 10
132.343
 11
132.149
 20
-1.243
 21
-1.841
  0
LINE
  8
0
 10
132.149
 11
131.882
 20
-1.841
 21
-2.409
  0
LINE
  8
0
 10
131.882
 11
131.545
 20
-2.409
 21
-2.939
  0
LINE
  8
0
 10
131.545
 11
131.145
 20
-2.939
 21
-3.423
  0
LINE
  8
0
 10
131.145
 11
130.687
 20
-3.423
 21
-3.853
  0
LINE
  8
0
 10
130.687
 11
130.179
 20
-3.853
 21
-4.222
  0
LINE
  8
0
 10
130.179
 11
129.629
 20
-4.222
 21
-4.524
  0
LINE
  8
0
 10
129.629
 11
129.045
 20
-4.524
 21
-4.755
  0
LINE
  8
0
 10
129.045
 11
128.437
 20
-4.755
 21
-4.911
  0
LINE
  8
0
 10
128.437
 11
127.814
 20
-4.911
 21
-4.99
  0
LINE
  8
0
 10
127.814
 11
127.186
 20
-4.99
 21
-4.99
  0
LINE
  8
0
 10
127.186
 11
126.563
 20
-4.99
 21
-4.911
  0
LINE
  8
0
 10
126.563
 11
125.955
 20
-4.911
 21
-4.755
  0
LINE
  8
0
 10
125.955
 11
125.371
 20
-4.755
 21
-4.524
  0
LINE
  8
0
 10
125.371
 11
124.821
 20
-4.524
 21
-4.222
  0
LINE
  8
0
 10
124.821
 11
124.313
 20
-4.222
 21
-3.853
  0
LINE
  8
0
 10
124.313
 11
123.855
 20
-3.853
 21
-3.423
  0
LINE
  8
0
 10
123.855
 11
123.455
 20
-3.423
 21
-2.939
  0
LINE
  8
0
 10
123.455
 11
123.118
 20
-2.939
 21
-2.409
  0
LINE
  8
0
 10
123.118
 11
122.851
 20
-2.409
 21
-1.841
  0
LINE
  8
0
 10
122.851
 11
122.657
 20
-1.841
 21
-1.243
  0
LINE
  8
0
 10
122.657
 11
122.539
 20
-1.243
 21
-0.627
  0
LINE
  8
0
 10
122.539
 11
122.5
 20
-0.627
 21
0
  0
LINE
  8
0
 10
123.3
 11
123.333
 20
-85
 21
-84.474
  0
LINE
  8
0
 10
123.333
 11
123.432
 20
-84.474
 21
-83.956
  0
LINE
  8
0
 10
123.432
 11
123.595
 20
-83.956
 21
-83.454
  0
LINE
  8
0
 10
123.595
 11
123.82
 20
-83.454
 21
-82.977
  0
LINE
  8
0
 10
123.82
 11
124.102
 20
-82.977
 21
-82.531
  0
LINE
  8
0
 10
124.102
 11
124.438
 20
-82.531
 21
-82.125
  0
LINE
  8
0
 10
124.438
 11
124.823
 20
-82.125
 21
-81.764
  0
LINE
  8
0
 10
124.823
 11
125.25
 20
-81.764
 21
-81.454
  0
LINE
  8
0
 10
125.25
 11
125.712
 20
-81.454
 21
-81.2
  0
LINE
  8
0
 10
125.712
 11
126.202
 20
-81.2
 21
-81.006
  0
LINE
  8
0
 10
126.202
 11
126.713
 20
-81.006
 21
-80.874
  0
LINE
  8
0
 10
126.713
 11
127.236
 20
-80.874
 21
-80.808
  0
LINE
  8
0
 10
127.236
 11
127.764
 20
-80.808
 21
-80.808
  0
LINE
  8
0
 10
127.764
 11
128.287
 20
-80.808
 21
-80.874
  0
LINE
  8
0
 10
128.287
 11
128.798
 20
-80.874
 21
-81.006
  0
LINE
  8
0
 10
128.798
 11
129.288
 20
-81.006
 21
-81.2
  0
LINE
  8
0
 10
129.288
 11
129.75
 20
-81.2
 21
-81.454
  0
LINE
  8
0
 10
129.75
 11
130.177
 20
-81.454
 21
-81.764
  0
LINE
  8
0
 10
130.177
 11
130.562
 20
-81.764
 21
-82.125
  0
LINE
  8
0
 10
130.562
 11
130.898
 20
-82.125
 21
-82.531
  0
LINE
  8
0
 10
130.898
 11
131.18
 20
-82.531
 21
-82.977
  0
LINE
  8
0
 10
131.18
 11
131.405
 20
-82.977
 21
-83.454
  0
LINE
  8
0
 10
131.405
 11
131.568
 20
-83.454
 21
-83.956
  0
LINE
  8
0
 10
131.568
 11
131.667
 20
-83.956
 21
-84.474
  0
LINE
  8
0
 10
131.667
 11
131.7
 20
-84.474
 21
-85
  0
LINE
  8
0
 10
131.7
 11
131.667
 20
-85
 21
-85.526
  0
LINE
  8
0
 10
131.667
 11
131.568
 20
-85.526
 21
-86.044
  0
LINE
  8
0
 10
131.568
 11
131.405
 20
-86.044
 21
-86.546
  0
LINE
  8
0
 10
131.405
 11
131.18
 20
-86.546
 21
-87.023
  0
LINE
  8
0
 10
131.18
 11
130.898
 20
-87.023
 21
-87.469
  0
LINE
  8
0
 10
130.898
 11
130.562
 20
-87.469
 21
-87.875
  0
LINE
  8
0
 10
130.562
 11
130.177
 20
-87.875
 21
-88.236
  0
LINE
  8
0
 10
130.177
 11
129.75
 20
-88.236
 21
-88.546
  0
LINE
  8
0
 10
129.75
 11
129.288
 20
-88.546
 21
-88.8
  0
LINE
  8
0
 10
129.288
 11
128.798
 20
-88.8
 21
-88.994
  0
LINE
  8
0
 10
128.798
 11
128.287
 20
-88.994
 21
-89.126
  0
LINE
  8
0
 10
128.287
 11
127.764
 20
-89.126
 21
-89.192
  0
LINE
  8
0
 10
127.764
 11
127.236
 20
-89.192
 21
-89.192
  0
LINE
  8
0
 10
127.236
 11
126.713
 20
-89.192
 21
-89.126
  0
LINE
  8
0
 10
126.713
 11
126.202
 20
-89.126
 21
-88.994
  0
LINE
  8
0
 10
126.202
 11
125.712
 20
-88.994
 21
-88.8
  0
LINE
  8
0
 10
125.712
 11
125.25
 20
-88.8
 21
-88.546
  0
LINE
  8
0
 10
125.25
 11
124.823
 20
-88.546
 21
-88.236
  0
LINE
  8
0
 10
124.823
 11
124.438
 20
-88.236
 21
-87.875
  0
LINE
  8
0
 10
124.438
 11
124.102
 20
-87.875
 21
-87.469
  0
LINE
  8
0
 10
124.102
 11
123.82
 20
-87.469
 21
-87.023
  0
LINE
  8
0
 10
123.82
 11
123.595
 20
-87.023
 21
-86.546
  0
LINE
  8
0
 10
123.595
 11
123.432
 20
-86.546
 21
-86.044
  0
LINE
  8
0
 10
123.432
 11
123.333
 20
-86.044
 21
-85.526
  0
LINE
  8
0
 10
123.333
 11
123.3
 20
-85.526
 21
-85
  0
LINE
  8
0
 10
123.3
 11
123.333
 20
85
 21
85.526
  0
LINE
  8
0
 10
123.333
 11
123.432
 20
85.526
 21
86.044
  0
LINE
  8
0
 10
123.432
 11
123.595
 20
86.044
 21
86.546
  0
LINE
  8
0
 10
123.595
 11
123.82
 20
86.546
 21
87.023
  0
LINE
  8
0
 10
123.82
 11
124.102
 20
87.023
 21
87.469
  0
LINE
  8
0
 10
124.102
 11
124.438
 20
87.469
 21
87.875
  0
LINE
  8
0
 10
124.438
 11
124.823
 20
87.875
 21
88.236
  0
LINE
  8
0
 10
124.823
 11
125.25
 20
88.236
 21
88.546
  0
LINE
  8
0
 10
125.25
 11
125.712
 20
88.546
 21
88.8
  0
LINE
  8
0
 10
125.712
 11
126.202
 20
88.8
 21
88.994
  0
LINE
  8
0
 10
126.202
 11
126.713
 20
88.994
 21
89.126
  0
LINE
  8
0
 10
126.713
 11
127.236
 20
89.126
 21
89.192
  0
LINE
  8
0
 10
127.236
 11
127.764
 20
89.192
 21
89.192
  0
LINE
  8
0
 10
127.764
 11
128.287
 20
89.192
 21
89.126
  0
LINE
  8
0
 10
128.287
 11
128.798
 20
89.126
 21
88.994
  0
LINE
  8
0
 10
128.798
 11
129.288
 20
88.994
 21
88.8
  0
LINE
  8
0
 10
129.288
 11
129.75
 20
88.8
 21
88.546
  0
LINE
  8
0
 10
129.75
 11
130.177
 20
88.546
 21
88.236
  0
LINE
  8
0
 10
130.177
 11
130.562
 20
88.236
 21
87.875
  0
LINE
  8
0
 10
130.562
 11
130.898
 20
87.875
 21
87.469
  0
LINE
  8
0
 10
130.898
 11
131.18
 20
87.469
 21
87.023
  0
LINE
  8
0
 10
131.18
 11
131.405
 20
87.023
 21
86.546
  0
LINE
  8
0
 10
131.405
 11
131.568
 20
86.546
 21
86.044
  0
LINE
  8
0
 10
131.568
 11
131.667
 20
86.044
 21
85.526
  0
LINE
  8
0
 10
131.667
 11
131.7
 20
85.526
 21
85
  0
LINE
  8
0
 10
131.7
 11
131.667
 20
85
 21
84.474
  0
LINE
  8
0
 10
131.667
 11
131.568
 20
84.474
 21
83.956
  0
LINE
  8
0
 10
131.568
 11
131.405
 20
83.956
 21
83.454
  0
LINE
  8
0
 10
131.405
 11
131.18
 20
83.454
 21
82.977
  0
LINE
  8
0
 10
131.18
 11
130.898
 20
82.977
 21
82.531
  0
LINE
  8
0
 10
130.898
 11
130.562
 20
82.531
 21
82.125
  0
LINE
  8
0
 10
130.562
 11
130.177
 20
82.125
 21
81.764
  0
LINE
  8
0
 10
130.177
 11
129.75
 20
81.764
 21
81.454
  0
LINE
  8
0
 10
129.75
 11
129.288
 20
81.454
 21
81.2
  0
LINE
  8
0
 10
129.288
 11
128.798
 20
81.2
 21
81.006
  0
LINE
  8
0
 10
128.798
 11
128.287
 20
81.006
 21
80.874
  0
LINE
  8
0
 10
128.287
 11
127.764
 20
80.874
 21
80.808
  0
LINE
  8
0
 10
127.764
 11
127.236
 20
80.808
 21
80.808
  0
LINE
  8
0
 10
127.236
 11
126.713
 20
80.808
 21
80.874
  0
LINE
  8
0
 10
126.713
 11
126.202
 20
80.874
 21
81.006
  0
LINE
  8
0
 10
126.202
 11
125.712
 20
81.006
 21
81.2
  0
LINE
  8
0
 10
125.712
 11
125.25
 20
81.2
 21
81.454
  0
LINE
  8
0
 10
125.25
 11
124.823
 20
81.454
 21
81.764
  0
LINE
  8
0
 10
124.823
 11
124.438
 20
81.764
 21
82.125
  0
LINE
  8
0
 10
124.438
 11
124.102
 20
82.125
 21
82.531
  0
LINE
  8
0
 10
124.102
 11
123.82
 20
82.531
 21
82.977
  0
LINE
  8
0
 10
123.82
 11
123.595
 20
82.977
 21
83.454
  0
LINE
  8
0
 10
123.595
 11
123.432
 20
83.454
 21
83.956
  0
LINE
  8
0
 10
123.432
 11
123.333
 20
83.956
 21
84.474
  0
LINE
  8
0
 10
123.333
 11
123.3
 20
84.474
 21
85
  0
LINE
  8
0
 10
126
 11
126.012
 20
-97.5
 21
-97.312
  0
LINE
  8
0
 10
126.012
 11
126.047
 20
-97.312
 21
-97.127
  0
LINE
  8
0
 10
126.047
 11
126.105
 20
-97.127
 21
-96.948
  0
LINE
  8
0
 10
126.105
 11
126.186
 20
-96.948
 21
-96.777
  0
LINE
  8
0
 10
126.186
 11
126.286
 20
-96.777
 21
-96.618
  0
LINE
  8
0
 10
126.286
 11
126.407
 20
-96.618
 21
-96.473
  0
LINE
  8
0
 10
126.407
 11
126.544
 20
-96.473
 21
-96.344
  0
LINE
  8
0
 10
126.544
 11
126.696
 20
-96.344
 21
-96.234
  0
LINE
  8
0
 10
126.696
 11
126.861
 20
-96.234
 21
-96.143
  0
LINE
  8
0
 10
126.861
 11
127.036
 20
-96.143
 21
-96.073
  0
LINE
  8
0
 10
127.036
 11
127.219
 20
-96.073
 21
-96.027
  0
LINE
  8
0
 10
127.219
 11
127.406
 20
-96.027
 21
-96.003
  0
LINE
  8
0
 10
127.406
 11
127.594
 20
-96.003
 21
-96.003
  0
LINE
  8
0
 10
127.594
 11
127.781
 20
-96.003
 21
-96.027
  0
LINE
  8
0
 10
127.781
 11
127.964
 20
-96.027
 21
-96.073
  0
LINE
  8
0
 10
127.964
 11
128.139
 20
-96.073
 21
-96.143
  0
LINE
  8
0
 10
128.139
 11
128.304
 20
-96.143
 21
-96.234
  0
LINE
  8
0
 10
128.304
 11
128.456
 20
-96.234
 21
-96.344
  0
LINE
  8
0
 10
128.456
 11
128.593
 20
-96.344
 21
-96.473
  0
LINE
  8
0
 10
128.593
 11
128.714
 20
-96.473
 21
-96.618
  0
LINE
  8
0
 10
128.714
 11
128.814
 20
-96.618
 21
-96.777
  0
LINE
  8
0
 10
128.814
 11
128.895
 20
-96.777
 21
-96.948
  0
LINE
  8
0
 10
128.895
 11
128.953
 20
-96.948
 21
-97.127
  0
LINE
  8
0
 10
128.953
 11
128.988
 20
-97.127
 21
-97.312
  0
LINE
  8
0
 10
128.988
 11
129
 20
-97.312
 21
-97.5
  0
LINE
  8
0
 10
129
 11
128.988
 20
-97.5
 21
-97.688
  0
LINE
  8
0
 10
128.988
 11
128.953
 20
-97.688
 21
-97.873
  0
LINE
  8
0
 10
128.953
 11
128.895
 20
-97.873
 21
-98.052
  0
LINE
  8
0
 10
128.895
 11
128.814
 20
-98.052
 21
-98.223
  0
LINE
  8
0
 10
128.814
 11
128.714
 20
-98.223
 21
-98.382
  0
LINE
  8
0
 10
128.714
 11
128.593
 20
-98.382
 21
-98.527
  0
LINE
  8
0
 10
128.593
 11
128.456
 20
-98.527
 21
-98.656
  0
LINE
  8
0
 10
128.456
 11
128.304
 20
-98.656
 21
-98.766
  0
LINE
  8
0
 10
128.304
 11
128.139
 20
-98.766
 21
-98.857
  0
LINE
  8
0
 10
128.139
 11
127.964
 20
-98.857
 21
-98.927
  0
LINE
  8
0
 10
127.964
 11
127.781
 20
-98.927
 21
-98.973
  0
LINE
  8
0
 10
127.781
 11
127.594
 20
-98.973
 21
-98.997
  0
LINE
  8
0
 10
127.594
 11
127.406
 20
-98.997
 21
-98.997
  0
LINE
  8
0
 10
127.406
 11
127.219
 20
-98.997
 21
-98.973
  0
LINE
  8
0
 10
127.219
 11
127.036
 20
-98.973
 21
-98.927
  0
LINE
  8
0
 10
127.036
 11
126.861
 20
-98.927
 21
-98.857
  0
LINE
  8
0
 10
126.861
 11
126.696
 20
-98.857
 21
-98.766
  0
LINE
  8
0
 10
126.696
 11
126.544
 20
-98.766
 21
-98.656
  0
LINE
  8
0
 10
126.544
 11
126.407
 20
-98.656
 21
-98.527
  0
LINE
  8
0
 10
126.407
 11
126.286
 20
-98.527
 21
-98.382
  0
LINE
  8
0
 10
126.286
 11
126.186
 20
-98.382
 21
-98.223
  0
LINE
  8
0
 10
126.186
 11
126.105
 20
-98.223
 21
-98.052
  0
LINE
  8
0
 10
126.105
 11
126.047
 20
-98.052
 21
-97.873
  0
LINE
  8
0
 10
126.047
 11
126.012
 20
-97.873
 21
-97.688
  0
LINE
  8
0
 10
126.012
 11
126
 20
-97.688
 21
-97.5
  0
LINE
  8
0
 10
126
 11
126.012
 20
-72.5
 21
-72.312
  0
LINE
  8
0
 10
126.012
 11
126.047
 20
-72.312
 21
-72.127
  0
LINE
  8
0
 10
126.047
 11
126.105
 20
-72.127
 21
-71.948
  0
LINE
  8
0
 10
126.105
 11
126.186
 20
-71.948
 21
-71.777
  0
LINE
  8
0
 10
126.186
 11
126.286
 20
-71.777
 21
-71.618
  0
LINE
  8
0
 10
126.286
 11
126.407
 20
-71.618
 21
-71.473
  0
LINE
  8
0
 10
126.407
 11
126.544
 20
-71.473
 21
-71.344
  0
LINE
  8
0
 10
126.544
 11
126.696
 20
-71.344
 21
-71.234
  0
LINE
  8
0
 10
126.696
 11
126.861
 20
-71.234
 21
-71.143
  0
LINE
  8
0
 10
126.861
 11
127.036
 20
-71.143
 21
-71.073
  0
LINE
  8
0
 10
127.036
 11
127.219
 20
-71.073
 21
-71.027
  0
LINE
  8
0
 10
127.219
 11
127.406
 20
-71.027
 21
-71.003
  0
LINE
  8
0
 10
127.406
 11
127.594
 20
-71.003
 21
-71.003
  0
LINE
  8
0
 10
127.594
 11
127.781
 20
-71.003
 21
-71.027
  0
LINE
  8
0
 10
127.781
 11
127.964
 20
-71.027
 21
-71.073
  0
LINE
  8
0
 10
127.964
 11
128.139
 20
-71.073
 21
-71.143
  0
LINE
  8
0
 10
128.139
 11
128.304
 20
-71.143
 21
-71.234
  0
LINE
  8
0
 10
128.304
 11
128.456
 20
-71.234
 21
-71.344
  0
LINE
  8
0
 10
128.456
 11
128.593
 20
-71.344
 21
-71.473
  0
LINE
  8
0
 10
128.593
 11
128.714
 20
-71.473
 21
-71.618
  0
LINE
  8
0
 10
128.714
 11
128.814
 20
-71.618
 21
-71.777
  0
LINE
  8
0
 10
128.814
 11
128.895
 20
-71.777
 21
-71.948
  0
LINE
  8
0
 10
128.895
 11
128.953
 20
-71.948
 21
-72.127
  0
LINE
  8
0
 10
128.953
 11
128.988
 20
-72.127
 21
-72.312
  0
LINE
  8
0
 10
128.988
 11
129
 20
-72.312
 21
-72.5
  0
LINE
  8
0
 10
129
 11
128.988
 20
-72.5
 21
-72.688
  0
LINE
  8
0
 10
128.988
 11
128.953
 20
-72.688
 21
-72.873
  0
LINE
  8
0
 10
128.953
 11
128.895
 20
-72.873
 21
-73.052
  0
LINE
  8
0
 10
128.895
 11
128.814
 20
-73.052
 21
-73.223
  0
LINE
  8
0
 10
128.814
 11
128.714
 20
-73.223
 21
-73.382
  0
LINE
  8
0
 10
128.714
 11
128.593
 20
-73.382
 21
-73.527
  0
LINE
  8
0
 10
128.593
 11
128.456
 20
-73.527
 21
-73.656
  0
LINE
  8
0
 10
128.456
 11
128.304
 20
-73.656
 21
-73.766
  0
LINE
  8
0
 10
128.304
 11
128.139
 20
-73.766
 21
-73.857
  0
LINE
  8
0
 10
128.139
 11
127.964
 20
-73.857
 21
-73.927
  0
LINE
  8
0
 10
127.964
 11
127.781
 20
-73.927
 21
-73.973
  0
LINE
  8
0
 10
127.781
 11
127.594
 20
-73.973
 21
-73.997
  0
LINE
  8
0
 10
127.594
 11
127.406
 20
-73.997
 21
-73.997
  0
LINE
  8
0
 10
127.406
 11
127.219
 20
-73.997
 21
-73.973
  0
LINE
  8
0
 10
127.219
 11
127.036
 20
-73.973
 21
-73.927
  0
LINE
  8
0
 10
127.036
 11
126.861
 20
-73.927
 21
-73.857
  0
LINE
  8
0
 10
126.861
 11
126.696
 20
-73.857
 21
-73.766
  0
LINE
  8
0
 10
126.696
 11
126.544
 20
-73.766
 21
-73.656
  0
LINE
  8
0
 10
126.544
 11
126.407
 20
-73.656
 21
-73.527
  0
LINE
  8
0
 10
126.407
 11
126.286
 20
-73.527
 21
-73.382
  0
LINE
  8
0
 10
126.286
 11
126.186
 20
-73.382
 21
-73.223
  0
LINE
  8
0
 10
126.186
 11
126.105
 20
-73.223
 21
-73.052
  0
LINE
  8
0
 10
126.105
 11
126.047
 20
-73.052
 21
-72.873
  0
LINE
  8
0
 10
126.047
 11
126.012
 20
-72.873
 21
-72.688
  0
LINE
  8
0
 10
126.012
 11
126
 20
-72.688
 21
-72.5
  0
LINE
  8
0
 10
126
 11
126.012
 20
72.5
 21
72.688
  0
LINE
  8
0
 10
126.012
 11
126.047
 20
72.688
 21
72.873
  0
LINE
  8
0
 10
126.047
 11
126.105
 20
72.873
 21
73.052
  0
LINE
  8
0
 10
126.105
 11
126.186
 20
73.052
 21
73.223
  0
LINE
  8
0
 10
126.186
 11
126.286
 20
73.223
 21
73.382
  0
LINE
  8
0
 10
126.286
 11
126.407
 20
73.382
 21
73.527
  0
LINE
  8
0
 10
126.407
 11
126.544
 20
73.527
 21
73.656
  0
LINE
  8
0
 10
126.544
 11
126.696
 20
73.656
 21
73.766
  0
LINE
  8
0
 10
126.696
 11
126.861
 20
73.766
 21
73.857
  0
LINE
  8
0
 10
126.861
 11
127.036
 20
73.857
 21
73.927
  0
LINE
  8
0
 10
127.036
 11
127.219
 20
73.927
 21
73.973
  0
LINE
  8
0
 10
127.219
 11
127.406
 20
73.973
 21
73.997
  0
LINE
  8
0
 10
127.406
 11
127.594
 20
73.997
 21
73.997
  0
LINE
  8
0
 10
127.594
 11
127.781
 20
73.997
 21
73.973
  0
LINE
  8
0
 10
127.781
 11
127.964
 20
73.973
 21
73.927
  0
LINE
  8
0
 10
127.964
 11
128.139
 20
73.927
 21
73.857
  0
LINE
  8
0
 10
128.139
 11
128.304
 20
73.857
 21
73.766
  0
LINE
  8
0
 10
128.304
 11
128.456
 20
73.766
 21
73.656
  0
LINE
  8
0
 10
128.456
 11
128.593
 20
73.656
 21
73.527
  0
LINE
  8
0
 10
128.593
 11
128.714
 20
73.527
 21
73.382
  0
LINE
  8
0
 10
128.714
 11
128.814
 20
73.382
 21
73.223
  0
LINE
  8
0
 10
128.814
 11
128.895
 20
73.223
 21
73.052
  0
LINE
  8
0
 10
128.895
 11
128.953
 20
73.052
 21
72.873
  0
LINE
  8
0
 10
128.953
 11
128.988
 20
72.873
 21
72.688
  0
LINE
  8
0
 10
128.988
 11
129
 20
72.688
 21
72.5
  0
LINE
  8
0
 10
129
 11
128.988
 20
72.5
 21
72.312
  0
LINE
  8
0
 10
128.988
 11
128.953
 20
72.312
 21
72.127
  0
LINE
  8
0
 10
128.953
 11
128.895
 20
72.127
 21
71.948
  0
LINE
  8
0
 10
128.895
 11
128.814
 20
71.948
 21
71.777
  0
LINE
  8
0
 10
128.814
 11
128.714
 20
71.777
 21
71.618
  0
LINE
  8
0
 10
128.714
 11
128.593
 20
71.618
 21
71.473
  0
LINE
  8
0
 10
128.593
 11
128.456
 20
71.473
 21
71.344
  0
LINE
  8
0
 10
128.456
 11
128.304
 20
71.344
 21
71.234
  0
LINE
  8
0
 10
128.304
 11
128.139
 20
71.234
 21
71.143
  0
LINE
  8
0
 10
128.139
 11
127.964
 20
71.143
 21
71.073
  0
LINE
  8
0
 10
127.964
 11
127.781
 20
71.073
 21
71.027
  0
LINE
  8
0
 10
127.781
 11
127.594
 20
71.027
 21
71.003
  0
LINE
  8
0
 10
127.594
 11
127.406
 20
71.003
 21
71.003
  0
LINE
  8
0
 10
127.406
 11
127.219
 20
71.003
 21
71.027
  0
LINE
  8
0
 10
127.219
 11
127.036
 20
71.027
 21
71.073
  0
LINE
  8
0
 10
127.036
 11
126.861
 20
71.073
 21
71.143
  0
LINE
  8
0
 10
126.861
 11
126.696
 20
71.143
 21
71.234
  0
LINE
  8
0
 10
126.696
 11
126.544
 20
71.234
 21
71.344
  0
LINE
  8
0
 10
126.544
 11
126.407
 20
71.344
 21
71.473
  0
LINE
  8
0
 10
126.407
 11
126.286
 20
71.473
 21
71.618
  0
LINE
  8
0
 10
126.286
 11
126.186
 20
71.618
 21
71.777
  0
LINE
  8
0
 10
126.186
 11
126.105
 20
71.777
 21
71.948
  0
LINE
  8
0
 10
126.105
 11
126.047
 20
71.948
 21
72.127
  0
LINE
  8
0
 10
126.047
 11
126.012
 20
72.127
 21
72.312
  0
LINE
  8
0
 10
126.012
 11
126
 20
72.312
 21
72.5
  0
LINE
  8
0
 10
126
 11
126.012
 20
97.5
 21
97.688
  0
LINE
  8
0
 10
126.012
 11
126.047
 20
97.688
 21
97.873
  0
LINE
  8
0
 10
126.047
 11
126.105
 20
97.873
 21
98.052
  0
LINE
  8
0
 10
126.105
 11
126.186
 20
98.052
 21
98.223
  0
LINE
  8
0
 10
126.186
 11
126.286
 20
98.223
 21
98.382
  0
LINE
  8
0
 10
126.286
 11
126.407
 20
98.382
 21
98.527
  0
LINE
  8
0
 10
126.407
 11
126.544
 20
98.527
 21
98.656
  0
LINE
  8
0
 10
126.544
 11
126.696
 20
98.656
 21
98.766
  0
LINE
  8
0
 10
126.696
 11
126.861
 20
98.766
 21
98.857
  0
LINE
  8
0
 10
126.861
 11
127.036
 20
98.857
 21
98.927
  0
LINE
  8
0
 10
127.036
 11
127.219
 20
98.927
 21
98.973
  0
LINE
  8
0
 10
127.219
 11
127.406
 20
98.973
 21
98.997
  0
LINE
  8
0
 10
127.406
 11
127.594
 20
98.997
 21
98.997
  0
LINE
  8
0
 10
127.594
 11
127.781
 20
98.997
 21
98.973
  0
LINE
  8
0
 10
127.781
 11
127.964
 20
98.973
 21
98.927
  0
LINE
  8
0
 10
127.964
 11
128.139
 20
98.927
 21
98.857
  0
LINE
  8
0
 10
128.139
 11
128.304
 20
98.857
 21
98.766
  0
LINE
  8
0
 10
128.304
 11
128.456
 20
98.766
 21
98.656
  0
LINE
  8
0
 10
128.456
 11
128.593
 20
98.656
 21
98.527
  0
LINE
  8
0
 10
128.593
 11
128.714
 20
98.527
 21
98.382
  0
LINE
  8
0
 10
128.714
 11
128.814
 20
98.382
 21
98.223
  0
LINE
  8
0
 10
128.814
 11
128.895
 20
98.223
 21
98.052
  0
LINE
  8
0
 10
128.895
 11
128.953
 20
98.052
 21
97.873
  0
LINE
  8
0
 10
128.953
 11
128.988
 20
97.873
 21
97.688
  0
LINE
  8
0
 10
128.988
 11
129
 20
97.688
 21
97.5
  0
LINE
  8
0
 10
129
 11
128.988
 20
97.5
 21
97.312
  0
LINE
  8
0
 10
128.988
 11
128.953
 20
97.312
 21
97.127
  0
LINE
  8
0
 10
128.953
 11
128.895
 20
97.127
 21
96.948
  0
LINE
  8
0
 10
128.895
 11
128.814
 20
96.948
 21
96.777
  0
LINE
  8
0
 10
128.814
 11
128.714
 20
96.777
 21
96.618
  0
LINE
  8
0
 10
128.714
 11
128.593
 20
96.618
 21
96.473
  0
LINE
  8
0
 10
128.593
 11
128.456
 20
96.473
 21
96.344
  0
LINE
  8
0
 10
128.456
 11
128.304
 20
96.344
 21
96.234
  0
LINE
  8
0
 10
128.304
 11
128.139
 20
96.234
 21
96.143
  0
LINE
  8
0
 10
128.139
 11
127.964
 20
96.143
 21
96.073
  0
LINE
  8
0
 10
127.964
 11
127.781
 20
96.073
 21
96.027
  0
LINE
  8
0
 10
127.781
 11
127.594
 20
96.027
 21
96.003
  0
LINE
  8
0
 10
127.594
 11
127.406
 20
96.003
 21
96.003
  0
LINE
  8
0
 10
127.406
 11
127.219
 20
96.003
 21
96.027
  0
LINE
  8
0
 10
127.219
 11
127.036
 20
96.027
 21
96.073
  0
LINE
  8
0
 10
127.036
 11
126.861
 20
96.073
 21
96.143
  0
LINE
  8
0
 10
126.861
 11
126.696
 20
96.143
 21
96.234
  0
LINE
  8
0
 10
126.696
 11
126.544
 20
96.234
 21
96.344
  0
LINE
  8
0
 10
126.544
 11
126.407
 20
96.344
 21
96.473
  0
LINE
  8
0
 10
126.407
 11
126.286
 20
96.473
 21
96.618
  0
LINE
  8
0
 10
126.286
 11
126.186
 20
96.618
 21
96.777
  0
LINE
  8
0
 10
126.186
 11
126.105
 20
96.777
 21
96.948
  0
LINE
  8
0
 10
126.105
 11
126.047
 20
96.948
 21
97.127
  0
LINE
  8
0
 10
126.047
 11
126.012
 20
97.127
 21
97.312
  0
LINE
  8
0
 10
126.012
 11
126
 20
97.312
 21
97.5
  0
LINE
  8
0
 10
126.003
 11
126.003
 20
-8.094
 21
-7.906
  0
LINE
  8
0
 10
126.003
 11
126.027
 20
-7.906
 21
-7.719
  0
LINE
  8
0
 10
126.027
 11
126.073
 20
-7.719
 21
-7.536
  0
LINE
  8
0
 10
126.073
 11
126.143
 20
-7.536
 21
-7.361
  0
LINE
  8
0
 10
126.143
 11
126.234
 20
-7.361
 21
-7.196
  0
LINE
  8
0
 10
126.234
 11
126.344
 20
-7.196
 21
-7.044
  0
LINE
  8
0
 10
126.344
 11
126.473
 20
-7.044
 21
-6.907
  0
LINE
  8
0
 10
126.473
 11
126.618
 20
-6.907
 21
-6.786
  0
LINE
  8
0
 10
126.618
 11
126.777
 20
-6.786
 21
-6.686
  0
LINE
  8
0
 10
126.777
 11
126.948
 20
-6.686
 21
-6.605
  0
LINE
  8
0
 10
126.948
 11
127.127
 20
-6.605
 21
-6.547
  0
LINE
  8
0
 10
127.127
 11
127.312
 20
-6.547
 21
-6.512
  0
LINE
  8
0
 10
127.312
 11
127.5
 20
-6.512
 21
-6.5
  0
LINE
  8
0
 10
127.5
 11
127.688
 20
-6.5
 21
-6.512
  0
LINE
  8
0
 10
127.688
 11
127.873
 20
-6.512
 21
-6.547
  0
LINE
  8
0
 10
127.873
 11
128.052
 20
-6.547
 21
-6.605
  0
LINE
  8
0
 10
128.052
 11
128.223
 20
-6.605
 21
-6.686
  0
LINE
  8
0
 10
128.223
 11
128.382
 20
-6.686
 21
-6.786
  0
LINE
  8
0
 10
128.382
 11
128.527
 20
-6.786
 21
-6.907
  0
LINE
  8
0
 10
128.527
 11
128.656
 20
-6.907
 21
-7.044
  0
LINE
  8
0
 10
128.656
 11
128.766
 20
-7.044
 21
-7.196
  0
LINE
  8
0
 10
128.766
 11
128.857
 20
-7.196
 21
-7.361
  0
LINE
  8
0
 10
128.857
 11
128.927
 20
-7.361
 21
-7.536
  0
LINE
  8
0
 10
128.927
 11
128.973
 20
-7.536
 21
-7.719
  0
LINE
  8
0
 10
128.973
 11
128.997
 20
-7.719
 21
-7.906
  0
LINE
  8
0
 10
128.997
 11
128.997
 20
-7.906
 21
-8.094
  0
LINE
  8
0
 10
128.997
 11
128.973
 20
-8.094
 21
-8.281
  0
LINE
  8
0
 10
128.973
 11
128.927
 20
-8.281
 21
-8.464
  0
LINE
  8
0
 10
128.927
 11
128.857
 20
-8.464
 21
-8.639
  0
LINE
  8
0
 10
128.857
 11
128.766
 20
-8.639
 21
-8.804
  0
LINE
  8
0
 10
128.766
 11
128.656
 20
-8.804
 21
-8.956
  0
LINE
  8
0
 10
128.656
 11
128.527
 20
-8.956
 21
-9.093
  0
LINE
  8
0
 10
128.527
 11
128.382
 20
-9.093
 21
-9.214
  0
LINE
  8
0
 10
128.382
 11
128.223
 20
-9.214
 21
-9.314
  0
LINE
  8
0
 10
128.223
 11
128.052
 20
-9.314
 21
-9.395
  0
LINE
  8
0
 10
128.052
 11
127.873
 20
-9.395
 21
-9.453
  0
LINE
  8
0
 10
127.873
 11
127.688
 20
-9.453
 21
-9.488
  0
LINE
  8
0
 10
127.688
 11
127.5
 20
-9.488
 21
-9.5
  0
LINE
  8
0
 10
127.5
 11
127.312
 20
-9.5
 21
-9.488
  0
LINE
  8
0
 10
127.312
 11
127.127
 20
-9.488
 21
-9.453
  0
LINE
  8
0
 10
127.127
 11
126.948
 20
-9.453
 21
-9.395
  0
LINE
  8
0
 10
126.948
 11
126.777
 20
-9.395
 21
-9.314
  0
LINE
  8
0
 10
126.777
 11
126.618
 20
-9.314
 21
-9.214
  0
LINE
  8
0
 10
126.618
 11
126.473
 20
-9.214
 21
-9.093
  0
LINE
  8
0
 10
126.473
 11
126.344
 20
-9.093
 21
-8.956
  0
LINE
  8
0
 10
126.344
 11
126.234
 20
-8.956
 21
-8.804
  0
LINE
  8
0
 10
126.234
 11
126.143
 20
-8.804
 21
-8.639
  0
LINE
  8
0
 10
126.143
 11
126.073
 20
-8.639
 21
-8.464
  0
LINE
  8
0
 10
126.073
 11
126.027
 20
-8.464
 21
-8.281
  0
LINE
  8
0
 10
126.027
 11
126.003
 20
-8.281
 21
-8.094
  0
LINE
  8
0
 10
126.003
 11
126.003
 20
7.906
 21
8.094
  0
LINE
  8
0
 10
126.003
 11
126.027
 20
8.094
 21
8.281
  0
LINE
  8
0
 10
126.027
 11
126.073
 20
8.281
 21
8.464
  0
LINE
  8
0
 10
126.073
 11
126.143
 20
8.464
 21
8.639
  0
LINE
  8
0
 10
126.143
 11
126.234
 20
8.639
 21
8.804
  0
LINE
  8
0
 10
126.234
 11
126.344
 20
8.804
 21
8.956
  0
LINE
  8
0
 10
126.344
 11
126.473
 20
8.956
 21
9.093
  0
LINE
  8
0
 10
126.473
 11
126.618
 20
9.093
 21
9.214
  0
LINE
  8
0
 10
126.618
 11
126.777
 20
9.214
 21
9.314
  0
LINE
  8
0
 10
126.777
 11
126.948
 20
9.314
 21
9.395
  0
LINE
  8
0
 10
126.948
 11
127.127
 20
9.395
 21
9.453
  0
LINE
  8
0
 10
127.127
 11
127.312
 20
9.453
 21
9.488
  0
LINE
  8
0
 10
127.312
 11
127.5
 20
9.488
 21
9.5
  0
LINE
  8
0
 10
127.5
 11
127.688
 20
9.5
 21
9.488
  0
LINE
  8
0
 10
127.688
 11
127.873
 20
9.488
 21
9.453
  0
LINE
  8
0
 10
127.873
 11
128.052
 20
9.453
 21
9.395
  0
LINE
  8
0
 10
128.052
 11
128.223
 20
9.395
 21
9.314
  0
LINE
  8
0
 10
128.223
 11
128.382
 20
9.314
 21
9.214
  0
LINE
  8
0
 10
128.382
 11
128.527
 20
9.214
 21
9.093
  0
LINE
  8
0
 10
128.527
 11
128.656
 20
9.093
 21
8.956
  0
LINE
  8
0
 10
128.656
 11
128.766
 20
8.956
 21
8.804
  0
LINE
  8
0
 10
128.766
 11
128.857
 20
8.804
 21
8.639
  0
LINE
  8
0
 10
128.857
 11
128.927
 20
8.639
 21
8.464
  0
LINE
  8
0
 10
128.927
 11
128.973
 20
8.464
 21
8.281
  0
LINE
  8
0
 10
128.973
 11
128.997
 20
8.281
 21
8.094
  0
LINE
  8
0
 10
128.997
 11
128.997
 20
8.094
 21
7.906
  0
LINE
  8
0
 10
128.997
 11
128.973
 20
7.906
 21
7.719
  0
LINE
  8
0
 10
128.973
 11
128.927
 20
7.719
 21
7.536
  0
LINE
  8
0
 10
128.927
 11
128.857
 20
7.536
 21
7.361
  0
LINE
  8
0
 10
128.857
 11
128.766
 20
7.361
 21
7.196
  0
LINE
  8
0
 10
128.766
 11
128.656
 20
7.196
 21
7.044
  0
LINE
  8
0
 10
128.656
 11
128.527
 20
7.044
 21
6.907
  0
LINE
  8
0
 10
128.527
 11
128.382
 20
6.907
 21
6.786
  0
LINE
  8
0
 10
128.382
 11
128.223
 20
6.786
 21
6.686
  0
LINE
  8
0
 10
128.223
 11
128.052
 20
6.686
 21
6.605
  0
LINE
  8
0
 10
128.052
 11
127.873
 20
6.605
 21
6.547
  0
LINE
  8
0
 10
127.873
 11
127.688
 20
6.547
 21
6.512
  0
LINE
  8
0
 10
127.688
 11
127.5
 20
6.512
 21
6.5
  0
LINE
  8
0
 10
127.5
 11
127.312
 20
6.5
 21
6.512
  0
LINE
  8
0
 10
127.312
 11
127.127
 20
6.512
 21
6.547
  0
LINE
  8
0
 10
127.127
 11
126.948
 20
6.547
 21
6.605
  0
LINE
  8
0
 10
126.948
 11
126.777
 20
6.605
 21
6.686
  0
LINE
  8
0
 10
126.777
 11
126.618
 20
6.686
 21
6.786
  0
LINE
  8
0
 10
126.618
 11
126.473
 20
6.786
 21
6.907
  0
LINE
  8
0
 10
126.473
 11
126.344
 20
6.907
 21
7.044
  0
LINE
  8
0
 10
126.344
 11
126.234
 20
7.044
 21
7.196
  0
LINE
  8
0
 10
126.234
 11
126.143
 20
7.196
 21
7.361
  0
LINE
  8
0
 10
126.143
 11
126.073
 20
7.361
 21
7.536
  0
LINE
  8
0
 10
126.073
 11
126.027
 20
7.536
 21
7.719
  0
LINE
  8
0
 10
126.027
 11
126.003
 20
7.719
 21
7.906
  0
LINE
  8
0
 10
134
 11
134.012
 20
0
 21
0.188
  0
LINE
  8
0
 10
134.012
 11
134.047
 20
0.188
 21
0.373
  0
LINE
  8
0
 10
134.047
 11
134.105
 20
0.373
 21
0.552
  0
LINE
  8
0
 10
134.105
 11
134.186
 20
0.552
 21
0.723
  0
LINE
  8
0
 10
134.186
 11
134.286
 20
0.723
 21
0.882
  0
LINE
  8
0
 10
134.286
 11
134.407
 20
0.882
 21
1.027
  0
LINE
  8
0
 10
134.407
 11
134.544
 20
1.027
 21
1.156
  0
LINE
  8
0
 10
134.544
 11
134.696
 20
1.156
 21
1.266
  0
LINE
  8
0
 10
134.696
 11
134.861
 20
1.266
 21
1.357
  0
LINE
  8
0
 10
134.861
 11
135.036
 20
1.357
 21
1.427
  0
LINE
  8
0
 10
135.036
 11
135.219
 20
1.427
 21
1.473
  0
LINE
  8
0
 10
135.219
 11
135.406
 20
1.473
 21
1.497
  0
LINE
  8
0
 10
135.406
 11
135.594
 20
1.497
 21
1.497
  0
LINE
  8
0
 10
135.594
 11
135.781
 20
1.497
 21
1.473
  0
LINE
  8
0
 10
135.781
 11
135.964
 20
1.473
 21
1.427
  0
LINE
  8
0
 10
135.964
 11
136.139
 20
1.427
 21
1.357
  0
LINE
  8
0
 10
136.139
 11
136.304
 20
1.357
 21
1.266
  0
LINE
  8
0
 10
136.304
 11
136.456
 20
1.266
 21
1.156
  0
LINE
  8
0
 10
136.456
 11
136.593
 20
1.156
 21
1.027
  0
LINE
  8
0
 10
136.593
 11
136.714
 20
1.027
 21
0.882
  0
LINE
  8
0
 10
136.714
 11
136.814
 20
0.882
 21
0.723
  0
LINE
  8
0
 10
136.814
 11
136.895
 20
0.723
 21
0.552
  0
LINE
  8
0
 10
136.895
 11
136.953
 20
0.552
 21
0.373
  0
LINE
  8
0
 10
136.953
 11
136.988
 20
0.373
 21
0.188
  0
LINE
  8
0
 10
136.988
 11
137
 20
0.188
 21
0
  0
LINE
  8
0
 10
137
 11
136.988
 20
0
 21
-0.188
  0
LINE
  8
0
 10
136.988
 11
136.953
 20
-0.188
 21
-0.373
  0
LINE
  8
0
 10
136.953
 11
136.895
 20
-0.373
 21
-0.552
  0
LINE
  8
0
 10
136.895
 11
136.814
 20
-0.552
 21
-0.723
  0
LINE
  8
0
 10
136.814
 11
136.714
 20
-0.723
 21
-0.882
  0
LINE
  8
0
 10
136.714
 11
136.593
 20
-0.882
 21
-1.027
  0
LINE
  8
0
 10
136.593
 11
136.456
 20
-1.027
 21
-1.156
  0
LINE
  8
0
 10
136.456
 11
136.304
 20
-1.156
 21
-1.266
  0
LINE
  8
0
 10
136.304
 11
136.139
 20
-1.266
 21
-1.357
  0
LINE
  8
0
 10
136.139
 11
135.964
 20
-1.357
 21
-1.427
  0
LINE
  8
0
 10
135.964
 11
135.781
 20
-1.427
 21
-1.473
  0
LINE
  8
0
 10
135.781
 11
135.594
 20
-1.473
 21
-1.497
  0
LINE
  8
0
 10
135.594
 11
135.406
 20
-1.497
 21
-1.497
  0
LINE
  8
0
 10
135.406
 11
135.219
 20
-1.497
 21
-1.473
  0
LINE
  8
0
 10
135.219
 11
135.036
 20
-1.473
 21
-1.427
  0
LINE
  8
0
 10
135.036
 11
134.861
 20
-1.427
 21
-1.357
  0
LINE
  8
0
 10
134.861
 11
134.696
 20
-1.357
 21
-1.266
  0
LINE
  8
0
 10
134.696
 11
134.544
 20
-1.266
 21
-1.156
  0
LINE
  8
0
 10
134.544
 11
134.407
 20
-1.156
 21
-1.027
  0
LINE
  8
0
 10
134.407
 11
134.286
 20
-1.027
 21
-0.882
  0
LINE
  8
0
 10
134.286
 11
134.186
 20
-0.882
 21
-0.723
  0
LINE
  8
0
 10
134.186
 11
134.105
 20
-0.723
 21
-0.552
  0
LINE
  8
0
 10
134.105
 11
134.047
 20
-0.552
 21
-0.373
  0
LINE
  8
0
 10
134.047
 11
134.012
 20
-0.373
 21
-0.188
  0
LINE
  8
0
 10
134.012
 11
134
 20
-0.188
 21
0
  0
LINE
  8
0
 10
135
 11
135
 20
-100
 21
-95
  0
LINE
  8
0
 10
135
 11
140
 20
-95
 21
-95
  0
LINE
  8
0
 10
140
 11
140
 20
-95
 21
-100
  0
LINE
  8
0
 10
140
 11
135
 20
-100
 21
-100
  0
LINE
  8
0
 10
135
 11
135
 20
-75
 21
-70
  0
LINE
  8
0
 10
135
 11
140
 20
-70
 21
-70
  0
LINE
  8
0
 10
140
 11
140
 20
-70
 21
-75
  0
LINE
  8
0
 10
140
 11
135
 20
-75
 21
-75
  0
LINE
  8
0
 10
135
 11
135
 20
70
 21
75
  0
LINE
  8
0
 10
135
 11
140
 20
75
 21
75
  0
LINE
  8
0
 10
140
 11
140
 20
75
 21
70
  0
LINE
  8
0
 10
140
 11
135
 20
70
 21
70
  0
LINE
  8
0
 10
135
 11
135
 20
95
 21
100
  0
LINE
  8
0
 10
135
 11
140
 20
100
 21
100
  0
LINE
  8
0
 10
140
 11
140
 20
100
 21
95
  0
LINE
  8
0
 10
140
 11
135
 20
95
 21
95
  0
ENDSEC
  0
SECTION
  2
OBJECTS
  0
DICTIONARY
  0
ENDSEC
  0
EOF
