  0
SECTION
  2
BLOCKS
  0
ENDSEC
  0
SECTION
  2
ENTITIES
  0
LINE
  8
0
 10
-225
 11
-225
 20
-225
 21
225
  0
LINE
  8
0
 10
-225
 11
225
 20
225
 21
225
  0
LINE
  8
0
 10
225
 11
225
 20
225
 21
-225
  0
LINE
  8
0
 10
225
 11
-225
 20
-225
 21
-225
  0
LINE
  8
0
 10
-216.5
 11
-216.488
 20
-215
 21
-214.812
  0
LINE
  8
0
 10
-216.488
 11
-216.453
 20
-214.812
 21
-214.627
  0
LINE
  8
0
 10
-216.453
 11
-216.395
 20
-214.627
 21
-214.448
  0
LINE
  8
0
 10
-216.395
 11
-216.314
 20
-214.448
 21
-214.277
  0
LINE
  8
0
 10
-216.314
 11
-216.214
 20
-214.277
 21
-214.118
  0
LINE
  8
0
 10
-216.214
 11
-216.093
 20
-214.118
 21
-213.973
  0
LINE
  8
0
 10
-216.093
 11
-215.956
 20
-213.973
 21
-213.844
  0
LINE
  8
0
 10
-215.956
 11
-215.804
 20
-213.844
 21
-213.734
  0
LINE
  8
0
 10
-215.804
 11
-215.639
 20
-213.734
 21
-213.643
  0
LINE
  8
0
 10
-215.639
 11
-215.464
 20
-213.643
 21
-213.573
  0
LINE
  8
0
 10
-215.464
 11
-215.281
 20
-213.573
 21
-213.527
  0
LINE
  8
0
 10
-215.281
 11
-215.094
 20
-213.527
 21
-213.503
  0
LINE
  8
0
 10
-215.094
 11
-214.906
 20
-213.503
 21
-213.503
  0
LINE
  8
0
 10
-214.906
 11
-214.719
 20
-213.503
 21
-213.527
  0
LINE
  8
0
 10
-214.719
 11
-214.536
 20
-213.527
 21
-213.573
  0
LINE
  8
0
 10
-214.536
 11
-214.361
 20
-213.573
 21
-213.643
  0
LINE
  8
0
 10
-214.361
 11
-214.196
 20
-213.643
 21
-213.734
  0
LINE
  8
0
 10
-214.196
 11
-214.044
 20
-213.734
 21
-213.844
  0
LINE
  8
0
 10
-214.044
 11
-213.907
 20
-213.844
 21
-213.973
  0
LINE
  8
0
 10
-213.907
 11
-213.786
 20
-213.973
 21
-214.118
  0
LINE
  8
0
 10
-213.786
 11
-213.686
 20
-214.118
 21
-214.277
  0
LINE
  8
0
 10
-213.686
 11
-213.605
 20
-214.277
 21
-214.448
  0
LINE
  8
0
 10
-213.605
 11
-213.547
 20
-214.448
 21
-214.627
  0
LINE
  8
0
 10
-213.547
 11
-213.512
 20
-214.627
 21
-214.812
  0
LINE
  8
0
 10
-213.512
 11
-213.5
 20
-214.812
 21
-215
  0
LINE
  8
0
 10
-213.5
 11
-213.512
 20
-215
 21
-215.188
  0
LINE
  8
0
 10
-213.512
 11
-213.547
 20
-215.188
 21
-215.373
  0
LINE
  8
0
 10
-213.547
 11
-213.605
 20
-215.373
 21
-215.552
  0
LINE
  8
0
 10
-213.605
 11
-213.686
 20
-215.552
 21
-215.723
  0
LINE
  8
0
 10
-213.686
 11
-213.786
 20
-215.723
 21
-215.882
  0
LINE
  8
0
 10
-213.786
 11
-213.907
 20
-215.882
 21
-216.027
  0
LINE
  8
0
 10
-213.907
 11
-214.044
 20
-216.027
 21
-216.156
  0
LINE
  8
0
 10
-214.044
 11
-214.196
 20
-216.156
 21
-216.266
  0
LINE
  8
0
 10
-214.196
 11
-214.361
 20
-216.266
 21
-216.357
  0
LINE
  8
0
 10
-214.361
 11
-214.536
 20
-216.357
 21
-216.427
  0
LINE
  8
0
 10
-214.536
 11
-214.719
 20
-216.427
 21
-216.473
  0
LINE
  8
0
 10
-214.719
 11
-214.906
 20
-216.473
 21
-216.497
  0
LINE
  8
0
 10
-214.906
 11
-215.094
 20
-216.497
 21
-216.497
  0
LINE
  8
0
 10
-215.094
 11
-215.281
 20
-216.497
 21
-216.473
  0
LINE
  8
0
 10
-215.281
 11
-215.464
 20
-216.473
 21
-216.427
  0
LINE
  8
0
 10
-215.464
 11
-215.639
 20
-216.427
 21
-216.357
  0
LINE
  8
0
 10
-215.639
 11
-215.804
 20
-216.357
 21
-216.266
  0
LINE
  8
0
 10
-215.804
 11
-215.956
 20
-216.266
 21
-216.156
  0
LINE
  8
0
 10
-215.956
 11
-216.093
 20
-216.156
 21
-216.027
  0
LINE
  8
0
 10
-216.093
 11
-216.214
 20
-216.027
 21
-215.882
  0
LINE
  8
0
 10
-216.214
 11
-216.314
 20
-215.882
 21
-215.723
  0
LINE
  8
0
 10
-216.314
 11
-216.395
 20
-215.723
 21
-215.552
  0
LINE
  8
0
 10
-216.395
 11
-216.453
 20
-215.552
 21
-215.373
  0
LINE
  8
0
 10
-216.453
 11
-216.488
 20
-215.373
 21
-215.188
  0
LINE
  8
0
 10
-216.488
 11
-216.5
 20
-215.188
 21
-215
  0
LINE
  8
0
 10
-216.5
 11
-216.488
 20
0
 21
0.188
  0
LINE
  8
0
 10
-216.488
 11
-216.453
 20
0.188
 21
0.373
  0
LINE
  8
0
 10
-216.453
 11
-216.395
 20
0.373
 21
0.552
  0
LINE
  8
0
 10
-216.395
 11
-216.314
 20
0.552
 21
0.723
  0
LINE
  8
0
 10
-216.314
 11
-216.214
 20
0.723
 21
0.882
  0
LINE
  8
0
 10
-216.214
 11
-216.093
 20
0.882
 21
1.027
  0
LINE
  8
0
 10
-216.093
 11
-215.956
 20
1.027
 21
1.156
  0
LINE
  8
0
 10
-215.956
 11
-215.804
 20
1.156
 21
1.266
  0
LINE
  8
0
 10
-215.804
 11
-215.639
 20
1.266
 21
1.357
  0
LINE
  8
0
 10
-215.639
 11
-215.464
 20
1.357
 21
1.427
  0
LINE
  8
0
 10
-215.464
 11
-215.281
 20
1.427
 21
1.473
  0
LINE
  8
0
 10
-215.281
 11
-215.094
 20
1.473
 21
1.497
  0
LINE
  8
0
 10
-215.094
 11
-214.906
 20
1.497
 21
1.497
  0
LINE
  8
0
 10
-214.906
 11
-214.719
 20
1.497
 21
1.473
  0
LINE
  8
0
 10
-214.719
 11
-214.536
 20
1.473
 21
1.427
  0
LINE
  8
0
 10
-214.536
 11
-214.361
 20
1.427
 21
1.357
  0
LINE
  8
0
 10
-214.361
 11
-214.196
 20
1.357
 21
1.266
  0
LINE
  8
0
 10
-214.196
 11
-214.044
 20
1.266
 21
1.156
  0
LINE
  8
0
 10
-214.044
 11
-213.907
 20
1.156
 21
1.027
  0
LINE
  8
0
 10
-213.907
 11
-213.786
 20
1.027
 21
0.882
  0
LINE
  8
0
 10
-213.786
 11
-213.686
 20
0.882
 21
0.723
  0
LINE
  8
0
 10
-213.686
 11
-213.605
 20
0.723
 21
0.552
  0
LINE
  8
0
 10
-213.605
 11
-213.547
 20
0.552
 21
0.373
  0
LINE
  8
0
 10
-213.547
 11
-213.512
 20
0.373
 21
0.188
  0
LINE
  8
0
 10
-213.512
 11
-213.5
 20
0.188
 21
0
  0
LINE
  8
0
 10
-213.5
 11
-213.512
 20
0
 21
-0.188
  0
LINE
  8
0
 10
-213.512
 11
-213.547
 20
-0.188
 21
-0.373
  0
LINE
  8
0
 10
-213.547
 11
-213.605
 20
-0.373
 21
-0.552
  0
LINE
  8
0
 10
-213.605
 11
-213.686
 20
-0.552
 21
-0.723
  0
LINE
  8
0
 10
-213.686
 11
-213.786
 20
-0.723
 21
-0.882
  0
LINE
  8
0
 10
-213.786
 11
-213.907
 20
-0.882
 21
-1.027
  0
LINE
  8
0
 10
-213.907
 11
-214.044
 20
-1.027
 21
-1.156
  0
LINE
  8
0
 10
-214.044
 11
-214.196
 20
-1.156
 21
-1.266
  0
LINE
  8
0
 10
-214.196
 11
-214.361
 20
-1.266
 21
-1.357
  0
LINE
  8
0
 10
-214.361
 11
-214.536
 20
-1.357
 21
-1.427
  0
LINE
  8
0
 10
-214.536
 11
-214.719
 20
-1.427
 21
-1.473
  0
LINE
  8
0
 10
-214.719
 11
-214.906
 20
-1.473
 21
-1.497
  0
LINE
  8
0
 10
-214.906
 11
-215.094
 20
-1.497
 21
-1.497
  0
LINE
  8
0
 10
-215.094
 11
-215.281
 20
-1.497
 21
-1.473
  0
LINE
  8
0
 10
-215.281
 11
-215.464
 20
-1.473
 21
-1.427
  0
LINE
  8
0
 10
-215.464
 11
-215.639
 20
-1.427
 21
-1.357
  0
LINE
  8
0
 10
-215.639
 11
-215.804
 20
-1.357
 21
-1.266
  0
LINE
  8
0
 10
-215.804
 11
-215.956
 20
-1.266
 21
-1.156
  0
LINE
  8
0
 10
-215.956
 11
-216.093
 20
-1.156
 21
-1.027
  0
LINE
  8
0
 10
-216.093
 11
-216.214
 20
-1.027
 21
-0.882
  0
LINE
  8
0
 10
-216.214
 11
-216.314
 20
-0.882
 21
-0.723
  0
LINE
  8
0
 10
-216.314
 11
-216.395
 20
-0.723
 21
-0.552
  0
LINE
  8
0
 10
-216.395
 11
-216.453
 20
-0.552
 21
-0.373
  0
LINE
  8
0
 10
-216.453
 11
-216.488
 20
-0.373
 21
-0.188
  0
LINE
  8
0
 10
-216.488
 11
-216.5
 20
-0.188
 21
0
  0
LINE
  8
0
 10
-216.497
 11
-216.497
 20
214.906
 21
215.094
  0
LINE
  8
0
 10
-216.497
 11
-216.473
 20
215.094
 21
215.281
  0
LINE
  8
0
 10
-216.473
 11
-216.427
 20
215.281
 21
215.464
  0
LINE
  8
0
 10
-216.427
 11
-216.357
 20
215.464
 21
215.639
  0
LINE
  8
0
 10
-216.357
 11
-216.266
 20
215.639
 21
215.804
  0
LINE
  8
0
 10
-216.266
 11
-216.156
 20
215.804
 21
215.956
  0
LINE
  8
0
 10
-216.156
 11
-216.027
 20
215.956
 21
216.093
  0
LINE
  8
0
 10
-216.027
 11
-215.882
 20
216.093
 21
216.214
  0
LINE
  8
0
 10
-215.882
 11
-215.723
 20
216.214
 21
216.314
  0
LINE
  8
0
 10
-215.723
 11
-215.552
 20
216.314
 21
216.395
  0
LINE
  8
0
 10
-215.552
 11
-215.373
 20
216.395
 21
216.453
  0
LINE
  8
0
 10
-215.373
 11
-215.188
 20
216.453
 21
216.488
  0
LINE
  8
0
 10
-215.188
 11
-215
 20
216.488
 21
216.5
  0
LINE
  8
0
 10
-215
 11
-214.812
 20
216.5
 21
216.488
  0
LINE
  8
0
 10
-214.812
 11
-214.627
 20
216.488
 21
216.453
  0
LINE
  8
0
 10
-214.627
 11
-214.448
 20
216.453
 21
216.395
  0
LINE
  8
0
 10
-214.448
 11
-214.277
 20
216.395
 21
216.314
  0
LINE
  8
0
 10
-214.277
 11
-214.118
 20
216.314
 21
216.214
  0
LINE
  8
0
 10
-214.118
 11
-213.973
 20
216.214
 21
216.093
  0
LINE
  8
0
 10
-213.973
 11
-213.844
 20
216.093
 21
215.956
  0
LINE
  8
0
 10
-213.844
 11
-213.734
 20
215.956
 21
215.804
  0
LINE
  8
0
 10
-213.734
 11
-213.643
 20
215.804
 21
215.639
  0
LINE
  8
0
 10
-213.643
 11
-213.573
 20
215.639
 21
215.464
  0
LINE
  8
0
 10
-213.573
 11
-213.527
 20
215.464
 21
215.281
  0
LINE
  8
0
 10
-213.527
 11
-213.503
 20
215.281
 21
215.094
  0
LINE
  8
0
 10
-213.503
 11
-213.503
 20
215.094
 21
214.906
  0
LINE
  8
0
 10
-213.503
 11
-213.527
 20
214.906
 21
214.719
  0
LINE
  8
0
 10
-213.527
 11
-213.573
 20
214.719
 21
214.536
  0
LINE
  8
0
 10
-213.573
 11
-213.643
 20
214.536
 21
214.361
  0
LINE
  8
0
 10
-213.643
 11
-213.734
 20
214.361
 21
214.196
  0
LINE
  8
0
 10
-213.734
 11
-213.844
 20
214.196
 21
214.044
  0
LINE
  8
0
 10
-213.844
 11
-213.973
 20
214.044
 21
213.907
  0
LINE
  8
0
 10
-213.973
 11
-214.118
 20
213.907
 21
213.786
  0
LINE
  8
0
 10
-214.118
 11
-214.277
 20
213.786
 21
213.686
  0
LINE
  8
0
 10
-214.277
 11
-214.448
 20
213.686
 21
213.605
  0
LINE
  8
0
 10
-214.448
 11
-214.627
 20
213.605
 21
213.547
  0
LINE
  8
0
 10
-214.627
 11
-214.812
 20
213.547
 21
213.512
  0
LINE
  8
0
 10
-214.812
 11
-215
 20
213.512
 21
213.5
  0
LINE
  8
0
 10
-215
 11
-215.188
 20
213.5
 21
213.512
  0
LINE
  8
0
 10
-215.188
 11
-215.373
 20
213.512
 21
213.547
  0
LINE
  8
0
 10
-215.373
 11
-215.552
 20
213.547
 21
213.605
  0
LINE
  8
0
 10
-215.552
 11
-215.723
 20
213.605
 21
213.686
  0
LINE
  8
0
 10
-215.723
 11
-215.882
 20
213.686
 21
213.786
  0
LINE
  8
0
 10
-215.882
 11
-216.027
 20
213.786
 21
213.907
  0
LINE
  8
0
 10
-216.027
 11
-216.156
 20
213.907
 21
214.044
  0
LINE
  8
0
 10
-216.156
 11
-216.266
 20
214.044
 21
214.196
  0
LINE
  8
0
 10
-216.266
 11
-216.357
 20
214.196
 21
214.361
  0
LINE
  8
0
 10
-216.357
 11
-216.427
 20
214.361
 21
214.536
  0
LINE
  8
0
 10
-216.427
 11
-216.473
 20
214.536
 21
214.719
  0
LINE
  8
0
 10
-216.473
 11
-216.497
 20
214.719
 21
214.906
  0
LINE
  8
0
 10
-210
 11
-210
 20
-208
 21
-203.3
  0
LINE
  8
0
 10
-210
 11
-209.994
 20
-203.3
 21
-203.204
  0
LINE
  8
0
 10
-209.994
 11
-209.977
 20
-203.204
 21
-203.109
  0
LINE
  8
0
 10
-209.977
 11
-209.948
 20
-203.109
 21
-203.016
  0
LINE
  8
0
 10
-209.948
 11
-209.908
 20
-203.016
 21
-202.928
  0
LINE
  8
0
 10
-209.908
 11
-209.858
 20
-202.928
 21
-202.846
  0
LINE
  8
0
 10
-209.858
 11
-209.799
 20
-202.846
 21
-202.77
  0
LINE
  8
0
 10
-209.799
 11
-209.73
 20
-202.77
 21
-202.701
  0
LINE
  8
0
 10
-209.73
 11
-209.654
 20
-202.701
 21
-202.642
  0
LINE
  8
0
 10
-209.654
 11
-209.572
 20
-202.642
 21
-202.592
  0
LINE
  8
0
 10
-209.572
 11
-209.484
 20
-202.592
 21
-202.552
  0
LINE
  8
0
 10
-209.484
 11
-209.391
 20
-202.552
 21
-202.523
  0
LINE
  8
0
 10
-209.391
 11
-209.296
 20
-202.523
 21
-202.506
  0
LINE
  8
0
 10
-209.296
 11
-209.2
 20
-202.506
 21
-202.5
  0
LINE
  8
0
 10
-209.2
 11
-208.5
 20
-202.5
 21
-202.5
  0
LINE
  8
0
 10
-208.5
 11
-208.464
 20
-202.5
 21
-202.502
  0
LINE
  8
0
 10
-208.464
 11
-208.428
 20
-202.502
 21
-202.509
  0
LINE
  8
0
 10
-208.428
 11
-208.394
 20
-202.509
 21
-202.519
  0
LINE
  8
0
 10
-208.394
 11
-208.361
 20
-202.519
 21
-202.534
  0
LINE
  8
0
 10
-208.361
 11
-208.33
 20
-202.534
 21
-202.553
  0
LINE
  8
0
 10
-208.33
 11
-208.301
 20
-202.553
 21
-202.575
  0
LINE
  8
0
 10
-208.301
 11
-208.275
 20
-202.575
 21
-202.601
  0
LINE
  8
0
 10
-208.275
 11
-208.253
 20
-202.601
 21
-202.63
  0
LINE
  8
0
 10
-208.253
 11
-208.234
 20
-202.63
 21
-202.661
  0
LINE
  8
0
 10
-208.234
 11
-208.219
 20
-202.661
 21
-202.694
  0
LINE
  8
0
 10
-208.219
 11
-208.209
 20
-202.694
 21
-202.728
  0
LINE
  8
0
 10
-208.209
 11
-208.202
 20
-202.728
 21
-202.764
  0
LINE
  8
0
 10
-208.202
 11
-208.2
 20
-202.764
 21
-202.8
  0
LINE
  8
0
 10
-208.2
 11
-208.2
 20
-202.8
 21
-204.996
  0
LINE
  8
0
 10
-208.2
 11
-208.194
 20
-204.996
 21
-205.095
  0
LINE
  8
0
 10
-208.194
 11
-208.176
 20
-205.095
 21
-205.192
  0
LINE
  8
0
 10
-208.176
 11
-208.145
 20
-205.192
 21
-205.287
  0
LINE
  8
0
 10
-208.145
 11
-208.104
 20
-205.287
 21
-205.377
  0
LINE
  8
0
 10
-208.104
 11
-208.051
 20
-205.377
 21
-205.461
  0
LINE
  8
0
 10
-208.051
 11
-207.989
 20
-205.461
 21
-205.538
  0
LINE
  8
0
 10
-207.989
 11
-207.917
 20
-205.538
 21
-205.606
  0
LINE
  8
0
 10
-207.917
 11
-207.838
 20
-205.606
 21
-205.666
  0
LINE
  8
0
 10
-207.838
 11
-207.751
 20
-205.666
 21
-205.715
  0
LINE
  8
0
 10
-207.751
 11
-207.66
 20
-205.715
 21
-205.752
  0
LINE
  8
0
 10
-207.66
 11
-207.564
 20
-205.752
 21
-205.779
  0
LINE
  8
0
 10
-207.564
 11
-207.466
 20
-205.779
 21
-205.793
  0
LINE
  8
0
 10
-207.466
 11
-207.367
 20
-205.793
 21
-205.795
  0
LINE
  8
0
 10
-207.367
 11
-207.268
 20
-205.795
 21
-205.785
  0
LINE
  8
0
 10
-207.268
 11
-207.172
 20
-205.785
 21
-205.763
  0
LINE
  8
0
 10
-207.172
 11
-207.079
 20
-205.763
 21
-205.728
  0
LINE
  8
0
 10
-207.079
 11
-206.99
 20
-205.728
 21
-205.683
  0
LINE
  8
0
 10
-206.99
 11
-206.909
 20
-205.683
 21
-205.627
  0
LINE
  8
0
 10
-206.909
 11
-206.834
 20
-205.627
 21
-205.562
  0
LINE
  8
0
 10
-206.834
 11
-204.529
 20
-205.562
 21
-203.256
  0
LINE
  8
0
 10
-204.529
 11
-204.305
 20
-203.256
 21
-203.005
  0
LINE
  8
0
 10
-204.305
 11
-204.11
 20
-203.005
 21
-202.731
  0
LINE
  8
0
 10
-204.11
 11
-203.947
 20
-202.731
 21
-202.436
  0
LINE
  8
0
 10
-203.947
 11
-203.818
 20
-202.436
 21
-202.125
  0
LINE
  8
0
 10
-203.818
 11
-203.725
 20
-202.125
 21
-201.802
  0
LINE
  8
0
 10
-203.725
 11
-203.669
 20
-201.802
 21
-201.47
  0
LINE
  8
0
 10
-203.669
 11
-203.65
 20
-201.47
 21
-201.135
  0
LINE
  8
0
 10
-203.65
 11
-203.65
 20
-201.135
 21
-198.865
  0
LINE
  8
0
 10
-203.65
 11
-203.669
 20
-198.865
 21
-198.53
  0
LINE
  8
0
 10
-203.669
 11
-203.725
 20
-198.53
 21
-198.198
  0
LINE
  8
0
 10
-203.725
 11
-203.818
 20
-198.198
 21
-197.875
  0
LINE
  8
0
 10
-203.818
 11
-203.947
 20
-197.875
 21
-197.564
  0
LINE
  8
0
 10
-203.947
 11
-204.11
 20
-197.564
 21
-197.269
  0
LINE
  8
0
 10
-204.11
 11
-204.305
 20
-197.269
 21
-196.995
  0
LINE
  8
0
 10
-204.305
 11
-204.529
 20
-196.995
 21
-196.744
  0
LINE
  8
0
 10
-204.529
 11
-206.834
 20
-196.744
 21
-194.438
  0
LINE
  8
0
 10
-206.834
 11
-206.909
 20
-194.438
 21
-194.373
  0
LINE
  8
0
 10
-206.909
 11
-206.99
 20
-194.373
 21
-194.317
  0
LINE
  8
0
 10
-206.99
 11
-207.079
 20
-194.317
 21
-194.272
  0
LINE
  8
0
 10
-207.079
 11
-207.172
 20
-194.272
 21
-194.237
  0
LINE
  8
0
 10
-207.172
 11
-207.268
 20
-194.237
 21
-194.215
  0
LINE
  8
0
 10
-207.268
 11
-207.367
 20
-194.215
 21
-194.205
  0
LINE
  8
0
 10
-207.367
 11
-207.466
 20
-194.205
 21
-194.207
  0
LINE
  8
0
 10
-207.466
 11
-207.564
 20
-194.207
 21
-194.221
  0
LINE
  8
0
 10
-207.564
 11
-207.66
 20
-194.221
 21
-194.248
  0
LINE
  8
0
 10
-207.66
 11
-207.751
 20
-194.248
 21
-194.285
  0
LINE
  8
0
 10
-207.751
 11
-207.838
 20
-194.285
 21
-194.334
  0
LINE
  8
0
 10
-207.838
 11
-207.917
 20
-194.334
 21
-194.394
  0
LINE
  8
0
 10
-207.917
 11
-207.989
 20
-194.394
 21
-194.462
  0
LINE
  8
0
 10
-207.989
 11
-208.051
 20
-194.462
 21
-194.539
  0
LINE
  8
0
 10
-208.051
 11
-208.104
 20
-194.539
 21
-194.623
  0
LINE
  8
0
 10
-208.104
 11
-208.145
 20
-194.623
 21
-194.713
  0
LINE
  8
0
 10
-208.145
 11
-208.176
 20
-194.713
 21
-194.808
  0
LINE
  8
0
 10
-208.176
 11
-208.194
 20
-194.808
 21
-194.905
  0
LINE
  8
0
 10
-208.194
 11
-208.2
 20
-194.905
 21
-195.004
  0
LINE
  8
0
 10
-208.2
 11
-208.2
 20
-195.004
 21
-197.2
  0
LINE
  8
0
 10
-208.2
 11
-208.202
 20
-197.2
 21
-197.236
  0
LINE
  8
0
 10
-208.202
 11
-208.209
 20
-197.236
 21
-197.272
  0
LINE
  8
0
 10
-208.209
 11
-208.219
 20
-197.272
 21
-197.306
  0
LINE
  8
0
 10
-208.219
 11
-208.234
 20
-197.306
 21
-197.339
  0
LINE
  8
0
 10
-208.234
 11
-208.253
 20
-197.339
 21
-197.37
  0
LINE
  8
0
 10
-208.253
 11
-208.275
 20
-197.37
 21
-197.399
  0
LINE
  8
0
 10
-208.275
 11
-208.301
 20
-197.399
 21
-197.425
  0
LINE
  8
0
 10
-208.301
 11
-208.33
 20
-197.425
 21
-197.447
  0
LINE
  8
0
 10
-208.33
 11
-208.361
 20
-197.447
 21
-197.466
  0
LINE
  8
0
 10
-208.361
 11
-208.394
 20
-197.466
 21
-197.481
  0
LINE
  8
0
 10
-208.394
 11
-208.428
 20
-197.481
 21
-197.491
  0
LINE
  8
0
 10
-208.428
 11
-208.464
 20
-197.491
 21
-197.498
  0
LINE
  8
0
 10
-208.464
 11
-208.5
 20
-197.498
 21
-197.5
  0
LINE
  8
0
 10
-208.5
 11
-209.2
 20
-197.5
 21
-197.5
  0
LINE
  8
0
 10
-209.2
 11
-209.296
 20
-197.5
 21
-197.494
  0
LINE
  8
0
 10
-209.296
 11
-209.391
 20
-197.494
 21
-197.477
  0
LINE
  8
0
 10
-209.391
 11
-209.484
 20
-197.477
 21
-197.448
  0
LINE
  8
0
 10
-209.484
 11
-209.572
 20
-197.448
 21
-197.408
  0
LINE
  8
0
 10
-209.572
 11
-209.654
 20
-197.408
 21
-197.358
  0
LINE
  8
0
 10
-209.654
 11
-209.73
 20
-197.358
 21
-197.299
  0
LINE
  8
0
 10
-209.73
 11
-209.799
 20
-197.299
 21
-197.23
  0
LINE
  8
0
 10
-209.799
 11
-209.858
 20
-197.23
 21
-197.154
  0
LINE
  8
0
 10
-209.858
 11
-209.908
 20
-197.154
 21
-197.072
  0
LINE
  8
0
 10
-209.908
 11
-209.948
 20
-197.072
 21
-196.984
  0
LINE
  8
0
 10
-209.948
 11
-209.977
 20
-196.984
 21
-196.891
  0
LINE
  8
0
 10
-209.977
 11
-209.994
 20
-196.891
 21
-196.796
  0
LINE
  8
0
 10
-209.994
 11
-210
 20
-196.796
 21
-196.7
  0
LINE
  8
0
 10
-210
 11
-210
 20
-196.7
 21
-192
  0
LINE
  8
0
 10
-210
 11
-209.985
 20
-192
 21
-191.759
  0
LINE
  8
0
 10
-209.985
 11
-209.942
 20
-191.759
 21
-191.521
  0
LINE
  8
0
 10
-209.942
 11
-209.87
 20
-191.521
 21
-191.291
  0
LINE
  8
0
 10
-209.87
 11
-209.771
 20
-191.291
 21
-191.071
  0
LINE
  8
0
 10
-209.771
 11
-209.646
 20
-191.071
 21
-190.864
  0
LINE
  8
0
 10
-209.646
 11
-209.497
 20
-190.864
 21
-190.674
  0
LINE
  8
0
 10
-209.497
 11
-209.326
 20
-190.674
 21
-190.503
  0
LINE
  8
0
 10
-209.326
 11
-209.136
 20
-190.503
 21
-190.354
  0
LINE
  8
0
 10
-209.136
 11
-208.929
 20
-190.354
 21
-190.229
  0
LINE
  8
0
 10
-208.929
 11
-208.709
 20
-190.229
 21
-190.13
  0
LINE
  8
0
 10
-208.709
 11
-208.479
 20
-190.13
 21
-190.058
  0
LINE
  8
0
 10
-208.479
 11
-208.241
 20
-190.058
 21
-190.015
  0
LINE
  8
0
 10
-208.241
 11
-208
 20
-190.015
 21
-190
  0
LINE
  8
0
 10
-208
 11
-203.3
 20
-190
 21
-190
  0
LINE
  8
0
 10
-203.3
 11
-203.204
 20
-190
 21
-190.006
  0
LINE
  8
0
 10
-203.204
 11
-203.109
 20
-190.006
 21
-190.023
  0
LINE
  8
0
 10
-203.109
 11
-203.016
 20
-190.023
 21
-190.052
  0
LINE
  8
0
 10
-203.016
 11
-202.928
 20
-190.052
 21
-190.092
  0
LINE
  8
0
 10
-202.928
 11
-202.846
 20
-190.092
 21
-190.142
  0
LINE
  8
0
 10
-202.846
 11
-202.77
 20
-190.142
 21
-190.201
  0
LINE
  8
0
 10
-202.77
 11
-202.701
 20
-190.201
 21
-190.27
  0
LINE
  8
0
 10
-202.701
 11
-202.642
 20
-190.27
 21
-190.346
  0
LINE
  8
0
 10
-202.642
 11
-202.592
 20
-190.346
 21
-190.428
  0
LINE
  8
0
 10
-202.592
 11
-202.552
 20
-190.428
 21
-190.516
  0
LINE
  8
0
 10
-202.552
 11
-202.523
 20
-190.516
 21
-190.609
  0
LINE
  8
0
 10
-202.523
 11
-202.506
 20
-190.609
 21
-190.704
  0
LINE
  8
0
 10
-202.506
 11
-202.5
 20
-190.704
 21
-190.8
  0
LINE
  8
0
 10
-202.5
 11
-202.5
 20
-190.8
 21
-191.5
  0
LINE
  8
0
 10
-202.5
 11
-202.502
 20
-191.5
 21
-191.536
  0
LINE
  8
0
 10
-202.502
 11
-202.509
 20
-191.536
 21
-191.572
  0
LINE
  8
0
 10
-202.509
 11
-202.519
 20
-191.572
 21
-191.606
  0
LINE
  8
0
 10
-202.519
 11
-202.534
 20
-191.606
 21
-191.639
  0
LINE
  8
0
 10
-202.534
 11
-202.553
 20
-191.639
 21
-191.67
  0
LINE
  8
0
 10
-202.553
 11
-202.575
 20
-191.67
 21
-191.699
  0
LINE
  8
0
 10
-202.575
 11
-202.601
 20
-191.699
 21
-191.725
  0
LINE
  8
0
 10
-202.601
 11
-202.63
 20
-191.725
 21
-191.747
  0
LINE
  8
0
 10
-202.63
 11
-202.661
 20
-191.747
 21
-191.766
  0
LINE
  8
0
 10
-202.661
 11
-202.694
 20
-191.766
 21
-191.781
  0
LINE
  8
0
 10
-202.694
 11
-202.728
 20
-191.781
 21
-191.791
  0
LINE
  8
0
 10
-202.728
 11
-202.764
 20
-191.791
 21
-191.798
  0
LINE
  8
0
 10
-202.764
 11
-202.8
 20
-191.798
 21
-191.8
  0
LINE
  8
0
 10
-202.8
 11
-204.996
 20
-191.8
 21
-191.8
  0
LINE
  8
0
 10
-204.996
 11
-205.095
 20
-191.8
 21
-191.806
  0
LINE
  8
0
 10
-205.095
 11
-205.192
 20
-191.806
 21
-191.824
  0
LINE
  8
0
 10
-205.192
 11
-205.287
 20
-191.824
 21
-191.855
  0
LINE
  8
0
 10
-205.287
 11
-205.377
 20
-191.855
 21
-191.896
  0
LINE
  8
0
 10
-205.377
 11
-205.461
 20
-191.896
 21
-191.949
  0
LINE
  8
0
 10
-205.461
 11
-205.538
 20
-191.949
 21
-192.011
  0
LINE
  8
0
 10
-205.538
 11
-205.606
 20
-192.011
 21
-192.083
  0
LINE
  8
0
 10
-205.606
 11
-205.666
 20
-192.083
 21
-192.162
  0
LINE
  8
0
 10
-205.666
 11
-205.715
 20
-192.162
 21
-192.249
  0
LINE
  8
0
 10
-205.715
 11
-205.752
 20
-192.249
 21
-192.34
  0
LINE
  8
0
 10
-205.752
 11
-205.779
 20
-192.34
 21
-192.436
  0
LINE
  8
0
 10
-205.779
 11
-205.793
 20
-192.436
 21
-192.534
  0
LINE
  8
0
 10
-205.793
 11
-205.795
 20
-192.534
 21
-192.633
  0
LINE
  8
0
 10
-205.795
 11
-205.785
 20
-192.633
 21
-192.732
  0
LINE
  8
0
 10
-205.785
 11
-205.763
 20
-192.732
 21
-192.828
  0
LINE
  8
0
 10
-205.763
 11
-205.728
 20
-192.828
 21
-192.921
  0
LINE
  8
0
 10
-205.728
 11
-205.683
 20
-192.921
 21
-193.01
  0
LINE
  8
0
 10
-205.683
 11
-205.627
 20
-193.01
 21
-193.091
  0
LINE
  8
0
 10
-205.627
 11
-205.562
 20
-193.091
 21
-193.166
  0
LINE
  8
0
 10
-205.562
 11
-203.256
 20
-193.166
 21
-195.471
  0
LINE
  8
0
 10
-203.256
 11
-203.005
 20
-195.471
 21
-195.695
  0
LINE
  8
0
 10
-203.005
 11
-202.731
 20
-195.695
 21
-195.89
  0
LINE
  8
0
 10
-202.731
 11
-202.436
 20
-195.89
 21
-196.053
  0
LINE
  8
0
 10
-202.436
 11
-202.125
 20
-196.053
 21
-196.182
  0
LINE
  8
0
 10
-202.125
 11
-201.802
 20
-196.182
 21
-196.275
  0
LINE
  8
0
 10
-201.802
 11
-201.47
 20
-196.275
 21
-196.331
  0
LINE
  8
0
 10
-201.47
 11
-201.135
 20
-196.331
 21
-196.35
  0
LINE
  8
0
 10
-201.135
 11
-198.865
 20
-196.35
 21
-196.35
  0
LINE
  8
0
 10
-198.865
 11
-198.53
 20
-196.35
 21
-196.331
  0
LINE
  8
0
 10
-198.53
 11
-198.198
 20
-196.331
 21
-196.275
  0
LINE
  8
0
 10
-198.198
 11
-197.875
 20
-196.275
 21
-196.182
  0
LINE
  8
0
 10
-197.875
 11
-197.564
 20
-196.182
 21
-196.053
  0
LINE
  8
0
 10
-197.564
 11
-197.269
 20
-196.053
 21
-195.89
  0
LINE
  8
0
 10
-197.269
 11
-196.995
 20
-195.89
 21
-195.695
  0
LINE
  8
0
 10
-196.995
 11
-196.744
 20
-195.695
 21
-195.471
  0
LINE
  8
0
 10
-196.744
 11
-194.438
 20
-195.471
 21
-193.166
  0
LINE
  8
0
 10
-194.438
 11
-194.373
 20
-193.166
 21
-193.091
  0
LINE
  8
0
 10
-194.373
 11
-194.317
 20
-193.091
 21
-193.01
  0
LINE
  8
0
 10
-194.317
 11
-194.272
 20
-193.01
 21
-192.921
  0
LINE
  8
0
 10
-194.272
 11
-194.237
 20
-192.921
 21
-192.828
  0
LINE
  8
0
 10
-194.237
 11
-194.215
 20
-192.828
 21
-192.732
  0
LINE
  8
0
 10
-194.215
 11
-194.205
 20
-192.732
 21
-192.633
  0
LINE
  8
0
 10
-194.205
 11
-194.207
 20
-192.633
 21
-192.534
  0
LINE
  8
0
 10
-194.207
 11
-194.221
 20
-192.534
 21
-192.436
  0
LINE
  8
0
 10
-194.221
 11
-194.248
 20
-192.436
 21
-192.34
  0
LINE
  8
0
 10
-194.248
 11
-194.285
 20
-192.34
 21
-192.249
  0
LINE
  8
0
 10
-194.285
 11
-194.334
 20
-192.249
 21
-192.162
  0
LINE
  8
0
 10
-194.334
 11
-194.394
 20
-192.162
 21
-192.083
  0
LINE
  8
0
 10
-194.394
 11
-194.462
 20
-192.083
 21
-192.011
  0
LINE
  8
0
 10
-194.462
 11
-194.539
 20
-192.011
 21
-191.949
  0
LINE
  8
0
 10
-194.539
 11
-194.623
 20
-191.949
 21
-191.896
  0
LINE
  8
0
 10
-194.623
 11
-194.713
 20
-191.896
 21
-191.855
  0
LINE
  8
0
 10
-194.713
 11
-194.808
 20
-191.855
 21
-191.824
  0
LINE
  8
0
 10
-194.808
 11
-194.905
 20
-191.824
 21
-191.806
  0
LINE
  8
0
 10
-194.905
 11
-195.004
 20
-191.806
 21
-191.8
  0
LINE
  8
0
 10
-195.004
 11
-197.2
 20
-191.8
 21
-191.8
  0
LINE
  8
0
 10
-197.2
 11
-197.236
 20
-191.8
 21
-191.798
  0
LINE
  8
0
 10
-197.236
 11
-197.272
 20
-191.798
 21
-191.791
  0
LINE
  8
0
 10
-197.272
 11
-197.306
 20
-191.791
 21
-191.781
  0
LINE
  8
0
 10
-197.306
 11
-197.339
 20
-191.781
 21
-191.766
  0
LINE
  8
0
 10
-197.339
 11
-197.37
 20
-191.766
 21
-191.747
  0
LINE
  8
0
 10
-197.37
 11
-197.399
 20
-191.747
 21
-191.725
  0
LINE
  8
0
 10
-197.399
 11
-197.425
 20
-191.725
 21
-191.699
  0
LINE
  8
0
 10
-197.425
 11
-197.447
 20
-191.699
 21
-191.67
  0
LINE
  8
0
 10
-197.447
 11
-197.466
 20
-191.67
 21
-191.639
  0
LINE
  8
0
 10
-197.466
 11
-197.481
 20
-191.639
 21
-191.606
  0
LINE
  8
0
 10
-197.481
 11
-197.491
 20
-191.606
 21
-191.572
  0
LINE
  8
0
 10
-197.491
 11
-197.498
 20
-191.572
 21
-191.536
  0
LINE
  8
0
 10
-197.498
 11
-197.5
 20
-191.536
 21
-191.5
  0
LINE
  8
0
 10
-197.5
 11
-197.5
 20
-191.5
 21
-190.8
  0
LINE
  8
0
 10
-197.5
 11
-197.494
 20
-190.8
 21
-190.704
  0
LINE
  8
0
 10
-197.494
 11
-197.477
 20
-190.704
 21
-190.609
  0
LINE
  8
0
 10
-197.477
 11
-197.448
 20
-190.609
 21
-190.516
  0
LINE
  8
0
 10
-197.448
 11
-197.408
 20
-190.516
 21
-190.428
  0
LINE
  8
0
 10
-197.408
 11
-197.358
 20
-190.428
 21
-190.346
  0
LINE
  8
0
 10
-197.358
 11
-197.299
 20
-190.346
 21
-190.27
  0
LINE
  8
0
 10
-197.299
 11
-197.23
 20
-190.27
 21
-190.201
  0
LINE
  8
0
 10
-197.23
 11
-197.154
 20
-190.201
 21
-190.142
  0
LINE
  8
0
 10
-197.154
 11
-197.072
 20
-190.142
 21
-190.092
  0
LINE
  8
0
 10
-197.072
 11
-196.984
 20
-190.092
 21
-190.052
  0
LINE
  8
0
 10
-196.984
 11
-196.891
 20
-190.052
 21
-190.023
  0
LINE
  8
0
 10
-196.891
 11
-196.796
 20
-190.023
 21
-190.006
  0
LINE
  8
0
 10
-196.796
 11
-196.7
 20
-190.006
 21
-190
  0
LINE
  8
0
 10
-196.7
 11
-192
 20
-190
 21
-190
  0
LINE
  8
0
 10
-192
 11
-191.759
 20
-190
 21
-190.015
  0
LINE
  8
0
 10
-191.759
 11
-191.521
 20
-190.015
 21
-190.058
  0
LINE
  8
0
 10
-191.521
 11
-191.291
 20
-190.058
 21
-190.13
  0
LINE
  8
0
 10
-191.291
 11
-191.071
 20
-190.13
 21
-190.229
  0
LINE
  8
0
 10
-191.071
 11
-190.864
 20
-190.229
 21
-190.354
  0
LINE
  8
0
 10
-190.864
 11
-190.674
 20
-190.354
 21
-190.503
  0
LINE
  8
0
 10
-190.674
 11
-190.503
 20
-190.503
 21
-190.674
  0
LINE
  8
0
 10
-190.503
 11
-190.354
 20
-190.674
 21
-190.864
  0
LINE
  8
0
 10
-190.354
 11
-190.229
 20
-190.864
 21
-191.071
  0
LINE
  8
0
 10
-190.229
 11
-190.13
 20
-191.071
 21
-191.291
  0
LINE
  8
0
 10
-190.13
 11
-190.058
 20
-191.291
 21
-191.521
  0
LINE
  8
0
 10
-190.058
 11
-190.015
 20
-191.521
 21
-191.759
  0
LINE
  8
0
 10
-190.015
 11
-190
 20
-191.759
 21
-192
  0
LINE
  8
0
 10
-190
 11
-190
 20
-192
 21
-196.7
  0
LINE
  8
0
 10
-190
 11
-190.006
 20
-196.7
 21
-196.796
  0
LINE
  8
0
 10
-190.006
 11
-190.023
 20
-196.796
 21
-196.891
  0
LINE
  8
0
 10
-190.023
 11
-190.052
 20
-196.891
 21
-196.984
  0
LINE
  8
0
 10
-190.052
 11
-190.092
 20
-196.984
 21
-197.072
  0
LINE
  8
0
 10
-190.092
 11
-190.142
 20
-197.072
 21
-197.154
  0
LINE
  8
0
 10
-190.142
 11
-190.201
 20
-197.154
 21
-197.23
  0
LINE
  8
0
 10
-190.201
 11
-190.27
 20
-197.23
 21
-197.299
  0
LINE
  8
0
 10
-190.27
 11
-190.346
 20
-197.299
 21
-197.358
  0
LINE
  8
0
 10
-190.346
 11
-190.428
 20
-197.358
 21
-197.408
  0
LINE
  8
0
 10
-190.428
 11
-190.516
 20
-197.408
 21
-197.448
  0
LINE
  8
0
 10
-190.516
 11
-190.609
 20
-197.448
 21
-197.477
  0
LINE
  8
0
 10
-190.609
 11
-190.704
 20
-197.477
 21
-197.494
  0
LINE
  8
0
 10
-190.704
 11
-190.8
 20
-197.494
 21
-197.5
  0
LINE
  8
0
 10
-190.8
 11
-191.5
 20
-197.5
 21
-197.5
  0
LINE
  8
0
 10
-191.5
 11
-191.536
 20
-197.5
 21
-197.498
  0
LINE
  8
0
 10
-191.536
 11
-191.572
 20
-197.498
 21
-197.491
  0
LINE
  8
0
 10
-191.572
 11
-191.606
 20
-197.491
 21
-197.481
  0
LINE
  8
0
 10
-191.606
 11
-191.639
 20
-197.481
 21
-197.466
  0
LINE
  8
0
 10
-191.639
 11
-191.67
 20
-197.466
 21
-197.447
  0
LINE
  8
0
 10
-191.67
 11
-191.699
 20
-197.447
 21
-197.425
  0
LINE
  8
0
 10
-191.699
 11
-191.725
 20
-197.425
 21
-197.399
  0
LINE
  8
0
 10
-191.725
 11
-191.747
 20
-197.399
 21
-197.37
  0
LINE
  8
0
 10
-191.747
 11
-191.766
 20
-197.37
 21
-197.339
  0
LINE
  8
0
 10
-191.766
 11
-191.781
 20
-197.339
 21
-197.306
  0
LINE
  8
0
 10
-191.781
 11
-191.791
 20
-197.306
 21
-197.272
  0
LINE
  8
0
 10
-191.791
 11
-191.798
 20
-197.272
 21
-197.236
  0
LINE
  8
0
 10
-191.798
 11
-191.8
 20
-197.236
 21
-197.2
  0
LINE
  8
0
 10
-191.8
 11
-191.8
 20
-197.2
 21
-195.004
  0
LINE
  8
0
 10
-191.8
 11
-191.806
 20
-195.004
 21
-194.905
  0
LINE
  8
0
 10
-191.806
 11
-191.824
 20
-194.905
 21
-194.808
  0
LINE
  8
0
 10
-191.824
 11
-191.855
 20
-194.808
 21
-194.713
  0
LINE
  8
0
 10
-191.855
 11
-191.896
 20
-194.713
 21
-194.623
  0
LINE
  8
0
 10
-191.896
 11
-191.949
 20
-194.623
 21
-194.539
  0
LINE
  8
0
 10
-191.949
 11
-192.011
 20
-194.539
 21
-194.462
  0
LINE
  8
0
 10
-192.011
 11
-192.083
 20
-194.462
 21
-194.394
  0
LINE
  8
0
 10
-192.083
 11
-192.162
 20
-194.394
 21
-194.334
  0
LINE
  8
0
 10
-192.162
 11
-192.249
 20
-194.334
 21
-194.285
  0
LINE
  8
0
 10
-192.249
 11
-192.34
 20
-194.285
 21
-194.248
  0
LINE
  8
0
 10
-192.34
 11
-192.436
 20
-194.248
 21
-194.221
  0
LINE
  8
0
 10
-192.436
 11
-192.534
 20
-194.221
 21
-194.207
  0
LINE
  8
0
 10
-192.534
 11
-192.633
 20
-194.207
 21
-194.205
  0
LINE
  8
0
 10
-192.633
 11
-192.732
 20
-194.205
 21
-194.215
  0
LINE
  8
0
 10
-192.732
 11
-192.828
 20
-194.215
 21
-194.237
  0
LINE
  8
0
 10
-192.828
 11
-192.921
 20
-194.237
 21
-194.272
  0
LINE
  8
0
 10
-192.921
 11
-193.01
 20
-194.272
 21
-194.317
  0
LINE
  8
0
 10
-193.01
 11
-193.091
 20
-194.317
 21
-194.373
  0
LINE
  8
0
 10
-193.091
 11
-193.166
 20
-194.373
 21
-194.438
  0
LINE
  8
0
 10
-193.166
 11
-195.471
 20
-194.438
 21
-196.744
  0
LINE
  8
0
 10
-195.471
 11
-195.695
 20
-196.744
 21
-196.995
  0
LINE
  8
0
 10
-195.695
 11
-195.89
 20
-196.995
 21
-197.269
  0
LINE
  8
0
 10
-195.89
 11
-196.053
 20
-197.269
 21
-197.564
  0
LINE
  8
0
 10
-196.053
 11
-196.182
 20
-197.564
 21
-197.875
  0
LINE
  8
0
 10
-196.182
 11
-196.275
 20
-197.875
 21
-198.198
  0
LINE
  8
0
 10
-196.275
 11
-196.331
 20
-198.198
 21
-198.53
  0
LINE
  8
0
 10
-196.331
 11
-196.35
 20
-198.53
 21
-198.865
  0
LINE
  8
0
 10
-196.35
 11
-196.35
 20
-198.865
 21
-201.135
  0
LINE
  8
0
 10
-196.35
 11
-196.331
 20
-201.135
 21
-201.47
  0
LINE
  8
0
 10
-196.331
 11
-196.275
 20
-201.47
 21
-201.802
  0
LINE
  8
0
 10
-196.275
 11
-196.182
 20
-201.802
 21
-202.125
  0
LINE
  8
0
 10
-196.182
 11
-196.053
 20
-202.125
 21
-202.436
  0
LINE
  8
0
 10
-196.053
 11
-195.89
 20
-202.436
 21
-202.731
  0
LINE
  8
0
 10
-195.89
 11
-195.695
 20
-202.731
 21
-203.005
  0
LINE
  8
0
 10
-195.695
 11
-195.471
 20
-203.005
 21
-203.256
  0
LINE
  8
0
 10
-195.471
 11
-193.166
 20
-203.256
 21
-205.562
  0
LINE
  8
0
 10
-193.166
 11
-193.091
 20
-205.562
 21
-205.627
  0
LINE
  8
0
 10
-193.091
 11
-193.01
 20
-205.627
 21
-205.683
  0
LINE
  8
0
 10
-193.01
 11
-192.921
 20
-205.683
 21
-205.728
  0
LINE
  8
0
 10
-192.921
 11
-192.828
 20
-205.728
 21
-205.763
  0
LINE
  8
0
 10
-192.828
 11
-192.732
 20
-205.763
 21
-205.785
  0
LINE
  8
0
 10
-192.732
 11
-192.633
 20
-205.785
 21
-205.795
  0
LINE
  8
0
 10
-192.633
 11
-192.534
 20
-205.795
 21
-205.793
  0
LINE
  8
0
 10
-192.534
 11
-192.436
 20
-205.793
 21
-205.779
  0
LINE
  8
0
 10
-192.436
 11
-192.34
 20
-205.779
 21
-205.752
  0
LINE
  8
0
 10
-192.34
 11
-192.249
 20
-205.752
 21
-205.715
  0
LINE
  8
0
 10
-192.249
 11
-192.162
 20
-205.715
 21
-205.666
  0
LINE
  8
0
 10
-192.162
 11
-192.083
 20
-205.666
 21
-205.606
  0
LINE
  8
0
 10
-192.083
 11
-192.011
 20
-205.606
 21
-205.538
  0
LINE
  8
0
 10
-192.011
 11
-191.949
 20
-205.538
 21
-205.461
  0
LINE
  8
0
 10
-191.949
 11
-191.896
 20
-205.461
 21
-205.377
  0
LINE
  8
0
 10
-191.896
 11
-191.855
 20
-205.377
 21
-205.287
  0
LINE
  8
0
 10
-191.855
 11
-191.824
 20
-205.287
 21
-205.192
  0
LINE
  8
0
 10
-191.824
 11
-191.806
 20
-205.192
 21
-205.095
  0
LINE
  8
0
 10
-191.806
 11
-191.8
 20
-205.095
 21
-204.996
  0
LINE
  8
0
 10
-191.8
 11
-191.8
 20
-204.996
 21
-202.8
  0
LINE
  8
0
 10
-191.8
 11
-191.798
 20
-202.8
 21
-202.764
  0
LINE
  8
0
 10
-191.798
 11
-191.791
 20
-202.764
 21
-202.728
  0
LINE
  8
0
 10
-191.791
 11
-191.781
 20
-202.728
 21
-202.694
  0
LINE
  8
0
 10
-191.781
 11
-191.766
 20
-202.694
 21
-202.661
  0
LINE
  8
0
 10
-191.766
 11
-191.747
 20
-202.661
 21
-202.63
  0
LINE
  8
0
 10
-191.747
 11
-191.725
 20
-202.63
 21
-202.601
  0
LINE
  8
0
 10
-191.725
 11
-191.699
 20
-202.601
 21
-202.575
  0
LINE
  8
0
 10
-191.699
 11
-191.67
 20
-202.575
 21
-202.553
  0
LINE
  8
0
 10
-191.67
 11
-191.639
 20
-202.553
 21
-202.534
  0
LINE
  8
0
 10
-191.639
 11
-191.606
 20
-202.534
 21
-202.519
  0
LINE
  8
0
 10
-191.606
 11
-191.572
 20
-202.519
 21
-202.509
  0
LINE
  8
0
 10
-191.572
 11
-191.536
 20
-202.509
 21
-202.502
  0
LINE
  8
0
 10
-191.536
 11
-191.5
 20
-202.502
 21
-202.5
  0
LINE
  8
0
 10
-191.5
 11
-190.8
 20
-202.5
 21
-202.5
  0
LINE
  8
0
 10
-190.8
 11
-190.704
 20
-202.5
 21
-202.506
  0
LINE
  8
0
 10
-190.704
 11
-190.609
 20
-202.506
 21
-202.523
  0
LINE
  8
0
 10
-190.609
 11
-190.516
 20
-202.523
 21
-202.552
  0
LINE
  8
0
 10
-190.516
 11
-190.428
 20
-202.552
 21
-202.592
  0
LINE
  8
0
 10
-190.428
 11
-190.346
 20
-202.592
 21
-202.642
  0
LINE
  8
0
 10
-190.346
 11
-190.27
 20
-202.642
 21
-202.701
  0
LINE
  8
0
 10
-190.27
 11
-190.201
 20
-202.701
 21
-202.77
  0
LINE
  8
0
 10
-190.201
 11
-190.142
 20
-202.77
 21
-202.846
  0
LINE
  8
0
 10
-190.142
 11
-190.092
 20
-202.846
 21
-202.928
  0
LINE
  8
0
 10
-190.092
 11
-190.052
 20
-202.928
 21
-203.016
  0
LINE
  8
0
 10
-190.052
 11
-190.023
 20
-203.016
 21
-203.109
  0
LINE
  8
0
 10
-190.023
 11
-190.006
 20
-203.109
 21
-203.204
  0
LINE
  8
0
 10
-190.006
 11
-190
 20
-203.204
 21
-203.3
  0
LINE
  8
0
 10
-190
 11
-190
 20
-203.3
 21
-208
  0
LINE
  8
0
 10
-190
 11
-190.015
 20
-208
 21
-208.241
  0
LINE
  8
0
 10
-190.015
 11
-190.058
 20
-208.241
 21
-208.479
  0
LINE
  8
0
 10
-190.058
 11
-190.13
 20
-208.479
 21
-208.709
  0
LINE
  8
0
 10
-190.13
 11
-190.229
 20
-208.709
 21
-208.929
  0
LINE
  8
0
 10
-190.229
 11
-190.354
 20
-208.929
 21
-209.136
  0
LINE
  8
0
 10
-190.354
 11
-190.503
 20
-209.136
 21
-209.326
  0
LINE
  8
0
 10
-190.503
 11
-190.674
 20
-209.326
 21
-209.497
  0
LINE
  8
0
 10
-190.674
 11
-190.864
 20
-209.497
 21
-209.646
  0
LINE
  8
0
 10
-190.864
 11
-191.071
 20
-209.646
 21
-209.771
  0
LINE
  8
0
 10
-191.071
 11
-191.291
 20
-209.771
 21
-209.87
  0
LINE
  8
0
 10
-191.291
 11
-191.521
 20
-209.87
 21
-209.942
  0
LINE
  8
0
 10
-191.521
 11
-191.759
 20
-209.942
 21
-209.985
  0
LINE
  8
0
 10
-191.759
 11
-192
 20
-209.985
 21
-210
  0
LINE
  8
0
 10
-192
 11
-196.7
 20
-210
 21
-210
  0
LINE
  8
0
 10
-196.7
 11
-196.796
 20
-210
 21
-209.994
  0
LINE
  8
0
 10
-196.796
 11
-196.891
 20
-209.994
 21
-209.977
  0
LINE
  8
0
 10
-196.891
 11
-196.984
 20
-209.977
 21
-209.948
  0
LINE
  8
0
 10
-196.984
 11
-197.072
 20
-209.948
 21
-209.908
  0
LINE
  8
0
 10
-197.072
 11
-197.154
 20
-209.908
 21
-209.858
  0
LINE
  8
0
 10
-197.154
 11
-197.23
 20
-209.858
 21
-209.799
  0
LINE
  8
0
 10
-197.23
 11
-197.299
 20
-209.799
 21
-209.73
  0
LINE
  8
0
 10
-197.299
 11
-197.358
 20
-209.73
 21
-209.654
  0
LINE
  8
0
 10
-197.358
 11
-197.408
 20
-209.654
 21
-209.572
  0
LINE
  8
0
 10
-197.408
 11
-197.448
 20
-209.572
 21
-209.484
  0
LINE
  8
0
 10
-197.448
 11
-197.477
 20
-209.484
 21
-209.391
  0
LINE
  8
0
 10
-197.477
 11
-197.494
 20
-209.391
 21
-209.296
  0
LINE
  8
0
 10
-197.494
 11
-197.5
 20
-209.296
 21
-209.2
  0
LINE
  8
0
 10
-197.5
 11
-197.5
 20
-209.2
 21
-208.5
  0
LINE
  8
0
 10
-197.5
 11
-197.498
 20
-208.5
 21
-208.464
  0
LINE
  8
0
 10
-197.498
 11
-197.491
 20
-208.464
 21
-208.428
  0
LINE
  8
0
 10
-197.491
 11
-197.481
 20
-208.428
 21
-208.394
  0
LINE
  8
0
 10
-197.481
 11
-197.466
 20
-208.394
 21
-208.361
  0
LINE
  8
0
 10
-197.466
 11
-197.447
 20
-208.361
 21
-208.33
  0
LINE
  8
0
 10
-197.447
 11
-197.425
 20
-208.33
 21
-208.301
  0
LINE
  8
0
 10
-197.425
 11
-197.399
 20
-208.301
 21
-208.275
  0
LINE
  8
0
 10
-197.399
 11
-197.37
 20
-208.275
 21
-208.253
  0
LINE
  8
0
 10
-197.37
 11
-197.339
 20
-208.253
 21
-208.234
  0
LINE
  8
0
 10
-197.339
 11
-197.306
 20
-208.234
 21
-208.219
  0
LINE
  8
0
 10
-197.306
 11
-197.272
 20
-208.219
 21
-208.209
  0
LINE
  8
0
 10
-197.272
 11
-197.236
 20
-208.209
 21
-208.202
  0
LINE
  8
0
 10
-197.236
 11
-197.2
 20
-208.202
 21
-208.2
  0
LINE
  8
0
 10
-197.2
 11
-195.004
 20
-208.2
 21
-208.2
  0
LINE
  8
0
 10
-195.004
 11
-194.905
 20
-208.2
 21
-208.194
  0
LINE
  8
0
 10
-194.905
 11
-194.808
 20
-208.194
 21
-208.176
  0
LINE
  8
0
 10
-194.808
 11
-194.713
 20
-208.176
 21
-208.145
  0
LINE
  8
0
 10
-194.713
 11
-194.623
 20
-208.145
 21
-208.104
  0
LINE
  8
0
 10
-194.623
 11
-194.539
 20
-208.104
 21
-208.051
  0
LINE
  8
0
 10
-194.539
 11
-194.462
 20
-208.051
 21
-207.989
  0
LINE
  8
0
 10
-194.462
 11
-194.394
 20
-207.989
 21
-207.917
  0
LINE
  8
0
 10
-194.394
 11
-194.334
 20
-207.917
 21
-207.838
  0
LINE
  8
0
 10
-194.334
 11
-194.285
 20
-207.838
 21
-207.751
  0
LINE
  8
0
 10
-194.285
 11
-194.248
 20
-207.751
 21
-207.66
  0
LINE
  8
0
 10
-194.248
 11
-194.221
 20
-207.66
 21
-207.564
  0
LINE
  8
0
 10
-194.221
 11
-194.207
 20
-207.564
 21
-207.466
  0
LINE
  8
0
 10
-194.207
 11
-194.205
 20
-207.466
 21
-207.367
  0
LINE
  8
0
 10
-194.205
 11
-194.215
 20
-207.367
 21
-207.268
  0
LINE
  8
0
 10
-194.215
 11
-194.237
 20
-207.268
 21
-207.172
  0
LINE
  8
0
 10
-194.237
 11
-194.272
 20
-207.172
 21
-207.079
  0
LINE
  8
0
 10
-194.272
 11
-194.317
 20
-207.079
 21
-206.99
  0
LINE
  8
0
 10
-194.317
 11
-194.373
 20
-206.99
 21
-206.909
  0
LINE
  8
0
 10
-194.373
 11
-194.438
 20
-206.909
 21
-206.834
  0
LINE
  8
0
 10
-194.438
 11
-196.744
 20
-206.834
 21
-204.529
  0
LINE
  8
0
 10
-196.744
 11
-196.995
 20
-204.529
 21
-204.305
  0
LINE
  8
0
 10
-196.995
 11
-197.269
 20
-204.305
 21
-204.11
  0
LINE
  8
0
 10
-197.269
 11
-197.564
 20
-204.11
 21
-203.947
  0
LINE
  8
0
 10
-197.564
 11
-197.875
 20
-203.947
 21
-203.818
  0
LINE
  8
0
 10
-197.875
 11
-198.198
 20
-203.818
 21
-203.725
  0
LINE
  8
0
 10
-198.198
 11
-198.53
 20
-203.725
 21
-203.669
  0
LINE
  8
0
 10
-198.53
 11
-198.865
 20
-203.669
 21
-203.65
  0
LINE
  8
0
 10
-198.865
 11
-201.135
 20
-203.65
 21
-203.65
  0
LINE
  8
0
 10
-201.135
 11
-201.47
 20
-203.65
 21
-203.669
  0
LINE
  8
0
 10
-201.47
 11
-201.802
 20
-203.669
 21
-203.725
  0
LINE
  8
0
 10
-201.802
 11
-202.125
 20
-203.725
 21
-203.818
  0
LINE
  8
0
 10
-202.125
 11
-202.436
 20
-203.818
 21
-203.947
  0
LINE
  8
0
 10
-202.436
 11
-202.731
 20
-203.947
 21
-204.11
  0
LINE
  8
0
 10
-202.731
 11
-203.005
 20
-204.11
 21
-204.305
  0
LINE
  8
0
 10
-203.005
 11
-203.256
 20
-204.305
 21
-204.529
  0
LINE
  8
0
 10
-203.256
 11
-205.562
 20
-204.529
 21
-206.834
  0
LINE
  8
0
 10
-205.562
 11
-205.627
 20
-206.834
 21
-206.909
  0
LINE
  8
0
 10
-205.627
 11
-205.683
 20
-206.909
 21
-206.99
  0
LINE
  8
0
 10
-205.683
 11
-205.728
 20
-206.99
 21
-207.079
  0
LINE
  8
0
 10
-205.728
 11
-205.763
 20
-207.079
 21
-207.172
  0
LINE
  8
0
 10
-205.763
 11
-205.785
 20
-207.172
 21
-207.268
  0
LINE
  8
0
 10
-205.785
 11
-205.795
 20
-207.268
 21
-207.367
  0
LINE
  8
0
 10
-205.795
 11
-205.793
 20
-207.367
 21
-207.466
  0
LINE
  8
0
 10
-205.793
 11
-205.779
 20
-207.466
 21
-207.564
  0
LINE
  8
0
 10
-205.779
 11
-205.752
 20
-207.564
 21
-207.66
  0
LINE
  8
0
 10
-205.752
 11
-205.715
 20
-207.66
 21
-207.751
  0
LINE
  8
0
 10
-205.715
 11
-205.666
 20
-207.751
 21
-207.838
  0
LINE
  8
0
 10
-205.666
 11
-205.606
 20
-207.838
 21
-207.917
  0
LINE
  8
0
 10
-205.606
 11
-205.538
 20
-207.917
 21
-207.989
  0
LINE
  8
0
 10
-205.538
 11
-205.461
 20
-207.989
 21
-208.051
  0
LINE
  8
0
 10
-205.461
 11
-205.377
 20
-208.051
 21
-208.104
  0
LINE
  8
0
 10
-205.377
 11
-205.287
 20
-208.104
 21
-208.145
  0
LINE
  8
0
 10
-205.287
 11
-205.192
 20
-208.145
 21
-208.176
  0
LINE
  8
0
 10
-205.192
 11
-205.095
 20
-208.176
 21
-208.194
  0
LINE
  8
0
 10
-205.095
 11
-204.996
 20
-208.194
 21
-208.2
  0
LINE
  8
0
 10
-204.996
 11
-202.8
 20
-208.2
 21
-208.2
  0
LINE
  8
0
 10
-202.8
 11
-202.764
 20
-208.2
 21
-208.202
  0
LINE
  8
0
 10
-202.764
 11
-202.728
 20
-208.202
 21
-208.209
  0
LINE
  8
0
 10
-202.728
 11
-202.694
 20
-208.209
 21
-208.219
  0
LINE
  8
0
 10
-202.694
 11
-202.661
 20
-208.219
 21
-208.234
  0
LINE
  8
0
 10
-202.661
 11
-202.63
 20
-208.234
 21
-208.253
  0
LINE
  8
0
 10
-202.63
 11
-202.601
 20
-208.253
 21
-208.275
  0
LINE
  8
0
 10
-202.601
 11
-202.575
 20
-208.275
 21
-208.301
  0
LINE
  8
0
 10
-202.575
 11
-202.553
 20
-208.301
 21
-208.33
  0
LINE
  8
0
 10
-202.553
 11
-202.534
 20
-208.33
 21
-208.361
  0
LINE
  8
0
 10
-202.534
 11
-202.519
 20
-208.361
 21
-208.394
  0
LINE
  8
0
 10
-202.519
 11
-202.509
 20
-208.394
 21
-208.428
  0
LINE
  8
0
 10
-202.509
 11
-202.502
 20
-208.428
 21
-208.464
  0
LINE
  8
0
 10
-202.502
 11
-202.5
 20
-208.464
 21
-208.5
  0
LINE
  8
0
 10
-202.5
 11
-202.5
 20
-208.5
 21
-209.2
  0
LINE
  8
0
 10
-202.5
 11
-202.506
 20
-209.2
 21
-209.296
  0
LINE
  8
0
 10
-202.506
 11
-202.523
 20
-209.296
 21
-209.391
  0
LINE
  8
0
 10
-202.523
 11
-202.552
 20
-209.391
 21
-209.484
  0
LINE
  8
0
 10
-202.552
 11
-202.592
 20
-209.484
 21
-209.572
  0
LINE
  8
0
 10
-202.592
 11
-202.642
 20
-209.572
 21
-209.654
  0
LINE
  8
0
 10
-202.642
 11
-202.701
 20
-209.654
 21
-209.73
  0
LINE
  8
0
 10
-202.701
 11
-202.77
 20
-209.73
 21
-209.799
  0
LINE
  8
0
 10
-202.77
 11
-202.846
 20
-209.799
 21
-209.858
  0
LINE
  8
0
 10
-202.846
 11
-202.928
 20
-209.858
 21
-209.908
  0
LINE
  8
0
 10
-202.928
 11
-203.016
 20
-209.908
 21
-209.948
  0
LINE
  8
0
 10
-203.016
 11
-203.109
 20
-209.948
 21
-209.977
  0
LINE
  8
0
 10
-203.109
 11
-203.204
 20
-209.977
 21
-209.994
  0
LINE
  8
0
 10
-203.204
 11
-203.3
 20
-209.994
 21
-210
  0
LINE
  8
0
 10
-203.3
 11
-208
 20
-210
 21
-210
  0
LINE
  8
0
 10
-208
 11
-208.241
 20
-210
 21
-209.985
  0
LINE
  8
0
 10
-208.241
 11
-208.479
 20
-209.985
 21
-209.942
  0
LINE
  8
0
 10
-208.479
 11
-208.709
 20
-209.942
 21
-209.87
  0
LINE
  8
0
 10
-208.709
 11
-208.929
 20
-209.87
 21
-209.771
  0
LINE
  8
0
 10
-208.929
 11
-209.136
 20
-209.771
 21
-209.646
  0
LINE
  8
0
 10
-209.136
 11
-209.326
 20
-209.646
 21
-209.497
  0
LINE
  8
0
 10
-209.326
 11
-209.497
 20
-209.497
 21
-209.326
  0
LINE
  8
0
 10
-209.497
 11
-209.646
 20
-209.326
 21
-209.136
  0
LINE
  8
0
 10
-209.646
 11
-209.771
 20
-209.136
 21
-208.929
  0
LINE
  8
0
 10
-209.771
 11
-209.87
 20
-208.929
 21
-208.709
  0
LINE
  8
0
 10
-209.87
 11
-209.942
 20
-208.709
 21
-208.479
  0
LINE
  8
0
 10
-209.942
 11
-209.985
 20
-208.479
 21
-208.241
  0
LINE
  8
0
 10
-209.985
 11
-210
 20
-208.241
 21
-208
  0
LINE
  8
0
 10
-210
 11
-210
 20
192
 21
196.7
  0
LINE
  8
0
 10
-210
 11
-209.994
 20
196.7
 21
196.796
  0
LINE
  8
0
 10
-209.994
 11
-209.977
 20
196.796
 21
196.891
  0
LINE
  8
0
 10
-209.977
 11
-209.948
 20
196.891
 21
196.984
  0
LINE
  8
0
 10
-209.948
 11
-209.908
 20
196.984
 21
197.072
  0
LINE
  8
0
 10
-209.908
 11
-209.858
 20
197.072
 21
197.154
  0
LINE
  8
0
 10
-209.858
 11
-209.799
 20
197.154
 21
197.23
  0
LINE
  8
0
 10
-209.799
 11
-209.73
 20
197.23
 21
197.299
  0
LINE
  8
0
 10
-209.73
 11
-209.654
 20
197.299
 21
197.358
  0
LINE
  8
0
 10
-209.654
 11
-209.572
 20
197.358
 21
197.408
  0
LINE
  8
0
 10
-209.572
 11
-209.484
 20
197.408
 21
197.448
  0
LINE
  8
0
 10
-209.484
 11
-209.391
 20
197.448
 21
197.477
  0
LINE
  8
0
 10
-209.391
 11
-209.296
 20
197.477
 21
197.494
  0
LINE
  8
0
 10
-209.296
 11
-209.2
 20
197.494
 21
197.5
  0
LINE
  8
0
 10
-209.2
 11
-208.5
 20
197.5
 21
197.5
  0
LINE
  8
0
 10
-208.5
 11
-208.464
 20
197.5
 21
197.498
  0
LINE
  8
0
 10
-208.464
 11
-208.428
 20
197.498
 21
197.491
  0
LINE
  8
0
 10
-208.428
 11
-208.394
 20
197.491
 21
197.481
  0
LINE
  8
0
 10
-208.394
 11
-208.361
 20
197.481
 21
197.466
  0
LINE
  8
0
 10
-208.361
 11
-208.33
 20
197.466
 21
197.447
  0
LINE
  8
0
 10
-208.33
 11
-208.301
 20
197.447
 21
197.425
  0
LINE
  8
0
 10
-208.301
 11
-208.275
 20
197.425
 21
197.399
  0
LINE
  8
0
 10
-208.275
 11
-208.253
 20
197.399
 21
197.37
  0
LINE
  8
0
 10
-208.253
 11
-208.234
 20
197.37
 21
197.339
  0
LINE
  8
0
 10
-208.234
 11
-208.219
 20
197.339
 21
197.306
  0
LINE
  8
0
 10
-208.219
 11
-208.209
 20
197.306
 21
197.272
  0
LINE
  8
0
 10
-208.209
 11
-208.202
 20
197.272
 21
197.236
  0
LINE
  8
0
 10
-208.202
 11
-208.2
 20
197.236
 21
197.2
  0
LINE
  8
0
 10
-208.2
 11
-208.2
 20
197.2
 21
195.004
  0
LINE
  8
0
 10
-208.2
 11
-208.194
 20
195.004
 21
194.905
  0
LINE
  8
0
 10
-208.194
 11
-208.176
 20
194.905
 21
194.808
  0
LINE
  8
0
 10
-208.176
 11
-208.145
 20
194.808
 21
194.713
  0
LINE
  8
0
 10
-208.145
 11
-208.104
 20
194.713
 21
194.623
  0
LINE
  8
0
 10
-208.104
 11
-208.051
 20
194.623
 21
194.539
  0
LINE
  8
0
 10
-208.051
 11
-207.989
 20
194.539
 21
194.462
  0
LINE
  8
0
 10
-207.989
 11
-207.917
 20
194.462
 21
194.394
  0
LINE
  8
0
 10
-207.917
 11
-207.838
 20
194.394
 21
194.334
  0
LINE
  8
0
 10
-207.838
 11
-207.751
 20
194.334
 21
194.285
  0
LINE
  8
0
 10
-207.751
 11
-207.66
 20
194.285
 21
194.248
  0
LINE
  8
0
 10
-207.66
 11
-207.564
 20
194.248
 21
194.221
  0
LINE
  8
0
 10
-207.564
 11
-207.466
 20
194.221
 21
194.207
  0
LINE
  8
0
 10
-207.466
 11
-207.367
 20
194.207
 21
194.205
  0
LINE
  8
0
 10
-207.367
 11
-207.268
 20
194.205
 21
194.215
  0
LINE
  8
0
 10
-207.268
 11
-207.172
 20
194.215
 21
194.237
  0
LINE
  8
0
 10
-207.172
 11
-207.079
 20
194.237
 21
194.272
  0
LINE
  8
0
 10
-207.079
 11
-206.99
 20
194.272
 21
194.317
  0
LINE
  8
0
 10
-206.99
 11
-206.909
 20
194.317
 21
194.373
  0
LINE
  8
0
 10
-206.909
 11
-206.834
 20
194.373
 21
194.438
  0
LINE
  8
0
 10
-206.834
 11
-204.529
 20
194.438
 21
196.744
  0
LINE
  8
0
 10
-204.529
 11
-204.305
 20
196.744
 21
196.995
  0
LINE
  8
0
 10
-204.305
 11
-204.11
 20
196.995
 21
197.269
  0
LINE
  8
0
 10
-204.11
 11
-203.947
 20
197.269
 21
197.564
  0
LINE
  8
0
 10
-203.947
 11
-203.818
 20
197.564
 21
197.875
  0
LINE
  8
0
 10
-203.818
 11
-203.725
 20
197.875
 21
198.198
  0
LINE
  8
0
 10
-203.725
 11
-203.669
 20
198.198
 21
198.53
  0
LINE
  8
0
 10
-203.669
 11
-203.65
 20
198.53
 21
198.865
  0
LINE
  8
0
 10
-203.65
 11
-203.65
 20
198.865
 21
201.135
  0
LINE
  8
0
 10
-203.65
 11
-203.669
 20
201.135
 21
201.47
  0
LINE
  8
0
 10
-203.669
 11
-203.725
 20
201.47
 21
201.802
  0
LINE
  8
0
 10
-203.725
 11
-203.818
 20
201.802
 21
202.125
  0
LINE
  8
0
 10
-203.818
 11
-203.947
 20
202.125
 21
202.436
  0
LINE
  8
0
 10
-203.947
 11
-204.11
 20
202.436
 21
202.731
  0
LINE
  8
0
 10
-204.11
 11
-204.305
 20
202.731
 21
203.005
  0
LINE
  8
0
 10
-204.305
 11
-204.529
 20
203.005
 21
203.256
  0
LINE
  8
0
 10
-204.529
 11
-206.834
 20
203.256
 21
205.562
  0
LINE
  8
0
 10
-206.834
 11
-206.909
 20
205.562
 21
205.627
  0
LINE
  8
0
 10
-206.909
 11
-206.99
 20
205.627
 21
205.683
  0
LINE
  8
0
 10
-206.99
 11
-207.079
 20
205.683
 21
205.728
  0
LINE
  8
0
 10
-207.079
 11
-207.172
 20
205.728
 21
205.763
  0
LINE
  8
0
 10
-207.172
 11
-207.268
 20
205.763
 21
205.785
  0
LINE
  8
0
 10
-207.268
 11
-207.367
 20
205.785
 21
205.795
  0
LINE
  8
0
 10
-207.367
 11
-207.466
 20
205.795
 21
205.793
  0
LINE
  8
0
 10
-207.466
 11
-207.564
 20
205.793
 21
205.779
  0
LINE
  8
0
 10
-207.564
 11
-207.66
 20
205.779
 21
205.752
  0
LINE
  8
0
 10
-207.66
 11
-207.751
 20
205.752
 21
205.715
  0
LINE
  8
0
 10
-207.751
 11
-207.838
 20
205.715
 21
205.666
  0
LINE
  8
0
 10
-207.838
 11
-207.917
 20
205.666
 21
205.606
  0
LINE
  8
0
 10
-207.917
 11
-207.989
 20
205.606
 21
205.538
  0
LINE
  8
0
 10
-207.989
 11
-208.051
 20
205.538
 21
205.461
  0
LINE
  8
0
 10
-208.051
 11
-208.104
 20
205.461
 21
205.377
  0
LINE
  8
0
 10
-208.104
 11
-208.145
 20
205.377
 21
205.287
  0
LINE
  8
0
 10
-208.145
 11
-208.176
 20
205.287
 21
205.192
  0
LINE
  8
0
 10
-208.176
 11
-208.194
 20
205.192
 21
205.095
  0
LINE
  8
0
 10
-208.194
 11
-208.2
 20
205.095
 21
204.996
  0
LINE
  8
0
 10
-208.2
 11
-208.2
 20
204.996
 21
202.8
  0
LINE
  8
0
 10
-208.2
 11
-208.202
 20
202.8
 21
202.764
  0
LINE
  8
0
 10
-208.202
 11
-208.209
 20
202.764
 21
202.728
  0
LINE
  8
0
 10
-208.209
 11
-208.219
 20
202.728
 21
202.694
  0
LINE
  8
0
 10
-208.219
 11
-208.234
 20
202.694
 21
202.661
  0
LINE
  8
0
 10
-208.234
 11
-208.253
 20
202.661
 21
202.63
  0
LINE
  8
0
 10
-208.253
 11
-208.275
 20
202.63
 21
202.601
  0
LINE
  8
0
 10
-208.275
 11
-208.301
 20
202.601
 21
202.575
  0
LINE
  8
0
 10
-208.301
 11
-208.33
 20
202.575
 21
202.553
  0
LINE
  8
0
 10
-208.33
 11
-208.361
 20
202.553
 21
202.534
  0
LINE
  8
0
 10
-208.361
 11
-208.394
 20
202.534
 21
202.519
  0
LINE
  8
0
 10
-208.394
 11
-208.428
 20
202.519
 21
202.509
  0
LINE
  8
0
 10
-208.428
 11
-208.464
 20
202.509
 21
202.502
  0
LINE
  8
0
 10
-208.464
 11
-208.5
 20
202.502
 21
202.5
  0
LINE
  8
0
 10
-208.5
 11
-209.2
 20
202.5
 21
202.5
  0
LINE
  8
0
 10
-209.2
 11
-209.296
 20
202.5
 21
202.506
  0
LINE
  8
0
 10
-209.296
 11
-209.391
 20
202.506
 21
202.523
  0
LINE
  8
0
 10
-209.391
 11
-209.484
 20
202.523
 21
202.552
  0
LINE
  8
0
 10
-209.484
 11
-209.572
 20
202.552
 21
202.592
  0
LINE
  8
0
 10
-209.572
 11
-209.654
 20
202.592
 21
202.642
  0
LINE
  8
0
 10
-209.654
 11
-209.73
 20
202.642
 21
202.701
  0
LINE
  8
0
 10
-209.73
 11
-209.799
 20
202.701
 21
202.77
  0
LINE
  8
0
 10
-209.799
 11
-209.858
 20
202.77
 21
202.846
  0
LINE
  8
0
 10
-209.858
 11
-209.908
 20
202.846
 21
202.928
  0
LINE
  8
0
 10
-209.908
 11
-209.948
 20
202.928
 21
203.016
  0
LINE
  8
0
 10
-209.948
 11
-209.977
 20
203.016
 21
203.109
  0
LINE
  8
0
 10
-209.977
 11
-209.994
 20
203.109
 21
203.204
  0
LINE
  8
0
 10
-209.994
 11
-210
 20
203.204
 21
203.3
  0
LINE
  8
0
 10
-210
 11
-210
 20
203.3
 21
208
  0
LINE
  8
0
 10
-210
 11
-209.985
 20
208
 21
208.241
  0
LINE
  8
0
 10
-209.985
 11
-209.942
 20
208.241
 21
208.479
  0
LINE
  8
0
 10
-209.942
 11
-209.87
 20
208.479
 21
208.709
  0
LINE
  8
0
 10
-209.87
 11
-209.771
 20
208.709
 21
208.929
  0
LINE
  8
0
 10
-209.771
 11
-209.646
 20
208.929
 21
209.136
  0
LINE
  8
0
 10
-209.646
 11
-209.497
 20
209.136
 21
209.326
  0
LINE
  8
0
 10
-209.497
 11
-209.326
 20
209.326
 21
209.497
  0
LINE
  8
0
 10
-209.326
 11
-209.136
 20
209.497
 21
209.646
  0
LINE
  8
0
 10
-209.136
 11
-208.929
 20
209.646
 21
209.771
  0
LINE
  8
0
 10
-208.929
 11
-208.709
 20
209.771
 21
209.87
  0
LINE
  8
0
 10
-208.709
 11
-208.479
 20
209.87
 21
209.942
  0
LINE
  8
0
 10
-208.479
 11
-208.241
 20
209.942
 21
209.985
  0
LINE
  8
0
 10
-208.241
 11
-208
 20
209.985
 21
210
  0
LINE
  8
0
 10
-208
 11
-203.3
 20
210
 21
210
  0
LINE
  8
0
 10
-203.3
 11
-203.204
 20
210
 21
209.994
  0
LINE
  8
0
 10
-203.204
 11
-203.109
 20
209.994
 21
209.977
  0
LINE
  8
0
 10
-203.109
 11
-203.016
 20
209.977
 21
209.948
  0
LINE
  8
0
 10
-203.016
 11
-202.928
 20
209.948
 21
209.908
  0
LINE
  8
0
 10
-202.928
 11
-202.846
 20
209.908
 21
209.858
  0
LINE
  8
0
 10
-202.846
 11
-202.77
 20
209.858
 21
209.799
  0
LINE
  8
0
 10
-202.77
 11
-202.701
 20
209.799
 21
209.73
  0
LINE
  8
0
 10
-202.701
 11
-202.642
 20
209.73
 21
209.654
  0
LINE
  8
0
 10
-202.642
 11
-202.592
 20
209.654
 21
209.572
  0
LINE
  8
0
 10
-202.592
 11
-202.552
 20
209.572
 21
209.484
  0
LINE
  8
0
 10
-202.552
 11
-202.523
 20
209.484
 21
209.391
  0
LINE
  8
0
 10
-202.523
 11
-202.506
 20
209.391
 21
209.296
  0
LINE
  8
0
 10
-202.506
 11
-202.5
 20
209.296
 21
209.2
  0
LINE
  8
0
 10
-202.5
 11
-202.5
 20
209.2
 21
208.5
  0
LINE
  8
0
 10
-202.5
 11
-202.502
 20
208.5
 21
208.464
  0
LINE
  8
0
 10
-202.502
 11
-202.509
 20
208.464
 21
208.428
  0
LINE
  8
0
 10
-202.509
 11
-202.519
 20
208.428
 21
208.394
  0
LINE
  8
0
 10
-202.519
 11
-202.534
 20
208.394
 21
208.361
  0
LINE
  8
0
 10
-202.534
 11
-202.553
 20
208.361
 21
208.33
  0
LINE
  8
0
 10
-202.553
 11
-202.575
 20
208.33
 21
208.301
  0
LINE
  8
0
 10
-202.575
 11
-202.601
 20
208.301
 21
208.275
  0
LINE
  8
0
 10
-202.601
 11
-202.63
 20
208.275
 21
208.253
  0
LINE
  8
0
 10
-202.63
 11
-202.661
 20
208.253
 21
208.234
  0
LINE
  8
0
 10
-202.661
 11
-202.694
 20
208.234
 21
208.219
  0
LINE
  8
0
 10
-202.694
 11
-202.728
 20
208.219
 21
208.209
  0
LINE
  8
0
 10
-202.728
 11
-202.764
 20
208.209
 21
208.202
  0
LINE
  8
0
 10
-202.764
 11
-202.8
 20
208.202
 21
208.2
  0
LINE
  8
0
 10
-202.8
 11
-204.996
 20
208.2
 21
208.2
  0
LINE
  8
0
 10
-204.996
 11
-205.095
 20
208.2
 21
208.194
  0
LINE
  8
0
 10
-205.095
 11
-205.192
 20
208.194
 21
208.176
  0
LINE
  8
0
 10
-205.192
 11
-205.287
 20
208.176
 21
208.145
  0
LINE
  8
0
 10
-205.287
 11
-205.377
 20
208.145
 21
208.104
  0
LINE
  8
0
 10
-205.377
 11
-205.461
 20
208.104
 21
208.051
  0
LINE
  8
0
 10
-205.461
 11
-205.538
 20
208.051
 21
207.989
  0
LINE
  8
0
 10
-205.538
 11
-205.606
 20
207.989
 21
207.917
  0
LINE
  8
0
 10
-205.606
 11
-205.666
 20
207.917
 21
207.838
  0
LINE
  8
0
 10
-205.666
 11
-205.715
 20
207.838
 21
207.751
  0
LINE
  8
0
 10
-205.715
 11
-205.752
 20
207.751
 21
207.66
  0
LINE
  8
0
 10
-205.752
 11
-205.779
 20
207.66
 21
207.564
  0
LINE
  8
0
 10
-205.779
 11
-205.793
 20
207.564
 21
207.466
  0
LINE
  8
0
 10
-205.793
 11
-205.795
 20
207.466
 21
207.367
  0
LINE
  8
0
 10
-205.795
 11
-205.785
 20
207.367
 21
207.268
  0
LINE
  8
0
 10
-205.785
 11
-205.763
 20
207.268
 21
207.172
  0
LINE
  8
0
 10
-205.763
 11
-205.728
 20
207.172
 21
207.079
  0
LINE
  8
0
 10
-205.728
 11
-205.683
 20
207.079
 21
206.99
  0
LINE
  8
0
 10
-205.683
 11
-205.627
 20
206.99
 21
206.909
  0
LINE
  8
0
 10
-205.627
 11
-205.562
 20
206.909
 21
206.834
  0
LINE
  8
0
 10
-205.562
 11
-203.256
 20
206.834
 21
204.529
  0
LINE
  8
0
 10
-203.256
 11
-203.005
 20
204.529
 21
204.305
  0
LINE
  8
0
 10
-203.005
 11
-202.731
 20
204.305
 21
204.11
  0
LINE
  8
0
 10
-202.731
 11
-202.436
 20
204.11
 21
203.947
  0
LINE
  8
0
 10
-202.436
 11
-202.125
 20
203.947
 21
203.818
  0
LINE
  8
0
 10
-202.125
 11
-201.802
 20
203.818
 21
203.725
  0
LINE
  8
0
 10
-201.802
 11
-201.47
 20
203.725
 21
203.669
  0
LINE
  8
0
 10
-201.47
 11
-201.135
 20
203.669
 21
203.65
  0
LINE
  8
0
 10
-201.135
 11
-198.865
 20
203.65
 21
203.65
  0
LINE
  8
0
 10
-198.865
 11
-198.53
 20
203.65
 21
203.669
  0
LINE
  8
0
 10
-198.53
 11
-198.198
 20
203.669
 21
203.725
  0
LINE
  8
0
 10
-198.198
 11
-197.875
 20
203.725
 21
203.818
  0
LINE
  8
0
 10
-197.875
 11
-197.564
 20
203.818
 21
203.947
  0
LINE
  8
0
 10
-197.564
 11
-197.269
 20
203.947
 21
204.11
  0
LINE
  8
0
 10
-197.269
 11
-196.995
 20
204.11
 21
204.305
  0
LINE
  8
0
 10
-196.995
 11
-196.744
 20
204.305
 21
204.529
  0
LINE
  8
0
 10
-196.744
 11
-194.438
 20
204.529
 21
206.834
  0
LINE
  8
0
 10
-194.438
 11
-194.373
 20
206.834
 21
206.909
  0
LINE
  8
0
 10
-194.373
 11
-194.317
 20
206.909
 21
206.99
  0
LINE
  8
0
 10
-194.317
 11
-194.272
 20
206.99
 21
207.079
  0
LINE
  8
0
 10
-194.272
 11
-194.237
 20
207.079
 21
207.172
  0
LINE
  8
0
 10
-194.237
 11
-194.215
 20
207.172
 21
207.268
  0
LINE
  8
0
 10
-194.215
 11
-194.205
 20
207.268
 21
207.367
  0
LINE
  8
0
 10
-194.205
 11
-194.207
 20
207.367
 21
207.466
  0
LINE
  8
0
 10
-194.207
 11
-194.221
 20
207.466
 21
207.564
  0
LINE
  8
0
 10
-194.221
 11
-194.248
 20
207.564
 21
207.66
  0
LINE
  8
0
 10
-194.248
 11
-194.285
 20
207.66
 21
207.751
  0
LINE
  8
0
 10
-194.285
 11
-194.334
 20
207.751
 21
207.838
  0
LINE
  8
0
 10
-194.334
 11
-194.394
 20
207.838
 21
207.917
  0
LINE
  8
0
 10
-194.394
 11
-194.462
 20
207.917
 21
207.989
  0
LINE
  8
0
 10
-194.462
 11
-194.539
 20
207.989
 21
208.051
  0
LINE
  8
0
 10
-194.539
 11
-194.623
 20
208.051
 21
208.104
  0
LINE
  8
0
 10
-194.623
 11
-194.713
 20
208.104
 21
208.145
  0
LINE
  8
0
 10
-194.713
 11
-194.808
 20
208.145
 21
208.176
  0
LINE
  8
0
 10
-194.808
 11
-194.905
 20
208.176
 21
208.194
  0
LINE
  8
0
 10
-194.905
 11
-195.004
 20
208.194
 21
208.2
  0
LINE
  8
0
 10
-195.004
 11
-197.2
 20
208.2
 21
208.2
  0
LINE
  8
0
 10
-197.2
 11
-197.236
 20
208.2
 21
208.202
  0
LINE
  8
0
 10
-197.236
 11
-197.272
 20
208.202
 21
208.209
  0
LINE
  8
0
 10
-197.272
 11
-197.306
 20
208.209
 21
208.219
  0
LINE
  8
0
 10
-197.306
 11
-197.339
 20
208.219
 21
208.234
  0
LINE
  8
0
 10
-197.339
 11
-197.37
 20
208.234
 21
208.253
  0
LINE
  8
0
 10
-197.37
 11
-197.399
 20
208.253
 21
208.275
  0
LINE
  8
0
 10
-197.399
 11
-197.425
 20
208.275
 21
208.301
  0
LINE
  8
0
 10
-197.425
 11
-197.447
 20
208.301
 21
208.33
  0
LINE
  8
0
 10
-197.447
 11
-197.466
 20
208.33
 21
208.361
  0
LINE
  8
0
 10
-197.466
 11
-197.481
 20
208.361
 21
208.394
  0
LINE
  8
0
 10
-197.481
 11
-197.491
 20
208.394
 21
208.428
  0
LINE
  8
0
 10
-197.491
 11
-197.498
 20
208.428
 21
208.464
  0
LINE
  8
0
 10
-197.498
 11
-197.5
 20
208.464
 21
208.5
  0
LINE
  8
0
 10
-197.5
 11
-197.5
 20
208.5
 21
209.2
  0
LINE
  8
0
 10
-197.5
 11
-197.494
 20
209.2
 21
209.296
  0
LINE
  8
0
 10
-197.494
 11
-197.477
 20
209.296
 21
209.391
  0
LINE
  8
0
 10
-197.477
 11
-197.448
 20
209.391
 21
209.484
  0
LINE
  8
0
 10
-197.448
 11
-197.408
 20
209.484
 21
209.572
  0
LINE
  8
0
 10
-197.408
 11
-197.358
 20
209.572
 21
209.654
  0
LINE
  8
0
 10
-197.358
 11
-197.299
 20
209.654
 21
209.73
  0
LINE
  8
0
 10
-197.299
 11
-197.23
 20
209.73
 21
209.799
  0
LINE
  8
0
 10
-197.23
 11
-197.154
 20
209.799
 21
209.858
  0
LINE
  8
0
 10
-197.154
 11
-197.072
 20
209.858
 21
209.908
  0
LINE
  8
0
 10
-197.072
 11
-196.984
 20
209.908
 21
209.948
  0
LINE
  8
0
 10
-196.984
 11
-196.891
 20
209.948
 21
209.977
  0
LINE
  8
0
 10
-196.891
 11
-196.796
 20
209.977
 21
209.994
  0
LINE
  8
0
 10
-196.796
 11
-196.7
 20
209.994
 21
210
  0
LINE
  8
0
 10
-196.7
 11
-192
 20
210
 21
210
  0
LINE
  8
0
 10
-192
 11
-191.759
 20
210
 21
209.985
  0
LINE
  8
0
 10
-191.759
 11
-191.521
 20
209.985
 21
209.942
  0
LINE
  8
0
 10
-191.521
 11
-191.291
 20
209.942
 21
209.87
  0
LINE
  8
0
 10
-191.291
 11
-191.071
 20
209.87
 21
209.771
  0
LINE
  8
0
 10
-191.071
 11
-190.864
 20
209.771
 21
209.646
  0
LINE
  8
0
 10
-190.864
 11
-190.674
 20
209.646
 21
209.497
  0
LINE
  8
0
 10
-190.674
 11
-190.503
 20
209.497
 21
209.326
  0
LINE
  8
0
 10
-190.503
 11
-190.354
 20
209.326
 21
209.136
  0
LINE
  8
0
 10
-190.354
 11
-190.229
 20
209.136
 21
208.929
  0
LINE
  8
0
 10
-190.229
 11
-190.13
 20
208.929
 21
208.709
  0
LINE
  8
0
 10
-190.13
 11
-190.058
 20
208.709
 21
208.479
  0
LINE
  8
0
 10
-190.058
 11
-190.015
 20
208.479
 21
208.241
  0
LINE
  8
0
 10
-190.015
 11
-190
 20
208.241
 21
208
  0
LINE
  8
0
 10
-190
 11
-190
 20
208
 21
203.3
  0
LINE
  8
0
 10
-190
 11
-190.006
 20
203.3
 21
203.204
  0
LINE
  8
0
 10
-190.006
 11
-190.023
 20
203.204
 21
203.109
  0
LINE
  8
0
 10
-190.023
 11
-190.052
 20
203.109
 21
203.016
  0
LINE
  8
0
 10
-190.052
 11
-190.092
 20
203.016
 21
202.928
  0
LINE
  8
0
 10
-190.092
 11
-190.142
 20
202.928
 21
202.846
  0
LINE
  8
0
 10
-190.142
 11
-190.201
 20
202.846
 21
202.77
  0
LINE
  8
0
 10
-190.201
 11
-190.27
 20
202.77
 21
202.701
  0
LINE
  8
0
 10
-190.27
 11
-190.346
 20
202.701
 21
202.642
  0
LINE
  8
0
 10
-190.346
 11
-190.428
 20
202.642
 21
202.592
  0
LINE
  8
0
 10
-190.428
 11
-190.516
 20
202.592
 21
202.552
  0
LINE
  8
0
 10
-190.516
 11
-190.609
 20
202.552
 21
202.523
  0
LINE
  8
0
 10
-190.609
 11
-190.704
 20
202.523
 21
202.506
  0
LINE
  8
0
 10
-190.704
 11
-190.8
 20
202.506
 21
202.5
  0
LINE
  8
0
 10
-190.8
 11
-191.5
 20
202.5
 21
202.5
  0
LINE
  8
0
 10
-191.5
 11
-191.536
 20
202.5
 21
202.502
  0
LINE
  8
0
 10
-191.536
 11
-191.572
 20
202.502
 21
202.509
  0
LINE
  8
0
 10
-191.572
 11
-191.606
 20
202.509
 21
202.519
  0
LINE
  8
0
 10
-191.606
 11
-191.639
 20
202.519
 21
202.534
  0
LINE
  8
0
 10
-191.639
 11
-191.67
 20
202.534
 21
202.553
  0
LINE
  8
0
 10
-191.67
 11
-191.699
 20
202.553
 21
202.575
  0
LINE
  8
0
 10
-191.699
 11
-191.725
 20
202.575
 21
202.601
  0
LINE
  8
0
 10
-191.725
 11
-191.747
 20
202.601
 21
202.63
  0
LINE
  8
0
 10
-191.747
 11
-191.766
 20
202.63
 21
202.661
  0
LINE
  8
0
 10
-191.766
 11
-191.781
 20
202.661
 21
202.694
  0
LINE
  8
0
 10
-191.781
 11
-191.791
 20
202.694
 21
202.728
  0
LINE
  8
0
 10
-191.791
 11
-191.798
 20
202.728
 21
202.764
  0
LINE
  8
0
 10
-191.798
 11
-191.8
 20
202.764
 21
202.8
  0
LINE
  8
0
 10
-191.8
 11
-191.8
 20
202.8
 21
204.996
  0
LINE
  8
0
 10
-191.8
 11
-191.806
 20
204.996
 21
205.095
  0
LINE
  8
0
 10
-191.806
 11
-191.824
 20
205.095
 21
205.192
  0
LINE
  8
0
 10
-191.824
 11
-191.855
 20
205.192
 21
205.287
  0
LINE
  8
0
 10
-191.855
 11
-191.896
 20
205.287
 21
205.377
  0
LINE
  8
0
 10
-191.896
 11
-191.949
 20
205.377
 21
205.461
  0
LINE
  8
0
 10
-191.949
 11
-192.011
 20
205.461
 21
205.538
  0
LINE
  8
0
 10
-192.011
 11
-192.083
 20
205.538
 21
205.606
  0
LINE
  8
0
 10
-192.083
 11
-192.162
 20
205.606
 21
205.666
  0
LINE
  8
0
 10
-192.162
 11
-192.249
 20
205.666
 21
205.715
  0
LINE
  8
0
 10
-192.249
 11
-192.34
 20
205.715
 21
205.752
  0
LINE
  8
0
 10
-192.34
 11
-192.436
 20
205.752
 21
205.779
  0
LINE
  8
0
 10
-192.436
 11
-192.534
 20
205.779
 21
205.793
  0
LINE
  8
0
 10
-192.534
 11
-192.633
 20
205.793
 21
205.795
  0
LINE
  8
0
 10
-192.633
 11
-192.732
 20
205.795
 21
205.785
  0
LINE
  8
0
 10
-192.732
 11
-192.828
 20
205.785
 21
205.763
  0
LINE
  8
0
 10
-192.828
 11
-192.921
 20
205.763
 21
205.728
  0
LINE
  8
0
 10
-192.921
 11
-193.01
 20
205.728
 21
205.683
  0
LINE
  8
0
 10
-193.01
 11
-193.091
 20
205.683
 21
205.627
  0
LINE
  8
0
 10
-193.091
 11
-193.166
 20
205.627
 21
205.562
  0
LINE
  8
0
 10
-193.166
 11
-195.471
 20
205.562
 21
203.256
  0
LINE
  8
0
 10
-195.471
 11
-195.695
 20
203.256
 21
203.005
  0
LINE
  8
0
 10
-195.695
 11
-195.89
 20
203.005
 21
202.731
  0
LINE
  8
0
 10
-195.89
 11
-196.053
 20
202.731
 21
202.436
  0
LINE
  8
0
 10
-196.053
 11
-196.182
 20
202.436
 21
202.125
  0
LINE
  8
0
 10
-196.182
 11
-196.275
 20
202.125
 21
201.802
  0
LINE
  8
0
 10
-196.275
 11
-196.331
 20
201.802
 21
201.47
  0
LINE
  8
0
 10
-196.331
 11
-196.35
 20
201.47
 21
201.135
  0
LINE
  8
0
 10
-196.35
 11
-196.35
 20
201.135
 21
198.865
  0
LINE
  8
0
 10
-196.35
 11
-196.331
 20
198.865
 21
198.53
  0
LINE
  8
0
 10
-196.331
 11
-196.275
 20
198.53
 21
198.198
  0
LINE
  8
0
 10
-196.275
 11
-196.182
 20
198.198
 21
197.875
  0
LINE
  8
0
 10
-196.182
 11
-196.053
 20
197.875
 21
197.564
  0
LINE
  8
0
 10
-196.053
 11
-195.89
 20
197.564
 21
197.269
  0
LINE
  8
0
 10
-195.89
 11
-195.695
 20
197.269
 21
196.995
  0
LINE
  8
0
 10
-195.695
 11
-195.471
 20
196.995
 21
196.744
  0
LINE
  8
0
 10
-195.471
 11
-193.166
 20
196.744
 21
194.438
  0
LINE
  8
0
 10
-193.166
 11
-193.091
 20
194.438
 21
194.373
  0
LINE
  8
0
 10
-193.091
 11
-193.01
 20
194.373
 21
194.317
  0
LINE
  8
0
 10
-193.01
 11
-192.921
 20
194.317
 21
194.272
  0
LINE
  8
0
 10
-192.921
 11
-192.828
 20
194.272
 21
194.237
  0
LINE
  8
0
 10
-192.828
 11
-192.732
 20
194.237
 21
194.215
  0
LINE
  8
0
 10
-192.732
 11
-192.633
 20
194.215
 21
194.205
  0
LINE
  8
0
 10
-192.633
 11
-192.534
 20
194.205
 21
194.207
  0
LINE
  8
0
 10
-192.534
 11
-192.436
 20
194.207
 21
194.221
  0
LINE
  8
0
 10
-192.436
 11
-192.34
 20
194.221
 21
194.248
  0
LINE
  8
0
 10
-192.34
 11
-192.249
 20
194.248
 21
194.285
  0
LINE
  8
0
 10
-192.249
 11
-192.162
 20
194.285
 21
194.334
  0
LINE
  8
0
 10
-192.162
 11
-192.083
 20
194.334
 21
194.394
  0
LINE
  8
0
 10
-192.083
 11
-192.011
 20
194.394
 21
194.462
  0
LINE
  8
0
 10
-192.011
 11
-191.949
 20
194.462
 21
194.539
  0
LINE
  8
0
 10
-191.949
 11
-191.896
 20
194.539
 21
194.623
  0
LINE
  8
0
 10
-191.896
 11
-191.855
 20
194.623
 21
194.713
  0
LINE
  8
0
 10
-191.855
 11
-191.824
 20
194.713
 21
194.808
  0
LINE
  8
0
 10
-191.824
 11
-191.806
 20
194.808
 21
194.905
  0
LINE
  8
0
 10
-191.806
 11
-191.8
 20
194.905
 21
195.004
  0
LINE
  8
0
 10
-191.8
 11
-191.8
 20
195.004
 21
197.2
  0
LINE
  8
0
 10
-191.8
 11
-191.798
 20
197.2
 21
197.236
  0
LINE
  8
0
 10
-191.798
 11
-191.791
 20
197.236
 21
197.272
  0
LINE
  8
0
 10
-191.791
 11
-191.781
 20
197.272
 21
197.306
  0
LINE
  8
0
 10
-191.781
 11
-191.766
 20
197.306
 21
197.339
  0
LINE
  8
0
 10
-191.766
 11
-191.747
 20
197.339
 21
197.37
  0
LINE
  8
0
 10
-191.747
 11
-191.725
 20
197.37
 21
197.399
  0
LINE
  8
0
 10
-191.725
 11
-191.699
 20
197.399
 21
197.425
  0
LINE
  8
0
 10
-191.699
 11
-191.67
 20
197.425
 21
197.447
  0
LINE
  8
0
 10
-191.67
 11
-191.639
 20
197.447
 21
197.466
  0
LINE
  8
0
 10
-191.639
 11
-191.606
 20
197.466
 21
197.481
  0
LINE
  8
0
 10
-191.606
 11
-191.572
 20
197.481
 21
197.491
  0
LINE
  8
0
 10
-191.572
 11
-191.536
 20
197.491
 21
197.498
  0
LINE
  8
0
 10
-191.536
 11
-191.5
 20
197.498
 21
197.5
  0
LINE
  8
0
 10
-191.5
 11
-190.8
 20
197.5
 21
197.5
  0
LINE
  8
0
 10
-190.8
 11
-190.704
 20
197.5
 21
197.494
  0
LINE
  8
0
 10
-190.704
 11
-190.609
 20
197.494
 21
197.477
  0
LINE
  8
0
 10
-190.609
 11
-190.516
 20
197.477
 21
197.448
  0
LINE
  8
0
 10
-190.516
 11
-190.428
 20
197.448
 21
197.408
  0
LINE
  8
0
 10
-190.428
 11
-190.346
 20
197.408
 21
197.358
  0
LINE
  8
0
 10
-190.346
 11
-190.27
 20
197.358
 21
197.299
  0
LINE
  8
0
 10
-190.27
 11
-190.201
 20
197.299
 21
197.23
  0
LINE
  8
0
 10
-190.201
 11
-190.142
 20
197.23
 21
197.154
  0
LINE
  8
0
 10
-190.142
 11
-190.092
 20
197.154
 21
197.072
  0
LINE
  8
0
 10
-190.092
 11
-190.052
 20
197.072
 21
196.984
  0
LINE
  8
0
 10
-190.052
 11
-190.023
 20
196.984
 21
196.891
  0
LINE
  8
0
 10
-190.023
 11
-190.006
 20
196.891
 21
196.796
  0
LINE
  8
0
 10
-190.006
 11
-190
 20
196.796
 21
196.7
  0
LINE
  8
0
 10
-190
 11
-190
 20
196.7
 21
192
  0
LINE
  8
0
 10
-190
 11
-190.015
 20
192
 21
191.759
  0
LINE
  8
0
 10
-190.015
 11
-190.058
 20
191.759
 21
191.521
  0
LINE
  8
0
 10
-190.058
 11
-190.13
 20
191.521
 21
191.291
  0
LINE
  8
0
 10
-190.13
 11
-190.229
 20
191.291
 21
191.071
  0
LINE
  8
0
 10
-190.229
 11
-190.354
 20
191.071
 21
190.864
  0
LINE
  8
0
 10
-190.354
 11
-190.503
 20
190.864
 21
190.674
  0
LINE
  8
0
 10
-190.503
 11
-190.674
 20
190.674
 21
190.503
  0
LINE
  8
0
 10
-190.674
 11
-190.864
 20
190.503
 21
190.354
  0
LINE
  8
0
 10
-190.864
 11
-191.071
 20
190.354
 21
190.229
  0
LINE
  8
0
 10
-191.071
 11
-191.291
 20
190.229
 21
190.13
  0
LINE
  8
0
 10
-191.291
 11
-191.521
 20
190.13
 21
190.058
  0
LINE
  8
0
 10
-191.521
 11
-191.759
 20
190.058
 21
190.015
  0
LINE
  8
0
 10
-191.759
 11
-192
 20
190.015
 21
190
  0
LINE
  8
0
 10
-192
 11
-196.7
 20
190
 21
190
  0
LINE
  8
0
 10
-196.7
 11
-196.796
 20
190
 21
190.006
  0
LINE
  8
0
 10
-196.796
 11
-196.891
 20
190.006
 21
190.023
  0
LINE
  8
0
 10
-196.891
 11
-196.984
 20
190.023
 21
190.052
  0
LINE
  8
0
 10
-196.984
 11
-197.072
 20
190.052
 21
190.092
  0
LINE
  8
0
 10
-197.072
 11
-197.154
 20
190.092
 21
190.142
  0
LINE
  8
0
 10
-197.154
 11
-197.23
 20
190.142
 21
190.201
  0
LINE
  8
0
 10
-197.23
 11
-197.299
 20
190.201
 21
190.27
  0
LINE
  8
0
 10
-197.299
 11
-197.358
 20
190.27
 21
190.346
  0
LINE
  8
0
 10
-197.358
 11
-197.408
 20
190.346
 21
190.428
  0
LINE
  8
0
 10
-197.408
 11
-197.448
 20
190.428
 21
190.516
  0
LINE
  8
0
 10
-197.448
 11
-197.477
 20
190.516
 21
190.609
  0
LINE
  8
0
 10
-197.477
 11
-197.494
 20
190.609
 21
190.704
  0
LINE
  8
0
 10
-197.494
 11
-197.5
 20
190.704
 21
190.8
  0
LINE
  8
0
 10
-197.5
 11
-197.5
 20
190.8
 21
191.5
  0
LINE
  8
0
 10
-197.5
 11
-197.498
 20
191.5
 21
191.536
  0
LINE
  8
0
 10
-197.498
 11
-197.491
 20
191.536
 21
191.572
  0
LINE
  8
0
 10
-197.491
 11
-197.481
 20
191.572
 21
191.606
  0
LINE
  8
0
 10
-197.481
 11
-197.466
 20
191.606
 21
191.639
  0
LINE
  8
0
 10
-197.466
 11
-197.447
 20
191.639
 21
191.67
  0
LINE
  8
0
 10
-197.447
 11
-197.425
 20
191.67
 21
191.699
  0
LINE
  8
0
 10
-197.425
 11
-197.399
 20
191.699
 21
191.725
  0
LINE
  8
0
 10
-197.399
 11
-197.37
 20
191.725
 21
191.747
  0
LINE
  8
0
 10
-197.37
 11
-197.339
 20
191.747
 21
191.766
  0
LINE
  8
0
 10
-197.339
 11
-197.306
 20
191.766
 21
191.781
  0
LINE
  8
0
 10
-197.306
 11
-197.272
 20
191.781
 21
191.791
  0
LINE
  8
0
 10
-197.272
 11
-197.236
 20
191.791
 21
191.798
  0
LINE
  8
0
 10
-197.236
 11
-197.2
 20
191.798
 21
191.8
  0
LINE
  8
0
 10
-197.2
 11
-195.004
 20
191.8
 21
191.8
  0
LINE
  8
0
 10
-195.004
 11
-194.905
 20
191.8
 21
191.806
  0
LINE
  8
0
 10
-194.905
 11
-194.808
 20
191.806
 21
191.824
  0
LINE
  8
0
 10
-194.808
 11
-194.713
 20
191.824
 21
191.855
  0
LINE
  8
0
 10
-194.713
 11
-194.623
 20
191.855
 21
191.896
  0
LINE
  8
0
 10
-194.623
 11
-194.539
 20
191.896
 21
191.949
  0
LINE
  8
0
 10
-194.539
 11
-194.462
 20
191.949
 21
192.011
  0
LINE
  8
0
 10
-194.462
 11
-194.394
 20
192.011
 21
192.083
  0
LINE
  8
0
 10
-194.394
 11
-194.334
 20
192.083
 21
192.162
  0
LINE
  8
0
 10
-194.334
 11
-194.285
 20
192.162
 21
192.249
  0
LINE
  8
0
 10
-194.285
 11
-194.248
 20
192.249
 21
192.34
  0
LINE
  8
0
 10
-194.248
 11
-194.221
 20
192.34
 21
192.436
  0
LINE
  8
0
 10
-194.221
 11
-194.207
 20
192.436
 21
192.534
  0
LINE
  8
0
 10
-194.207
 11
-194.205
 20
192.534
 21
192.633
  0
LINE
  8
0
 10
-194.205
 11
-194.215
 20
192.633
 21
192.732
  0
LINE
  8
0
 10
-194.215
 11
-194.237
 20
192.732
 21
192.828
  0
LINE
  8
0
 10
-194.237
 11
-194.272
 20
192.828
 21
192.921
  0
LINE
  8
0
 10
-194.272
 11
-194.317
 20
192.921
 21
193.01
  0
LINE
  8
0
 10
-194.317
 11
-194.373
 20
193.01
 21
193.091
  0
LINE
  8
0
 10
-194.373
 11
-194.438
 20
193.091
 21
193.166
  0
LINE
  8
0
 10
-194.438
 11
-196.744
 20
193.166
 21
195.471
  0
LINE
  8
0
 10
-196.744
 11
-196.995
 20
195.471
 21
195.695
  0
LINE
  8
0
 10
-196.995
 11
-197.269
 20
195.695
 21
195.89
  0
LINE
  8
0
 10
-197.269
 11
-197.564
 20
195.89
 21
196.053
  0
LINE
  8
0
 10
-197.564
 11
-197.875
 20
196.053
 21
196.182
  0
LINE
  8
0
 10
-197.875
 11
-198.198
 20
196.182
 21
196.275
  0
LINE
  8
0
 10
-198.198
 11
-198.53
 20
196.275
 21
196.331
  0
LINE
  8
0
 10
-198.53
 11
-198.865
 20
196.331
 21
196.35
  0
LINE
  8
0
 10
-198.865
 11
-201.135
 20
196.35
 21
196.35
  0
LINE
  8
0
 10
-201.135
 11
-201.47
 20
196.35
 21
196.331
  0
LINE
  8
0
 10
-201.47
 11
-201.802
 20
196.331
 21
196.275
  0
LINE
  8
0
 10
-201.802
 11
-202.125
 20
196.275
 21
196.182
  0
LINE
  8
0
 10
-202.125
 11
-202.436
 20
196.182
 21
196.053
  0
LINE
  8
0
 10
-202.436
 11
-202.731
 20
196.053
 21
195.89
  0
LINE
  8
0
 10
-202.731
 11
-203.005
 20
195.89
 21
195.695
  0
LINE
  8
0
 10
-203.005
 11
-203.256
 20
195.695
 21
195.471
  0
LINE
  8
0
 10
-203.256
 11
-205.562
 20
195.471
 21
193.166
  0
LINE
  8
0
 10
-205.562
 11
-205.627
 20
193.166
 21
193.091
  0
LINE
  8
0
 10
-205.627
 11
-205.683
 20
193.091
 21
193.01
  0
LINE
  8
0
 10
-205.683
 11
-205.728
 20
193.01
 21
192.921
  0
LINE
  8
0
 10
-205.728
 11
-205.763
 20
192.921
 21
192.828
  0
LINE
  8
0
 10
-205.763
 11
-205.785
 20
192.828
 21
192.732
  0
LINE
  8
0
 10
-205.785
 11
-205.795
 20
192.732
 21
192.633
  0
LINE
  8
0
 10
-205.795
 11
-205.793
 20
192.633
 21
192.534
  0
LINE
  8
0
 10
-205.793
 11
-205.779
 20
192.534
 21
192.436
  0
LINE
  8
0
 10
-205.779
 11
-205.752
 20
192.436
 21
192.34
  0
LINE
  8
0
 10
-205.752
 11
-205.715
 20
192.34
 21
192.249
  0
LINE
  8
0
 10
-205.715
 11
-205.666
 20
192.249
 21
192.162
  0
LINE
  8
0
 10
-205.666
 11
-205.606
 20
192.162
 21
192.083
  0
LINE
  8
0
 10
-205.606
 11
-205.538
 20
192.083
 21
192.011
  0
LINE
  8
0
 10
-205.538
 11
-205.461
 20
192.011
 21
191.949
  0
LINE
  8
0
 10
-205.461
 11
-205.377
 20
191.949
 21
191.896
  0
LINE
  8
0
 10
-205.377
 11
-205.287
 20
191.896
 21
191.855
  0
LINE
  8
0
 10
-205.287
 11
-205.192
 20
191.855
 21
191.824
  0
LINE
  8
0
 10
-205.192
 11
-205.095
 20
191.824
 21
191.806
  0
LINE
  8
0
 10
-205.095
 11
-204.996
 20
191.806
 21
191.8
  0
LINE
  8
0
 10
-204.996
 11
-202.8
 20
191.8
 21
191.8
  0
LINE
  8
0
 10
-202.8
 11
-202.764
 20
191.8
 21
191.798
  0
LINE
  8
0
 10
-202.764
 11
-202.728
 20
191.798
 21
191.791
  0
LINE
  8
0
 10
-202.728
 11
-202.694
 20
191.791
 21
191.781
  0
LINE
  8
0
 10
-202.694
 11
-202.661
 20
191.781
 21
191.766
  0
LINE
  8
0
 10
-202.661
 11
-202.63
 20
191.766
 21
191.747
  0
LINE
  8
0
 10
-202.63
 11
-202.601
 20
191.747
 21
191.725
  0
LINE
  8
0
 10
-202.601
 11
-202.575
 20
191.725
 21
191.699
  0
LINE
  8
0
 10
-202.575
 11
-202.553
 20
191.699
 21
191.67
  0
LINE
  8
0
 10
-202.553
 11
-202.534
 20
191.67
 21
191.639
  0
LINE
  8
0
 10
-202.534
 11
-202.519
 20
191.639
 21
191.606
  0
LINE
  8
0
 10
-202.519
 11
-202.509
 20
191.606
 21
191.572
  0
LINE
  8
0
 10
-202.509
 11
-202.502
 20
191.572
 21
191.536
  0
LINE
  8
0
 10
-202.502
 11
-202.5
 20
191.536
 21
191.5
  0
LINE
  8
0
 10
-202.5
 11
-202.5
 20
191.5
 21
190.8
  0
LINE
  8
0
 10
-202.5
 11
-202.506
 20
190.8
 21
190.704
  0
LINE
  8
0
 10
-202.506
 11
-202.523
 20
190.704
 21
190.609
  0
LINE
  8
0
 10
-202.523
 11
-202.552
 20
190.609
 21
190.516
  0
LINE
  8
0
 10
-202.552
 11
-202.592
 20
190.516
 21
190.428
  0
LINE
  8
0
 10
-202.592
 11
-202.642
 20
190.428
 21
190.346
  0
LINE
  8
0
 10
-202.642
 11
-202.701
 20
190.346
 21
190.27
  0
LINE
  8
0
 10
-202.701
 11
-202.77
 20
190.27
 21
190.201
  0
LINE
  8
0
 10
-202.77
 11
-202.846
 20
190.201
 21
190.142
  0
LINE
  8
0
 10
-202.846
 11
-202.928
 20
190.142
 21
190.092
  0
LINE
  8
0
 10
-202.928
 11
-203.016
 20
190.092
 21
190.052
  0
LINE
  8
0
 10
-203.016
 11
-203.109
 20
190.052
 21
190.023
  0
LINE
  8
0
 10
-203.109
 11
-203.204
 20
190.023
 21
190.006
  0
LINE
  8
0
 10
-203.204
 11
-203.3
 20
190.006
 21
190
  0
LINE
  8
0
 10
-203.3
 11
-208
 20
190
 21
190
  0
LINE
  8
0
 10
-208
 11
-208.241
 20
190
 21
190.015
  0
LINE
  8
0
 10
-208.241
 11
-208.479
 20
190.015
 21
190.058
  0
LINE
  8
0
 10
-208.479
 11
-208.709
 20
190.058
 21
190.13
  0
LINE
  8
0
 10
-208.709
 11
-208.929
 20
190.13
 21
190.229
  0
LINE
  8
0
 10
-208.929
 11
-209.136
 20
190.229
 21
190.354
  0
LINE
  8
0
 10
-209.136
 11
-209.326
 20
190.354
 21
190.503
  0
LINE
  8
0
 10
-209.326
 11
-209.497
 20
190.503
 21
190.674
  0
LINE
  8
0
 10
-209.497
 11
-209.646
 20
190.674
 21
190.864
  0
LINE
  8
0
 10
-209.646
 11
-209.771
 20
190.864
 21
191.071
  0
LINE
  8
0
 10
-209.771
 11
-209.87
 20
191.071
 21
191.291
  0
LINE
  8
0
 10
-209.87
 11
-209.942
 20
191.291
 21
191.521
  0
LINE
  8
0
 10
-209.942
 11
-209.985
 20
191.521
 21
191.759
  0
LINE
  8
0
 10
-209.985
 11
-210
 20
191.759
 21
192
  0
LINE
  8
0
 10
-204
 11
-203.968
 20
0
 21
0.501
  0
LINE
  8
0
 10
-203.968
 11
-203.874
 20
0.501
 21
0.995
  0
LINE
  8
0
 10
-203.874
 11
-203.719
 20
0.995
 21
1.472
  0
LINE
  8
0
 10
-203.719
 11
-203.505
 20
1.472
 21
1.927
  0
LINE
  8
0
 10
-203.505
 11
-203.236
 20
1.927
 21
2.351
  0
LINE
  8
0
 10
-203.236
 11
-202.916
 20
2.351
 21
2.738
  0
LINE
  8
0
 10
-202.916
 11
-202.55
 20
2.738
 21
3.082
  0
LINE
  8
0
 10
-202.55
 11
-202.143
 20
3.082
 21
3.377
  0
LINE
  8
0
 10
-202.143
 11
-201.703
 20
3.377
 21
3.619
  0
LINE
  8
0
 10
-201.703
 11
-201.236
 20
3.619
 21
3.804
  0
LINE
  8
0
 10
-201.236
 11
-200.75
 20
3.804
 21
3.929
  0
LINE
  8
0
 10
-200.75
 11
-200.251
 20
3.929
 21
3.992
  0
LINE
  8
0
 10
-200.251
 11
-199.749
 20
3.992
 21
3.992
  0
LINE
  8
0
 10
-199.749
 11
-199.25
 20
3.992
 21
3.929
  0
LINE
  8
0
 10
-199.25
 11
-198.764
 20
3.929
 21
3.804
  0
LINE
  8
0
 10
-198.764
 11
-198.297
 20
3.804
 21
3.619
  0
LINE
  8
0
 10
-198.297
 11
-197.857
 20
3.619
 21
3.377
  0
LINE
  8
0
 10
-197.857
 11
-197.45
 20
3.377
 21
3.082
  0
LINE
  8
0
 10
-197.45
 11
-197.084
 20
3.082
 21
2.738
  0
LINE
  8
0
 10
-197.084
 11
-196.764
 20
2.738
 21
2.351
  0
LINE
  8
0
 10
-196.764
 11
-196.495
 20
2.351
 21
1.927
  0
LINE
  8
0
 10
-196.495
 11
-196.281
 20
1.927
 21
1.472
  0
LINE
  8
0
 10
-196.281
 11
-196.126
 20
1.472
 21
0.995
  0
LINE
  8
0
 10
-196.126
 11
-196.032
 20
0.995
 21
0.501
  0
LINE
  8
0
 10
-196.032
 11
-196
 20
0.501
 21
0
  0
LINE
  8
0
 10
-196
 11
-196.032
 20
0
 21
-0.501
  0
LINE
  8
0
 10
-196.032
 11
-196.126
 20
-0.501
 21
-0.995
  0
LINE
  8
0
 10
-196.126
 11
-196.281
 20
-0.995
 21
-1.472
  0
LINE
  8
0
 10
-196.281
 11
-196.495
 20
-1.472
 21
-1.927
  0
LINE
  8
0
 10
-196.495
 11
-196.764
 20
-1.927
 21
-2.351
  0
LINE
  8
0
 10
-196.764
 11
-197.084
 20
-2.351
 21
-2.738
  0
LINE
  8
0
 10
-197.084
 11
-197.45
 20
-2.738
 21
-3.082
  0
LINE
  8
0
 10
-197.45
 11
-197.857
 20
-3.082
 21
-3.377
  0
LINE
  8
0
 10
-197.857
 11
-198.297
 20
-3.377
 21
-3.619
  0
LINE
  8
0
 10
-198.297
 11
-198.764
 20
-3.619
 21
-3.804
  0
LINE
  8
0
 10
-198.764
 11
-199.25
 20
-3.804
 21
-3.929
  0
LINE
  8
0
 10
-199.25
 11
-199.749
 20
-3.929
 21
-3.992
  0
LINE
  8
0
 10
-199.749
 11
-200.251
 20
-3.992
 21
-3.992
  0
LINE
  8
0
 10
-200.251
 11
-200.75
 20
-3.992
 21
-3.929
  0
LINE
  8
0
 10
-200.75
 11
-201.236
 20
-3.929
 21
-3.804
  0
LINE
  8
0
 10
-201.236
 11
-201.703
 20
-3.804
 21
-3.619
  0
LINE
  8
0
 10
-201.703
 11
-202.143
 20
-3.619
 21
-3.377
  0
LINE
  8
0
 10
-202.143
 11
-202.55
 20
-3.377
 21
-3.082
  0
LINE
  8
0
 10
-202.55
 11
-202.916
 20
-3.082
 21
-2.738
  0
LINE
  8
0
 10
-202.916
 11
-203.236
 20
-2.738
 21
-2.351
  0
LINE
  8
0
 10
-203.236
 11
-203.505
 20
-2.351
 21
-1.927
  0
LINE
  8
0
 10
-203.505
 11
-203.719
 20
-1.927
 21
-1.472
  0
LINE
  8
0
 10
-203.719
 11
-203.874
 20
-1.472
 21
-0.995
  0
LINE
  8
0
 10
-203.874
 11
-203.968
 20
-0.995
 21
-0.501
  0
LINE
  8
0
 10
-203.968
 11
-204
 20
-0.501
 21
0
  0
LINE
  8
0
 10
-202.15
 11
-202.133
 20
-200
 21
-199.731
  0
LINE
  8
0
 10
-202.133
 11
-202.082
 20
-199.731
 21
-199.465
  0
LINE
  8
0
 10
-202.082
 11
-201.999
 20
-199.465
 21
-199.209
  0
LINE
  8
0
 10
-201.999
 11
-201.884
 20
-199.209
 21
-198.964
  0
LINE
  8
0
 10
-201.884
 11
-201.739
 20
-198.964
 21
-198.736
  0
LINE
  8
0
 10
-201.739
 11
-201.567
 20
-198.736
 21
-198.528
  0
LINE
  8
0
 10
-201.567
 11
-201.37
 20
-198.528
 21
-198.343
  0
LINE
  8
0
 10
-201.37
 11
-201.152
 20
-198.343
 21
-198.185
  0
LINE
  8
0
 10
-201.152
 11
-200.915
 20
-198.185
 21
-198.055
  0
LINE
  8
0
 10
-200.915
 11
-200.664
 20
-198.055
 21
-197.955
  0
LINE
  8
0
 10
-200.664
 11
-200.403
 20
-197.955
 21
-197.888
  0
LINE
  8
0
 10
-200.403
 11
-200.135
 20
-197.888
 21
-197.854
  0
LINE
  8
0
 10
-200.135
 11
-199.865
 20
-197.854
 21
-197.854
  0
LINE
  8
0
 10
-199.865
 11
-199.597
 20
-197.854
 21
-197.888
  0
LINE
  8
0
 10
-199.597
 11
-199.336
 20
-197.888
 21
-197.955
  0
LINE
  8
0
 10
-199.336
 11
-199.085
 20
-197.955
 21
-198.055
  0
LINE
  8
0
 10
-199.085
 11
-198.848
 20
-198.055
 21
-198.185
  0
LINE
  8
0
 10
-198.848
 11
-198.63
 20
-198.185
 21
-198.343
  0
LINE
  8
0
 10
-198.63
 11
-198.433
 20
-198.343
 21
-198.528
  0
LINE
  8
0
 10
-198.433
 11
-198.261
 20
-198.528
 21
-198.736
  0
LINE
  8
0
 10
-198.261
 11
-198.116
 20
-198.736
 21
-198.964
  0
LINE
  8
0
 10
-198.116
 11
-198.001
 20
-198.964
 21
-199.209
  0
LINE
  8
0
 10
-198.001
 11
-197.918
 20
-199.209
 21
-199.465
  0
LINE
  8
0
 10
-197.918
 11
-197.867
 20
-199.465
 21
-199.731
  0
LINE
  8
0
 10
-197.867
 11
-197.85
 20
-199.731
 21
-200
  0
LINE
  8
0
 10
-197.85
 11
-197.867
 20
-200
 21
-200.269
  0
LINE
  8
0
 10
-197.867
 11
-197.918
 20
-200.269
 21
-200.535
  0
LINE
  8
0
 10
-197.918
 11
-198.001
 20
-200.535
 21
-200.791
  0
LINE
  8
0
 10
-198.001
 11
-198.116
 20
-200.791
 21
-201.036
  0
LINE
  8
0
 10
-198.116
 11
-198.261
 20
-201.036
 21
-201.264
  0
LINE
  8
0
 10
-198.261
 11
-198.433
 20
-201.264
 21
-201.472
  0
LINE
  8
0
 10
-198.433
 11
-198.63
 20
-201.472
 21
-201.657
  0
LINE
  8
0
 10
-198.63
 11
-198.848
 20
-201.657
 21
-201.815
  0
LINE
  8
0
 10
-198.848
 11
-199.085
 20
-201.815
 21
-201.945
  0
LINE
  8
0
 10
-199.085
 11
-199.336
 20
-201.945
 21
-202.045
  0
LINE
  8
0
 10
-199.336
 11
-199.597
 20
-202.045
 21
-202.112
  0
LINE
  8
0
 10
-199.597
 11
-199.865
 20
-202.112
 21
-202.146
  0
LINE
  8
0
 10
-199.865
 11
-200.135
 20
-202.146
 21
-202.146
  0
LINE
  8
0
 10
-200.135
 11
-200.403
 20
-202.146
 21
-202.112
  0
LINE
  8
0
 10
-200.403
 11
-200.664
 20
-202.112
 21
-202.045
  0
LINE
  8
0
 10
-200.664
 11
-200.915
 20
-202.045
 21
-201.945
  0
LINE
  8
0
 10
-200.915
 11
-201.152
 20
-201.945
 21
-201.815
  0
LINE
  8
0
 10
-201.152
 11
-201.37
 20
-201.815
 21
-201.657
  0
LINE
  8
0
 10
-201.37
 11
-201.567
 20
-201.657
 21
-201.472
  0
LINE
  8
0
 10
-201.567
 11
-201.739
 20
-201.472
 21
-201.264
  0
LINE
  8
0
 10
-201.739
 11
-201.884
 20
-201.264
 21
-201.036
  0
LINE
  8
0
 10
-201.884
 11
-201.999
 20
-201.036
 21
-200.791
  0
LINE
  8
0
 10
-201.999
 11
-202.082
 20
-200.791
 21
-200.535
  0
LINE
  8
0
 10
-202.082
 11
-202.133
 20
-200.535
 21
-200.269
  0
LINE
  8
0
 10
-202.133
 11
-202.15
 20
-200.269
 21
-200
  0
LINE
  8
0
 10
-202.146
 11
-202.146
 20
199.865
 21
200.135
  0
LINE
  8
0
 10
-202.146
 11
-202.112
 20
200.135
 21
200.403
  0
LINE
  8
0
 10
-202.112
 11
-202.045
 20
200.403
 21
200.664
  0
LINE
  8
0
 10
-202.045
 11
-201.945
 20
200.664
 21
200.915
  0
LINE
  8
0
 10
-201.945
 11
-201.815
 20
200.915
 21
201.152
  0
LINE
  8
0
 10
-201.815
 11
-201.657
 20
201.152
 21
201.37
  0
LINE
  8
0
 10
-201.657
 11
-201.472
 20
201.37
 21
201.567
  0
LINE
  8
0
 10
-201.472
 11
-201.264
 20
201.567
 21
201.739
  0
LINE
  8
0
 10
-201.264
 11
-201.036
 20
201.739
 21
201.884
  0
LINE
  8
0
 10
-201.036
 11
-200.791
 20
201.884
 21
201.999
  0
LINE
  8
0
 10
-200.791
 11
-200.535
 20
201.999
 21
202.082
  0
LINE
  8
0
 10
-200.535
 11
-200.269
 20
202.082
 21
202.133
  0
LINE
  8
0
 10
-200.269
 11
-200
 20
202.133
 21
202.15
  0
LINE
  8
0
 10
-200
 11
-199.731
 20
202.15
 21
202.133
  0
LINE
  8
0
 10
-199.731
 11
-199.465
 20
202.133
 21
202.082
  0
LINE
  8
0
 10
-199.465
 11
-199.209
 20
202.082
 21
201.999
  0
LINE
  8
0
 10
-199.209
 11
-198.964
 20
201.999
 21
201.884
  0
LINE
  8
0
 10
-198.964
 11
-198.736
 20
201.884
 21
201.739
  0
LINE
  8
0
 10
-198.736
 11
-198.528
 20
201.739
 21
201.567
  0
LINE
  8
0
 10
-198.528
 11
-198.343
 20
201.567
 21
201.37
  0
LINE
  8
0
 10
-198.343
 11
-198.185
 20
201.37
 21
201.152
  0
LINE
  8
0
 10
-198.185
 11
-198.055
 20
201.152
 21
200.915
  0
LINE
  8
0
 10
-198.055
 11
-197.955
 20
200.915
 21
200.664
  0
LINE
  8
0
 10
-197.955
 11
-197.888
 20
200.664
 21
200.403
  0
LINE
  8
0
 10
-197.888
 11
-197.854
 20
200.403
 21
200.135
  0
LINE
  8
0
 10
-197.854
 11
-197.854
 20
200.135
 21
199.865
  0
LINE
  8
0
 10
-197.854
 11
-197.888
 20
199.865
 21
199.597
  0
LINE
  8
0
 10
-197.888
 11
-197.955
 20
199.597
 21
199.336
  0
LINE
  8
0
 10
-197.955
 11
-198.055
 20
199.336
 21
199.085
  0
LINE
  8
0
 10
-198.055
 11
-198.185
 20
199.085
 21
198.848
  0
LINE
  8
0
 10
-198.185
 11
-198.343
 20
198.848
 21
198.63
  0
LINE
  8
0
 10
-198.343
 11
-198.528
 20
198.63
 21
198.433
  0
LINE
  8
0
 10
-198.528
 11
-198.736
 20
198.433
 21
198.261
  0
LINE
  8
0
 10
-198.736
 11
-198.964
 20
198.261
 21
198.116
  0
LINE
  8
0
 10
-198.964
 11
-199.209
 20
198.116
 21
198.001
  0
LINE
  8
0
 10
-199.209
 11
-199.465
 20
198.001
 21
197.918
  0
LINE
  8
0
 10
-199.465
 11
-199.731
 20
197.918
 21
197.867
  0
LINE
  8
0
 10
-199.731
 11
-200
 20
197.867
 21
197.85
  0
LINE
  8
0
 10
-200
 11
-200.269
 20
197.85
 21
197.867
  0
LINE
  8
0
 10
-200.269
 11
-200.535
 20
197.867
 21
197.918
  0
LINE
  8
0
 10
-200.535
 11
-200.791
 20
197.918
 21
198.001
  0
LINE
  8
0
 10
-200.791
 11
-201.036
 20
198.001
 21
198.116
  0
LINE
  8
0
 10
-201.036
 11
-201.264
 20
198.116
 21
198.261
  0
LINE
  8
0
 10
-201.264
 11
-201.472
 20
198.261
 21
198.433
  0
LINE
  8
0
 10
-201.472
 11
-201.657
 20
198.433
 21
198.63
  0
LINE
  8
0
 10
-201.657
 11
-201.815
 20
198.63
 21
198.848
  0
LINE
  8
0
 10
-201.815
 11
-201.945
 20
198.848
 21
199.085
  0
LINE
  8
0
 10
-201.945
 11
-202.045
 20
199.085
 21
199.336
  0
LINE
  8
0
 10
-202.045
 11
-202.112
 20
199.336
 21
199.597
  0
LINE
  8
0
 10
-202.112
 11
-202.146
 20
199.597
 21
199.865
  0
LINE
  8
0
 10
-1.497
 11
-1.497
 20
-215.094
 21
-214.906
  0
LINE
  8
0
 10
-1.497
 11
-1.473
 20
-214.906
 21
-214.719
  0
LINE
  8
0
 10
-1.473
 11
-1.427
 20
-214.719
 21
-214.536
  0
LINE
  8
0
 10
-1.427
 11
-1.357
 20
-214.536
 21
-214.361
  0
LINE
  8
0
 10
-1.357
 11
-1.266
 20
-214.361
 21
-214.196
  0
LINE
  8
0
 10
-1.266
 11
-1.156
 20
-214.196
 21
-214.044
  0
LINE
  8
0
 10
-1.156
 11
-1.027
 20
-214.044
 21
-213.907
  0
LINE
  8
0
 10
-1.027
 11
-0.882
 20
-213.907
 21
-213.786
  0
LINE
  8
0
 10
-0.882
 11
-0.723
 20
-213.786
 21
-213.686
  0
LINE
  8
0
 10
-0.723
 11
-0.552
 20
-213.686
 21
-213.605
  0
LINE
  8
0
 10
-0.552
 11
-0.373
 20
-213.605
 21
-213.547
  0
LINE
  8
0
 10
-0.373
 11
-0.188
 20
-213.547
 21
-213.512
  0
LINE
  8
0
 10
-0.188
 11
0
 20
-213.512
 21
-213.5
  0
LINE
  8
0
 10
0
 11
0.188
 20
-213.5
 21
-213.512
  0
LINE
  8
0
 10
0.188
 11
0.373
 20
-213.512
 21
-213.547
  0
LINE
  8
0
 10
0.373
 11
0.552
 20
-213.547
 21
-213.605
  0
LINE
  8
0
 10
0.552
 11
0.723
 20
-213.605
 21
-213.686
  0
LINE
  8
0
 10
0.723
 11
0.882
 20
-213.686
 21
-213.786
  0
LINE
  8
0
 10
0.882
 11
1.027
 20
-213.786
 21
-213.907
  0
LINE
  8
0
 10
1.027
 11
1.156
 20
-213.907
 21
-214.044
  0
LINE
  8
0
 10
1.156
 11
1.266
 20
-214.044
 21
-214.196
  0
LINE
  8
0
 10
1.266
 11
1.357
 20
-214.196
 21
-214.361
  0
LINE
  8
0
 10
1.357
 11
1.427
 20
-214.361
 21
-214.536
  0
LINE
  8
0
 10
1.427
 11
1.473
 20
-214.536
 21
-214.719
  0
LINE
  8
0
 10
1.473
 11
1.497
 20
-214.719
 21
-214.906
  0
LINE
  8
0
 10
1.497
 11
1.497
 20
-214.906
 21
-215.094
  0
LINE
  8
0
 10
1.497
 11
1.473
 20
-215.094
 21
-215.281
  0
LINE
  8
0
 10
1.473
 11
1.427
 20
-215.281
 21
-215.464
  0
LINE
  8
0
 10
1.427
 11
1.357
 20
-215.464
 21
-215.639
  0
LINE
  8
0
 10
1.357
 11
1.266
 20
-215.639
 21
-215.804
  0
LINE
  8
0
 10
1.266
 11
1.156
 20
-215.804
 21
-215.956
  0
LINE
  8
0
 10
1.156
 11
1.027
 20
-215.956
 21
-216.093
  0
LINE
  8
0
 10
1.027
 11
0.882
 20
-216.093
 21
-216.214
  0
LINE
  8
0
 10
0.882
 11
0.723
 20
-216.214
 21
-216.314
  0
LINE
  8
0
 10
0.723
 11
0.552
 20
-216.314
 21
-216.395
  0
LINE
  8
0
 10
0.552
 11
0.373
 20
-216.395
 21
-216.453
  0
LINE
  8
0
 10
0.373
 11
0.188
 20
-216.453
 21
-216.488
  0
LINE
  8
0
 10
0.188
 11
0
 20
-216.488
 21
-216.5
  0
LINE
  8
0
 10
0
 11
-0.188
 20
-216.5
 21
-216.488
  0
LINE
  8
0
 10
-0.188
 11
-0.373
 20
-216.488
 21
-216.453
  0
LINE
  8
0
 10
-0.373
 11
-0.552
 20
-216.453
 21
-216.395
  0
LINE
  8
0
 10
-0.552
 11
-0.723
 20
-216.395
 21
-216.314
  0
LINE
  8
0
 10
-0.723
 11
-0.882
 20
-216.314
 21
-216.214
  0
LINE
  8
0
 10
-0.882
 11
-1.027
 20
-216.214
 21
-216.093
  0
LINE
  8
0
 10
-1.027
 11
-1.156
 20
-216.093
 21
-215.956
  0
LINE
  8
0
 10
-1.156
 11
-1.266
 20
-215.956
 21
-215.804
  0
LINE
  8
0
 10
-1.266
 11
-1.357
 20
-215.804
 21
-215.639
  0
LINE
  8
0
 10
-1.357
 11
-1.427
 20
-215.639
 21
-215.464
  0
LINE
  8
0
 10
-1.427
 11
-1.473
 20
-215.464
 21
-215.281
  0
LINE
  8
0
 10
-1.473
 11
-1.497
 20
-215.281
 21
-215.094
  0
LINE
  8
0
 10
-1.497
 11
-1.497
 20
214.906
 21
215.094
  0
LINE
  8
0
 10
-1.497
 11
-1.473
 20
215.094
 21
215.281
  0
LINE
  8
0
 10
-1.473
 11
-1.427
 20
215.281
 21
215.464
  0
LINE
  8
0
 10
-1.427
 11
-1.357
 20
215.464
 21
215.639
  0
LINE
  8
0
 10
-1.357
 11
-1.266
 20
215.639
 21
215.804
  0
LINE
  8
0
 10
-1.266
 11
-1.156
 20
215.804
 21
215.956
  0
LINE
  8
0
 10
-1.156
 11
-1.027
 20
215.956
 21
216.093
  0
LINE
  8
0
 10
-1.027
 11
-0.882
 20
216.093
 21
216.214
  0
LINE
  8
0
 10
-0.882
 11
-0.723
 20
216.214
 21
216.314
  0
LINE
  8
0
 10
-0.723
 11
-0.552
 20
216.314
 21
216.395
  0
LINE
  8
0
 10
-0.552
 11
-0.373
 20
216.395
 21
216.453
  0
LINE
  8
0
 10
-0.373
 11
-0.188
 20
216.453
 21
216.488
  0
LINE
  8
0
 10
-0.188
 11
0
 20
216.488
 21
216.5
  0
LINE
  8
0
 10
0
 11
0.188
 20
216.5
 21
216.488
  0
LINE
  8
0
 10
0.188
 11
0.373
 20
216.488
 21
216.453
  0
LINE
  8
0
 10
0.373
 11
0.552
 20
216.453
 21
216.395
  0
LINE
  8
0
 10
0.552
 11
0.723
 20
216.395
 21
216.314
  0
LINE
  8
0
 10
0.723
 11
0.882
 20
216.314
 21
216.214
  0
LINE
  8
0
 10
0.882
 11
1.027
 20
216.214
 21
216.093
  0
LINE
  8
0
 10
1.027
 11
1.156
 20
216.093
 21
215.956
  0
LINE
  8
0
 10
1.156
 11
1.266
 20
215.956
 21
215.804
  0
LINE
  8
0
 10
1.266
 11
1.357
 20
215.804
 21
215.639
  0
LINE
  8
0
 10
1.357
 11
1.427
 20
215.639
 21
215.464
  0
LINE
  8
0
 10
1.427
 11
1.473
 20
215.464
 21
215.281
  0
LINE
  8
0
 10
1.473
 11
1.497
 20
215.281
 21
215.094
  0
LINE
  8
0
 10
1.497
 11
1.497
 20
215.094
 21
214.906
  0
LINE
  8
0
 10
1.497
 11
1.473
 20
214.906
 21
214.719
  0
LINE
  8
0
 10
1.473
 11
1.427
 20
214.719
 21
214.536
  0
LINE
  8
0
 10
1.427
 11
1.357
 20
214.536
 21
214.361
  0
LINE
  8
0
 10
1.357
 11
1.266
 20
214.361
 21
214.196
  0
LINE
  8
0
 10
1.266
 11
1.156
 20
214.196
 21
214.044
  0
LINE
  8
0
 10
1.156
 11
1.027
 20
214.044
 21
213.907
  0
LINE
  8
0
 10
1.027
 11
0.882
 20
213.907
 21
213.786
  0
LINE
  8
0
 10
0.882
 11
0.723
 20
213.786
 21
213.686
  0
LINE
  8
0
 10
0.723
 11
0.552
 20
213.686
 21
213.605
  0
LINE
  8
0
 10
0.552
 11
0.373
 20
213.605
 21
213.547
  0
LINE
  8
0
 10
0.373
 11
0.188
 20
213.547
 21
213.512
  0
LINE
  8
0
 10
0.188
 11
0
 20
213.512
 21
213.5
  0
LINE
  8
0
 10
0
 11
-0.188
 20
213.5
 21
213.512
  0
LINE
  8
0
 10
-0.188
 11
-0.373
 20
213.512
 21
213.547
  0
LINE
  8
0
 10
-0.373
 11
-0.552
 20
213.547
 21
213.605
  0
LINE
  8
0
 10
-0.552
 11
-0.723
 20
213.605
 21
213.686
  0
LINE
  8
0
 10
-0.723
 11
-0.882
 20
213.686
 21
213.786
  0
LINE
  8
0
 10
-0.882
 11
-1.027
 20
213.786
 21
213.907
  0
LINE
  8
0
 10
-1.027
 11
-1.156
 20
213.907
 21
214.044
  0
LINE
  8
0
 10
-1.156
 11
-1.266
 20
214.044
 21
214.196
  0
LINE
  8
0
 10
-1.266
 11
-1.357
 20
214.196
 21
214.361
  0
LINE
  8
0
 10
-1.357
 11
-1.427
 20
214.361
 21
214.536
  0
LINE
  8
0
 10
-1.427
 11
-1.473
 20
214.536
 21
214.719
  0
LINE
  8
0
 10
-1.473
 11
-1.497
 20
214.719
 21
214.906
  0
LINE
  8
0
 10
190
 11
190
 20
-208
 21
-203.3
  0
LINE
  8
0
 10
190
 11
190.006
 20
-203.3
 21
-203.204
  0
LINE
  8
0
 10
190.006
 11
190.023
 20
-203.204
 21
-203.109
  0
LINE
  8
0
 10
190.023
 11
190.052
 20
-203.109
 21
-203.016
  0
LINE
  8
0
 10
190.052
 11
190.092
 20
-203.016
 21
-202.928
  0
LINE
  8
0
 10
190.092
 11
190.142
 20
-202.928
 21
-202.846
  0
LINE
  8
0
 10
190.142
 11
190.201
 20
-202.846
 21
-202.77
  0
LINE
  8
0
 10
190.201
 11
190.27
 20
-202.77
 21
-202.701
  0
LINE
  8
0
 10
190.27
 11
190.346
 20
-202.701
 21
-202.642
  0
LINE
  8
0
 10
190.346
 11
190.428
 20
-202.642
 21
-202.592
  0
LINE
  8
0
 10
190.428
 11
190.516
 20
-202.592
 21
-202.552
  0
LINE
  8
0
 10
190.516
 11
190.609
 20
-202.552
 21
-202.523
  0
LINE
  8
0
 10
190.609
 11
190.704
 20
-202.523
 21
-202.506
  0
LINE
  8
0
 10
190.704
 11
190.8
 20
-202.506
 21
-202.5
  0
LINE
  8
0
 10
190.8
 11
191.5
 20
-202.5
 21
-202.5
  0
LINE
  8
0
 10
191.5
 11
191.536
 20
-202.5
 21
-202.502
  0
LINE
  8
0
 10
191.536
 11
191.572
 20
-202.502
 21
-202.509
  0
LINE
  8
0
 10
191.572
 11
191.606
 20
-202.509
 21
-202.519
  0
LINE
  8
0
 10
191.606
 11
191.639
 20
-202.519
 21
-202.534
  0
LINE
  8
0
 10
191.639
 11
191.67
 20
-202.534
 21
-202.553
  0
LINE
  8
0
 10
191.67
 11
191.699
 20
-202.553
 21
-202.575
  0
LINE
  8
0
 10
191.699
 11
191.725
 20
-202.575
 21
-202.601
  0
LINE
  8
0
 10
191.725
 11
191.747
 20
-202.601
 21
-202.63
  0
LINE
  8
0
 10
191.747
 11
191.766
 20
-202.63
 21
-202.661
  0
LINE
  8
0
 10
191.766
 11
191.781
 20
-202.661
 21
-202.694
  0
LINE
  8
0
 10
191.781
 11
191.791
 20
-202.694
 21
-202.728
  0
LINE
  8
0
 10
191.791
 11
191.798
 20
-202.728
 21
-202.764
  0
LINE
  8
0
 10
191.798
 11
191.8
 20
-202.764
 21
-202.8
  0
LINE
  8
0
 10
191.8
 11
191.8
 20
-202.8
 21
-204.996
  0
LINE
  8
0
 10
191.8
 11
191.806
 20
-204.996
 21
-205.095
  0
LINE
  8
0
 10
191.806
 11
191.824
 20
-205.095
 21
-205.192
  0
LINE
  8
0
 10
191.824
 11
191.855
 20
-205.192
 21
-205.287
  0
LINE
  8
0
 10
191.855
 11
191.896
 20
-205.287
 21
-205.377
  0
LINE
  8
0
 10
191.896
 11
191.949
 20
-205.377
 21
-205.461
  0
LINE
  8
0
 10
191.949
 11
192.011
 20
-205.461
 21
-205.538
  0
LINE
  8
0
 10
192.011
 11
192.083
 20
-205.538
 21
-205.606
  0
LINE
  8
0
 10
192.083
 11
192.162
 20
-205.606
 21
-205.666
  0
LINE
  8
0
 10
192.162
 11
192.249
 20
-205.666
 21
-205.715
  0
LINE
  8
0
 10
192.249
 11
192.34
 20
-205.715
 21
-205.752
  0
LINE
  8
0
 10
192.34
 11
192.436
 20
-205.752
 21
-205.779
  0
LINE
  8
0
 10
192.436
 11
192.534
 20
-205.779
 21
-205.793
  0
LINE
  8
0
 10
192.534
 11
192.633
 20
-205.793
 21
-205.795
  0
LINE
  8
0
 10
192.633
 11
192.732
 20
-205.795
 21
-205.785
  0
LINE
  8
0
 10
192.732
 11
192.828
 20
-205.785
 21
-205.763
  0
LINE
  8
0
 10
192.828
 11
192.921
 20
-205.763
 21
-205.728
  0
LINE
  8
0
 10
192.921
 11
193.01
 20
-205.728
 21
-205.683
  0
LINE
  8
0
 10
193.01
 11
193.091
 20
-205.683
 21
-205.627
  0
LINE
  8
0
 10
193.091
 11
193.166
 20
-205.627
 21
-205.562
  0
LINE
  8
0
 10
193.166
 11
195.471
 20
-205.562
 21
-203.256
  0
LINE
  8
0
 10
195.471
 11
195.695
 20
-203.256
 21
-203.005
  0
LINE
  8
0
 10
195.695
 11
195.89
 20
-203.005
 21
-202.731
  0
LINE
  8
0
 10
195.89
 11
196.053
 20
-202.731
 21
-202.436
  0
LINE
  8
0
 10
196.053
 11
196.182
 20
-202.436
 21
-202.125
  0
LINE
  8
0
 10
196.182
 11
196.275
 20
-202.125
 21
-201.802
  0
LINE
  8
0
 10
196.275
 11
196.331
 20
-201.802
 21
-201.47
  0
LINE
  8
0
 10
196.331
 11
196.35
 20
-201.47
 21
-201.135
  0
LINE
  8
0
 10
196.35
 11
196.35
 20
-201.135
 21
-198.865
  0
LINE
  8
0
 10
196.35
 11
196.331
 20
-198.865
 21
-198.53
  0
LINE
  8
0
 10
196.331
 11
196.275
 20
-198.53
 21
-198.198
  0
LINE
  8
0
 10
196.275
 11
196.182
 20
-198.198
 21
-197.875
  0
LINE
  8
0
 10
196.182
 11
196.053
 20
-197.875
 21
-197.564
  0
LINE
  8
0
 10
196.053
 11
195.89
 20
-197.564
 21
-197.269
  0
LINE
  8
0
 10
195.89
 11
195.695
 20
-197.269
 21
-196.995
  0
LINE
  8
0
 10
195.695
 11
195.471
 20
-196.995
 21
-196.744
  0
LINE
  8
0
 10
195.471
 11
193.166
 20
-196.744
 21
-194.438
  0
LINE
  8
0
 10
193.166
 11
193.091
 20
-194.438
 21
-194.373
  0
LINE
  8
0
 10
193.091
 11
193.01
 20
-194.373
 21
-194.317
  0
LINE
  8
0
 10
193.01
 11
192.921
 20
-194.317
 21
-194.272
  0
LINE
  8
0
 10
192.921
 11
192.828
 20
-194.272
 21
-194.237
  0
LINE
  8
0
 10
192.828
 11
192.732
 20
-194.237
 21
-194.215
  0
LINE
  8
0
 10
192.732
 11
192.633
 20
-194.215
 21
-194.205
  0
LINE
  8
0
 10
192.633
 11
192.534
 20
-194.205
 21
-194.207
  0
LINE
  8
0
 10
192.534
 11
192.436
 20
-194.207
 21
-194.221
  0
LINE
  8
0
 10
192.436
 11
192.34
 20
-194.221
 21
-194.248
  0
LINE
  8
0
 10
192.34
 11
192.249
 20
-194.248
 21
-194.285
  0
LINE
  8
0
 10
192.249
 11
192.162
 20
-194.285
 21
-194.334
  0
LINE
  8
0
 10
192.162
 11
192.083
 20
-194.334
 21
-194.394
  0
LINE
  8
0
 10
192.083
 11
192.011
 20
-194.394
 21
-194.462
  0
LINE
  8
0
 10
192.011
 11
191.949
 20
-194.462
 21
-194.539
  0
LINE
  8
0
 10
191.949
 11
191.896
 20
-194.539
 21
-194.623
  0
LINE
  8
0
 10
191.896
 11
191.855
 20
-194.623
 21
-194.713
  0
LINE
  8
0
 10
191.855
 11
191.824
 20
-194.713
 21
-194.808
  0
LINE
  8
0
 10
191.824
 11
191.806
 20
-194.808
 21
-194.905
  0
LINE
  8
0
 10
191.806
 11
191.8
 20
-194.905
 21
-195.004
  0
LINE
  8
0
 10
191.8
 11
191.8
 20
-195.004
 21
-197.2
  0
LINE
  8
0
 10
191.8
 11
191.798
 20
-197.2
 21
-197.236
  0
LINE
  8
0
 10
191.798
 11
191.791
 20
-197.236
 21
-197.272
  0
LINE
  8
0
 10
191.791
 11
191.781
 20
-197.272
 21
-197.306
  0
LINE
  8
0
 10
191.781
 11
191.766
 20
-197.306
 21
-197.339
  0
LINE
  8
0
 10
191.766
 11
191.747
 20
-197.339
 21
-197.37
  0
LINE
  8
0
 10
191.747
 11
191.725
 20
-197.37
 21
-197.399
  0
LINE
  8
0
 10
191.725
 11
191.699
 20
-197.399
 21
-197.425
  0
LINE
  8
0
 10
191.699
 11
191.67
 20
-197.425
 21
-197.447
  0
LINE
  8
0
 10
191.67
 11
191.639
 20
-197.447
 21
-197.466
  0
LINE
  8
0
 10
191.639
 11
191.606
 20
-197.466
 21
-197.481
  0
LINE
  8
0
 10
191.606
 11
191.572
 20
-197.481
 21
-197.491
  0
LINE
  8
0
 10
191.572
 11
191.536
 20
-197.491
 21
-197.498
  0
LINE
  8
0
 10
191.536
 11
191.5
 20
-197.498
 21
-197.5
  0
LINE
  8
0
 10
191.5
 11
190.8
 20
-197.5
 21
-197.5
  0
LINE
  8
0
 10
190.8
 11
190.704
 20
-197.5
 21
-197.494
  0
LINE
  8
0
 10
190.704
 11
190.609
 20
-197.494
 21
-197.477
  0
LINE
  8
0
 10
190.609
 11
190.516
 20
-197.477
 21
-197.448
  0
LINE
  8
0
 10
190.516
 11
190.428
 20
-197.448
 21
-197.408
  0
LINE
  8
0
 10
190.428
 11
190.346
 20
-197.408
 21
-197.358
  0
LINE
  8
0
 10
190.346
 11
190.27
 20
-197.358
 21
-197.299
  0
LINE
  8
0
 10
190.27
 11
190.201
 20
-197.299
 21
-197.23
  0
LINE
  8
0
 10
190.201
 11
190.142
 20
-197.23
 21
-197.154
  0
LINE
  8
0
 10
190.142
 11
190.092
 20
-197.154
 21
-197.072
  0
LINE
  8
0
 10
190.092
 11
190.052
 20
-197.072
 21
-196.984
  0
LINE
  8
0
 10
190.052
 11
190.023
 20
-196.984
 21
-196.891
  0
LINE
  8
0
 10
190.023
 11
190.006
 20
-196.891
 21
-196.796
  0
LINE
  8
0
 10
190.006
 11
190
 20
-196.796
 21
-196.7
  0
LINE
  8
0
 10
190
 11
190
 20
-196.7
 21
-192
  0
LINE
  8
0
 10
190
 11
190.015
 20
-192
 21
-191.759
  0
LINE
  8
0
 10
190.015
 11
190.058
 20
-191.759
 21
-191.521
  0
LINE
  8
0
 10
190.058
 11
190.13
 20
-191.521
 21
-191.291
  0
LINE
  8
0
 10
190.13
 11
190.229
 20
-191.291
 21
-191.071
  0
LINE
  8
0
 10
190.229
 11
190.354
 20
-191.071
 21
-190.864
  0
LINE
  8
0
 10
190.354
 11
190.503
 20
-190.864
 21
-190.674
  0
LINE
  8
0
 10
190.503
 11
190.674
 20
-190.674
 21
-190.503
  0
LINE
  8
0
 10
190.674
 11
190.864
 20
-190.503
 21
-190.354
  0
LINE
  8
0
 10
190.864
 11
191.071
 20
-190.354
 21
-190.229
  0
LINE
  8
0
 10
191.071
 11
191.291
 20
-190.229
 21
-190.13
  0
LINE
  8
0
 10
191.291
 11
191.521
 20
-190.13
 21
-190.058
  0
LINE
  8
0
 10
191.521
 11
191.759
 20
-190.058
 21
-190.015
  0
LINE
  8
0
 10
191.759
 11
192
 20
-190.015
 21
-190
  0
LINE
  8
0
 10
192
 11
196.7
 20
-190
 21
-190
  0
LINE
  8
0
 10
196.7
 11
196.796
 20
-190
 21
-190.006
  0
LINE
  8
0
 10
196.796
 11
196.891
 20
-190.006
 21
-190.023
  0
LINE
  8
0
 10
196.891
 11
196.984
 20
-190.023
 21
-190.052
  0
LINE
  8
0
 10
196.984
 11
197.072
 20
-190.052
 21
-190.092
  0
LINE
  8
0
 10
197.072
 11
197.154
 20
-190.092
 21
-190.142
  0
LINE
  8
0
 10
197.154
 11
197.23
 20
-190.142
 21
-190.201
  0
LINE
  8
0
 10
197.23
 11
197.299
 20
-190.201
 21
-190.27
  0
LINE
  8
0
 10
197.299
 11
197.358
 20
-190.27
 21
-190.346
  0
LINE
  8
0
 10
197.358
 11
197.408
 20
-190.346
 21
-190.428
  0
LINE
  8
0
 10
197.408
 11
197.448
 20
-190.428
 21
-190.516
  0
LINE
  8
0
 10
197.448
 11
197.477
 20
-190.516
 21
-190.609
  0
LINE
  8
0
 10
197.477
 11
197.494
 20
-190.609
 21
-190.704
  0
LINE
  8
0
 10
197.494
 11
197.5
 20
-190.704
 21
-190.8
  0
LINE
  8
0
 10
197.5
 11
197.5
 20
-190.8
 21
-191.5
  0
LINE
  8
0
 10
197.5
 11
197.498
 20
-191.5
 21
-191.536
  0
LINE
  8
0
 10
197.498
 11
197.491
 20
-191.536
 21
-191.572
  0
LINE
  8
0
 10
197.491
 11
197.481
 20
-191.572
 21
-191.606
  0
LINE
  8
0
 10
197.481
 11
197.466
 20
-191.606
 21
-191.639
  0
LINE
  8
0
 10
197.466
 11
197.447
 20
-191.639
 21
-191.67
  0
LINE
  8
0
 10
197.447
 11
197.425
 20
-191.67
 21
-191.699
  0
LINE
  8
0
 10
197.425
 11
197.399
 20
-191.699
 21
-191.725
  0
LINE
  8
0
 10
197.399
 11
197.37
 20
-191.725
 21
-191.747
  0
LINE
  8
0
 10
197.37
 11
197.339
 20
-191.747
 21
-191.766
  0
LINE
  8
0
 10
197.339
 11
197.306
 20
-191.766
 21
-191.781
  0
LINE
  8
0
 10
197.306
 11
197.272
 20
-191.781
 21
-191.791
  0
LINE
  8
0
 10
197.272
 11
197.236
 20
-191.791
 21
-191.798
  0
LINE
  8
0
 10
197.236
 11
197.2
 20
-191.798
 21
-191.8
  0
LINE
  8
0
 10
197.2
 11
195.004
 20
-191.8
 21
-191.8
  0
LINE
  8
0
 10
195.004
 11
194.905
 20
-191.8
 21
-191.806
  0
LINE
  8
0
 10
194.905
 11
194.808
 20
-191.806
 21
-191.824
  0
LINE
  8
0
 10
194.808
 11
194.713
 20
-191.824
 21
-191.855
  0
LINE
  8
0
 10
194.713
 11
194.623
 20
-191.855
 21
-191.896
  0
LINE
  8
0
 10
194.623
 11
194.539
 20
-191.896
 21
-191.949
  0
LINE
  8
0
 10
194.539
 11
194.462
 20
-191.949
 21
-192.011
  0
LINE
  8
0
 10
194.462
 11
194.394
 20
-192.011
 21
-192.083
  0
LINE
  8
0
 10
194.394
 11
194.334
 20
-192.083
 21
-192.162
  0
LINE
  8
0
 10
194.334
 11
194.285
 20
-192.162
 21
-192.249
  0
LINE
  8
0
 10
194.285
 11
194.248
 20
-192.249
 21
-192.34
  0
LINE
  8
0
 10
194.248
 11
194.221
 20
-192.34
 21
-192.436
  0
LINE
  8
0
 10
194.221
 11
194.207
 20
-192.436
 21
-192.534
  0
LINE
  8
0
 10
194.207
 11
194.205
 20
-192.534
 21
-192.633
  0
LINE
  8
0
 10
194.205
 11
194.215
 20
-192.633
 21
-192.732
  0
LINE
  8
0
 10
194.215
 11
194.237
 20
-192.732
 21
-192.828
  0
LINE
  8
0
 10
194.237
 11
194.272
 20
-192.828
 21
-192.921
  0
LINE
  8
0
 10
194.272
 11
194.317
 20
-192.921
 21
-193.01
  0
LINE
  8
0
 10
194.317
 11
194.373
 20
-193.01
 21
-193.091
  0
LINE
  8
0
 10
194.373
 11
194.438
 20
-193.091
 21
-193.166
  0
LINE
  8
0
 10
194.438
 11
196.744
 20
-193.166
 21
-195.471
  0
LINE
  8
0
 10
196.744
 11
196.995
 20
-195.471
 21
-195.695
  0
LINE
  8
0
 10
196.995
 11
197.269
 20
-195.695
 21
-195.89
  0
LINE
  8
0
 10
197.269
 11
197.564
 20
-195.89
 21
-196.053
  0
LINE
  8
0
 10
197.564
 11
197.875
 20
-196.053
 21
-196.182
  0
LINE
  8
0
 10
197.875
 11
198.198
 20
-196.182
 21
-196.275
  0
LINE
  8
0
 10
198.198
 11
198.53
 20
-196.275
 21
-196.331
  0
LINE
  8
0
 10
198.53
 11
198.865
 20
-196.331
 21
-196.35
  0
LINE
  8
0
 10
198.865
 11
201.135
 20
-196.35
 21
-196.35
  0
LINE
  8
0
 10
201.135
 11
201.47
 20
-196.35
 21
-196.331
  0
LINE
  8
0
 10
201.47
 11
201.802
 20
-196.331
 21
-196.275
  0
LINE
  8
0
 10
201.802
 11
202.125
 20
-196.275
 21
-196.182
  0
LINE
  8
0
 10
202.125
 11
202.436
 20
-196.182
 21
-196.053
  0
LINE
  8
0
 10
202.436
 11
202.731
 20
-196.053
 21
-195.89
  0
LINE
  8
0
 10
202.731
 11
203.005
 20
-195.89
 21
-195.695
  0
LINE
  8
0
 10
203.005
 11
203.256
 20
-195.695
 21
-195.471
  0
LINE
  8
0
 10
203.256
 11
205.562
 20
-195.471
 21
-193.166
  0
LINE
  8
0
 10
205.562
 11
205.627
 20
-193.166
 21
-193.091
  0
LINE
  8
0
 10
205.627
 11
205.683
 20
-193.091
 21
-193.01
  0
LINE
  8
0
 10
205.683
 11
205.728
 20
-193.01
 21
-192.921
  0
LINE
  8
0
 10
205.728
 11
205.763
 20
-192.921
 21
-192.828
  0
LINE
  8
0
 10
205.763
 11
205.785
 20
-192.828
 21
-192.732
  0
LINE
  8
0
 10
205.785
 11
205.795
 20
-192.732
 21
-192.633
  0
LINE
  8
0
 10
205.795
 11
205.793
 20
-192.633
 21
-192.534
  0
LINE
  8
0
 10
205.793
 11
205.779
 20
-192.534
 21
-192.436
  0
LINE
  8
0
 10
205.779
 11
205.752
 20
-192.436
 21
-192.34
  0
LINE
  8
0
 10
205.752
 11
205.715
 20
-192.34
 21
-192.249
  0
LINE
  8
0
 10
205.715
 11
205.666
 20
-192.249
 21
-192.162
  0
LINE
  8
0
 10
205.666
 11
205.606
 20
-192.162
 21
-192.083
  0
LINE
  8
0
 10
205.606
 11
205.538
 20
-192.083
 21
-192.011
  0
LINE
  8
0
 10
205.538
 11
205.461
 20
-192.011
 21
-191.949
  0
LINE
  8
0
 10
205.461
 11
205.377
 20
-191.949
 21
-191.896
  0
LINE
  8
0
 10
205.377
 11
205.287
 20
-191.896
 21
-191.855
  0
LINE
  8
0
 10
205.287
 11
205.192
 20
-191.855
 21
-191.824
  0
LINE
  8
0
 10
205.192
 11
205.095
 20
-191.824
 21
-191.806
  0
LINE
  8
0
 10
205.095
 11
204.996
 20
-191.806
 21
-191.8
  0
LINE
  8
0
 10
204.996
 11
202.8
 20
-191.8
 21
-191.8
  0
LINE
  8
0
 10
202.8
 11
202.764
 20
-191.8
 21
-191.798
  0
LINE
  8
0
 10
202.764
 11
202.728
 20
-191.798
 21
-191.791
  0
LINE
  8
0
 10
202.728
 11
202.694
 20
-191.791
 21
-191.781
  0
LINE
  8
0
 10
202.694
 11
202.661
 20
-191.781
 21
-191.766
  0
LINE
  8
0
 10
202.661
 11
202.63
 20
-191.766
 21
-191.747
  0
LINE
  8
0
 10
202.63
 11
202.601
 20
-191.747
 21
-191.725
  0
LINE
  8
0
 10
202.601
 11
202.575
 20
-191.725
 21
-191.699
  0
LINE
  8
0
 10
202.575
 11
202.553
 20
-191.699
 21
-191.67
  0
LINE
  8
0
 10
202.553
 11
202.534
 20
-191.67
 21
-191.639
  0
LINE
  8
0
 10
202.534
 11
202.519
 20
-191.639
 21
-191.606
  0
LINE
  8
0
 10
202.519
 11
202.509
 20
-191.606
 21
-191.572
  0
LINE
  8
0
 10
202.509
 11
202.502
 20
-191.572
 21
-191.536
  0
LINE
  8
0
 10
202.502
 11
202.5
 20
-191.536
 21
-191.5
  0
LINE
  8
0
 10
202.5
 11
202.5
 20
-191.5
 21
-190.8
  0
LINE
  8
0
 10
202.5
 11
202.506
 20
-190.8
 21
-190.704
  0
LINE
  8
0
 10
202.506
 11
202.523
 20
-190.704
 21
-190.609
  0
LINE
  8
0
 10
202.523
 11
202.552
 20
-190.609
 21
-190.516
  0
LINE
  8
0
 10
202.552
 11
202.592
 20
-190.516
 21
-190.428
  0
LINE
  8
0
 10
202.592
 11
202.642
 20
-190.428
 21
-190.346
  0
LINE
  8
0
 10
202.642
 11
202.701
 20
-190.346
 21
-190.27
  0
LINE
  8
0
 10
202.701
 11
202.77
 20
-190.27
 21
-190.201
  0
LINE
  8
0
 10
202.77
 11
202.846
 20
-190.201
 21
-190.142
  0
LINE
  8
0
 10
202.846
 11
202.928
 20
-190.142
 21
-190.092
  0
LINE
  8
0
 10
202.928
 11
203.016
 20
-190.092
 21
-190.052
  0
LINE
  8
0
 10
203.016
 11
203.109
 20
-190.052
 21
-190.023
  0
LINE
  8
0
 10
203.109
 11
203.204
 20
-190.023
 21
-190.006
  0
LINE
  8
0
 10
203.204
 11
203.3
 20
-190.006
 21
-190
  0
LINE
  8
0
 10
203.3
 11
208
 20
-190
 21
-190
  0
LINE
  8
0
 10
208
 11
208.241
 20
-190
 21
-190.015
  0
LINE
  8
0
 10
208.241
 11
208.479
 20
-190.015
 21
-190.058
  0
LINE
  8
0
 10
208.479
 11
208.709
 20
-190.058
 21
-190.13
  0
LINE
  8
0
 10
208.709
 11
208.929
 20
-190.13
 21
-190.229
  0
LINE
  8
0
 10
208.929
 11
209.136
 20
-190.229
 21
-190.354
  0
LINE
  8
0
 10
209.136
 11
209.326
 20
-190.354
 21
-190.503
  0
LINE
  8
0
 10
209.326
 11
209.497
 20
-190.503
 21
-190.674
  0
LINE
  8
0
 10
209.497
 11
209.646
 20
-190.674
 21
-190.864
  0
LINE
  8
0
 10
209.646
 11
209.771
 20
-190.864
 21
-191.071
  0
LINE
  8
0
 10
209.771
 11
209.87
 20
-191.071
 21
-191.291
  0
LINE
  8
0
 10
209.87
 11
209.942
 20
-191.291
 21
-191.521
  0
LINE
  8
0
 10
209.942
 11
209.985
 20
-191.521
 21
-191.759
  0
LINE
  8
0
 10
209.985
 11
210
 20
-191.759
 21
-192
  0
LINE
  8
0
 10
210
 11
210
 20
-192
 21
-196.7
  0
LINE
  8
0
 10
210
 11
209.994
 20
-196.7
 21
-196.796
  0
LINE
  8
0
 10
209.994
 11
209.977
 20
-196.796
 21
-196.891
  0
LINE
  8
0
 10
209.977
 11
209.948
 20
-196.891
 21
-196.984
  0
LINE
  8
0
 10
209.948
 11
209.908
 20
-196.984
 21
-197.072
  0
LINE
  8
0
 10
209.908
 11
209.858
 20
-197.072
 21
-197.154
  0
LINE
  8
0
 10
209.858
 11
209.799
 20
-197.154
 21
-197.23
  0
LINE
  8
0
 10
209.799
 11
209.73
 20
-197.23
 21
-197.299
  0
LINE
  8
0
 10
209.73
 11
209.654
 20
-197.299
 21
-197.358
  0
LINE
  8
0
 10
209.654
 11
209.572
 20
-197.358
 21
-197.408
  0
LINE
  8
0
 10
209.572
 11
209.484
 20
-197.408
 21
-197.448
  0
LINE
  8
0
 10
209.484
 11
209.391
 20
-197.448
 21
-197.477
  0
LINE
  8
0
 10
209.391
 11
209.296
 20
-197.477
 21
-197.494
  0
LINE
  8
0
 10
209.296
 11
209.2
 20
-197.494
 21
-197.5
  0
LINE
  8
0
 10
209.2
 11
208.5
 20
-197.5
 21
-197.5
  0
LINE
  8
0
 10
208.5
 11
208.464
 20
-197.5
 21
-197.498
  0
LINE
  8
0
 10
208.464
 11
208.428
 20
-197.498
 21
-197.491
  0
LINE
  8
0
 10
208.428
 11
208.394
 20
-197.491
 21
-197.481
  0
LINE
  8
0
 10
208.394
 11
208.361
 20
-197.481
 21
-197.466
  0
LINE
  8
0
 10
208.361
 11
208.33
 20
-197.466
 21
-197.447
  0
LINE
  8
0
 10
208.33
 11
208.301
 20
-197.447
 21
-197.425
  0
LINE
  8
0
 10
208.301
 11
208.275
 20
-197.425
 21
-197.399
  0
LINE
  8
0
 10
208.275
 11
208.253
 20
-197.399
 21
-197.37
  0
LINE
  8
0
 10
208.253
 11
208.234
 20
-197.37
 21
-197.339
  0
LINE
  8
0
 10
208.234
 11
208.219
 20
-197.339
 21
-197.306
  0
LINE
  8
0
 10
208.219
 11
208.209
 20
-197.306
 21
-197.272
  0
LINE
  8
0
 10
208.209
 11
208.202
 20
-197.272
 21
-197.236
  0
LINE
  8
0
 10
208.202
 11
208.2
 20
-197.236
 21
-197.2
  0
LINE
  8
0
 10
208.2
 11
208.2
 20
-197.2
 21
-195.004
  0
LINE
  8
0
 10
208.2
 11
208.194
 20
-195.004
 21
-194.905
  0
LINE
  8
0
 10
208.194
 11
208.176
 20
-194.905
 21
-194.808
  0
LINE
  8
0
 10
208.176
 11
208.145
 20
-194.808
 21
-194.713
  0
LINE
  8
0
 10
208.145
 11
208.104
 20
-194.713
 21
-194.623
  0
LINE
  8
0
 10
208.104
 11
208.051
 20
-194.623
 21
-194.539
  0
LINE
  8
0
 10
208.051
 11
207.989
 20
-194.539
 21
-194.462
  0
LINE
  8
0
 10
207.989
 11
207.917
 20
-194.462
 21
-194.394
  0
LINE
  8
0
 10
207.917
 11
207.838
 20
-194.394
 21
-194.334
  0
LINE
  8
0
 10
207.838
 11
207.751
 20
-194.334
 21
-194.285
  0
LINE
  8
0
 10
207.751
 11
207.66
 20
-194.285
 21
-194.248
  0
LINE
  8
0
 10
207.66
 11
207.564
 20
-194.248
 21
-194.221
  0
LINE
  8
0
 10
207.564
 11
207.466
 20
-194.221
 21
-194.207
  0
LINE
  8
0
 10
207.466
 11
207.367
 20
-194.207
 21
-194.205
  0
LINE
  8
0
 10
207.367
 11
207.268
 20
-194.205
 21
-194.215
  0
LINE
  8
0
 10
207.268
 11
207.172
 20
-194.215
 21
-194.237
  0
LINE
  8
0
 10
207.172
 11
207.079
 20
-194.237
 21
-194.272
  0
LINE
  8
0
 10
207.079
 11
206.99
 20
-194.272
 21
-194.317
  0
LINE
  8
0
 10
206.99
 11
206.909
 20
-194.317
 21
-194.373
  0
LINE
  8
0
 10
206.909
 11
206.834
 20
-194.373
 21
-194.438
  0
LINE
  8
0
 10
206.834
 11
204.529
 20
-194.438
 21
-196.744
  0
LINE
  8
0
 10
204.529
 11
204.305
 20
-196.744
 21
-196.995
  0
LINE
  8
0
 10
204.305
 11
204.11
 20
-196.995
 21
-197.269
  0
LINE
  8
0
 10
204.11
 11
203.947
 20
-197.269
 21
-197.564
  0
LINE
  8
0
 10
203.947
 11
203.818
 20
-197.564
 21
-197.875
  0
LINE
  8
0
 10
203.818
 11
203.725
 20
-197.875
 21
-198.198
  0
LINE
  8
0
 10
203.725
 11
203.669
 20
-198.198
 21
-198.53
  0
LINE
  8
0
 10
203.669
 11
203.65
 20
-198.53
 21
-198.865
  0
LINE
  8
0
 10
203.65
 11
203.65
 20
-198.865
 21
-201.135
  0
LINE
  8
0
 10
203.65
 11
203.669
 20
-201.135
 21
-201.47
  0
LINE
  8
0
 10
203.669
 11
203.725
 20
-201.47
 21
-201.802
  0
LINE
  8
0
 10
203.725
 11
203.818
 20
-201.802
 21
-202.125
  0
LINE
  8
0
 10
203.818
 11
203.947
 20
-202.125
 21
-202.436
  0
LINE
  8
0
 10
203.947
 11
204.11
 20
-202.436
 21
-202.731
  0
LINE
  8
0
 10
204.11
 11
204.305
 20
-202.731
 21
-203.005
  0
LINE
  8
0
 10
204.305
 11
204.529
 20
-203.005
 21
-203.256
  0
LINE
  8
0
 10
204.529
 11
206.834
 20
-203.256
 21
-205.562
  0
LINE
  8
0
 10
206.834
 11
206.909
 20
-205.562
 21
-205.627
  0
LINE
  8
0
 10
206.909
 11
206.99
 20
-205.627
 21
-205.683
  0
LINE
  8
0
 10
206.99
 11
207.079
 20
-205.683
 21
-205.728
  0
LINE
  8
0
 10
207.079
 11
207.172
 20
-205.728
 21
-205.763
  0
LINE
  8
0
 10
207.172
 11
207.268
 20
-205.763
 21
-205.785
  0
LINE
  8
0
 10
207.268
 11
207.367
 20
-205.785
 21
-205.795
  0
LINE
  8
0
 10
207.367
 11
207.466
 20
-205.795
 21
-205.793
  0
LINE
  8
0
 10
207.466
 11
207.564
 20
-205.793
 21
-205.779
  0
LINE
  8
0
 10
207.564
 11
207.66
 20
-205.779
 21
-205.752
  0
LINE
  8
0
 10
207.66
 11
207.751
 20
-205.752
 21
-205.715
  0
LINE
  8
0
 10
207.751
 11
207.838
 20
-205.715
 21
-205.666
  0
LINE
  8
0
 10
207.838
 11
207.917
 20
-205.666
 21
-205.606
  0
LINE
  8
0
 10
207.917
 11
207.989
 20
-205.606
 21
-205.538
  0
LINE
  8
0
 10
207.989
 11
208.051
 20
-205.538
 21
-205.461
  0
LINE
  8
0
 10
208.051
 11
208.104
 20
-205.461
 21
-205.377
  0
LINE
  8
0
 10
208.104
 11
208.145
 20
-205.377
 21
-205.287
  0
LINE
  8
0
 10
208.145
 11
208.176
 20
-205.287
 21
-205.192
  0
LINE
  8
0
 10
208.176
 11
208.194
 20
-205.192
 21
-205.095
  0
LINE
  8
0
 10
208.194
 11
208.2
 20
-205.095
 21
-204.996
  0
LINE
  8
0
 10
208.2
 11
208.2
 20
-204.996
 21
-202.8
  0
LINE
  8
0
 10
208.2
 11
208.202
 20
-202.8
 21
-202.764
  0
LINE
  8
0
 10
208.202
 11
208.209
 20
-202.764
 21
-202.728
  0
LINE
  8
0
 10
208.209
 11
208.219
 20
-202.728
 21
-202.694
  0
LINE
  8
0
 10
208.219
 11
208.234
 20
-202.694
 21
-202.661
  0
LINE
  8
0
 10
208.234
 11
208.253
 20
-202.661
 21
-202.63
  0
LINE
  8
0
 10
208.253
 11
208.275
 20
-202.63
 21
-202.601
  0
LINE
  8
0
 10
208.275
 11
208.301
 20
-202.601
 21
-202.575
  0
LINE
  8
0
 10
208.301
 11
208.33
 20
-202.575
 21
-202.553
  0
LINE
  8
0
 10
208.33
 11
208.361
 20
-202.553
 21
-202.534
  0
LINE
  8
0
 10
208.361
 11
208.394
 20
-202.534
 21
-202.519
  0
LINE
  8
0
 10
208.394
 11
208.428
 20
-202.519
 21
-202.509
  0
LINE
  8
0
 10
208.428
 11
208.464
 20
-202.509
 21
-202.502
  0
LINE
  8
0
 10
208.464
 11
208.5
 20
-202.502
 21
-202.5
  0
LINE
  8
0
 10
208.5
 11
209.2
 20
-202.5
 21
-202.5
  0
LINE
  8
0
 10
209.2
 11
209.296
 20
-202.5
 21
-202.506
  0
LINE
  8
0
 10
209.296
 11
209.391
 20
-202.506
 21
-202.523
  0
LINE
  8
0
 10
209.391
 11
209.484
 20
-202.523
 21
-202.552
  0
LINE
  8
0
 10
209.484
 11
209.572
 20
-202.552
 21
-202.592
  0
LINE
  8
0
 10
209.572
 11
209.654
 20
-202.592
 21
-202.642
  0
LINE
  8
0
 10
209.654
 11
209.73
 20
-202.642
 21
-202.701
  0
LINE
  8
0
 10
209.73
 11
209.799
 20
-202.701
 21
-202.77
  0
LINE
  8
0
 10
209.799
 11
209.858
 20
-202.77
 21
-202.846
  0
LINE
  8
0
 10
209.858
 11
209.908
 20
-202.846
 21
-202.928
  0
LINE
  8
0
 10
209.908
 11
209.948
 20
-202.928
 21
-203.016
  0
LINE
  8
0
 10
209.948
 11
209.977
 20
-203.016
 21
-203.109
  0
LINE
  8
0
 10
209.977
 11
209.994
 20
-203.109
 21
-203.204
  0
LINE
  8
0
 10
209.994
 11
210
 20
-203.204
 21
-203.3
  0
LINE
  8
0
 10
210
 11
210
 20
-203.3
 21
-208
  0
LINE
  8
0
 10
210
 11
209.985
 20
-208
 21
-208.241
  0
LINE
  8
0
 10
209.985
 11
209.942
 20
-208.241
 21
-208.479
  0
LINE
  8
0
 10
209.942
 11
209.87
 20
-208.479
 21
-208.709
  0
LINE
  8
0
 10
209.87
 11
209.771
 20
-208.709
 21
-208.929
  0
LINE
  8
0
 10
209.771
 11
209.646
 20
-208.929
 21
-209.136
  0
LINE
  8
0
 10
209.646
 11
209.497
 20
-209.136
 21
-209.326
  0
LINE
  8
0
 10
209.497
 11
209.326
 20
-209.326
 21
-209.497
  0
LINE
  8
0
 10
209.326
 11
209.136
 20
-209.497
 21
-209.646
  0
LINE
  8
0
 10
209.136
 11
208.929
 20
-209.646
 21
-209.771
  0
LINE
  8
0
 10
208.929
 11
208.709
 20
-209.771
 21
-209.87
  0
LINE
  8
0
 10
208.709
 11
208.479
 20
-209.87
 21
-209.942
  0
LINE
  8
0
 10
208.479
 11
208.241
 20
-209.942
 21
-209.985
  0
LINE
  8
0
 10
208.241
 11
208
 20
-209.985
 21
-210
  0
LINE
  8
0
 10
208
 11
203.3
 20
-210
 21
-210
  0
LINE
  8
0
 10
203.3
 11
203.204
 20
-210
 21
-209.994
  0
LINE
  8
0
 10
203.204
 11
203.109
 20
-209.994
 21
-209.977
  0
LINE
  8
0
 10
203.109
 11
203.016
 20
-209.977
 21
-209.948
  0
LINE
  8
0
 10
203.016
 11
202.928
 20
-209.948
 21
-209.908
  0
LINE
  8
0
 10
202.928
 11
202.846
 20
-209.908
 21
-209.858
  0
LINE
  8
0
 10
202.846
 11
202.77
 20
-209.858
 21
-209.799
  0
LINE
  8
0
 10
202.77
 11
202.701
 20
-209.799
 21
-209.73
  0
LINE
  8
0
 10
202.701
 11
202.642
 20
-209.73
 21
-209.654
  0
LINE
  8
0
 10
202.642
 11
202.592
 20
-209.654
 21
-209.572
  0
LINE
  8
0
 10
202.592
 11
202.552
 20
-209.572
 21
-209.484
  0
LINE
  8
0
 10
202.552
 11
202.523
 20
-209.484
 21
-209.391
  0
LINE
  8
0
 10
202.523
 11
202.506
 20
-209.391
 21
-209.296
  0
LINE
  8
0
 10
202.506
 11
202.5
 20
-209.296
 21
-209.2
  0
LINE
  8
0
 10
202.5
 11
202.5
 20
-209.2
 21
-208.5
  0
LINE
  8
0
 10
202.5
 11
202.502
 20
-208.5
 21
-208.464
  0
LINE
  8
0
 10
202.502
 11
202.509
 20
-208.464
 21
-208.428
  0
LINE
  8
0
 10
202.509
 11
202.519
 20
-208.428
 21
-208.394
  0
LINE
  8
0
 10
202.519
 11
202.534
 20
-208.394
 21
-208.361
  0
LINE
  8
0
 10
202.534
 11
202.553
 20
-208.361
 21
-208.33
  0
LINE
  8
0
 10
202.553
 11
202.575
 20
-208.33
 21
-208.301
  0
LINE
  8
0
 10
202.575
 11
202.601
 20
-208.301
 21
-208.275
  0
LINE
  8
0
 10
202.601
 11
202.63
 20
-208.275
 21
-208.253
  0
LINE
  8
0
 10
202.63
 11
202.661
 20
-208.253
 21
-208.234
  0
LINE
  8
0
 10
202.661
 11
202.694
 20
-208.234
 21
-208.219
  0
LINE
  8
0
 10
202.694
 11
202.728
 20
-208.219
 21
-208.209
  0
LINE
  8
0
 10
202.728
 11
202.764
 20
-208.209
 21
-208.202
  0
LINE
  8
0
 10
202.764
 11
202.8
 20
-208.202
 21
-208.2
  0
LINE
  8
0
 10
202.8
 11
204.996
 20
-208.2
 21
-208.2
  0
LINE
  8
0
 10
204.996
 11
205.095
 20
-208.2
 21
-208.194
  0
LINE
  8
0
 10
205.095
 11
205.192
 20
-208.194
 21
-208.176
  0
LINE
  8
0
 10
205.192
 11
205.287
 20
-208.176
 21
-208.145
  0
LINE
  8
0
 10
205.287
 11
205.377
 20
-208.145
 21
-208.104
  0
LINE
  8
0
 10
205.377
 11
205.461
 20
-208.104
 21
-208.051
  0
LINE
  8
0
 10
205.461
 11
205.538
 20
-208.051
 21
-207.989
  0
LINE
  8
0
 10
205.538
 11
205.606
 20
-207.989
 21
-207.917
  0
LINE
  8
0
 10
205.606
 11
205.666
 20
-207.917
 21
-207.838
  0
LINE
  8
0
 10
205.666
 11
205.715
 20
-207.838
 21
-207.751
  0
LINE
  8
0
 10
205.715
 11
205.752
 20
-207.751
 21
-207.66
  0
LINE
  8
0
 10
205.752
 11
205.779
 20
-207.66
 21
-207.564
  0
LINE
  8
0
 10
205.779
 11
205.793
 20
-207.564
 21
-207.466
  0
LINE
  8
0
 10
205.793
 11
205.795
 20
-207.466
 21
-207.367
  0
LINE
  8
0
 10
205.795
 11
205.785
 20
-207.367
 21
-207.268
  0
LINE
  8
0
 10
205.785
 11
205.763
 20
-207.268
 21
-207.172
  0
LINE
  8
0
 10
205.763
 11
205.728
 20
-207.172
 21
-207.079
  0
LINE
  8
0
 10
205.728
 11
205.683
 20
-207.079
 21
-206.99
  0
LINE
  8
0
 10
205.683
 11
205.627
 20
-206.99
 21
-206.909
  0
LINE
  8
0
 10
205.627
 11
205.562
 20
-206.909
 21
-206.834
  0
LINE
  8
0
 10
205.562
 11
203.256
 20
-206.834
 21
-204.529
  0
LINE
  8
0
 10
203.256
 11
203.005
 20
-204.529
 21
-204.305
  0
LINE
  8
0
 10
203.005
 11
202.731
 20
-204.305
 21
-204.11
  0
LINE
  8
0
 10
202.731
 11
202.436
 20
-204.11
 21
-203.947
  0
LINE
  8
0
 10
202.436
 11
202.125
 20
-203.947
 21
-203.818
  0
LINE
  8
0
 10
202.125
 11
201.802
 20
-203.818
 21
-203.725
  0
LINE
  8
0
 10
201.802
 11
201.47
 20
-203.725
 21
-203.669
  0
LINE
  8
0
 10
201.47
 11
201.135
 20
-203.669
 21
-203.65
  0
LINE
  8
0
 10
201.135
 11
198.865
 20
-203.65
 21
-203.65
  0
LINE
  8
0
 10
198.865
 11
198.53
 20
-203.65
 21
-203.669
  0
LINE
  8
0
 10
198.53
 11
198.198
 20
-203.669
 21
-203.725
  0
LINE
  8
0
 10
198.198
 11
197.875
 20
-203.725
 21
-203.818
  0
LINE
  8
0
 10
197.875
 11
197.564
 20
-203.818
 21
-203.947
  0
LINE
  8
0
 10
197.564
 11
197.269
 20
-203.947
 21
-204.11
  0
LINE
  8
0
 10
197.269
 11
196.995
 20
-204.11
 21
-204.305
  0
LINE
  8
0
 10
196.995
 11
196.744
 20
-204.305
 21
-204.529
  0
LINE
  8
0
 10
196.744
 11
194.438
 20
-204.529
 21
-206.834
  0
LINE
  8
0
 10
194.438
 11
194.373
 20
-206.834
 21
-206.909
  0
LINE
  8
0
 10
194.373
 11
194.317
 20
-206.909
 21
-206.99
  0
LINE
  8
0
 10
194.317
 11
194.272
 20
-206.99
 21
-207.079
  0
LINE
  8
0
 10
194.272
 11
194.237
 20
-207.079
 21
-207.172
  0
LINE
  8
0
 10
194.237
 11
194.215
 20
-207.172
 21
-207.268
  0
LINE
  8
0
 10
194.215
 11
194.205
 20
-207.268
 21
-207.367
  0
LINE
  8
0
 10
194.205
 11
194.207
 20
-207.367
 21
-207.466
  0
LINE
  8
0
 10
194.207
 11
194.221
 20
-207.466
 21
-207.564
  0
LINE
  8
0
 10
194.221
 11
194.248
 20
-207.564
 21
-207.66
  0
LINE
  8
0
 10
194.248
 11
194.285
 20
-207.66
 21
-207.751
  0
LINE
  8
0
 10
194.285
 11
194.334
 20
-207.751
 21
-207.838
  0
LINE
  8
0
 10
194.334
 11
194.394
 20
-207.838
 21
-207.917
  0
LINE
  8
0
 10
194.394
 11
194.462
 20
-207.917
 21
-207.989
  0
LINE
  8
0
 10
194.462
 11
194.539
 20
-207.989
 21
-208.051
  0
LINE
  8
0
 10
194.539
 11
194.623
 20
-208.051
 21
-208.104
  0
LINE
  8
0
 10
194.623
 11
194.713
 20
-208.104
 21
-208.145
  0
LINE
  8
0
 10
194.713
 11
194.808
 20
-208.145
 21
-208.176
  0
LINE
  8
0
 10
194.808
 11
194.905
 20
-208.176
 21
-208.194
  0
LINE
  8
0
 10
194.905
 11
195.004
 20
-208.194
 21
-208.2
  0
LINE
  8
0
 10
195.004
 11
197.2
 20
-208.2
 21
-208.2
  0
LINE
  8
0
 10
197.2
 11
197.236
 20
-208.2
 21
-208.202
  0
LINE
  8
0
 10
197.236
 11
197.272
 20
-208.202
 21
-208.209
  0
LINE
  8
0
 10
197.272
 11
197.306
 20
-208.209
 21
-208.219
  0
LINE
  8
0
 10
197.306
 11
197.339
 20
-208.219
 21
-208.234
  0
LINE
  8
0
 10
197.339
 11
197.37
 20
-208.234
 21
-208.253
  0
LINE
  8
0
 10
197.37
 11
197.399
 20
-208.253
 21
-208.275
  0
LINE
  8
0
 10
197.399
 11
197.425
 20
-208.275
 21
-208.301
  0
LINE
  8
0
 10
197.425
 11
197.447
 20
-208.301
 21
-208.33
  0
LINE
  8
0
 10
197.447
 11
197.466
 20
-208.33
 21
-208.361
  0
LINE
  8
0
 10
197.466
 11
197.481
 20
-208.361
 21
-208.394
  0
LINE
  8
0
 10
197.481
 11
197.491
 20
-208.394
 21
-208.428
  0
LINE
  8
0
 10
197.491
 11
197.498
 20
-208.428
 21
-208.464
  0
LINE
  8
0
 10
197.498
 11
197.5
 20
-208.464
 21
-208.5
  0
LINE
  8
0
 10
197.5
 11
197.5
 20
-208.5
 21
-209.2
  0
LINE
  8
0
 10
197.5
 11
197.494
 20
-209.2
 21
-209.296
  0
LINE
  8
0
 10
197.494
 11
197.477
 20
-209.296
 21
-209.391
  0
LINE
  8
0
 10
197.477
 11
197.448
 20
-209.391
 21
-209.484
  0
LINE
  8
0
 10
197.448
 11
197.408
 20
-209.484
 21
-209.572
  0
LINE
  8
0
 10
197.408
 11
197.358
 20
-209.572
 21
-209.654
  0
LINE
  8
0
 10
197.358
 11
197.299
 20
-209.654
 21
-209.73
  0
LINE
  8
0
 10
197.299
 11
197.23
 20
-209.73
 21
-209.799
  0
LINE
  8
0
 10
197.23
 11
197.154
 20
-209.799
 21
-209.858
  0
LINE
  8
0
 10
197.154
 11
197.072
 20
-209.858
 21
-209.908
  0
LINE
  8
0
 10
197.072
 11
196.984
 20
-209.908
 21
-209.948
  0
LINE
  8
0
 10
196.984
 11
196.891
 20
-209.948
 21
-209.977
  0
LINE
  8
0
 10
196.891
 11
196.796
 20
-209.977
 21
-209.994
  0
LINE
  8
0
 10
196.796
 11
196.7
 20
-209.994
 21
-210
  0
LINE
  8
0
 10
196.7
 11
192
 20
-210
 21
-210
  0
LINE
  8
0
 10
192
 11
191.759
 20
-210
 21
-209.985
  0
LINE
  8
0
 10
191.759
 11
191.521
 20
-209.985
 21
-209.942
  0
LINE
  8
0
 10
191.521
 11
191.291
 20
-209.942
 21
-209.87
  0
LINE
  8
0
 10
191.291
 11
191.071
 20
-209.87
 21
-209.771
  0
LINE
  8
0
 10
191.071
 11
190.864
 20
-209.771
 21
-209.646
  0
LINE
  8
0
 10
190.864
 11
190.674
 20
-209.646
 21
-209.497
  0
LINE
  8
0
 10
190.674
 11
190.503
 20
-209.497
 21
-209.326
  0
LINE
  8
0
 10
190.503
 11
190.354
 20
-209.326
 21
-209.136
  0
LINE
  8
0
 10
190.354
 11
190.229
 20
-209.136
 21
-208.929
  0
LINE
  8
0
 10
190.229
 11
190.13
 20
-208.929
 21
-208.709
  0
LINE
  8
0
 10
190.13
 11
190.058
 20
-208.709
 21
-208.479
  0
LINE
  8
0
 10
190.058
 11
190.015
 20
-208.479
 21
-208.241
  0
LINE
  8
0
 10
190.015
 11
190
 20
-208.241
 21
-208
  0
LINE
  8
0
 10
190
 11
190
 20
192
 21
196.7
  0
LINE
  8
0
 10
190
 11
190.006
 20
196.7
 21
196.796
  0
LINE
  8
0
 10
190.006
 11
190.023
 20
196.796
 21
196.891
  0
LINE
  8
0
 10
190.023
 11
190.052
 20
196.891
 21
196.984
  0
LINE
  8
0
 10
190.052
 11
190.092
 20
196.984
 21
197.072
  0
LINE
  8
0
 10
190.092
 11
190.142
 20
197.072
 21
197.154
  0
LINE
  8
0
 10
190.142
 11
190.201
 20
197.154
 21
197.23
  0
LINE
  8
0
 10
190.201
 11
190.27
 20
197.23
 21
197.299
  0
LINE
  8
0
 10
190.27
 11
190.346
 20
197.299
 21
197.358
  0
LINE
  8
0
 10
190.346
 11
190.428
 20
197.358
 21
197.408
  0
LINE
  8
0
 10
190.428
 11
190.516
 20
197.408
 21
197.448
  0
LINE
  8
0
 10
190.516
 11
190.609
 20
197.448
 21
197.477
  0
LINE
  8
0
 10
190.609
 11
190.704
 20
197.477
 21
197.494
  0
LINE
  8
0
 10
190.704
 11
190.8
 20
197.494
 21
197.5
  0
LINE
  8
0
 10
190.8
 11
191.5
 20
197.5
 21
197.5
  0
LINE
  8
0
 10
191.5
 11
191.536
 20
197.5
 21
197.498
  0
LINE
  8
0
 10
191.536
 11
191.572
 20
197.498
 21
197.491
  0
LINE
  8
0
 10
191.572
 11
191.606
 20
197.491
 21
197.481
  0
LINE
  8
0
 10
191.606
 11
191.639
 20
197.481
 21
197.466
  0
LINE
  8
0
 10
191.639
 11
191.67
 20
197.466
 21
197.447
  0
LINE
  8
0
 10
191.67
 11
191.699
 20
197.447
 21
197.425
  0
LINE
  8
0
 10
191.699
 11
191.725
 20
197.425
 21
197.399
  0
LINE
  8
0
 10
191.725
 11
191.747
 20
197.399
 21
197.37
  0
LINE
  8
0
 10
191.747
 11
191.766
 20
197.37
 21
197.339
  0
LINE
  8
0
 10
191.766
 11
191.781
 20
197.339
 21
197.306
  0
LINE
  8
0
 10
191.781
 11
191.791
 20
197.306
 21
197.272
  0
LINE
  8
0
 10
191.791
 11
191.798
 20
197.272
 21
197.236
  0
LINE
  8
0
 10
191.798
 11
191.8
 20
197.236
 21
197.2
  0
LINE
  8
0
 10
191.8
 11
191.8
 20
197.2
 21
195.004
  0
LINE
  8
0
 10
191.8
 11
191.806
 20
195.004
 21
194.905
  0
LINE
  8
0
 10
191.806
 11
191.824
 20
194.905
 21
194.808
  0
LINE
  8
0
 10
191.824
 11
191.855
 20
194.808
 21
194.713
  0
LINE
  8
0
 10
191.855
 11
191.896
 20
194.713
 21
194.623
  0
LINE
  8
0
 10
191.896
 11
191.949
 20
194.623
 21
194.539
  0
LINE
  8
0
 10
191.949
 11
192.011
 20
194.539
 21
194.462
  0
LINE
  8
0
 10
192.011
 11
192.083
 20
194.462
 21
194.394
  0
LINE
  8
0
 10
192.083
 11
192.162
 20
194.394
 21
194.334
  0
LINE
  8
0
 10
192.162
 11
192.249
 20
194.334
 21
194.285
  0
LINE
  8
0
 10
192.249
 11
192.34
 20
194.285
 21
194.248
  0
LINE
  8
0
 10
192.34
 11
192.436
 20
194.248
 21
194.221
  0
LINE
  8
0
 10
192.436
 11
192.534
 20
194.221
 21
194.207
  0
LINE
  8
0
 10
192.534
 11
192.633
 20
194.207
 21
194.205
  0
LINE
  8
0
 10
192.633
 11
192.732
 20
194.205
 21
194.215
  0
LINE
  8
0
 10
192.732
 11
192.828
 20
194.215
 21
194.237
  0
LINE
  8
0
 10
192.828
 11
192.921
 20
194.237
 21
194.272
  0
LINE
  8
0
 10
192.921
 11
193.01
 20
194.272
 21
194.317
  0
LINE
  8
0
 10
193.01
 11
193.091
 20
194.317
 21
194.373
  0
LINE
  8
0
 10
193.091
 11
193.166
 20
194.373
 21
194.438
  0
LINE
  8
0
 10
193.166
 11
195.471
 20
194.438
 21
196.744
  0
LINE
  8
0
 10
195.471
 11
195.695
 20
196.744
 21
196.995
  0
LINE
  8
0
 10
195.695
 11
195.89
 20
196.995
 21
197.269
  0
LINE
  8
0
 10
195.89
 11
196.053
 20
197.269
 21
197.564
  0
LINE
  8
0
 10
196.053
 11
196.182
 20
197.564
 21
197.875
  0
LINE
  8
0
 10
196.182
 11
196.275
 20
197.875
 21
198.198
  0
LINE
  8
0
 10
196.275
 11
196.331
 20
198.198
 21
198.53
  0
LINE
  8
0
 10
196.331
 11
196.35
 20
198.53
 21
198.865
  0
LINE
  8
0
 10
196.35
 11
196.35
 20
198.865
 21
201.135
  0
LINE
  8
0
 10
196.35
 11
196.331
 20
201.135
 21
201.47
  0
LINE
  8
0
 10
196.331
 11
196.275
 20
201.47
 21
201.802
  0
LINE
  8
0
 10
196.275
 11
196.182
 20
201.802
 21
202.125
  0
LINE
  8
0
 10
196.182
 11
196.053
 20
202.125
 21
202.436
  0
LINE
  8
0
 10
196.053
 11
195.89
 20
202.436
 21
202.731
  0
LINE
  8
0
 10
195.89
 11
195.695
 20
202.731
 21
203.005
  0
LINE
  8
0
 10
195.695
 11
195.471
 20
203.005
 21
203.256
  0
LINE
  8
0
 10
195.471
 11
193.166
 20
203.256
 21
205.562
  0
LINE
  8
0
 10
193.166
 11
193.091
 20
205.562
 21
205.627
  0
LINE
  8
0
 10
193.091
 11
193.01
 20
205.627
 21
205.683
  0
LINE
  8
0
 10
193.01
 11
192.921
 20
205.683
 21
205.728
  0
LINE
  8
0
 10
192.921
 11
192.828
 20
205.728
 21
205.763
  0
LINE
  8
0
 10
192.828
 11
192.732
 20
205.763
 21
205.785
  0
LINE
  8
0
 10
192.732
 11
192.633
 20
205.785
 21
205.795
  0
LINE
  8
0
 10
192.633
 11
192.534
 20
205.795
 21
205.793
  0
LINE
  8
0
 10
192.534
 11
192.436
 20
205.793
 21
205.779
  0
LINE
  8
0
 10
192.436
 11
192.34
 20
205.779
 21
205.752
  0
LINE
  8
0
 10
192.34
 11
192.249
 20
205.752
 21
205.715
  0
LINE
  8
0
 10
192.249
 11
192.162
 20
205.715
 21
205.666
  0
LINE
  8
0
 10
192.162
 11
192.083
 20
205.666
 21
205.606
  0
LINE
  8
0
 10
192.083
 11
192.011
 20
205.606
 21
205.538
  0
LINE
  8
0
 10
192.011
 11
191.949
 20
205.538
 21
205.461
  0
LINE
  8
0
 10
191.949
 11
191.896
 20
205.461
 21
205.377
  0
LINE
  8
0
 10
191.896
 11
191.855
 20
205.377
 21
205.287
  0
LINE
  8
0
 10
191.855
 11
191.824
 20
205.287
 21
205.192
  0
LINE
  8
0
 10
191.824
 11
191.806
 20
205.192
 21
205.095
  0
LINE
  8
0
 10
191.806
 11
191.8
 20
205.095
 21
204.996
  0
LINE
  8
0
 10
191.8
 11
191.8
 20
204.996
 21
202.8
  0
LINE
  8
0
 10
191.8
 11
191.798
 20
202.8
 21
202.764
  0
LINE
  8
0
 10
191.798
 11
191.791
 20
202.764
 21
202.728
  0
LINE
  8
0
 10
191.791
 11
191.781
 20
202.728
 21
202.694
  0
LINE
  8
0
 10
191.781
 11
191.766
 20
202.694
 21
202.661
  0
LINE
  8
0
 10
191.766
 11
191.747
 20
202.661
 21
202.63
  0
LINE
  8
0
 10
191.747
 11
191.725
 20
202.63
 21
202.601
  0
LINE
  8
0
 10
191.725
 11
191.699
 20
202.601
 21
202.575
  0
LINE
  8
0
 10
191.699
 11
191.67
 20
202.575
 21
202.553
  0
LINE
  8
0
 10
191.67
 11
191.639
 20
202.553
 21
202.534
  0
LINE
  8
0
 10
191.639
 11
191.606
 20
202.534
 21
202.519
  0
LINE
  8
0
 10
191.606
 11
191.572
 20
202.519
 21
202.509
  0
LINE
  8
0
 10
191.572
 11
191.536
 20
202.509
 21
202.502
  0
LINE
  8
0
 10
191.536
 11
191.5
 20
202.502
 21
202.5
  0
LINE
  8
0
 10
191.5
 11
190.8
 20
202.5
 21
202.5
  0
LINE
  8
0
 10
190.8
 11
190.704
 20
202.5
 21
202.506
  0
LINE
  8
0
 10
190.704
 11
190.609
 20
202.506
 21
202.523
  0
LINE
  8
0
 10
190.609
 11
190.516
 20
202.523
 21
202.552
  0
LINE
  8
0
 10
190.516
 11
190.428
 20
202.552
 21
202.592
  0
LINE
  8
0
 10
190.428
 11
190.346
 20
202.592
 21
202.642
  0
LINE
  8
0
 10
190.346
 11
190.27
 20
202.642
 21
202.701
  0
LINE
  8
0
 10
190.27
 11
190.201
 20
202.701
 21
202.77
  0
LINE
  8
0
 10
190.201
 11
190.142
 20
202.77
 21
202.846
  0
LINE
  8
0
 10
190.142
 11
190.092
 20
202.846
 21
202.928
  0
LINE
  8
0
 10
190.092
 11
190.052
 20
202.928
 21
203.016
  0
LINE
  8
0
 10
190.052
 11
190.023
 20
203.016
 21
203.109
  0
LINE
  8
0
 10
190.023
 11
190.006
 20
203.109
 21
203.204
  0
LINE
  8
0
 10
190.006
 11
190
 20
203.204
 21
203.3
  0
LINE
  8
0
 10
190
 11
190
 20
203.3
 21
208
  0
LINE
  8
0
 10
190
 11
190.015
 20
208
 21
208.241
  0
LINE
  8
0
 10
190.015
 11
190.058
 20
208.241
 21
208.479
  0
LINE
  8
0
 10
190.058
 11
190.13
 20
208.479
 21
208.709
  0
LINE
  8
0
 10
190.13
 11
190.229
 20
208.709
 21
208.929
  0
LINE
  8
0
 10
190.229
 11
190.354
 20
208.929
 21
209.136
  0
LINE
  8
0
 10
190.354
 11
190.503
 20
209.136
 21
209.326
  0
LINE
  8
0
 10
190.503
 11
190.674
 20
209.326
 21
209.497
  0
LINE
  8
0
 10
190.674
 11
190.864
 20
209.497
 21
209.646
  0
LINE
  8
0
 10
190.864
 11
191.071
 20
209.646
 21
209.771
  0
LINE
  8
0
 10
191.071
 11
191.291
 20
209.771
 21
209.87
  0
LINE
  8
0
 10
191.291
 11
191.521
 20
209.87
 21
209.942
  0
LINE
  8
0
 10
191.521
 11
191.759
 20
209.942
 21
209.985
  0
LINE
  8
0
 10
191.759
 11
192
 20
209.985
 21
210
  0
LINE
  8
0
 10
192
 11
196.7
 20
210
 21
210
  0
LINE
  8
0
 10
196.7
 11
196.796
 20
210
 21
209.994
  0
LINE
  8
0
 10
196.796
 11
196.891
 20
209.994
 21
209.977
  0
LINE
  8
0
 10
196.891
 11
196.984
 20
209.977
 21
209.948
  0
LINE
  8
0
 10
196.984
 11
197.072
 20
209.948
 21
209.908
  0
LINE
  8
0
 10
197.072
 11
197.154
 20
209.908
 21
209.858
  0
LINE
  8
0
 10
197.154
 11
197.23
 20
209.858
 21
209.799
  0
LINE
  8
0
 10
197.23
 11
197.299
 20
209.799
 21
209.73
  0
LINE
  8
0
 10
197.299
 11
197.358
 20
209.73
 21
209.654
  0
LINE
  8
0
 10
197.358
 11
197.408
 20
209.654
 21
209.572
  0
LINE
  8
0
 10
197.408
 11
197.448
 20
209.572
 21
209.484
  0
LINE
  8
0
 10
197.448
 11
197.477
 20
209.484
 21
209.391
  0
LINE
  8
0
 10
197.477
 11
197.494
 20
209.391
 21
209.296
  0
LINE
  8
0
 10
197.494
 11
197.5
 20
209.296
 21
209.2
  0
LINE
  8
0
 10
197.5
 11
197.5
 20
209.2
 21
208.5
  0
LINE
  8
0
 10
197.5
 11
197.498
 20
208.5
 21
208.464
  0
LINE
  8
0
 10
197.498
 11
197.491
 20
208.464
 21
208.428
  0
LINE
  8
0
 10
197.491
 11
197.481
 20
208.428
 21
208.394
  0
LINE
  8
0
 10
197.481
 11
197.466
 20
208.394
 21
208.361
  0
LINE
  8
0
 10
197.466
 11
197.447
 20
208.361
 21
208.33
  0
LINE
  8
0
 10
197.447
 11
197.425
 20
208.33
 21
208.301
  0
LINE
  8
0
 10
197.425
 11
197.399
 20
208.301
 21
208.275
  0
LINE
  8
0
 10
197.399
 11
197.37
 20
208.275
 21
208.253
  0
LINE
  8
0
 10
197.37
 11
197.339
 20
208.253
 21
208.234
  0
LINE
  8
0
 10
197.339
 11
197.306
 20
208.234
 21
208.219
  0
LINE
  8
0
 10
197.306
 11
197.272
 20
208.219
 21
208.209
  0
LINE
  8
0
 10
197.272
 11
197.236
 20
208.209
 21
208.202
  0
LINE
  8
0
 10
197.236
 11
197.2
 20
208.202
 21
208.2
  0
LINE
  8
0
 10
197.2
 11
195.004
 20
208.2
 21
208.2
  0
LINE
  8
0
 10
195.004
 11
194.905
 20
208.2
 21
208.194
  0
LINE
  8
0
 10
194.905
 11
194.808
 20
208.194
 21
208.176
  0
LINE
  8
0
 10
194.808
 11
194.713
 20
208.176
 21
208.145
  0
LINE
  8
0
 10
194.713
 11
194.623
 20
208.145
 21
208.104
  0
LINE
  8
0
 10
194.623
 11
194.539
 20
208.104
 21
208.051
  0
LINE
  8
0
 10
194.539
 11
194.462
 20
208.051
 21
207.989
  0
LINE
  8
0
 10
194.462
 11
194.394
 20
207.989
 21
207.917
  0
LINE
  8
0
 10
194.394
 11
194.334
 20
207.917
 21
207.838
  0
LINE
  8
0
 10
194.334
 11
194.285
 20
207.838
 21
207.751
  0
LINE
  8
0
 10
194.285
 11
194.248
 20
207.751
 21
207.66
  0
LINE
  8
0
 10
194.248
 11
194.221
 20
207.66
 21
207.564
  0
LINE
  8
0
 10
194.221
 11
194.207
 20
207.564
 21
207.466
  0
LINE
  8
0
 10
194.207
 11
194.205
 20
207.466
 21
207.367
  0
LINE
  8
0
 10
194.205
 11
194.215
 20
207.367
 21
207.268
  0
LINE
  8
0
 10
194.215
 11
194.237
 20
207.268
 21
207.172
  0
LINE
  8
0
 10
194.237
 11
194.272
 20
207.172
 21
207.079
  0
LINE
  8
0
 10
194.272
 11
194.317
 20
207.079
 21
206.99
  0
LINE
  8
0
 10
194.317
 11
194.373
 20
206.99
 21
206.909
  0
LINE
  8
0
 10
194.373
 11
194.438
 20
206.909
 21
206.834
  0
LINE
  8
0
 10
194.438
 11
196.744
 20
206.834
 21
204.529
  0
LINE
  8
0
 10
196.744
 11
196.995
 20
204.529
 21
204.305
  0
LINE
  8
0
 10
196.995
 11
197.269
 20
204.305
 21
204.11
  0
LINE
  8
0
 10
197.269
 11
197.564
 20
204.11
 21
203.947
  0
LINE
  8
0
 10
197.564
 11
197.875
 20
203.947
 21
203.818
  0
LINE
  8
0
 10
197.875
 11
198.198
 20
203.818
 21
203.725
  0
LINE
  8
0
 10
198.198
 11
198.53
 20
203.725
 21
203.669
  0
LINE
  8
0
 10
198.53
 11
198.865
 20
203.669
 21
203.65
  0
LINE
  8
0
 10
198.865
 11
201.135
 20
203.65
 21
203.65
  0
LINE
  8
0
 10
201.135
 11
201.47
 20
203.65
 21
203.669
  0
LINE
  8
0
 10
201.47
 11
201.802
 20
203.669
 21
203.725
  0
LINE
  8
0
 10
201.802
 11
202.125
 20
203.725
 21
203.818
  0
LINE
  8
0
 10
202.125
 11
202.436
 20
203.818
 21
203.947
  0
LINE
  8
0
 10
202.436
 11
202.731
 20
203.947
 21
204.11
  0
LINE
  8
0
 10
202.731
 11
203.005
 20
204.11
 21
204.305
  0
LINE
  8
0
 10
203.005
 11
203.256
 20
204.305
 21
204.529
  0
LINE
  8
0
 10
203.256
 11
205.562
 20
204.529
 21
206.834
  0
LINE
  8
0
 10
205.562
 11
205.627
 20
206.834
 21
206.909
  0
LINE
  8
0
 10
205.627
 11
205.683
 20
206.909
 21
206.99
  0
LINE
  8
0
 10
205.683
 11
205.728
 20
206.99
 21
207.079
  0
LINE
  8
0
 10
205.728
 11
205.763
 20
207.079
 21
207.172
  0
LINE
  8
0
 10
205.763
 11
205.785
 20
207.172
 21
207.268
  0
LINE
  8
0
 10
205.785
 11
205.795
 20
207.268
 21
207.367
  0
LINE
  8
0
 10
205.795
 11
205.793
 20
207.367
 21
207.466
  0
LINE
  8
0
 10
205.793
 11
205.779
 20
207.466
 21
207.564
  0
LINE
  8
0
 10
205.779
 11
205.752
 20
207.564
 21
207.66
  0
LINE
  8
0
 10
205.752
 11
205.715
 20
207.66
 21
207.751
  0
LINE
  8
0
 10
205.715
 11
205.666
 20
207.751
 21
207.838
  0
LINE
  8
0
 10
205.666
 11
205.606
 20
207.838
 21
207.917
  0
LINE
  8
0
 10
205.606
 11
205.538
 20
207.917
 21
207.989
  0
LINE
  8
0
 10
205.538
 11
205.461
 20
207.989
 21
208.051
  0
LINE
  8
0
 10
205.461
 11
205.377
 20
208.051
 21
208.104
  0
LINE
  8
0
 10
205.377
 11
205.287
 20
208.104
 21
208.145
  0
LINE
  8
0
 10
205.287
 11
205.192
 20
208.145
 21
208.176
  0
LINE
  8
0
 10
205.192
 11
205.095
 20
208.176
 21
208.194
  0
LINE
  8
0
 10
205.095
 11
204.996
 20
208.194
 21
208.2
  0
LINE
  8
0
 10
204.996
 11
202.8
 20
208.2
 21
208.2
  0
LINE
  8
0
 10
202.8
 11
202.764
 20
208.2
 21
208.202
  0
LINE
  8
0
 10
202.764
 11
202.728
 20
208.202
 21
208.209
  0
LINE
  8
0
 10
202.728
 11
202.694
 20
208.209
 21
208.219
  0
LINE
  8
0
 10
202.694
 11
202.661
 20
208.219
 21
208.234
  0
LINE
  8
0
 10
202.661
 11
202.63
 20
208.234
 21
208.253
  0
LINE
  8
0
 10
202.63
 11
202.601
 20
208.253
 21
208.275
  0
LINE
  8
0
 10
202.601
 11
202.575
 20
208.275
 21
208.301
  0
LINE
  8
0
 10
202.575
 11
202.553
 20
208.301
 21
208.33
  0
LINE
  8
0
 10
202.553
 11
202.534
 20
208.33
 21
208.361
  0
LINE
  8
0
 10
202.534
 11
202.519
 20
208.361
 21
208.394
  0
LINE
  8
0
 10
202.519
 11
202.509
 20
208.394
 21
208.428
  0
LINE
  8
0
 10
202.509
 11
202.502
 20
208.428
 21
208.464
  0
LINE
  8
0
 10
202.502
 11
202.5
 20
208.464
 21
208.5
  0
LINE
  8
0
 10
202.5
 11
202.5
 20
208.5
 21
209.2
  0
LINE
  8
0
 10
202.5
 11
202.506
 20
209.2
 21
209.296
  0
LINE
  8
0
 10
202.506
 11
202.523
 20
209.296
 21
209.391
  0
LINE
  8
0
 10
202.523
 11
202.552
 20
209.391
 21
209.484
  0
LINE
  8
0
 10
202.552
 11
202.592
 20
209.484
 21
209.572
  0
LINE
  8
0
 10
202.592
 11
202.642
 20
209.572
 21
209.654
  0
LINE
  8
0
 10
202.642
 11
202.701
 20
209.654
 21
209.73
  0
LINE
  8
0
 10
202.701
 11
202.77
 20
209.73
 21
209.799
  0
LINE
  8
0
 10
202.77
 11
202.846
 20
209.799
 21
209.858
  0
LINE
  8
0
 10
202.846
 11
202.928
 20
209.858
 21
209.908
  0
LINE
  8
0
 10
202.928
 11
203.016
 20
209.908
 21
209.948
  0
LINE
  8
0
 10
203.016
 11
203.109
 20
209.948
 21
209.977
  0
LINE
  8
0
 10
203.109
 11
203.204
 20
209.977
 21
209.994
  0
LINE
  8
0
 10
203.204
 11
203.3
 20
209.994
 21
210
  0
LINE
  8
0
 10
203.3
 11
208
 20
210
 21
210
  0
LINE
  8
0
 10
208
 11
208.241
 20
210
 21
209.985
  0
LINE
  8
0
 10
208.241
 11
208.479
 20
209.985
 21
209.942
  0
LINE
  8
0
 10
208.479
 11
208.709
 20
209.942
 21
209.87
  0
LINE
  8
0
 10
208.709
 11
208.929
 20
209.87
 21
209.771
  0
LINE
  8
0
 10
208.929
 11
209.136
 20
209.771
 21
209.646
  0
LINE
  8
0
 10
209.136
 11
209.326
 20
209.646
 21
209.497
  0
LINE
  8
0
 10
209.326
 11
209.497
 20
209.497
 21
209.326
  0
LINE
  8
0
 10
209.497
 11
209.646
 20
209.326
 21
209.136
  0
LINE
  8
0
 10
209.646
 11
209.771
 20
209.136
 21
208.929
  0
LINE
  8
0
 10
209.771
 11
209.87
 20
208.929
 21
208.709
  0
LINE
  8
0
 10
209.87
 11
209.942
 20
208.709
 21
208.479
  0
LINE
  8
0
 10
209.942
 11
209.985
 20
208.479
 21
208.241
  0
LINE
  8
0
 10
209.985
 11
210
 20
208.241
 21
208
  0
LINE
  8
0
 10
210
 11
210
 20
208
 21
203.3
  0
LINE
  8
0
 10
210
 11
209.994
 20
203.3
 21
203.204
  0
LINE
  8
0
 10
209.994
 11
209.977
 20
203.204
 21
203.109
  0
LINE
  8
0
 10
209.977
 11
209.948
 20
203.109
 21
203.016
  0
LINE
  8
0
 10
209.948
 11
209.908
 20
203.016
 21
202.928
  0
LINE
  8
0
 10
209.908
 11
209.858
 20
202.928
 21
202.846
  0
LINE
  8
0
 10
209.858
 11
209.799
 20
202.846
 21
202.77
  0
LINE
  8
0
 10
209.799
 11
209.73
 20
202.77
 21
202.701
  0
LINE
  8
0
 10
209.73
 11
209.654
 20
202.701
 21
202.642
  0
LINE
  8
0
 10
209.654
 11
209.572
 20
202.642
 21
202.592
  0
LINE
  8
0
 10
209.572
 11
209.484
 20
202.592
 21
202.552
  0
LINE
  8
0
 10
209.484
 11
209.391
 20
202.552
 21
202.523
  0
LINE
  8
0
 10
209.391
 11
209.296
 20
202.523
 21
202.506
  0
LINE
  8
0
 10
209.296
 11
209.2
 20
202.506
 21
202.5
  0
LINE
  8
0
 10
209.2
 11
208.5
 20
202.5
 21
202.5
  0
LINE
  8
0
 10
208.5
 11
208.464
 20
202.5
 21
202.502
  0
LINE
  8
0
 10
208.464
 11
208.428
 20
202.502
 21
202.509
  0
LINE
  8
0
 10
208.428
 11
208.394
 20
202.509
 21
202.519
  0
LINE
  8
0
 10
208.394
 11
208.361
 20
202.519
 21
202.534
  0
LINE
  8
0
 10
208.361
 11
208.33
 20
202.534
 21
202.553
  0
LINE
  8
0
 10
208.33
 11
208.301
 20
202.553
 21
202.575
  0
LINE
  8
0
 10
208.301
 11
208.275
 20
202.575
 21
202.601
  0
LINE
  8
0
 10
208.275
 11
208.253
 20
202.601
 21
202.63
  0
LINE
  8
0
 10
208.253
 11
208.234
 20
202.63
 21
202.661
  0
LINE
  8
0
 10
208.234
 11
208.219
 20
202.661
 21
202.694
  0
LINE
  8
0
 10
208.219
 11
208.209
 20
202.694
 21
202.728
  0
LINE
  8
0
 10
208.209
 11
208.202
 20
202.728
 21
202.764
  0
LINE
  8
0
 10
208.202
 11
208.2
 20
202.764
 21
202.8
  0
LINE
  8
0
 10
208.2
 11
208.2
 20
202.8
 21
204.996
  0
LINE
  8
0
 10
208.2
 11
208.194
 20
204.996
 21
205.095
  0
LINE
  8
0
 10
208.194
 11
208.176
 20
205.095
 21
205.192
  0
LINE
  8
0
 10
208.176
 11
208.145
 20
205.192
 21
205.287
  0
LINE
  8
0
 10
208.145
 11
208.104
 20
205.287
 21
205.377
  0
LINE
  8
0
 10
208.104
 11
208.051
 20
205.377
 21
205.461
  0
LINE
  8
0
 10
208.051
 11
207.989
 20
205.461
 21
205.538
  0
LINE
  8
0
 10
207.989
 11
207.917
 20
205.538
 21
205.606
  0
LINE
  8
0
 10
207.917
 11
207.838
 20
205.606
 21
205.666
  0
LINE
  8
0
 10
207.838
 11
207.751
 20
205.666
 21
205.715
  0
LINE
  8
0
 10
207.751
 11
207.66
 20
205.715
 21
205.752
  0
LINE
  8
0
 10
207.66
 11
207.564
 20
205.752
 21
205.779
  0
LINE
  8
0
 10
207.564
 11
207.466
 20
205.779
 21
205.793
  0
LINE
  8
0
 10
207.466
 11
207.367
 20
205.793
 21
205.795
  0
LINE
  8
0
 10
207.367
 11
207.268
 20
205.795
 21
205.785
  0
LINE
  8
0
 10
207.268
 11
207.172
 20
205.785
 21
205.763
  0
LINE
  8
0
 10
207.172
 11
207.079
 20
205.763
 21
205.728
  0
LINE
  8
0
 10
207.079
 11
206.99
 20
205.728
 21
205.683
  0
LINE
  8
0
 10
206.99
 11
206.909
 20
205.683
 21
205.627
  0
LINE
  8
0
 10
206.909
 11
206.834
 20
205.627
 21
205.562
  0
LINE
  8
0
 10
206.834
 11
204.529
 20
205.562
 21
203.256
  0
LINE
  8
0
 10
204.529
 11
204.305
 20
203.256
 21
203.005
  0
LINE
  8
0
 10
204.305
 11
204.11
 20
203.005
 21
202.731
  0
LINE
  8
0
 10
204.11
 11
203.947
 20
202.731
 21
202.436
  0
LINE
  8
0
 10
203.947
 11
203.818
 20
202.436
 21
202.125
  0
LINE
  8
0
 10
203.818
 11
203.725
 20
202.125
 21
201.802
  0
LINE
  8
0
 10
203.725
 11
203.669
 20
201.802
 21
201.47
  0
LINE
  8
0
 10
203.669
 11
203.65
 20
201.47
 21
201.135
  0
LINE
  8
0
 10
203.65
 11
203.65
 20
201.135
 21
198.865
  0
LINE
  8
0
 10
203.65
 11
203.669
 20
198.865
 21
198.53
  0
LINE
  8
0
 10
203.669
 11
203.725
 20
198.53
 21
198.198
  0
LINE
  8
0
 10
203.725
 11
203.818
 20
198.198
 21
197.875
  0
LINE
  8
0
 10
203.818
 11
203.947
 20
197.875
 21
197.564
  0
LINE
  8
0
 10
203.947
 11
204.11
 20
197.564
 21
197.269
  0
LINE
  8
0
 10
204.11
 11
204.305
 20
197.269
 21
196.995
  0
LINE
  8
0
 10
204.305
 11
204.529
 20
196.995
 21
196.744
  0
LINE
  8
0
 10
204.529
 11
206.834
 20
196.744
 21
194.438
  0
LINE
  8
0
 10
206.834
 11
206.909
 20
194.438
 21
194.373
  0
LINE
  8
0
 10
206.909
 11
206.99
 20
194.373
 21
194.317
  0
LINE
  8
0
 10
206.99
 11
207.079
 20
194.317
 21
194.272
  0
LINE
  8
0
 10
207.079
 11
207.172
 20
194.272
 21
194.237
  0
LINE
  8
0
 10
207.172
 11
207.268
 20
194.237
 21
194.215
  0
LINE
  8
0
 10
207.268
 11
207.367
 20
194.215
 21
194.205
  0
LINE
  8
0
 10
207.367
 11
207.466
 20
194.205
 21
194.207
  0
LINE
  8
0
 10
207.466
 11
207.564
 20
194.207
 21
194.221
  0
LINE
  8
0
 10
207.564
 11
207.66
 20
194.221
 21
194.248
  0
LINE
  8
0
 10
207.66
 11
207.751
 20
194.248
 21
194.285
  0
LINE
  8
0
 10
207.751
 11
207.838
 20
194.285
 21
194.334
  0
LINE
  8
0
 10
207.838
 11
207.917
 20
194.334
 21
194.394
  0
LINE
  8
0
 10
207.917
 11
207.989
 20
194.394
 21
194.462
  0
LINE
  8
0
 10
207.989
 11
208.051
 20
194.462
 21
194.539
  0
LINE
  8
0
 10
208.051
 11
208.104
 20
194.539
 21
194.623
  0
LINE
  8
0
 10
208.104
 11
208.145
 20
194.623
 21
194.713
  0
LINE
  8
0
 10
208.145
 11
208.176
 20
194.713
 21
194.808
  0
LINE
  8
0
 10
208.176
 11
208.194
 20
194.808
 21
194.905
  0
LINE
  8
0
 10
208.194
 11
208.2
 20
194.905
 21
195.004
  0
LINE
  8
0
 10
208.2
 11
208.2
 20
195.004
 21
197.2
  0
LINE
  8
0
 10
208.2
 11
208.202
 20
197.2
 21
197.236
  0
LINE
  8
0
 10
208.202
 11
208.209
 20
197.236
 21
197.272
  0
LINE
  8
0
 10
208.209
 11
208.219
 20
197.272
 21
197.306
  0
LINE
  8
0
 10
208.219
 11
208.234
 20
197.306
 21
197.339
  0
LINE
  8
0
 10
208.234
 11
208.253
 20
197.339
 21
197.37
  0
LINE
  8
0
 10
208.253
 11
208.275
 20
197.37
 21
197.399
  0
LINE
  8
0
 10
208.275
 11
208.301
 20
197.399
 21
197.425
  0
LINE
  8
0
 10
208.301
 11
208.33
 20
197.425
 21
197.447
  0
LINE
  8
0
 10
208.33
 11
208.361
 20
197.447
 21
197.466
  0
LINE
  8
0
 10
208.361
 11
208.394
 20
197.466
 21
197.481
  0
LINE
  8
0
 10
208.394
 11
208.428
 20
197.481
 21
197.491
  0
LINE
  8
0
 10
208.428
 11
208.464
 20
197.491
 21
197.498
  0
LINE
  8
0
 10
208.464
 11
208.5
 20
197.498
 21
197.5
  0
LINE
  8
0
 10
208.5
 11
209.2
 20
197.5
 21
197.5
  0
LINE
  8
0
 10
209.2
 11
209.296
 20
197.5
 21
197.494
  0
LINE
  8
0
 10
209.296
 11
209.391
 20
197.494
 21
197.477
  0
LINE
  8
0
 10
209.391
 11
209.484
 20
197.477
 21
197.448
  0
LINE
  8
0
 10
209.484
 11
209.572
 20
197.448
 21
197.408
  0
LINE
  8
0
 10
209.572
 11
209.654
 20
197.408
 21
197.358
  0
LINE
  8
0
 10
209.654
 11
209.73
 20
197.358
 21
197.299
  0
LINE
  8
0
 10
209.73
 11
209.799
 20
197.299
 21
197.23
  0
LINE
  8
0
 10
209.799
 11
209.858
 20
197.23
 21
197.154
  0
LINE
  8
0
 10
209.858
 11
209.908
 20
197.154
 21
197.072
  0
LINE
  8
0
 10
209.908
 11
209.948
 20
197.072
 21
196.984
  0
LINE
  8
0
 10
209.948
 11
209.977
 20
196.984
 21
196.891
  0
LINE
  8
0
 10
209.977
 11
209.994
 20
196.891
 21
196.796
  0
LINE
  8
0
 10
209.994
 11
210
 20
196.796
 21
196.7
  0
LINE
  8
0
 10
210
 11
210
 20
196.7
 21
192
  0
LINE
  8
0
 10
210
 11
209.985
 20
192
 21
191.759
  0
LINE
  8
0
 10
209.985
 11
209.942
 20
191.759
 21
191.521
  0
LINE
  8
0
 10
209.942
 11
209.87
 20
191.521
 21
191.291
  0
LINE
  8
0
 10
209.87
 11
209.771
 20
191.291
 21
191.071
  0
LINE
  8
0
 10
209.771
 11
209.646
 20
191.071
 21
190.864
  0
LINE
  8
0
 10
209.646
 11
209.497
 20
190.864
 21
190.674
  0
LINE
  8
0
 10
209.497
 11
209.326
 20
190.674
 21
190.503
  0
LINE
  8
0
 10
209.326
 11
209.136
 20
190.503
 21
190.354
  0
LINE
  8
0
 10
209.136
 11
208.929
 20
190.354
 21
190.229
  0
LINE
  8
0
 10
208.929
 11
208.709
 20
190.229
 21
190.13
  0
LINE
  8
0
 10
208.709
 11
208.479
 20
190.13
 21
190.058
  0
LINE
  8
0
 10
208.479
 11
208.241
 20
190.058
 21
190.015
  0
LINE
  8
0
 10
208.241
 11
208
 20
190.015
 21
190
  0
LINE
  8
0
 10
208
 11
203.3
 20
190
 21
190
  0
LINE
  8
0
 10
203.3
 11
203.204
 20
190
 21
190.006
  0
LINE
  8
0
 10
203.204
 11
203.109
 20
190.006
 21
190.023
  0
LINE
  8
0
 10
203.109
 11
203.016
 20
190.023
 21
190.052
  0
LINE
  8
0
 10
203.016
 11
202.928
 20
190.052
 21
190.092
  0
LINE
  8
0
 10
202.928
 11
202.846
 20
190.092
 21
190.142
  0
LINE
  8
0
 10
202.846
 11
202.77
 20
190.142
 21
190.201
  0
LINE
  8
0
 10
202.77
 11
202.701
 20
190.201
 21
190.27
  0
LINE
  8
0
 10
202.701
 11
202.642
 20
190.27
 21
190.346
  0
LINE
  8
0
 10
202.642
 11
202.592
 20
190.346
 21
190.428
  0
LINE
  8
0
 10
202.592
 11
202.552
 20
190.428
 21
190.516
  0
LINE
  8
0
 10
202.552
 11
202.523
 20
190.516
 21
190.609
  0
LINE
  8
0
 10
202.523
 11
202.506
 20
190.609
 21
190.704
  0
LINE
  8
0
 10
202.506
 11
202.5
 20
190.704
 21
190.8
  0
LINE
  8
0
 10
202.5
 11
202.5
 20
190.8
 21
191.5
  0
LINE
  8
0
 10
202.5
 11
202.502
 20
191.5
 21
191.536
  0
LINE
  8
0
 10
202.502
 11
202.509
 20
191.536
 21
191.572
  0
LINE
  8
0
 10
202.509
 11
202.519
 20
191.572
 21
191.606
  0
LINE
  8
0
 10
202.519
 11
202.534
 20
191.606
 21
191.639
  0
LINE
  8
0
 10
202.534
 11
202.553
 20
191.639
 21
191.67
  0
LINE
  8
0
 10
202.553
 11
202.575
 20
191.67
 21
191.699
  0
LINE
  8
0
 10
202.575
 11
202.601
 20
191.699
 21
191.725
  0
LINE
  8
0
 10
202.601
 11
202.63
 20
191.725
 21
191.747
  0
LINE
  8
0
 10
202.63
 11
202.661
 20
191.747
 21
191.766
  0
LINE
  8
0
 10
202.661
 11
202.694
 20
191.766
 21
191.781
  0
LINE
  8
0
 10
202.694
 11
202.728
 20
191.781
 21
191.791
  0
LINE
  8
0
 10
202.728
 11
202.764
 20
191.791
 21
191.798
  0
LINE
  8
0
 10
202.764
 11
202.8
 20
191.798
 21
191.8
  0
LINE
  8
0
 10
202.8
 11
204.996
 20
191.8
 21
191.8
  0
LINE
  8
0
 10
204.996
 11
205.095
 20
191.8
 21
191.806
  0
LINE
  8
0
 10
205.095
 11
205.192
 20
191.806
 21
191.824
  0
LINE
  8
0
 10
205.192
 11
205.287
 20
191.824
 21
191.855
  0
LINE
  8
0
 10
205.287
 11
205.377
 20
191.855
 21
191.896
  0
LINE
  8
0
 10
205.377
 11
205.461
 20
191.896
 21
191.949
  0
LINE
  8
0
 10
205.461
 11
205.538
 20
191.949
 21
192.011
  0
LINE
  8
0
 10
205.538
 11
205.606
 20
192.011
 21
192.083
  0
LINE
  8
0
 10
205.606
 11
205.666
 20
192.083
 21
192.162
  0
LINE
  8
0
 10
205.666
 11
205.715
 20
192.162
 21
192.249
  0
LINE
  8
0
 10
205.715
 11
205.752
 20
192.249
 21
192.34
  0
LINE
  8
0
 10
205.752
 11
205.779
 20
192.34
 21
192.436
  0
LINE
  8
0
 10
205.779
 11
205.793
 20
192.436
 21
192.534
  0
LINE
  8
0
 10
205.793
 11
205.795
 20
192.534
 21
192.633
  0
LINE
  8
0
 10
205.795
 11
205.785
 20
192.633
 21
192.732
  0
LINE
  8
0
 10
205.785
 11
205.763
 20
192.732
 21
192.828
  0
LINE
  8
0
 10
205.763
 11
205.728
 20
192.828
 21
192.921
  0
LINE
  8
0
 10
205.728
 11
205.683
 20
192.921
 21
193.01
  0
LINE
  8
0
 10
205.683
 11
205.627
 20
193.01
 21
193.091
  0
LINE
  8
0
 10
205.627
 11
205.562
 20
193.091
 21
193.166
  0
LINE
  8
0
 10
205.562
 11
203.256
 20
193.166
 21
195.471
  0
LINE
  8
0
 10
203.256
 11
203.005
 20
195.471
 21
195.695
  0
LINE
  8
0
 10
203.005
 11
202.731
 20
195.695
 21
195.89
  0
LINE
  8
0
 10
202.731
 11
202.436
 20
195.89
 21
196.053
  0
LINE
  8
0
 10
202.436
 11
202.125
 20
196.053
 21
196.182
  0
LINE
  8
0
 10
202.125
 11
201.802
 20
196.182
 21
196.275
  0
LINE
  8
0
 10
201.802
 11
201.47
 20
196.275
 21
196.331
  0
LINE
  8
0
 10
201.47
 11
201.135
 20
196.331
 21
196.35
  0
LINE
  8
0
 10
201.135
 11
198.865
 20
196.35
 21
196.35
  0
LINE
  8
0
 10
198.865
 11
198.53
 20
196.35
 21
196.331
  0
LINE
  8
0
 10
198.53
 11
198.198
 20
196.331
 21
196.275
  0
LINE
  8
0
 10
198.198
 11
197.875
 20
196.275
 21
196.182
  0
LINE
  8
0
 10
197.875
 11
197.564
 20
196.182
 21
196.053
  0
LINE
  8
0
 10
197.564
 11
197.269
 20
196.053
 21
195.89
  0
LINE
  8
0
 10
197.269
 11
196.995
 20
195.89
 21
195.695
  0
LINE
  8
0
 10
196.995
 11
196.744
 20
195.695
 21
195.471
  0
LINE
  8
0
 10
196.744
 11
194.438
 20
195.471
 21
193.166
  0
LINE
  8
0
 10
194.438
 11
194.373
 20
193.166
 21
193.091
  0
LINE
  8
0
 10
194.373
 11
194.317
 20
193.091
 21
193.01
  0
LINE
  8
0
 10
194.317
 11
194.272
 20
193.01
 21
192.921
  0
LINE
  8
0
 10
194.272
 11
194.237
 20
192.921
 21
192.828
  0
LINE
  8
0
 10
194.237
 11
194.215
 20
192.828
 21
192.732
  0
LINE
  8
0
 10
194.215
 11
194.205
 20
192.732
 21
192.633
  0
LINE
  8
0
 10
194.205
 11
194.207
 20
192.633
 21
192.534
  0
LINE
  8
0
 10
194.207
 11
194.221
 20
192.534
 21
192.436
  0
LINE
  8
0
 10
194.221
 11
194.248
 20
192.436
 21
192.34
  0
LINE
  8
0
 10
194.248
 11
194.285
 20
192.34
 21
192.249
  0
LINE
  8
0
 10
194.285
 11
194.334
 20
192.249
 21
192.162
  0
LINE
  8
0
 10
194.334
 11
194.394
 20
192.162
 21
192.083
  0
LINE
  8
0
 10
194.394
 11
194.462
 20
192.083
 21
192.011
  0
LINE
  8
0
 10
194.462
 11
194.539
 20
192.011
 21
191.949
  0
LINE
  8
0
 10
194.539
 11
194.623
 20
191.949
 21
191.896
  0
LINE
  8
0
 10
194.623
 11
194.713
 20
191.896
 21
191.855
  0
LINE
  8
0
 10
194.713
 11
194.808
 20
191.855
 21
191.824
  0
LINE
  8
0
 10
194.808
 11
194.905
 20
191.824
 21
191.806
  0
LINE
  8
0
 10
194.905
 11
195.004
 20
191.806
 21
191.8
  0
LINE
  8
0
 10
195.004
 11
197.2
 20
191.8
 21
191.8
  0
LINE
  8
0
 10
197.2
 11
197.236
 20
191.8
 21
191.798
  0
LINE
  8
0
 10
197.236
 11
197.272
 20
191.798
 21
191.791
  0
LINE
  8
0
 10
197.272
 11
197.306
 20
191.791
 21
191.781
  0
LINE
  8
0
 10
197.306
 11
197.339
 20
191.781
 21
191.766
  0
LINE
  8
0
 10
197.339
 11
197.37
 20
191.766
 21
191.747
  0
LINE
  8
0
 10
197.37
 11
197.399
 20
191.747
 21
191.725
  0
LINE
  8
0
 10
197.399
 11
197.425
 20
191.725
 21
191.699
  0
LINE
  8
0
 10
197.425
 11
197.447
 20
191.699
 21
191.67
  0
LINE
  8
0
 10
197.447
 11
197.466
 20
191.67
 21
191.639
  0
LINE
  8
0
 10
197.466
 11
197.481
 20
191.639
 21
191.606
  0
LINE
  8
0
 10
197.481
 11
197.491
 20
191.606
 21
191.572
  0
LINE
  8
0
 10
197.491
 11
197.498
 20
191.572
 21
191.536
  0
LINE
  8
0
 10
197.498
 11
197.5
 20
191.536
 21
191.5
  0
LINE
  8
0
 10
197.5
 11
197.5
 20
191.5
 21
190.8
  0
LINE
  8
0
 10
197.5
 11
197.494
 20
190.8
 21
190.704
  0
LINE
  8
0
 10
197.494
 11
197.477
 20
190.704
 21
190.609
  0
LINE
  8
0
 10
197.477
 11
197.448
 20
190.609
 21
190.516
  0
LINE
  8
0
 10
197.448
 11
197.408
 20
190.516
 21
190.428
  0
LINE
  8
0
 10
197.408
 11
197.358
 20
190.428
 21
190.346
  0
LINE
  8
0
 10
197.358
 11
197.299
 20
190.346
 21
190.27
  0
LINE
  8
0
 10
197.299
 11
197.23
 20
190.27
 21
190.201
  0
LINE
  8
0
 10
197.23
 11
197.154
 20
190.201
 21
190.142
  0
LINE
  8
0
 10
197.154
 11
197.072
 20
190.142
 21
190.092
  0
LINE
  8
0
 10
197.072
 11
196.984
 20
190.092
 21
190.052
  0
LINE
  8
0
 10
196.984
 11
196.891
 20
190.052
 21
190.023
  0
LINE
  8
0
 10
196.891
 11
196.796
 20
190.023
 21
190.006
  0
LINE
  8
0
 10
196.796
 11
196.7
 20
190.006
 21
190
  0
LINE
  8
0
 10
196.7
 11
192
 20
190
 21
190
  0
LINE
  8
0
 10
192
 11
191.759
 20
190
 21
190.015
  0
LINE
  8
0
 10
191.759
 11
191.521
 20
190.015
 21
190.058
  0
LINE
  8
0
 10
191.521
 11
191.291
 20
190.058
 21
190.13
  0
LINE
  8
0
 10
191.291
 11
191.071
 20
190.13
 21
190.229
  0
LINE
  8
0
 10
191.071
 11
190.864
 20
190.229
 21
190.354
  0
LINE
  8
0
 10
190.864
 11
190.674
 20
190.354
 21
190.503
  0
LINE
  8
0
 10
190.674
 11
190.503
 20
190.503
 21
190.674
  0
LINE
  8
0
 10
190.503
 11
190.354
 20
190.674
 21
190.864
  0
LINE
  8
0
 10
190.354
 11
190.229
 20
190.864
 21
191.071
  0
LINE
  8
0
 10
190.229
 11
190.13
 20
191.071
 21
191.291
  0
LINE
  8
0
 10
190.13
 11
190.058
 20
191.291
 21
191.521
  0
LINE
  8
0
 10
190.058
 11
190.015
 20
191.521
 21
191.759
  0
LINE
  8
0
 10
190.015
 11
190
 20
191.759
 21
192
  0
LINE
  8
0
 10
196
 11
196.032
 20
-85
 21
-84.499
  0
LINE
  8
0
 10
196.032
 11
196.126
 20
-84.499
 21
-84.005
  0
LINE
  8
0
 10
196.126
 11
196.281
 20
-84.005
 21
-83.528
  0
LINE
  8
0
 10
196.281
 11
196.495
 20
-83.528
 21
-83.073
  0
LINE
  8
0
 10
196.495
 11
196.764
 20
-83.073
 21
-82.649
  0
LINE
  8
0
 10
196.764
 11
197.084
 20
-82.649
 21
-82.262
  0
LINE
  8
0
 10
197.084
 11
197.45
 20
-82.262
 21
-81.918
  0
LINE
  8
0
 10
197.45
 11
197.857
 20
-81.918
 21
-81.623
  0
LINE
  8
0
 10
197.857
 11
198.297
 20
-81.623
 21
-81.381
  0
LINE
  8
0
 10
198.297
 11
198.764
 20
-81.381
 21
-81.196
  0
LINE
  8
0
 10
198.764
 11
199.25
 20
-81.196
 21
-81.071
  0
LINE
  8
0
 10
199.25
 11
199.749
 20
-81.071
 21
-81.008
  0
LINE
  8
0
 10
199.749
 11
200.251
 20
-81.008
 21
-81.008
  0
LINE
  8
0
 10
200.251
 11
200.75
 20
-81.008
 21
-81.071
  0
LINE
  8
0
 10
200.75
 11
201.236
 20
-81.071
 21
-81.196
  0
LINE
  8
0
 10
201.236
 11
201.703
 20
-81.196
 21
-81.381
  0
LINE
  8
0
 10
201.703
 11
202.143
 20
-81.381
 21
-81.623
  0
LINE
  8
0
 10
202.143
 11
202.55
 20
-81.623
 21
-81.918
  0
LINE
  8
0
 10
202.55
 11
202.916
 20
-81.918
 21
-82.262
  0
LINE
  8
0
 10
202.916
 11
203.236
 20
-82.262
 21
-82.649
  0
LINE
  8
0
 10
203.236
 11
203.505
 20
-82.649
 21
-83.073
  0
LINE
  8
0
 10
203.505
 11
203.719
 20
-83.073
 21
-83.528
  0
LINE
  8
0
 10
203.719
 11
203.874
 20
-83.528
 21
-84.005
  0
LINE
  8
0
 10
203.874
 11
203.968
 20
-84.005
 21
-84.499
  0
LINE
  8
0
 10
203.968
 11
204
 20
-84.499
 21
-85
  0
LINE
  8
0
 10
204
 11
203.968
 20
-85
 21
-85.501
  0
LINE
  8
0
 10
203.968
 11
203.874
 20
-85.501
 21
-85.995
  0
LINE
  8
0
 10
203.874
 11
203.719
 20
-85.995
 21
-86.472
  0
LINE
  8
0
 10
203.719
 11
203.505
 20
-86.472
 21
-86.927
  0
LINE
  8
0
 10
203.505
 11
203.236
 20
-86.927
 21
-87.351
  0
LINE
  8
0
 10
203.236
 11
202.916
 20
-87.351
 21
-87.738
  0
LINE
  8
0
 10
202.916
 11
202.55
 20
-87.738
 21
-88.082
  0
LINE
  8
0
 10
202.55
 11
202.143
 20
-88.082
 21
-88.377
  0
LINE
  8
0
 10
202.143
 11
201.703
 20
-88.377
 21
-88.619
  0
LINE
  8
0
 10
201.703
 11
201.236
 20
-88.619
 21
-88.804
  0
LINE
  8
0
 10
201.236
 11
200.75
 20
-88.804
 21
-88.929
  0
LINE
  8
0
 10
200.75
 11
200.251
 20
-88.929
 21
-88.992
  0
LINE
  8
0
 10
200.251
 11
199.749
 20
-88.992
 21
-88.992
  0
LINE
  8
0
 10
199.749
 11
199.25
 20
-88.992
 21
-88.929
  0
LINE
  8
0
 10
199.25
 11
198.764
 20
-88.929
 21
-88.804
  0
LINE
  8
0
 10
198.764
 11
198.297
 20
-88.804
 21
-88.619
  0
LINE
  8
0
 10
198.297
 11
197.857
 20
-88.619
 21
-88.377
  0
LINE
  8
0
 10
197.857
 11
197.45
 20
-88.377
 21
-88.082
  0
LINE
  8
0
 10
197.45
 11
197.084
 20
-88.082
 21
-87.738
  0
LINE
  8
0
 10
197.084
 11
196.764
 20
-87.738
 21
-87.351
  0
LINE
  8
0
 10
196.764
 11
196.495
 20
-87.351
 21
-86.927
  0
LINE
  8
0
 10
196.495
 11
196.281
 20
-86.927
 21
-86.472
  0
LINE
  8
0
 10
196.281
 11
196.126
 20
-86.472
 21
-85.995
  0
LINE
  8
0
 10
196.126
 11
196.032
 20
-85.995
 21
-85.501
  0
LINE
  8
0
 10
196.032
 11
196
 20
-85.501
 21
-85
  0
LINE
  8
0
 10
196
 11
196.032
 20
85
 21
85.501
  0
LINE
  8
0
 10
196.032
 11
196.126
 20
85.501
 21
85.995
  0
LINE
  8
0
 10
196.126
 11
196.281
 20
85.995
 21
86.472
  0
LINE
  8
0
 10
196.281
 11
196.495
 20
86.472
 21
86.927
  0
LINE
  8
0
 10
196.495
 11
196.764
 20
86.927
 21
87.351
  0
LINE
  8
0
 10
196.764
 11
197.084
 20
87.351
 21
87.738
  0
LINE
  8
0
 10
197.084
 11
197.45
 20
87.738
 21
88.082
  0
LINE
  8
0
 10
197.45
 11
197.857
 20
88.082
 21
88.377
  0
LINE
  8
0
 10
197.857
 11
198.297
 20
88.377
 21
88.619
  0
LINE
  8
0
 10
198.297
 11
198.764
 20
88.619
 21
88.804
  0
LINE
  8
0
 10
198.764
 11
199.25
 20
88.804
 21
88.929
  0
LINE
  8
0
 10
199.25
 11
199.749
 20
88.929
 21
88.992
  0
LINE
  8
0
 10
199.749
 11
200.251
 20
88.992
 21
88.992
  0
LINE
  8
0
 10
200.251
 11
200.75
 20
88.992
 21
88.929
  0
LINE
  8
0
 10
200.75
 11
201.236
 20
88.929
 21
88.804
  0
LINE
  8
0
 10
201.236
 11
201.703
 20
88.804
 21
88.619
  0
LINE
  8
0
 10
201.703
 11
202.143
 20
88.619
 21
88.377
  0
LINE
  8
0
 10
202.143
 11
202.55
 20
88.377
 21
88.082
  0
LINE
  8
0
 10
202.55
 11
202.916
 20
88.082
 21
87.738
  0
LINE
  8
0
 10
202.916
 11
203.236
 20
87.738
 21
87.351
  0
LINE
  8
0
 10
203.236
 11
203.505
 20
87.351
 21
86.927
  0
LINE
  8
0
 10
203.505
 11
203.719
 20
86.927
 21
86.472
  0
LINE
  8
0
 10
203.719
 11
203.874
 20
86.472
 21
85.995
  0
LINE
  8
0
 10
203.874
 11
203.968
 20
85.995
 21
85.501
  0
LINE
  8
0
 10
203.968
 11
204
 20
85.501
 21
85
  0
LINE
  8
0
 10
204
 11
203.968
 20
85
 21
84.499
  0
LINE
  8
0
 10
203.968
 11
203.874
 20
84.499
 21
84.005
  0
LINE
  8
0
 10
203.874
 11
203.719
 20
84.005
 21
83.528
  0
LINE
  8
0
 10
203.719
 11
203.505
 20
83.528
 21
83.073
  0
LINE
  8
0
 10
203.505
 11
203.236
 20
83.073
 21
82.649
  0
LINE
  8
0
 10
203.236
 11
202.916
 20
82.649
 21
82.262
  0
LINE
  8
0
 10
202.916
 11
202.55
 20
82.262
 21
81.918
  0
LINE
  8
0
 10
202.55
 11
202.143
 20
81.918
 21
81.623
  0
LINE
  8
0
 10
202.143
 11
201.703
 20
81.623
 21
81.381
  0
LINE
  8
0
 10
201.703
 11
201.236
 20
81.381
 21
81.196
  0
LINE
  8
0
 10
201.236
 11
200.75
 20
81.196
 21
81.071
  0
LINE
  8
0
 10
200.75
 11
200.251
 20
81.071
 21
81.008
  0
LINE
  8
0
 10
200.251
 11
199.749
 20
81.008
 21
81.008
  0
LINE
  8
0
 10
199.749
 11
199.25
 20
81.008
 21
81.071
  0
LINE
  8
0
 10
199.25
 11
198.764
 20
81.071
 21
81.196
  0
LINE
  8
0
 10
198.764
 11
198.297
 20
81.196
 21
81.381
  0
LINE
  8
0
 10
198.297
 11
197.857
 20
81.381
 21
81.623
  0
LINE
  8
0
 10
197.857
 11
197.45
 20
81.623
 21
81.918
  0
LINE
  8
0
 10
197.45
 11
197.084
 20
81.918
 21
82.262
  0
LINE
  8
0
 10
197.084
 11
196.764
 20
82.262
 21
82.649
  0
LINE
  8
0
 10
196.764
 11
196.495
 20
82.649
 21
83.073
  0
LINE
  8
0
 10
196.495
 11
196.281
 20
83.073
 21
83.528
  0
LINE
  8
0
 10
196.281
 11
196.126
 20
83.528
 21
84.005
  0
LINE
  8
0
 10
196.126
 11
196.032
 20
84.005
 21
84.499
  0
LINE
  8
0
 10
196.032
 11
196
 20
84.499
 21
85
  0
LINE
  8
0
 10
197.85
 11
197.867
 20
200
 21
200.269
  0
LINE
  8
0
 10
197.867
 11
197.918
 20
200.269
 21
200.535
  0
LINE
  8
0
 10
197.918
 11
198.001
 20
200.535
 21
200.791
  0
LINE
  8
0
 10
198.001
 11
198.116
 20
200.791
 21
201.036
  0
LINE
  8
0
 10
198.116
 11
198.261
 20
201.036
 21
201.264
  0
LINE
  8
0
 10
198.261
 11
198.433
 20
201.264
 21
201.472
  0
LINE
  8
0
 10
198.433
 11
198.63
 20
201.472
 21
201.657
  0
LINE
  8
0
 10
198.63
 11
198.848
 20
201.657
 21
201.815
  0
LINE
  8
0
 10
198.848
 11
199.085
 20
201.815
 21
201.945
  0
LINE
  8
0
 10
199.085
 11
199.336
 20
201.945
 21
202.045
  0
LINE
  8
0
 10
199.336
 11
199.597
 20
202.045
 21
202.112
  0
LINE
  8
0
 10
199.597
 11
199.865
 20
202.112
 21
202.146
  0
LINE
  8
0
 10
199.865
 11
200.135
 20
202.146
 21
202.146
  0
LINE
  8
0
 10
200.135
 11
200.403
 20
202.146
 21
202.112
  0
LINE
  8
0
 10
200.403
 11
200.664
 20
202.112
 21
202.045
  0
LINE
  8
0
 10
200.664
 11
200.915
 20
202.045
 21
201.945
  0
LINE
  8
0
 10
200.915
 11
201.152
 20
201.945
 21
201.815
  0
LINE
  8
0
 10
201.152
 11
201.37
 20
201.815
 21
201.657
  0
LINE
  8
0
 10
201.37
 11
201.567
 20
201.657
 21
201.472
  0
LINE
  8
0
 10
201.567
 11
201.739
 20
201.472
 21
201.264
  0
LINE
  8
0
 10
201.739
 11
201.884
 20
201.264
 21
201.036
  0
LINE
  8
0
 10
201.884
 11
201.999
 20
201.036
 21
200.791
  0
LINE
  8
0
 10
201.999
 11
202.082
 20
200.791
 21
200.535
  0
LINE
  8
0
 10
202.082
 11
202.133
 20
200.535
 21
200.269
  0
LINE
  8
0
 10
202.133
 11
202.15
 20
200.269
 21
200
  0
LINE
  8
0
 10
202.15
 11
202.133
 20
200
 21
199.731
  0
LINE
  8
0
 10
202.133
 11
202.082
 20
199.731
 21
199.465
  0
LINE
  8
0
 10
202.082
 11
201.999
 20
199.465
 21
199.209
  0
LINE
  8
0
 10
201.999
 11
201.884
 20
199.209
 21
198.964
  0
LINE
  8
0
 10
201.884
 11
201.739
 20
198.964
 21
198.736
  0
LINE
  8
0
 10
201.739
 11
201.567
 20
198.736
 21
198.528
  0
LINE
  8
0
 10
201.567
 11
201.37
 20
198.528
 21
198.343
  0
LINE
  8
0
 10
201.37
 11
201.152
 20
198.343
 21
198.185
  0
LINE
  8
0
 10
201.152
 11
200.915
 20
198.185
 21
198.055
  0
LINE
  8
0
 10
200.915
 11
200.664
 20
198.055
 21
197.955
  0
LINE
  8
0
 10
200.664
 11
200.403
 20
197.955
 21
197.888
  0
LINE
  8
0
 10
200.403
 11
200.135
 20
197.888
 21
197.854
  0
LINE
  8
0
 10
200.135
 11
199.865
 20
197.854
 21
197.854
  0
LINE
  8
0
 10
199.865
 11
199.597
 20
197.854
 21
197.888
  0
LINE
  8
0
 10
199.597
 11
199.336
 20
197.888
 21
197.955
  0
LINE
  8
0
 10
199.336
 11
199.085
 20
197.955
 21
198.055
  0
LINE
  8
0
 10
199.085
 11
198.848
 20
198.055
 21
198.185
  0
LINE
  8
0
 10
198.848
 11
198.63
 20
198.185
 21
198.343
  0
LINE
  8
0
 10
198.63
 11
198.433
 20
198.343
 21
198.528
  0
LINE
  8
0
 10
198.433
 11
198.261
 20
198.528
 21
198.736
  0
LINE
  8
0
 10
198.261
 11
198.116
 20
198.736
 21
198.964
  0
LINE
  8
0
 10
198.116
 11
198.001
 20
198.964
 21
199.209
  0
LINE
  8
0
 10
198.001
 11
197.918
 20
199.209
 21
199.465
  0
LINE
  8
0
 10
197.918
 11
197.867
 20
199.465
 21
199.731
  0
LINE
  8
0
 10
197.867
 11
197.85
 20
199.731
 21
200
  0
LINE
  8
0
 10
197.854
 11
197.854
 20
-200.135
 21
-199.865
  0
LINE
  8
0
 10
197.854
 11
197.888
 20
-199.865
 21
-199.597
  0
LINE
  8
0
 10
197.888
 11
197.955
 20
-199.597
 21
-199.336
  0
LINE
  8
0
 10
197.955
 11
198.055
 20
-199.336
 21
-199.085
  0
LINE
  8
0
 10
198.055
 11
198.185
 20
-199.085
 21
-198.848
  0
LINE
  8
0
 10
198.185
 11
198.343
 20
-198.848
 21
-198.63
  0
LINE
  8
0
 10
198.343
 11
198.528
 20
-198.63
 21
-198.433
  0
LINE
  8
0
 10
198.528
 11
198.736
 20
-198.433
 21
-198.261
  0
LINE
  8
0
 10
198.736
 11
198.964
 20
-198.261
 21
-198.116
  0
LINE
  8
0
 10
198.964
 11
199.209
 20
-198.116
 21
-198.001
  0
LINE
  8
0
 10
199.209
 11
199.465
 20
-198.001
 21
-197.918
  0
LINE
  8
0
 10
199.465
 11
199.731
 20
-197.918
 21
-197.867
  0
LINE
  8
0
 10
199.731
 11
200
 20
-197.867
 21
-197.85
  0
LINE
  8
0
 10
200
 11
200.269
 20
-197.85
 21
-197.867
  0
LINE
  8
0
 10
200.269
 11
200.535
 20
-197.867
 21
-197.918
  0
LINE
  8
0
 10
200.535
 11
200.791
 20
-197.918
 21
-198.001
  0
LINE
  8
0
 10
200.791
 11
201.036
 20
-198.001
 21
-198.116
  0
LINE
  8
0
 10
201.036
 11
201.264
 20
-198.116
 21
-198.261
  0
LINE
  8
0
 10
201.264
 11
201.472
 20
-198.261
 21
-198.433
  0
LINE
  8
0
 10
201.472
 11
201.657
 20
-198.433
 21
-198.63
  0
LINE
  8
0
 10
201.657
 11
201.815
 20
-198.63
 21
-198.848
  0
LINE
  8
0
 10
201.815
 11
201.945
 20
-198.848
 21
-199.085
  0
LINE
  8
0
 10
201.945
 11
202.045
 20
-199.085
 21
-199.336
  0
LINE
  8
0
 10
202.045
 11
202.112
 20
-199.336
 21
-199.597
  0
LINE
  8
0
 10
202.112
 11
202.146
 20
-199.597
 21
-199.865
  0
LINE
  8
0
 10
202.146
 11
202.146
 20
-199.865
 21
-200.135
  0
LINE
  8
0
 10
202.146
 11
202.112
 20
-200.135
 21
-200.403
  0
LINE
  8
0
 10
202.112
 11
202.045
 20
-200.403
 21
-200.664
  0
LINE
  8
0
 10
202.045
 11
201.945
 20
-200.664
 21
-200.915
  0
LINE
  8
0
 10
201.945
 11
201.815
 20
-200.915
 21
-201.152
  0
LINE
  8
0
 10
201.815
 11
201.657
 20
-201.152
 21
-201.37
  0
LINE
  8
0
 10
201.657
 11
201.472
 20
-201.37
 21
-201.567
  0
LINE
  8
0
 10
201.472
 11
201.264
 20
-201.567
 21
-201.739
  0
LINE
  8
0
 10
201.264
 11
201.036
 20
-201.739
 21
-201.884
  0
LINE
  8
0
 10
201.036
 11
200.791
 20
-201.884
 21
-201.999
  0
LINE
  8
0
 10
200.791
 11
200.535
 20
-201.999
 21
-202.082
  0
LINE
  8
0
 10
200.535
 11
200.269
 20
-202.082
 21
-202.133
  0
LINE
  8
0
 10
200.269
 11
200
 20
-202.133
 21
-202.15
  0
LINE
  8
0
 10
200
 11
199.731
 20
-202.15
 21
-202.133
  0
LINE
  8
0
 10
199.731
 11
199.465
 20
-202.133
 21
-202.082
  0
LINE
  8
0
 10
199.465
 11
199.209
 20
-202.082
 21
-201.999
  0
LINE
  8
0
 10
199.209
 11
198.964
 20
-201.999
 21
-201.884
  0
LINE
  8
0
 10
198.964
 11
198.736
 20
-201.884
 21
-201.739
  0
LINE
  8
0
 10
198.736
 11
198.528
 20
-201.739
 21
-201.567
  0
LINE
  8
0
 10
198.528
 11
198.343
 20
-201.567
 21
-201.37
  0
LINE
  8
0
 10
198.343
 11
198.185
 20
-201.37
 21
-201.152
  0
LINE
  8
0
 10
198.185
 11
198.055
 20
-201.152
 21
-200.915
  0
LINE
  8
0
 10
198.055
 11
197.955
 20
-200.915
 21
-200.664
  0
LINE
  8
0
 10
197.955
 11
197.888
 20
-200.664
 21
-200.403
  0
LINE
  8
0
 10
197.888
 11
197.854
 20
-200.403
 21
-200.135
  0
LINE
  8
0
 10
213.5
 11
213.512
 20
0
 21
0.188
  0
LINE
  8
0
 10
213.512
 11
213.547
 20
0.188
 21
0.373
  0
LINE
  8
0
 10
213.547
 11
213.605
 20
0.373
 21
0.552
  0
LINE
  8
0
 10
213.605
 11
213.686
 20
0.552
 21
0.723
  0
LINE
  8
0
 10
213.686
 11
213.786
 20
0.723
 21
0.882
  0
LINE
  8
0
 10
213.786
 11
213.907
 20
0.882
 21
1.027
  0
LINE
  8
0
 10
213.907
 11
214.044
 20
1.027
 21
1.156
  0
LINE
  8
0
 10
214.044
 11
214.196
 20
1.156
 21
1.266
  0
LINE
  8
0
 10
214.196
 11
214.361
 20
1.266
 21
1.357
  0
LINE
  8
0
 10
214.361
 11
214.536
 20
1.357
 21
1.427
  0
LINE
  8
0
 10
214.536
 11
214.719
 20
1.427
 21
1.473
  0
LINE
  8
0
 10
214.719
 11
214.906
 20
1.473
 21
1.497
  0
LINE
  8
0
 10
214.906
 11
215.094
 20
1.497
 21
1.497
  0
LINE
  8
0
 10
215.094
 11
215.281
 20
1.497
 21
1.473
  0
LINE
  8
0
 10
215.281
 11
215.464
 20
1.473
 21
1.427
  0
LINE
  8
0
 10
215.464
 11
215.639
 20
1.427
 21
1.357
  0
LINE
  8
0
 10
215.639
 11
215.804
 20
1.357
 21
1.266
  0
LINE
  8
0
 10
215.804
 11
215.956
 20
1.266
 21
1.156
  0
LINE
  8
0
 10
215.956
 11
216.093
 20
1.156
 21
1.027
  0
LINE
  8
0
 10
216.093
 11
216.214
 20
1.027
 21
0.882
  0
LINE
  8
0
 10
216.214
 11
216.314
 20
0.882
 21
0.723
  0
LINE
  8
0
 10
216.314
 11
216.395
 20
0.723
 21
0.552
  0
LINE
  8
0
 10
216.395
 11
216.453
 20
0.552
 21
0.373
  0
LINE
  8
0
 10
216.453
 11
216.488
 20
0.373
 21
0.188
  0
LINE
  8
0
 10
216.488
 11
216.5
 20
0.188
 21
0
  0
LINE
  8
0
 10
216.5
 11
216.488
 20
0
 21
-0.188
  0
LINE
  8
0
 10
216.488
 11
216.453
 20
-0.188
 21
-0.373
  0
LINE
  8
0
 10
216.453
 11
216.395
 20
-0.373
 21
-0.552
  0
LINE
  8
0
 10
216.395
 11
216.314
 20
-0.552
 21
-0.723
  0
LINE
  8
0
 10
216.314
 11
216.214
 20
-0.723
 21
-0.882
  0
LINE
  8
0
 10
216.214
 11
216.093
 20
-0.882
 21
-1.027
  0
LINE
  8
0
 10
216.093
 11
215.956
 20
-1.027
 21
-1.156
  0
LINE
  8
0
 10
215.956
 11
215.804
 20
-1.156
 21
-1.266
  0
LINE
  8
0
 10
215.804
 11
215.639
 20
-1.266
 21
-1.357
  0
LINE
  8
0
 10
215.639
 11
215.464
 20
-1.357
 21
-1.427
  0
LINE
  8
0
 10
215.464
 11
215.281
 20
-1.427
 21
-1.473
  0
LINE
  8
0
 10
215.281
 11
215.094
 20
-1.473
 21
-1.497
  0
LINE
  8
0
 10
215.094
 11
214.906
 20
-1.497
 21
-1.497
  0
LINE
  8
0
 10
214.906
 11
214.719
 20
-1.497
 21
-1.473
  0
LINE
  8
0
 10
214.719
 11
214.536
 20
-1.473
 21
-1.427
  0
LINE
  8
0
 10
214.536
 11
214.361
 20
-1.427
 21
-1.357
  0
LINE
  8
0
 10
214.361
 11
214.196
 20
-1.357
 21
-1.266
  0
LINE
  8
0
 10
214.196
 11
214.044
 20
-1.266
 21
-1.156
  0
LINE
  8
0
 10
214.044
 11
213.907
 20
-1.156
 21
-1.027
  0
LINE
  8
0
 10
213.907
 11
213.786
 20
-1.027
 21
-0.882
  0
LINE
  8
0
 10
213.786
 11
213.686
 20
-0.882
 21
-0.723
  0
LINE
  8
0
 10
213.686
 11
213.605
 20
-0.723
 21
-0.552
  0
LINE
  8
0
 10
213.605
 11
213.547
 20
-0.552
 21
-0.373
  0
LINE
  8
0
 10
213.547
 11
213.512
 20
-0.373
 21
-0.188
  0
LINE
  8
0
 10
213.512
 11
213.5
 20
-0.188
 21
0
  0
LINE
  8
0
 10
213.5
 11
213.512
 20
215
 21
215.188
  0
LINE
  8
0
 10
213.512
 11
213.547
 20
215.188
 21
215.373
  0
LINE
  8
0
 10
213.547
 11
213.605
 20
215.373
 21
215.552
  0
LINE
  8
0
 10
213.605
 11
213.686
 20
215.552
 21
215.723
  0
LINE
  8
0
 10
213.686
 11
213.786
 20
215.723
 21
215.882
  0
LINE
  8
0
 10
213.786
 11
213.907
 20
215.882
 21
216.027
  0
LINE
  8
0
 10
213.907
 11
214.044
 20
216.027
 21
216.156
  0
LINE
  8
0
 10
214.044
 11
214.196
 20
216.156
 21
216.266
  0
LINE
  8
0
 10
214.196
 11
214.361
 20
216.266
 21
216.357
  0
LINE
  8
0
 10
214.361
 11
214.536
 20
216.357
 21
216.427
  0
LINE
  8
0
 10
214.536
 11
214.719
 20
216.427
 21
216.473
  0
LINE
  8
0
 10
214.719
 11
214.906
 20
216.473
 21
216.497
  0
LINE
  8
0
 10
214.906
 11
215.094
 20
216.497
 21
216.497
  0
LINE
  8
0
 10
215.094
 11
215.281
 20
216.497
 21
216.473
  0
LINE
  8
0
 10
215.281
 11
215.464
 20
216.473
 21
216.427
  0
LINE
  8
0
 10
215.464
 11
215.639
 20
216.427
 21
216.357
  0
LINE
  8
0
 10
215.639
 11
215.804
 20
216.357
 21
216.266
  0
LINE
  8
0
 10
215.804
 11
215.956
 20
216.266
 21
216.156
  0
LINE
  8
0
 10
215.956
 11
216.093
 20
216.156
 21
216.027
  0
LINE
  8
0
 10
216.093
 11
216.214
 20
216.027
 21
215.882
  0
LINE
  8
0
 10
216.214
 11
216.314
 20
215.882
 21
215.723
  0
LINE
  8
0
 10
216.314
 11
216.395
 20
215.723
 21
215.552
  0
LINE
  8
0
 10
216.395
 11
216.453
 20
215.552
 21
215.373
  0
LINE
  8
0
 10
216.453
 11
216.488
 20
215.373
 21
215.188
  0
LINE
  8
0
 10
216.488
 11
216.5
 20
215.188
 21
215
  0
LINE
  8
0
 10
216.5
 11
216.488
 20
215
 21
214.812
  0
LINE
  8
0
 10
216.488
 11
216.453
 20
214.812
 21
214.627
  0
LINE
  8
0
 10
216.453
 11
216.395
 20
214.627
 21
214.448
  0
LINE
  8
0
 10
216.395
 11
216.314
 20
214.448
 21
214.277
  0
LINE
  8
0
 10
216.314
 11
216.214
 20
214.277
 21
214.118
  0
LINE
  8
0
 10
216.214
 11
216.093
 20
214.118
 21
213.973
  0
LINE
  8
0
 10
216.093
 11
215.956
 20
213.973
 21
213.844
  0
LINE
  8
0
 10
215.956
 11
215.804
 20
213.844
 21
213.734
  0
LINE
  8
0
 10
215.804
 11
215.639
 20
213.734
 21
213.643
  0
LINE
  8
0
 10
215.639
 11
215.464
 20
213.643
 21
213.573
  0
LINE
  8
0
 10
215.464
 11
215.281
 20
213.573
 21
213.527
  0
LINE
  8
0
 10
215.281
 11
215.094
 20
213.527
 21
213.503
  0
LINE
  8
0
 10
215.094
 11
214.906
 20
213.503
 21
213.503
  0
LINE
  8
0
 10
214.906
 11
214.719
 20
213.503
 21
213.527
  0
LINE
  8
0
 10
214.719
 11
214.536
 20
213.527
 21
213.573
  0
LINE
  8
0
 10
214.536
 11
214.361
 20
213.573
 21
213.643
  0
LINE
  8
0
 10
214.361
 11
214.196
 20
213.643
 21
213.734
  0
LINE
  8
0
 10
214.196
 11
214.044
 20
213.734
 21
213.844
  0
LINE
  8
0
 10
214.044
 11
213.907
 20
213.844
 21
213.973
  0
LINE
  8
0
 10
213.907
 11
213.786
 20
213.973
 21
214.118
  0
LINE
  8
0
 10
213.786
 11
213.686
 20
214.118
 21
214.277
  0
LINE
  8
0
 10
213.686
 11
213.605
 20
214.277
 21
214.448
  0
LINE
  8
0
 10
213.605
 11
213.547
 20
214.448
 21
214.627
  0
LINE
  8
0
 10
213.547
 11
213.512
 20
214.627
 21
214.812
  0
LINE
  8
0
 10
213.512
 11
213.5
 20
214.812
 21
215
  0
LINE
  8
0
 10
213.503
 11
213.503
 20
-215.094
 21
-214.906
  0
LINE
  8
0
 10
213.503
 11
213.527
 20
-214.906
 21
-214.719
  0
LINE
  8
0
 10
213.527
 11
213.573
 20
-214.719
 21
-214.536
  0
LINE
  8
0
 10
213.573
 11
213.643
 20
-214.536
 21
-214.361
  0
LINE
  8
0
 10
213.643
 11
213.734
 20
-214.361
 21
-214.196
  0
LINE
  8
0
 10
213.734
 11
213.844
 20
-214.196
 21
-214.044
  0
LINE
  8
0
 10
213.844
 11
213.973
 20
-214.044
 21
-213.907
  0
LINE
  8
0
 10
213.973
 11
214.118
 20
-213.907
 21
-213.786
  0
LINE
  8
0
 10
214.118
 11
214.277
 20
-213.786
 21
-213.686
  0
LINE
  8
0
 10
214.277
 11
214.448
 20
-213.686
 21
-213.605
  0
LINE
  8
0
 10
214.448
 11
214.627
 20
-213.605
 21
-213.547
  0
LINE
  8
0
 10
214.627
 11
214.812
 20
-213.547
 21
-213.512
  0
LINE
  8
0
 10
214.812
 11
215
 20
-213.512
 21
-213.5
  0
LINE
  8
0
 10
215
 11
215.188
 20
-213.5
 21
-213.512
  0
LINE
  8
0
 10
215.188
 11
215.373
 20
-213.512
 21
-213.547
  0
LINE
  8
0
 10
215.373
 11
215.552
 20
-213.547
 21
-213.605
  0
LINE
  8
0
 10
215.552
 11
215.723
 20
-213.605
 21
-213.686
  0
LINE
  8
0
 10
215.723
 11
215.882
 20
-213.686
 21
-213.786
  0
LINE
  8
0
 10
215.882
 11
216.027
 20
-213.786
 21
-213.907
  0
LINE
  8
0
 10
216.027
 11
216.156
 20
-213.907
 21
-214.044
  0
LINE
  8
0
 10
216.156
 11
216.266
 20
-214.044
 21
-214.196
  0
LINE
  8
0
 10
216.266
 11
216.357
 20
-214.196
 21
-214.361
  0
LINE
  8
0
 10
216.357
 11
216.427
 20
-214.361
 21
-214.536
  0
LINE
  8
0
 10
216.427
 11
216.473
 20
-214.536
 21
-214.719
  0
LINE
  8
0
 10
216.473
 11
216.497
 20
-214.719
 21
-214.906
  0
LINE
  8
0
 10
216.497
 11
216.497
 20
-214.906
 21
-215.094
  0
LINE
  8
0
 10
216.497
 11
216.473
 20
-215.094
 21
-215.281
  0
LINE
  8
0
 10
216.473
 11
216.427
 20
-215.281
 21
-215.464
  0
LINE
  8
0
 10
216.427
 11
216.357
 20
-215.464
 21
-215.639
  0
LINE
  8
0
 10
216.357
 11
216.266
 20
-215.639
 21
-215.804
  0
LINE
  8
0
 10
216.266
 11
216.156
 20
-215.804
 21
-215.956
  0
LINE
  8
0
 10
216.156
 11
216.027
 20
-215.956
 21
-216.093
  0
LINE
  8
0
 10
216.027
 11
215.882
 20
-216.093
 21
-216.214
  0
LINE
  8
0
 10
215.882
 11
215.723
 20
-216.214
 21
-216.314
  0
LINE
  8
0
 10
215.723
 11
215.552
 20
-216.314
 21
-216.395
  0
LINE
  8
0
 10
215.552
 11
215.373
 20
-216.395
 21
-216.453
  0
LINE
  8
0
 10
215.373
 11
215.188
 20
-216.453
 21
-216.488
  0
LINE
  8
0
 10
215.188
 11
215
 20
-216.488
 21
-216.5
  0
LINE
  8
0
 10
215
 11
214.812
 20
-216.5
 21
-216.488
  0
LINE
  8
0
 10
214.812
 11
214.627
 20
-216.488
 21
-216.453
  0
LINE
  8
0
 10
214.627
 11
214.448
 20
-216.453
 21
-216.395
  0
LINE
  8
0
 10
214.448
 11
214.277
 20
-216.395
 21
-216.314
  0
LINE
  8
0
 10
214.277
 11
214.118
 20
-216.314
 21
-216.214
  0
LINE
  8
0
 10
214.118
 11
213.973
 20
-216.214
 21
-216.093
  0
LINE
  8
0
 10
213.973
 11
213.844
 20
-216.093
 21
-215.956
  0
LINE
  8
0
 10
213.844
 11
213.734
 20
-215.956
 21
-215.804
  0
LINE
  8
0
 10
213.734
 11
213.643
 20
-215.804
 21
-215.639
  0
LINE
  8
0
 10
213.643
 11
213.573
 20
-215.639
 21
-215.464
  0
LINE
  8
0
 10
213.573
 11
213.527
 20
-215.464
 21
-215.281
  0
LINE
  8
0
 10
213.527
 11
213.503
 20
-215.281
 21
-215.094
  0
ENDSEC
  0
SECTION
  2
OBJECTS
  0
DICTIONARY
  0
ENDSEC
  0
EOF
