  0
SECTION
  2
BLOCKS
  0
ENDSEC
  0
SECTION
  2
ENTITIES
  0
LINE
  8
0
 10
-225
 11
-225
 20
-225
 21
225
  0
LINE
  8
0
 10
-225
 11
225
 20
225
 21
225
  0
LINE
  8
0
 10
225
 11
225
 20
225
 21
-225
  0
LINE
  8
0
 10
225
 11
-225
 20
-225
 21
-225
  0
LINE
  8
0
 10
-216.5
 11
-216.488
 20
-215
 21
-214.812
  0
LINE
  8
0
 10
-216.488
 11
-216.453
 20
-214.812
 21
-214.627
  0
LINE
  8
0
 10
-216.453
 11
-216.395
 20
-214.627
 21
-214.448
  0
LINE
  8
0
 10
-216.395
 11
-216.314
 20
-214.448
 21
-214.277
  0
LINE
  8
0
 10
-216.314
 11
-216.214
 20
-214.277
 21
-214.118
  0
LINE
  8
0
 10
-216.214
 11
-216.093
 20
-214.118
 21
-213.973
  0
LINE
  8
0
 10
-216.093
 11
-215.956
 20
-213.973
 21
-213.844
  0
LINE
  8
0
 10
-215.956
 11
-215.804
 20
-213.844
 21
-213.734
  0
LINE
  8
0
 10
-215.804
 11
-215.639
 20
-213.734
 21
-213.643
  0
LINE
  8
0
 10
-215.639
 11
-215.464
 20
-213.643
 21
-213.573
  0
LINE
  8
0
 10
-215.464
 11
-215.281
 20
-213.573
 21
-213.527
  0
LINE
  8
0
 10
-215.281
 11
-215.094
 20
-213.527
 21
-213.503
  0
LINE
  8
0
 10
-215.094
 11
-214.906
 20
-213.503
 21
-213.503
  0
LINE
  8
0
 10
-214.906
 11
-214.719
 20
-213.503
 21
-213.527
  0
LINE
  8
0
 10
-214.719
 11
-214.536
 20
-213.527
 21
-213.573
  0
LINE
  8
0
 10
-214.536
 11
-214.361
 20
-213.573
 21
-213.643
  0
LINE
  8
0
 10
-214.361
 11
-214.196
 20
-213.643
 21
-213.734
  0
LINE
  8
0
 10
-214.196
 11
-214.044
 20
-213.734
 21
-213.844
  0
LINE
  8
0
 10
-214.044
 11
-213.907
 20
-213.844
 21
-213.973
  0
LINE
  8
0
 10
-213.907
 11
-213.786
 20
-213.973
 21
-214.118
  0
LINE
  8
0
 10
-213.786
 11
-213.686
 20
-214.118
 21
-214.277
  0
LINE
  8
0
 10
-213.686
 11
-213.605
 20
-214.277
 21
-214.448
  0
LINE
  8
0
 10
-213.605
 11
-213.547
 20
-214.448
 21
-214.627
  0
LINE
  8
0
 10
-213.547
 11
-213.512
 20
-214.627
 21
-214.812
  0
LINE
  8
0
 10
-213.512
 11
-213.5
 20
-214.812
 21
-215
  0
LINE
  8
0
 10
-213.5
 11
-213.512
 20
-215
 21
-215.188
  0
LINE
  8
0
 10
-213.512
 11
-213.547
 20
-215.188
 21
-215.373
  0
LINE
  8
0
 10
-213.547
 11
-213.605
 20
-215.373
 21
-215.552
  0
LINE
  8
0
 10
-213.605
 11
-213.686
 20
-215.552
 21
-215.723
  0
LINE
  8
0
 10
-213.686
 11
-213.786
 20
-215.723
 21
-215.882
  0
LINE
  8
0
 10
-213.786
 11
-213.907
 20
-215.882
 21
-216.027
  0
LINE
  8
0
 10
-213.907
 11
-214.044
 20
-216.027
 21
-216.156
  0
LINE
  8
0
 10
-214.044
 11
-214.196
 20
-216.156
 21
-216.266
  0
LINE
  8
0
 10
-214.196
 11
-214.361
 20
-216.266
 21
-216.357
  0
LINE
  8
0
 10
-214.361
 11
-214.536
 20
-216.357
 21
-216.427
  0
LINE
  8
0
 10
-214.536
 11
-214.719
 20
-216.427
 21
-216.473
  0
LINE
  8
0
 10
-214.719
 11
-214.906
 20
-216.473
 21
-216.497
  0
LINE
  8
0
 10
-214.906
 11
-215.094
 20
-216.497
 21
-216.497
  0
LINE
  8
0
 10
-215.094
 11
-215.281
 20
-216.497
 21
-216.473
  0
LINE
  8
0
 10
-215.281
 11
-215.464
 20
-216.473
 21
-216.427
  0
LINE
  8
0
 10
-215.464
 11
-215.639
 20
-216.427
 21
-216.357
  0
LINE
  8
0
 10
-215.639
 11
-215.804
 20
-216.357
 21
-216.266
  0
LINE
  8
0
 10
-215.804
 11
-215.956
 20
-216.266
 21
-216.156
  0
LINE
  8
0
 10
-215.956
 11
-216.093
 20
-216.156
 21
-216.027
  0
LINE
  8
0
 10
-216.093
 11
-216.214
 20
-216.027
 21
-215.882
  0
LINE
  8
0
 10
-216.214
 11
-216.314
 20
-215.882
 21
-215.723
  0
LINE
  8
0
 10
-216.314
 11
-216.395
 20
-215.723
 21
-215.552
  0
LINE
  8
0
 10
-216.395
 11
-216.453
 20
-215.552
 21
-215.373
  0
LINE
  8
0
 10
-216.453
 11
-216.488
 20
-215.373
 21
-215.188
  0
LINE
  8
0
 10
-216.488
 11
-216.5
 20
-215.188
 21
-215
  0
LINE
  8
0
 10
-216.5
 11
-216.488
 20
0
 21
0.188
  0
LINE
  8
0
 10
-216.488
 11
-216.453
 20
0.188
 21
0.373
  0
LINE
  8
0
 10
-216.453
 11
-216.395
 20
0.373
 21
0.552
  0
LINE
  8
0
 10
-216.395
 11
-216.314
 20
0.552
 21
0.723
  0
LINE
  8
0
 10
-216.314
 11
-216.214
 20
0.723
 21
0.882
  0
LINE
  8
0
 10
-216.214
 11
-216.093
 20
0.882
 21
1.027
  0
LINE
  8
0
 10
-216.093
 11
-215.956
 20
1.027
 21
1.156
  0
LINE
  8
0
 10
-215.956
 11
-215.804
 20
1.156
 21
1.266
  0
LINE
  8
0
 10
-215.804
 11
-215.639
 20
1.266
 21
1.357
  0
LINE
  8
0
 10
-215.639
 11
-215.464
 20
1.357
 21
1.427
  0
LINE
  8
0
 10
-215.464
 11
-215.281
 20
1.427
 21
1.473
  0
LINE
  8
0
 10
-215.281
 11
-215.094
 20
1.473
 21
1.497
  0
LINE
  8
0
 10
-215.094
 11
-214.906
 20
1.497
 21
1.497
  0
LINE
  8
0
 10
-214.906
 11
-214.719
 20
1.497
 21
1.473
  0
LINE
  8
0
 10
-214.719
 11
-214.536
 20
1.473
 21
1.427
  0
LINE
  8
0
 10
-214.536
 11
-214.361
 20
1.427
 21
1.357
  0
LINE
  8
0
 10
-214.361
 11
-214.196
 20
1.357
 21
1.266
  0
LINE
  8
0
 10
-214.196
 11
-214.044
 20
1.266
 21
1.156
  0
LINE
  8
0
 10
-214.044
 11
-213.907
 20
1.156
 21
1.027
  0
LINE
  8
0
 10
-213.907
 11
-213.786
 20
1.027
 21
0.882
  0
LINE
  8
0
 10
-213.786
 11
-213.686
 20
0.882
 21
0.723
  0
LINE
  8
0
 10
-213.686
 11
-213.605
 20
0.723
 21
0.552
  0
LINE
  8
0
 10
-213.605
 11
-213.547
 20
0.552
 21
0.373
  0
LINE
  8
0
 10
-213.547
 11
-213.512
 20
0.373
 21
0.188
  0
LINE
  8
0
 10
-213.512
 11
-213.5
 20
0.188
 21
0
  0
LINE
  8
0
 10
-213.5
 11
-213.512
 20
0
 21
-0.188
  0
LINE
  8
0
 10
-213.512
 11
-213.547
 20
-0.188
 21
-0.373
  0
LINE
  8
0
 10
-213.547
 11
-213.605
 20
-0.373
 21
-0.552
  0
LINE
  8
0
 10
-213.605
 11
-213.686
 20
-0.552
 21
-0.723
  0
LINE
  8
0
 10
-213.686
 11
-213.786
 20
-0.723
 21
-0.882
  0
LINE
  8
0
 10
-213.786
 11
-213.907
 20
-0.882
 21
-1.027
  0
LINE
  8
0
 10
-213.907
 11
-214.044
 20
-1.027
 21
-1.156
  0
LINE
  8
0
 10
-214.044
 11
-214.196
 20
-1.156
 21
-1.266
  0
LINE
  8
0
 10
-214.196
 11
-214.361
 20
-1.266
 21
-1.357
  0
LINE
  8
0
 10
-214.361
 11
-214.536
 20
-1.357
 21
-1.427
  0
LINE
  8
0
 10
-214.536
 11
-214.719
 20
-1.427
 21
-1.473
  0
LINE
  8
0
 10
-214.719
 11
-214.906
 20
-1.473
 21
-1.497
  0
LINE
  8
0
 10
-214.906
 11
-215.094
 20
-1.497
 21
-1.497
  0
LINE
  8
0
 10
-215.094
 11
-215.281
 20
-1.497
 21
-1.473
  0
LINE
  8
0
 10
-215.281
 11
-215.464
 20
-1.473
 21
-1.427
  0
LINE
  8
0
 10
-215.464
 11
-215.639
 20
-1.427
 21
-1.357
  0
LINE
  8
0
 10
-215.639
 11
-215.804
 20
-1.357
 21
-1.266
  0
LINE
  8
0
 10
-215.804
 11
-215.956
 20
-1.266
 21
-1.156
  0
LINE
  8
0
 10
-215.956
 11
-216.093
 20
-1.156
 21
-1.027
  0
LINE
  8
0
 10
-216.093
 11
-216.214
 20
-1.027
 21
-0.882
  0
LINE
  8
0
 10
-216.214
 11
-216.314
 20
-0.882
 21
-0.723
  0
LINE
  8
0
 10
-216.314
 11
-216.395
 20
-0.723
 21
-0.552
  0
LINE
  8
0
 10
-216.395
 11
-216.453
 20
-0.552
 21
-0.373
  0
LINE
  8
0
 10
-216.453
 11
-216.488
 20
-0.373
 21
-0.188
  0
LINE
  8
0
 10
-216.488
 11
-216.5
 20
-0.188
 21
0
  0
LINE
  8
0
 10
-216.497
 11
-216.497
 20
214.906
 21
215.094
  0
LINE
  8
0
 10
-216.497
 11
-216.473
 20
215.094
 21
215.281
  0
LINE
  8
0
 10
-216.473
 11
-216.427
 20
215.281
 21
215.464
  0
LINE
  8
0
 10
-216.427
 11
-216.357
 20
215.464
 21
215.639
  0
LINE
  8
0
 10
-216.357
 11
-216.266
 20
215.639
 21
215.804
  0
LINE
  8
0
 10
-216.266
 11
-216.156
 20
215.804
 21
215.956
  0
LINE
  8
0
 10
-216.156
 11
-216.027
 20
215.956
 21
216.093
  0
LINE
  8
0
 10
-216.027
 11
-215.882
 20
216.093
 21
216.214
  0
LINE
  8
0
 10
-215.882
 11
-215.723
 20
216.214
 21
216.314
  0
LINE
  8
0
 10
-215.723
 11
-215.552
 20
216.314
 21
216.395
  0
LINE
  8
0
 10
-215.552
 11
-215.373
 20
216.395
 21
216.453
  0
LINE
  8
0
 10
-215.373
 11
-215.188
 20
216.453
 21
216.488
  0
LINE
  8
0
 10
-215.188
 11
-215
 20
216.488
 21
216.5
  0
LINE
  8
0
 10
-215
 11
-214.812
 20
216.5
 21
216.488
  0
LINE
  8
0
 10
-214.812
 11
-214.627
 20
216.488
 21
216.453
  0
LINE
  8
0
 10
-214.627
 11
-214.448
 20
216.453
 21
216.395
  0
LINE
  8
0
 10
-214.448
 11
-214.277
 20
216.395
 21
216.314
  0
LINE
  8
0
 10
-214.277
 11
-214.118
 20
216.314
 21
216.214
  0
LINE
  8
0
 10
-214.118
 11
-213.973
 20
216.214
 21
216.093
  0
LINE
  8
0
 10
-213.973
 11
-213.844
 20
216.093
 21
215.956
  0
LINE
  8
0
 10
-213.844
 11
-213.734
 20
215.956
 21
215.804
  0
LINE
  8
0
 10
-213.734
 11
-213.643
 20
215.804
 21
215.639
  0
LINE
  8
0
 10
-213.643
 11
-213.573
 20
215.639
 21
215.464
  0
LINE
  8
0
 10
-213.573
 11
-213.527
 20
215.464
 21
215.281
  0
LINE
  8
0
 10
-213.527
 11
-213.503
 20
215.281
 21
215.094
  0
LINE
  8
0
 10
-213.503
 11
-213.503
 20
215.094
 21
214.906
  0
LINE
  8
0
 10
-213.503
 11
-213.527
 20
214.906
 21
214.719
  0
LINE
  8
0
 10
-213.527
 11
-213.573
 20
214.719
 21
214.536
  0
LINE
  8
0
 10
-213.573
 11
-213.643
 20
214.536
 21
214.361
  0
LINE
  8
0
 10
-213.643
 11
-213.734
 20
214.361
 21
214.196
  0
LINE
  8
0
 10
-213.734
 11
-213.844
 20
214.196
 21
214.044
  0
LINE
  8
0
 10
-213.844
 11
-213.973
 20
214.044
 21
213.907
  0
LINE
  8
0
 10
-213.973
 11
-214.118
 20
213.907
 21
213.786
  0
LINE
  8
0
 10
-214.118
 11
-214.277
 20
213.786
 21
213.686
  0
LINE
  8
0
 10
-214.277
 11
-214.448
 20
213.686
 21
213.605
  0
LINE
  8
0
 10
-214.448
 11
-214.627
 20
213.605
 21
213.547
  0
LINE
  8
0
 10
-214.627
 11
-214.812
 20
213.547
 21
213.512
  0
LINE
  8
0
 10
-214.812
 11
-215
 20
213.512
 21
213.5
  0
LINE
  8
0
 10
-215
 11
-215.188
 20
213.5
 21
213.512
  0
LINE
  8
0
 10
-215.188
 11
-215.373
 20
213.512
 21
213.547
  0
LINE
  8
0
 10
-215.373
 11
-215.552
 20
213.547
 21
213.605
  0
LINE
  8
0
 10
-215.552
 11
-215.723
 20
213.605
 21
213.686
  0
LINE
  8
0
 10
-215.723
 11
-215.882
 20
213.686
 21
213.786
  0
LINE
  8
0
 10
-215.882
 11
-216.027
 20
213.786
 21
213.907
  0
LINE
  8
0
 10
-216.027
 11
-216.156
 20
213.907
 21
214.044
  0
LINE
  8
0
 10
-216.156
 11
-216.266
 20
214.044
 21
214.196
  0
LINE
  8
0
 10
-216.266
 11
-216.357
 20
214.196
 21
214.361
  0
LINE
  8
0
 10
-216.357
 11
-216.427
 20
214.361
 21
214.536
  0
LINE
  8
0
 10
-216.427
 11
-216.473
 20
214.536
 21
214.719
  0
LINE
  8
0
 10
-216.473
 11
-216.497
 20
214.719
 21
214.906
  0
LINE
  8
0
 10
-204
 11
-203.968
 20
0
 21
0.501
  0
LINE
  8
0
 10
-203.968
 11
-203.874
 20
0.501
 21
0.995
  0
LINE
  8
0
 10
-203.874
 11
-203.719
 20
0.995
 21
1.472
  0
LINE
  8
0
 10
-203.719
 11
-203.505
 20
1.472
 21
1.927
  0
LINE
  8
0
 10
-203.505
 11
-203.236
 20
1.927
 21
2.351
  0
LINE
  8
0
 10
-203.236
 11
-202.916
 20
2.351
 21
2.738
  0
LINE
  8
0
 10
-202.916
 11
-202.55
 20
2.738
 21
3.082
  0
LINE
  8
0
 10
-202.55
 11
-202.143
 20
3.082
 21
3.377
  0
LINE
  8
0
 10
-202.143
 11
-201.703
 20
3.377
 21
3.619
  0
LINE
  8
0
 10
-201.703
 11
-201.236
 20
3.619
 21
3.804
  0
LINE
  8
0
 10
-201.236
 11
-200.75
 20
3.804
 21
3.929
  0
LINE
  8
0
 10
-200.75
 11
-200.251
 20
3.929
 21
3.992
  0
LINE
  8
0
 10
-200.251
 11
-199.749
 20
3.992
 21
3.992
  0
LINE
  8
0
 10
-199.749
 11
-199.25
 20
3.992
 21
3.929
  0
LINE
  8
0
 10
-199.25
 11
-198.764
 20
3.929
 21
3.804
  0
LINE
  8
0
 10
-198.764
 11
-198.297
 20
3.804
 21
3.619
  0
LINE
  8
0
 10
-198.297
 11
-197.857
 20
3.619
 21
3.377
  0
LINE
  8
0
 10
-197.857
 11
-197.45
 20
3.377
 21
3.082
  0
LINE
  8
0
 10
-197.45
 11
-197.084
 20
3.082
 21
2.738
  0
LINE
  8
0
 10
-197.084
 11
-196.764
 20
2.738
 21
2.351
  0
LINE
  8
0
 10
-196.764
 11
-196.495
 20
2.351
 21
1.927
  0
LINE
  8
0
 10
-196.495
 11
-196.281
 20
1.927
 21
1.472
  0
LINE
  8
0
 10
-196.281
 11
-196.126
 20
1.472
 21
0.995
  0
LINE
  8
0
 10
-196.126
 11
-196.032
 20
0.995
 21
0.501
  0
LINE
  8
0
 10
-196.032
 11
-196
 20
0.501
 21
0
  0
LINE
  8
0
 10
-196
 11
-196.032
 20
0
 21
-0.501
  0
LINE
  8
0
 10
-196.032
 11
-196.126
 20
-0.501
 21
-0.995
  0
LINE
  8
0
 10
-196.126
 11
-196.281
 20
-0.995
 21
-1.472
  0
LINE
  8
0
 10
-196.281
 11
-196.495
 20
-1.472
 21
-1.927
  0
LINE
  8
0
 10
-196.495
 11
-196.764
 20
-1.927
 21
-2.351
  0
LINE
  8
0
 10
-196.764
 11
-197.084
 20
-2.351
 21
-2.738
  0
LINE
  8
0
 10
-197.084
 11
-197.45
 20
-2.738
 21
-3.082
  0
LINE
  8
0
 10
-197.45
 11
-197.857
 20
-3.082
 21
-3.377
  0
LINE
  8
0
 10
-197.857
 11
-198.297
 20
-3.377
 21
-3.619
  0
LINE
  8
0
 10
-198.297
 11
-198.764
 20
-3.619
 21
-3.804
  0
LINE
  8
0
 10
-198.764
 11
-199.25
 20
-3.804
 21
-3.929
  0
LINE
  8
0
 10
-199.25
 11
-199.749
 20
-3.929
 21
-3.992
  0
LINE
  8
0
 10
-199.749
 11
-200.251
 20
-3.992
 21
-3.992
  0
LINE
  8
0
 10
-200.251
 11
-200.75
 20
-3.992
 21
-3.929
  0
LINE
  8
0
 10
-200.75
 11
-201.236
 20
-3.929
 21
-3.804
  0
LINE
  8
0
 10
-201.236
 11
-201.703
 20
-3.804
 21
-3.619
  0
LINE
  8
0
 10
-201.703
 11
-202.143
 20
-3.619
 21
-3.377
  0
LINE
  8
0
 10
-202.143
 11
-202.55
 20
-3.377
 21
-3.082
  0
LINE
  8
0
 10
-202.55
 11
-202.916
 20
-3.082
 21
-2.738
  0
LINE
  8
0
 10
-202.916
 11
-203.236
 20
-2.738
 21
-2.351
  0
LINE
  8
0
 10
-203.236
 11
-203.505
 20
-2.351
 21
-1.927
  0
LINE
  8
0
 10
-203.505
 11
-203.719
 20
-1.927
 21
-1.472
  0
LINE
  8
0
 10
-203.719
 11
-203.874
 20
-1.472
 21
-0.995
  0
LINE
  8
0
 10
-203.874
 11
-203.968
 20
-0.995
 21
-0.501
  0
LINE
  8
0
 10
-203.968
 11
-204
 20
-0.501
 21
0
  0
LINE
  8
0
 10
-202.5
 11
-202.48
 20
-200
 21
-199.687
  0
LINE
  8
0
 10
-202.48
 11
-202.421
 20
-199.687
 21
-199.378
  0
LINE
  8
0
 10
-202.421
 11
-202.324
 20
-199.378
 21
-199.08
  0
LINE
  8
0
 10
-202.324
 11
-202.191
 20
-199.08
 21
-198.796
  0
LINE
  8
0
 10
-202.191
 11
-202.023
 20
-198.796
 21
-198.531
  0
LINE
  8
0
 10
-202.023
 11
-201.822
 20
-198.531
 21
-198.289
  0
LINE
  8
0
 10
-201.822
 11
-201.594
 20
-198.289
 21
-198.074
  0
LINE
  8
0
 10
-201.594
 11
-201.34
 20
-198.074
 21
-197.889
  0
LINE
  8
0
 10
-201.34
 11
-201.064
 20
-197.889
 21
-197.738
  0
LINE
  8
0
 10
-201.064
 11
-200.773
 20
-197.738
 21
-197.622
  0
LINE
  8
0
 10
-200.773
 11
-200.468
 20
-197.622
 21
-197.544
  0
LINE
  8
0
 10
-200.468
 11
-200.157
 20
-197.544
 21
-197.505
  0
LINE
  8
0
 10
-200.157
 11
-199.843
 20
-197.505
 21
-197.505
  0
LINE
  8
0
 10
-199.843
 11
-199.532
 20
-197.505
 21
-197.544
  0
LINE
  8
0
 10
-199.532
 11
-199.227
 20
-197.544
 21
-197.622
  0
LINE
  8
0
 10
-199.227
 11
-198.936
 20
-197.622
 21
-197.738
  0
LINE
  8
0
 10
-198.936
 11
-198.66
 20
-197.738
 21
-197.889
  0
LINE
  8
0
 10
-198.66
 11
-198.406
 20
-197.889
 21
-198.074
  0
LINE
  8
0
 10
-198.406
 11
-198.178
 20
-198.074
 21
-198.289
  0
LINE
  8
0
 10
-198.178
 11
-197.977
 20
-198.289
 21
-198.531
  0
LINE
  8
0
 10
-197.977
 11
-197.809
 20
-198.531
 21
-198.796
  0
LINE
  8
0
 10
-197.809
 11
-197.676
 20
-198.796
 21
-199.08
  0
LINE
  8
0
 10
-197.676
 11
-197.579
 20
-199.08
 21
-199.378
  0
LINE
  8
0
 10
-197.579
 11
-197.52
 20
-199.378
 21
-199.687
  0
LINE
  8
0
 10
-197.52
 11
-197.5
 20
-199.687
 21
-200
  0
LINE
  8
0
 10
-197.5
 11
-197.52
 20
-200
 21
-200.313
  0
LINE
  8
0
 10
-197.52
 11
-197.579
 20
-200.313
 21
-200.622
  0
LINE
  8
0
 10
-197.579
 11
-197.676
 20
-200.622
 21
-200.92
  0
LINE
  8
0
 10
-197.676
 11
-197.809
 20
-200.92
 21
-201.204
  0
LINE
  8
0
 10
-197.809
 11
-197.977
 20
-201.204
 21
-201.469
  0
LINE
  8
0
 10
-197.977
 11
-198.178
 20
-201.469
 21
-201.711
  0
LINE
  8
0
 10
-198.178
 11
-198.406
 20
-201.711
 21
-201.926
  0
LINE
  8
0
 10
-198.406
 11
-198.66
 20
-201.926
 21
-202.111
  0
LINE
  8
0
 10
-198.66
 11
-198.936
 20
-202.111
 21
-202.262
  0
LINE
  8
0
 10
-198.936
 11
-199.227
 20
-202.262
 21
-202.378
  0
LINE
  8
0
 10
-199.227
 11
-199.532
 20
-202.378
 21
-202.456
  0
LINE
  8
0
 10
-199.532
 11
-199.843
 20
-202.456
 21
-202.495
  0
LINE
  8
0
 10
-199.843
 11
-200.157
 20
-202.495
 21
-202.495
  0
LINE
  8
0
 10
-200.157
 11
-200.468
 20
-202.495
 21
-202.456
  0
LINE
  8
0
 10
-200.468
 11
-200.773
 20
-202.456
 21
-202.378
  0
LINE
  8
0
 10
-200.773
 11
-201.064
 20
-202.378
 21
-202.262
  0
LINE
  8
0
 10
-201.064
 11
-201.34
 20
-202.262
 21
-202.111
  0
LINE
  8
0
 10
-201.34
 11
-201.594
 20
-202.111
 21
-201.926
  0
LINE
  8
0
 10
-201.594
 11
-201.822
 20
-201.926
 21
-201.711
  0
LINE
  8
0
 10
-201.822
 11
-202.023
 20
-201.711
 21
-201.469
  0
LINE
  8
0
 10
-202.023
 11
-202.191
 20
-201.469
 21
-201.204
  0
LINE
  8
0
 10
-202.191
 11
-202.324
 20
-201.204
 21
-200.92
  0
LINE
  8
0
 10
-202.324
 11
-202.421
 20
-200.92
 21
-200.622
  0
LINE
  8
0
 10
-202.421
 11
-202.48
 20
-200.622
 21
-200.313
  0
LINE
  8
0
 10
-202.48
 11
-202.5
 20
-200.313
 21
-200
  0
LINE
  8
0
 10
-202.495
 11
-202.495
 20
199.843
 21
200.157
  0
LINE
  8
0
 10
-202.495
 11
-202.456
 20
200.157
 21
200.468
  0
LINE
  8
0
 10
-202.456
 11
-202.378
 20
200.468
 21
200.773
  0
LINE
  8
0
 10
-202.378
 11
-202.262
 20
200.773
 21
201.064
  0
LINE
  8
0
 10
-202.262
 11
-202.111
 20
201.064
 21
201.34
  0
LINE
  8
0
 10
-202.111
 11
-201.926
 20
201.34
 21
201.594
  0
LINE
  8
0
 10
-201.926
 11
-201.711
 20
201.594
 21
201.822
  0
LINE
  8
0
 10
-201.711
 11
-201.469
 20
201.822
 21
202.023
  0
LINE
  8
0
 10
-201.469
 11
-201.204
 20
202.023
 21
202.191
  0
LINE
  8
0
 10
-201.204
 11
-200.92
 20
202.191
 21
202.324
  0
LINE
  8
0
 10
-200.92
 11
-200.622
 20
202.324
 21
202.421
  0
LINE
  8
0
 10
-200.622
 11
-200.313
 20
202.421
 21
202.48
  0
LINE
  8
0
 10
-200.313
 11
-200
 20
202.48
 21
202.5
  0
LINE
  8
0
 10
-200
 11
-199.687
 20
202.5
 21
202.48
  0
LINE
  8
0
 10
-199.687
 11
-199.378
 20
202.48
 21
202.421
  0
LINE
  8
0
 10
-199.378
 11
-199.08
 20
202.421
 21
202.324
  0
LINE
  8
0
 10
-199.08
 11
-198.796
 20
202.324
 21
202.191
  0
LINE
  8
0
 10
-198.796
 11
-198.531
 20
202.191
 21
202.023
  0
LINE
  8
0
 10
-198.531
 11
-198.289
 20
202.023
 21
201.822
  0
LINE
  8
0
 10
-198.289
 11
-198.074
 20
201.822
 21
201.594
  0
LINE
  8
0
 10
-198.074
 11
-197.889
 20
201.594
 21
201.34
  0
LINE
  8
0
 10
-197.889
 11
-197.738
 20
201.34
 21
201.064
  0
LINE
  8
0
 10
-197.738
 11
-197.622
 20
201.064
 21
200.773
  0
LINE
  8
0
 10
-197.622
 11
-197.544
 20
200.773
 21
200.468
  0
LINE
  8
0
 10
-197.544
 11
-197.505
 20
200.468
 21
200.157
  0
LINE
  8
0
 10
-197.505
 11
-197.505
 20
200.157
 21
199.843
  0
LINE
  8
0
 10
-197.505
 11
-197.544
 20
199.843
 21
199.532
  0
LINE
  8
0
 10
-197.544
 11
-197.622
 20
199.532
 21
199.227
  0
LINE
  8
0
 10
-197.622
 11
-197.738
 20
199.227
 21
198.936
  0
LINE
  8
0
 10
-197.738
 11
-197.889
 20
198.936
 21
198.66
  0
LINE
  8
0
 10
-197.889
 11
-198.074
 20
198.66
 21
198.406
  0
LINE
  8
0
 10
-198.074
 11
-198.289
 20
198.406
 21
198.178
  0
LINE
  8
0
 10
-198.289
 11
-198.531
 20
198.178
 21
197.977
  0
LINE
  8
0
 10
-198.531
 11
-198.796
 20
197.977
 21
197.809
  0
LINE
  8
0
 10
-198.796
 11
-199.08
 20
197.809
 21
197.676
  0
LINE
  8
0
 10
-199.08
 11
-199.378
 20
197.676
 21
197.579
  0
LINE
  8
0
 10
-199.378
 11
-199.687
 20
197.579
 21
197.52
  0
LINE
  8
0
 10
-199.687
 11
-200
 20
197.52
 21
197.5
  0
LINE
  8
0
 10
-200
 11
-200.313
 20
197.5
 21
197.52
  0
LINE
  8
0
 10
-200.313
 11
-200.622
 20
197.52
 21
197.579
  0
LINE
  8
0
 10
-200.622
 11
-200.92
 20
197.579
 21
197.676
  0
LINE
  8
0
 10
-200.92
 11
-201.204
 20
197.676
 21
197.809
  0
LINE
  8
0
 10
-201.204
 11
-201.469
 20
197.809
 21
197.977
  0
LINE
  8
0
 10
-201.469
 11
-201.711
 20
197.977
 21
198.178
  0
LINE
  8
0
 10
-201.711
 11
-201.926
 20
198.178
 21
198.406
  0
LINE
  8
0
 10
-201.926
 11
-202.111
 20
198.406
 21
198.66
  0
LINE
  8
0
 10
-202.111
 11
-202.262
 20
198.66
 21
198.936
  0
LINE
  8
0
 10
-202.262
 11
-202.378
 20
198.936
 21
199.227
  0
LINE
  8
0
 10
-202.378
 11
-202.456
 20
199.227
 21
199.532
  0
LINE
  8
0
 10
-202.456
 11
-202.495
 20
199.532
 21
199.843
  0
LINE
  8
0
 10
-1.497
 11
-1.497
 20
-215.094
 21
-214.906
  0
LINE
  8
0
 10
-1.497
 11
-1.473
 20
-214.906
 21
-214.719
  0
LINE
  8
0
 10
-1.473
 11
-1.427
 20
-214.719
 21
-214.536
  0
LINE
  8
0
 10
-1.427
 11
-1.357
 20
-214.536
 21
-214.361
  0
LINE
  8
0
 10
-1.357
 11
-1.266
 20
-214.361
 21
-214.196
  0
LINE
  8
0
 10
-1.266
 11
-1.156
 20
-214.196
 21
-214.044
  0
LINE
  8
0
 10
-1.156
 11
-1.027
 20
-214.044
 21
-213.907
  0
LINE
  8
0
 10
-1.027
 11
-0.882
 20
-213.907
 21
-213.786
  0
LINE
  8
0
 10
-0.882
 11
-0.723
 20
-213.786
 21
-213.686
  0
LINE
  8
0
 10
-0.723
 11
-0.552
 20
-213.686
 21
-213.605
  0
LINE
  8
0
 10
-0.552
 11
-0.373
 20
-213.605
 21
-213.547
  0
LINE
  8
0
 10
-0.373
 11
-0.188
 20
-213.547
 21
-213.512
  0
LINE
  8
0
 10
-0.188
 11
0
 20
-213.512
 21
-213.5
  0
LINE
  8
0
 10
0
 11
0.188
 20
-213.5
 21
-213.512
  0
LINE
  8
0
 10
0.188
 11
0.373
 20
-213.512
 21
-213.547
  0
LINE
  8
0
 10
0.373
 11
0.552
 20
-213.547
 21
-213.605
  0
LINE
  8
0
 10
0.552
 11
0.723
 20
-213.605
 21
-213.686
  0
LINE
  8
0
 10
0.723
 11
0.882
 20
-213.686
 21
-213.786
  0
LINE
  8
0
 10
0.882
 11
1.027
 20
-213.786
 21
-213.907
  0
LINE
  8
0
 10
1.027
 11
1.156
 20
-213.907
 21
-214.044
  0
LINE
  8
0
 10
1.156
 11
1.266
 20
-214.044
 21
-214.196
  0
LINE
  8
0
 10
1.266
 11
1.357
 20
-214.196
 21
-214.361
  0
LINE
  8
0
 10
1.357
 11
1.427
 20
-214.361
 21
-214.536
  0
LINE
  8
0
 10
1.427
 11
1.473
 20
-214.536
 21
-214.719
  0
LINE
  8
0
 10
1.473
 11
1.497
 20
-214.719
 21
-214.906
  0
LINE
  8
0
 10
1.497
 11
1.497
 20
-214.906
 21
-215.094
  0
LINE
  8
0
 10
1.497
 11
1.473
 20
-215.094
 21
-215.281
  0
LINE
  8
0
 10
1.473
 11
1.427
 20
-215.281
 21
-215.464
  0
LINE
  8
0
 10
1.427
 11
1.357
 20
-215.464
 21
-215.639
  0
LINE
  8
0
 10
1.357
 11
1.266
 20
-215.639
 21
-215.804
  0
LINE
  8
0
 10
1.266
 11
1.156
 20
-215.804
 21
-215.956
  0
LINE
  8
0
 10
1.156
 11
1.027
 20
-215.956
 21
-216.093
  0
LINE
  8
0
 10
1.027
 11
0.882
 20
-216.093
 21
-216.214
  0
LINE
  8
0
 10
0.882
 11
0.723
 20
-216.214
 21
-216.314
  0
LINE
  8
0
 10
0.723
 11
0.552
 20
-216.314
 21
-216.395
  0
LINE
  8
0
 10
0.552
 11
0.373
 20
-216.395
 21
-216.453
  0
LINE
  8
0
 10
0.373
 11
0.188
 20
-216.453
 21
-216.488
  0
LINE
  8
0
 10
0.188
 11
0
 20
-216.488
 21
-216.5
  0
LINE
  8
0
 10
0
 11
-0.188
 20
-216.5
 21
-216.488
  0
LINE
  8
0
 10
-0.188
 11
-0.373
 20
-216.488
 21
-216.453
  0
LINE
  8
0
 10
-0.373
 11
-0.552
 20
-216.453
 21
-216.395
  0
LINE
  8
0
 10
-0.552
 11
-0.723
 20
-216.395
 21
-216.314
  0
LINE
  8
0
 10
-0.723
 11
-0.882
 20
-216.314
 21
-216.214
  0
LINE
  8
0
 10
-0.882
 11
-1.027
 20
-216.214
 21
-216.093
  0
LINE
  8
0
 10
-1.027
 11
-1.156
 20
-216.093
 21
-215.956
  0
LINE
  8
0
 10
-1.156
 11
-1.266
 20
-215.956
 21
-215.804
  0
LINE
  8
0
 10
-1.266
 11
-1.357
 20
-215.804
 21
-215.639
  0
LINE
  8
0
 10
-1.357
 11
-1.427
 20
-215.639
 21
-215.464
  0
LINE
  8
0
 10
-1.427
 11
-1.473
 20
-215.464
 21
-215.281
  0
LINE
  8
0
 10
-1.473
 11
-1.497
 20
-215.281
 21
-215.094
  0
LINE
  8
0
 10
-1.497
 11
-1.497
 20
214.906
 21
215.094
  0
LINE
  8
0
 10
-1.497
 11
-1.473
 20
215.094
 21
215.281
  0
LINE
  8
0
 10
-1.473
 11
-1.427
 20
215.281
 21
215.464
  0
LINE
  8
0
 10
-1.427
 11
-1.357
 20
215.464
 21
215.639
  0
LINE
  8
0
 10
-1.357
 11
-1.266
 20
215.639
 21
215.804
  0
LINE
  8
0
 10
-1.266
 11
-1.156
 20
215.804
 21
215.956
  0
LINE
  8
0
 10
-1.156
 11
-1.027
 20
215.956
 21
216.093
  0
LINE
  8
0
 10
-1.027
 11
-0.882
 20
216.093
 21
216.214
  0
LINE
  8
0
 10
-0.882
 11
-0.723
 20
216.214
 21
216.314
  0
LINE
  8
0
 10
-0.723
 11
-0.552
 20
216.314
 21
216.395
  0
LINE
  8
0
 10
-0.552
 11
-0.373
 20
216.395
 21
216.453
  0
LINE
  8
0
 10
-0.373
 11
-0.188
 20
216.453
 21
216.488
  0
LINE
  8
0
 10
-0.188
 11
0
 20
216.488
 21
216.5
  0
LINE
  8
0
 10
0
 11
0.188
 20
216.5
 21
216.488
  0
LINE
  8
0
 10
0.188
 11
0.373
 20
216.488
 21
216.453
  0
LINE
  8
0
 10
0.373
 11
0.552
 20
216.453
 21
216.395
  0
LINE
  8
0
 10
0.552
 11
0.723
 20
216.395
 21
216.314
  0
LINE
  8
0
 10
0.723
 11
0.882
 20
216.314
 21
216.214
  0
LINE
  8
0
 10
0.882
 11
1.027
 20
216.214
 21
216.093
  0
LINE
  8
0
 10
1.027
 11
1.156
 20
216.093
 21
215.956
  0
LINE
  8
0
 10
1.156
 11
1.266
 20
215.956
 21
215.804
  0
LINE
  8
0
 10
1.266
 11
1.357
 20
215.804
 21
215.639
  0
LINE
  8
0
 10
1.357
 11
1.427
 20
215.639
 21
215.464
  0
LINE
  8
0
 10
1.427
 11
1.473
 20
215.464
 21
215.281
  0
LINE
  8
0
 10
1.473
 11
1.497
 20
215.281
 21
215.094
  0
LINE
  8
0
 10
1.497
 11
1.497
 20
215.094
 21
214.906
  0
LINE
  8
0
 10
1.497
 11
1.473
 20
214.906
 21
214.719
  0
LINE
  8
0
 10
1.473
 11
1.427
 20
214.719
 21
214.536
  0
LINE
  8
0
 10
1.427
 11
1.357
 20
214.536
 21
214.361
  0
LINE
  8
0
 10
1.357
 11
1.266
 20
214.361
 21
214.196
  0
LINE
  8
0
 10
1.266
 11
1.156
 20
214.196
 21
214.044
  0
LINE
  8
0
 10
1.156
 11
1.027
 20
214.044
 21
213.907
  0
LINE
  8
0
 10
1.027
 11
0.882
 20
213.907
 21
213.786
  0
LINE
  8
0
 10
0.882
 11
0.723
 20
213.786
 21
213.686
  0
LINE
  8
0
 10
0.723
 11
0.552
 20
213.686
 21
213.605
  0
LINE
  8
0
 10
0.552
 11
0.373
 20
213.605
 21
213.547
  0
LINE
  8
0
 10
0.373
 11
0.188
 20
213.547
 21
213.512
  0
LINE
  8
0
 10
0.188
 11
0
 20
213.512
 21
213.5
  0
LINE
  8
0
 10
0
 11
-0.188
 20
213.5
 21
213.512
  0
LINE
  8
0
 10
-0.188
 11
-0.373
 20
213.512
 21
213.547
  0
LINE
  8
0
 10
-0.373
 11
-0.552
 20
213.547
 21
213.605
  0
LINE
  8
0
 10
-0.552
 11
-0.723
 20
213.605
 21
213.686
  0
LINE
  8
0
 10
-0.723
 11
-0.882
 20
213.686
 21
213.786
  0
LINE
  8
0
 10
-0.882
 11
-1.027
 20
213.786
 21
213.907
  0
LINE
  8
0
 10
-1.027
 11
-1.156
 20
213.907
 21
214.044
  0
LINE
  8
0
 10
-1.156
 11
-1.266
 20
214.044
 21
214.196
  0
LINE
  8
0
 10
-1.266
 11
-1.357
 20
214.196
 21
214.361
  0
LINE
  8
0
 10
-1.357
 11
-1.427
 20
214.361
 21
214.536
  0
LINE
  8
0
 10
-1.427
 11
-1.473
 20
214.536
 21
214.719
  0
LINE
  8
0
 10
-1.473
 11
-1.497
 20
214.719
 21
214.906
  0
LINE
  8
0
 10
196
 11
196.032
 20
-85
 21
-84.499
  0
LINE
  8
0
 10
196.032
 11
196.126
 20
-84.499
 21
-84.005
  0
LINE
  8
0
 10
196.126
 11
196.281
 20
-84.005
 21
-83.528
  0
LINE
  8
0
 10
196.281
 11
196.495
 20
-83.528
 21
-83.073
  0
LINE
  8
0
 10
196.495
 11
196.764
 20
-83.073
 21
-82.649
  0
LINE
  8
0
 10
196.764
 11
197.084
 20
-82.649
 21
-82.262
  0
LINE
  8
0
 10
197.084
 11
197.45
 20
-82.262
 21
-81.918
  0
LINE
  8
0
 10
197.45
 11
197.857
 20
-81.918
 21
-81.623
  0
LINE
  8
0
 10
197.857
 11
198.297
 20
-81.623
 21
-81.381
  0
LINE
  8
0
 10
198.297
 11
198.764
 20
-81.381
 21
-81.196
  0
LINE
  8
0
 10
198.764
 11
199.25
 20
-81.196
 21
-81.071
  0
LINE
  8
0
 10
199.25
 11
199.749
 20
-81.071
 21
-81.008
  0
LINE
  8
0
 10
199.749
 11
200.251
 20
-81.008
 21
-81.008
  0
LINE
  8
0
 10
200.251
 11
200.75
 20
-81.008
 21
-81.071
  0
LINE
  8
0
 10
200.75
 11
201.236
 20
-81.071
 21
-81.196
  0
LINE
  8
0
 10
201.236
 11
201.703
 20
-81.196
 21
-81.381
  0
LINE
  8
0
 10
201.703
 11
202.143
 20
-81.381
 21
-81.623
  0
LINE
  8
0
 10
202.143
 11
202.55
 20
-81.623
 21
-81.918
  0
LINE
  8
0
 10
202.55
 11
202.916
 20
-81.918
 21
-82.262
  0
LINE
  8
0
 10
202.916
 11
203.236
 20
-82.262
 21
-82.649
  0
LINE
  8
0
 10
203.236
 11
203.505
 20
-82.649
 21
-83.073
  0
LINE
  8
0
 10
203.505
 11
203.719
 20
-83.073
 21
-83.528
  0
LINE
  8
0
 10
203.719
 11
203.874
 20
-83.528
 21
-84.005
  0
LINE
  8
0
 10
203.874
 11
203.968
 20
-84.005
 21
-84.499
  0
LINE
  8
0
 10
203.968
 11
204
 20
-84.499
 21
-85
  0
LINE
  8
0
 10
204
 11
203.968
 20
-85
 21
-85.501
  0
LINE
  8
0
 10
203.968
 11
203.874
 20
-85.501
 21
-85.995
  0
LINE
  8
0
 10
203.874
 11
203.719
 20
-85.995
 21
-86.472
  0
LINE
  8
0
 10
203.719
 11
203.505
 20
-86.472
 21
-86.927
  0
LINE
  8
0
 10
203.505
 11
203.236
 20
-86.927
 21
-87.351
  0
LINE
  8
0
 10
203.236
 11
202.916
 20
-87.351
 21
-87.738
  0
LINE
  8
0
 10
202.916
 11
202.55
 20
-87.738
 21
-88.082
  0
LINE
  8
0
 10
202.55
 11
202.143
 20
-88.082
 21
-88.377
  0
LINE
  8
0
 10
202.143
 11
201.703
 20
-88.377
 21
-88.619
  0
LINE
  8
0
 10
201.703
 11
201.236
 20
-88.619
 21
-88.804
  0
LINE
  8
0
 10
201.236
 11
200.75
 20
-88.804
 21
-88.929
  0
LINE
  8
0
 10
200.75
 11
200.251
 20
-88.929
 21
-88.992
  0
LINE
  8
0
 10
200.251
 11
199.749
 20
-88.992
 21
-88.992
  0
LINE
  8
0
 10
199.749
 11
199.25
 20
-88.992
 21
-88.929
  0
LINE
  8
0
 10
199.25
 11
198.764
 20
-88.929
 21
-88.804
  0
LINE
  8
0
 10
198.764
 11
198.297
 20
-88.804
 21
-88.619
  0
LINE
  8
0
 10
198.297
 11
197.857
 20
-88.619
 21
-88.377
  0
LINE
  8
0
 10
197.857
 11
197.45
 20
-88.377
 21
-88.082
  0
LINE
  8
0
 10
197.45
 11
197.084
 20
-88.082
 21
-87.738
  0
LINE
  8
0
 10
197.084
 11
196.764
 20
-87.738
 21
-87.351
  0
LINE
  8
0
 10
196.764
 11
196.495
 20
-87.351
 21
-86.927
  0
LINE
  8
0
 10
196.495
 11
196.281
 20
-86.927
 21
-86.472
  0
LINE
  8
0
 10
196.281
 11
196.126
 20
-86.472
 21
-85.995
  0
LINE
  8
0
 10
196.126
 11
196.032
 20
-85.995
 21
-85.501
  0
LINE
  8
0
 10
196.032
 11
196
 20
-85.501
 21
-85
  0
LINE
  8
0
 10
196
 11
196.032
 20
85
 21
85.501
  0
LINE
  8
0
 10
196.032
 11
196.126
 20
85.501
 21
85.995
  0
LINE
  8
0
 10
196.126
 11
196.281
 20
85.995
 21
86.472
  0
LINE
  8
0
 10
196.281
 11
196.495
 20
86.472
 21
86.927
  0
LINE
  8
0
 10
196.495
 11
196.764
 20
86.927
 21
87.351
  0
LINE
  8
0
 10
196.764
 11
197.084
 20
87.351
 21
87.738
  0
LINE
  8
0
 10
197.084
 11
197.45
 20
87.738
 21
88.082
  0
LINE
  8
0
 10
197.45
 11
197.857
 20
88.082
 21
88.377
  0
LINE
  8
0
 10
197.857
 11
198.297
 20
88.377
 21
88.619
  0
LINE
  8
0
 10
198.297
 11
198.764
 20
88.619
 21
88.804
  0
LINE
  8
0
 10
198.764
 11
199.25
 20
88.804
 21
88.929
  0
LINE
  8
0
 10
199.25
 11
199.749
 20
88.929
 21
88.992
  0
LINE
  8
0
 10
199.749
 11
200.251
 20
88.992
 21
88.992
  0
LINE
  8
0
 10
200.251
 11
200.75
 20
88.992
 21
88.929
  0
LINE
  8
0
 10
200.75
 11
201.236
 20
88.929
 21
88.804
  0
LINE
  8
0
 10
201.236
 11
201.703
 20
88.804
 21
88.619
  0
LINE
  8
0
 10
201.703
 11
202.143
 20
88.619
 21
88.377
  0
LINE
  8
0
 10
202.143
 11
202.55
 20
88.377
 21
88.082
  0
LINE
  8
0
 10
202.55
 11
202.916
 20
88.082
 21
87.738
  0
LINE
  8
0
 10
202.916
 11
203.236
 20
87.738
 21
87.351
  0
LINE
  8
0
 10
203.236
 11
203.505
 20
87.351
 21
86.927
  0
LINE
  8
0
 10
203.505
 11
203.719
 20
86.927
 21
86.472
  0
LINE
  8
0
 10
203.719
 11
203.874
 20
86.472
 21
85.995
  0
LINE
  8
0
 10
203.874
 11
203.968
 20
85.995
 21
85.501
  0
LINE
  8
0
 10
203.968
 11
204
 20
85.501
 21
85
  0
LINE
  8
0
 10
204
 11
203.968
 20
85
 21
84.499
  0
LINE
  8
0
 10
203.968
 11
203.874
 20
84.499
 21
84.005
  0
LINE
  8
0
 10
203.874
 11
203.719
 20
84.005
 21
83.528
  0
LINE
  8
0
 10
203.719
 11
203.505
 20
83.528
 21
83.073
  0
LINE
  8
0
 10
203.505
 11
203.236
 20
83.073
 21
82.649
  0
LINE
  8
0
 10
203.236
 11
202.916
 20
82.649
 21
82.262
  0
LINE
  8
0
 10
202.916
 11
202.55
 20
82.262
 21
81.918
  0
LINE
  8
0
 10
202.55
 11
202.143
 20
81.918
 21
81.623
  0
LINE
  8
0
 10
202.143
 11
201.703
 20
81.623
 21
81.381
  0
LINE
  8
0
 10
201.703
 11
201.236
 20
81.381
 21
81.196
  0
LINE
  8
0
 10
201.236
 11
200.75
 20
81.196
 21
81.071
  0
LINE
  8
0
 10
200.75
 11
200.251
 20
81.071
 21
81.008
  0
LINE
  8
0
 10
200.251
 11
199.749
 20
81.008
 21
81.008
  0
LINE
  8
0
 10
199.749
 11
199.25
 20
81.008
 21
81.071
  0
LINE
  8
0
 10
199.25
 11
198.764
 20
81.071
 21
81.196
  0
LINE
  8
0
 10
198.764
 11
198.297
 20
81.196
 21
81.381
  0
LINE
  8
0
 10
198.297
 11
197.857
 20
81.381
 21
81.623
  0
LINE
  8
0
 10
197.857
 11
197.45
 20
81.623
 21
81.918
  0
LINE
  8
0
 10
197.45
 11
197.084
 20
81.918
 21
82.262
  0
LINE
  8
0
 10
197.084
 11
196.764
 20
82.262
 21
82.649
  0
LINE
  8
0
 10
196.764
 11
196.495
 20
82.649
 21
83.073
  0
LINE
  8
0
 10
196.495
 11
196.281
 20
83.073
 21
83.528
  0
LINE
  8
0
 10
196.281
 11
196.126
 20
83.528
 21
84.005
  0
LINE
  8
0
 10
196.126
 11
196.032
 20
84.005
 21
84.499
  0
LINE
  8
0
 10
196.032
 11
196
 20
84.499
 21
85
  0
LINE
  8
0
 10
197.5
 11
197.52
 20
200
 21
200.313
  0
LINE
  8
0
 10
197.52
 11
197.579
 20
200.313
 21
200.622
  0
LINE
  8
0
 10
197.579
 11
197.676
 20
200.622
 21
200.92
  0
LINE
  8
0
 10
197.676
 11
197.809
 20
200.92
 21
201.204
  0
LINE
  8
0
 10
197.809
 11
197.977
 20
201.204
 21
201.469
  0
LINE
  8
0
 10
197.977
 11
198.178
 20
201.469
 21
201.711
  0
LINE
  8
0
 10
198.178
 11
198.406
 20
201.711
 21
201.926
  0
LINE
  8
0
 10
198.406
 11
198.66
 20
201.926
 21
202.111
  0
LINE
  8
0
 10
198.66
 11
198.936
 20
202.111
 21
202.262
  0
LINE
  8
0
 10
198.936
 11
199.227
 20
202.262
 21
202.378
  0
LINE
  8
0
 10
199.227
 11
199.532
 20
202.378
 21
202.456
  0
LINE
  8
0
 10
199.532
 11
199.843
 20
202.456
 21
202.495
  0
LINE
  8
0
 10
199.843
 11
200.157
 20
202.495
 21
202.495
  0
LINE
  8
0
 10
200.157
 11
200.468
 20
202.495
 21
202.456
  0
LINE
  8
0
 10
200.468
 11
200.773
 20
202.456
 21
202.378
  0
LINE
  8
0
 10
200.773
 11
201.064
 20
202.378
 21
202.262
  0
LINE
  8
0
 10
201.064
 11
201.34
 20
202.262
 21
202.111
  0
LINE
  8
0
 10
201.34
 11
201.594
 20
202.111
 21
201.926
  0
LINE
  8
0
 10
201.594
 11
201.822
 20
201.926
 21
201.711
  0
LINE
  8
0
 10
201.822
 11
202.023
 20
201.711
 21
201.469
  0
LINE
  8
0
 10
202.023
 11
202.191
 20
201.469
 21
201.204
  0
LINE
  8
0
 10
202.191
 11
202.324
 20
201.204
 21
200.92
  0
LINE
  8
0
 10
202.324
 11
202.421
 20
200.92
 21
200.622
  0
LINE
  8
0
 10
202.421
 11
202.48
 20
200.622
 21
200.313
  0
LINE
  8
0
 10
202.48
 11
202.5
 20
200.313
 21
200
  0
LINE
  8
0
 10
202.5
 11
202.48
 20
200
 21
199.687
  0
LINE
  8
0
 10
202.48
 11
202.421
 20
199.687
 21
199.378
  0
LINE
  8
0
 10
202.421
 11
202.324
 20
199.378
 21
199.08
  0
LINE
  8
0
 10
202.324
 11
202.191
 20
199.08
 21
198.796
  0
LINE
  8
0
 10
202.191
 11
202.023
 20
198.796
 21
198.531
  0
LINE
  8
0
 10
202.023
 11
201.822
 20
198.531
 21
198.289
  0
LINE
  8
0
 10
201.822
 11
201.594
 20
198.289
 21
198.074
  0
LINE
  8
0
 10
201.594
 11
201.34
 20
198.074
 21
197.889
  0
LINE
  8
0
 10
201.34
 11
201.064
 20
197.889
 21
197.738
  0
LINE
  8
0
 10
201.064
 11
200.773
 20
197.738
 21
197.622
  0
LINE
  8
0
 10
200.773
 11
200.468
 20
197.622
 21
197.544
  0
LINE
  8
0
 10
200.468
 11
200.157
 20
197.544
 21
197.505
  0
LINE
  8
0
 10
200.157
 11
199.843
 20
197.505
 21
197.505
  0
LINE
  8
0
 10
199.843
 11
199.532
 20
197.505
 21
197.544
  0
LINE
  8
0
 10
199.532
 11
199.227
 20
197.544
 21
197.622
  0
LINE
  8
0
 10
199.227
 11
198.936
 20
197.622
 21
197.738
  0
LINE
  8
0
 10
198.936
 11
198.66
 20
197.738
 21
197.889
  0
LINE
  8
0
 10
198.66
 11
198.406
 20
197.889
 21
198.074
  0
LINE
  8
0
 10
198.406
 11
198.178
 20
198.074
 21
198.289
  0
LINE
  8
0
 10
198.178
 11
197.977
 20
198.289
 21
198.531
  0
LINE
  8
0
 10
197.977
 11
197.809
 20
198.531
 21
198.796
  0
LINE
  8
0
 10
197.809
 11
197.676
 20
198.796
 21
199.08
  0
LINE
  8
0
 10
197.676
 11
197.579
 20
199.08
 21
199.378
  0
LINE
  8
0
 10
197.579
 11
197.52
 20
199.378
 21
199.687
  0
LINE
  8
0
 10
197.52
 11
197.5
 20
199.687
 21
200
  0
LINE
  8
0
 10
197.505
 11
197.505
 20
-200.157
 21
-199.843
  0
LINE
  8
0
 10
197.505
 11
197.544
 20
-199.843
 21
-199.532
  0
LINE
  8
0
 10
197.544
 11
197.622
 20
-199.532
 21
-199.227
  0
LINE
  8
0
 10
197.622
 11
197.738
 20
-199.227
 21
-198.936
  0
LINE
  8
0
 10
197.738
 11
197.889
 20
-198.936
 21
-198.66
  0
LINE
  8
0
 10
197.889
 11
198.074
 20
-198.66
 21
-198.406
  0
LINE
  8
0
 10
198.074
 11
198.289
 20
-198.406
 21
-198.178
  0
LINE
  8
0
 10
198.289
 11
198.531
 20
-198.178
 21
-197.977
  0
LINE
  8
0
 10
198.531
 11
198.796
 20
-197.977
 21
-197.809
  0
LINE
  8
0
 10
198.796
 11
199.08
 20
-197.809
 21
-197.676
  0
LINE
  8
0
 10
199.08
 11
199.378
 20
-197.676
 21
-197.579
  0
LINE
  8
0
 10
199.378
 11
199.687
 20
-197.579
 21
-197.52
  0
LINE
  8
0
 10
199.687
 11
200
 20
-197.52
 21
-197.5
  0
LINE
  8
0
 10
200
 11
200.313
 20
-197.5
 21
-197.52
  0
LINE
  8
0
 10
200.313
 11
200.622
 20
-197.52
 21
-197.579
  0
LINE
  8
0
 10
200.622
 11
200.92
 20
-197.579
 21
-197.676
  0
LINE
  8
0
 10
200.92
 11
201.204
 20
-197.676
 21
-197.809
  0
LINE
  8
0
 10
201.204
 11
201.469
 20
-197.809
 21
-197.977
  0
LINE
  8
0
 10
201.469
 11
201.711
 20
-197.977
 21
-198.178
  0
LINE
  8
0
 10
201.711
 11
201.926
 20
-198.178
 21
-198.406
  0
LINE
  8
0
 10
201.926
 11
202.111
 20
-198.406
 21
-198.66
  0
LINE
  8
0
 10
202.111
 11
202.262
 20
-198.66
 21
-198.936
  0
LINE
  8
0
 10
202.262
 11
202.378
 20
-198.936
 21
-199.227
  0
LINE
  8
0
 10
202.378
 11
202.456
 20
-199.227
 21
-199.532
  0
LINE
  8
0
 10
202.456
 11
202.495
 20
-199.532
 21
-199.843
  0
LINE
  8
0
 10
202.495
 11
202.495
 20
-199.843
 21
-200.157
  0
LINE
  8
0
 10
202.495
 11
202.456
 20
-200.157
 21
-200.468
  0
LINE
  8
0
 10
202.456
 11
202.378
 20
-200.468
 21
-200.773
  0
LINE
  8
0
 10
202.378
 11
202.262
 20
-200.773
 21
-201.064
  0
LINE
  8
0
 10
202.262
 11
202.111
 20
-201.064
 21
-201.34
  0
LINE
  8
0
 10
202.111
 11
201.926
 20
-201.34
 21
-201.594
  0
LINE
  8
0
 10
201.926
 11
201.711
 20
-201.594
 21
-201.822
  0
LINE
  8
0
 10
201.711
 11
201.469
 20
-201.822
 21
-202.023
  0
LINE
  8
0
 10
201.469
 11
201.204
 20
-202.023
 21
-202.191
  0
LINE
  8
0
 10
201.204
 11
200.92
 20
-202.191
 21
-202.324
  0
LINE
  8
0
 10
200.92
 11
200.622
 20
-202.324
 21
-202.421
  0
LINE
  8
0
 10
200.622
 11
200.313
 20
-202.421
 21
-202.48
  0
LINE
  8
0
 10
200.313
 11
200
 20
-202.48
 21
-202.5
  0
LINE
  8
0
 10
200
 11
199.687
 20
-202.5
 21
-202.48
  0
LINE
  8
0
 10
199.687
 11
199.378
 20
-202.48
 21
-202.421
  0
LINE
  8
0
 10
199.378
 11
199.08
 20
-202.421
 21
-202.324
  0
LINE
  8
0
 10
199.08
 11
198.796
 20
-202.324
 21
-202.191
  0
LINE
  8
0
 10
198.796
 11
198.531
 20
-202.191
 21
-202.023
  0
LINE
  8
0
 10
198.531
 11
198.289
 20
-202.023
 21
-201.822
  0
LINE
  8
0
 10
198.289
 11
198.074
 20
-201.822
 21
-201.594
  0
LINE
  8
0
 10
198.074
 11
197.889
 20
-201.594
 21
-201.34
  0
LINE
  8
0
 10
197.889
 11
197.738
 20
-201.34
 21
-201.064
  0
LINE
  8
0
 10
197.738
 11
197.622
 20
-201.064
 21
-200.773
  0
LINE
  8
0
 10
197.622
 11
197.544
 20
-200.773
 21
-200.468
  0
LINE
  8
0
 10
197.544
 11
197.505
 20
-200.468
 21
-200.157
  0
LINE
  8
0
 10
213.5
 11
213.512
 20
0
 21
0.188
  0
LINE
  8
0
 10
213.512
 11
213.547
 20
0.188
 21
0.373
  0
LINE
  8
0
 10
213.547
 11
213.605
 20
0.373
 21
0.552
  0
LINE
  8
0
 10
213.605
 11
213.686
 20
0.552
 21
0.723
  0
LINE
  8
0
 10
213.686
 11
213.786
 20
0.723
 21
0.882
  0
LINE
  8
0
 10
213.786
 11
213.907
 20
0.882
 21
1.027
  0
LINE
  8
0
 10
213.907
 11
214.044
 20
1.027
 21
1.156
  0
LINE
  8
0
 10
214.044
 11
214.196
 20
1.156
 21
1.266
  0
LINE
  8
0
 10
214.196
 11
214.361
 20
1.266
 21
1.357
  0
LINE
  8
0
 10
214.361
 11
214.536
 20
1.357
 21
1.427
  0
LINE
  8
0
 10
214.536
 11
214.719
 20
1.427
 21
1.473
  0
LINE
  8
0
 10
214.719
 11
214.906
 20
1.473
 21
1.497
  0
LINE
  8
0
 10
214.906
 11
215.094
 20
1.497
 21
1.497
  0
LINE
  8
0
 10
215.094
 11
215.281
 20
1.497
 21
1.473
  0
LINE
  8
0
 10
215.281
 11
215.464
 20
1.473
 21
1.427
  0
LINE
  8
0
 10
215.464
 11
215.639
 20
1.427
 21
1.357
  0
LINE
  8
0
 10
215.639
 11
215.804
 20
1.357
 21
1.266
  0
LINE
  8
0
 10
215.804
 11
215.956
 20
1.266
 21
1.156
  0
LINE
  8
0
 10
215.956
 11
216.093
 20
1.156
 21
1.027
  0
LINE
  8
0
 10
216.093
 11
216.214
 20
1.027
 21
0.882
  0
LINE
  8
0
 10
216.214
 11
216.314
 20
0.882
 21
0.723
  0
LINE
  8
0
 10
216.314
 11
216.395
 20
0.723
 21
0.552
  0
LINE
  8
0
 10
216.395
 11
216.453
 20
0.552
 21
0.373
  0
LINE
  8
0
 10
216.453
 11
216.488
 20
0.373
 21
0.188
  0
LINE
  8
0
 10
216.488
 11
216.5
 20
0.188
 21
0
  0
LINE
  8
0
 10
216.5
 11
216.488
 20
0
 21
-0.188
  0
LINE
  8
0
 10
216.488
 11
216.453
 20
-0.188
 21
-0.373
  0
LINE
  8
0
 10
216.453
 11
216.395
 20
-0.373
 21
-0.552
  0
LINE
  8
0
 10
216.395
 11
216.314
 20
-0.552
 21
-0.723
  0
LINE
  8
0
 10
216.314
 11
216.214
 20
-0.723
 21
-0.882
  0
LINE
  8
0
 10
216.214
 11
216.093
 20
-0.882
 21
-1.027
  0
LINE
  8
0
 10
216.093
 11
215.956
 20
-1.027
 21
-1.156
  0
LINE
  8
0
 10
215.956
 11
215.804
 20
-1.156
 21
-1.266
  0
LINE
  8
0
 10
215.804
 11
215.639
 20
-1.266
 21
-1.357
  0
LINE
  8
0
 10
215.639
 11
215.464
 20
-1.357
 21
-1.427
  0
LINE
  8
0
 10
215.464
 11
215.281
 20
-1.427
 21
-1.473
  0
LINE
  8
0
 10
215.281
 11
215.094
 20
-1.473
 21
-1.497
  0
LINE
  8
0
 10
215.094
 11
214.906
 20
-1.497
 21
-1.497
  0
LINE
  8
0
 10
214.906
 11
214.719
 20
-1.497
 21
-1.473
  0
LINE
  8
0
 10
214.719
 11
214.536
 20
-1.473
 21
-1.427
  0
LINE
  8
0
 10
214.536
 11
214.361
 20
-1.427
 21
-1.357
  0
LINE
  8
0
 10
214.361
 11
214.196
 20
-1.357
 21
-1.266
  0
LINE
  8
0
 10
214.196
 11
214.044
 20
-1.266
 21
-1.156
  0
LINE
  8
0
 10
214.044
 11
213.907
 20
-1.156
 21
-1.027
  0
LINE
  8
0
 10
213.907
 11
213.786
 20
-1.027
 21
-0.882
  0
LINE
  8
0
 10
213.786
 11
213.686
 20
-0.882
 21
-0.723
  0
LINE
  8
0
 10
213.686
 11
213.605
 20
-0.723
 21
-0.552
  0
LINE
  8
0
 10
213.605
 11
213.547
 20
-0.552
 21
-0.373
  0
LINE
  8
0
 10
213.547
 11
213.512
 20
-0.373
 21
-0.188
  0
LINE
  8
0
 10
213.512
 11
213.5
 20
-0.188
 21
0
  0
LINE
  8
0
 10
213.5
 11
213.512
 20
215
 21
215.188
  0
LINE
  8
0
 10
213.512
 11
213.547
 20
215.188
 21
215.373
  0
LINE
  8
0
 10
213.547
 11
213.605
 20
215.373
 21
215.552
  0
LINE
  8
0
 10
213.605
 11
213.686
 20
215.552
 21
215.723
  0
LINE
  8
0
 10
213.686
 11
213.786
 20
215.723
 21
215.882
  0
LINE
  8
0
 10
213.786
 11
213.907
 20
215.882
 21
216.027
  0
LINE
  8
0
 10
213.907
 11
214.044
 20
216.027
 21
216.156
  0
LINE
  8
0
 10
214.044
 11
214.196
 20
216.156
 21
216.266
  0
LINE
  8
0
 10
214.196
 11
214.361
 20
216.266
 21
216.357
  0
LINE
  8
0
 10
214.361
 11
214.536
 20
216.357
 21
216.427
  0
LINE
  8
0
 10
214.536
 11
214.719
 20
216.427
 21
216.473
  0
LINE
  8
0
 10
214.719
 11
214.906
 20
216.473
 21
216.497
  0
LINE
  8
0
 10
214.906
 11
215.094
 20
216.497
 21
216.497
  0
LINE
  8
0
 10
215.094
 11
215.281
 20
216.497
 21
216.473
  0
LINE
  8
0
 10
215.281
 11
215.464
 20
216.473
 21
216.427
  0
LINE
  8
0
 10
215.464
 11
215.639
 20
216.427
 21
216.357
  0
LINE
  8
0
 10
215.639
 11
215.804
 20
216.357
 21
216.266
  0
LINE
  8
0
 10
215.804
 11
215.956
 20
216.266
 21
216.156
  0
LINE
  8
0
 10
215.956
 11
216.093
 20
216.156
 21
216.027
  0
LINE
  8
0
 10
216.093
 11
216.214
 20
216.027
 21
215.882
  0
LINE
  8
0
 10
216.214
 11
216.314
 20
215.882
 21
215.723
  0
LINE
  8
0
 10
216.314
 11
216.395
 20
215.723
 21
215.552
  0
LINE
  8
0
 10
216.395
 11
216.453
 20
215.552
 21
215.373
  0
LINE
  8
0
 10
216.453
 11
216.488
 20
215.373
 21
215.188
  0
LINE
  8
0
 10
216.488
 11
216.5
 20
215.188
 21
215
  0
LINE
  8
0
 10
216.5
 11
216.488
 20
215
 21
214.812
  0
LINE
  8
0
 10
216.488
 11
216.453
 20
214.812
 21
214.627
  0
LINE
  8
0
 10
216.453
 11
216.395
 20
214.627
 21
214.448
  0
LINE
  8
0
 10
216.395
 11
216.314
 20
214.448
 21
214.277
  0
LINE
  8
0
 10
216.314
 11
216.214
 20
214.277
 21
214.118
  0
LINE
  8
0
 10
216.214
 11
216.093
 20
214.118
 21
213.973
  0
LINE
  8
0
 10
216.093
 11
215.956
 20
213.973
 21
213.844
  0
LINE
  8
0
 10
215.956
 11
215.804
 20
213.844
 21
213.734
  0
LINE
  8
0
 10
215.804
 11
215.639
 20
213.734
 21
213.643
  0
LINE
  8
0
 10
215.639
 11
215.464
 20
213.643
 21
213.573
  0
LINE
  8
0
 10
215.464
 11
215.281
 20
213.573
 21
213.527
  0
LINE
  8
0
 10
215.281
 11
215.094
 20
213.527
 21
213.503
  0
LINE
  8
0
 10
215.094
 11
214.906
 20
213.503
 21
213.503
  0
LINE
  8
0
 10
214.906
 11
214.719
 20
213.503
 21
213.527
  0
LINE
  8
0
 10
214.719
 11
214.536
 20
213.527
 21
213.573
  0
LINE
  8
0
 10
214.536
 11
214.361
 20
213.573
 21
213.643
  0
LINE
  8
0
 10
214.361
 11
214.196
 20
213.643
 21
213.734
  0
LINE
  8
0
 10
214.196
 11
214.044
 20
213.734
 21
213.844
  0
LINE
  8
0
 10
214.044
 11
213.907
 20
213.844
 21
213.973
  0
LINE
  8
0
 10
213.907
 11
213.786
 20
213.973
 21
214.118
  0
LINE
  8
0
 10
213.786
 11
213.686
 20
214.118
 21
214.277
  0
LINE
  8
0
 10
213.686
 11
213.605
 20
214.277
 21
214.448
  0
LINE
  8
0
 10
213.605
 11
213.547
 20
214.448
 21
214.627
  0
LINE
  8
0
 10
213.547
 11
213.512
 20
214.627
 21
214.812
  0
LINE
  8
0
 10
213.512
 11
213.5
 20
214.812
 21
215
  0
LINE
  8
0
 10
213.503
 11
213.503
 20
-215.094
 21
-214.906
  0
LINE
  8
0
 10
213.503
 11
213.527
 20
-214.906
 21
-214.719
  0
LINE
  8
0
 10
213.527
 11
213.573
 20
-214.719
 21
-214.536
  0
LINE
  8
0
 10
213.573
 11
213.643
 20
-214.536
 21
-214.361
  0
LINE
  8
0
 10
213.643
 11
213.734
 20
-214.361
 21
-214.196
  0
LINE
  8
0
 10
213.734
 11
213.844
 20
-214.196
 21
-214.044
  0
LINE
  8
0
 10
213.844
 11
213.973
 20
-214.044
 21
-213.907
  0
LINE
  8
0
 10
213.973
 11
214.118
 20
-213.907
 21
-213.786
  0
LINE
  8
0
 10
214.118
 11
214.277
 20
-213.786
 21
-213.686
  0
LINE
  8
0
 10
214.277
 11
214.448
 20
-213.686
 21
-213.605
  0
LINE
  8
0
 10
214.448
 11
214.627
 20
-213.605
 21
-213.547
  0
LINE
  8
0
 10
214.627
 11
214.812
 20
-213.547
 21
-213.512
  0
LINE
  8
0
 10
214.812
 11
215
 20
-213.512
 21
-213.5
  0
LINE
  8
0
 10
215
 11
215.188
 20
-213.5
 21
-213.512
  0
LINE
  8
0
 10
215.188
 11
215.373
 20
-213.512
 21
-213.547
  0
LINE
  8
0
 10
215.373
 11
215.552
 20
-213.547
 21
-213.605
  0
LINE
  8
0
 10
215.552
 11
215.723
 20
-213.605
 21
-213.686
  0
LINE
  8
0
 10
215.723
 11
215.882
 20
-213.686
 21
-213.786
  0
LINE
  8
0
 10
215.882
 11
216.027
 20
-213.786
 21
-213.907
  0
LINE
  8
0
 10
216.027
 11
216.156
 20
-213.907
 21
-214.044
  0
LINE
  8
0
 10
216.156
 11
216.266
 20
-214.044
 21
-214.196
  0
LINE
  8
0
 10
216.266
 11
216.357
 20
-214.196
 21
-214.361
  0
LINE
  8
0
 10
216.357
 11
216.427
 20
-214.361
 21
-214.536
  0
LINE
  8
0
 10
216.427
 11
216.473
 20
-214.536
 21
-214.719
  0
LINE
  8
0
 10
216.473
 11
216.497
 20
-214.719
 21
-214.906
  0
LINE
  8
0
 10
216.497
 11
216.497
 20
-214.906
 21
-215.094
  0
LINE
  8
0
 10
216.497
 11
216.473
 20
-215.094
 21
-215.281
  0
LINE
  8
0
 10
216.473
 11
216.427
 20
-215.281
 21
-215.464
  0
LINE
  8
0
 10
216.427
 11
216.357
 20
-215.464
 21
-215.639
  0
LINE
  8
0
 10
216.357
 11
216.266
 20
-215.639
 21
-215.804
  0
LINE
  8
0
 10
216.266
 11
216.156
 20
-215.804
 21
-215.956
  0
LINE
  8
0
 10
216.156
 11
216.027
 20
-215.956
 21
-216.093
  0
LINE
  8
0
 10
216.027
 11
215.882
 20
-216.093
 21
-216.214
  0
LINE
  8
0
 10
215.882
 11
215.723
 20
-216.214
 21
-216.314
  0
LINE
  8
0
 10
215.723
 11
215.552
 20
-216.314
 21
-216.395
  0
LINE
  8
0
 10
215.552
 11
215.373
 20
-216.395
 21
-216.453
  0
LINE
  8
0
 10
215.373
 11
215.188
 20
-216.453
 21
-216.488
  0
LINE
  8
0
 10
215.188
 11
215
 20
-216.488
 21
-216.5
  0
LINE
  8
0
 10
215
 11
214.812
 20
-216.5
 21
-216.488
  0
LINE
  8
0
 10
214.812
 11
214.627
 20
-216.488
 21
-216.453
  0
LINE
  8
0
 10
214.627
 11
214.448
 20
-216.453
 21
-216.395
  0
LINE
  8
0
 10
214.448
 11
214.277
 20
-216.395
 21
-216.314
  0
LINE
  8
0
 10
214.277
 11
214.118
 20
-216.314
 21
-216.214
  0
LINE
  8
0
 10
214.118
 11
213.973
 20
-216.214
 21
-216.093
  0
LINE
  8
0
 10
213.973
 11
213.844
 20
-216.093
 21
-215.956
  0
LINE
  8
0
 10
213.844
 11
213.734
 20
-215.956
 21
-215.804
  0
LINE
  8
0
 10
213.734
 11
213.643
 20
-215.804
 21
-215.639
  0
LINE
  8
0
 10
213.643
 11
213.573
 20
-215.639
 21
-215.464
  0
LINE
  8
0
 10
213.573
 11
213.527
 20
-215.464
 21
-215.281
  0
LINE
  8
0
 10
213.527
 11
213.503
 20
-215.281
 21
-215.094
  0
ENDSEC
  0
SECTION
  2
OBJECTS
  0
DICTIONARY
  0
ENDSEC
  0
EOF
