  0
SECTION
  2
BLOCKS
  0
ENDSEC
  0
SECTION
  2
ENTITIES
  0
LINE
  8
0
 10
-112.5
 11
-112.5
 20
-100
 21
100
  0
LINE
  8
0
 10
-112.5
 11
112.5
 20
100
 21
100
  0
LINE
  8
0
 10
112.5
 11
112.5
 20
100
 21
-100
  0
LINE
  8
0
 10
112.5
 11
-112.5
 20
-100
 21
-100
  0
LINE
  8
0
 10
-108.05
 11
-108.034
 20
-60
 21
-59.749
  0
LINE
  8
0
 10
-108.034
 11
-107.987
 20
-59.749
 21
-59.503
  0
LINE
  8
0
 10
-107.987
 11
-107.91
 20
-59.503
 21
-59.264
  0
LINE
  8
0
 10
-107.91
 11
-107.803
 20
-59.264
 21
-59.036
  0
LINE
  8
0
 10
-107.803
 11
-107.668
 20
-59.036
 21
-58.824
  0
LINE
  8
0
 10
-107.668
 11
-107.508
 20
-58.824
 21
-58.631
  0
LINE
  8
0
 10
-107.508
 11
-107.325
 20
-58.631
 21
-58.459
  0
LINE
  8
0
 10
-107.325
 11
-107.122
 20
-58.459
 21
-58.311
  0
LINE
  8
0
 10
-107.122
 11
-106.902
 20
-58.311
 21
-58.19
  0
LINE
  8
0
 10
-106.902
 11
-106.668
 20
-58.19
 21
-58.098
  0
LINE
  8
0
 10
-106.668
 11
-106.425
 20
-58.098
 21
-58.035
  0
LINE
  8
0
 10
-106.425
 11
-106.176
 20
-58.035
 21
-58.004
  0
LINE
  8
0
 10
-106.176
 11
-105.924
 20
-58.004
 21
-58.004
  0
LINE
  8
0
 10
-105.924
 11
-105.675
 20
-58.004
 21
-58.035
  0
LINE
  8
0
 10
-105.675
 11
-105.432
 20
-58.035
 21
-58.098
  0
LINE
  8
0
 10
-105.432
 11
-105.198
 20
-58.098
 21
-58.19
  0
LINE
  8
0
 10
-105.198
 11
-104.978
 20
-58.19
 21
-58.311
  0
LINE
  8
0
 10
-104.978
 11
-104.775
 20
-58.311
 21
-58.459
  0
LINE
  8
0
 10
-104.775
 11
-104.592
 20
-58.459
 21
-58.631
  0
LINE
  8
0
 10
-104.592
 11
-104.432
 20
-58.631
 21
-58.824
  0
LINE
  8
0
 10
-104.432
 11
-104.297
 20
-58.824
 21
-59.036
  0
LINE
  8
0
 10
-104.297
 11
-104.19
 20
-59.036
 21
-59.264
  0
LINE
  8
0
 10
-104.19
 11
-104.113
 20
-59.264
 21
-59.503
  0
LINE
  8
0
 10
-104.113
 11
-104.066
 20
-59.503
 21
-59.749
  0
LINE
  8
0
 10
-104.066
 11
-104.05
 20
-59.749
 21
-60
  0
LINE
  8
0
 10
-104.05
 11
-104.066
 20
-60
 21
-60.251
  0
LINE
  8
0
 10
-104.066
 11
-104.113
 20
-60.251
 21
-60.497
  0
LINE
  8
0
 10
-104.113
 11
-104.19
 20
-60.497
 21
-60.736
  0
LINE
  8
0
 10
-104.19
 11
-104.297
 20
-60.736
 21
-60.964
  0
LINE
  8
0
 10
-104.297
 11
-104.432
 20
-60.964
 21
-61.176
  0
LINE
  8
0
 10
-104.432
 11
-104.592
 20
-61.176
 21
-61.369
  0
LINE
  8
0
 10
-104.592
 11
-104.775
 20
-61.369
 21
-61.541
  0
LINE
  8
0
 10
-104.775
 11
-104.978
 20
-61.541
 21
-61.689
  0
LINE
  8
0
 10
-104.978
 11
-105.198
 20
-61.689
 21
-61.81
  0
LINE
  8
0
 10
-105.198
 11
-105.432
 20
-61.81
 21
-61.902
  0
LINE
  8
0
 10
-105.432
 11
-105.675
 20
-61.902
 21
-61.965
  0
LINE
  8
0
 10
-105.675
 11
-105.924
 20
-61.965
 21
-61.996
  0
LINE
  8
0
 10
-105.924
 11
-106.176
 20
-61.996
 21
-61.996
  0
LINE
  8
0
 10
-106.176
 11
-106.425
 20
-61.996
 21
-61.965
  0
LINE
  8
0
 10
-106.425
 11
-106.668
 20
-61.965
 21
-61.902
  0
LINE
  8
0
 10
-106.668
 11
-106.902
 20
-61.902
 21
-61.81
  0
LINE
  8
0
 10
-106.902
 11
-107.122
 20
-61.81
 21
-61.689
  0
LINE
  8
0
 10
-107.122
 11
-107.325
 20
-61.689
 21
-61.541
  0
LINE
  8
0
 10
-107.325
 11
-107.508
 20
-61.541
 21
-61.369
  0
LINE
  8
0
 10
-107.508
 11
-107.668
 20
-61.369
 21
-61.176
  0
LINE
  8
0
 10
-107.668
 11
-107.803
 20
-61.176
 21
-60.964
  0
LINE
  8
0
 10
-107.803
 11
-107.91
 20
-60.964
 21
-60.736
  0
LINE
  8
0
 10
-107.91
 11
-107.987
 20
-60.736
 21
-60.497
  0
LINE
  8
0
 10
-107.987
 11
-108.034
 20
-60.497
 21
-60.251
  0
LINE
  8
0
 10
-108.034
 11
-108.05
 20
-60.251
 21
-60
  0
LINE
  8
0
 10
-108.05
 11
-108.034
 20
0
 21
0.251
  0
LINE
  8
0
 10
-108.034
 11
-107.987
 20
0.251
 21
0.497
  0
LINE
  8
0
 10
-107.987
 11
-107.91
 20
0.497
 21
0.736
  0
LINE
  8
0
 10
-107.91
 11
-107.803
 20
0.736
 21
0.964
  0
LINE
  8
0
 10
-107.803
 11
-107.668
 20
0.964
 21
1.176
  0
LINE
  8
0
 10
-107.668
 11
-107.508
 20
1.176
 21
1.369
  0
LINE
  8
0
 10
-107.508
 11
-107.325
 20
1.369
 21
1.541
  0
LINE
  8
0
 10
-107.325
 11
-107.122
 20
1.541
 21
1.689
  0
LINE
  8
0
 10
-107.122
 11
-106.902
 20
1.689
 21
1.81
  0
LINE
  8
0
 10
-106.902
 11
-106.668
 20
1.81
 21
1.902
  0
LINE
  8
0
 10
-106.668
 11
-106.425
 20
1.902
 21
1.965
  0
LINE
  8
0
 10
-106.425
 11
-106.176
 20
1.965
 21
1.996
  0
LINE
  8
0
 10
-106.176
 11
-105.924
 20
1.996
 21
1.996
  0
LINE
  8
0
 10
-105.924
 11
-105.675
 20
1.996
 21
1.965
  0
LINE
  8
0
 10
-105.675
 11
-105.432
 20
1.965
 21
1.902
  0
LINE
  8
0
 10
-105.432
 11
-105.198
 20
1.902
 21
1.81
  0
LINE
  8
0
 10
-105.198
 11
-104.978
 20
1.81
 21
1.689
  0
LINE
  8
0
 10
-104.978
 11
-104.775
 20
1.689
 21
1.541
  0
LINE
  8
0
 10
-104.775
 11
-104.592
 20
1.541
 21
1.369
  0
LINE
  8
0
 10
-104.592
 11
-104.432
 20
1.369
 21
1.176
  0
LINE
  8
0
 10
-104.432
 11
-104.297
 20
1.176
 21
0.964
  0
LINE
  8
0
 10
-104.297
 11
-104.19
 20
0.964
 21
0.736
  0
LINE
  8
0
 10
-104.19
 11
-104.113
 20
0.736
 21
0.497
  0
LINE
  8
0
 10
-104.113
 11
-104.066
 20
0.497
 21
0.251
  0
LINE
  8
0
 10
-104.066
 11
-104.05
 20
0.251
 21
0
  0
LINE
  8
0
 10
-104.05
 11
-104.066
 20
0
 21
-0.251
  0
LINE
  8
0
 10
-104.066
 11
-104.113
 20
-0.251
 21
-0.497
  0
LINE
  8
0
 10
-104.113
 11
-104.19
 20
-0.497
 21
-0.736
  0
LINE
  8
0
 10
-104.19
 11
-104.297
 20
-0.736
 21
-0.964
  0
LINE
  8
0
 10
-104.297
 11
-104.432
 20
-0.964
 21
-1.176
  0
LINE
  8
0
 10
-104.432
 11
-104.592
 20
-1.176
 21
-1.369
  0
LINE
  8
0
 10
-104.592
 11
-104.775
 20
-1.369
 21
-1.541
  0
LINE
  8
0
 10
-104.775
 11
-104.978
 20
-1.541
 21
-1.689
  0
LINE
  8
0
 10
-104.978
 11
-105.198
 20
-1.689
 21
-1.81
  0
LINE
  8
0
 10
-105.198
 11
-105.432
 20
-1.81
 21
-1.902
  0
LINE
  8
0
 10
-105.432
 11
-105.675
 20
-1.902
 21
-1.965
  0
LINE
  8
0
 10
-105.675
 11
-105.924
 20
-1.965
 21
-1.996
  0
LINE
  8
0
 10
-105.924
 11
-106.176
 20
-1.996
 21
-1.996
  0
LINE
  8
0
 10
-106.176
 11
-106.425
 20
-1.996
 21
-1.965
  0
LINE
  8
0
 10
-106.425
 11
-106.668
 20
-1.965
 21
-1.902
  0
LINE
  8
0
 10
-106.668
 11
-106.902
 20
-1.902
 21
-1.81
  0
LINE
  8
0
 10
-106.902
 11
-107.122
 20
-1.81
 21
-1.689
  0
LINE
  8
0
 10
-107.122
 11
-107.325
 20
-1.689
 21
-1.541
  0
LINE
  8
0
 10
-107.325
 11
-107.508
 20
-1.541
 21
-1.369
  0
LINE
  8
0
 10
-107.508
 11
-107.668
 20
-1.369
 21
-1.176
  0
LINE
  8
0
 10
-107.668
 11
-107.803
 20
-1.176
 21
-0.964
  0
LINE
  8
0
 10
-107.803
 11
-107.91
 20
-0.964
 21
-0.736
  0
LINE
  8
0
 10
-107.91
 11
-107.987
 20
-0.736
 21
-0.497
  0
LINE
  8
0
 10
-107.987
 11
-108.034
 20
-0.497
 21
-0.251
  0
LINE
  8
0
 10
-108.034
 11
-108.05
 20
-0.251
 21
0
  0
LINE
  8
0
 10
-108.05
 11
-108.034
 20
60
 21
60.251
  0
LINE
  8
0
 10
-108.034
 11
-107.987
 20
60.251
 21
60.497
  0
LINE
  8
0
 10
-107.987
 11
-107.91
 20
60.497
 21
60.736
  0
LINE
  8
0
 10
-107.91
 11
-107.803
 20
60.736
 21
60.964
  0
LINE
  8
0
 10
-107.803
 11
-107.668
 20
60.964
 21
61.176
  0
LINE
  8
0
 10
-107.668
 11
-107.508
 20
61.176
 21
61.369
  0
LINE
  8
0
 10
-107.508
 11
-107.325
 20
61.369
 21
61.541
  0
LINE
  8
0
 10
-107.325
 11
-107.122
 20
61.541
 21
61.689
  0
LINE
  8
0
 10
-107.122
 11
-106.902
 20
61.689
 21
61.81
  0
LINE
  8
0
 10
-106.902
 11
-106.668
 20
61.81
 21
61.902
  0
LINE
  8
0
 10
-106.668
 11
-106.425
 20
61.902
 21
61.965
  0
LINE
  8
0
 10
-106.425
 11
-106.176
 20
61.965
 21
61.996
  0
LINE
  8
0
 10
-106.176
 11
-105.924
 20
61.996
 21
61.996
  0
LINE
  8
0
 10
-105.924
 11
-105.675
 20
61.996
 21
61.965
  0
LINE
  8
0
 10
-105.675
 11
-105.432
 20
61.965
 21
61.902
  0
LINE
  8
0
 10
-105.432
 11
-105.198
 20
61.902
 21
61.81
  0
LINE
  8
0
 10
-105.198
 11
-104.978
 20
61.81
 21
61.689
  0
LINE
  8
0
 10
-104.978
 11
-104.775
 20
61.689
 21
61.541
  0
LINE
  8
0
 10
-104.775
 11
-104.592
 20
61.541
 21
61.369
  0
LINE
  8
0
 10
-104.592
 11
-104.432
 20
61.369
 21
61.176
  0
LINE
  8
0
 10
-104.432
 11
-104.297
 20
61.176
 21
60.964
  0
LINE
  8
0
 10
-104.297
 11
-104.19
 20
60.964
 21
60.736
  0
LINE
  8
0
 10
-104.19
 11
-104.113
 20
60.736
 21
60.497
  0
LINE
  8
0
 10
-104.113
 11
-104.066
 20
60.497
 21
60.251
  0
LINE
  8
0
 10
-104.066
 11
-104.05
 20
60.251
 21
60
  0
LINE
  8
0
 10
-104.05
 11
-104.066
 20
60
 21
59.749
  0
LINE
  8
0
 10
-104.066
 11
-104.113
 20
59.749
 21
59.503
  0
LINE
  8
0
 10
-104.113
 11
-104.19
 20
59.503
 21
59.264
  0
LINE
  8
0
 10
-104.19
 11
-104.297
 20
59.264
 21
59.036
  0
LINE
  8
0
 10
-104.297
 11
-104.432
 20
59.036
 21
58.824
  0
LINE
  8
0
 10
-104.432
 11
-104.592
 20
58.824
 21
58.631
  0
LINE
  8
0
 10
-104.592
 11
-104.775
 20
58.631
 21
58.459
  0
LINE
  8
0
 10
-104.775
 11
-104.978
 20
58.459
 21
58.311
  0
LINE
  8
0
 10
-104.978
 11
-105.198
 20
58.311
 21
58.19
  0
LINE
  8
0
 10
-105.198
 11
-105.432
 20
58.19
 21
58.098
  0
LINE
  8
0
 10
-105.432
 11
-105.675
 20
58.098
 21
58.035
  0
LINE
  8
0
 10
-105.675
 11
-105.924
 20
58.035
 21
58.004
  0
LINE
  8
0
 10
-105.924
 11
-106.176
 20
58.004
 21
58.004
  0
LINE
  8
0
 10
-106.176
 11
-106.425
 20
58.004
 21
58.035
  0
LINE
  8
0
 10
-106.425
 11
-106.668
 20
58.035
 21
58.098
  0
LINE
  8
0
 10
-106.668
 11
-106.902
 20
58.098
 21
58.19
  0
LINE
  8
0
 10
-106.902
 11
-107.122
 20
58.19
 21
58.311
  0
LINE
  8
0
 10
-107.122
 11
-107.325
 20
58.311
 21
58.459
  0
LINE
  8
0
 10
-107.325
 11
-107.508
 20
58.459
 21
58.631
  0
LINE
  8
0
 10
-107.508
 11
-107.668
 20
58.631
 21
58.824
  0
LINE
  8
0
 10
-107.668
 11
-107.803
 20
58.824
 21
59.036
  0
LINE
  8
0
 10
-107.803
 11
-107.91
 20
59.036
 21
59.264
  0
LINE
  8
0
 10
-107.91
 11
-107.987
 20
59.264
 21
59.503
  0
LINE
  8
0
 10
-107.987
 11
-108.034
 20
59.503
 21
59.749
  0
LINE
  8
0
 10
-108.034
 11
-108.05
 20
59.749
 21
60
  0
LINE
  8
0
 10
-51.5
 11
-51.488
 20
-50
 21
-49.812
  0
LINE
  8
0
 10
-51.488
 11
-51.453
 20
-49.812
 21
-49.627
  0
LINE
  8
0
 10
-51.453
 11
-51.395
 20
-49.627
 21
-49.448
  0
LINE
  8
0
 10
-51.395
 11
-51.314
 20
-49.448
 21
-49.277
  0
LINE
  8
0
 10
-51.314
 11
-51.214
 20
-49.277
 21
-49.118
  0
LINE
  8
0
 10
-51.214
 11
-51.093
 20
-49.118
 21
-48.973
  0
LINE
  8
0
 10
-51.093
 11
-50.956
 20
-48.973
 21
-48.844
  0
LINE
  8
0
 10
-50.956
 11
-50.804
 20
-48.844
 21
-48.734
  0
LINE
  8
0
 10
-50.804
 11
-50.639
 20
-48.734
 21
-48.643
  0
LINE
  8
0
 10
-50.639
 11
-50.464
 20
-48.643
 21
-48.573
  0
LINE
  8
0
 10
-50.464
 11
-50.281
 20
-48.573
 21
-48.527
  0
LINE
  8
0
 10
-50.281
 11
-50.094
 20
-48.527
 21
-48.503
  0
LINE
  8
0
 10
-50.094
 11
-49.906
 20
-48.503
 21
-48.503
  0
LINE
  8
0
 10
-49.906
 11
-49.719
 20
-48.503
 21
-48.527
  0
LINE
  8
0
 10
-49.719
 11
-49.536
 20
-48.527
 21
-48.573
  0
LINE
  8
0
 10
-49.536
 11
-49.361
 20
-48.573
 21
-48.643
  0
LINE
  8
0
 10
-49.361
 11
-49.196
 20
-48.643
 21
-48.734
  0
LINE
  8
0
 10
-49.196
 11
-49.044
 20
-48.734
 21
-48.844
  0
LINE
  8
0
 10
-49.044
 11
-48.907
 20
-48.844
 21
-48.973
  0
LINE
  8
0
 10
-48.907
 11
-48.786
 20
-48.973
 21
-49.118
  0
LINE
  8
0
 10
-48.786
 11
-48.686
 20
-49.118
 21
-49.277
  0
LINE
  8
0
 10
-48.686
 11
-48.605
 20
-49.277
 21
-49.448
  0
LINE
  8
0
 10
-48.605
 11
-48.547
 20
-49.448
 21
-49.627
  0
LINE
  8
0
 10
-48.547
 11
-48.512
 20
-49.627
 21
-49.812
  0
LINE
  8
0
 10
-48.512
 11
-48.5
 20
-49.812
 21
-50
  0
LINE
  8
0
 10
-48.5
 11
-48.512
 20
-50
 21
-50.188
  0
LINE
  8
0
 10
-48.512
 11
-48.547
 20
-50.188
 21
-50.373
  0
LINE
  8
0
 10
-48.547
 11
-48.605
 20
-50.373
 21
-50.552
  0
LINE
  8
0
 10
-48.605
 11
-48.686
 20
-50.552
 21
-50.723
  0
LINE
  8
0
 10
-48.686
 11
-48.786
 20
-50.723
 21
-50.882
  0
LINE
  8
0
 10
-48.786
 11
-48.907
 20
-50.882
 21
-51.027
  0
LINE
  8
0
 10
-48.907
 11
-49.044
 20
-51.027
 21
-51.156
  0
LINE
  8
0
 10
-49.044
 11
-49.196
 20
-51.156
 21
-51.266
  0
LINE
  8
0
 10
-49.196
 11
-49.361
 20
-51.266
 21
-51.357
  0
LINE
  8
0
 10
-49.361
 11
-49.536
 20
-51.357
 21
-51.427
  0
LINE
  8
0
 10
-49.536
 11
-49.719
 20
-51.427
 21
-51.473
  0
LINE
  8
0
 10
-49.719
 11
-49.906
 20
-51.473
 21
-51.497
  0
LINE
  8
0
 10
-49.906
 11
-50.094
 20
-51.497
 21
-51.497
  0
LINE
  8
0
 10
-50.094
 11
-50.281
 20
-51.497
 21
-51.473
  0
LINE
  8
0
 10
-50.281
 11
-50.464
 20
-51.473
 21
-51.427
  0
LINE
  8
0
 10
-50.464
 11
-50.639
 20
-51.427
 21
-51.357
  0
LINE
  8
0
 10
-50.639
 11
-50.804
 20
-51.357
 21
-51.266
  0
LINE
  8
0
 10
-50.804
 11
-50.956
 20
-51.266
 21
-51.156
  0
LINE
  8
0
 10
-50.956
 11
-51.093
 20
-51.156
 21
-51.027
  0
LINE
  8
0
 10
-51.093
 11
-51.214
 20
-51.027
 21
-50.882
  0
LINE
  8
0
 10
-51.214
 11
-51.314
 20
-50.882
 21
-50.723
  0
LINE
  8
0
 10
-51.314
 11
-51.395
 20
-50.723
 21
-50.552
  0
LINE
  8
0
 10
-51.395
 11
-51.453
 20
-50.552
 21
-50.373
  0
LINE
  8
0
 10
-51.453
 11
-51.488
 20
-50.373
 21
-50.188
  0
LINE
  8
0
 10
-51.488
 11
-51.5
 20
-50.188
 21
-50
  0
LINE
  8
0
 10
-51.497
 11
-51.497
 20
49.906
 21
50.094
  0
LINE
  8
0
 10
-51.497
 11
-51.473
 20
50.094
 21
50.281
  0
LINE
  8
0
 10
-51.473
 11
-51.427
 20
50.281
 21
50.464
  0
LINE
  8
0
 10
-51.427
 11
-51.357
 20
50.464
 21
50.639
  0
LINE
  8
0
 10
-51.357
 11
-51.266
 20
50.639
 21
50.804
  0
LINE
  8
0
 10
-51.266
 11
-51.156
 20
50.804
 21
50.956
  0
LINE
  8
0
 10
-51.156
 11
-51.027
 20
50.956
 21
51.093
  0
LINE
  8
0
 10
-51.027
 11
-50.882
 20
51.093
 21
51.214
  0
LINE
  8
0
 10
-50.882
 11
-50.723
 20
51.214
 21
51.314
  0
LINE
  8
0
 10
-50.723
 11
-50.552
 20
51.314
 21
51.395
  0
LINE
  8
0
 10
-50.552
 11
-50.373
 20
51.395
 21
51.453
  0
LINE
  8
0
 10
-50.373
 11
-50.188
 20
51.453
 21
51.488
  0
LINE
  8
0
 10
-50.188
 11
-50
 20
51.488
 21
51.5
  0
LINE
  8
0
 10
-50
 11
-49.812
 20
51.5
 21
51.488
  0
LINE
  8
0
 10
-49.812
 11
-49.627
 20
51.488
 21
51.453
  0
LINE
  8
0
 10
-49.627
 11
-49.448
 20
51.453
 21
51.395
  0
LINE
  8
0
 10
-49.448
 11
-49.277
 20
51.395
 21
51.314
  0
LINE
  8
0
 10
-49.277
 11
-49.118
 20
51.314
 21
51.214
  0
LINE
  8
0
 10
-49.118
 11
-48.973
 20
51.214
 21
51.093
  0
LINE
  8
0
 10
-48.973
 11
-48.844
 20
51.093
 21
50.956
  0
LINE
  8
0
 10
-48.844
 11
-48.734
 20
50.956
 21
50.804
  0
LINE
  8
0
 10
-48.734
 11
-48.643
 20
50.804
 21
50.639
  0
LINE
  8
0
 10
-48.643
 11
-48.573
 20
50.639
 21
50.464
  0
LINE
  8
0
 10
-48.573
 11
-48.527
 20
50.464
 21
50.281
  0
LINE
  8
0
 10
-48.527
 11
-48.503
 20
50.281
 21
50.094
  0
LINE
  8
0
 10
-48.503
 11
-48.503
 20
50.094
 21
49.906
  0
LINE
  8
0
 10
-48.503
 11
-48.527
 20
49.906
 21
49.719
  0
LINE
  8
0
 10
-48.527
 11
-48.573
 20
49.719
 21
49.536
  0
LINE
  8
0
 10
-48.573
 11
-48.643
 20
49.536
 21
49.361
  0
LINE
  8
0
 10
-48.643
 11
-48.734
 20
49.361
 21
49.196
  0
LINE
  8
0
 10
-48.734
 11
-48.844
 20
49.196
 21
49.044
  0
LINE
  8
0
 10
-48.844
 11
-48.973
 20
49.044
 21
48.907
  0
LINE
  8
0
 10
-48.973
 11
-49.118
 20
48.907
 21
48.786
  0
LINE
  8
0
 10
-49.118
 11
-49.277
 20
48.786
 21
48.686
  0
LINE
  8
0
 10
-49.277
 11
-49.448
 20
48.686
 21
48.605
  0
LINE
  8
0
 10
-49.448
 11
-49.627
 20
48.605
 21
48.547
  0
LINE
  8
0
 10
-49.627
 11
-49.812
 20
48.547
 21
48.512
  0
LINE
  8
0
 10
-49.812
 11
-50
 20
48.512
 21
48.5
  0
LINE
  8
0
 10
-50
 11
-50.188
 20
48.5
 21
48.512
  0
LINE
  8
0
 10
-50.188
 11
-50.373
 20
48.512
 21
48.547
  0
LINE
  8
0
 10
-50.373
 11
-50.552
 20
48.547
 21
48.605
  0
LINE
  8
0
 10
-50.552
 11
-50.723
 20
48.605
 21
48.686
  0
LINE
  8
0
 10
-50.723
 11
-50.882
 20
48.686
 21
48.786
  0
LINE
  8
0
 10
-50.882
 11
-51.027
 20
48.786
 21
48.907
  0
LINE
  8
0
 10
-51.027
 11
-51.156
 20
48.907
 21
49.044
  0
LINE
  8
0
 10
-51.156
 11
-51.266
 20
49.044
 21
49.196
  0
LINE
  8
0
 10
-51.266
 11
-51.357
 20
49.196
 21
49.361
  0
LINE
  8
0
 10
-51.357
 11
-51.427
 20
49.361
 21
49.536
  0
LINE
  8
0
 10
-51.427
 11
-51.473
 20
49.536
 21
49.719
  0
LINE
  8
0
 10
-51.473
 11
-51.497
 20
49.719
 21
49.906
  0
LINE
  8
0
 10
48.5
 11
48.512
 20
50
 21
50.188
  0
LINE
  8
0
 10
48.512
 11
48.547
 20
50.188
 21
50.373
  0
LINE
  8
0
 10
48.547
 11
48.605
 20
50.373
 21
50.552
  0
LINE
  8
0
 10
48.605
 11
48.686
 20
50.552
 21
50.723
  0
LINE
  8
0
 10
48.686
 11
48.786
 20
50.723
 21
50.882
  0
LINE
  8
0
 10
48.786
 11
48.907
 20
50.882
 21
51.027
  0
LINE
  8
0
 10
48.907
 11
49.044
 20
51.027
 21
51.156
  0
LINE
  8
0
 10
49.044
 11
49.196
 20
51.156
 21
51.266
  0
LINE
  8
0
 10
49.196
 11
49.361
 20
51.266
 21
51.357
  0
LINE
  8
0
 10
49.361
 11
49.536
 20
51.357
 21
51.427
  0
LINE
  8
0
 10
49.536
 11
49.719
 20
51.427
 21
51.473
  0
LINE
  8
0
 10
49.719
 11
49.906
 20
51.473
 21
51.497
  0
LINE
  8
0
 10
49.906
 11
50.094
 20
51.497
 21
51.497
  0
LINE
  8
0
 10
50.094
 11
50.281
 20
51.497
 21
51.473
  0
LINE
  8
0
 10
50.281
 11
50.464
 20
51.473
 21
51.427
  0
LINE
  8
0
 10
50.464
 11
50.639
 20
51.427
 21
51.357
  0
LINE
  8
0
 10
50.639
 11
50.804
 20
51.357
 21
51.266
  0
LINE
  8
0
 10
50.804
 11
50.956
 20
51.266
 21
51.156
  0
LINE
  8
0
 10
50.956
 11
51.093
 20
51.156
 21
51.027
  0
LINE
  8
0
 10
51.093
 11
51.214
 20
51.027
 21
50.882
  0
LINE
  8
0
 10
51.214
 11
51.314
 20
50.882
 21
50.723
  0
LINE
  8
0
 10
51.314
 11
51.395
 20
50.723
 21
50.552
  0
LINE
  8
0
 10
51.395
 11
51.453
 20
50.552
 21
50.373
  0
LINE
  8
0
 10
51.453
 11
51.488
 20
50.373
 21
50.188
  0
LINE
  8
0
 10
51.488
 11
51.5
 20
50.188
 21
50
  0
LINE
  8
0
 10
51.5
 11
51.488
 20
50
 21
49.812
  0
LINE
  8
0
 10
51.488
 11
51.453
 20
49.812
 21
49.627
  0
LINE
  8
0
 10
51.453
 11
51.395
 20
49.627
 21
49.448
  0
LINE
  8
0
 10
51.395
 11
51.314
 20
49.448
 21
49.277
  0
LINE
  8
0
 10
51.314
 11
51.214
 20
49.277
 21
49.118
  0
LINE
  8
0
 10
51.214
 11
51.093
 20
49.118
 21
48.973
  0
LINE
  8
0
 10
51.093
 11
50.956
 20
48.973
 21
48.844
  0
LINE
  8
0
 10
50.956
 11
50.804
 20
48.844
 21
48.734
  0
LINE
  8
0
 10
50.804
 11
50.639
 20
48.734
 21
48.643
  0
LINE
  8
0
 10
50.639
 11
50.464
 20
48.643
 21
48.573
  0
LINE
  8
0
 10
50.464
 11
50.281
 20
48.573
 21
48.527
  0
LINE
  8
0
 10
50.281
 11
50.094
 20
48.527
 21
48.503
  0
LINE
  8
0
 10
50.094
 11
49.906
 20
48.503
 21
48.503
  0
LINE
  8
0
 10
49.906
 11
49.719
 20
48.503
 21
48.527
  0
LINE
  8
0
 10
49.719
 11
49.536
 20
48.527
 21
48.573
  0
LINE
  8
0
 10
49.536
 11
49.361
 20
48.573
 21
48.643
  0
LINE
  8
0
 10
49.361
 11
49.196
 20
48.643
 21
48.734
  0
LINE
  8
0
 10
49.196
 11
49.044
 20
48.734
 21
48.844
  0
LINE
  8
0
 10
49.044
 11
48.907
 20
48.844
 21
48.973
  0
LINE
  8
0
 10
48.907
 11
48.786
 20
48.973
 21
49.118
  0
LINE
  8
0
 10
48.786
 11
48.686
 20
49.118
 21
49.277
  0
LINE
  8
0
 10
48.686
 11
48.605
 20
49.277
 21
49.448
  0
LINE
  8
0
 10
48.605
 11
48.547
 20
49.448
 21
49.627
  0
LINE
  8
0
 10
48.547
 11
48.512
 20
49.627
 21
49.812
  0
LINE
  8
0
 10
48.512
 11
48.5
 20
49.812
 21
50
  0
LINE
  8
0
 10
48.503
 11
48.503
 20
-50.094
 21
-49.906
  0
LINE
  8
0
 10
48.503
 11
48.527
 20
-49.906
 21
-49.719
  0
LINE
  8
0
 10
48.527
 11
48.573
 20
-49.719
 21
-49.536
  0
LINE
  8
0
 10
48.573
 11
48.643
 20
-49.536
 21
-49.361
  0
LINE
  8
0
 10
48.643
 11
48.734
 20
-49.361
 21
-49.196
  0
LINE
  8
0
 10
48.734
 11
48.844
 20
-49.196
 21
-49.044
  0
LINE
  8
0
 10
48.844
 11
48.973
 20
-49.044
 21
-48.907
  0
LINE
  8
0
 10
48.973
 11
49.118
 20
-48.907
 21
-48.786
  0
LINE
  8
0
 10
49.118
 11
49.277
 20
-48.786
 21
-48.686
  0
LINE
  8
0
 10
49.277
 11
49.448
 20
-48.686
 21
-48.605
  0
LINE
  8
0
 10
49.448
 11
49.627
 20
-48.605
 21
-48.547
  0
LINE
  8
0
 10
49.627
 11
49.812
 20
-48.547
 21
-48.512
  0
LINE
  8
0
 10
49.812
 11
50
 20
-48.512
 21
-48.5
  0
LINE
  8
0
 10
50
 11
50.188
 20
-48.5
 21
-48.512
  0
LINE
  8
0
 10
50.188
 11
50.373
 20
-48.512
 21
-48.547
  0
LINE
  8
0
 10
50.373
 11
50.552
 20
-48.547
 21
-48.605
  0
LINE
  8
0
 10
50.552
 11
50.723
 20
-48.605
 21
-48.686
  0
LINE
  8
0
 10
50.723
 11
50.882
 20
-48.686
 21
-48.786
  0
LINE
  8
0
 10
50.882
 11
51.027
 20
-48.786
 21
-48.907
  0
LINE
  8
0
 10
51.027
 11
51.156
 20
-48.907
 21
-49.044
  0
LINE
  8
0
 10
51.156
 11
51.266
 20
-49.044
 21
-49.196
  0
LINE
  8
0
 10
51.266
 11
51.357
 20
-49.196
 21
-49.361
  0
LINE
  8
0
 10
51.357
 11
51.427
 20
-49.361
 21
-49.536
  0
LINE
  8
0
 10
51.427
 11
51.473
 20
-49.536
 21
-49.719
  0
LINE
  8
0
 10
51.473
 11
51.497
 20
-49.719
 21
-49.906
  0
LINE
  8
0
 10
51.497
 11
51.497
 20
-49.906
 21
-50.094
  0
LINE
  8
0
 10
51.497
 11
51.473
 20
-50.094
 21
-50.281
  0
LINE
  8
0
 10
51.473
 11
51.427
 20
-50.281
 21
-50.464
  0
LINE
  8
0
 10
51.427
 11
51.357
 20
-50.464
 21
-50.639
  0
LINE
  8
0
 10
51.357
 11
51.266
 20
-50.639
 21
-50.804
  0
LINE
  8
0
 10
51.266
 11
51.156
 20
-50.804
 21
-50.956
  0
LINE
  8
0
 10
51.156
 11
51.027
 20
-50.956
 21
-51.093
  0
LINE
  8
0
 10
51.027
 11
50.882
 20
-51.093
 21
-51.214
  0
LINE
  8
0
 10
50.882
 11
50.723
 20
-51.214
 21
-51.314
  0
LINE
  8
0
 10
50.723
 11
50.552
 20
-51.314
 21
-51.395
  0
LINE
  8
0
 10
50.552
 11
50.373
 20
-51.395
 21
-51.453
  0
LINE
  8
0
 10
50.373
 11
50.188
 20
-51.453
 21
-51.488
  0
LINE
  8
0
 10
50.188
 11
50
 20
-51.488
 21
-51.5
  0
LINE
  8
0
 10
50
 11
49.812
 20
-51.5
 21
-51.488
  0
LINE
  8
0
 10
49.812
 11
49.627
 20
-51.488
 21
-51.453
  0
LINE
  8
0
 10
49.627
 11
49.448
 20
-51.453
 21
-51.395
  0
LINE
  8
0
 10
49.448
 11
49.277
 20
-51.395
 21
-51.314
  0
LINE
  8
0
 10
49.277
 11
49.118
 20
-51.314
 21
-51.214
  0
LINE
  8
0
 10
49.118
 11
48.973
 20
-51.214
 21
-51.093
  0
LINE
  8
0
 10
48.973
 11
48.844
 20
-51.093
 21
-50.956
  0
LINE
  8
0
 10
48.844
 11
48.734
 20
-50.956
 21
-50.804
  0
LINE
  8
0
 10
48.734
 11
48.643
 20
-50.804
 21
-50.639
  0
LINE
  8
0
 10
48.643
 11
48.573
 20
-50.639
 21
-50.464
  0
LINE
  8
0
 10
48.573
 11
48.527
 20
-50.464
 21
-50.281
  0
LINE
  8
0
 10
48.527
 11
48.503
 20
-50.281
 21
-50.094
  0
LINE
  8
0
 10
104.05
 11
104.066
 20
-60
 21
-59.749
  0
LINE
  8
0
 10
104.066
 11
104.113
 20
-59.749
 21
-59.503
  0
LINE
  8
0
 10
104.113
 11
104.19
 20
-59.503
 21
-59.264
  0
LINE
  8
0
 10
104.19
 11
104.297
 20
-59.264
 21
-59.036
  0
LINE
  8
0
 10
104.297
 11
104.432
 20
-59.036
 21
-58.824
  0
LINE
  8
0
 10
104.432
 11
104.592
 20
-58.824
 21
-58.631
  0
LINE
  8
0
 10
104.592
 11
104.775
 20
-58.631
 21
-58.459
  0
LINE
  8
0
 10
104.775
 11
104.978
 20
-58.459
 21
-58.311
  0
LINE
  8
0
 10
104.978
 11
105.198
 20
-58.311
 21
-58.19
  0
LINE
  8
0
 10
105.198
 11
105.432
 20
-58.19
 21
-58.098
  0
LINE
  8
0
 10
105.432
 11
105.675
 20
-58.098
 21
-58.035
  0
LINE
  8
0
 10
105.675
 11
105.924
 20
-58.035
 21
-58.004
  0
LINE
  8
0
 10
105.924
 11
106.176
 20
-58.004
 21
-58.004
  0
LINE
  8
0
 10
106.176
 11
106.425
 20
-58.004
 21
-58.035
  0
LINE
  8
0
 10
106.425
 11
106.668
 20
-58.035
 21
-58.098
  0
LINE
  8
0
 10
106.668
 11
106.902
 20
-58.098
 21
-58.19
  0
LINE
  8
0
 10
106.902
 11
107.122
 20
-58.19
 21
-58.311
  0
LINE
  8
0
 10
107.122
 11
107.325
 20
-58.311
 21
-58.459
  0
LINE
  8
0
 10
107.325
 11
107.508
 20
-58.459
 21
-58.631
  0
LINE
  8
0
 10
107.508
 11
107.668
 20
-58.631
 21
-58.824
  0
LINE
  8
0
 10
107.668
 11
107.803
 20
-58.824
 21
-59.036
  0
LINE
  8
0
 10
107.803
 11
107.91
 20
-59.036
 21
-59.264
  0
LINE
  8
0
 10
107.91
 11
107.987
 20
-59.264
 21
-59.503
  0
LINE
  8
0
 10
107.987
 11
108.034
 20
-59.503
 21
-59.749
  0
LINE
  8
0
 10
108.034
 11
108.05
 20
-59.749
 21
-60
  0
LINE
  8
0
 10
108.05
 11
108.034
 20
-60
 21
-60.251
  0
LINE
  8
0
 10
108.034
 11
107.987
 20
-60.251
 21
-60.497
  0
LINE
  8
0
 10
107.987
 11
107.91
 20
-60.497
 21
-60.736
  0
LINE
  8
0
 10
107.91
 11
107.803
 20
-60.736
 21
-60.964
  0
LINE
  8
0
 10
107.803
 11
107.668
 20
-60.964
 21
-61.176
  0
LINE
  8
0
 10
107.668
 11
107.508
 20
-61.176
 21
-61.369
  0
LINE
  8
0
 10
107.508
 11
107.325
 20
-61.369
 21
-61.541
  0
LINE
  8
0
 10
107.325
 11
107.122
 20
-61.541
 21
-61.689
  0
LINE
  8
0
 10
107.122
 11
106.902
 20
-61.689
 21
-61.81
  0
LINE
  8
0
 10
106.902
 11
106.668
 20
-61.81
 21
-61.902
  0
LINE
  8
0
 10
106.668
 11
106.425
 20
-61.902
 21
-61.965
  0
LINE
  8
0
 10
106.425
 11
106.176
 20
-61.965
 21
-61.996
  0
LINE
  8
0
 10
106.176
 11
105.924
 20
-61.996
 21
-61.996
  0
LINE
  8
0
 10
105.924
 11
105.675
 20
-61.996
 21
-61.965
  0
LINE
  8
0
 10
105.675
 11
105.432
 20
-61.965
 21
-61.902
  0
LINE
  8
0
 10
105.432
 11
105.198
 20
-61.902
 21
-61.81
  0
LINE
  8
0
 10
105.198
 11
104.978
 20
-61.81
 21
-61.689
  0
LINE
  8
0
 10
104.978
 11
104.775
 20
-61.689
 21
-61.541
  0
LINE
  8
0
 10
104.775
 11
104.592
 20
-61.541
 21
-61.369
  0
LINE
  8
0
 10
104.592
 11
104.432
 20
-61.369
 21
-61.176
  0
LINE
  8
0
 10
104.432
 11
104.297
 20
-61.176
 21
-60.964
  0
LINE
  8
0
 10
104.297
 11
104.19
 20
-60.964
 21
-60.736
  0
LINE
  8
0
 10
104.19
 11
104.113
 20
-60.736
 21
-60.497
  0
LINE
  8
0
 10
104.113
 11
104.066
 20
-60.497
 21
-60.251
  0
LINE
  8
0
 10
104.066
 11
104.05
 20
-60.251
 21
-60
  0
LINE
  8
0
 10
104.05
 11
104.066
 20
0
 21
0.251
  0
LINE
  8
0
 10
104.066
 11
104.113
 20
0.251
 21
0.497
  0
LINE
  8
0
 10
104.113
 11
104.19
 20
0.497
 21
0.736
  0
LINE
  8
0
 10
104.19
 11
104.297
 20
0.736
 21
0.964
  0
LINE
  8
0
 10
104.297
 11
104.432
 20
0.964
 21
1.176
  0
LINE
  8
0
 10
104.432
 11
104.592
 20
1.176
 21
1.369
  0
LINE
  8
0
 10
104.592
 11
104.775
 20
1.369
 21
1.541
  0
LINE
  8
0
 10
104.775
 11
104.978
 20
1.541
 21
1.689
  0
LINE
  8
0
 10
104.978
 11
105.198
 20
1.689
 21
1.81
  0
LINE
  8
0
 10
105.198
 11
105.432
 20
1.81
 21
1.902
  0
LINE
  8
0
 10
105.432
 11
105.675
 20
1.902
 21
1.965
  0
LINE
  8
0
 10
105.675
 11
105.924
 20
1.965
 21
1.996
  0
LINE
  8
0
 10
105.924
 11
106.176
 20
1.996
 21
1.996
  0
LINE
  8
0
 10
106.176
 11
106.425
 20
1.996
 21
1.965
  0
LINE
  8
0
 10
106.425
 11
106.668
 20
1.965
 21
1.902
  0
LINE
  8
0
 10
106.668
 11
106.902
 20
1.902
 21
1.81
  0
LINE
  8
0
 10
106.902
 11
107.122
 20
1.81
 21
1.689
  0
LINE
  8
0
 10
107.122
 11
107.325
 20
1.689
 21
1.541
  0
LINE
  8
0
 10
107.325
 11
107.508
 20
1.541
 21
1.369
  0
LINE
  8
0
 10
107.508
 11
107.668
 20
1.369
 21
1.176
  0
LINE
  8
0
 10
107.668
 11
107.803
 20
1.176
 21
0.964
  0
LINE
  8
0
 10
107.803
 11
107.91
 20
0.964
 21
0.736
  0
LINE
  8
0
 10
107.91
 11
107.987
 20
0.736
 21
0.497
  0
LINE
  8
0
 10
107.987
 11
108.034
 20
0.497
 21
0.251
  0
LINE
  8
0
 10
108.034
 11
108.05
 20
0.251
 21
0
  0
LINE
  8
0
 10
108.05
 11
108.034
 20
0
 21
-0.251
  0
LINE
  8
0
 10
108.034
 11
107.987
 20
-0.251
 21
-0.497
  0
LINE
  8
0
 10
107.987
 11
107.91
 20
-0.497
 21
-0.736
  0
LINE
  8
0
 10
107.91
 11
107.803
 20
-0.736
 21
-0.964
  0
LINE
  8
0
 10
107.803
 11
107.668
 20
-0.964
 21
-1.176
  0
LINE
  8
0
 10
107.668
 11
107.508
 20
-1.176
 21
-1.369
  0
LINE
  8
0
 10
107.508
 11
107.325
 20
-1.369
 21
-1.541
  0
LINE
  8
0
 10
107.325
 11
107.122
 20
-1.541
 21
-1.689
  0
LINE
  8
0
 10
107.122
 11
106.902
 20
-1.689
 21
-1.81
  0
LINE
  8
0
 10
106.902
 11
106.668
 20
-1.81
 21
-1.902
  0
LINE
  8
0
 10
106.668
 11
106.425
 20
-1.902
 21
-1.965
  0
LINE
  8
0
 10
106.425
 11
106.176
 20
-1.965
 21
-1.996
  0
LINE
  8
0
 10
106.176
 11
105.924
 20
-1.996
 21
-1.996
  0
LINE
  8
0
 10
105.924
 11
105.675
 20
-1.996
 21
-1.965
  0
LINE
  8
0
 10
105.675
 11
105.432
 20
-1.965
 21
-1.902
  0
LINE
  8
0
 10
105.432
 11
105.198
 20
-1.902
 21
-1.81
  0
LINE
  8
0
 10
105.198
 11
104.978
 20
-1.81
 21
-1.689
  0
LINE
  8
0
 10
104.978
 11
104.775
 20
-1.689
 21
-1.541
  0
LINE
  8
0
 10
104.775
 11
104.592
 20
-1.541
 21
-1.369
  0
LINE
  8
0
 10
104.592
 11
104.432
 20
-1.369
 21
-1.176
  0
LINE
  8
0
 10
104.432
 11
104.297
 20
-1.176
 21
-0.964
  0
LINE
  8
0
 10
104.297
 11
104.19
 20
-0.964
 21
-0.736
  0
LINE
  8
0
 10
104.19
 11
104.113
 20
-0.736
 21
-0.497
  0
LINE
  8
0
 10
104.113
 11
104.066
 20
-0.497
 21
-0.251
  0
LINE
  8
0
 10
104.066
 11
104.05
 20
-0.251
 21
0
  0
LINE
  8
0
 10
104.05
 11
104.066
 20
60
 21
60.251
  0
LINE
  8
0
 10
104.066
 11
104.113
 20
60.251
 21
60.497
  0
LINE
  8
0
 10
104.113
 11
104.19
 20
60.497
 21
60.736
  0
LINE
  8
0
 10
104.19
 11
104.297
 20
60.736
 21
60.964
  0
LINE
  8
0
 10
104.297
 11
104.432
 20
60.964
 21
61.176
  0
LINE
  8
0
 10
104.432
 11
104.592
 20
61.176
 21
61.369
  0
LINE
  8
0
 10
104.592
 11
104.775
 20
61.369
 21
61.541
  0
LINE
  8
0
 10
104.775
 11
104.978
 20
61.541
 21
61.689
  0
LINE
  8
0
 10
104.978
 11
105.198
 20
61.689
 21
61.81
  0
LINE
  8
0
 10
105.198
 11
105.432
 20
61.81
 21
61.902
  0
LINE
  8
0
 10
105.432
 11
105.675
 20
61.902
 21
61.965
  0
LINE
  8
0
 10
105.675
 11
105.924
 20
61.965
 21
61.996
  0
LINE
  8
0
 10
105.924
 11
106.176
 20
61.996
 21
61.996
  0
LINE
  8
0
 10
106.176
 11
106.425
 20
61.996
 21
61.965
  0
LINE
  8
0
 10
106.425
 11
106.668
 20
61.965
 21
61.902
  0
LINE
  8
0
 10
106.668
 11
106.902
 20
61.902
 21
61.81
  0
LINE
  8
0
 10
106.902
 11
107.122
 20
61.81
 21
61.689
  0
LINE
  8
0
 10
107.122
 11
107.325
 20
61.689
 21
61.541
  0
LINE
  8
0
 10
107.325
 11
107.508
 20
61.541
 21
61.369
  0
LINE
  8
0
 10
107.508
 11
107.668
 20
61.369
 21
61.176
  0
LINE
  8
0
 10
107.668
 11
107.803
 20
61.176
 21
60.964
  0
LINE
  8
0
 10
107.803
 11
107.91
 20
60.964
 21
60.736
  0
LINE
  8
0
 10
107.91
 11
107.987
 20
60.736
 21
60.497
  0
LINE
  8
0
 10
107.987
 11
108.034
 20
60.497
 21
60.251
  0
LINE
  8
0
 10
108.034
 11
108.05
 20
60.251
 21
60
  0
LINE
  8
0
 10
108.05
 11
108.034
 20
60
 21
59.749
  0
LINE
  8
0
 10
108.034
 11
107.987
 20
59.749
 21
59.503
  0
LINE
  8
0
 10
107.987
 11
107.91
 20
59.503
 21
59.264
  0
LINE
  8
0
 10
107.91
 11
107.803
 20
59.264
 21
59.036
  0
LINE
  8
0
 10
107.803
 11
107.668
 20
59.036
 21
58.824
  0
LINE
  8
0
 10
107.668
 11
107.508
 20
58.824
 21
58.631
  0
LINE
  8
0
 10
107.508
 11
107.325
 20
58.631
 21
58.459
  0
LINE
  8
0
 10
107.325
 11
107.122
 20
58.459
 21
58.311
  0
LINE
  8
0
 10
107.122
 11
106.902
 20
58.311
 21
58.19
  0
LINE
  8
0
 10
106.902
 11
106.668
 20
58.19
 21
58.098
  0
LINE
  8
0
 10
106.668
 11
106.425
 20
58.098
 21
58.035
  0
LINE
  8
0
 10
106.425
 11
106.176
 20
58.035
 21
58.004
  0
LINE
  8
0
 10
106.176
 11
105.924
 20
58.004
 21
58.004
  0
LINE
  8
0
 10
105.924
 11
105.675
 20
58.004
 21
58.035
  0
LINE
  8
0
 10
105.675
 11
105.432
 20
58.035
 21
58.098
  0
LINE
  8
0
 10
105.432
 11
105.198
 20
58.098
 21
58.19
  0
LINE
  8
0
 10
105.198
 11
104.978
 20
58.19
 21
58.311
  0
LINE
  8
0
 10
104.978
 11
104.775
 20
58.311
 21
58.459
  0
LINE
  8
0
 10
104.775
 11
104.592
 20
58.459
 21
58.631
  0
LINE
  8
0
 10
104.592
 11
104.432
 20
58.631
 21
58.824
  0
LINE
  8
0
 10
104.432
 11
104.297
 20
58.824
 21
59.036
  0
LINE
  8
0
 10
104.297
 11
104.19
 20
59.036
 21
59.264
  0
LINE
  8
0
 10
104.19
 11
104.113
 20
59.264
 21
59.503
  0
LINE
  8
0
 10
104.113
 11
104.066
 20
59.503
 21
59.749
  0
LINE
  8
0
 10
104.066
 11
104.05
 20
59.749
 21
60
  0
ENDSEC
  0
SECTION
  2
OBJECTS
  0
DICTIONARY
  0
ENDSEC
  0
EOF
