  0
SECTION
  2
BLOCKS
  0
ENDSEC
  0
SECTION
  2
ENTITIES
  0
LINE
  8
0
 10
-21.4
 11
-21.4
 20
-21.4
 21
21.4
  0
LINE
  8
0
 10
-21.4
 11
21.4
 20
21.4
 21
21.4
  0
LINE
  8
0
 10
21.4
 11
21.4
 20
21.4
 21
-21.4
  0
LINE
  8
0
 10
21.4
 11
-21.4
 20
-21.4
 21
-21.4
  0
LINE
  8
0
 10
-16.5
 11
-16.488
 20
-15
 21
-14.812
  0
LINE
  8
0
 10
-16.488
 11
-16.453
 20
-14.812
 21
-14.627
  0
LINE
  8
0
 10
-16.453
 11
-16.395
 20
-14.627
 21
-14.448
  0
LINE
  8
0
 10
-16.395
 11
-16.314
 20
-14.448
 21
-14.277
  0
LINE
  8
0
 10
-16.314
 11
-16.214
 20
-14.277
 21
-14.118
  0
LINE
  8
0
 10
-16.214
 11
-16.093
 20
-14.118
 21
-13.973
  0
LINE
  8
0
 10
-16.093
 11
-15.956
 20
-13.973
 21
-13.844
  0
LINE
  8
0
 10
-15.956
 11
-15.804
 20
-13.844
 21
-13.734
  0
LINE
  8
0
 10
-15.804
 11
-15.639
 20
-13.734
 21
-13.643
  0
LINE
  8
0
 10
-15.639
 11
-15.464
 20
-13.643
 21
-13.573
  0
LINE
  8
0
 10
-15.464
 11
-15.281
 20
-13.573
 21
-13.527
  0
LINE
  8
0
 10
-15.281
 11
-15.094
 20
-13.527
 21
-13.503
  0
LINE
  8
0
 10
-15.094
 11
-14.906
 20
-13.503
 21
-13.503
  0
LINE
  8
0
 10
-14.906
 11
-14.719
 20
-13.503
 21
-13.527
  0
LINE
  8
0
 10
-14.719
 11
-14.536
 20
-13.527
 21
-13.573
  0
LINE
  8
0
 10
-14.536
 11
-14.361
 20
-13.573
 21
-13.643
  0
LINE
  8
0
 10
-14.361
 11
-14.196
 20
-13.643
 21
-13.734
  0
LINE
  8
0
 10
-14.196
 11
-14.044
 20
-13.734
 21
-13.844
  0
LINE
  8
0
 10
-14.044
 11
-13.907
 20
-13.844
 21
-13.973
  0
LINE
  8
0
 10
-13.907
 11
-13.786
 20
-13.973
 21
-14.118
  0
LINE
  8
0
 10
-13.786
 11
-13.686
 20
-14.118
 21
-14.277
  0
LINE
  8
0
 10
-13.686
 11
-13.605
 20
-14.277
 21
-14.448
  0
LINE
  8
0
 10
-13.605
 11
-13.547
 20
-14.448
 21
-14.627
  0
LINE
  8
0
 10
-13.547
 11
-13.512
 20
-14.627
 21
-14.812
  0
LINE
  8
0
 10
-13.512
 11
-13.5
 20
-14.812
 21
-15
  0
LINE
  8
0
 10
-13.5
 11
-13.512
 20
-15
 21
-15.188
  0
LINE
  8
0
 10
-13.512
 11
-13.547
 20
-15.188
 21
-15.373
  0
LINE
  8
0
 10
-13.547
 11
-13.605
 20
-15.373
 21
-15.552
  0
LINE
  8
0
 10
-13.605
 11
-13.686
 20
-15.552
 21
-15.723
  0
LINE
  8
0
 10
-13.686
 11
-13.786
 20
-15.723
 21
-15.882
  0
LINE
  8
0
 10
-13.786
 11
-13.907
 20
-15.882
 21
-16.027
  0
LINE
  8
0
 10
-13.907
 11
-14.044
 20
-16.027
 21
-16.156
  0
LINE
  8
0
 10
-14.044
 11
-14.196
 20
-16.156
 21
-16.266
  0
LINE
  8
0
 10
-14.196
 11
-14.361
 20
-16.266
 21
-16.357
  0
LINE
  8
0
 10
-14.361
 11
-14.536
 20
-16.357
 21
-16.427
  0
LINE
  8
0
 10
-14.536
 11
-14.719
 20
-16.427
 21
-16.473
  0
LINE
  8
0
 10
-14.719
 11
-14.906
 20
-16.473
 21
-16.497
  0
LINE
  8
0
 10
-14.906
 11
-15.094
 20
-16.497
 21
-16.497
  0
LINE
  8
0
 10
-15.094
 11
-15.281
 20
-16.497
 21
-16.473
  0
LINE
  8
0
 10
-15.281
 11
-15.464
 20
-16.473
 21
-16.427
  0
LINE
  8
0
 10
-15.464
 11
-15.639
 20
-16.427
 21
-16.357
  0
LINE
  8
0
 10
-15.639
 11
-15.804
 20
-16.357
 21
-16.266
  0
LINE
  8
0
 10
-15.804
 11
-15.956
 20
-16.266
 21
-16.156
  0
LINE
  8
0
 10
-15.956
 11
-16.093
 20
-16.156
 21
-16.027
  0
LINE
  8
0
 10
-16.093
 11
-16.214
 20
-16.027
 21
-15.882
  0
LINE
  8
0
 10
-16.214
 11
-16.314
 20
-15.882
 21
-15.723
  0
LINE
  8
0
 10
-16.314
 11
-16.395
 20
-15.723
 21
-15.552
  0
LINE
  8
0
 10
-16.395
 11
-16.453
 20
-15.552
 21
-15.373
  0
LINE
  8
0
 10
-16.453
 11
-16.488
 20
-15.373
 21
-15.188
  0
LINE
  8
0
 10
-16.488
 11
-16.5
 20
-15.188
 21
-15
  0
LINE
  8
0
 10
-16.497
 11
-16.497
 20
14.906
 21
15.094
  0
LINE
  8
0
 10
-16.497
 11
-16.473
 20
15.094
 21
15.281
  0
LINE
  8
0
 10
-16.473
 11
-16.427
 20
15.281
 21
15.464
  0
LINE
  8
0
 10
-16.427
 11
-16.357
 20
15.464
 21
15.639
  0
LINE
  8
0
 10
-16.357
 11
-16.266
 20
15.639
 21
15.804
  0
LINE
  8
0
 10
-16.266
 11
-16.156
 20
15.804
 21
15.956
  0
LINE
  8
0
 10
-16.156
 11
-16.027
 20
15.956
 21
16.093
  0
LINE
  8
0
 10
-16.027
 11
-15.882
 20
16.093
 21
16.214
  0
LINE
  8
0
 10
-15.882
 11
-15.723
 20
16.214
 21
16.314
  0
LINE
  8
0
 10
-15.723
 11
-15.552
 20
16.314
 21
16.395
  0
LINE
  8
0
 10
-15.552
 11
-15.373
 20
16.395
 21
16.453
  0
LINE
  8
0
 10
-15.373
 11
-15.188
 20
16.453
 21
16.488
  0
LINE
  8
0
 10
-15.188
 11
-15
 20
16.488
 21
16.5
  0
LINE
  8
0
 10
-15
 11
-14.812
 20
16.5
 21
16.488
  0
LINE
  8
0
 10
-14.812
 11
-14.627
 20
16.488
 21
16.453
  0
LINE
  8
0
 10
-14.627
 11
-14.448
 20
16.453
 21
16.395
  0
LINE
  8
0
 10
-14.448
 11
-14.277
 20
16.395
 21
16.314
  0
LINE
  8
0
 10
-14.277
 11
-14.118
 20
16.314
 21
16.214
  0
LINE
  8
0
 10
-14.118
 11
-13.973
 20
16.214
 21
16.093
  0
LINE
  8
0
 10
-13.973
 11
-13.844
 20
16.093
 21
15.956
  0
LINE
  8
0
 10
-13.844
 11
-13.734
 20
15.956
 21
15.804
  0
LINE
  8
0
 10
-13.734
 11
-13.643
 20
15.804
 21
15.639
  0
LINE
  8
0
 10
-13.643
 11
-13.573
 20
15.639
 21
15.464
  0
LINE
  8
0
 10
-13.573
 11
-13.527
 20
15.464
 21
15.281
  0
LINE
  8
0
 10
-13.527
 11
-13.503
 20
15.281
 21
15.094
  0
LINE
  8
0
 10
-13.503
 11
-13.503
 20
15.094
 21
14.906
  0
LINE
  8
0
 10
-13.503
 11
-13.527
 20
14.906
 21
14.719
  0
LINE
  8
0
 10
-13.527
 11
-13.573
 20
14.719
 21
14.536
  0
LINE
  8
0
 10
-13.573
 11
-13.643
 20
14.536
 21
14.361
  0
LINE
  8
0
 10
-13.643
 11
-13.734
 20
14.361
 21
14.196
  0
LINE
  8
0
 10
-13.734
 11
-13.844
 20
14.196
 21
14.044
  0
LINE
  8
0
 10
-13.844
 11
-13.973
 20
14.044
 21
13.907
  0
LINE
  8
0
 10
-13.973
 11
-14.118
 20
13.907
 21
13.786
  0
LINE
  8
0
 10
-14.118
 11
-14.277
 20
13.786
 21
13.686
  0
LINE
  8
0
 10
-14.277
 11
-14.448
 20
13.686
 21
13.605
  0
LINE
  8
0
 10
-14.448
 11
-14.627
 20
13.605
 21
13.547
  0
LINE
  8
0
 10
-14.627
 11
-14.812
 20
13.547
 21
13.512
  0
LINE
  8
0
 10
-14.812
 11
-15
 20
13.512
 21
13.5
  0
LINE
  8
0
 10
-15
 11
-15.188
 20
13.5
 21
13.512
  0
LINE
  8
0
 10
-15.188
 11
-15.373
 20
13.512
 21
13.547
  0
LINE
  8
0
 10
-15.373
 11
-15.552
 20
13.547
 21
13.605
  0
LINE
  8
0
 10
-15.552
 11
-15.723
 20
13.605
 21
13.686
  0
LINE
  8
0
 10
-15.723
 11
-15.882
 20
13.686
 21
13.786
  0
LINE
  8
0
 10
-15.882
 11
-16.027
 20
13.786
 21
13.907
  0
LINE
  8
0
 10
-16.027
 11
-16.156
 20
13.907
 21
14.044
  0
LINE
  8
0
 10
-16.156
 11
-16.266
 20
14.044
 21
14.196
  0
LINE
  8
0
 10
-16.266
 11
-16.357
 20
14.196
 21
14.361
  0
LINE
  8
0
 10
-16.357
 11
-16.427
 20
14.361
 21
14.536
  0
LINE
  8
0
 10
-16.427
 11
-16.473
 20
14.536
 21
14.719
  0
LINE
  8
0
 10
-16.473
 11
-16.497
 20
14.719
 21
14.906
  0
LINE
  8
0
 10
-2.5
 11
-2.48
 20
0
 21
0.313
  0
LINE
  8
0
 10
-2.48
 11
-2.421
 20
0.313
 21
0.622
  0
LINE
  8
0
 10
-2.421
 11
-2.324
 20
0.622
 21
0.92
  0
LINE
  8
0
 10
-2.324
 11
-2.191
 20
0.92
 21
1.204
  0
LINE
  8
0
 10
-2.191
 11
-2.023
 20
1.204
 21
1.469
  0
LINE
  8
0
 10
-2.023
 11
-1.822
 20
1.469
 21
1.711
  0
LINE
  8
0
 10
-1.822
 11
-1.594
 20
1.711
 21
1.926
  0
LINE
  8
0
 10
-1.594
 11
-1.34
 20
1.926
 21
2.111
  0
LINE
  8
0
 10
-1.34
 11
-1.064
 20
2.111
 21
2.262
  0
LINE
  8
0
 10
-1.064
 11
-0.773
 20
2.262
 21
2.378
  0
LINE
  8
0
 10
-0.773
 11
-0.468
 20
2.378
 21
2.456
  0
LINE
  8
0
 10
-0.468
 11
-0.157
 20
2.456
 21
2.495
  0
LINE
  8
0
 10
-0.157
 11
0.157
 20
2.495
 21
2.495
  0
LINE
  8
0
 10
0.157
 11
0.468
 20
2.495
 21
2.456
  0
LINE
  8
0
 10
0.468
 11
0.773
 20
2.456
 21
2.378
  0
LINE
  8
0
 10
0.773
 11
1.064
 20
2.378
 21
2.262
  0
LINE
  8
0
 10
1.064
 11
1.34
 20
2.262
 21
2.111
  0
LINE
  8
0
 10
1.34
 11
1.594
 20
2.111
 21
1.926
  0
LINE
  8
0
 10
1.594
 11
1.822
 20
1.926
 21
1.711
  0
LINE
  8
0
 10
1.822
 11
2.023
 20
1.711
 21
1.469
  0
LINE
  8
0
 10
2.023
 11
2.191
 20
1.469
 21
1.204
  0
LINE
  8
0
 10
2.191
 11
2.324
 20
1.204
 21
0.92
  0
LINE
  8
0
 10
2.324
 11
2.421
 20
0.92
 21
0.622
  0
LINE
  8
0
 10
2.421
 11
2.48
 20
0.622
 21
0.313
  0
LINE
  8
0
 10
2.48
 11
2.5
 20
0.313
 21
0
  0
LINE
  8
0
 10
2.5
 11
2.48
 20
0
 21
-0.313
  0
LINE
  8
0
 10
2.48
 11
2.421
 20
-0.313
 21
-0.622
  0
LINE
  8
0
 10
2.421
 11
2.324
 20
-0.622
 21
-0.92
  0
LINE
  8
0
 10
2.324
 11
2.191
 20
-0.92
 21
-1.204
  0
LINE
  8
0
 10
2.191
 11
2.023
 20
-1.204
 21
-1.469
  0
LINE
  8
0
 10
2.023
 11
1.822
 20
-1.469
 21
-1.711
  0
LINE
  8
0
 10
1.822
 11
1.594
 20
-1.711
 21
-1.926
  0
LINE
  8
0
 10
1.594
 11
1.34
 20
-1.926
 21
-2.111
  0
LINE
  8
0
 10
1.34
 11
1.064
 20
-2.111
 21
-2.262
  0
LINE
  8
0
 10
1.064
 11
0.773
 20
-2.262
 21
-2.378
  0
LINE
  8
0
 10
0.773
 11
0.468
 20
-2.378
 21
-2.456
  0
LINE
  8
0
 10
0.468
 11
0.157
 20
-2.456
 21
-2.495
  0
LINE
  8
0
 10
0.157
 11
-0.157
 20
-2.495
 21
-2.495
  0
LINE
  8
0
 10
-0.157
 11
-0.468
 20
-2.495
 21
-2.456
  0
LINE
  8
0
 10
-0.468
 11
-0.773
 20
-2.456
 21
-2.378
  0
LINE
  8
0
 10
-0.773
 11
-1.064
 20
-2.378
 21
-2.262
  0
LINE
  8
0
 10
-1.064
 11
-1.34
 20
-2.262
 21
-2.111
  0
LINE
  8
0
 10
-1.34
 11
-1.594
 20
-2.111
 21
-1.926
  0
LINE
  8
0
 10
-1.594
 11
-1.822
 20
-1.926
 21
-1.711
  0
LINE
  8
0
 10
-1.822
 11
-2.023
 20
-1.711
 21
-1.469
  0
LINE
  8
0
 10
-2.023
 11
-2.191
 20
-1.469
 21
-1.204
  0
LINE
  8
0
 10
-2.191
 11
-2.324
 20
-1.204
 21
-0.92
  0
LINE
  8
0
 10
-2.324
 11
-2.421
 20
-0.92
 21
-0.622
  0
LINE
  8
0
 10
-2.421
 11
-2.48
 20
-0.622
 21
-0.313
  0
LINE
  8
0
 10
-2.48
 11
-2.5
 20
-0.313
 21
0
  0
LINE
  8
0
 10
13.5
 11
13.512
 20
15
 21
15.188
  0
LINE
  8
0
 10
13.512
 11
13.547
 20
15.188
 21
15.373
  0
LINE
  8
0
 10
13.547
 11
13.605
 20
15.373
 21
15.552
  0
LINE
  8
0
 10
13.605
 11
13.686
 20
15.552
 21
15.723
  0
LINE
  8
0
 10
13.686
 11
13.786
 20
15.723
 21
15.882
  0
LINE
  8
0
 10
13.786
 11
13.907
 20
15.882
 21
16.027
  0
LINE
  8
0
 10
13.907
 11
14.044
 20
16.027
 21
16.156
  0
LINE
  8
0
 10
14.044
 11
14.196
 20
16.156
 21
16.266
  0
LINE
  8
0
 10
14.196
 11
14.361
 20
16.266
 21
16.357
  0
LINE
  8
0
 10
14.361
 11
14.536
 20
16.357
 21
16.427
  0
LINE
  8
0
 10
14.536
 11
14.719
 20
16.427
 21
16.473
  0
LINE
  8
0
 10
14.719
 11
14.906
 20
16.473
 21
16.497
  0
LINE
  8
0
 10
14.906
 11
15.094
 20
16.497
 21
16.497
  0
LINE
  8
0
 10
15.094
 11
15.281
 20
16.497
 21
16.473
  0
LINE
  8
0
 10
15.281
 11
15.464
 20
16.473
 21
16.427
  0
LINE
  8
0
 10
15.464
 11
15.639
 20
16.427
 21
16.357
  0
LINE
  8
0
 10
15.639
 11
15.804
 20
16.357
 21
16.266
  0
LINE
  8
0
 10
15.804
 11
15.956
 20
16.266
 21
16.156
  0
LINE
  8
0
 10
15.956
 11
16.093
 20
16.156
 21
16.027
  0
LINE
  8
0
 10
16.093
 11
16.214
 20
16.027
 21
15.882
  0
LINE
  8
0
 10
16.214
 11
16.314
 20
15.882
 21
15.723
  0
LINE
  8
0
 10
16.314
 11
16.395
 20
15.723
 21
15.552
  0
LINE
  8
0
 10
16.395
 11
16.453
 20
15.552
 21
15.373
  0
LINE
  8
0
 10
16.453
 11
16.488
 20
15.373
 21
15.188
  0
LINE
  8
0
 10
16.488
 11
16.5
 20
15.188
 21
15
  0
LINE
  8
0
 10
16.5
 11
16.488
 20
15
 21
14.812
  0
LINE
  8
0
 10
16.488
 11
16.453
 20
14.812
 21
14.627
  0
LINE
  8
0
 10
16.453
 11
16.395
 20
14.627
 21
14.448
  0
LINE
  8
0
 10
16.395
 11
16.314
 20
14.448
 21
14.277
  0
LINE
  8
0
 10
16.314
 11
16.214
 20
14.277
 21
14.118
  0
LINE
  8
0
 10
16.214
 11
16.093
 20
14.118
 21
13.973
  0
LINE
  8
0
 10
16.093
 11
15.956
 20
13.973
 21
13.844
  0
LINE
  8
0
 10
15.956
 11
15.804
 20
13.844
 21
13.734
  0
LINE
  8
0
 10
15.804
 11
15.639
 20
13.734
 21
13.643
  0
LINE
  8
0
 10
15.639
 11
15.464
 20
13.643
 21
13.573
  0
LINE
  8
0
 10
15.464
 11
15.281
 20
13.573
 21
13.527
  0
LINE
  8
0
 10
15.281
 11
15.094
 20
13.527
 21
13.503
  0
LINE
  8
0
 10
15.094
 11
14.906
 20
13.503
 21
13.503
  0
LINE
  8
0
 10
14.906
 11
14.719
 20
13.503
 21
13.527
  0
LINE
  8
0
 10
14.719
 11
14.536
 20
13.527
 21
13.573
  0
LINE
  8
0
 10
14.536
 11
14.361
 20
13.573
 21
13.643
  0
LINE
  8
0
 10
14.361
 11
14.196
 20
13.643
 21
13.734
  0
LINE
  8
0
 10
14.196
 11
14.044
 20
13.734
 21
13.844
  0
LINE
  8
0
 10
14.044
 11
13.907
 20
13.844
 21
13.973
  0
LINE
  8
0
 10
13.907
 11
13.786
 20
13.973
 21
14.118
  0
LINE
  8
0
 10
13.786
 11
13.686
 20
14.118
 21
14.277
  0
LINE
  8
0
 10
13.686
 11
13.605
 20
14.277
 21
14.448
  0
LINE
  8
0
 10
13.605
 11
13.547
 20
14.448
 21
14.627
  0
LINE
  8
0
 10
13.547
 11
13.512
 20
14.627
 21
14.812
  0
LINE
  8
0
 10
13.512
 11
13.5
 20
14.812
 21
15
  0
LINE
  8
0
 10
13.503
 11
13.503
 20
-15.094
 21
-14.906
  0
LINE
  8
0
 10
13.503
 11
13.527
 20
-14.906
 21
-14.719
  0
LINE
  8
0
 10
13.527
 11
13.573
 20
-14.719
 21
-14.536
  0
LINE
  8
0
 10
13.573
 11
13.643
 20
-14.536
 21
-14.361
  0
LINE
  8
0
 10
13.643
 11
13.734
 20
-14.361
 21
-14.196
  0
LINE
  8
0
 10
13.734
 11
13.844
 20
-14.196
 21
-14.044
  0
LINE
  8
0
 10
13.844
 11
13.973
 20
-14.044
 21
-13.907
  0
LINE
  8
0
 10
13.973
 11
14.118
 20
-13.907
 21
-13.786
  0
LINE
  8
0
 10
14.118
 11
14.277
 20
-13.786
 21
-13.686
  0
LINE
  8
0
 10
14.277
 11
14.448
 20
-13.686
 21
-13.605
  0
LINE
  8
0
 10
14.448
 11
14.627
 20
-13.605
 21
-13.547
  0
LINE
  8
0
 10
14.627
 11
14.812
 20
-13.547
 21
-13.512
  0
LINE
  8
0
 10
14.812
 11
15
 20
-13.512
 21
-13.5
  0
LINE
  8
0
 10
15
 11
15.188
 20
-13.5
 21
-13.512
  0
LINE
  8
0
 10
15.188
 11
15.373
 20
-13.512
 21
-13.547
  0
LINE
  8
0
 10
15.373
 11
15.552
 20
-13.547
 21
-13.605
  0
LINE
  8
0
 10
15.552
 11
15.723
 20
-13.605
 21
-13.686
  0
LINE
  8
0
 10
15.723
 11
15.882
 20
-13.686
 21
-13.786
  0
LINE
  8
0
 10
15.882
 11
16.027
 20
-13.786
 21
-13.907
  0
LINE
  8
0
 10
16.027
 11
16.156
 20
-13.907
 21
-14.044
  0
LINE
  8
0
 10
16.156
 11
16.266
 20
-14.044
 21
-14.196
  0
LINE
  8
0
 10
16.266
 11
16.357
 20
-14.196
 21
-14.361
  0
LINE
  8
0
 10
16.357
 11
16.427
 20
-14.361
 21
-14.536
  0
LINE
  8
0
 10
16.427
 11
16.473
 20
-14.536
 21
-14.719
  0
LINE
  8
0
 10
16.473
 11
16.497
 20
-14.719
 21
-14.906
  0
LINE
  8
0
 10
16.497
 11
16.497
 20
-14.906
 21
-15.094
  0
LINE
  8
0
 10
16.497
 11
16.473
 20
-15.094
 21
-15.281
  0
LINE
  8
0
 10
16.473
 11
16.427
 20
-15.281
 21
-15.464
  0
LINE
  8
0
 10
16.427
 11
16.357
 20
-15.464
 21
-15.639
  0
LINE
  8
0
 10
16.357
 11
16.266
 20
-15.639
 21
-15.804
  0
LINE
  8
0
 10
16.266
 11
16.156
 20
-15.804
 21
-15.956
  0
LINE
  8
0
 10
16.156
 11
16.027
 20
-15.956
 21
-16.093
  0
LINE
  8
0
 10
16.027
 11
15.882
 20
-16.093
 21
-16.214
  0
LINE
  8
0
 10
15.882
 11
15.723
 20
-16.214
 21
-16.314
  0
LINE
  8
0
 10
15.723
 11
15.552
 20
-16.314
 21
-16.395
  0
LINE
  8
0
 10
15.552
 11
15.373
 20
-16.395
 21
-16.453
  0
LINE
  8
0
 10
15.373
 11
15.188
 20
-16.453
 21
-16.488
  0
LINE
  8
0
 10
15.188
 11
15
 20
-16.488
 21
-16.5
  0
LINE
  8
0
 10
15
 11
14.812
 20
-16.5
 21
-16.488
  0
LINE
  8
0
 10
14.812
 11
14.627
 20
-16.488
 21
-16.453
  0
LINE
  8
0
 10
14.627
 11
14.448
 20
-16.453
 21
-16.395
  0
LINE
  8
0
 10
14.448
 11
14.277
 20
-16.395
 21
-16.314
  0
LINE
  8
0
 10
14.277
 11
14.118
 20
-16.314
 21
-16.214
  0
LINE
  8
0
 10
14.118
 11
13.973
 20
-16.214
 21
-16.093
  0
LINE
  8
0
 10
13.973
 11
13.844
 20
-16.093
 21
-15.956
  0
LINE
  8
0
 10
13.844
 11
13.734
 20
-15.956
 21
-15.804
  0
LINE
  8
0
 10
13.734
 11
13.643
 20
-15.804
 21
-15.639
  0
LINE
  8
0
 10
13.643
 11
13.573
 20
-15.639
 21
-15.464
  0
LINE
  8
0
 10
13.573
 11
13.527
 20
-15.464
 21
-15.281
  0
LINE
  8
0
 10
13.527
 11
13.503
 20
-15.281
 21
-15.094
  0
ENDSEC
  0
SECTION
  2
OBJECTS
  0
DICTIONARY
  0
ENDSEC
  0
EOF
