  0
SECTION
  2
BLOCKS
  0
ENDSEC
  0
SECTION
  2
ENTITIES
  0
LINE
  8
0
 10
-15
 11
-14.882
 20
0
 21
1.88
  0
LINE
  8
0
 10
-14.882
 11
-14.529
 20
1.88
 21
3.73
  0
LINE
  8
0
 10
-14.529
 11
-13.947
 20
3.73
 21
5.522
  0
LINE
  8
0
 10
-13.947
 11
-13.145
 20
5.522
 21
7.226
  0
LINE
  8
0
 10
-13.145
 11
-12.135
 20
7.226
 21
8.817
  0
LINE
  8
0
 10
-12.135
 11
-10.935
 20
8.817
 21
10.268
  0
LINE
  8
0
 10
-10.935
 11
-9.561
 20
10.268
 21
11.558
  0
LINE
  8
0
 10
-9.561
 11
-8.037
 20
11.558
 21
12.665
  0
LINE
  8
0
 10
-8.037
 11
-6.387
 20
12.665
 21
13.572
  0
LINE
  8
0
 10
-6.387
 11
-4.635
 20
13.572
 21
14.266
  0
LINE
  8
0
 10
-4.635
 11
-2.811
 20
14.266
 21
14.734
  0
LINE
  8
0
 10
-2.811
 11
-0.942
 20
14.734
 21
14.97
  0
LINE
  8
0
 10
-0.942
 11
0.942
 20
14.97
 21
14.97
  0
LINE
  8
0
 10
0.942
 11
2.811
 20
14.97
 21
14.734
  0
LINE
  8
0
 10
2.811
 11
4.635
 20
14.734
 21
14.266
  0
LINE
  8
0
 10
4.635
 11
6.387
 20
14.266
 21
13.572
  0
LINE
  8
0
 10
6.387
 11
8.037
 20
13.572
 21
12.665
  0
LINE
  8
0
 10
8.037
 11
9.561
 20
12.665
 21
11.558
  0
LINE
  8
0
 10
9.561
 11
10.935
 20
11.558
 21
10.268
  0
LINE
  8
0
 10
10.935
 11
12.135
 20
10.268
 21
8.817
  0
LINE
  8
0
 10
12.135
 11
13.145
 20
8.817
 21
7.226
  0
LINE
  8
0
 10
13.145
 11
13.947
 20
7.226
 21
5.522
  0
LINE
  8
0
 10
13.947
 11
14.529
 20
5.522
 21
3.73
  0
LINE
  8
0
 10
14.529
 11
14.882
 20
3.73
 21
1.88
  0
LINE
  8
0
 10
14.882
 11
15
 20
1.88
 21
0
  0
LINE
  8
0
 10
15
 11
14.882
 20
0
 21
-1.88
  0
LINE
  8
0
 10
14.882
 11
14.529
 20
-1.88
 21
-3.73
  0
LINE
  8
0
 10
14.529
 11
13.947
 20
-3.73
 21
-5.522
  0
LINE
  8
0
 10
13.947
 11
13.145
 20
-5.522
 21
-7.226
  0
LINE
  8
0
 10
13.145
 11
12.135
 20
-7.226
 21
-8.817
  0
LINE
  8
0
 10
12.135
 11
10.935
 20
-8.817
 21
-10.268
  0
LINE
  8
0
 10
10.935
 11
9.561
 20
-10.268
 21
-11.558
  0
LINE
  8
0
 10
9.561
 11
8.037
 20
-11.558
 21
-12.665
  0
LINE
  8
0
 10
8.037
 11
6.387
 20
-12.665
 21
-13.572
  0
LINE
  8
0
 10
6.387
 11
4.635
 20
-13.572
 21
-14.266
  0
LINE
  8
0
 10
4.635
 11
2.811
 20
-14.266
 21
-14.734
  0
LINE
  8
0
 10
2.811
 11
0.942
 20
-14.734
 21
-14.97
  0
LINE
  8
0
 10
0.942
 11
-0.942
 20
-14.97
 21
-14.97
  0
LINE
  8
0
 10
-0.942
 11
-2.811
 20
-14.97
 21
-14.734
  0
LINE
  8
0
 10
-2.811
 11
-4.635
 20
-14.734
 21
-14.266
  0
LINE
  8
0
 10
-4.635
 11
-6.387
 20
-14.266
 21
-13.572
  0
LINE
  8
0
 10
-6.387
 11
-8.037
 20
-13.572
 21
-12.665
  0
LINE
  8
0
 10
-8.037
 11
-9.561
 20
-12.665
 21
-11.558
  0
LINE
  8
0
 10
-9.561
 11
-10.935
 20
-11.558
 21
-10.268
  0
LINE
  8
0
 10
-10.935
 11
-12.135
 20
-10.268
 21
-8.817
  0
LINE
  8
0
 10
-12.135
 11
-13.145
 20
-8.817
 21
-7.226
  0
LINE
  8
0
 10
-13.145
 11
-13.947
 20
-7.226
 21
-5.522
  0
LINE
  8
0
 10
-13.947
 11
-14.529
 20
-5.522
 21
-3.73
  0
LINE
  8
0
 10
-14.529
 11
-14.882
 20
-3.73
 21
-1.88
  0
LINE
  8
0
 10
-14.882
 11
-15
 20
-1.88
 21
0
  0
LINE
  8
0
 10
-6.498
 11
-6.495
 20
-8.724
 21
-8.535
  0
LINE
  8
0
 10
-6.495
 11
-6.468
 20
-8.535
 21
-8.349
  0
LINE
  8
0
 10
-6.468
 11
-6.416
 20
-8.349
 21
-8.167
  0
LINE
  8
0
 10
-6.416
 11
-6.343
 20
-8.167
 21
-7.993
  0
LINE
  8
0
 10
-6.343
 11
-6.249
 20
-7.993
 21
-7.83
  0
LINE
  8
0
 10
-6.249
 11
-6.135
 20
-7.83
 21
-7.68
  0
LINE
  8
0
 10
-6.135
 11
-6.004
 20
-7.68
 21
-7.545
  0
LINE
  8
0
 10
-6.004
 11
-5.856
 20
-7.545
 21
-7.428
  0
LINE
  8
0
 10
-5.856
 11
-5.694
 20
-7.428
 21
-7.331
  0
LINE
  8
0
 10
-5.694
 11
-5.523
 20
-7.331
 21
-7.254
  0
LINE
  8
0
 10
-5.523
 11
-5.343
 20
-7.254
 21
-7.2
  0
LINE
  8
0
 10
-5.343
 11
-5.157
 20
-7.2
 21
-7.168
  0
LINE
  8
0
 10
-5.157
 11
-4.969
 20
-7.168
 21
-7.161
  0
LINE
  8
0
 10
-4.969
 11
-4.781
 20
-7.161
 21
-7.176
  0
LINE
  8
0
 10
-4.781
 11
-4.597
 20
-7.176
 21
-7.215
  0
LINE
  8
0
 10
-4.597
 11
-4.419
 20
-7.215
 21
-7.278
  0
LINE
  8
0
 10
-4.419
 11
-4.25
 20
-7.278
 21
-7.361
  0
LINE
  8
0
 10
-4.25
 11
-4.093
 20
-7.361
 21
-7.466
  0
LINE
  8
0
 10
-4.093
 11
-3.95
 20
-7.466
 21
-7.588
  0
LINE
  8
0
 10
-3.95
 11
-3.824
 20
-7.588
 21
-7.728
  0
LINE
  8
0
 10
-3.824
 11
-3.717
 20
-7.728
 21
-7.884
  0
LINE
  8
0
 10
-3.717
 11
-3.629
 20
-7.884
 21
-8.05
  0
LINE
  8
0
 10
-3.629
 11
-3.564
 20
-8.05
 21
-8.227
  0
LINE
  8
0
 10
-3.564
 11
-3.521
 20
-8.227
 21
-8.41
  0
LINE
  8
0
 10
-3.521
 11
-3.502
 20
-8.41
 21
-8.597
  0
LINE
  8
0
 10
-3.502
 11
-3.505
 20
-8.597
 21
-8.785
  0
LINE
  8
0
 10
-3.505
 11
-3.532
 20
-8.785
 21
-8.972
  0
LINE
  8
0
 10
-3.532
 11
-3.584
 20
-8.972
 21
-9.153
  0
LINE
  8
0
 10
-3.584
 11
-3.657
 20
-9.153
 21
-9.327
  0
LINE
  8
0
 10
-3.657
 11
-3.751
 20
-9.327
 21
-9.49
  0
LINE
  8
0
 10
-3.751
 11
-3.865
 20
-9.49
 21
-9.64
  0
LINE
  8
0
 10
-3.865
 11
-3.996
 20
-9.64
 21
-9.776
  0
LINE
  8
0
 10
-3.996
 11
-4.144
 20
-9.776
 21
-9.892
  0
LINE
  8
0
 10
-4.144
 11
-4.306
 20
-9.892
 21
-9.99
  0
LINE
  8
0
 10
-4.306
 11
-4.477
 20
-9.99
 21
-10.066
  0
LINE
  8
0
 10
-4.477
 11
-4.657
 20
-10.066
 21
-10.12
  0
LINE
  8
0
 10
-4.657
 11
-4.843
 20
-10.12
 21
-10.153
  0
LINE
  8
0
 10
-4.843
 11
-5.031
 20
-10.153
 21
-10.16
  0
LINE
  8
0
 10
-5.031
 11
-5.219
 20
-10.16
 21
-10.144
  0
LINE
  8
0
 10
-5.219
 11
-5.403
 20
-10.144
 21
-10.105
  0
LINE
  8
0
 10
-5.403
 11
-5.581
 20
-10.105
 21
-10.043
  0
LINE
  8
0
 10
-5.581
 11
-5.75
 20
-10.043
 21
-9.959
  0
LINE
  8
0
 10
-5.75
 11
-5.907
 20
-9.959
 21
-9.855
  0
LINE
  8
0
 10
-5.907
 11
-6.05
 20
-9.855
 21
-9.732
  0
LINE
  8
0
 10
-6.05
 11
-6.176
 20
-9.732
 21
-9.592
  0
LINE
  8
0
 10
-6.176
 11
-6.283
 20
-9.592
 21
-9.437
  0
LINE
  8
0
 10
-6.283
 11
-6.371
 20
-9.437
 21
-9.271
  0
LINE
  8
0
 10
-6.371
 11
-6.436
 20
-9.271
 21
-9.093
  0
LINE
  8
0
 10
-6.436
 11
-6.479
 20
-9.093
 21
-8.91
  0
LINE
  8
0
 10
-6.479
 11
-6.498
 20
-8.91
 21
-8.724
  0
LINE
  8
0
 10
-6.498
 11
-6.479
 20
8.724
 21
8.91
  0
LINE
  8
0
 10
-6.479
 11
-6.436
 20
8.91
 21
9.093
  0
LINE
  8
0
 10
-6.436
 11
-6.371
 20
9.093
 21
9.271
  0
LINE
  8
0
 10
-6.371
 11
-6.283
 20
9.271
 21
9.437
  0
LINE
  8
0
 10
-6.283
 11
-6.176
 20
9.437
 21
9.592
  0
LINE
  8
0
 10
-6.176
 11
-6.05
 20
9.592
 21
9.732
  0
LINE
  8
0
 10
-6.05
 11
-5.907
 20
9.732
 21
9.855
  0
LINE
  8
0
 10
-5.907
 11
-5.75
 20
9.855
 21
9.959
  0
LINE
  8
0
 10
-5.75
 11
-5.581
 20
9.959
 21
10.043
  0
LINE
  8
0
 10
-5.581
 11
-5.403
 20
10.043
 21
10.105
  0
LINE
  8
0
 10
-5.403
 11
-5.219
 20
10.105
 21
10.144
  0
LINE
  8
0
 10
-5.219
 11
-5.031
 20
10.144
 21
10.16
  0
LINE
  8
0
 10
-5.031
 11
-4.843
 20
10.16
 21
10.153
  0
LINE
  8
0
 10
-4.843
 11
-4.657
 20
10.153
 21
10.12
  0
LINE
  8
0
 10
-4.657
 11
-4.477
 20
10.12
 21
10.066
  0
LINE
  8
0
 10
-4.477
 11
-4.306
 20
10.066
 21
9.99
  0
LINE
  8
0
 10
-4.306
 11
-4.144
 20
9.99
 21
9.892
  0
LINE
  8
0
 10
-4.144
 11
-3.996
 20
9.892
 21
9.776
  0
LINE
  8
0
 10
-3.996
 11
-3.865
 20
9.776
 21
9.64
  0
LINE
  8
0
 10
-3.865
 11
-3.751
 20
9.64
 21
9.49
  0
LINE
  8
0
 10
-3.751
 11
-3.657
 20
9.49
 21
9.327
  0
LINE
  8
0
 10
-3.657
 11
-3.584
 20
9.327
 21
9.153
  0
LINE
  8
0
 10
-3.584
 11
-3.532
 20
9.153
 21
8.972
  0
LINE
  8
0
 10
-3.532
 11
-3.505
 20
8.972
 21
8.785
  0
LINE
  8
0
 10
-3.505
 11
-3.502
 20
8.785
 21
8.597
  0
LINE
  8
0
 10
-3.502
 11
-3.521
 20
8.597
 21
8.41
  0
LINE
  8
0
 10
-3.521
 11
-3.564
 20
8.41
 21
8.227
  0
LINE
  8
0
 10
-3.564
 11
-3.629
 20
8.227
 21
8.05
  0
LINE
  8
0
 10
-3.629
 11
-3.717
 20
8.05
 21
7.884
  0
LINE
  8
0
 10
-3.717
 11
-3.824
 20
7.884
 21
7.728
  0
LINE
  8
0
 10
-3.824
 11
-3.95
 20
7.728
 21
7.588
  0
LINE
  8
0
 10
-3.95
 11
-4.093
 20
7.588
 21
7.466
  0
LINE
  8
0
 10
-4.093
 11
-4.25
 20
7.466
 21
7.361
  0
LINE
  8
0
 10
-4.25
 11
-4.419
 20
7.361
 21
7.278
  0
LINE
  8
0
 10
-4.419
 11
-4.597
 20
7.278
 21
7.215
  0
LINE
  8
0
 10
-4.597
 11
-4.781
 20
7.215
 21
7.176
  0
LINE
  8
0
 10
-4.781
 11
-4.969
 20
7.176
 21
7.161
  0
LINE
  8
0
 10
-4.969
 11
-5.157
 20
7.161
 21
7.168
  0
LINE
  8
0
 10
-5.157
 11
-5.343
 20
7.168
 21
7.2
  0
LINE
  8
0
 10
-5.343
 11
-5.523
 20
7.2
 21
7.254
  0
LINE
  8
0
 10
-5.523
 11
-5.694
 20
7.254
 21
7.331
  0
LINE
  8
0
 10
-5.694
 11
-5.856
 20
7.331
 21
7.428
  0
LINE
  8
0
 10
-5.856
 11
-6.004
 20
7.428
 21
7.545
  0
LINE
  8
0
 10
-6.004
 11
-6.135
 20
7.545
 21
7.68
  0
LINE
  8
0
 10
-6.135
 11
-6.249
 20
7.68
 21
7.83
  0
LINE
  8
0
 10
-6.249
 11
-6.343
 20
7.83
 21
7.993
  0
LINE
  8
0
 10
-6.343
 11
-6.416
 20
7.993
 21
8.167
  0
LINE
  8
0
 10
-6.416
 11
-6.468
 20
8.167
 21
8.349
  0
LINE
  8
0
 10
-6.468
 11
-6.495
 20
8.349
 21
8.535
  0
LINE
  8
0
 10
-6.495
 11
-6.498
 20
8.535
 21
8.724
  0
LINE
  8
0
 10
8.5
 11
8.512
 20
0
 21
0.188
  0
LINE
  8
0
 10
8.512
 11
8.547
 20
0.188
 21
0.373
  0
LINE
  8
0
 10
8.547
 11
8.605
 20
0.373
 21
0.552
  0
LINE
  8
0
 10
8.605
 11
8.686
 20
0.552
 21
0.723
  0
LINE
  8
0
 10
8.686
 11
8.786
 20
0.723
 21
0.882
  0
LINE
  8
0
 10
8.786
 11
8.907
 20
0.882
 21
1.027
  0
LINE
  8
0
 10
8.907
 11
9.044
 20
1.027
 21
1.156
  0
LINE
  8
0
 10
9.044
 11
9.196
 20
1.156
 21
1.266
  0
LINE
  8
0
 10
9.196
 11
9.361
 20
1.266
 21
1.357
  0
LINE
  8
0
 10
9.361
 11
9.536
 20
1.357
 21
1.427
  0
LINE
  8
0
 10
9.536
 11
9.719
 20
1.427
 21
1.473
  0
LINE
  8
0
 10
9.719
 11
9.906
 20
1.473
 21
1.497
  0
LINE
  8
0
 10
9.906
 11
10.094
 20
1.497
 21
1.497
  0
LINE
  8
0
 10
10.094
 11
10.281
 20
1.497
 21
1.473
  0
LINE
  8
0
 10
10.281
 11
10.464
 20
1.473
 21
1.427
  0
LINE
  8
0
 10
10.464
 11
10.639
 20
1.427
 21
1.357
  0
LINE
  8
0
 10
10.639
 11
10.804
 20
1.357
 21
1.266
  0
LINE
  8
0
 10
10.804
 11
10.956
 20
1.266
 21
1.156
  0
LINE
  8
0
 10
10.956
 11
11.093
 20
1.156
 21
1.027
  0
LINE
  8
0
 10
11.093
 11
11.214
 20
1.027
 21
0.882
  0
LINE
  8
0
 10
11.214
 11
11.314
 20
0.882
 21
0.723
  0
LINE
  8
0
 10
11.314
 11
11.395
 20
0.723
 21
0.552
  0
LINE
  8
0
 10
11.395
 11
11.453
 20
0.552
 21
0.373
  0
LINE
  8
0
 10
11.453
 11
11.488
 20
0.373
 21
0.188
  0
LINE
  8
0
 10
11.488
 11
11.5
 20
0.188
 21
0
  0
LINE
  8
0
 10
11.5
 11
11.488
 20
0
 21
-0.188
  0
LINE
  8
0
 10
11.488
 11
11.453
 20
-0.188
 21
-0.373
  0
LINE
  8
0
 10
11.453
 11
11.395
 20
-0.373
 21
-0.552
  0
LINE
  8
0
 10
11.395
 11
11.314
 20
-0.552
 21
-0.723
  0
LINE
  8
0
 10
11.314
 11
11.214
 20
-0.723
 21
-0.882
  0
LINE
  8
0
 10
11.214
 11
11.093
 20
-0.882
 21
-1.027
  0
LINE
  8
0
 10
11.093
 11
10.956
 20
-1.027
 21
-1.156
  0
LINE
  8
0
 10
10.956
 11
10.804
 20
-1.156
 21
-1.266
  0
LINE
  8
0
 10
10.804
 11
10.639
 20
-1.266
 21
-1.357
  0
LINE
  8
0
 10
10.639
 11
10.464
 20
-1.357
 21
-1.427
  0
LINE
  8
0
 10
10.464
 11
10.281
 20
-1.427
 21
-1.473
  0
LINE
  8
0
 10
10.281
 11
10.094
 20
-1.473
 21
-1.497
  0
LINE
  8
0
 10
10.094
 11
9.906
 20
-1.497
 21
-1.497
  0
LINE
  8
0
 10
9.906
 11
9.719
 20
-1.497
 21
-1.473
  0
LINE
  8
0
 10
9.719
 11
9.536
 20
-1.473
 21
-1.427
  0
LINE
  8
0
 10
9.536
 11
9.361
 20
-1.427
 21
-1.357
  0
LINE
  8
0
 10
9.361
 11
9.196
 20
-1.357
 21
-1.266
  0
LINE
  8
0
 10
9.196
 11
9.044
 20
-1.266
 21
-1.156
  0
LINE
  8
0
 10
9.044
 11
8.907
 20
-1.156
 21
-1.027
  0
LINE
  8
0
 10
8.907
 11
8.786
 20
-1.027
 21
-0.882
  0
LINE
  8
0
 10
8.786
 11
8.686
 20
-0.882
 21
-0.723
  0
LINE
  8
0
 10
8.686
 11
8.605
 20
-0.723
 21
-0.552
  0
LINE
  8
0
 10
8.605
 11
8.547
 20
-0.552
 21
-0.373
  0
LINE
  8
0
 10
8.547
 11
8.512
 20
-0.373
 21
-0.188
  0
LINE
  8
0
 10
8.512
 11
8.5
 20
-0.188
 21
0
  0
ENDSEC
  0
SECTION
  2
OBJECTS
  0
DICTIONARY
  0
ENDSEC
  0
EOF
