  0
SECTION
  2
BLOCKS
  0
ENDSEC
  0
SECTION
  2
ENTITIES
  0
LINE
  8
0
 10
0
 11
0
 20
0
 21
425
  0
LINE
  8
0
 10
0
 11
5
 20
425
 21
425
  0
LINE
  8
0
 10
5
 11
5
 20
425
 21
430
  0
LINE
  8
0
 10
5
 11
10
 20
430
 21
430
  0
LINE
  8
0
 10
10
 11
10
 20
430
 21
425
  0
LINE
  8
0
 10
10
 11
15
 20
425
 21
425
  0
LINE
  8
0
 10
15
 11
15
 20
425
 21
430
  0
LINE
  8
0
 10
15
 11
20
 20
430
 21
430
  0
LINE
  8
0
 10
20
 11
20
 20
430
 21
425
  0
LINE
  8
0
 10
20
 11
25
 20
425
 21
425
  0
LINE
  8
0
 10
25
 11
25
 20
425
 21
430
  0
LINE
  8
0
 10
25
 11
30
 20
430
 21
430
  0
LINE
  8
0
 10
30
 11
30
 20
430
 21
425
  0
LINE
  8
0
 10
30
 11
35
 20
425
 21
425
  0
LINE
  8
0
 10
35
 11
35
 20
425
 21
430
  0
LINE
  8
0
 10
35
 11
40
 20
430
 21
430
  0
LINE
  8
0
 10
40
 11
40
 20
430
 21
425
  0
LINE
  8
0
 10
40
 11
45
 20
425
 21
425
  0
LINE
  8
0
 10
45
 11
45
 20
425
 21
430
  0
LINE
  8
0
 10
45
 11
50
 20
430
 21
430
  0
LINE
  8
0
 10
50
 11
50
 20
430
 21
425
  0
LINE
  8
0
 10
50
 11
55
 20
425
 21
425
  0
LINE
  8
0
 10
55
 11
55
 20
425
 21
430
  0
LINE
  8
0
 10
55
 11
60
 20
430
 21
430
  0
LINE
  8
0
 10
60
 11
60
 20
430
 21
425
  0
LINE
  8
0
 10
60
 11
65
 20
425
 21
425
  0
LINE
  8
0
 10
65
 11
65
 20
425
 21
430
  0
LINE
  8
0
 10
65
 11
70
 20
430
 21
430
  0
LINE
  8
0
 10
70
 11
70
 20
430
 21
425
  0
LINE
  8
0
 10
70
 11
75
 20
425
 21
425
  0
LINE
  8
0
 10
75
 11
75
 20
425
 21
430
  0
LINE
  8
0
 10
75
 11
80
 20
430
 21
430
  0
LINE
  8
0
 10
80
 11
80
 20
430
 21
425
  0
LINE
  8
0
 10
80
 11
85
 20
425
 21
425
  0
LINE
  8
0
 10
85
 11
85
 20
425
 21
430
  0
LINE
  8
0
 10
85
 11
90
 20
430
 21
430
  0
LINE
  8
0
 10
90
 11
90
 20
430
 21
425
  0
LINE
  8
0
 10
90
 11
95
 20
425
 21
425
  0
LINE
  8
0
 10
95
 11
95
 20
425
 21
430
  0
LINE
  8
0
 10
95
 11
100
 20
430
 21
430
  0
LINE
  8
0
 10
100
 11
100
 20
430
 21
425
  0
LINE
  8
0
 10
100
 11
105
 20
425
 21
425
  0
LINE
  8
0
 10
105
 11
105
 20
425
 21
430
  0
LINE
  8
0
 10
105
 11
110
 20
430
 21
430
  0
LINE
  8
0
 10
110
 11
110
 20
430
 21
425
  0
LINE
  8
0
 10
110
 11
110
 20
425
 21
405
  0
LINE
  8
0
 10
110
 11
110
 20
405
 21
400
  0
LINE
  8
0
 10
110
 11
110
 20
400
 21
30
  0
LINE
  8
0
 10
110
 11
110
 20
30
 21
25
  0
LINE
  8
0
 10
110
 11
110
 20
25
 21
5
  0
LINE
  8
0
 10
110
 11
105
 20
5
 21
5
  0
LINE
  8
0
 10
105
 11
105
 20
5
 21
0
  0
LINE
  8
0
 10
105
 11
100
 20
0
 21
0
  0
LINE
  8
0
 10
100
 11
100
 20
0
 21
5
  0
LINE
  8
0
 10
100
 11
95
 20
5
 21
5
  0
LINE
  8
0
 10
95
 11
95
 20
5
 21
0
  0
LINE
  8
0
 10
95
 11
90
 20
0
 21
0
  0
LINE
  8
0
 10
90
 11
90
 20
0
 21
5
  0
LINE
  8
0
 10
90
 11
85
 20
5
 21
5
  0
LINE
  8
0
 10
85
 11
85
 20
5
 21
0
  0
LINE
  8
0
 10
85
 11
80
 20
0
 21
0
  0
LINE
  8
0
 10
80
 11
80
 20
0
 21
5
  0
LINE
  8
0
 10
80
 11
75
 20
5
 21
5
  0
LINE
  8
0
 10
75
 11
75
 20
5
 21
0
  0
LINE
  8
0
 10
75
 11
70
 20
0
 21
0
  0
LINE
  8
0
 10
70
 11
70
 20
0
 21
5
  0
LINE
  8
0
 10
70
 11
65
 20
5
 21
5
  0
LINE
  8
0
 10
65
 11
65
 20
5
 21
0
  0
LINE
  8
0
 10
65
 11
60
 20
0
 21
0
  0
LINE
  8
0
 10
60
 11
60
 20
0
 21
5
  0
LINE
  8
0
 10
60
 11
55
 20
5
 21
5
  0
LINE
  8
0
 10
55
 11
55
 20
5
 21
0
  0
LINE
  8
0
 10
55
 11
50
 20
0
 21
0
  0
LINE
  8
0
 10
50
 11
50
 20
0
 21
5
  0
LINE
  8
0
 10
50
 11
45
 20
5
 21
5
  0
LINE
  8
0
 10
45
 11
45
 20
5
 21
0
  0
LINE
  8
0
 10
45
 11
40
 20
0
 21
0
  0
LINE
  8
0
 10
40
 11
40
 20
0
 21
5
  0
LINE
  8
0
 10
40
 11
35
 20
5
 21
5
  0
LINE
  8
0
 10
35
 11
35
 20
5
 21
0
  0
LINE
  8
0
 10
35
 11
30
 20
0
 21
0
  0
LINE
  8
0
 10
30
 11
30
 20
0
 21
5
  0
LINE
  8
0
 10
30
 11
25
 20
5
 21
5
  0
LINE
  8
0
 10
25
 11
25
 20
5
 21
0
  0
LINE
  8
0
 10
25
 11
20
 20
0
 21
0
  0
LINE
  8
0
 10
20
 11
20
 20
0
 21
5
  0
LINE
  8
0
 10
20
 11
15
 20
5
 21
5
  0
LINE
  8
0
 10
15
 11
15
 20
5
 21
0
  0
LINE
  8
0
 10
15
 11
10
 20
0
 21
0
  0
LINE
  8
0
 10
10
 11
10
 20
0
 21
5
  0
LINE
  8
0
 10
10
 11
5
 20
5
 21
5
  0
LINE
  8
0
 10
5
 11
5
 20
5
 21
0
  0
LINE
  8
0
 10
5
 11
0
 20
0
 21
0
  0
LINE
  8
0
 10
2.5
 11
2.512
 20
29
 21
29.188
  0
LINE
  8
0
 10
2.512
 11
2.547
 20
29.188
 21
29.373
  0
LINE
  8
0
 10
2.547
 11
2.605
 20
29.373
 21
29.552
  0
LINE
  8
0
 10
2.605
 11
2.686
 20
29.552
 21
29.723
  0
LINE
  8
0
 10
2.686
 11
2.786
 20
29.723
 21
29.882
  0
LINE
  8
0
 10
2.786
 11
2.907
 20
29.882
 21
30.027
  0
LINE
  8
0
 10
2.907
 11
3.044
 20
30.027
 21
30.156
  0
LINE
  8
0
 10
3.044
 11
3.196
 20
30.156
 21
30.266
  0
LINE
  8
0
 10
3.196
 11
3.361
 20
30.266
 21
30.357
  0
LINE
  8
0
 10
3.361
 11
3.536
 20
30.357
 21
30.427
  0
LINE
  8
0
 10
3.536
 11
3.719
 20
30.427
 21
30.473
  0
LINE
  8
0
 10
3.719
 11
3.906
 20
30.473
 21
30.497
  0
LINE
  8
0
 10
3.906
 11
4.094
 20
30.497
 21
30.497
  0
LINE
  8
0
 10
4.094
 11
4.281
 20
30.497
 21
30.473
  0
LINE
  8
0
 10
4.281
 11
4.464
 20
30.473
 21
30.427
  0
LINE
  8
0
 10
4.464
 11
4.639
 20
30.427
 21
30.357
  0
LINE
  8
0
 10
4.639
 11
4.804
 20
30.357
 21
30.266
  0
LINE
  8
0
 10
4.804
 11
4.956
 20
30.266
 21
30.156
  0
LINE
  8
0
 10
4.956
 11
5.093
 20
30.156
 21
30.027
  0
LINE
  8
0
 10
5.093
 11
5.214
 20
30.027
 21
29.882
  0
LINE
  8
0
 10
5.214
 11
5.314
 20
29.882
 21
29.723
  0
LINE
  8
0
 10
5.314
 11
5.395
 20
29.723
 21
29.552
  0
LINE
  8
0
 10
5.395
 11
5.453
 20
29.552
 21
29.373
  0
LINE
  8
0
 10
5.453
 11
5.488
 20
29.373
 21
29.188
  0
LINE
  8
0
 10
5.488
 11
5.5
 20
29.188
 21
29
  0
LINE
  8
0
 10
5.5
 11
5.488
 20
29
 21
28.812
  0
LINE
  8
0
 10
5.488
 11
5.453
 20
28.812
 21
28.627
  0
LINE
  8
0
 10
5.453
 11
5.395
 20
28.627
 21
28.448
  0
LINE
  8
0
 10
5.395
 11
5.314
 20
28.448
 21
28.277
  0
LINE
  8
0
 10
5.314
 11
5.214
 20
28.277
 21
28.118
  0
LINE
  8
0
 10
5.214
 11
5.093
 20
28.118
 21
27.973
  0
LINE
  8
0
 10
5.093
 11
4.956
 20
27.973
 21
27.844
  0
LINE
  8
0
 10
4.956
 11
4.804
 20
27.844
 21
27.734
  0
LINE
  8
0
 10
4.804
 11
4.639
 20
27.734
 21
27.643
  0
LINE
  8
0
 10
4.639
 11
4.464
 20
27.643
 21
27.573
  0
LINE
  8
0
 10
4.464
 11
4.281
 20
27.573
 21
27.527
  0
LINE
  8
0
 10
4.281
 11
4.094
 20
27.527
 21
27.503
  0
LINE
  8
0
 10
4.094
 11
3.906
 20
27.503
 21
27.503
  0
LINE
  8
0
 10
3.906
 11
3.719
 20
27.503
 21
27.527
  0
LINE
  8
0
 10
3.719
 11
3.536
 20
27.527
 21
27.573
  0
LINE
  8
0
 10
3.536
 11
3.361
 20
27.573
 21
27.643
  0
LINE
  8
0
 10
3.361
 11
3.196
 20
27.643
 21
27.734
  0
LINE
  8
0
 10
3.196
 11
3.044
 20
27.734
 21
27.844
  0
LINE
  8
0
 10
3.044
 11
2.907
 20
27.844
 21
27.973
  0
LINE
  8
0
 10
2.907
 11
2.786
 20
27.973
 21
28.118
  0
LINE
  8
0
 10
2.786
 11
2.686
 20
28.118
 21
28.277
  0
LINE
  8
0
 10
2.686
 11
2.605
 20
28.277
 21
28.448
  0
LINE
  8
0
 10
2.605
 11
2.547
 20
28.448
 21
28.627
  0
LINE
  8
0
 10
2.547
 11
2.512
 20
28.627
 21
28.812
  0
LINE
  8
0
 10
2.512
 11
2.5
 20
28.812
 21
29
  0
LINE
  8
0
 10
2.5
 11
2.512
 20
354
 21
354.188
  0
LINE
  8
0
 10
2.512
 11
2.547
 20
354.188
 21
354.373
  0
LINE
  8
0
 10
2.547
 11
2.605
 20
354.373
 21
354.552
  0
LINE
  8
0
 10
2.605
 11
2.686
 20
354.552
 21
354.723
  0
LINE
  8
0
 10
2.686
 11
2.786
 20
354.723
 21
354.882
  0
LINE
  8
0
 10
2.786
 11
2.907
 20
354.882
 21
355.027
  0
LINE
  8
0
 10
2.907
 11
3.044
 20
355.027
 21
355.156
  0
LINE
  8
0
 10
3.044
 11
3.196
 20
355.156
 21
355.266
  0
LINE
  8
0
 10
3.196
 11
3.361
 20
355.266
 21
355.357
  0
LINE
  8
0
 10
3.361
 11
3.536
 20
355.357
 21
355.427
  0
LINE
  8
0
 10
3.536
 11
3.719
 20
355.427
 21
355.473
  0
LINE
  8
0
 10
3.719
 11
3.906
 20
355.473
 21
355.497
  0
LINE
  8
0
 10
3.906
 11
4.094
 20
355.497
 21
355.497
  0
LINE
  8
0
 10
4.094
 11
4.281
 20
355.497
 21
355.473
  0
LINE
  8
0
 10
4.281
 11
4.464
 20
355.473
 21
355.427
  0
LINE
  8
0
 10
4.464
 11
4.639
 20
355.427
 21
355.357
  0
LINE
  8
0
 10
4.639
 11
4.804
 20
355.357
 21
355.266
  0
LINE
  8
0
 10
4.804
 11
4.956
 20
355.266
 21
355.156
  0
LINE
  8
0
 10
4.956
 11
5.093
 20
355.156
 21
355.027
  0
LINE
  8
0
 10
5.093
 11
5.214
 20
355.027
 21
354.882
  0
LINE
  8
0
 10
5.214
 11
5.314
 20
354.882
 21
354.723
  0
LINE
  8
0
 10
5.314
 11
5.395
 20
354.723
 21
354.552
  0
LINE
  8
0
 10
5.395
 11
5.453
 20
354.552
 21
354.373
  0
LINE
  8
0
 10
5.453
 11
5.488
 20
354.373
 21
354.188
  0
LINE
  8
0
 10
5.488
 11
5.5
 20
354.188
 21
354
  0
LINE
  8
0
 10
5.5
 11
5.488
 20
354
 21
353.812
  0
LINE
  8
0
 10
5.488
 11
5.453
 20
353.812
 21
353.627
  0
LINE
  8
0
 10
5.453
 11
5.395
 20
353.627
 21
353.448
  0
LINE
  8
0
 10
5.395
 11
5.314
 20
353.448
 21
353.277
  0
LINE
  8
0
 10
5.314
 11
5.214
 20
353.277
 21
353.118
  0
LINE
  8
0
 10
5.214
 11
5.093
 20
353.118
 21
352.973
  0
LINE
  8
0
 10
5.093
 11
4.956
 20
352.973
 21
352.844
  0
LINE
  8
0
 10
4.956
 11
4.804
 20
352.844
 21
352.734
  0
LINE
  8
0
 10
4.804
 11
4.639
 20
352.734
 21
352.643
  0
LINE
  8
0
 10
4.639
 11
4.464
 20
352.643
 21
352.573
  0
LINE
  8
0
 10
4.464
 11
4.281
 20
352.573
 21
352.527
  0
LINE
  8
0
 10
4.281
 11
4.094
 20
352.527
 21
352.503
  0
LINE
  8
0
 10
4.094
 11
3.906
 20
352.503
 21
352.503
  0
LINE
  8
0
 10
3.906
 11
3.719
 20
352.503
 21
352.527
  0
LINE
  8
0
 10
3.719
 11
3.536
 20
352.527
 21
352.573
  0
LINE
  8
0
 10
3.536
 11
3.361
 20
352.573
 21
352.643
  0
LINE
  8
0
 10
3.361
 11
3.196
 20
352.643
 21
352.734
  0
LINE
  8
0
 10
3.196
 11
3.044
 20
352.734
 21
352.844
  0
LINE
  8
0
 10
3.044
 11
2.907
 20
352.844
 21
352.973
  0
LINE
  8
0
 10
2.907
 11
2.786
 20
352.973
 21
353.118
  0
LINE
  8
0
 10
2.786
 11
2.686
 20
353.118
 21
353.277
  0
LINE
  8
0
 10
2.686
 11
2.605
 20
353.277
 21
353.448
  0
LINE
  8
0
 10
2.605
 11
2.547
 20
353.448
 21
353.627
  0
LINE
  8
0
 10
2.547
 11
2.512
 20
353.627
 21
353.812
  0
LINE
  8
0
 10
2.512
 11
2.5
 20
353.812
 21
354
  0
LINE
  8
0
 10
2.503
 11
2.503
 20
75.906
 21
76.094
  0
LINE
  8
0
 10
2.503
 11
2.527
 20
76.094
 21
76.281
  0
LINE
  8
0
 10
2.527
 11
2.573
 20
76.281
 21
76.464
  0
LINE
  8
0
 10
2.573
 11
2.643
 20
76.464
 21
76.639
  0
LINE
  8
0
 10
2.643
 11
2.734
 20
76.639
 21
76.804
  0
LINE
  8
0
 10
2.734
 11
2.844
 20
76.804
 21
76.956
  0
LINE
  8
0
 10
2.844
 11
2.973
 20
76.956
 21
77.093
  0
LINE
  8
0
 10
2.973
 11
3.118
 20
77.093
 21
77.214
  0
LINE
  8
0
 10
3.118
 11
3.277
 20
77.214
 21
77.314
  0
LINE
  8
0
 10
3.277
 11
3.448
 20
77.314
 21
77.395
  0
LINE
  8
0
 10
3.448
 11
3.627
 20
77.395
 21
77.453
  0
LINE
  8
0
 10
3.627
 11
3.812
 20
77.453
 21
77.488
  0
LINE
  8
0
 10
3.812
 11
4
 20
77.488
 21
77.5
  0
LINE
  8
0
 10
4
 11
4.188
 20
77.5
 21
77.488
  0
LINE
  8
0
 10
4.188
 11
4.373
 20
77.488
 21
77.453
  0
LINE
  8
0
 10
4.373
 11
4.552
 20
77.453
 21
77.395
  0
LINE
  8
0
 10
4.552
 11
4.723
 20
77.395
 21
77.314
  0
LINE
  8
0
 10
4.723
 11
4.882
 20
77.314
 21
77.214
  0
LINE
  8
0
 10
4.882
 11
5.027
 20
77.214
 21
77.093
  0
LINE
  8
0
 10
5.027
 11
5.156
 20
77.093
 21
76.956
  0
LINE
  8
0
 10
5.156
 11
5.266
 20
76.956
 21
76.804
  0
LINE
  8
0
 10
5.266
 11
5.357
 20
76.804
 21
76.639
  0
LINE
  8
0
 10
5.357
 11
5.427
 20
76.639
 21
76.464
  0
LINE
  8
0
 10
5.427
 11
5.473
 20
76.464
 21
76.281
  0
LINE
  8
0
 10
5.473
 11
5.497
 20
76.281
 21
76.094
  0
LINE
  8
0
 10
5.497
 11
5.497
 20
76.094
 21
75.906
  0
LINE
  8
0
 10
5.497
 11
5.473
 20
75.906
 21
75.719
  0
LINE
  8
0
 10
5.473
 11
5.427
 20
75.719
 21
75.536
  0
LINE
  8
0
 10
5.427
 11
5.357
 20
75.536
 21
75.361
  0
LINE
  8
0
 10
5.357
 11
5.266
 20
75.361
 21
75.196
  0
LINE
  8
0
 10
5.266
 11
5.156
 20
75.196
 21
75.044
  0
LINE
  8
0
 10
5.156
 11
5.027
 20
75.044
 21
74.907
  0
LINE
  8
0
 10
5.027
 11
4.882
 20
74.907
 21
74.786
  0
LINE
  8
0
 10
4.882
 11
4.723
 20
74.786
 21
74.686
  0
LINE
  8
0
 10
4.723
 11
4.552
 20
74.686
 21
74.605
  0
LINE
  8
0
 10
4.552
 11
4.373
 20
74.605
 21
74.547
  0
LINE
  8
0
 10
4.373
 11
4.188
 20
74.547
 21
74.512
  0
LINE
  8
0
 10
4.188
 11
4
 20
74.512
 21
74.5
  0
LINE
  8
0
 10
4
 11
3.812
 20
74.5
 21
74.512
  0
LINE
  8
0
 10
3.812
 11
3.627
 20
74.512
 21
74.547
  0
LINE
  8
0
 10
3.627
 11
3.448
 20
74.547
 21
74.605
  0
LINE
  8
0
 10
3.448
 11
3.277
 20
74.605
 21
74.686
  0
LINE
  8
0
 10
3.277
 11
3.118
 20
74.686
 21
74.786
  0
LINE
  8
0
 10
3.118
 11
2.973
 20
74.786
 21
74.907
  0
LINE
  8
0
 10
2.973
 11
2.844
 20
74.907
 21
75.044
  0
LINE
  8
0
 10
2.844
 11
2.734
 20
75.044
 21
75.196
  0
LINE
  8
0
 10
2.734
 11
2.643
 20
75.196
 21
75.361
  0
LINE
  8
0
 10
2.643
 11
2.573
 20
75.361
 21
75.536
  0
LINE
  8
0
 10
2.573
 11
2.527
 20
75.536
 21
75.719
  0
LINE
  8
0
 10
2.527
 11
2.503
 20
75.719
 21
75.906
  0
LINE
  8
0
 10
2.503
 11
2.503
 20
400.906
 21
401.094
  0
LINE
  8
0
 10
2.503
 11
2.527
 20
401.094
 21
401.281
  0
LINE
  8
0
 10
2.527
 11
2.573
 20
401.281
 21
401.464
  0
LINE
  8
0
 10
2.573
 11
2.643
 20
401.464
 21
401.639
  0
LINE
  8
0
 10
2.643
 11
2.734
 20
401.639
 21
401.804
  0
LINE
  8
0
 10
2.734
 11
2.844
 20
401.804
 21
401.956
  0
LINE
  8
0
 10
2.844
 11
2.973
 20
401.956
 21
402.093
  0
LINE
  8
0
 10
2.973
 11
3.118
 20
402.093
 21
402.214
  0
LINE
  8
0
 10
3.118
 11
3.277
 20
402.214
 21
402.314
  0
LINE
  8
0
 10
3.277
 11
3.448
 20
402.314
 21
402.395
  0
LINE
  8
0
 10
3.448
 11
3.627
 20
402.395
 21
402.453
  0
LINE
  8
0
 10
3.627
 11
3.812
 20
402.453
 21
402.488
  0
LINE
  8
0
 10
3.812
 11
4
 20
402.488
 21
402.5
  0
LINE
  8
0
 10
4
 11
4.188
 20
402.5
 21
402.488
  0
LINE
  8
0
 10
4.188
 11
4.373
 20
402.488
 21
402.453
  0
LINE
  8
0
 10
4.373
 11
4.552
 20
402.453
 21
402.395
  0
LINE
  8
0
 10
4.552
 11
4.723
 20
402.395
 21
402.314
  0
LINE
  8
0
 10
4.723
 11
4.882
 20
402.314
 21
402.214
  0
LINE
  8
0
 10
4.882
 11
5.027
 20
402.214
 21
402.093
  0
LINE
  8
0
 10
5.027
 11
5.156
 20
402.093
 21
401.956
  0
LINE
  8
0
 10
5.156
 11
5.266
 20
401.956
 21
401.804
  0
LINE
  8
0
 10
5.266
 11
5.357
 20
401.804
 21
401.639
  0
LINE
  8
0
 10
5.357
 11
5.427
 20
401.639
 21
401.464
  0
LINE
  8
0
 10
5.427
 11
5.473
 20
401.464
 21
401.281
  0
LINE
  8
0
 10
5.473
 11
5.497
 20
401.281
 21
401.094
  0
LINE
  8
0
 10
5.497
 11
5.497
 20
401.094
 21
400.906
  0
LINE
  8
0
 10
5.497
 11
5.473
 20
400.906
 21
400.719
  0
LINE
  8
0
 10
5.473
 11
5.427
 20
400.719
 21
400.536
  0
LINE
  8
0
 10
5.427
 11
5.357
 20
400.536
 21
400.361
  0
LINE
  8
0
 10
5.357
 11
5.266
 20
400.361
 21
400.196
  0
LINE
  8
0
 10
5.266
 11
5.156
 20
400.196
 21
400.044
  0
LINE
  8
0
 10
5.156
 11
5.027
 20
400.044
 21
399.907
  0
LINE
  8
0
 10
5.027
 11
4.882
 20
399.907
 21
399.786
  0
LINE
  8
0
 10
4.882
 11
4.723
 20
399.786
 21
399.686
  0
LINE
  8
0
 10
4.723
 11
4.552
 20
399.686
 21
399.605
  0
LINE
  8
0
 10
4.552
 11
4.373
 20
399.605
 21
399.547
  0
LINE
  8
0
 10
4.373
 11
4.188
 20
399.547
 21
399.512
  0
LINE
  8
0
 10
4.188
 11
4
 20
399.512
 21
399.5
  0
LINE
  8
0
 10
4
 11
3.812
 20
399.5
 21
399.512
  0
LINE
  8
0
 10
3.812
 11
3.627
 20
399.512
 21
399.547
  0
LINE
  8
0
 10
3.627
 11
3.448
 20
399.547
 21
399.605
  0
LINE
  8
0
 10
3.448
 11
3.277
 20
399.605
 21
399.686
  0
LINE
  8
0
 10
3.277
 11
3.118
 20
399.686
 21
399.786
  0
LINE
  8
0
 10
3.118
 11
2.973
 20
399.786
 21
399.907
  0
LINE
  8
0
 10
2.973
 11
2.844
 20
399.907
 21
400.044
  0
LINE
  8
0
 10
2.844
 11
2.734
 20
400.044
 21
400.196
  0
LINE
  8
0
 10
2.734
 11
2.643
 20
400.196
 21
400.361
  0
LINE
  8
0
 10
2.643
 11
2.573
 20
400.361
 21
400.536
  0
LINE
  8
0
 10
2.573
 11
2.527
 20
400.536
 21
400.719
  0
LINE
  8
0
 10
2.527
 11
2.503
 20
400.719
 21
400.906
  0
LINE
  8
0
 10
6
 11
6.032
 20
377.5
 21
378.001
  0
LINE
  8
0
 10
6.032
 11
6.126
 20
378.001
 21
378.495
  0
LINE
  8
0
 10
6.126
 11
6.281
 20
378.495
 21
378.972
  0
LINE
  8
0
 10
6.281
 11
6.495
 20
378.972
 21
379.427
  0
LINE
  8
0
 10
6.495
 11
6.764
 20
379.427
 21
379.851
  0
LINE
  8
0
 10
6.764
 11
7.084
 20
379.851
 21
380.238
  0
LINE
  8
0
 10
7.084
 11
7.45
 20
380.238
 21
380.582
  0
LINE
  8
0
 10
7.45
 11
7.857
 20
380.582
 21
380.877
  0
LINE
  8
0
 10
7.857
 11
8.297
 20
380.877
 21
381.119
  0
LINE
  8
0
 10
8.297
 11
8.764
 20
381.119
 21
381.304
  0
LINE
  8
0
 10
8.764
 11
9.25
 20
381.304
 21
381.429
  0
LINE
  8
0
 10
9.25
 11
9.749
 20
381.429
 21
381.492
  0
LINE
  8
0
 10
9.749
 11
10.251
 20
381.492
 21
381.492
  0
LINE
  8
0
 10
10.251
 11
10.75
 20
381.492
 21
381.429
  0
LINE
  8
0
 10
10.75
 11
11.236
 20
381.429
 21
381.304
  0
LINE
  8
0
 10
11.236
 11
11.703
 20
381.304
 21
381.119
  0
LINE
  8
0
 10
11.703
 11
12.143
 20
381.119
 21
380.877
  0
LINE
  8
0
 10
12.143
 11
12.55
 20
380.877
 21
380.582
  0
LINE
  8
0
 10
12.55
 11
12.916
 20
380.582
 21
380.238
  0
LINE
  8
0
 10
12.916
 11
13.236
 20
380.238
 21
379.851
  0
LINE
  8
0
 10
13.236
 11
13.505
 20
379.851
 21
379.427
  0
LINE
  8
0
 10
13.505
 11
13.719
 20
379.427
 21
378.972
  0
LINE
  8
0
 10
13.719
 11
13.874
 20
378.972
 21
378.495
  0
LINE
  8
0
 10
13.874
 11
13.968
 20
378.495
 21
378.001
  0
LINE
  8
0
 10
13.968
 11
14
 20
378.001
 21
377.5
  0
LINE
  8
0
 10
14
 11
13.968
 20
377.5
 21
376.999
  0
LINE
  8
0
 10
13.968
 11
13.874
 20
376.999
 21
376.505
  0
LINE
  8
0
 10
13.874
 11
13.719
 20
376.505
 21
376.028
  0
LINE
  8
0
 10
13.719
 11
13.505
 20
376.028
 21
375.573
  0
LINE
  8
0
 10
13.505
 11
13.236
 20
375.573
 21
375.149
  0
LINE
  8
0
 10
13.236
 11
12.916
 20
375.149
 21
374.762
  0
LINE
  8
0
 10
12.916
 11
12.55
 20
374.762
 21
374.418
  0
LINE
  8
0
 10
12.55
 11
12.143
 20
374.418
 21
374.123
  0
LINE
  8
0
 10
12.143
 11
11.703
 20
374.123
 21
373.881
  0
LINE
  8
0
 10
11.703
 11
11.236
 20
373.881
 21
373.696
  0
LINE
  8
0
 10
11.236
 11
10.75
 20
373.696
 21
373.571
  0
LINE
  8
0
 10
10.75
 11
10.251
 20
373.571
 21
373.508
  0
LINE
  8
0
 10
10.251
 11
9.749
 20
373.508
 21
373.508
  0
LINE
  8
0
 10
9.749
 11
9.25
 20
373.508
 21
373.571
  0
LINE
  8
0
 10
9.25
 11
8.764
 20
373.571
 21
373.696
  0
LINE
  8
0
 10
8.764
 11
8.297
 20
373.696
 21
373.881
  0
LINE
  8
0
 10
8.297
 11
7.857
 20
373.881
 21
374.123
  0
LINE
  8
0
 10
7.857
 11
7.45
 20
374.123
 21
374.418
  0
LINE
  8
0
 10
7.45
 11
7.084
 20
374.418
 21
374.762
  0
LINE
  8
0
 10
7.084
 11
6.764
 20
374.762
 21
375.149
  0
LINE
  8
0
 10
6.764
 11
6.495
 20
375.149
 21
375.573
  0
LINE
  8
0
 10
6.495
 11
6.281
 20
375.573
 21
376.028
  0
LINE
  8
0
 10
6.281
 11
6.126
 20
376.028
 21
376.505
  0
LINE
  8
0
 10
6.126
 11
6.032
 20
376.505
 21
376.999
  0
LINE
  8
0
 10
6.032
 11
6
 20
376.999
 21
377.5
  0
LINE
  8
0
 10
6.1
 11
6.1
 20
31.1
 21
73.9
  0
LINE
  8
0
 10
6.1
 11
48.9
 20
73.9
 21
73.9
  0
LINE
  8
0
 10
48.9
 11
48.9
 20
73.9
 21
31.1
  0
LINE
  8
0
 10
48.9
 11
6.1
 20
31.1
 21
31.1
  0
LINE
  8
0
 10
17.5
 11
17.52
 20
15
 21
15.313
  0
LINE
  8
0
 10
17.52
 11
17.579
 20
15.313
 21
15.622
  0
LINE
  8
0
 10
17.579
 11
17.676
 20
15.622
 21
15.92
  0
LINE
  8
0
 10
17.676
 11
17.809
 20
15.92
 21
16.204
  0
LINE
  8
0
 10
17.809
 11
17.977
 20
16.204
 21
16.469
  0
LINE
  8
0
 10
17.977
 11
18.178
 20
16.469
 21
16.711
  0
LINE
  8
0
 10
18.178
 11
18.406
 20
16.711
 21
16.926
  0
LINE
  8
0
 10
18.406
 11
18.66
 20
16.926
 21
17.111
  0
LINE
  8
0
 10
18.66
 11
18.936
 20
17.111
 21
17.262
  0
LINE
  8
0
 10
18.936
 11
19.227
 20
17.262
 21
17.378
  0
LINE
  8
0
 10
19.227
 11
19.532
 20
17.378
 21
17.456
  0
LINE
  8
0
 10
19.532
 11
19.843
 20
17.456
 21
17.495
  0
LINE
  8
0
 10
19.843
 11
20.157
 20
17.495
 21
17.495
  0
LINE
  8
0
 10
20.157
 11
20.468
 20
17.495
 21
17.456
  0
LINE
  8
0
 10
20.468
 11
20.773
 20
17.456
 21
17.378
  0
LINE
  8
0
 10
20.773
 11
21.064
 20
17.378
 21
17.262
  0
LINE
  8
0
 10
21.064
 11
21.34
 20
17.262
 21
17.111
  0
LINE
  8
0
 10
21.34
 11
21.594
 20
17.111
 21
16.926
  0
LINE
  8
0
 10
21.594
 11
21.822
 20
16.926
 21
16.711
  0
LINE
  8
0
 10
21.822
 11
22.023
 20
16.711
 21
16.469
  0
LINE
  8
0
 10
22.023
 11
22.191
 20
16.469
 21
16.204
  0
LINE
  8
0
 10
22.191
 11
22.324
 20
16.204
 21
15.92
  0
LINE
  8
0
 10
22.324
 11
22.421
 20
15.92
 21
15.622
  0
LINE
  8
0
 10
22.421
 11
22.48
 20
15.622
 21
15.313
  0
LINE
  8
0
 10
22.48
 11
22.5
 20
15.313
 21
15
  0
LINE
  8
0
 10
22.5
 11
22.48
 20
15
 21
14.687
  0
LINE
  8
0
 10
22.48
 11
22.421
 20
14.687
 21
14.378
  0
LINE
  8
0
 10
22.421
 11
22.324
 20
14.378
 21
14.08
  0
LINE
  8
0
 10
22.324
 11
22.191
 20
14.08
 21
13.796
  0
LINE
  8
0
 10
22.191
 11
22.023
 20
13.796
 21
13.531
  0
LINE
  8
0
 10
22.023
 11
21.822
 20
13.531
 21
13.289
  0
LINE
  8
0
 10
21.822
 11
21.594
 20
13.289
 21
13.074
  0
LINE
  8
0
 10
21.594
 11
21.34
 20
13.074
 21
12.889
  0
LINE
  8
0
 10
21.34
 11
21.064
 20
12.889
 21
12.738
  0
LINE
  8
0
 10
21.064
 11
20.773
 20
12.738
 21
12.622
  0
LINE
  8
0
 10
20.773
 11
20.468
 20
12.622
 21
12.544
  0
LINE
  8
0
 10
20.468
 11
20.157
 20
12.544
 21
12.505
  0
LINE
  8
0
 10
20.157
 11
19.843
 20
12.505
 21
12.505
  0
LINE
  8
0
 10
19.843
 11
19.532
 20
12.505
 21
12.544
  0
LINE
  8
0
 10
19.532
 11
19.227
 20
12.544
 21
12.622
  0
LINE
  8
0
 10
19.227
 11
18.936
 20
12.622
 21
12.738
  0
LINE
  8
0
 10
18.936
 11
18.66
 20
12.738
 21
12.889
  0
LINE
  8
0
 10
18.66
 11
18.406
 20
12.889
 21
13.074
  0
LINE
  8
0
 10
18.406
 11
18.178
 20
13.074
 21
13.289
  0
LINE
  8
0
 10
18.178
 11
17.977
 20
13.289
 21
13.531
  0
LINE
  8
0
 10
17.977
 11
17.809
 20
13.531
 21
13.796
  0
LINE
  8
0
 10
17.809
 11
17.676
 20
13.796
 21
14.08
  0
LINE
  8
0
 10
17.676
 11
17.579
 20
14.08
 21
14.378
  0
LINE
  8
0
 10
17.579
 11
17.52
 20
14.378
 21
14.687
  0
LINE
  8
0
 10
17.52
 11
17.5
 20
14.687
 21
15
  0
LINE
  8
0
 10
17.5
 11
17.52
 20
415
 21
415.313
  0
LINE
  8
0
 10
17.52
 11
17.579
 20
415.313
 21
415.622
  0
LINE
  8
0
 10
17.579
 11
17.676
 20
415.622
 21
415.92
  0
LINE
  8
0
 10
17.676
 11
17.809
 20
415.92
 21
416.204
  0
LINE
  8
0
 10
17.809
 11
17.977
 20
416.204
 21
416.469
  0
LINE
  8
0
 10
17.977
 11
18.178
 20
416.469
 21
416.711
  0
LINE
  8
0
 10
18.178
 11
18.406
 20
416.711
 21
416.926
  0
LINE
  8
0
 10
18.406
 11
18.66
 20
416.926
 21
417.111
  0
LINE
  8
0
 10
18.66
 11
18.936
 20
417.111
 21
417.262
  0
LINE
  8
0
 10
18.936
 11
19.227
 20
417.262
 21
417.378
  0
LINE
  8
0
 10
19.227
 11
19.532
 20
417.378
 21
417.456
  0
LINE
  8
0
 10
19.532
 11
19.843
 20
417.456
 21
417.495
  0
LINE
  8
0
 10
19.843
 11
20.157
 20
417.495
 21
417.495
  0
LINE
  8
0
 10
20.157
 11
20.468
 20
417.495
 21
417.456
  0
LINE
  8
0
 10
20.468
 11
20.773
 20
417.456
 21
417.378
  0
LINE
  8
0
 10
20.773
 11
21.064
 20
417.378
 21
417.262
  0
LINE
  8
0
 10
21.064
 11
21.34
 20
417.262
 21
417.111
  0
LINE
  8
0
 10
21.34
 11
21.594
 20
417.111
 21
416.926
  0
LINE
  8
0
 10
21.594
 11
21.822
 20
416.926
 21
416.711
  0
LINE
  8
0
 10
21.822
 11
22.023
 20
416.711
 21
416.469
  0
LINE
  8
0
 10
22.023
 11
22.191
 20
416.469
 21
416.204
  0
LINE
  8
0
 10
22.191
 11
22.324
 20
416.204
 21
415.92
  0
LINE
  8
0
 10
22.324
 11
22.421
 20
415.92
 21
415.622
  0
LINE
  8
0
 10
22.421
 11
22.48
 20
415.622
 21
415.313
  0
LINE
  8
0
 10
22.48
 11
22.5
 20
415.313
 21
415
  0
LINE
  8
0
 10
22.5
 11
22.48
 20
415
 21
414.687
  0
LINE
  8
0
 10
22.48
 11
22.421
 20
414.687
 21
414.378
  0
LINE
  8
0
 10
22.421
 11
22.324
 20
414.378
 21
414.08
  0
LINE
  8
0
 10
22.324
 11
22.191
 20
414.08
 21
413.796
  0
LINE
  8
0
 10
22.191
 11
22.023
 20
413.796
 21
413.531
  0
LINE
  8
0
 10
22.023
 11
21.822
 20
413.531
 21
413.289
  0
LINE
  8
0
 10
21.822
 11
21.594
 20
413.289
 21
413.074
  0
LINE
  8
0
 10
21.594
 11
21.34
 20
413.074
 21
412.889
  0
LINE
  8
0
 10
21.34
 11
21.064
 20
412.889
 21
412.738
  0
LINE
  8
0
 10
21.064
 11
20.773
 20
412.738
 21
412.622
  0
LINE
  8
0
 10
20.773
 11
20.468
 20
412.622
 21
412.544
  0
LINE
  8
0
 10
20.468
 11
20.157
 20
412.544
 21
412.505
  0
LINE
  8
0
 10
20.157
 11
19.843
 20
412.505
 21
412.505
  0
LINE
  8
0
 10
19.843
 11
19.532
 20
412.505
 21
412.544
  0
LINE
  8
0
 10
19.532
 11
19.227
 20
412.544
 21
412.622
  0
LINE
  8
0
 10
19.227
 11
18.936
 20
412.622
 21
412.738
  0
LINE
  8
0
 10
18.936
 11
18.66
 20
412.738
 21
412.889
  0
LINE
  8
0
 10
18.66
 11
18.406
 20
412.889
 21
413.074
  0
LINE
  8
0
 10
18.406
 11
18.178
 20
413.074
 21
413.289
  0
LINE
  8
0
 10
18.178
 11
17.977
 20
413.289
 21
413.531
  0
LINE
  8
0
 10
17.977
 11
17.809
 20
413.531
 21
413.796
  0
LINE
  8
0
 10
17.809
 11
17.676
 20
413.796
 21
414.08
  0
LINE
  8
0
 10
17.676
 11
17.579
 20
414.08
 21
414.378
  0
LINE
  8
0
 10
17.579
 11
17.52
 20
414.378
 21
414.687
  0
LINE
  8
0
 10
17.52
 11
17.5
 20
414.687
 21
415
  0
LINE
  8
0
 10
23.5
 11
23.532
 20
377.5
 21
378.001
  0
LINE
  8
0
 10
23.532
 11
23.626
 20
378.001
 21
378.495
  0
LINE
  8
0
 10
23.626
 11
23.781
 20
378.495
 21
378.972
  0
LINE
  8
0
 10
23.781
 11
23.995
 20
378.972
 21
379.427
  0
LINE
  8
0
 10
23.995
 11
24.264
 20
379.427
 21
379.851
  0
LINE
  8
0
 10
24.264
 11
24.584
 20
379.851
 21
380.238
  0
LINE
  8
0
 10
24.584
 11
24.95
 20
380.238
 21
380.582
  0
LINE
  8
0
 10
24.95
 11
25.357
 20
380.582
 21
380.877
  0
LINE
  8
0
 10
25.357
 11
25.797
 20
380.877
 21
381.119
  0
LINE
  8
0
 10
25.797
 11
26.264
 20
381.119
 21
381.304
  0
LINE
  8
0
 10
26.264
 11
26.75
 20
381.304
 21
381.429
  0
LINE
  8
0
 10
26.75
 11
27.249
 20
381.429
 21
381.492
  0
LINE
  8
0
 10
27.249
 11
27.751
 20
381.492
 21
381.492
  0
LINE
  8
0
 10
27.751
 11
28.25
 20
381.492
 21
381.429
  0
LINE
  8
0
 10
28.25
 11
28.736
 20
381.429
 21
381.304
  0
LINE
  8
0
 10
28.736
 11
29.203
 20
381.304
 21
381.119
  0
LINE
  8
0
 10
29.203
 11
29.643
 20
381.119
 21
380.877
  0
LINE
  8
0
 10
29.643
 11
30.05
 20
380.877
 21
380.582
  0
LINE
  8
0
 10
30.05
 11
30.416
 20
380.582
 21
380.238
  0
LINE
  8
0
 10
30.416
 11
30.736
 20
380.238
 21
379.851
  0
LINE
  8
0
 10
30.736
 11
31.005
 20
379.851
 21
379.427
  0
LINE
  8
0
 10
31.005
 11
31.219
 20
379.427
 21
378.972
  0
LINE
  8
0
 10
31.219
 11
31.374
 20
378.972
 21
378.495
  0
LINE
  8
0
 10
31.374
 11
31.468
 20
378.495
 21
378.001
  0
LINE
  8
0
 10
31.468
 11
31.5
 20
378.001
 21
377.5
  0
LINE
  8
0
 10
31.5
 11
31.468
 20
377.5
 21
376.999
  0
LINE
  8
0
 10
31.468
 11
31.374
 20
376.999
 21
376.505
  0
LINE
  8
0
 10
31.374
 11
31.219
 20
376.505
 21
376.028
  0
LINE
  8
0
 10
31.219
 11
31.005
 20
376.028
 21
375.573
  0
LINE
  8
0
 10
31.005
 11
30.736
 20
375.573
 21
375.149
  0
LINE
  8
0
 10
30.736
 11
30.416
 20
375.149
 21
374.762
  0
LINE
  8
0
 10
30.416
 11
30.05
 20
374.762
 21
374.418
  0
LINE
  8
0
 10
30.05
 11
29.643
 20
374.418
 21
374.123
  0
LINE
  8
0
 10
29.643
 11
29.203
 20
374.123
 21
373.881
  0
LINE
  8
0
 10
29.203
 11
28.736
 20
373.881
 21
373.696
  0
LINE
  8
0
 10
28.736
 11
28.25
 20
373.696
 21
373.571
  0
LINE
  8
0
 10
28.25
 11
27.751
 20
373.571
 21
373.508
  0
LINE
  8
0
 10
27.751
 11
27.249
 20
373.508
 21
373.508
  0
LINE
  8
0
 10
27.249
 11
26.75
 20
373.508
 21
373.571
  0
LINE
  8
0
 10
26.75
 11
26.264
 20
373.571
 21
373.696
  0
LINE
  8
0
 10
26.264
 11
25.797
 20
373.696
 21
373.881
  0
LINE
  8
0
 10
25.797
 11
25.357
 20
373.881
 21
374.123
  0
LINE
  8
0
 10
25.357
 11
24.95
 20
374.123
 21
374.418
  0
LINE
  8
0
 10
24.95
 11
24.584
 20
374.418
 21
374.762
  0
LINE
  8
0
 10
24.584
 11
24.264
 20
374.762
 21
375.149
  0
LINE
  8
0
 10
24.264
 11
23.995
 20
375.149
 21
375.573
  0
LINE
  8
0
 10
23.995
 11
23.781
 20
375.573
 21
376.028
  0
LINE
  8
0
 10
23.781
 11
23.626
 20
376.028
 21
376.505
  0
LINE
  8
0
 10
23.626
 11
23.532
 20
376.505
 21
376.999
  0
LINE
  8
0
 10
23.532
 11
23.5
 20
376.999
 21
377.5
  0
LINE
  8
0
 10
49.5
 11
49.512
 20
76
 21
76.188
  0
LINE
  8
0
 10
49.512
 11
49.547
 20
76.188
 21
76.373
  0
LINE
  8
0
 10
49.547
 11
49.605
 20
76.373
 21
76.552
  0
LINE
  8
0
 10
49.605
 11
49.686
 20
76.552
 21
76.723
  0
LINE
  8
0
 10
49.686
 11
49.786
 20
76.723
 21
76.882
  0
LINE
  8
0
 10
49.786
 11
49.907
 20
76.882
 21
77.027
  0
LINE
  8
0
 10
49.907
 11
50.044
 20
77.027
 21
77.156
  0
LINE
  8
0
 10
50.044
 11
50.196
 20
77.156
 21
77.266
  0
LINE
  8
0
 10
50.196
 11
50.361
 20
77.266
 21
77.357
  0
LINE
  8
0
 10
50.361
 11
50.536
 20
77.357
 21
77.427
  0
LINE
  8
0
 10
50.536
 11
50.719
 20
77.427
 21
77.473
  0
LINE
  8
0
 10
50.719
 11
50.906
 20
77.473
 21
77.497
  0
LINE
  8
0
 10
50.906
 11
51.094
 20
77.497
 21
77.497
  0
LINE
  8
0
 10
51.094
 11
51.281
 20
77.497
 21
77.473
  0
LINE
  8
0
 10
51.281
 11
51.464
 20
77.473
 21
77.427
  0
LINE
  8
0
 10
51.464
 11
51.639
 20
77.427
 21
77.357
  0
LINE
  8
0
 10
51.639
 11
51.804
 20
77.357
 21
77.266
  0
LINE
  8
0
 10
51.804
 11
51.956
 20
77.266
 21
77.156
  0
LINE
  8
0
 10
51.956
 11
52.093
 20
77.156
 21
77.027
  0
LINE
  8
0
 10
52.093
 11
52.214
 20
77.027
 21
76.882
  0
LINE
  8
0
 10
52.214
 11
52.314
 20
76.882
 21
76.723
  0
LINE
  8
0
 10
52.314
 11
52.395
 20
76.723
 21
76.552
  0
LINE
  8
0
 10
52.395
 11
52.453
 20
76.552
 21
76.373
  0
LINE
  8
0
 10
52.453
 11
52.488
 20
76.373
 21
76.188
  0
LINE
  8
0
 10
52.488
 11
52.5
 20
76.188
 21
76
  0
LINE
  8
0
 10
52.5
 11
52.488
 20
76
 21
75.812
  0
LINE
  8
0
 10
52.488
 11
52.453
 20
75.812
 21
75.627
  0
LINE
  8
0
 10
52.453
 11
52.395
 20
75.627
 21
75.448
  0
LINE
  8
0
 10
52.395
 11
52.314
 20
75.448
 21
75.277
  0
LINE
  8
0
 10
52.314
 11
52.214
 20
75.277
 21
75.118
  0
LINE
  8
0
 10
52.214
 11
52.093
 20
75.118
 21
74.973
  0
LINE
  8
0
 10
52.093
 11
51.956
 20
74.973
 21
74.844
  0
LINE
  8
0
 10
51.956
 11
51.804
 20
74.844
 21
74.734
  0
LINE
  8
0
 10
51.804
 11
51.639
 20
74.734
 21
74.643
  0
LINE
  8
0
 10
51.639
 11
51.464
 20
74.643
 21
74.573
  0
LINE
  8
0
 10
51.464
 11
51.281
 20
74.573
 21
74.527
  0
LINE
  8
0
 10
51.281
 11
51.094
 20
74.527
 21
74.503
  0
LINE
  8
0
 10
51.094
 11
50.906
 20
74.503
 21
74.503
  0
LINE
  8
0
 10
50.906
 11
50.719
 20
74.503
 21
74.527
  0
LINE
  8
0
 10
50.719
 11
50.536
 20
74.527
 21
74.573
  0
LINE
  8
0
 10
50.536
 11
50.361
 20
74.573
 21
74.643
  0
LINE
  8
0
 10
50.361
 11
50.196
 20
74.643
 21
74.734
  0
LINE
  8
0
 10
50.196
 11
50.044
 20
74.734
 21
74.844
  0
LINE
  8
0
 10
50.044
 11
49.907
 20
74.844
 21
74.973
  0
LINE
  8
0
 10
49.907
 11
49.786
 20
74.973
 21
75.118
  0
LINE
  8
0
 10
49.786
 11
49.686
 20
75.118
 21
75.277
  0
LINE
  8
0
 10
49.686
 11
49.605
 20
75.277
 21
75.448
  0
LINE
  8
0
 10
49.605
 11
49.547
 20
75.448
 21
75.627
  0
LINE
  8
0
 10
49.547
 11
49.512
 20
75.627
 21
75.812
  0
LINE
  8
0
 10
49.512
 11
49.5
 20
75.812
 21
76
  0
LINE
  8
0
 10
49.5
 11
49.512
 20
401
 21
401.188
  0
LINE
  8
0
 10
49.512
 11
49.547
 20
401.188
 21
401.373
  0
LINE
  8
0
 10
49.547
 11
49.605
 20
401.373
 21
401.552
  0
LINE
  8
0
 10
49.605
 11
49.686
 20
401.552
 21
401.723
  0
LINE
  8
0
 10
49.686
 11
49.786
 20
401.723
 21
401.882
  0
LINE
  8
0
 10
49.786
 11
49.907
 20
401.882
 21
402.027
  0
LINE
  8
0
 10
49.907
 11
50.044
 20
402.027
 21
402.156
  0
LINE
  8
0
 10
50.044
 11
50.196
 20
402.156
 21
402.266
  0
LINE
  8
0
 10
50.196
 11
50.361
 20
402.266
 21
402.357
  0
LINE
  8
0
 10
50.361
 11
50.536
 20
402.357
 21
402.427
  0
LINE
  8
0
 10
50.536
 11
50.719
 20
402.427
 21
402.473
  0
LINE
  8
0
 10
50.719
 11
50.906
 20
402.473
 21
402.497
  0
LINE
  8
0
 10
50.906
 11
51.094
 20
402.497
 21
402.497
  0
LINE
  8
0
 10
51.094
 11
51.281
 20
402.497
 21
402.473
  0
LINE
  8
0
 10
51.281
 11
51.464
 20
402.473
 21
402.427
  0
LINE
  8
0
 10
51.464
 11
51.639
 20
402.427
 21
402.357
  0
LINE
  8
0
 10
51.639
 11
51.804
 20
402.357
 21
402.266
  0
LINE
  8
0
 10
51.804
 11
51.956
 20
402.266
 21
402.156
  0
LINE
  8
0
 10
51.956
 11
52.093
 20
402.156
 21
402.027
  0
LINE
  8
0
 10
52.093
 11
52.214
 20
402.027
 21
401.882
  0
LINE
  8
0
 10
52.214
 11
52.314
 20
401.882
 21
401.723
  0
LINE
  8
0
 10
52.314
 11
52.395
 20
401.723
 21
401.552
  0
LINE
  8
0
 10
52.395
 11
52.453
 20
401.552
 21
401.373
  0
LINE
  8
0
 10
52.453
 11
52.488
 20
401.373
 21
401.188
  0
LINE
  8
0
 10
52.488
 11
52.5
 20
401.188
 21
401
  0
LINE
  8
0
 10
52.5
 11
52.488
 20
401
 21
400.812
  0
LINE
  8
0
 10
52.488
 11
52.453
 20
400.812
 21
400.627
  0
LINE
  8
0
 10
52.453
 11
52.395
 20
400.627
 21
400.448
  0
LINE
  8
0
 10
52.395
 11
52.314
 20
400.448
 21
400.277
  0
LINE
  8
0
 10
52.314
 11
52.214
 20
400.277
 21
400.118
  0
LINE
  8
0
 10
52.214
 11
52.093
 20
400.118
 21
399.973
  0
LINE
  8
0
 10
52.093
 11
51.956
 20
399.973
 21
399.844
  0
LINE
  8
0
 10
51.956
 11
51.804
 20
399.844
 21
399.734
  0
LINE
  8
0
 10
51.804
 11
51.639
 20
399.734
 21
399.643
  0
LINE
  8
0
 10
51.639
 11
51.464
 20
399.643
 21
399.573
  0
LINE
  8
0
 10
51.464
 11
51.281
 20
399.573
 21
399.527
  0
LINE
  8
0
 10
51.281
 11
51.094
 20
399.527
 21
399.503
  0
LINE
  8
0
 10
51.094
 11
50.906
 20
399.503
 21
399.503
  0
LINE
  8
0
 10
50.906
 11
50.719
 20
399.503
 21
399.527
  0
LINE
  8
0
 10
50.719
 11
50.536
 20
399.527
 21
399.573
  0
LINE
  8
0
 10
50.536
 11
50.361
 20
399.573
 21
399.643
  0
LINE
  8
0
 10
50.361
 11
50.196
 20
399.643
 21
399.734
  0
LINE
  8
0
 10
50.196
 11
50.044
 20
399.734
 21
399.844
  0
LINE
  8
0
 10
50.044
 11
49.907
 20
399.844
 21
399.973
  0
LINE
  8
0
 10
49.907
 11
49.786
 20
399.973
 21
400.118
  0
LINE
  8
0
 10
49.786
 11
49.686
 20
400.118
 21
400.277
  0
LINE
  8
0
 10
49.686
 11
49.605
 20
400.277
 21
400.448
  0
LINE
  8
0
 10
49.605
 11
49.547
 20
400.448
 21
400.627
  0
LINE
  8
0
 10
49.547
 11
49.512
 20
400.627
 21
400.812
  0
LINE
  8
0
 10
49.512
 11
49.5
 20
400.812
 21
401
  0
LINE
  8
0
 10
49.503
 11
49.503
 20
28.906
 21
29.094
  0
LINE
  8
0
 10
49.503
 11
49.527
 20
29.094
 21
29.281
  0
LINE
  8
0
 10
49.527
 11
49.573
 20
29.281
 21
29.464
  0
LINE
  8
0
 10
49.573
 11
49.643
 20
29.464
 21
29.639
  0
LINE
  8
0
 10
49.643
 11
49.734
 20
29.639
 21
29.804
  0
LINE
  8
0
 10
49.734
 11
49.844
 20
29.804
 21
29.956
  0
LINE
  8
0
 10
49.844
 11
49.973
 20
29.956
 21
30.093
  0
LINE
  8
0
 10
49.973
 11
50.118
 20
30.093
 21
30.214
  0
LINE
  8
0
 10
50.118
 11
50.277
 20
30.214
 21
30.314
  0
LINE
  8
0
 10
50.277
 11
50.448
 20
30.314
 21
30.395
  0
LINE
  8
0
 10
50.448
 11
50.627
 20
30.395
 21
30.453
  0
LINE
  8
0
 10
50.627
 11
50.812
 20
30.453
 21
30.488
  0
LINE
  8
0
 10
50.812
 11
51
 20
30.488
 21
30.5
  0
LINE
  8
0
 10
51
 11
51.188
 20
30.5
 21
30.488
  0
LINE
  8
0
 10
51.188
 11
51.373
 20
30.488
 21
30.453
  0
LINE
  8
0
 10
51.373
 11
51.552
 20
30.453
 21
30.395
  0
LINE
  8
0
 10
51.552
 11
51.723
 20
30.395
 21
30.314
  0
LINE
  8
0
 10
51.723
 11
51.882
 20
30.314
 21
30.214
  0
LINE
  8
0
 10
51.882
 11
52.027
 20
30.214
 21
30.093
  0
LINE
  8
0
 10
52.027
 11
52.156
 20
30.093
 21
29.956
  0
LINE
  8
0
 10
52.156
 11
52.266
 20
29.956
 21
29.804
  0
LINE
  8
0
 10
52.266
 11
52.357
 20
29.804
 21
29.639
  0
LINE
  8
0
 10
52.357
 11
52.427
 20
29.639
 21
29.464
  0
LINE
  8
0
 10
52.427
 11
52.473
 20
29.464
 21
29.281
  0
LINE
  8
0
 10
52.473
 11
52.497
 20
29.281
 21
29.094
  0
LINE
  8
0
 10
52.497
 11
52.497
 20
29.094
 21
28.906
  0
LINE
  8
0
 10
52.497
 11
52.473
 20
28.906
 21
28.719
  0
LINE
  8
0
 10
52.473
 11
52.427
 20
28.719
 21
28.536
  0
LINE
  8
0
 10
52.427
 11
52.357
 20
28.536
 21
28.361
  0
LINE
  8
0
 10
52.357
 11
52.266
 20
28.361
 21
28.196
  0
LINE
  8
0
 10
52.266
 11
52.156
 20
28.196
 21
28.044
  0
LINE
  8
0
 10
52.156
 11
52.027
 20
28.044
 21
27.907
  0
LINE
  8
0
 10
52.027
 11
51.882
 20
27.907
 21
27.786
  0
LINE
  8
0
 10
51.882
 11
51.723
 20
27.786
 21
27.686
  0
LINE
  8
0
 10
51.723
 11
51.552
 20
27.686
 21
27.605
  0
LINE
  8
0
 10
51.552
 11
51.373
 20
27.605
 21
27.547
  0
LINE
  8
0
 10
51.373
 11
51.188
 20
27.547
 21
27.512
  0
LINE
  8
0
 10
51.188
 11
51
 20
27.512
 21
27.5
  0
LINE
  8
0
 10
51
 11
50.812
 20
27.5
 21
27.512
  0
LINE
  8
0
 10
50.812
 11
50.627
 20
27.512
 21
27.547
  0
LINE
  8
0
 10
50.627
 11
50.448
 20
27.547
 21
27.605
  0
LINE
  8
0
 10
50.448
 11
50.277
 20
27.605
 21
27.686
  0
LINE
  8
0
 10
50.277
 11
50.118
 20
27.686
 21
27.786
  0
LINE
  8
0
 10
50.118
 11
49.973
 20
27.786
 21
27.907
  0
LINE
  8
0
 10
49.973
 11
49.844
 20
27.907
 21
28.044
  0
LINE
  8
0
 10
49.844
 11
49.734
 20
28.044
 21
28.196
  0
LINE
  8
0
 10
49.734
 11
49.643
 20
28.196
 21
28.361
  0
LINE
  8
0
 10
49.643
 11
49.573
 20
28.361
 21
28.536
  0
LINE
  8
0
 10
49.573
 11
49.527
 20
28.536
 21
28.719
  0
LINE
  8
0
 10
49.527
 11
49.503
 20
28.719
 21
28.906
  0
LINE
  8
0
 10
49.503
 11
49.503
 20
353.906
 21
354.094
  0
LINE
  8
0
 10
49.503
 11
49.527
 20
354.094
 21
354.281
  0
LINE
  8
0
 10
49.527
 11
49.573
 20
354.281
 21
354.464
  0
LINE
  8
0
 10
49.573
 11
49.643
 20
354.464
 21
354.639
  0
LINE
  8
0
 10
49.643
 11
49.734
 20
354.639
 21
354.804
  0
LINE
  8
0
 10
49.734
 11
49.844
 20
354.804
 21
354.956
  0
LINE
  8
0
 10
49.844
 11
49.973
 20
354.956
 21
355.093
  0
LINE
  8
0
 10
49.973
 11
50.118
 20
355.093
 21
355.214
  0
LINE
  8
0
 10
50.118
 11
50.277
 20
355.214
 21
355.314
  0
LINE
  8
0
 10
50.277
 11
50.448
 20
355.314
 21
355.395
  0
LINE
  8
0
 10
50.448
 11
50.627
 20
355.395
 21
355.453
  0
LINE
  8
0
 10
50.627
 11
50.812
 20
355.453
 21
355.488
  0
LINE
  8
0
 10
50.812
 11
51
 20
355.488
 21
355.5
  0
LINE
  8
0
 10
51
 11
51.188
 20
355.5
 21
355.488
  0
LINE
  8
0
 10
51.188
 11
51.373
 20
355.488
 21
355.453
  0
LINE
  8
0
 10
51.373
 11
51.552
 20
355.453
 21
355.395
  0
LINE
  8
0
 10
51.552
 11
51.723
 20
355.395
 21
355.314
  0
LINE
  8
0
 10
51.723
 11
51.882
 20
355.314
 21
355.214
  0
LINE
  8
0
 10
51.882
 11
52.027
 20
355.214
 21
355.093
  0
LINE
  8
0
 10
52.027
 11
52.156
 20
355.093
 21
354.956
  0
LINE
  8
0
 10
52.156
 11
52.266
 20
354.956
 21
354.804
  0
LINE
  8
0
 10
52.266
 11
52.357
 20
354.804
 21
354.639
  0
LINE
  8
0
 10
52.357
 11
52.427
 20
354.639
 21
354.464
  0
LINE
  8
0
 10
52.427
 11
52.473
 20
354.464
 21
354.281
  0
LINE
  8
0
 10
52.473
 11
52.497
 20
354.281
 21
354.094
  0
LINE
  8
0
 10
52.497
 11
52.497
 20
354.094
 21
353.906
  0
LINE
  8
0
 10
52.497
 11
52.473
 20
353.906
 21
353.719
  0
LINE
  8
0
 10
52.473
 11
52.427
 20
353.719
 21
353.536
  0
LINE
  8
0
 10
52.427
 11
52.357
 20
353.536
 21
353.361
  0
LINE
  8
0
 10
52.357
 11
52.266
 20
353.361
 21
353.196
  0
LINE
  8
0
 10
52.266
 11
52.156
 20
353.196
 21
353.044
  0
LINE
  8
0
 10
52.156
 11
52.027
 20
353.044
 21
352.907
  0
LINE
  8
0
 10
52.027
 11
51.882
 20
352.907
 21
352.786
  0
LINE
  8
0
 10
51.882
 11
51.723
 20
352.786
 21
352.686
  0
LINE
  8
0
 10
51.723
 11
51.552
 20
352.686
 21
352.605
  0
LINE
  8
0
 10
51.552
 11
51.373
 20
352.605
 21
352.547
  0
LINE
  8
0
 10
51.373
 11
51.188
 20
352.547
 21
352.512
  0
LINE
  8
0
 10
51.188
 11
51
 20
352.512
 21
352.5
  0
LINE
  8
0
 10
51
 11
50.812
 20
352.5
 21
352.512
  0
LINE
  8
0
 10
50.812
 11
50.627
 20
352.512
 21
352.547
  0
LINE
  8
0
 10
50.627
 11
50.448
 20
352.547
 21
352.605
  0
LINE
  8
0
 10
50.448
 11
50.277
 20
352.605
 21
352.686
  0
LINE
  8
0
 10
50.277
 11
50.118
 20
352.686
 21
352.786
  0
LINE
  8
0
 10
50.118
 11
49.973
 20
352.786
 21
352.907
  0
LINE
  8
0
 10
49.973
 11
49.844
 20
352.907
 21
353.044
  0
LINE
  8
0
 10
49.844
 11
49.734
 20
353.044
 21
353.196
  0
LINE
  8
0
 10
49.734
 11
49.643
 20
353.196
 21
353.361
  0
LINE
  8
0
 10
49.643
 11
49.573
 20
353.361
 21
353.536
  0
LINE
  8
0
 10
49.573
 11
49.527
 20
353.536
 21
353.719
  0
LINE
  8
0
 10
49.527
 11
49.503
 20
353.719
 21
353.906
  0
LINE
  8
0
 10
60
 11
60
 20
25
 21
30
  0
LINE
  8
0
 10
60
 11
65
 20
30
 21
30
  0
LINE
  8
0
 10
65
 11
65
 20
30
 21
25
  0
LINE
  8
0
 10
65
 11
60
 20
25
 21
25
  0
LINE
  8
0
 10
60
 11
60
 20
400
 21
405
  0
LINE
  8
0
 10
60
 11
65
 20
405
 21
405
  0
LINE
  8
0
 10
65
 11
65
 20
405
 21
400
  0
LINE
  8
0
 10
65
 11
60
 20
400
 21
400
  0
LINE
  8
0
 10
70
 11
70
 20
25
 21
30
  0
LINE
  8
0
 10
70
 11
75
 20
30
 21
30
  0
LINE
  8
0
 10
75
 11
75
 20
30
 21
25
  0
LINE
  8
0
 10
75
 11
70
 20
25
 21
25
  0
LINE
  8
0
 10
70
 11
70
 20
400
 21
405
  0
LINE
  8
0
 10
70
 11
75
 20
405
 21
405
  0
LINE
  8
0
 10
75
 11
75
 20
405
 21
400
  0
LINE
  8
0
 10
75
 11
70
 20
400
 21
400
  0
LINE
  8
0
 10
80
 11
80
 20
25
 21
30
  0
LINE
  8
0
 10
80
 11
85
 20
30
 21
30
  0
LINE
  8
0
 10
85
 11
85
 20
30
 21
25
  0
LINE
  8
0
 10
85
 11
80
 20
25
 21
25
  0
LINE
  8
0
 10
80
 11
80
 20
400
 21
405
  0
LINE
  8
0
 10
80
 11
85
 20
405
 21
405
  0
LINE
  8
0
 10
85
 11
85
 20
405
 21
400
  0
LINE
  8
0
 10
85
 11
80
 20
400
 21
400
  0
LINE
  8
0
 10
87.5
 11
87.52
 20
15
 21
15.313
  0
LINE
  8
0
 10
87.52
 11
87.579
 20
15.313
 21
15.622
  0
LINE
  8
0
 10
87.579
 11
87.676
 20
15.622
 21
15.92
  0
LINE
  8
0
 10
87.676
 11
87.809
 20
15.92
 21
16.204
  0
LINE
  8
0
 10
87.809
 11
87.977
 20
16.204
 21
16.469
  0
LINE
  8
0
 10
87.977
 11
88.178
 20
16.469
 21
16.711
  0
LINE
  8
0
 10
88.178
 11
88.406
 20
16.711
 21
16.926
  0
LINE
  8
0
 10
88.406
 11
88.66
 20
16.926
 21
17.111
  0
LINE
  8
0
 10
88.66
 11
88.936
 20
17.111
 21
17.262
  0
LINE
  8
0
 10
88.936
 11
89.227
 20
17.262
 21
17.378
  0
LINE
  8
0
 10
89.227
 11
89.532
 20
17.378
 21
17.456
  0
LINE
  8
0
 10
89.532
 11
89.843
 20
17.456
 21
17.495
  0
LINE
  8
0
 10
89.843
 11
90.157
 20
17.495
 21
17.495
  0
LINE
  8
0
 10
90.157
 11
90.468
 20
17.495
 21
17.456
  0
LINE
  8
0
 10
90.468
 11
90.773
 20
17.456
 21
17.378
  0
LINE
  8
0
 10
90.773
 11
91.064
 20
17.378
 21
17.262
  0
LINE
  8
0
 10
91.064
 11
91.34
 20
17.262
 21
17.111
  0
LINE
  8
0
 10
91.34
 11
91.594
 20
17.111
 21
16.926
  0
LINE
  8
0
 10
91.594
 11
91.822
 20
16.926
 21
16.711
  0
LINE
  8
0
 10
91.822
 11
92.023
 20
16.711
 21
16.469
  0
LINE
  8
0
 10
92.023
 11
92.191
 20
16.469
 21
16.204
  0
LINE
  8
0
 10
92.191
 11
92.324
 20
16.204
 21
15.92
  0
LINE
  8
0
 10
92.324
 11
92.421
 20
15.92
 21
15.622
  0
LINE
  8
0
 10
92.421
 11
92.48
 20
15.622
 21
15.313
  0
LINE
  8
0
 10
92.48
 11
92.5
 20
15.313
 21
15
  0
LINE
  8
0
 10
92.5
 11
92.48
 20
15
 21
14.687
  0
LINE
  8
0
 10
92.48
 11
92.421
 20
14.687
 21
14.378
  0
LINE
  8
0
 10
92.421
 11
92.324
 20
14.378
 21
14.08
  0
LINE
  8
0
 10
92.324
 11
92.191
 20
14.08
 21
13.796
  0
LINE
  8
0
 10
92.191
 11
92.023
 20
13.796
 21
13.531
  0
LINE
  8
0
 10
92.023
 11
91.822
 20
13.531
 21
13.289
  0
LINE
  8
0
 10
91.822
 11
91.594
 20
13.289
 21
13.074
  0
LINE
  8
0
 10
91.594
 11
91.34
 20
13.074
 21
12.889
  0
LINE
  8
0
 10
91.34
 11
91.064
 20
12.889
 21
12.738
  0
LINE
  8
0
 10
91.064
 11
90.773
 20
12.738
 21
12.622
  0
LINE
  8
0
 10
90.773
 11
90.468
 20
12.622
 21
12.544
  0
LINE
  8
0
 10
90.468
 11
90.157
 20
12.544
 21
12.505
  0
LINE
  8
0
 10
90.157
 11
89.843
 20
12.505
 21
12.505
  0
LINE
  8
0
 10
89.843
 11
89.532
 20
12.505
 21
12.544
  0
LINE
  8
0
 10
89.532
 11
89.227
 20
12.544
 21
12.622
  0
LINE
  8
0
 10
89.227
 11
88.936
 20
12.622
 21
12.738
  0
LINE
  8
0
 10
88.936
 11
88.66
 20
12.738
 21
12.889
  0
LINE
  8
0
 10
88.66
 11
88.406
 20
12.889
 21
13.074
  0
LINE
  8
0
 10
88.406
 11
88.178
 20
13.074
 21
13.289
  0
LINE
  8
0
 10
88.178
 11
87.977
 20
13.289
 21
13.531
  0
LINE
  8
0
 10
87.977
 11
87.809
 20
13.531
 21
13.796
  0
LINE
  8
0
 10
87.809
 11
87.676
 20
13.796
 21
14.08
  0
LINE
  8
0
 10
87.676
 11
87.579
 20
14.08
 21
14.378
  0
LINE
  8
0
 10
87.579
 11
87.52
 20
14.378
 21
14.687
  0
LINE
  8
0
 10
87.52
 11
87.5
 20
14.687
 21
15
  0
LINE
  8
0
 10
87.5
 11
87.52
 20
415
 21
415.313
  0
LINE
  8
0
 10
87.52
 11
87.579
 20
415.313
 21
415.622
  0
LINE
  8
0
 10
87.579
 11
87.676
 20
415.622
 21
415.92
  0
LINE
  8
0
 10
87.676
 11
87.809
 20
415.92
 21
416.204
  0
LINE
  8
0
 10
87.809
 11
87.977
 20
416.204
 21
416.469
  0
LINE
  8
0
 10
87.977
 11
88.178
 20
416.469
 21
416.711
  0
LINE
  8
0
 10
88.178
 11
88.406
 20
416.711
 21
416.926
  0
LINE
  8
0
 10
88.406
 11
88.66
 20
416.926
 21
417.111
  0
LINE
  8
0
 10
88.66
 11
88.936
 20
417.111
 21
417.262
  0
LINE
  8
0
 10
88.936
 11
89.227
 20
417.262
 21
417.378
  0
LINE
  8
0
 10
89.227
 11
89.532
 20
417.378
 21
417.456
  0
LINE
  8
0
 10
89.532
 11
89.843
 20
417.456
 21
417.495
  0
LINE
  8
0
 10
89.843
 11
90.157
 20
417.495
 21
417.495
  0
LINE
  8
0
 10
90.157
 11
90.468
 20
417.495
 21
417.456
  0
LINE
  8
0
 10
90.468
 11
90.773
 20
417.456
 21
417.378
  0
LINE
  8
0
 10
90.773
 11
91.064
 20
417.378
 21
417.262
  0
LINE
  8
0
 10
91.064
 11
91.34
 20
417.262
 21
417.111
  0
LINE
  8
0
 10
91.34
 11
91.594
 20
417.111
 21
416.926
  0
LINE
  8
0
 10
91.594
 11
91.822
 20
416.926
 21
416.711
  0
LINE
  8
0
 10
91.822
 11
92.023
 20
416.711
 21
416.469
  0
LINE
  8
0
 10
92.023
 11
92.191
 20
416.469
 21
416.204
  0
LINE
  8
0
 10
92.191
 11
92.324
 20
416.204
 21
415.92
  0
LINE
  8
0
 10
92.324
 11
92.421
 20
415.92
 21
415.622
  0
LINE
  8
0
 10
92.421
 11
92.48
 20
415.622
 21
415.313
  0
LINE
  8
0
 10
92.48
 11
92.5
 20
415.313
 21
415
  0
LINE
  8
0
 10
92.5
 11
92.48
 20
415
 21
414.687
  0
LINE
  8
0
 10
92.48
 11
92.421
 20
414.687
 21
414.378
  0
LINE
  8
0
 10
92.421
 11
92.324
 20
414.378
 21
414.08
  0
LINE
  8
0
 10
92.324
 11
92.191
 20
414.08
 21
413.796
  0
LINE
  8
0
 10
92.191
 11
92.023
 20
413.796
 21
413.531
  0
LINE
  8
0
 10
92.023
 11
91.822
 20
413.531
 21
413.289
  0
LINE
  8
0
 10
91.822
 11
91.594
 20
413.289
 21
413.074
  0
LINE
  8
0
 10
91.594
 11
91.34
 20
413.074
 21
412.889
  0
LINE
  8
0
 10
91.34
 11
91.064
 20
412.889
 21
412.738
  0
LINE
  8
0
 10
91.064
 11
90.773
 20
412.738
 21
412.622
  0
LINE
  8
0
 10
90.773
 11
90.468
 20
412.622
 21
412.544
  0
LINE
  8
0
 10
90.468
 11
90.157
 20
412.544
 21
412.505
  0
LINE
  8
0
 10
90.157
 11
89.843
 20
412.505
 21
412.505
  0
LINE
  8
0
 10
89.843
 11
89.532
 20
412.505
 21
412.544
  0
LINE
  8
0
 10
89.532
 11
89.227
 20
412.544
 21
412.622
  0
LINE
  8
0
 10
89.227
 11
88.936
 20
412.622
 21
412.738
  0
LINE
  8
0
 10
88.936
 11
88.66
 20
412.738
 21
412.889
  0
LINE
  8
0
 10
88.66
 11
88.406
 20
412.889
 21
413.074
  0
LINE
  8
0
 10
88.406
 11
88.178
 20
413.074
 21
413.289
  0
LINE
  8
0
 10
88.178
 11
87.977
 20
413.289
 21
413.531
  0
LINE
  8
0
 10
87.977
 11
87.809
 20
413.531
 21
413.796
  0
LINE
  8
0
 10
87.809
 11
87.676
 20
413.796
 21
414.08
  0
LINE
  8
0
 10
87.676
 11
87.579
 20
414.08
 21
414.378
  0
LINE
  8
0
 10
87.579
 11
87.52
 20
414.378
 21
414.687
  0
LINE
  8
0
 10
87.52
 11
87.5
 20
414.687
 21
415
  0
LINE
  8
0
 10
90
 11
90
 20
25
 21
30
  0
LINE
  8
0
 10
90
 11
95
 20
30
 21
30
  0
LINE
  8
0
 10
95
 11
95
 20
30
 21
25
  0
LINE
  8
0
 10
95
 11
90
 20
25
 21
25
  0
LINE
  8
0
 10
90
 11
90
 20
400
 21
405
  0
LINE
  8
0
 10
90
 11
95
 20
405
 21
405
  0
LINE
  8
0
 10
95
 11
95
 20
405
 21
400
  0
LINE
  8
0
 10
95
 11
90
 20
400
 21
400
  0
LINE
  8
0
 10
100
 11
100
 20
25
 21
30
  0
LINE
  8
0
 10
100
 11
105
 20
30
 21
30
  0
LINE
  8
0
 10
105
 11
105
 20
30
 21
25
  0
LINE
  8
0
 10
105
 11
100
 20
25
 21
25
  0
LINE
  8
0
 10
100
 11
100
 20
400
 21
405
  0
LINE
  8
0
 10
100
 11
105
 20
405
 21
405
  0
LINE
  8
0
 10
105
 11
105
 20
405
 21
400
  0
LINE
  8
0
 10
105
 11
100
 20
400
 21
400
  0
ENDSEC
  0
SECTION
  2
OBJECTS
  0
DICTIONARY
  0
ENDSEC
  0
EOF
