  0
SECTION
  2
BLOCKS
  0
ENDSEC
  0
SECTION
  2
ENTITIES
  0
LINE
  8
0
 10
0
 11
0
 20
5
 21
430
  0
LINE
  8
0
 10
0
 11
5
 20
430
 21
430
  0
LINE
  8
0
 10
5
 11
5
 20
430
 21
425
  0
LINE
  8
0
 10
5
 11
10
 20
425
 21
425
  0
LINE
  8
0
 10
10
 11
10
 20
425
 21
430
  0
LINE
  8
0
 10
10
 11
15
 20
430
 21
430
  0
LINE
  8
0
 10
15
 11
15
 20
430
 21
425
  0
LINE
  8
0
 10
15
 11
20
 20
425
 21
425
  0
LINE
  8
0
 10
20
 11
20
 20
425
 21
430
  0
LINE
  8
0
 10
20
 11
25
 20
430
 21
430
  0
LINE
  8
0
 10
25
 11
25
 20
430
 21
425
  0
LINE
  8
0
 10
25
 11
30
 20
425
 21
425
  0
LINE
  8
0
 10
30
 11
30
 20
425
 21
430
  0
LINE
  8
0
 10
30
 11
35
 20
430
 21
430
  0
LINE
  8
0
 10
35
 11
35
 20
430
 21
425
  0
LINE
  8
0
 10
35
 11
40
 20
425
 21
425
  0
LINE
  8
0
 10
40
 11
40
 20
425
 21
430
  0
LINE
  8
0
 10
40
 11
45
 20
430
 21
430
  0
LINE
  8
0
 10
45
 11
45
 20
430
 21
425
  0
LINE
  8
0
 10
45
 11
50
 20
425
 21
425
  0
LINE
  8
0
 10
50
 11
50
 20
425
 21
430
  0
LINE
  8
0
 10
50
 11
55
 20
430
 21
430
  0
LINE
  8
0
 10
55
 11
55
 20
430
 21
425
  0
LINE
  8
0
 10
55
 11
60
 20
425
 21
425
  0
LINE
  8
0
 10
60
 11
60
 20
425
 21
430
  0
LINE
  8
0
 10
60
 11
65
 20
430
 21
430
  0
LINE
  8
0
 10
65
 11
65
 20
430
 21
425
  0
LINE
  8
0
 10
65
 11
70
 20
425
 21
425
  0
LINE
  8
0
 10
70
 11
70
 20
425
 21
430
  0
LINE
  8
0
 10
70
 11
75
 20
430
 21
430
  0
LINE
  8
0
 10
75
 11
75
 20
430
 21
425
  0
LINE
  8
0
 10
75
 11
80
 20
425
 21
425
  0
LINE
  8
0
 10
80
 11
80
 20
425
 21
430
  0
LINE
  8
0
 10
80
 11
85
 20
430
 21
430
  0
LINE
  8
0
 10
85
 11
85
 20
430
 21
425
  0
LINE
  8
0
 10
85
 11
90
 20
425
 21
425
  0
LINE
  8
0
 10
90
 11
90
 20
425
 21
430
  0
LINE
  8
0
 10
90
 11
95
 20
430
 21
430
  0
LINE
  8
0
 10
95
 11
95
 20
430
 21
425
  0
LINE
  8
0
 10
95
 11
100
 20
425
 21
425
  0
LINE
  8
0
 10
100
 11
100
 20
425
 21
430
  0
LINE
  8
0
 10
100
 11
105
 20
430
 21
430
  0
LINE
  8
0
 10
105
 11
105
 20
430
 21
425
  0
LINE
  8
0
 10
105
 11
110
 20
425
 21
425
  0
LINE
  8
0
 10
110
 11
110
 20
425
 21
405
  0
LINE
  8
0
 10
110
 11
110
 20
405
 21
400
  0
LINE
  8
0
 10
110
 11
110
 20
400
 21
30
  0
LINE
  8
0
 10
110
 11
110
 20
30
 21
25
  0
LINE
  8
0
 10
110
 11
110
 20
25
 21
5
  0
LINE
  8
0
 10
110
 11
110
 20
5
 21
0
  0
LINE
  8
0
 10
110
 11
105
 20
0
 21
0
  0
LINE
  8
0
 10
105
 11
105
 20
0
 21
5
  0
LINE
  8
0
 10
105
 11
100
 20
5
 21
5
  0
LINE
  8
0
 10
100
 11
100
 20
5
 21
0
  0
LINE
  8
0
 10
100
 11
95
 20
0
 21
0
  0
LINE
  8
0
 10
95
 11
95
 20
0
 21
5
  0
LINE
  8
0
 10
95
 11
90
 20
5
 21
5
  0
LINE
  8
0
 10
90
 11
90
 20
5
 21
0
  0
LINE
  8
0
 10
90
 11
85
 20
0
 21
0
  0
LINE
  8
0
 10
85
 11
85
 20
0
 21
5
  0
LINE
  8
0
 10
85
 11
80
 20
5
 21
5
  0
LINE
  8
0
 10
80
 11
80
 20
5
 21
0
  0
LINE
  8
0
 10
80
 11
75
 20
0
 21
0
  0
LINE
  8
0
 10
75
 11
75
 20
0
 21
5
  0
LINE
  8
0
 10
75
 11
70
 20
5
 21
5
  0
LINE
  8
0
 10
70
 11
70
 20
5
 21
0
  0
LINE
  8
0
 10
70
 11
65
 20
0
 21
0
  0
LINE
  8
0
 10
65
 11
65
 20
0
 21
5
  0
LINE
  8
0
 10
65
 11
60
 20
5
 21
5
  0
LINE
  8
0
 10
60
 11
60
 20
5
 21
0
  0
LINE
  8
0
 10
60
 11
55
 20
0
 21
0
  0
LINE
  8
0
 10
55
 11
55
 20
0
 21
5
  0
LINE
  8
0
 10
55
 11
50
 20
5
 21
5
  0
LINE
  8
0
 10
50
 11
50
 20
5
 21
0
  0
LINE
  8
0
 10
50
 11
45
 20
0
 21
0
  0
LINE
  8
0
 10
45
 11
45
 20
0
 21
5
  0
LINE
  8
0
 10
45
 11
40
 20
5
 21
5
  0
LINE
  8
0
 10
40
 11
40
 20
5
 21
0
  0
LINE
  8
0
 10
40
 11
35
 20
0
 21
0
  0
LINE
  8
0
 10
35
 11
35
 20
0
 21
5
  0
LINE
  8
0
 10
35
 11
30
 20
5
 21
5
  0
LINE
  8
0
 10
30
 11
30
 20
5
 21
0
  0
LINE
  8
0
 10
30
 11
25
 20
0
 21
0
  0
LINE
  8
0
 10
25
 11
25
 20
0
 21
5
  0
LINE
  8
0
 10
25
 11
20
 20
5
 21
5
  0
LINE
  8
0
 10
20
 11
20
 20
5
 21
0
  0
LINE
  8
0
 10
20
 11
15
 20
0
 21
0
  0
LINE
  8
0
 10
15
 11
15
 20
0
 21
5
  0
LINE
  8
0
 10
15
 11
10
 20
5
 21
5
  0
LINE
  8
0
 10
10
 11
10
 20
5
 21
0
  0
LINE
  8
0
 10
10
 11
5
 20
0
 21
0
  0
LINE
  8
0
 10
5
 11
5
 20
0
 21
5
  0
LINE
  8
0
 10
5
 11
0
 20
5
 21
5
  0
LINE
  8
0
 10
2.5
 11
2.512
 20
29
 21
29.188
  0
LINE
  8
0
 10
2.512
 11
2.547
 20
29.188
 21
29.373
  0
LINE
  8
0
 10
2.547
 11
2.605
 20
29.373
 21
29.552
  0
LINE
  8
0
 10
2.605
 11
2.686
 20
29.552
 21
29.723
  0
LINE
  8
0
 10
2.686
 11
2.786
 20
29.723
 21
29.882
  0
LINE
  8
0
 10
2.786
 11
2.907
 20
29.882
 21
30.027
  0
LINE
  8
0
 10
2.907
 11
3.044
 20
30.027
 21
30.156
  0
LINE
  8
0
 10
3.044
 11
3.196
 20
30.156
 21
30.266
  0
LINE
  8
0
 10
3.196
 11
3.361
 20
30.266
 21
30.357
  0
LINE
  8
0
 10
3.361
 11
3.536
 20
30.357
 21
30.427
  0
LINE
  8
0
 10
3.536
 11
3.719
 20
30.427
 21
30.473
  0
LINE
  8
0
 10
3.719
 11
3.906
 20
30.473
 21
30.497
  0
LINE
  8
0
 10
3.906
 11
4.094
 20
30.497
 21
30.497
  0
LINE
  8
0
 10
4.094
 11
4.281
 20
30.497
 21
30.473
  0
LINE
  8
0
 10
4.281
 11
4.464
 20
30.473
 21
30.427
  0
LINE
  8
0
 10
4.464
 11
4.639
 20
30.427
 21
30.357
  0
LINE
  8
0
 10
4.639
 11
4.804
 20
30.357
 21
30.266
  0
LINE
  8
0
 10
4.804
 11
4.956
 20
30.266
 21
30.156
  0
LINE
  8
0
 10
4.956
 11
5.093
 20
30.156
 21
30.027
  0
LINE
  8
0
 10
5.093
 11
5.214
 20
30.027
 21
29.882
  0
LINE
  8
0
 10
5.214
 11
5.314
 20
29.882
 21
29.723
  0
LINE
  8
0
 10
5.314
 11
5.395
 20
29.723
 21
29.552
  0
LINE
  8
0
 10
5.395
 11
5.453
 20
29.552
 21
29.373
  0
LINE
  8
0
 10
5.453
 11
5.488
 20
29.373
 21
29.188
  0
LINE
  8
0
 10
5.488
 11
5.5
 20
29.188
 21
29
  0
LINE
  8
0
 10
5.5
 11
5.488
 20
29
 21
28.812
  0
LINE
  8
0
 10
5.488
 11
5.453
 20
28.812
 21
28.627
  0
LINE
  8
0
 10
5.453
 11
5.395
 20
28.627
 21
28.448
  0
LINE
  8
0
 10
5.395
 11
5.314
 20
28.448
 21
28.277
  0
LINE
  8
0
 10
5.314
 11
5.214
 20
28.277
 21
28.118
  0
LINE
  8
0
 10
5.214
 11
5.093
 20
28.118
 21
27.973
  0
LINE
  8
0
 10
5.093
 11
4.956
 20
27.973
 21
27.844
  0
LINE
  8
0
 10
4.956
 11
4.804
 20
27.844
 21
27.734
  0
LINE
  8
0
 10
4.804
 11
4.639
 20
27.734
 21
27.643
  0
LINE
  8
0
 10
4.639
 11
4.464
 20
27.643
 21
27.573
  0
LINE
  8
0
 10
4.464
 11
4.281
 20
27.573
 21
27.527
  0
LINE
  8
0
 10
4.281
 11
4.094
 20
27.527
 21
27.503
  0
LINE
  8
0
 10
4.094
 11
3.906
 20
27.503
 21
27.503
  0
LINE
  8
0
 10
3.906
 11
3.719
 20
27.503
 21
27.527
  0
LINE
  8
0
 10
3.719
 11
3.536
 20
27.527
 21
27.573
  0
LINE
  8
0
 10
3.536
 11
3.361
 20
27.573
 21
27.643
  0
LINE
  8
0
 10
3.361
 11
3.196
 20
27.643
 21
27.734
  0
LINE
  8
0
 10
3.196
 11
3.044
 20
27.734
 21
27.844
  0
LINE
  8
0
 10
3.044
 11
2.907
 20
27.844
 21
27.973
  0
LINE
  8
0
 10
2.907
 11
2.786
 20
27.973
 21
28.118
  0
LINE
  8
0
 10
2.786
 11
2.686
 20
28.118
 21
28.277
  0
LINE
  8
0
 10
2.686
 11
2.605
 20
28.277
 21
28.448
  0
LINE
  8
0
 10
2.605
 11
2.547
 20
28.448
 21
28.627
  0
LINE
  8
0
 10
2.547
 11
2.512
 20
28.627
 21
28.812
  0
LINE
  8
0
 10
2.512
 11
2.5
 20
28.812
 21
29
  0
LINE
  8
0
 10
2.503
 11
2.503
 20
75.906
 21
76.094
  0
LINE
  8
0
 10
2.503
 11
2.527
 20
76.094
 21
76.281
  0
LINE
  8
0
 10
2.527
 11
2.573
 20
76.281
 21
76.464
  0
LINE
  8
0
 10
2.573
 11
2.643
 20
76.464
 21
76.639
  0
LINE
  8
0
 10
2.643
 11
2.734
 20
76.639
 21
76.804
  0
LINE
  8
0
 10
2.734
 11
2.844
 20
76.804
 21
76.956
  0
LINE
  8
0
 10
2.844
 11
2.973
 20
76.956
 21
77.093
  0
LINE
  8
0
 10
2.973
 11
3.118
 20
77.093
 21
77.214
  0
LINE
  8
0
 10
3.118
 11
3.277
 20
77.214
 21
77.314
  0
LINE
  8
0
 10
3.277
 11
3.448
 20
77.314
 21
77.395
  0
LINE
  8
0
 10
3.448
 11
3.627
 20
77.395
 21
77.453
  0
LINE
  8
0
 10
3.627
 11
3.812
 20
77.453
 21
77.488
  0
LINE
  8
0
 10
3.812
 11
4
 20
77.488
 21
77.5
  0
LINE
  8
0
 10
4
 11
4.188
 20
77.5
 21
77.488
  0
LINE
  8
0
 10
4.188
 11
4.373
 20
77.488
 21
77.453
  0
LINE
  8
0
 10
4.373
 11
4.552
 20
77.453
 21
77.395
  0
LINE
  8
0
 10
4.552
 11
4.723
 20
77.395
 21
77.314
  0
LINE
  8
0
 10
4.723
 11
4.882
 20
77.314
 21
77.214
  0
LINE
  8
0
 10
4.882
 11
5.027
 20
77.214
 21
77.093
  0
LINE
  8
0
 10
5.027
 11
5.156
 20
77.093
 21
76.956
  0
LINE
  8
0
 10
5.156
 11
5.266
 20
76.956
 21
76.804
  0
LINE
  8
0
 10
5.266
 11
5.357
 20
76.804
 21
76.639
  0
LINE
  8
0
 10
5.357
 11
5.427
 20
76.639
 21
76.464
  0
LINE
  8
0
 10
5.427
 11
5.473
 20
76.464
 21
76.281
  0
LINE
  8
0
 10
5.473
 11
5.497
 20
76.281
 21
76.094
  0
LINE
  8
0
 10
5.497
 11
5.497
 20
76.094
 21
75.906
  0
LINE
  8
0
 10
5.497
 11
5.473
 20
75.906
 21
75.719
  0
LINE
  8
0
 10
5.473
 11
5.427
 20
75.719
 21
75.536
  0
LINE
  8
0
 10
5.427
 11
5.357
 20
75.536
 21
75.361
  0
LINE
  8
0
 10
5.357
 11
5.266
 20
75.361
 21
75.196
  0
LINE
  8
0
 10
5.266
 11
5.156
 20
75.196
 21
75.044
  0
LINE
  8
0
 10
5.156
 11
5.027
 20
75.044
 21
74.907
  0
LINE
  8
0
 10
5.027
 11
4.882
 20
74.907
 21
74.786
  0
LINE
  8
0
 10
4.882
 11
4.723
 20
74.786
 21
74.686
  0
LINE
  8
0
 10
4.723
 11
4.552
 20
74.686
 21
74.605
  0
LINE
  8
0
 10
4.552
 11
4.373
 20
74.605
 21
74.547
  0
LINE
  8
0
 10
4.373
 11
4.188
 20
74.547
 21
74.512
  0
LINE
  8
0
 10
4.188
 11
4
 20
74.512
 21
74.5
  0
LINE
  8
0
 10
4
 11
3.812
 20
74.5
 21
74.512
  0
LINE
  8
0
 10
3.812
 11
3.627
 20
74.512
 21
74.547
  0
LINE
  8
0
 10
3.627
 11
3.448
 20
74.547
 21
74.605
  0
LINE
  8
0
 10
3.448
 11
3.277
 20
74.605
 21
74.686
  0
LINE
  8
0
 10
3.277
 11
3.118
 20
74.686
 21
74.786
  0
LINE
  8
0
 10
3.118
 11
2.973
 20
74.786
 21
74.907
  0
LINE
  8
0
 10
2.973
 11
2.844
 20
74.907
 21
75.044
  0
LINE
  8
0
 10
2.844
 11
2.734
 20
75.044
 21
75.196
  0
LINE
  8
0
 10
2.734
 11
2.643
 20
75.196
 21
75.361
  0
LINE
  8
0
 10
2.643
 11
2.573
 20
75.361
 21
75.536
  0
LINE
  8
0
 10
2.573
 11
2.527
 20
75.536
 21
75.719
  0
LINE
  8
0
 10
2.527
 11
2.503
 20
75.719
 21
75.906
  0
LINE
  8
0
 10
5
 11
5
 20
82.5
 21
87.5
  0
LINE
  8
0
 10
5
 11
10
 20
87.5
 21
87.5
  0
LINE
  8
0
 10
10
 11
10
 20
87.5
 21
82.5
  0
LINE
  8
0
 10
10
 11
5
 20
82.5
 21
82.5
  0
LINE
  8
0
 10
5
 11
5
 20
120
 21
125
  0
LINE
  8
0
 10
5
 11
10
 20
125
 21
125
  0
LINE
  8
0
 10
10
 11
10
 20
125
 21
120
  0
LINE
  8
0
 10
10
 11
5
 20
120
 21
120
  0
LINE
  8
0
 10
5
 11
5
 20
135
 21
140
  0
LINE
  8
0
 10
5
 11
10
 20
140
 21
140
  0
LINE
  8
0
 10
10
 11
10
 20
140
 21
135
  0
LINE
  8
0
 10
10
 11
5
 20
135
 21
135
  0
LINE
  8
0
 10
5
 11
5
 20
290
 21
295
  0
LINE
  8
0
 10
5
 11
10
 20
295
 21
295
  0
LINE
  8
0
 10
10
 11
10
 20
295
 21
290
  0
LINE
  8
0
 10
10
 11
5
 20
290
 21
290
  0
LINE
  8
0
 10
5
 11
5
 20
305
 21
310
  0
LINE
  8
0
 10
5
 11
10
 20
310
 21
310
  0
LINE
  8
0
 10
10
 11
10
 20
310
 21
305
  0
LINE
  8
0
 10
10
 11
5
 20
305
 21
305
  0
LINE
  8
0
 10
5
 11
5
 20
347.5
 21
352.5
  0
LINE
  8
0
 10
5
 11
10
 20
352.5
 21
352.5
  0
LINE
  8
0
 10
10
 11
10
 20
352.5
 21
347.5
  0
LINE
  8
0
 10
10
 11
5
 20
347.5
 21
347.5
  0
LINE
  8
0
 10
6
 11
6.012
 20
117
 21
117.188
  0
LINE
  8
0
 10
6.012
 11
6.047
 20
117.188
 21
117.373
  0
LINE
  8
0
 10
6.047
 11
6.105
 20
117.373
 21
117.552
  0
LINE
  8
0
 10
6.105
 11
6.186
 20
117.552
 21
117.723
  0
LINE
  8
0
 10
6.186
 11
6.286
 20
117.723
 21
117.882
  0
LINE
  8
0
 10
6.286
 11
6.407
 20
117.882
 21
118.027
  0
LINE
  8
0
 10
6.407
 11
6.544
 20
118.027
 21
118.156
  0
LINE
  8
0
 10
6.544
 11
6.696
 20
118.156
 21
118.266
  0
LINE
  8
0
 10
6.696
 11
6.861
 20
118.266
 21
118.357
  0
LINE
  8
0
 10
6.861
 11
7.036
 20
118.357
 21
118.427
  0
LINE
  8
0
 10
7.036
 11
7.219
 20
118.427
 21
118.473
  0
LINE
  8
0
 10
7.219
 11
7.406
 20
118.473
 21
118.497
  0
LINE
  8
0
 10
7.406
 11
7.594
 20
118.497
 21
118.497
  0
LINE
  8
0
 10
7.594
 11
7.781
 20
118.497
 21
118.473
  0
LINE
  8
0
 10
7.781
 11
7.964
 20
118.473
 21
118.427
  0
LINE
  8
0
 10
7.964
 11
8.139
 20
118.427
 21
118.357
  0
LINE
  8
0
 10
8.139
 11
8.304
 20
118.357
 21
118.266
  0
LINE
  8
0
 10
8.304
 11
8.456
 20
118.266
 21
118.156
  0
LINE
  8
0
 10
8.456
 11
8.593
 20
118.156
 21
118.027
  0
LINE
  8
0
 10
8.593
 11
8.714
 20
118.027
 21
117.882
  0
LINE
  8
0
 10
8.714
 11
8.814
 20
117.882
 21
117.723
  0
LINE
  8
0
 10
8.814
 11
8.895
 20
117.723
 21
117.552
  0
LINE
  8
0
 10
8.895
 11
8.953
 20
117.552
 21
117.373
  0
LINE
  8
0
 10
8.953
 11
8.988
 20
117.373
 21
117.188
  0
LINE
  8
0
 10
8.988
 11
9
 20
117.188
 21
117
  0
LINE
  8
0
 10
9
 11
8.988
 20
117
 21
116.812
  0
LINE
  8
0
 10
8.988
 11
8.953
 20
116.812
 21
116.627
  0
LINE
  8
0
 10
8.953
 11
8.895
 20
116.627
 21
116.448
  0
LINE
  8
0
 10
8.895
 11
8.814
 20
116.448
 21
116.277
  0
LINE
  8
0
 10
8.814
 11
8.714
 20
116.277
 21
116.118
  0
LINE
  8
0
 10
8.714
 11
8.593
 20
116.118
 21
115.973
  0
LINE
  8
0
 10
8.593
 11
8.456
 20
115.973
 21
115.844
  0
LINE
  8
0
 10
8.456
 11
8.304
 20
115.844
 21
115.734
  0
LINE
  8
0
 10
8.304
 11
8.139
 20
115.734
 21
115.643
  0
LINE
  8
0
 10
8.139
 11
7.964
 20
115.643
 21
115.573
  0
LINE
  8
0
 10
7.964
 11
7.781
 20
115.573
 21
115.527
  0
LINE
  8
0
 10
7.781
 11
7.594
 20
115.527
 21
115.503
  0
LINE
  8
0
 10
7.594
 11
7.406
 20
115.503
 21
115.503
  0
LINE
  8
0
 10
7.406
 11
7.219
 20
115.503
 21
115.527
  0
LINE
  8
0
 10
7.219
 11
7.036
 20
115.527
 21
115.573
  0
LINE
  8
0
 10
7.036
 11
6.861
 20
115.573
 21
115.643
  0
LINE
  8
0
 10
6.861
 11
6.696
 20
115.643
 21
115.734
  0
LINE
  8
0
 10
6.696
 11
6.544
 20
115.734
 21
115.844
  0
LINE
  8
0
 10
6.544
 11
6.407
 20
115.844
 21
115.973
  0
LINE
  8
0
 10
6.407
 11
6.286
 20
115.973
 21
116.118
  0
LINE
  8
0
 10
6.286
 11
6.186
 20
116.118
 21
116.277
  0
LINE
  8
0
 10
6.186
 11
6.105
 20
116.277
 21
116.448
  0
LINE
  8
0
 10
6.105
 11
6.047
 20
116.448
 21
116.627
  0
LINE
  8
0
 10
6.047
 11
6.012
 20
116.627
 21
116.812
  0
LINE
  8
0
 10
6.012
 11
6
 20
116.812
 21
117
  0
LINE
  8
0
 10
6
 11
6.012
 20
143
 21
143.188
  0
LINE
  8
0
 10
6.012
 11
6.047
 20
143.188
 21
143.373
  0
LINE
  8
0
 10
6.047
 11
6.105
 20
143.373
 21
143.552
  0
LINE
  8
0
 10
6.105
 11
6.186
 20
143.552
 21
143.723
  0
LINE
  8
0
 10
6.186
 11
6.286
 20
143.723
 21
143.882
  0
LINE
  8
0
 10
6.286
 11
6.407
 20
143.882
 21
144.027
  0
LINE
  8
0
 10
6.407
 11
6.544
 20
144.027
 21
144.156
  0
LINE
  8
0
 10
6.544
 11
6.696
 20
144.156
 21
144.266
  0
LINE
  8
0
 10
6.696
 11
6.861
 20
144.266
 21
144.357
  0
LINE
  8
0
 10
6.861
 11
7.036
 20
144.357
 21
144.427
  0
LINE
  8
0
 10
7.036
 11
7.219
 20
144.427
 21
144.473
  0
LINE
  8
0
 10
7.219
 11
7.406
 20
144.473
 21
144.497
  0
LINE
  8
0
 10
7.406
 11
7.594
 20
144.497
 21
144.497
  0
LINE
  8
0
 10
7.594
 11
7.781
 20
144.497
 21
144.473
  0
LINE
  8
0
 10
7.781
 11
7.964
 20
144.473
 21
144.427
  0
LINE
  8
0
 10
7.964
 11
8.139
 20
144.427
 21
144.357
  0
LINE
  8
0
 10
8.139
 11
8.304
 20
144.357
 21
144.266
  0
LINE
  8
0
 10
8.304
 11
8.456
 20
144.266
 21
144.156
  0
LINE
  8
0
 10
8.456
 11
8.593
 20
144.156
 21
144.027
  0
LINE
  8
0
 10
8.593
 11
8.714
 20
144.027
 21
143.882
  0
LINE
  8
0
 10
8.714
 11
8.814
 20
143.882
 21
143.723
  0
LINE
  8
0
 10
8.814
 11
8.895
 20
143.723
 21
143.552
  0
LINE
  8
0
 10
8.895
 11
8.953
 20
143.552
 21
143.373
  0
LINE
  8
0
 10
8.953
 11
8.988
 20
143.373
 21
143.188
  0
LINE
  8
0
 10
8.988
 11
9
 20
143.188
 21
143
  0
LINE
  8
0
 10
9
 11
8.988
 20
143
 21
142.812
  0
LINE
  8
0
 10
8.988
 11
8.953
 20
142.812
 21
142.627
  0
LINE
  8
0
 10
8.953
 11
8.895
 20
142.627
 21
142.448
  0
LINE
  8
0
 10
8.895
 11
8.814
 20
142.448
 21
142.277
  0
LINE
  8
0
 10
8.814
 11
8.714
 20
142.277
 21
142.118
  0
LINE
  8
0
 10
8.714
 11
8.593
 20
142.118
 21
141.973
  0
LINE
  8
0
 10
8.593
 11
8.456
 20
141.973
 21
141.844
  0
LINE
  8
0
 10
8.456
 11
8.304
 20
141.844
 21
141.734
  0
LINE
  8
0
 10
8.304
 11
8.139
 20
141.734
 21
141.643
  0
LINE
  8
0
 10
8.139
 11
7.964
 20
141.643
 21
141.573
  0
LINE
  8
0
 10
7.964
 11
7.781
 20
141.573
 21
141.527
  0
LINE
  8
0
 10
7.781
 11
7.594
 20
141.527
 21
141.503
  0
LINE
  8
0
 10
7.594
 11
7.406
 20
141.503
 21
141.503
  0
LINE
  8
0
 10
7.406
 11
7.219
 20
141.503
 21
141.527
  0
LINE
  8
0
 10
7.219
 11
7.036
 20
141.527
 21
141.573
  0
LINE
  8
0
 10
7.036
 11
6.861
 20
141.573
 21
141.643
  0
LINE
  8
0
 10
6.861
 11
6.696
 20
141.643
 21
141.734
  0
LINE
  8
0
 10
6.696
 11
6.544
 20
141.734
 21
141.844
  0
LINE
  8
0
 10
6.544
 11
6.407
 20
141.844
 21
141.973
  0
LINE
  8
0
 10
6.407
 11
6.286
 20
141.973
 21
142.118
  0
LINE
  8
0
 10
6.286
 11
6.186
 20
142.118
 21
142.277
  0
LINE
  8
0
 10
6.186
 11
6.105
 20
142.277
 21
142.448
  0
LINE
  8
0
 10
6.105
 11
6.047
 20
142.448
 21
142.627
  0
LINE
  8
0
 10
6.047
 11
6.012
 20
142.627
 21
142.812
  0
LINE
  8
0
 10
6.012
 11
6
 20
142.812
 21
143
  0
LINE
  8
0
 10
6
 11
6.012
 20
287
 21
287.188
  0
LINE
  8
0
 10
6.012
 11
6.047
 20
287.188
 21
287.373
  0
LINE
  8
0
 10
6.047
 11
6.105
 20
287.373
 21
287.552
  0
LINE
  8
0
 10
6.105
 11
6.186
 20
287.552
 21
287.723
  0
LINE
  8
0
 10
6.186
 11
6.286
 20
287.723
 21
287.882
  0
LINE
  8
0
 10
6.286
 11
6.407
 20
287.882
 21
288.027
  0
LINE
  8
0
 10
6.407
 11
6.544
 20
288.027
 21
288.156
  0
LINE
  8
0
 10
6.544
 11
6.696
 20
288.156
 21
288.266
  0
LINE
  8
0
 10
6.696
 11
6.861
 20
288.266
 21
288.357
  0
LINE
  8
0
 10
6.861
 11
7.036
 20
288.357
 21
288.427
  0
LINE
  8
0
 10
7.036
 11
7.219
 20
288.427
 21
288.473
  0
LINE
  8
0
 10
7.219
 11
7.406
 20
288.473
 21
288.497
  0
LINE
  8
0
 10
7.406
 11
7.594
 20
288.497
 21
288.497
  0
LINE
  8
0
 10
7.594
 11
7.781
 20
288.497
 21
288.473
  0
LINE
  8
0
 10
7.781
 11
7.964
 20
288.473
 21
288.427
  0
LINE
  8
0
 10
7.964
 11
8.139
 20
288.427
 21
288.357
  0
LINE
  8
0
 10
8.139
 11
8.304
 20
288.357
 21
288.266
  0
LINE
  8
0
 10
8.304
 11
8.456
 20
288.266
 21
288.156
  0
LINE
  8
0
 10
8.456
 11
8.593
 20
288.156
 21
288.027
  0
LINE
  8
0
 10
8.593
 11
8.714
 20
288.027
 21
287.882
  0
LINE
  8
0
 10
8.714
 11
8.814
 20
287.882
 21
287.723
  0
LINE
  8
0
 10
8.814
 11
8.895
 20
287.723
 21
287.552
  0
LINE
  8
0
 10
8.895
 11
8.953
 20
287.552
 21
287.373
  0
LINE
  8
0
 10
8.953
 11
8.988
 20
287.373
 21
287.188
  0
LINE
  8
0
 10
8.988
 11
9
 20
287.188
 21
287
  0
LINE
  8
0
 10
9
 11
8.988
 20
287
 21
286.812
  0
LINE
  8
0
 10
8.988
 11
8.953
 20
286.812
 21
286.627
  0
LINE
  8
0
 10
8.953
 11
8.895
 20
286.627
 21
286.448
  0
LINE
  8
0
 10
8.895
 11
8.814
 20
286.448
 21
286.277
  0
LINE
  8
0
 10
8.814
 11
8.714
 20
286.277
 21
286.118
  0
LINE
  8
0
 10
8.714
 11
8.593
 20
286.118
 21
285.973
  0
LINE
  8
0
 10
8.593
 11
8.456
 20
285.973
 21
285.844
  0
LINE
  8
0
 10
8.456
 11
8.304
 20
285.844
 21
285.734
  0
LINE
  8
0
 10
8.304
 11
8.139
 20
285.734
 21
285.643
  0
LINE
  8
0
 10
8.139
 11
7.964
 20
285.643
 21
285.573
  0
LINE
  8
0
 10
7.964
 11
7.781
 20
285.573
 21
285.527
  0
LINE
  8
0
 10
7.781
 11
7.594
 20
285.527
 21
285.503
  0
LINE
  8
0
 10
7.594
 11
7.406
 20
285.503
 21
285.503
  0
LINE
  8
0
 10
7.406
 11
7.219
 20
285.503
 21
285.527
  0
LINE
  8
0
 10
7.219
 11
7.036
 20
285.527
 21
285.573
  0
LINE
  8
0
 10
7.036
 11
6.861
 20
285.573
 21
285.643
  0
LINE
  8
0
 10
6.861
 11
6.696
 20
285.643
 21
285.734
  0
LINE
  8
0
 10
6.696
 11
6.544
 20
285.734
 21
285.844
  0
LINE
  8
0
 10
6.544
 11
6.407
 20
285.844
 21
285.973
  0
LINE
  8
0
 10
6.407
 11
6.286
 20
285.973
 21
286.118
  0
LINE
  8
0
 10
6.286
 11
6.186
 20
286.118
 21
286.277
  0
LINE
  8
0
 10
6.186
 11
6.105
 20
286.277
 21
286.448
  0
LINE
  8
0
 10
6.105
 11
6.047
 20
286.448
 21
286.627
  0
LINE
  8
0
 10
6.047
 11
6.012
 20
286.627
 21
286.812
  0
LINE
  8
0
 10
6.012
 11
6
 20
286.812
 21
287
  0
LINE
  8
0
 10
6
 11
6.012
 20
313
 21
313.188
  0
LINE
  8
0
 10
6.012
 11
6.047
 20
313.188
 21
313.373
  0
LINE
  8
0
 10
6.047
 11
6.105
 20
313.373
 21
313.552
  0
LINE
  8
0
 10
6.105
 11
6.186
 20
313.552
 21
313.723
  0
LINE
  8
0
 10
6.186
 11
6.286
 20
313.723
 21
313.882
  0
LINE
  8
0
 10
6.286
 11
6.407
 20
313.882
 21
314.027
  0
LINE
  8
0
 10
6.407
 11
6.544
 20
314.027
 21
314.156
  0
LINE
  8
0
 10
6.544
 11
6.696
 20
314.156
 21
314.266
  0
LINE
  8
0
 10
6.696
 11
6.861
 20
314.266
 21
314.357
  0
LINE
  8
0
 10
6.861
 11
7.036
 20
314.357
 21
314.427
  0
LINE
  8
0
 10
7.036
 11
7.219
 20
314.427
 21
314.473
  0
LINE
  8
0
 10
7.219
 11
7.406
 20
314.473
 21
314.497
  0
LINE
  8
0
 10
7.406
 11
7.594
 20
314.497
 21
314.497
  0
LINE
  8
0
 10
7.594
 11
7.781
 20
314.497
 21
314.473
  0
LINE
  8
0
 10
7.781
 11
7.964
 20
314.473
 21
314.427
  0
LINE
  8
0
 10
7.964
 11
8.139
 20
314.427
 21
314.357
  0
LINE
  8
0
 10
8.139
 11
8.304
 20
314.357
 21
314.266
  0
LINE
  8
0
 10
8.304
 11
8.456
 20
314.266
 21
314.156
  0
LINE
  8
0
 10
8.456
 11
8.593
 20
314.156
 21
314.027
  0
LINE
  8
0
 10
8.593
 11
8.714
 20
314.027
 21
313.882
  0
LINE
  8
0
 10
8.714
 11
8.814
 20
313.882
 21
313.723
  0
LINE
  8
0
 10
8.814
 11
8.895
 20
313.723
 21
313.552
  0
LINE
  8
0
 10
8.895
 11
8.953
 20
313.552
 21
313.373
  0
LINE
  8
0
 10
8.953
 11
8.988
 20
313.373
 21
313.188
  0
LINE
  8
0
 10
8.988
 11
9
 20
313.188
 21
313
  0
LINE
  8
0
 10
9
 11
8.988
 20
313
 21
312.812
  0
LINE
  8
0
 10
8.988
 11
8.953
 20
312.812
 21
312.627
  0
LINE
  8
0
 10
8.953
 11
8.895
 20
312.627
 21
312.448
  0
LINE
  8
0
 10
8.895
 11
8.814
 20
312.448
 21
312.277
  0
LINE
  8
0
 10
8.814
 11
8.714
 20
312.277
 21
312.118
  0
LINE
  8
0
 10
8.714
 11
8.593
 20
312.118
 21
311.973
  0
LINE
  8
0
 10
8.593
 11
8.456
 20
311.973
 21
311.844
  0
LINE
  8
0
 10
8.456
 11
8.304
 20
311.844
 21
311.734
  0
LINE
  8
0
 10
8.304
 11
8.139
 20
311.734
 21
311.643
  0
LINE
  8
0
 10
8.139
 11
7.964
 20
311.643
 21
311.573
  0
LINE
  8
0
 10
7.964
 11
7.781
 20
311.573
 21
311.527
  0
LINE
  8
0
 10
7.781
 11
7.594
 20
311.527
 21
311.503
  0
LINE
  8
0
 10
7.594
 11
7.406
 20
311.503
 21
311.503
  0
LINE
  8
0
 10
7.406
 11
7.219
 20
311.503
 21
311.527
  0
LINE
  8
0
 10
7.219
 11
7.036
 20
311.527
 21
311.573
  0
LINE
  8
0
 10
7.036
 11
6.861
 20
311.573
 21
311.643
  0
LINE
  8
0
 10
6.861
 11
6.696
 20
311.643
 21
311.734
  0
LINE
  8
0
 10
6.696
 11
6.544
 20
311.734
 21
311.844
  0
LINE
  8
0
 10
6.544
 11
6.407
 20
311.844
 21
311.973
  0
LINE
  8
0
 10
6.407
 11
6.286
 20
311.973
 21
312.118
  0
LINE
  8
0
 10
6.286
 11
6.186
 20
312.118
 21
312.277
  0
LINE
  8
0
 10
6.186
 11
6.105
 20
312.277
 21
312.448
  0
LINE
  8
0
 10
6.105
 11
6.047
 20
312.448
 21
312.627
  0
LINE
  8
0
 10
6.047
 11
6.012
 20
312.627
 21
312.812
  0
LINE
  8
0
 10
6.012
 11
6
 20
312.812
 21
313
  0
LINE
  8
0
 10
6
 11
6.032
 20
377.5
 21
378.001
  0
LINE
  8
0
 10
6.032
 11
6.126
 20
378.001
 21
378.495
  0
LINE
  8
0
 10
6.126
 11
6.281
 20
378.495
 21
378.972
  0
LINE
  8
0
 10
6.281
 11
6.495
 20
378.972
 21
379.427
  0
LINE
  8
0
 10
6.495
 11
6.764
 20
379.427
 21
379.851
  0
LINE
  8
0
 10
6.764
 11
7.084
 20
379.851
 21
380.238
  0
LINE
  8
0
 10
7.084
 11
7.45
 20
380.238
 21
380.582
  0
LINE
  8
0
 10
7.45
 11
7.857
 20
380.582
 21
380.877
  0
LINE
  8
0
 10
7.857
 11
8.297
 20
380.877
 21
381.119
  0
LINE
  8
0
 10
8.297
 11
8.764
 20
381.119
 21
381.304
  0
LINE
  8
0
 10
8.764
 11
9.25
 20
381.304
 21
381.429
  0
LINE
  8
0
 10
9.25
 11
9.749
 20
381.429
 21
381.492
  0
LINE
  8
0
 10
9.749
 11
10.251
 20
381.492
 21
381.492
  0
LINE
  8
0
 10
10.251
 11
10.75
 20
381.492
 21
381.429
  0
LINE
  8
0
 10
10.75
 11
11.236
 20
381.429
 21
381.304
  0
LINE
  8
0
 10
11.236
 11
11.703
 20
381.304
 21
381.119
  0
LINE
  8
0
 10
11.703
 11
12.143
 20
381.119
 21
380.877
  0
LINE
  8
0
 10
12.143
 11
12.55
 20
380.877
 21
380.582
  0
LINE
  8
0
 10
12.55
 11
12.916
 20
380.582
 21
380.238
  0
LINE
  8
0
 10
12.916
 11
13.236
 20
380.238
 21
379.851
  0
LINE
  8
0
 10
13.236
 11
13.505
 20
379.851
 21
379.427
  0
LINE
  8
0
 10
13.505
 11
13.719
 20
379.427
 21
378.972
  0
LINE
  8
0
 10
13.719
 11
13.874
 20
378.972
 21
378.495
  0
LINE
  8
0
 10
13.874
 11
13.968
 20
378.495
 21
378.001
  0
LINE
  8
0
 10
13.968
 11
14
 20
378.001
 21
377.5
  0
LINE
  8
0
 10
14
 11
13.968
 20
377.5
 21
376.999
  0
LINE
  8
0
 10
13.968
 11
13.874
 20
376.999
 21
376.505
  0
LINE
  8
0
 10
13.874
 11
13.719
 20
376.505
 21
376.028
  0
LINE
  8
0
 10
13.719
 11
13.505
 20
376.028
 21
375.573
  0
LINE
  8
0
 10
13.505
 11
13.236
 20
375.573
 21
375.149
  0
LINE
  8
0
 10
13.236
 11
12.916
 20
375.149
 21
374.762
  0
LINE
  8
0
 10
12.916
 11
12.55
 20
374.762
 21
374.418
  0
LINE
  8
0
 10
12.55
 11
12.143
 20
374.418
 21
374.123
  0
LINE
  8
0
 10
12.143
 11
11.703
 20
374.123
 21
373.881
  0
LINE
  8
0
 10
11.703
 11
11.236
 20
373.881
 21
373.696
  0
LINE
  8
0
 10
11.236
 11
10.75
 20
373.696
 21
373.571
  0
LINE
  8
0
 10
10.75
 11
10.251
 20
373.571
 21
373.508
  0
LINE
  8
0
 10
10.251
 11
9.749
 20
373.508
 21
373.508
  0
LINE
  8
0
 10
9.749
 11
9.25
 20
373.508
 21
373.571
  0
LINE
  8
0
 10
9.25
 11
8.764
 20
373.571
 21
373.696
  0
LINE
  8
0
 10
8.764
 11
8.297
 20
373.696
 21
373.881
  0
LINE
  8
0
 10
8.297
 11
7.857
 20
373.881
 21
374.123
  0
LINE
  8
0
 10
7.857
 11
7.45
 20
374.123
 21
374.418
  0
LINE
  8
0
 10
7.45
 11
7.084
 20
374.418
 21
374.762
  0
LINE
  8
0
 10
7.084
 11
6.764
 20
374.762
 21
375.149
  0
LINE
  8
0
 10
6.764
 11
6.495
 20
375.149
 21
375.573
  0
LINE
  8
0
 10
6.495
 11
6.281
 20
375.573
 21
376.028
  0
LINE
  8
0
 10
6.281
 11
6.126
 20
376.028
 21
376.505
  0
LINE
  8
0
 10
6.126
 11
6.032
 20
376.505
 21
376.999
  0
LINE
  8
0
 10
6.032
 11
6
 20
376.999
 21
377.5
  0
LINE
  8
0
 10
6.1
 11
6.1
 20
31.1
 21
73.9
  0
LINE
  8
0
 10
6.1
 11
48.9
 20
73.9
 21
73.9
  0
LINE
  8
0
 10
48.9
 11
48.9
 20
73.9
 21
31.1
  0
LINE
  8
0
 10
48.9
 11
6.1
 20
31.1
 21
31.1
  0
LINE
  8
0
 10
8.5
 11
8.512
 20
345
 21
345.188
  0
LINE
  8
0
 10
8.512
 11
8.547
 20
345.188
 21
345.373
  0
LINE
  8
0
 10
8.547
 11
8.605
 20
345.373
 21
345.552
  0
LINE
  8
0
 10
8.605
 11
8.686
 20
345.552
 21
345.723
  0
LINE
  8
0
 10
8.686
 11
8.786
 20
345.723
 21
345.882
  0
LINE
  8
0
 10
8.786
 11
8.907
 20
345.882
 21
346.027
  0
LINE
  8
0
 10
8.907
 11
9.044
 20
346.027
 21
346.156
  0
LINE
  8
0
 10
9.044
 11
9.196
 20
346.156
 21
346.266
  0
LINE
  8
0
 10
9.196
 11
9.361
 20
346.266
 21
346.357
  0
LINE
  8
0
 10
9.361
 11
9.536
 20
346.357
 21
346.427
  0
LINE
  8
0
 10
9.536
 11
9.719
 20
346.427
 21
346.473
  0
LINE
  8
0
 10
9.719
 11
9.906
 20
346.473
 21
346.497
  0
LINE
  8
0
 10
9.906
 11
10.094
 20
346.497
 21
346.497
  0
LINE
  8
0
 10
10.094
 11
10.281
 20
346.497
 21
346.473
  0
LINE
  8
0
 10
10.281
 11
10.464
 20
346.473
 21
346.427
  0
LINE
  8
0
 10
10.464
 11
10.639
 20
346.427
 21
346.357
  0
LINE
  8
0
 10
10.639
 11
10.804
 20
346.357
 21
346.266
  0
LINE
  8
0
 10
10.804
 11
10.956
 20
346.266
 21
346.156
  0
LINE
  8
0
 10
10.956
 11
11.093
 20
346.156
 21
346.027
  0
LINE
  8
0
 10
11.093
 11
11.214
 20
346.027
 21
345.882
  0
LINE
  8
0
 10
11.214
 11
11.314
 20
345.882
 21
345.723
  0
LINE
  8
0
 10
11.314
 11
11.395
 20
345.723
 21
345.552
  0
LINE
  8
0
 10
11.395
 11
11.453
 20
345.552
 21
345.373
  0
LINE
  8
0
 10
11.453
 11
11.488
 20
345.373
 21
345.188
  0
LINE
  8
0
 10
11.488
 11
11.5
 20
345.188
 21
345
  0
LINE
  8
0
 10
11.5
 11
11.488
 20
345
 21
344.812
  0
LINE
  8
0
 10
11.488
 11
11.453
 20
344.812
 21
344.627
  0
LINE
  8
0
 10
11.453
 11
11.395
 20
344.627
 21
344.448
  0
LINE
  8
0
 10
11.395
 11
11.314
 20
344.448
 21
344.277
  0
LINE
  8
0
 10
11.314
 11
11.214
 20
344.277
 21
344.118
  0
LINE
  8
0
 10
11.214
 11
11.093
 20
344.118
 21
343.973
  0
LINE
  8
0
 10
11.093
 11
10.956
 20
343.973
 21
343.844
  0
LINE
  8
0
 10
10.956
 11
10.804
 20
343.844
 21
343.734
  0
LINE
  8
0
 10
10.804
 11
10.639
 20
343.734
 21
343.643
  0
LINE
  8
0
 10
10.639
 11
10.464
 20
343.643
 21
343.573
  0
LINE
  8
0
 10
10.464
 11
10.281
 20
343.573
 21
343.527
  0
LINE
  8
0
 10
10.281
 11
10.094
 20
343.527
 21
343.503
  0
LINE
  8
0
 10
10.094
 11
9.906
 20
343.503
 21
343.503
  0
LINE
  8
0
 10
9.906
 11
9.719
 20
343.503
 21
343.527
  0
LINE
  8
0
 10
9.719
 11
9.536
 20
343.527
 21
343.573
  0
LINE
  8
0
 10
9.536
 11
9.361
 20
343.573
 21
343.643
  0
LINE
  8
0
 10
9.361
 11
9.196
 20
343.643
 21
343.734
  0
LINE
  8
0
 10
9.196
 11
9.044
 20
343.734
 21
343.844
  0
LINE
  8
0
 10
9.044
 11
8.907
 20
343.844
 21
343.973
  0
LINE
  8
0
 10
8.907
 11
8.786
 20
343.973
 21
344.118
  0
LINE
  8
0
 10
8.786
 11
8.686
 20
344.118
 21
344.277
  0
LINE
  8
0
 10
8.686
 11
8.605
 20
344.277
 21
344.448
  0
LINE
  8
0
 10
8.605
 11
8.547
 20
344.448
 21
344.627
  0
LINE
  8
0
 10
8.547
 11
8.512
 20
344.627
 21
344.812
  0
LINE
  8
0
 10
8.512
 11
8.5
 20
344.812
 21
345
  0
LINE
  8
0
 10
15
 11
15
 20
82.5
 21
87.5
  0
LINE
  8
0
 10
15
 11
20
 20
87.5
 21
87.5
  0
LINE
  8
0
 10
20
 11
20
 20
87.5
 21
82.5
  0
LINE
  8
0
 10
20
 11
15
 20
82.5
 21
82.5
  0
LINE
  8
0
 10
15
 11
15
 20
347.5
 21
352.5
  0
LINE
  8
0
 10
15
 11
20
 20
352.5
 21
352.5
  0
LINE
  8
0
 10
20
 11
20
 20
352.5
 21
347.5
  0
LINE
  8
0
 10
20
 11
15
 20
347.5
 21
347.5
  0
LINE
  8
0
 10
17.5
 11
17.52
 20
15
 21
15.313
  0
LINE
  8
0
 10
17.52
 11
17.579
 20
15.313
 21
15.622
  0
LINE
  8
0
 10
17.579
 11
17.676
 20
15.622
 21
15.92
  0
LINE
  8
0
 10
17.676
 11
17.809
 20
15.92
 21
16.204
  0
LINE
  8
0
 10
17.809
 11
17.977
 20
16.204
 21
16.469
  0
LINE
  8
0
 10
17.977
 11
18.178
 20
16.469
 21
16.711
  0
LINE
  8
0
 10
18.178
 11
18.406
 20
16.711
 21
16.926
  0
LINE
  8
0
 10
18.406
 11
18.66
 20
16.926
 21
17.111
  0
LINE
  8
0
 10
18.66
 11
18.936
 20
17.111
 21
17.262
  0
LINE
  8
0
 10
18.936
 11
19.227
 20
17.262
 21
17.378
  0
LINE
  8
0
 10
19.227
 11
19.532
 20
17.378
 21
17.456
  0
LINE
  8
0
 10
19.532
 11
19.843
 20
17.456
 21
17.495
  0
LINE
  8
0
 10
19.843
 11
20.157
 20
17.495
 21
17.495
  0
LINE
  8
0
 10
20.157
 11
20.468
 20
17.495
 21
17.456
  0
LINE
  8
0
 10
20.468
 11
20.773
 20
17.456
 21
17.378
  0
LINE
  8
0
 10
20.773
 11
21.064
 20
17.378
 21
17.262
  0
LINE
  8
0
 10
21.064
 11
21.34
 20
17.262
 21
17.111
  0
LINE
  8
0
 10
21.34
 11
21.594
 20
17.111
 21
16.926
  0
LINE
  8
0
 10
21.594
 11
21.822
 20
16.926
 21
16.711
  0
LINE
  8
0
 10
21.822
 11
22.023
 20
16.711
 21
16.469
  0
LINE
  8
0
 10
22.023
 11
22.191
 20
16.469
 21
16.204
  0
LINE
  8
0
 10
22.191
 11
22.324
 20
16.204
 21
15.92
  0
LINE
  8
0
 10
22.324
 11
22.421
 20
15.92
 21
15.622
  0
LINE
  8
0
 10
22.421
 11
22.48
 20
15.622
 21
15.313
  0
LINE
  8
0
 10
22.48
 11
22.5
 20
15.313
 21
15
  0
LINE
  8
0
 10
22.5
 11
22.48
 20
15
 21
14.687
  0
LINE
  8
0
 10
22.48
 11
22.421
 20
14.687
 21
14.378
  0
LINE
  8
0
 10
22.421
 11
22.324
 20
14.378
 21
14.08
  0
LINE
  8
0
 10
22.324
 11
22.191
 20
14.08
 21
13.796
  0
LINE
  8
0
 10
22.191
 11
22.023
 20
13.796
 21
13.531
  0
LINE
  8
0
 10
22.023
 11
21.822
 20
13.531
 21
13.289
  0
LINE
  8
0
 10
21.822
 11
21.594
 20
13.289
 21
13.074
  0
LINE
  8
0
 10
21.594
 11
21.34
 20
13.074
 21
12.889
  0
LINE
  8
0
 10
21.34
 11
21.064
 20
12.889
 21
12.738
  0
LINE
  8
0
 10
21.064
 11
20.773
 20
12.738
 21
12.622
  0
LINE
  8
0
 10
20.773
 11
20.468
 20
12.622
 21
12.544
  0
LINE
  8
0
 10
20.468
 11
20.157
 20
12.544
 21
12.505
  0
LINE
  8
0
 10
20.157
 11
19.843
 20
12.505
 21
12.505
  0
LINE
  8
0
 10
19.843
 11
19.532
 20
12.505
 21
12.544
  0
LINE
  8
0
 10
19.532
 11
19.227
 20
12.544
 21
12.622
  0
LINE
  8
0
 10
19.227
 11
18.936
 20
12.622
 21
12.738
  0
LINE
  8
0
 10
18.936
 11
18.66
 20
12.738
 21
12.889
  0
LINE
  8
0
 10
18.66
 11
18.406
 20
12.889
 21
13.074
  0
LINE
  8
0
 10
18.406
 11
18.178
 20
13.074
 21
13.289
  0
LINE
  8
0
 10
18.178
 11
17.977
 20
13.289
 21
13.531
  0
LINE
  8
0
 10
17.977
 11
17.809
 20
13.531
 21
13.796
  0
LINE
  8
0
 10
17.809
 11
17.676
 20
13.796
 21
14.08
  0
LINE
  8
0
 10
17.676
 11
17.579
 20
14.08
 21
14.378
  0
LINE
  8
0
 10
17.579
 11
17.52
 20
14.378
 21
14.687
  0
LINE
  8
0
 10
17.52
 11
17.5
 20
14.687
 21
15
  0
LINE
  8
0
 10
17.5
 11
17.52
 20
415
 21
415.313
  0
LINE
  8
0
 10
17.52
 11
17.579
 20
415.313
 21
415.622
  0
LINE
  8
0
 10
17.579
 11
17.676
 20
415.622
 21
415.92
  0
LINE
  8
0
 10
17.676
 11
17.809
 20
415.92
 21
416.204
  0
LINE
  8
0
 10
17.809
 11
17.977
 20
416.204
 21
416.469
  0
LINE
  8
0
 10
17.977
 11
18.178
 20
416.469
 21
416.711
  0
LINE
  8
0
 10
18.178
 11
18.406
 20
416.711
 21
416.926
  0
LINE
  8
0
 10
18.406
 11
18.66
 20
416.926
 21
417.111
  0
LINE
  8
0
 10
18.66
 11
18.936
 20
417.111
 21
417.262
  0
LINE
  8
0
 10
18.936
 11
19.227
 20
417.262
 21
417.378
  0
LINE
  8
0
 10
19.227
 11
19.532
 20
417.378
 21
417.456
  0
LINE
  8
0
 10
19.532
 11
19.843
 20
417.456
 21
417.495
  0
LINE
  8
0
 10
19.843
 11
20.157
 20
417.495
 21
417.495
  0
LINE
  8
0
 10
20.157
 11
20.468
 20
417.495
 21
417.456
  0
LINE
  8
0
 10
20.468
 11
20.773
 20
417.456
 21
417.378
  0
LINE
  8
0
 10
20.773
 11
21.064
 20
417.378
 21
417.262
  0
LINE
  8
0
 10
21.064
 11
21.34
 20
417.262
 21
417.111
  0
LINE
  8
0
 10
21.34
 11
21.594
 20
417.111
 21
416.926
  0
LINE
  8
0
 10
21.594
 11
21.822
 20
416.926
 21
416.711
  0
LINE
  8
0
 10
21.822
 11
22.023
 20
416.711
 21
416.469
  0
LINE
  8
0
 10
22.023
 11
22.191
 20
416.469
 21
416.204
  0
LINE
  8
0
 10
22.191
 11
22.324
 20
416.204
 21
415.92
  0
LINE
  8
0
 10
22.324
 11
22.421
 20
415.92
 21
415.622
  0
LINE
  8
0
 10
22.421
 11
22.48
 20
415.622
 21
415.313
  0
LINE
  8
0
 10
22.48
 11
22.5
 20
415.313
 21
415
  0
LINE
  8
0
 10
22.5
 11
22.48
 20
415
 21
414.687
  0
LINE
  8
0
 10
22.48
 11
22.421
 20
414.687
 21
414.378
  0
LINE
  8
0
 10
22.421
 11
22.324
 20
414.378
 21
414.08
  0
LINE
  8
0
 10
22.324
 11
22.191
 20
414.08
 21
413.796
  0
LINE
  8
0
 10
22.191
 11
22.023
 20
413.796
 21
413.531
  0
LINE
  8
0
 10
22.023
 11
21.822
 20
413.531
 21
413.289
  0
LINE
  8
0
 10
21.822
 11
21.594
 20
413.289
 21
413.074
  0
LINE
  8
0
 10
21.594
 11
21.34
 20
413.074
 21
412.889
  0
LINE
  8
0
 10
21.34
 11
21.064
 20
412.889
 21
412.738
  0
LINE
  8
0
 10
21.064
 11
20.773
 20
412.738
 21
412.622
  0
LINE
  8
0
 10
20.773
 11
20.468
 20
412.622
 21
412.544
  0
LINE
  8
0
 10
20.468
 11
20.157
 20
412.544
 21
412.505
  0
LINE
  8
0
 10
20.157
 11
19.843
 20
412.505
 21
412.505
  0
LINE
  8
0
 10
19.843
 11
19.532
 20
412.505
 21
412.544
  0
LINE
  8
0
 10
19.532
 11
19.227
 20
412.544
 21
412.622
  0
LINE
  8
0
 10
19.227
 11
18.936
 20
412.622
 21
412.738
  0
LINE
  8
0
 10
18.936
 11
18.66
 20
412.738
 21
412.889
  0
LINE
  8
0
 10
18.66
 11
18.406
 20
412.889
 21
413.074
  0
LINE
  8
0
 10
18.406
 11
18.178
 20
413.074
 21
413.289
  0
LINE
  8
0
 10
18.178
 11
17.977
 20
413.289
 21
413.531
  0
LINE
  8
0
 10
17.977
 11
17.809
 20
413.531
 21
413.796
  0
LINE
  8
0
 10
17.809
 11
17.676
 20
413.796
 21
414.08
  0
LINE
  8
0
 10
17.676
 11
17.579
 20
414.08
 21
414.378
  0
LINE
  8
0
 10
17.579
 11
17.52
 20
414.378
 21
414.687
  0
LINE
  8
0
 10
17.52
 11
17.5
 20
414.687
 21
415
  0
LINE
  8
0
 10
23.2
 11
23.234
 20
377.5
 21
378.039
  0
LINE
  8
0
 10
23.234
 11
23.335
 20
378.039
 21
378.569
  0
LINE
  8
0
 10
23.335
 11
23.502
 20
378.569
 21
379.083
  0
LINE
  8
0
 10
23.502
 11
23.732
 20
379.083
 21
379.572
  0
LINE
  8
0
 10
23.732
 11
24.021
 20
379.572
 21
380.027
  0
LINE
  8
0
 10
24.021
 11
24.365
 20
380.027
 21
380.444
  0
LINE
  8
0
 10
24.365
 11
24.759
 20
380.444
 21
380.813
  0
LINE
  8
0
 10
24.759
 11
25.196
 20
380.813
 21
381.131
  0
LINE
  8
0
 10
25.196
 11
25.669
 20
381.131
 21
381.391
  0
LINE
  8
0
 10
25.669
 11
26.171
 20
381.391
 21
381.59
  0
LINE
  8
0
 10
26.171
 11
26.694
 20
381.59
 21
381.724
  0
LINE
  8
0
 10
26.694
 11
27.23
 20
381.724
 21
381.792
  0
LINE
  8
0
 10
27.23
 11
27.77
 20
381.792
 21
381.792
  0
LINE
  8
0
 10
27.77
 11
28.306
 20
381.792
 21
381.724
  0
LINE
  8
0
 10
28.306
 11
28.829
 20
381.724
 21
381.59
  0
LINE
  8
0
 10
28.829
 11
29.331
 20
381.59
 21
381.391
  0
LINE
  8
0
 10
29.331
 11
29.804
 20
381.391
 21
381.131
  0
LINE
  8
0
 10
29.804
 11
30.241
 20
381.131
 21
380.813
  0
LINE
  8
0
 10
30.241
 11
30.635
 20
380.813
 21
380.444
  0
LINE
  8
0
 10
30.635
 11
30.979
 20
380.444
 21
380.027
  0
LINE
  8
0
 10
30.979
 11
31.268
 20
380.027
 21
379.572
  0
LINE
  8
0
 10
31.268
 11
31.498
 20
379.572
 21
379.083
  0
LINE
  8
0
 10
31.498
 11
31.665
 20
379.083
 21
378.569
  0
LINE
  8
0
 10
31.665
 11
31.766
 20
378.569
 21
378.039
  0
LINE
  8
0
 10
31.766
 11
31.8
 20
378.039
 21
377.5
  0
LINE
  8
0
 10
31.8
 11
31.766
 20
377.5
 21
376.961
  0
LINE
  8
0
 10
31.766
 11
31.665
 20
376.961
 21
376.431
  0
LINE
  8
0
 10
31.665
 11
31.498
 20
376.431
 21
375.917
  0
LINE
  8
0
 10
31.498
 11
31.268
 20
375.917
 21
375.428
  0
LINE
  8
0
 10
31.268
 11
30.979
 20
375.428
 21
374.973
  0
LINE
  8
0
 10
30.979
 11
30.635
 20
374.973
 21
374.556
  0
LINE
  8
0
 10
30.635
 11
30.241
 20
374.556
 21
374.187
  0
LINE
  8
0
 10
30.241
 11
29.804
 20
374.187
 21
373.869
  0
LINE
  8
0
 10
29.804
 11
29.331
 20
373.869
 21
373.609
  0
LINE
  8
0
 10
29.331
 11
28.829
 20
373.609
 21
373.41
  0
LINE
  8
0
 10
28.829
 11
28.306
 20
373.41
 21
373.276
  0
LINE
  8
0
 10
28.306
 11
27.77
 20
373.276
 21
373.208
  0
LINE
  8
0
 10
27.77
 11
27.23
 20
373.208
 21
373.208
  0
LINE
  8
0
 10
27.23
 11
26.694
 20
373.208
 21
373.276
  0
LINE
  8
0
 10
26.694
 11
26.171
 20
373.276
 21
373.41
  0
LINE
  8
0
 10
26.171
 11
25.669
 20
373.41
 21
373.609
  0
LINE
  8
0
 10
25.669
 11
25.196
 20
373.609
 21
373.869
  0
LINE
  8
0
 10
25.196
 11
24.759
 20
373.869
 21
374.187
  0
LINE
  8
0
 10
24.759
 11
24.365
 20
374.187
 21
374.556
  0
LINE
  8
0
 10
24.365
 11
24.021
 20
374.556
 21
374.973
  0
LINE
  8
0
 10
24.021
 11
23.732
 20
374.973
 21
375.428
  0
LINE
  8
0
 10
23.732
 11
23.502
 20
375.428
 21
375.917
  0
LINE
  8
0
 10
23.502
 11
23.335
 20
375.917
 21
376.431
  0
LINE
  8
0
 10
23.335
 11
23.234
 20
376.431
 21
376.961
  0
LINE
  8
0
 10
23.234
 11
23.2
 20
376.961
 21
377.5
  0
LINE
  8
0
 10
25
 11
25
 20
82.5
 21
87.5
  0
LINE
  8
0
 10
25
 11
30
 20
87.5
 21
87.5
  0
LINE
  8
0
 10
30
 11
30
 20
87.5
 21
82.5
  0
LINE
  8
0
 10
30
 11
25
 20
82.5
 21
82.5
  0
LINE
  8
0
 10
25
 11
25
 20
347.5
 21
352.5
  0
LINE
  8
0
 10
25
 11
30
 20
352.5
 21
352.5
  0
LINE
  8
0
 10
30
 11
30
 20
352.5
 21
347.5
  0
LINE
  8
0
 10
30
 11
25
 20
347.5
 21
347.5
  0
LINE
  8
0
 10
35
 11
35
 20
82.5
 21
87.5
  0
LINE
  8
0
 10
35
 11
40
 20
87.5
 21
87.5
  0
LINE
  8
0
 10
40
 11
40
 20
87.5
 21
82.5
  0
LINE
  8
0
 10
40
 11
35
 20
82.5
 21
82.5
  0
LINE
  8
0
 10
35
 11
35
 20
347.5
 21
352.5
  0
LINE
  8
0
 10
35
 11
40
 20
352.5
 21
352.5
  0
LINE
  8
0
 10
40
 11
40
 20
352.5
 21
347.5
  0
LINE
  8
0
 10
40
 11
35
 20
347.5
 21
347.5
  0
LINE
  8
0
 10
43.5
 11
43.512
 20
345
 21
345.188
  0
LINE
  8
0
 10
43.512
 11
43.547
 20
345.188
 21
345.373
  0
LINE
  8
0
 10
43.547
 11
43.605
 20
345.373
 21
345.552
  0
LINE
  8
0
 10
43.605
 11
43.686
 20
345.552
 21
345.723
  0
LINE
  8
0
 10
43.686
 11
43.786
 20
345.723
 21
345.882
  0
LINE
  8
0
 10
43.786
 11
43.907
 20
345.882
 21
346.027
  0
LINE
  8
0
 10
43.907
 11
44.044
 20
346.027
 21
346.156
  0
LINE
  8
0
 10
44.044
 11
44.196
 20
346.156
 21
346.266
  0
LINE
  8
0
 10
44.196
 11
44.361
 20
346.266
 21
346.357
  0
LINE
  8
0
 10
44.361
 11
44.536
 20
346.357
 21
346.427
  0
LINE
  8
0
 10
44.536
 11
44.719
 20
346.427
 21
346.473
  0
LINE
  8
0
 10
44.719
 11
44.906
 20
346.473
 21
346.497
  0
LINE
  8
0
 10
44.906
 11
45.094
 20
346.497
 21
346.497
  0
LINE
  8
0
 10
45.094
 11
45.281
 20
346.497
 21
346.473
  0
LINE
  8
0
 10
45.281
 11
45.464
 20
346.473
 21
346.427
  0
LINE
  8
0
 10
45.464
 11
45.639
 20
346.427
 21
346.357
  0
LINE
  8
0
 10
45.639
 11
45.804
 20
346.357
 21
346.266
  0
LINE
  8
0
 10
45.804
 11
45.956
 20
346.266
 21
346.156
  0
LINE
  8
0
 10
45.956
 11
46.093
 20
346.156
 21
346.027
  0
LINE
  8
0
 10
46.093
 11
46.214
 20
346.027
 21
345.882
  0
LINE
  8
0
 10
46.214
 11
46.314
 20
345.882
 21
345.723
  0
LINE
  8
0
 10
46.314
 11
46.395
 20
345.723
 21
345.552
  0
LINE
  8
0
 10
46.395
 11
46.453
 20
345.552
 21
345.373
  0
LINE
  8
0
 10
46.453
 11
46.488
 20
345.373
 21
345.188
  0
LINE
  8
0
 10
46.488
 11
46.5
 20
345.188
 21
345
  0
LINE
  8
0
 10
46.5
 11
46.488
 20
345
 21
344.812
  0
LINE
  8
0
 10
46.488
 11
46.453
 20
344.812
 21
344.627
  0
LINE
  8
0
 10
46.453
 11
46.395
 20
344.627
 21
344.448
  0
LINE
  8
0
 10
46.395
 11
46.314
 20
344.448
 21
344.277
  0
LINE
  8
0
 10
46.314
 11
46.214
 20
344.277
 21
344.118
  0
LINE
  8
0
 10
46.214
 11
46.093
 20
344.118
 21
343.973
  0
LINE
  8
0
 10
46.093
 11
45.956
 20
343.973
 21
343.844
  0
LINE
  8
0
 10
45.956
 11
45.804
 20
343.844
 21
343.734
  0
LINE
  8
0
 10
45.804
 11
45.639
 20
343.734
 21
343.643
  0
LINE
  8
0
 10
45.639
 11
45.464
 20
343.643
 21
343.573
  0
LINE
  8
0
 10
45.464
 11
45.281
 20
343.573
 21
343.527
  0
LINE
  8
0
 10
45.281
 11
45.094
 20
343.527
 21
343.503
  0
LINE
  8
0
 10
45.094
 11
44.906
 20
343.503
 21
343.503
  0
LINE
  8
0
 10
44.906
 11
44.719
 20
343.503
 21
343.527
  0
LINE
  8
0
 10
44.719
 11
44.536
 20
343.527
 21
343.573
  0
LINE
  8
0
 10
44.536
 11
44.361
 20
343.573
 21
343.643
  0
LINE
  8
0
 10
44.361
 11
44.196
 20
343.643
 21
343.734
  0
LINE
  8
0
 10
44.196
 11
44.044
 20
343.734
 21
343.844
  0
LINE
  8
0
 10
44.044
 11
43.907
 20
343.844
 21
343.973
  0
LINE
  8
0
 10
43.907
 11
43.786
 20
343.973
 21
344.118
  0
LINE
  8
0
 10
43.786
 11
43.686
 20
344.118
 21
344.277
  0
LINE
  8
0
 10
43.686
 11
43.605
 20
344.277
 21
344.448
  0
LINE
  8
0
 10
43.605
 11
43.547
 20
344.448
 21
344.627
  0
LINE
  8
0
 10
43.547
 11
43.512
 20
344.627
 21
344.812
  0
LINE
  8
0
 10
43.512
 11
43.5
 20
344.812
 21
345
  0
LINE
  8
0
 10
45
 11
45
 20
82.5
 21
87.5
  0
LINE
  8
0
 10
45
 11
50
 20
87.5
 21
87.5
  0
LINE
  8
0
 10
50
 11
50
 20
87.5
 21
82.5
  0
LINE
  8
0
 10
50
 11
45
 20
82.5
 21
82.5
  0
LINE
  8
0
 10
45
 11
45
 20
120
 21
125
  0
LINE
  8
0
 10
45
 11
50
 20
125
 21
125
  0
LINE
  8
0
 10
50
 11
50
 20
125
 21
120
  0
LINE
  8
0
 10
50
 11
45
 20
120
 21
120
  0
LINE
  8
0
 10
45
 11
45
 20
135
 21
140
  0
LINE
  8
0
 10
45
 11
50
 20
140
 21
140
  0
LINE
  8
0
 10
50
 11
50
 20
140
 21
135
  0
LINE
  8
0
 10
50
 11
45
 20
135
 21
135
  0
LINE
  8
0
 10
45
 11
45
 20
290
 21
295
  0
LINE
  8
0
 10
45
 11
50
 20
295
 21
295
  0
LINE
  8
0
 10
50
 11
50
 20
295
 21
290
  0
LINE
  8
0
 10
50
 11
45
 20
290
 21
290
  0
LINE
  8
0
 10
45
 11
45
 20
305
 21
310
  0
LINE
  8
0
 10
45
 11
50
 20
310
 21
310
  0
LINE
  8
0
 10
50
 11
50
 20
310
 21
305
  0
LINE
  8
0
 10
50
 11
45
 20
305
 21
305
  0
LINE
  8
0
 10
45
 11
45
 20
347.5
 21
352.5
  0
LINE
  8
0
 10
45
 11
50
 20
352.5
 21
352.5
  0
LINE
  8
0
 10
50
 11
50
 20
352.5
 21
347.5
  0
LINE
  8
0
 10
50
 11
45
 20
347.5
 21
347.5
  0
LINE
  8
0
 10
46
 11
46.012
 20
117
 21
117.188
  0
LINE
  8
0
 10
46.012
 11
46.047
 20
117.188
 21
117.373
  0
LINE
  8
0
 10
46.047
 11
46.105
 20
117.373
 21
117.552
  0
LINE
  8
0
 10
46.105
 11
46.186
 20
117.552
 21
117.723
  0
LINE
  8
0
 10
46.186
 11
46.286
 20
117.723
 21
117.882
  0
LINE
  8
0
 10
46.286
 11
46.407
 20
117.882
 21
118.027
  0
LINE
  8
0
 10
46.407
 11
46.544
 20
118.027
 21
118.156
  0
LINE
  8
0
 10
46.544
 11
46.696
 20
118.156
 21
118.266
  0
LINE
  8
0
 10
46.696
 11
46.861
 20
118.266
 21
118.357
  0
LINE
  8
0
 10
46.861
 11
47.036
 20
118.357
 21
118.427
  0
LINE
  8
0
 10
47.036
 11
47.219
 20
118.427
 21
118.473
  0
LINE
  8
0
 10
47.219
 11
47.406
 20
118.473
 21
118.497
  0
LINE
  8
0
 10
47.406
 11
47.594
 20
118.497
 21
118.497
  0
LINE
  8
0
 10
47.594
 11
47.781
 20
118.497
 21
118.473
  0
LINE
  8
0
 10
47.781
 11
47.964
 20
118.473
 21
118.427
  0
LINE
  8
0
 10
47.964
 11
48.139
 20
118.427
 21
118.357
  0
LINE
  8
0
 10
48.139
 11
48.304
 20
118.357
 21
118.266
  0
LINE
  8
0
 10
48.304
 11
48.456
 20
118.266
 21
118.156
  0
LINE
  8
0
 10
48.456
 11
48.593
 20
118.156
 21
118.027
  0
LINE
  8
0
 10
48.593
 11
48.714
 20
118.027
 21
117.882
  0
LINE
  8
0
 10
48.714
 11
48.814
 20
117.882
 21
117.723
  0
LINE
  8
0
 10
48.814
 11
48.895
 20
117.723
 21
117.552
  0
LINE
  8
0
 10
48.895
 11
48.953
 20
117.552
 21
117.373
  0
LINE
  8
0
 10
48.953
 11
48.988
 20
117.373
 21
117.188
  0
LINE
  8
0
 10
48.988
 11
49
 20
117.188
 21
117
  0
LINE
  8
0
 10
49
 11
48.988
 20
117
 21
116.812
  0
LINE
  8
0
 10
48.988
 11
48.953
 20
116.812
 21
116.627
  0
LINE
  8
0
 10
48.953
 11
48.895
 20
116.627
 21
116.448
  0
LINE
  8
0
 10
48.895
 11
48.814
 20
116.448
 21
116.277
  0
LINE
  8
0
 10
48.814
 11
48.714
 20
116.277
 21
116.118
  0
LINE
  8
0
 10
48.714
 11
48.593
 20
116.118
 21
115.973
  0
LINE
  8
0
 10
48.593
 11
48.456
 20
115.973
 21
115.844
  0
LINE
  8
0
 10
48.456
 11
48.304
 20
115.844
 21
115.734
  0
LINE
  8
0
 10
48.304
 11
48.139
 20
115.734
 21
115.643
  0
LINE
  8
0
 10
48.139
 11
47.964
 20
115.643
 21
115.573
  0
LINE
  8
0
 10
47.964
 11
47.781
 20
115.573
 21
115.527
  0
LINE
  8
0
 10
47.781
 11
47.594
 20
115.527
 21
115.503
  0
LINE
  8
0
 10
47.594
 11
47.406
 20
115.503
 21
115.503
  0
LINE
  8
0
 10
47.406
 11
47.219
 20
115.503
 21
115.527
  0
LINE
  8
0
 10
47.219
 11
47.036
 20
115.527
 21
115.573
  0
LINE
  8
0
 10
47.036
 11
46.861
 20
115.573
 21
115.643
  0
LINE
  8
0
 10
46.861
 11
46.696
 20
115.643
 21
115.734
  0
LINE
  8
0
 10
46.696
 11
46.544
 20
115.734
 21
115.844
  0
LINE
  8
0
 10
46.544
 11
46.407
 20
115.844
 21
115.973
  0
LINE
  8
0
 10
46.407
 11
46.286
 20
115.973
 21
116.118
  0
LINE
  8
0
 10
46.286
 11
46.186
 20
116.118
 21
116.277
  0
LINE
  8
0
 10
46.186
 11
46.105
 20
116.277
 21
116.448
  0
LINE
  8
0
 10
46.105
 11
46.047
 20
116.448
 21
116.627
  0
LINE
  8
0
 10
46.047
 11
46.012
 20
116.627
 21
116.812
  0
LINE
  8
0
 10
46.012
 11
46
 20
116.812
 21
117
  0
LINE
  8
0
 10
46
 11
46.012
 20
143
 21
143.188
  0
LINE
  8
0
 10
46.012
 11
46.047
 20
143.188
 21
143.373
  0
LINE
  8
0
 10
46.047
 11
46.105
 20
143.373
 21
143.552
  0
LINE
  8
0
 10
46.105
 11
46.186
 20
143.552
 21
143.723
  0
LINE
  8
0
 10
46.186
 11
46.286
 20
143.723
 21
143.882
  0
LINE
  8
0
 10
46.286
 11
46.407
 20
143.882
 21
144.027
  0
LINE
  8
0
 10
46.407
 11
46.544
 20
144.027
 21
144.156
  0
LINE
  8
0
 10
46.544
 11
46.696
 20
144.156
 21
144.266
  0
LINE
  8
0
 10
46.696
 11
46.861
 20
144.266
 21
144.357
  0
LINE
  8
0
 10
46.861
 11
47.036
 20
144.357
 21
144.427
  0
LINE
  8
0
 10
47.036
 11
47.219
 20
144.427
 21
144.473
  0
LINE
  8
0
 10
47.219
 11
47.406
 20
144.473
 21
144.497
  0
LINE
  8
0
 10
47.406
 11
47.594
 20
144.497
 21
144.497
  0
LINE
  8
0
 10
47.594
 11
47.781
 20
144.497
 21
144.473
  0
LINE
  8
0
 10
47.781
 11
47.964
 20
144.473
 21
144.427
  0
LINE
  8
0
 10
47.964
 11
48.139
 20
144.427
 21
144.357
  0
LINE
  8
0
 10
48.139
 11
48.304
 20
144.357
 21
144.266
  0
LINE
  8
0
 10
48.304
 11
48.456
 20
144.266
 21
144.156
  0
LINE
  8
0
 10
48.456
 11
48.593
 20
144.156
 21
144.027
  0
LINE
  8
0
 10
48.593
 11
48.714
 20
144.027
 21
143.882
  0
LINE
  8
0
 10
48.714
 11
48.814
 20
143.882
 21
143.723
  0
LINE
  8
0
 10
48.814
 11
48.895
 20
143.723
 21
143.552
  0
LINE
  8
0
 10
48.895
 11
48.953
 20
143.552
 21
143.373
  0
LINE
  8
0
 10
48.953
 11
48.988
 20
143.373
 21
143.188
  0
LINE
  8
0
 10
48.988
 11
49
 20
143.188
 21
143
  0
LINE
  8
0
 10
49
 11
48.988
 20
143
 21
142.812
  0
LINE
  8
0
 10
48.988
 11
48.953
 20
142.812
 21
142.627
  0
LINE
  8
0
 10
48.953
 11
48.895
 20
142.627
 21
142.448
  0
LINE
  8
0
 10
48.895
 11
48.814
 20
142.448
 21
142.277
  0
LINE
  8
0
 10
48.814
 11
48.714
 20
142.277
 21
142.118
  0
LINE
  8
0
 10
48.714
 11
48.593
 20
142.118
 21
141.973
  0
LINE
  8
0
 10
48.593
 11
48.456
 20
141.973
 21
141.844
  0
LINE
  8
0
 10
48.456
 11
48.304
 20
141.844
 21
141.734
  0
LINE
  8
0
 10
48.304
 11
48.139
 20
141.734
 21
141.643
  0
LINE
  8
0
 10
48.139
 11
47.964
 20
141.643
 21
141.573
  0
LINE
  8
0
 10
47.964
 11
47.781
 20
141.573
 21
141.527
  0
LINE
  8
0
 10
47.781
 11
47.594
 20
141.527
 21
141.503
  0
LINE
  8
0
 10
47.594
 11
47.406
 20
141.503
 21
141.503
  0
LINE
  8
0
 10
47.406
 11
47.219
 20
141.503
 21
141.527
  0
LINE
  8
0
 10
47.219
 11
47.036
 20
141.527
 21
141.573
  0
LINE
  8
0
 10
47.036
 11
46.861
 20
141.573
 21
141.643
  0
LINE
  8
0
 10
46.861
 11
46.696
 20
141.643
 21
141.734
  0
LINE
  8
0
 10
46.696
 11
46.544
 20
141.734
 21
141.844
  0
LINE
  8
0
 10
46.544
 11
46.407
 20
141.844
 21
141.973
  0
LINE
  8
0
 10
46.407
 11
46.286
 20
141.973
 21
142.118
  0
LINE
  8
0
 10
46.286
 11
46.186
 20
142.118
 21
142.277
  0
LINE
  8
0
 10
46.186
 11
46.105
 20
142.277
 21
142.448
  0
LINE
  8
0
 10
46.105
 11
46.047
 20
142.448
 21
142.627
  0
LINE
  8
0
 10
46.047
 11
46.012
 20
142.627
 21
142.812
  0
LINE
  8
0
 10
46.012
 11
46
 20
142.812
 21
143
  0
LINE
  8
0
 10
46
 11
46.012
 20
287
 21
287.188
  0
LINE
  8
0
 10
46.012
 11
46.047
 20
287.188
 21
287.373
  0
LINE
  8
0
 10
46.047
 11
46.105
 20
287.373
 21
287.552
  0
LINE
  8
0
 10
46.105
 11
46.186
 20
287.552
 21
287.723
  0
LINE
  8
0
 10
46.186
 11
46.286
 20
287.723
 21
287.882
  0
LINE
  8
0
 10
46.286
 11
46.407
 20
287.882
 21
288.027
  0
LINE
  8
0
 10
46.407
 11
46.544
 20
288.027
 21
288.156
  0
LINE
  8
0
 10
46.544
 11
46.696
 20
288.156
 21
288.266
  0
LINE
  8
0
 10
46.696
 11
46.861
 20
288.266
 21
288.357
  0
LINE
  8
0
 10
46.861
 11
47.036
 20
288.357
 21
288.427
  0
LINE
  8
0
 10
47.036
 11
47.219
 20
288.427
 21
288.473
  0
LINE
  8
0
 10
47.219
 11
47.406
 20
288.473
 21
288.497
  0
LINE
  8
0
 10
47.406
 11
47.594
 20
288.497
 21
288.497
  0
LINE
  8
0
 10
47.594
 11
47.781
 20
288.497
 21
288.473
  0
LINE
  8
0
 10
47.781
 11
47.964
 20
288.473
 21
288.427
  0
LINE
  8
0
 10
47.964
 11
48.139
 20
288.427
 21
288.357
  0
LINE
  8
0
 10
48.139
 11
48.304
 20
288.357
 21
288.266
  0
LINE
  8
0
 10
48.304
 11
48.456
 20
288.266
 21
288.156
  0
LINE
  8
0
 10
48.456
 11
48.593
 20
288.156
 21
288.027
  0
LINE
  8
0
 10
48.593
 11
48.714
 20
288.027
 21
287.882
  0
LINE
  8
0
 10
48.714
 11
48.814
 20
287.882
 21
287.723
  0
LINE
  8
0
 10
48.814
 11
48.895
 20
287.723
 21
287.552
  0
LINE
  8
0
 10
48.895
 11
48.953
 20
287.552
 21
287.373
  0
LINE
  8
0
 10
48.953
 11
48.988
 20
287.373
 21
287.188
  0
LINE
  8
0
 10
48.988
 11
49
 20
287.188
 21
287
  0
LINE
  8
0
 10
49
 11
48.988
 20
287
 21
286.812
  0
LINE
  8
0
 10
48.988
 11
48.953
 20
286.812
 21
286.627
  0
LINE
  8
0
 10
48.953
 11
48.895
 20
286.627
 21
286.448
  0
LINE
  8
0
 10
48.895
 11
48.814
 20
286.448
 21
286.277
  0
LINE
  8
0
 10
48.814
 11
48.714
 20
286.277
 21
286.118
  0
LINE
  8
0
 10
48.714
 11
48.593
 20
286.118
 21
285.973
  0
LINE
  8
0
 10
48.593
 11
48.456
 20
285.973
 21
285.844
  0
LINE
  8
0
 10
48.456
 11
48.304
 20
285.844
 21
285.734
  0
LINE
  8
0
 10
48.304
 11
48.139
 20
285.734
 21
285.643
  0
LINE
  8
0
 10
48.139
 11
47.964
 20
285.643
 21
285.573
  0
LINE
  8
0
 10
47.964
 11
47.781
 20
285.573
 21
285.527
  0
LINE
  8
0
 10
47.781
 11
47.594
 20
285.527
 21
285.503
  0
LINE
  8
0
 10
47.594
 11
47.406
 20
285.503
 21
285.503
  0
LINE
  8
0
 10
47.406
 11
47.219
 20
285.503
 21
285.527
  0
LINE
  8
0
 10
47.219
 11
47.036
 20
285.527
 21
285.573
  0
LINE
  8
0
 10
47.036
 11
46.861
 20
285.573
 21
285.643
  0
LINE
  8
0
 10
46.861
 11
46.696
 20
285.643
 21
285.734
  0
LINE
  8
0
 10
46.696
 11
46.544
 20
285.734
 21
285.844
  0
LINE
  8
0
 10
46.544
 11
46.407
 20
285.844
 21
285.973
  0
LINE
  8
0
 10
46.407
 11
46.286
 20
285.973
 21
286.118
  0
LINE
  8
0
 10
46.286
 11
46.186
 20
286.118
 21
286.277
  0
LINE
  8
0
 10
46.186
 11
46.105
 20
286.277
 21
286.448
  0
LINE
  8
0
 10
46.105
 11
46.047
 20
286.448
 21
286.627
  0
LINE
  8
0
 10
46.047
 11
46.012
 20
286.627
 21
286.812
  0
LINE
  8
0
 10
46.012
 11
46
 20
286.812
 21
287
  0
LINE
  8
0
 10
46
 11
46.012
 20
313
 21
313.188
  0
LINE
  8
0
 10
46.012
 11
46.047
 20
313.188
 21
313.373
  0
LINE
  8
0
 10
46.047
 11
46.105
 20
313.373
 21
313.552
  0
LINE
  8
0
 10
46.105
 11
46.186
 20
313.552
 21
313.723
  0
LINE
  8
0
 10
46.186
 11
46.286
 20
313.723
 21
313.882
  0
LINE
  8
0
 10
46.286
 11
46.407
 20
313.882
 21
314.027
  0
LINE
  8
0
 10
46.407
 11
46.544
 20
314.027
 21
314.156
  0
LINE
  8
0
 10
46.544
 11
46.696
 20
314.156
 21
314.266
  0
LINE
  8
0
 10
46.696
 11
46.861
 20
314.266
 21
314.357
  0
LINE
  8
0
 10
46.861
 11
47.036
 20
314.357
 21
314.427
  0
LINE
  8
0
 10
47.036
 11
47.219
 20
314.427
 21
314.473
  0
LINE
  8
0
 10
47.219
 11
47.406
 20
314.473
 21
314.497
  0
LINE
  8
0
 10
47.406
 11
47.594
 20
314.497
 21
314.497
  0
LINE
  8
0
 10
47.594
 11
47.781
 20
314.497
 21
314.473
  0
LINE
  8
0
 10
47.781
 11
47.964
 20
314.473
 21
314.427
  0
LINE
  8
0
 10
47.964
 11
48.139
 20
314.427
 21
314.357
  0
LINE
  8
0
 10
48.139
 11
48.304
 20
314.357
 21
314.266
  0
LINE
  8
0
 10
48.304
 11
48.456
 20
314.266
 21
314.156
  0
LINE
  8
0
 10
48.456
 11
48.593
 20
314.156
 21
314.027
  0
LINE
  8
0
 10
48.593
 11
48.714
 20
314.027
 21
313.882
  0
LINE
  8
0
 10
48.714
 11
48.814
 20
313.882
 21
313.723
  0
LINE
  8
0
 10
48.814
 11
48.895
 20
313.723
 21
313.552
  0
LINE
  8
0
 10
48.895
 11
48.953
 20
313.552
 21
313.373
  0
LINE
  8
0
 10
48.953
 11
48.988
 20
313.373
 21
313.188
  0
LINE
  8
0
 10
48.988
 11
49
 20
313.188
 21
313
  0
LINE
  8
0
 10
49
 11
48.988
 20
313
 21
312.812
  0
LINE
  8
0
 10
48.988
 11
48.953
 20
312.812
 21
312.627
  0
LINE
  8
0
 10
48.953
 11
48.895
 20
312.627
 21
312.448
  0
LINE
  8
0
 10
48.895
 11
48.814
 20
312.448
 21
312.277
  0
LINE
  8
0
 10
48.814
 11
48.714
 20
312.277
 21
312.118
  0
LINE
  8
0
 10
48.714
 11
48.593
 20
312.118
 21
311.973
  0
LINE
  8
0
 10
48.593
 11
48.456
 20
311.973
 21
311.844
  0
LINE
  8
0
 10
48.456
 11
48.304
 20
311.844
 21
311.734
  0
LINE
  8
0
 10
48.304
 11
48.139
 20
311.734
 21
311.643
  0
LINE
  8
0
 10
48.139
 11
47.964
 20
311.643
 21
311.573
  0
LINE
  8
0
 10
47.964
 11
47.781
 20
311.573
 21
311.527
  0
LINE
  8
0
 10
47.781
 11
47.594
 20
311.527
 21
311.503
  0
LINE
  8
0
 10
47.594
 11
47.406
 20
311.503
 21
311.503
  0
LINE
  8
0
 10
47.406
 11
47.219
 20
311.503
 21
311.527
  0
LINE
  8
0
 10
47.219
 11
47.036
 20
311.527
 21
311.573
  0
LINE
  8
0
 10
47.036
 11
46.861
 20
311.573
 21
311.643
  0
LINE
  8
0
 10
46.861
 11
46.696
 20
311.643
 21
311.734
  0
LINE
  8
0
 10
46.696
 11
46.544
 20
311.734
 21
311.844
  0
LINE
  8
0
 10
46.544
 11
46.407
 20
311.844
 21
311.973
  0
LINE
  8
0
 10
46.407
 11
46.286
 20
311.973
 21
312.118
  0
LINE
  8
0
 10
46.286
 11
46.186
 20
312.118
 21
312.277
  0
LINE
  8
0
 10
46.186
 11
46.105
 20
312.277
 21
312.448
  0
LINE
  8
0
 10
46.105
 11
46.047
 20
312.448
 21
312.627
  0
LINE
  8
0
 10
46.047
 11
46.012
 20
312.627
 21
312.812
  0
LINE
  8
0
 10
46.012
 11
46
 20
312.812
 21
313
  0
LINE
  8
0
 10
49.5
 11
49.512
 20
76
 21
76.188
  0
LINE
  8
0
 10
49.512
 11
49.547
 20
76.188
 21
76.373
  0
LINE
  8
0
 10
49.547
 11
49.605
 20
76.373
 21
76.552
  0
LINE
  8
0
 10
49.605
 11
49.686
 20
76.552
 21
76.723
  0
LINE
  8
0
 10
49.686
 11
49.786
 20
76.723
 21
76.882
  0
LINE
  8
0
 10
49.786
 11
49.907
 20
76.882
 21
77.027
  0
LINE
  8
0
 10
49.907
 11
50.044
 20
77.027
 21
77.156
  0
LINE
  8
0
 10
50.044
 11
50.196
 20
77.156
 21
77.266
  0
LINE
  8
0
 10
50.196
 11
50.361
 20
77.266
 21
77.357
  0
LINE
  8
0
 10
50.361
 11
50.536
 20
77.357
 21
77.427
  0
LINE
  8
0
 10
50.536
 11
50.719
 20
77.427
 21
77.473
  0
LINE
  8
0
 10
50.719
 11
50.906
 20
77.473
 21
77.497
  0
LINE
  8
0
 10
50.906
 11
51.094
 20
77.497
 21
77.497
  0
LINE
  8
0
 10
51.094
 11
51.281
 20
77.497
 21
77.473
  0
LINE
  8
0
 10
51.281
 11
51.464
 20
77.473
 21
77.427
  0
LINE
  8
0
 10
51.464
 11
51.639
 20
77.427
 21
77.357
  0
LINE
  8
0
 10
51.639
 11
51.804
 20
77.357
 21
77.266
  0
LINE
  8
0
 10
51.804
 11
51.956
 20
77.266
 21
77.156
  0
LINE
  8
0
 10
51.956
 11
52.093
 20
77.156
 21
77.027
  0
LINE
  8
0
 10
52.093
 11
52.214
 20
77.027
 21
76.882
  0
LINE
  8
0
 10
52.214
 11
52.314
 20
76.882
 21
76.723
  0
LINE
  8
0
 10
52.314
 11
52.395
 20
76.723
 21
76.552
  0
LINE
  8
0
 10
52.395
 11
52.453
 20
76.552
 21
76.373
  0
LINE
  8
0
 10
52.453
 11
52.488
 20
76.373
 21
76.188
  0
LINE
  8
0
 10
52.488
 11
52.5
 20
76.188
 21
76
  0
LINE
  8
0
 10
52.5
 11
52.488
 20
76
 21
75.812
  0
LINE
  8
0
 10
52.488
 11
52.453
 20
75.812
 21
75.627
  0
LINE
  8
0
 10
52.453
 11
52.395
 20
75.627
 21
75.448
  0
LINE
  8
0
 10
52.395
 11
52.314
 20
75.448
 21
75.277
  0
LINE
  8
0
 10
52.314
 11
52.214
 20
75.277
 21
75.118
  0
LINE
  8
0
 10
52.214
 11
52.093
 20
75.118
 21
74.973
  0
LINE
  8
0
 10
52.093
 11
51.956
 20
74.973
 21
74.844
  0
LINE
  8
0
 10
51.956
 11
51.804
 20
74.844
 21
74.734
  0
LINE
  8
0
 10
51.804
 11
51.639
 20
74.734
 21
74.643
  0
LINE
  8
0
 10
51.639
 11
51.464
 20
74.643
 21
74.573
  0
LINE
  8
0
 10
51.464
 11
51.281
 20
74.573
 21
74.527
  0
LINE
  8
0
 10
51.281
 11
51.094
 20
74.527
 21
74.503
  0
LINE
  8
0
 10
51.094
 11
50.906
 20
74.503
 21
74.503
  0
LINE
  8
0
 10
50.906
 11
50.719
 20
74.503
 21
74.527
  0
LINE
  8
0
 10
50.719
 11
50.536
 20
74.527
 21
74.573
  0
LINE
  8
0
 10
50.536
 11
50.361
 20
74.573
 21
74.643
  0
LINE
  8
0
 10
50.361
 11
50.196
 20
74.643
 21
74.734
  0
LINE
  8
0
 10
50.196
 11
50.044
 20
74.734
 21
74.844
  0
LINE
  8
0
 10
50.044
 11
49.907
 20
74.844
 21
74.973
  0
LINE
  8
0
 10
49.907
 11
49.786
 20
74.973
 21
75.118
  0
LINE
  8
0
 10
49.786
 11
49.686
 20
75.118
 21
75.277
  0
LINE
  8
0
 10
49.686
 11
49.605
 20
75.277
 21
75.448
  0
LINE
  8
0
 10
49.605
 11
49.547
 20
75.448
 21
75.627
  0
LINE
  8
0
 10
49.547
 11
49.512
 20
75.627
 21
75.812
  0
LINE
  8
0
 10
49.512
 11
49.5
 20
75.812
 21
76
  0
LINE
  8
0
 10
49.503
 11
49.503
 20
28.906
 21
29.094
  0
LINE
  8
0
 10
49.503
 11
49.527
 20
29.094
 21
29.281
  0
LINE
  8
0
 10
49.527
 11
49.573
 20
29.281
 21
29.464
  0
LINE
  8
0
 10
49.573
 11
49.643
 20
29.464
 21
29.639
  0
LINE
  8
0
 10
49.643
 11
49.734
 20
29.639
 21
29.804
  0
LINE
  8
0
 10
49.734
 11
49.844
 20
29.804
 21
29.956
  0
LINE
  8
0
 10
49.844
 11
49.973
 20
29.956
 21
30.093
  0
LINE
  8
0
 10
49.973
 11
50.118
 20
30.093
 21
30.214
  0
LINE
  8
0
 10
50.118
 11
50.277
 20
30.214
 21
30.314
  0
LINE
  8
0
 10
50.277
 11
50.448
 20
30.314
 21
30.395
  0
LINE
  8
0
 10
50.448
 11
50.627
 20
30.395
 21
30.453
  0
LINE
  8
0
 10
50.627
 11
50.812
 20
30.453
 21
30.488
  0
LINE
  8
0
 10
50.812
 11
51
 20
30.488
 21
30.5
  0
LINE
  8
0
 10
51
 11
51.188
 20
30.5
 21
30.488
  0
LINE
  8
0
 10
51.188
 11
51.373
 20
30.488
 21
30.453
  0
LINE
  8
0
 10
51.373
 11
51.552
 20
30.453
 21
30.395
  0
LINE
  8
0
 10
51.552
 11
51.723
 20
30.395
 21
30.314
  0
LINE
  8
0
 10
51.723
 11
51.882
 20
30.314
 21
30.214
  0
LINE
  8
0
 10
51.882
 11
52.027
 20
30.214
 21
30.093
  0
LINE
  8
0
 10
52.027
 11
52.156
 20
30.093
 21
29.956
  0
LINE
  8
0
 10
52.156
 11
52.266
 20
29.956
 21
29.804
  0
LINE
  8
0
 10
52.266
 11
52.357
 20
29.804
 21
29.639
  0
LINE
  8
0
 10
52.357
 11
52.427
 20
29.639
 21
29.464
  0
LINE
  8
0
 10
52.427
 11
52.473
 20
29.464
 21
29.281
  0
LINE
  8
0
 10
52.473
 11
52.497
 20
29.281
 21
29.094
  0
LINE
  8
0
 10
52.497
 11
52.497
 20
29.094
 21
28.906
  0
LINE
  8
0
 10
52.497
 11
52.473
 20
28.906
 21
28.719
  0
LINE
  8
0
 10
52.473
 11
52.427
 20
28.719
 21
28.536
  0
LINE
  8
0
 10
52.427
 11
52.357
 20
28.536
 21
28.361
  0
LINE
  8
0
 10
52.357
 11
52.266
 20
28.361
 21
28.196
  0
LINE
  8
0
 10
52.266
 11
52.156
 20
28.196
 21
28.044
  0
LINE
  8
0
 10
52.156
 11
52.027
 20
28.044
 21
27.907
  0
LINE
  8
0
 10
52.027
 11
51.882
 20
27.907
 21
27.786
  0
LINE
  8
0
 10
51.882
 11
51.723
 20
27.786
 21
27.686
  0
LINE
  8
0
 10
51.723
 11
51.552
 20
27.686
 21
27.605
  0
LINE
  8
0
 10
51.552
 11
51.373
 20
27.605
 21
27.547
  0
LINE
  8
0
 10
51.373
 11
51.188
 20
27.547
 21
27.512
  0
LINE
  8
0
 10
51.188
 11
51
 20
27.512
 21
27.5
  0
LINE
  8
0
 10
51
 11
50.812
 20
27.5
 21
27.512
  0
LINE
  8
0
 10
50.812
 11
50.627
 20
27.512
 21
27.547
  0
LINE
  8
0
 10
50.627
 11
50.448
 20
27.547
 21
27.605
  0
LINE
  8
0
 10
50.448
 11
50.277
 20
27.605
 21
27.686
  0
LINE
  8
0
 10
50.277
 11
50.118
 20
27.686
 21
27.786
  0
LINE
  8
0
 10
50.118
 11
49.973
 20
27.786
 21
27.907
  0
LINE
  8
0
 10
49.973
 11
49.844
 20
27.907
 21
28.044
  0
LINE
  8
0
 10
49.844
 11
49.734
 20
28.044
 21
28.196
  0
LINE
  8
0
 10
49.734
 11
49.643
 20
28.196
 21
28.361
  0
LINE
  8
0
 10
49.643
 11
49.573
 20
28.361
 21
28.536
  0
LINE
  8
0
 10
49.573
 11
49.527
 20
28.536
 21
28.719
  0
LINE
  8
0
 10
49.527
 11
49.503
 20
28.719
 21
28.906
  0
LINE
  8
0
 10
60
 11
60
 20
25
 21
30
  0
LINE
  8
0
 10
60
 11
65
 20
30
 21
30
  0
LINE
  8
0
 10
65
 11
65
 20
30
 21
25
  0
LINE
  8
0
 10
65
 11
60
 20
25
 21
25
  0
LINE
  8
0
 10
60
 11
60
 20
400
 21
405
  0
LINE
  8
0
 10
60
 11
65
 20
405
 21
405
  0
LINE
  8
0
 10
65
 11
65
 20
405
 21
400
  0
LINE
  8
0
 10
65
 11
60
 20
400
 21
400
  0
LINE
  8
0
 10
70
 11
70
 20
25
 21
30
  0
LINE
  8
0
 10
70
 11
75
 20
30
 21
30
  0
LINE
  8
0
 10
75
 11
75
 20
30
 21
25
  0
LINE
  8
0
 10
75
 11
70
 20
25
 21
25
  0
LINE
  8
0
 10
70
 11
70
 20
400
 21
405
  0
LINE
  8
0
 10
70
 11
75
 20
405
 21
405
  0
LINE
  8
0
 10
75
 11
75
 20
405
 21
400
  0
LINE
  8
0
 10
75
 11
70
 20
400
 21
400
  0
LINE
  8
0
 10
80
 11
80
 20
25
 21
30
  0
LINE
  8
0
 10
80
 11
85
 20
30
 21
30
  0
LINE
  8
0
 10
85
 11
85
 20
30
 21
25
  0
LINE
  8
0
 10
85
 11
80
 20
25
 21
25
  0
LINE
  8
0
 10
80
 11
80
 20
400
 21
405
  0
LINE
  8
0
 10
80
 11
85
 20
405
 21
405
  0
LINE
  8
0
 10
85
 11
85
 20
405
 21
400
  0
LINE
  8
0
 10
85
 11
80
 20
400
 21
400
  0
LINE
  8
0
 10
87.5
 11
87.52
 20
15
 21
15.313
  0
LINE
  8
0
 10
87.52
 11
87.579
 20
15.313
 21
15.622
  0
LINE
  8
0
 10
87.579
 11
87.676
 20
15.622
 21
15.92
  0
LINE
  8
0
 10
87.676
 11
87.809
 20
15.92
 21
16.204
  0
LINE
  8
0
 10
87.809
 11
87.977
 20
16.204
 21
16.469
  0
LINE
  8
0
 10
87.977
 11
88.178
 20
16.469
 21
16.711
  0
LINE
  8
0
 10
88.178
 11
88.406
 20
16.711
 21
16.926
  0
LINE
  8
0
 10
88.406
 11
88.66
 20
16.926
 21
17.111
  0
LINE
  8
0
 10
88.66
 11
88.936
 20
17.111
 21
17.262
  0
LINE
  8
0
 10
88.936
 11
89.227
 20
17.262
 21
17.378
  0
LINE
  8
0
 10
89.227
 11
89.532
 20
17.378
 21
17.456
  0
LINE
  8
0
 10
89.532
 11
89.843
 20
17.456
 21
17.495
  0
LINE
  8
0
 10
89.843
 11
90.157
 20
17.495
 21
17.495
  0
LINE
  8
0
 10
90.157
 11
90.468
 20
17.495
 21
17.456
  0
LINE
  8
0
 10
90.468
 11
90.773
 20
17.456
 21
17.378
  0
LINE
  8
0
 10
90.773
 11
91.064
 20
17.378
 21
17.262
  0
LINE
  8
0
 10
91.064
 11
91.34
 20
17.262
 21
17.111
  0
LINE
  8
0
 10
91.34
 11
91.594
 20
17.111
 21
16.926
  0
LINE
  8
0
 10
91.594
 11
91.822
 20
16.926
 21
16.711
  0
LINE
  8
0
 10
91.822
 11
92.023
 20
16.711
 21
16.469
  0
LINE
  8
0
 10
92.023
 11
92.191
 20
16.469
 21
16.204
  0
LINE
  8
0
 10
92.191
 11
92.324
 20
16.204
 21
15.92
  0
LINE
  8
0
 10
92.324
 11
92.421
 20
15.92
 21
15.622
  0
LINE
  8
0
 10
92.421
 11
92.48
 20
15.622
 21
15.313
  0
LINE
  8
0
 10
92.48
 11
92.5
 20
15.313
 21
15
  0
LINE
  8
0
 10
92.5
 11
92.48
 20
15
 21
14.687
  0
LINE
  8
0
 10
92.48
 11
92.421
 20
14.687
 21
14.378
  0
LINE
  8
0
 10
92.421
 11
92.324
 20
14.378
 21
14.08
  0
LINE
  8
0
 10
92.324
 11
92.191
 20
14.08
 21
13.796
  0
LINE
  8
0
 10
92.191
 11
92.023
 20
13.796
 21
13.531
  0
LINE
  8
0
 10
92.023
 11
91.822
 20
13.531
 21
13.289
  0
LINE
  8
0
 10
91.822
 11
91.594
 20
13.289
 21
13.074
  0
LINE
  8
0
 10
91.594
 11
91.34
 20
13.074
 21
12.889
  0
LINE
  8
0
 10
91.34
 11
91.064
 20
12.889
 21
12.738
  0
LINE
  8
0
 10
91.064
 11
90.773
 20
12.738
 21
12.622
  0
LINE
  8
0
 10
90.773
 11
90.468
 20
12.622
 21
12.544
  0
LINE
  8
0
 10
90.468
 11
90.157
 20
12.544
 21
12.505
  0
LINE
  8
0
 10
90.157
 11
89.843
 20
12.505
 21
12.505
  0
LINE
  8
0
 10
89.843
 11
89.532
 20
12.505
 21
12.544
  0
LINE
  8
0
 10
89.532
 11
89.227
 20
12.544
 21
12.622
  0
LINE
  8
0
 10
89.227
 11
88.936
 20
12.622
 21
12.738
  0
LINE
  8
0
 10
88.936
 11
88.66
 20
12.738
 21
12.889
  0
LINE
  8
0
 10
88.66
 11
88.406
 20
12.889
 21
13.074
  0
LINE
  8
0
 10
88.406
 11
88.178
 20
13.074
 21
13.289
  0
LINE
  8
0
 10
88.178
 11
87.977
 20
13.289
 21
13.531
  0
LINE
  8
0
 10
87.977
 11
87.809
 20
13.531
 21
13.796
  0
LINE
  8
0
 10
87.809
 11
87.676
 20
13.796
 21
14.08
  0
LINE
  8
0
 10
87.676
 11
87.579
 20
14.08
 21
14.378
  0
LINE
  8
0
 10
87.579
 11
87.52
 20
14.378
 21
14.687
  0
LINE
  8
0
 10
87.52
 11
87.5
 20
14.687
 21
15
  0
LINE
  8
0
 10
87.5
 11
87.52
 20
415
 21
415.313
  0
LINE
  8
0
 10
87.52
 11
87.579
 20
415.313
 21
415.622
  0
LINE
  8
0
 10
87.579
 11
87.676
 20
415.622
 21
415.92
  0
LINE
  8
0
 10
87.676
 11
87.809
 20
415.92
 21
416.204
  0
LINE
  8
0
 10
87.809
 11
87.977
 20
416.204
 21
416.469
  0
LINE
  8
0
 10
87.977
 11
88.178
 20
416.469
 21
416.711
  0
LINE
  8
0
 10
88.178
 11
88.406
 20
416.711
 21
416.926
  0
LINE
  8
0
 10
88.406
 11
88.66
 20
416.926
 21
417.111
  0
LINE
  8
0
 10
88.66
 11
88.936
 20
417.111
 21
417.262
  0
LINE
  8
0
 10
88.936
 11
89.227
 20
417.262
 21
417.378
  0
LINE
  8
0
 10
89.227
 11
89.532
 20
417.378
 21
417.456
  0
LINE
  8
0
 10
89.532
 11
89.843
 20
417.456
 21
417.495
  0
LINE
  8
0
 10
89.843
 11
90.157
 20
417.495
 21
417.495
  0
LINE
  8
0
 10
90.157
 11
90.468
 20
417.495
 21
417.456
  0
LINE
  8
0
 10
90.468
 11
90.773
 20
417.456
 21
417.378
  0
LINE
  8
0
 10
90.773
 11
91.064
 20
417.378
 21
417.262
  0
LINE
  8
0
 10
91.064
 11
91.34
 20
417.262
 21
417.111
  0
LINE
  8
0
 10
91.34
 11
91.594
 20
417.111
 21
416.926
  0
LINE
  8
0
 10
91.594
 11
91.822
 20
416.926
 21
416.711
  0
LINE
  8
0
 10
91.822
 11
92.023
 20
416.711
 21
416.469
  0
LINE
  8
0
 10
92.023
 11
92.191
 20
416.469
 21
416.204
  0
LINE
  8
0
 10
92.191
 11
92.324
 20
416.204
 21
415.92
  0
LINE
  8
0
 10
92.324
 11
92.421
 20
415.92
 21
415.622
  0
LINE
  8
0
 10
92.421
 11
92.48
 20
415.622
 21
415.313
  0
LINE
  8
0
 10
92.48
 11
92.5
 20
415.313
 21
415
  0
LINE
  8
0
 10
92.5
 11
92.48
 20
415
 21
414.687
  0
LINE
  8
0
 10
92.48
 11
92.421
 20
414.687
 21
414.378
  0
LINE
  8
0
 10
92.421
 11
92.324
 20
414.378
 21
414.08
  0
LINE
  8
0
 10
92.324
 11
92.191
 20
414.08
 21
413.796
  0
LINE
  8
0
 10
92.191
 11
92.023
 20
413.796
 21
413.531
  0
LINE
  8
0
 10
92.023
 11
91.822
 20
413.531
 21
413.289
  0
LINE
  8
0
 10
91.822
 11
91.594
 20
413.289
 21
413.074
  0
LINE
  8
0
 10
91.594
 11
91.34
 20
413.074
 21
412.889
  0
LINE
  8
0
 10
91.34
 11
91.064
 20
412.889
 21
412.738
  0
LINE
  8
0
 10
91.064
 11
90.773
 20
412.738
 21
412.622
  0
LINE
  8
0
 10
90.773
 11
90.468
 20
412.622
 21
412.544
  0
LINE
  8
0
 10
90.468
 11
90.157
 20
412.544
 21
412.505
  0
LINE
  8
0
 10
90.157
 11
89.843
 20
412.505
 21
412.505
  0
LINE
  8
0
 10
89.843
 11
89.532
 20
412.505
 21
412.544
  0
LINE
  8
0
 10
89.532
 11
89.227
 20
412.544
 21
412.622
  0
LINE
  8
0
 10
89.227
 11
88.936
 20
412.622
 21
412.738
  0
LINE
  8
0
 10
88.936
 11
88.66
 20
412.738
 21
412.889
  0
LINE
  8
0
 10
88.66
 11
88.406
 20
412.889
 21
413.074
  0
LINE
  8
0
 10
88.406
 11
88.178
 20
413.074
 21
413.289
  0
LINE
  8
0
 10
88.178
 11
87.977
 20
413.289
 21
413.531
  0
LINE
  8
0
 10
87.977
 11
87.809
 20
413.531
 21
413.796
  0
LINE
  8
0
 10
87.809
 11
87.676
 20
413.796
 21
414.08
  0
LINE
  8
0
 10
87.676
 11
87.579
 20
414.08
 21
414.378
  0
LINE
  8
0
 10
87.579
 11
87.52
 20
414.378
 21
414.687
  0
LINE
  8
0
 10
87.52
 11
87.5
 20
414.687
 21
415
  0
LINE
  8
0
 10
90
 11
90
 20
25
 21
30
  0
LINE
  8
0
 10
90
 11
95
 20
30
 21
30
  0
LINE
  8
0
 10
95
 11
95
 20
30
 21
25
  0
LINE
  8
0
 10
95
 11
90
 20
25
 21
25
  0
LINE
  8
0
 10
90
 11
90
 20
400
 21
405
  0
LINE
  8
0
 10
90
 11
95
 20
405
 21
405
  0
LINE
  8
0
 10
95
 11
95
 20
405
 21
400
  0
LINE
  8
0
 10
95
 11
90
 20
400
 21
400
  0
LINE
  8
0
 10
100
 11
100
 20
25
 21
30
  0
LINE
  8
0
 10
100
 11
105
 20
30
 21
30
  0
LINE
  8
0
 10
105
 11
105
 20
30
 21
25
  0
LINE
  8
0
 10
105
 11
100
 20
25
 21
25
  0
LINE
  8
0
 10
100
 11
100
 20
400
 21
405
  0
LINE
  8
0
 10
100
 11
105
 20
405
 21
405
  0
LINE
  8
0
 10
105
 11
105
 20
405
 21
400
  0
LINE
  8
0
 10
105
 11
100
 20
400
 21
400
  0
ENDSEC
  0
SECTION
  2
OBJECTS
  0
DICTIONARY
  0
ENDSEC
  0
EOF
