  0
SECTION
  2
HEADER
  9
$ACADVER
  1
AC1014
  9
$HANDSEED
  5
FFFF
  9
$MEASUREMENT
 70
     1
  0
ENDSEC
  0
SECTION
  2
TABLES
  0
TABLE
  2
VPORT
  5
8
330
0
100
AcDbSymbolTable
 70
     4
  0
VPORT
  5
2E
330
8
100
AcDbSymbolTableRecord
100
AcDbViewportTableRecord
  2
*ACTIVE
 70
     0
 10
0.0
 20
0.0
 11
1.0
 21
1.0
 12
210.0
 22
148.5
 13
0.0
 23
0.0
 14
10.0
 24
10.0
 15
10.0
 25
10.0
 16
0.0
 26
0.0
 36
1.0
 17
0.0
 27
0.0
 37
0.0
 40
341.0
 41
1.24
 42
50.0
 43
0.0
 44
0.0
 50
0.0
 51
0.0
 71
     0
 72
   100
 73
     1
 74
     3
 75
     0
 76
     0
 77
     0
 78
     0
  0
ENDTAB
  0
TABLE
  2
LTYPE
  5
5
330
0
100
AcDbSymbolTable
 70
     1
  0
LTYPE
  5
14
330
5
100
AcDbSymbolTableRecord
100
AcDbLinetypeTableRecord
  2
BYBLOCK
 70
     0
  3

 72
    65
 73
     0
 40
0.0
  0
LTYPE
  5
15
330
5
100
AcDbSymbolTableRecord
100
AcDbLinetypeTableRecord
  2
BYLAYER
 70
     0
  3

 72
    65
 73
     0
 40
0.0
  0
LTYPE
  5
16
330
5
100
AcDbSymbolTableRecord
100
AcDbLinetypeTableRecord
  2
CONTINUOUS
 70
     0
  3
Solid line
 72
    65
 73
     0
 40
0.0
  0
ENDTAB
  0
TABLE
  2
LAYER
  5
2
100
AcDbSymbolTable
 70
2
  0
LAYER
  5
50
100
AcDbSymbolTableRecord
100
AcDbLayerTableRecord
  2
0
 70
0
  6
CONTINUOUS
  0
LAYER
  5
51
100
AcDbSymbolTableRecord
100
AcDbLayerTableRecord
  2
Ebene_1
 70
0
  6
CONTINUOUS
  0
ENDTAB
  0
TABLE
  2
STYLE
  5
3
330
0
100
AcDbSymbolTable
 70
     1
  0
STYLE
  5
11
330
3
100
AcDbSymbolTableRecord
100
AcDbTextStyleTableRecord
  2
STANDARD
 70
     0
 40
0.0
 41
1.0
 50
0.0
 71
     0
 42
2.5
  3
txt
  4

  0
ENDTAB
  0
TABLE
  2
VIEW
  5
6
330
0
100
AcDbSymbolTable
 70
     0
  0
ENDTAB
  0
TABLE
  2
UCS
  5
7
330
0
100
AcDbSymbolTable
 70
     0
  0
ENDTAB
  0
TABLE
  2
APPID
  5
9
330
0
100
AcDbSymbolTable
 70
     2
  0
APPID
  5
12
330
9
100
AcDbSymbolTableRecord
100
AcDbRegAppTableRecord
  2
ACAD
 70
     0
  0
ENDTAB
  0
TABLE
  2
DIMSTYLE
  5
A
330
0
100
AcDbSymbolTable
 70
     1
  0
DIMSTYLE
105
27
330
A
100
AcDbSymbolTableRecord
100
AcDbDimStyleTableRecord
  2
ISO-25
 70
     0
  3

  4

  5

  6

  7

 40
1.0
 41
2.5
 42
0.625
 43
3.75
 44
1.25
 45
0.0
 46
0.0
 47
0.0
 48
0.0
140
2.5
141
2.5
142
0.0
143
0.03937007874016
144
1.0
145
0.0
146
1.0
147
0.625
 71
     0
 72
     0
 73
     0
 74
     0
 75
     0
 76
     0
 77
     1
 78
     8
170
     0
171
     3
172
     1
173
     0
174
     0
175
     0
176
     0
177
     0
178
     0
270
     2
271
     2
272
     2
273
     2
274
     3
340
11
275
     0
280
     0
281
     0
282
     0
283
     0
284
     8
285
     0
286
     0
287
     3
288
     0
  0
ENDTAB
  0
TABLE
  2
BLOCK_RECORD
  5
1
330
0
100
AcDbSymbolTable
 70
     1
  0
BLOCK_RECORD
  5
1F
330
1
100
AcDbSymbolTableRecord
100
AcDbBlockTableRecord
  2
*MODEL_SPACE
  0
BLOCK_RECORD
  5
1B
330
1
100
AcDbSymbolTableRecord
100
AcDbBlockTableRecord
  2
*PAPER_SPACE
  0
ENDTAB
  0
ENDSEC
  0
SECTION
  2
BLOCKS
  0
BLOCK
  5
20
330
1F
100
AcDbEntity
  8
0
100
AcDbBlockBegin
  2
*MODEL_SPACE
 70
     0
 10
0.0
 20
0.0
 30
0.0
  3
*MODEL_SPACE
  1

  0
ENDBLK
  5
21
330
1F
100
AcDbEntity
  8
0
100
AcDbBlockEnd
  0
BLOCK
  5
1C
330
1B
100
AcDbEntity
 67
     1
  8
0
100
AcDbBlockBegin
  2
*PAPER_SPACE
  1

  0
ENDBLK
  5
1D
330
1B
100
AcDbEntity
 67
     1
  8
0
100
AcDbBlockEnd
  0
ENDSEC
  0
SECTION
  2
ENTITIES
  0
LWPOLYLINE
  5
100
100
AcDbEntity
  8
Ebene_1
 62
7
100
AcDbPolyline
 90
61
 70
0
 10
0.141111
 20
2.641098
 30
0.0
 10
0.141111
 20
7.641116
 30
0.0
 10
5.141110
 20
7.641116
 30
0.0
 10
5.141110
 20
10.141097
 30
0.0
 10
0.141111
 20
10.141097
 30
0.0
 10
0.141111
 20
15.141115
 30
0.0
 10
5.141110
 20
15.141115
 30
0.0
 10
5.141110
 20
17.641096
 30
0.0
 10
0.141111
 20
17.641096
 30
0.0
 10
0.141111
 20
22.641115
 30
0.0
 10
5.141110
 20
22.641115
 30
0.0
 10
5.141110
 20
27.741104
 30
0.0
 10
7.816110
 20
27.741104
 30
0.0
 10
7.816110
 20
26.491105
 30
0.0
 10
9.466110
 20
26.491105
 30
0.0
 10
9.466110
 20
27.741104
 30
0.0
 10
11.641110
 20
27.741104
 30
0.0
 10
11.641110
 20
30.541104
 30
0.0
 10
9.466110
 20
30.541104
 30
0.0
 10
9.466110
 20
31.791106
 30
0.0
 10
7.816110
 20
31.791106
 30
0.0
 10
7.816110
 20
30.541104
 30
0.0
 10
5.141110
 20
30.541104
 30
0.0
 10
5.141110
 20
50.141105
 30
0.0
 10
19.141110
 20
50.141105
 30
0.0
 10
19.141110
 20
45.141106
 30
0.0
 10
24.141110
 20
45.141106
 30
0.0
 10
24.141110
 20
50.141105
 30
0.0
 10
39.141110
 20
50.141105
 30
0.0
 10
39.141110
 20
45.141106
 30
0.0
 10
44.141110
 20
45.141106
 30
0.0
 10
44.141110
 20
50.141105
 30
0.0
 10
58.141110
 20
50.141105
 30
0.0
 10
58.141110
 20
30.541104
 30
0.0
 10
55.466110
 20
30.541104
 30
0.0
 10
55.466110
 20
31.791106
 30
0.0
 10
53.816110
 20
31.791106
 30
0.0
 10
53.816110
 20
30.541104
 30
0.0
 10
51.641110
 20
30.541104
 30
0.0
 10
51.641110
 20
27.741104
 30
0.0
 10
53.816110
 20
27.741104
 30
0.0
 10
53.816110
 20
26.491105
 30
0.0
 10
55.466110
 20
26.491105
 30
0.0
 10
55.466110
 20
27.741104
 30
0.0
 10
58.141110
 20
27.741104
 30
0.0
 10
58.141110
 20
22.641115
 30
0.0
 10
63.141109
 20
22.641115
 30
0.0
 10
63.141109
 20
17.641096
 30
0.0
 10
58.141110
 20
17.641096
 30
0.0
 10
58.141110
 20
15.141115
 30
0.0
 10
63.141109
 20
15.141115
 30
0.0
 10
63.141109
 20
10.141097
 30
0.0
 10
58.141110
 20
10.141097
 30
0.0
 10
58.141110
 20
7.641116
 30
0.0
 10
63.141109
 20
7.641116
 30
0.0
 10
63.141109
 20
2.641098
 30
0.0
 10
58.141110
 20
2.641098
 30
0.0
 10
58.141110
 20
0.141117
 30
0.0
 10
5.141110
 20
0.141117
 30
0.0
 10
5.141110
 20
2.641098
 30
0.0
 10
0.141111
 20
2.641098
 30
0.0
  0
LWPOLYLINE
  5
101
100
AcDbEntity
  8
Ebene_1
 62
7
100
AcDbPolyline
 90
51
 70
0
 10
6.291110
 20
47.641104
 30
0.0
 10
6.302111
 20
47.810104
 30
0.0
 10
6.333110
 20
47.977104
 30
0.0
 10
6.386110
 20
48.138106
 30
0.0
 10
6.458110
 20
48.291104
 30
0.0
 10
6.549110
 20
48.435105
 30
0.0
 10
6.657110
 20
48.565105
 30
0.0
 10
6.780110
 20
48.681104
 30
0.0
 10
6.918110
 20
48.781104
 30
0.0
 10
7.066110
 20
48.863107
 30
0.0
 10
7.224110
 20
48.925105
 30
0.0
 10
7.388110
 20
48.967105
 30
0.0
 10
7.556110
 20
48.988103
 30
0.0
 10
7.726110
 20
48.988106
 30
0.0
 10
7.894110
 20
48.967108
 30
0.0
 10
8.058110
 20
48.925105
 30
0.0
 10
8.216110
 20
48.863107
 30
0.0
 10
8.364110
 20
48.781104
 30
0.0
 10
8.502110
 20
48.681104
 30
0.0
 10
8.625110
 20
48.565105
 30
0.0
 10
8.733110
 20
48.435105
 30
0.0
 10
8.824110
 20
48.291104
 30
0.0
 10
8.896110
 20
48.138106
 30
0.0
 10
8.949110
 20
47.977104
 30
0.0
 10
8.980110
 20
47.810104
 30
0.0
 10
8.991111
 20
47.641104
 30
0.0
 10
8.980109
 20
47.472104
 30
0.0
 10
8.949110
 20
47.305104
 30
0.0
 10
8.896110
 20
47.144105
 30
0.0
 10
8.824110
 20
46.991104
 30
0.0
 10
8.733110
 20
46.847106
 30
0.0
 10
8.625110
 20
46.717106
 30
0.0
 10
8.502110
 20
46.601104
 30
0.0
 10
8.364110
 20
46.501104
 30
0.0
 10
8.216110
 20
46.419104
 30
0.0
 10
8.058110
 20
46.357106
 30
0.0
 10
7.894110
 20
46.315106
 30
0.0
 10
7.726110
 20
46.294108
 30
0.0
 10
7.556110
 20
46.294105
 30
0.0
 10
7.388110
 20
46.315103
 30
0.0
 10
7.224110
 20
46.357106
 30
0.0
 10
7.066110
 20
46.419104
 30
0.0
 10
6.918110
 20
46.501104
 30
0.0
 10
6.780110
 20
46.601104
 30
0.0
 10
6.657110
 20
46.717106
 30
0.0
 10
6.549110
 20
46.847106
 30
0.0
 10
6.458110
 20
46.991104
 30
0.0
 10
6.386110
 20
47.144105
 30
0.0
 10
6.333110
 20
47.305104
 30
0.0
 10
6.302110
 20
47.472104
 30
0.0
 10
6.291109
 20
47.641104
 30
0.0
  0
LWPOLYLINE
  5
102
100
AcDbEntity
  8
Ebene_1
 62
7
100
AcDbPolyline
 90
5
 70
0
 10
9.141110
 20
2.641098
 30
0.0
 10
9.141110
 20
7.641116
 30
0.0
 10
14.141110
 20
7.641116
 30
0.0
 10
14.141110
 20
2.641098
 30
0.0
 10
9.141110
 20
2.641098
 30
0.0
  0
LWPOLYLINE
  5
103
100
AcDbEntity
  8
Ebene_1
 62
7
100
AcDbPolyline
 90
5
 70
0
 10
9.141110
 20
10.141097
 30
0.0
 10
9.141110
 20
15.141115
 30
0.0
 10
14.141110
 20
15.141115
 30
0.0
 10
14.141110
 20
10.141097
 30
0.0
 10
9.141110
 20
10.141097
 30
0.0
  0
LWPOLYLINE
  5
104
100
AcDbEntity
  8
Ebene_1
 62
7
100
AcDbPolyline
 90
5
 70
0
 10
9.141110
 20
17.641096
 30
0.0
 10
9.141110
 20
22.641115
 30
0.0
 10
14.141110
 20
22.641115
 30
0.0
 10
14.141110
 20
17.641096
 30
0.0
 10
9.141110
 20
17.641096
 30
0.0
  0
LWPOLYLINE
  5
105
100
AcDbEntity
  8
Ebene_1
 62
7
100
AcDbPolyline
 90
51
 70
0
 10
15.641110
 20
3.641096
 30
0.0
 10
15.653110
 20
3.829113
 30
0.0
 10
15.688110
 20
4.014109
 30
0.0
 10
15.746110
 20
4.193095
 30
0.0
 10
15.827110
 20
4.364093
 30
0.0
 10
15.927110
 20
4.523097
 30
0.0
 10
16.048110
 20
4.668103
 30
0.0
 10
16.185110
 20
4.797107
 30
0.0
 10
16.337110
 20
4.907117
 30
0.0
 10
16.502110
 20
4.998105
 30
0.0
 10
16.677110
 20
5.068096
 30
0.0
 10
16.860110
 20
5.114099
 30
0.0
 10
17.047110
 20
5.138087
 30
0.0
 10
17.235110
 20
5.138116
 30
0.0
 10
17.422110
 20
5.114127
 30
0.0
 10
17.605110
 20
5.068096
 30
0.0
 10
17.780110
 20
4.998105
 30
0.0
 10
17.945110
 20
4.907117
 30
0.0
 10
18.097110
 20
4.797107
 30
0.0
 10
18.234110
 20
4.668103
 30
0.0
 10
18.355110
 20
4.523097
 30
0.0
 10
18.455110
 20
4.364093
 30
0.0
 10
18.536110
 20
4.193095
 30
0.0
 10
18.594110
 20
4.014109
 30
0.0
 10
18.629110
 20
3.829113
 30
0.0
 10
18.641110
 20
3.641096
 30
0.0
 10
18.629110
 20
3.453108
 30
0.0
 10
18.594110
 20
3.268111
 30
0.0
 10
18.536110
 20
3.089098
 30
0.0
 10
18.455110
 20
2.918099
 30
0.0
 10
18.355110
 20
2.759095
 30
0.0
 10
18.234110
 20
2.614118
 30
0.0
 10
18.097110
 20
2.485114
 30
0.0
 10
17.945110
 20
2.375104
 30
0.0
 10
17.780110
 20
2.284115
 30
0.0
 10
17.605110
 20
2.214096
 30
0.0
 10
17.422110
 20
2.168094
 30
0.0
 10
17.235110
 20
2.144105
 30
0.0
 10
17.047110
 20
2.144105
 30
0.0
 10
16.860110
 20
2.168094
 30
0.0
 10
16.677110
 20
2.214096
 30
0.0
 10
16.502110
 20
2.284115
 30
0.0
 10
16.337110
 20
2.375104
 30
0.0
 10
16.185110
 20
2.485114
 30
0.0
 10
16.048110
 20
2.614118
 30
0.0
 10
15.927110
 20
2.759095
 30
0.0
 10
15.827110
 20
2.918099
 30
0.0
 10
15.746110
 20
3.089098
 30
0.0
 10
15.688110
 20
3.268111
 30
0.0
 10
15.653110
 20
3.453108
 30
0.0
 10
15.641110
 20
3.641096
 30
0.0
  0
LWPOLYLINE
  5
106
100
AcDbEntity
  8
Ebene_1
 62
7
100
AcDbPolyline
 90
51
 70
0
 10
15.641110
 20
21.641117
 30
0.0
 10
15.653110
 20
21.829105
 30
0.0
 10
15.688110
 20
22.014101
 30
0.0
 10
15.746110
 20
22.193115
 30
0.0
 10
15.827110
 20
22.364113
 30
0.0
 10
15.927110
 20
22.523117
 30
0.0
 10
16.048110
 20
22.668095
 30
0.0
 10
16.185110
 20
22.797099
 30
0.0
 10
16.337110
 20
22.907109
 30
0.0
 10
16.502110
 20
22.998097
 30
0.0
 10
16.677110
 20
23.068117
 30
0.0
 10
16.860110
 20
23.114119
 30
0.0
 10
17.047110
 20
23.138108
 30
0.0
 10
17.235110
 20
23.138108
 30
0.0
 10
17.422110
 20
23.114119
 30
0.0
 10
17.605110
 20
23.068117
 30
0.0
 10
17.780110
 20
22.998097
 30
0.0
 10
17.945110
 20
22.907109
 30
0.0
 10
18.097110
 20
22.797099
 30
0.0
 10
18.234110
 20
22.668095
 30
0.0
 10
18.355110
 20
22.523117
 30
0.0
 10
18.455110
 20
22.364113
 30
0.0
 10
18.536110
 20
22.193115
 30
0.0
 10
18.594110
 20
22.014101
 30
0.0
 10
18.629110
 20
21.829105
 30
0.0
 10
18.641110
 20
21.641117
 30
0.0
 10
18.629110
 20
21.453100
 30
0.0
 10
18.594110
 20
21.268103
 30
0.0
 10
18.536110
 20
21.089118
 30
0.0
 10
18.455110
 20
20.918091
 30
0.0
 10
18.355110
 20
20.759116
 30
0.0
 10
18.234110
 20
20.614110
 30
0.0
 10
18.097110
 20
20.485106
 30
0.0
 10
17.945110
 20
20.375096
 30
0.0
 10
17.780110
 20
20.284107
 30
0.0
 10
17.605110
 20
20.214116
 30
0.0
 10
17.422110
 20
20.168114
 30
0.0
 10
17.235110
 20
20.144125
 30
0.0
 10
17.047110
 20
20.144097
 30
0.0
 10
16.860110
 20
20.168086
 30
0.0
 10
16.677110
 20
20.214116
 30
0.0
 10
16.502110
 20
20.284107
 30
0.0
 10
16.337110
 20
20.375096
 30
0.0
 10
16.185110
 20
20.485106
 30
0.0
 10
16.048110
 20
20.614110
 30
0.0
 10
15.927110
 20
20.759116
 30
0.0
 10
15.827110
 20
20.918091
 30
0.0
 10
15.746110
 20
21.089118
 30
0.0
 10
15.688110
 20
21.268103
 30
0.0
 10
15.653110
 20
21.453100
 30
0.0
 10
15.641110
 20
21.641117
 30
0.0
  0
LWPOLYLINE
  5
107
100
AcDbEntity
  8
Ebene_1
 62
7
100
AcDbPolyline
 90
5
 70
0
 10
19.141110
 20
35.141107
 30
0.0
 10
19.141110
 20
40.141105
 30
0.0
 10
24.141110
 20
40.141105
 30
0.0
 10
24.141110
 20
35.141107
 30
0.0
 10
19.141110
 20
35.141107
 30
0.0
  0
LWPOLYLINE
  5
108
100
AcDbEntity
  8
Ebene_1
 62
7
100
AcDbPolyline
 90
5
 70
0
 10
20.141110
 20
2.641098
 30
0.0
 10
20.141110
 20
7.641116
 30
0.0
 10
25.141110
 20
7.641116
 30
0.0
 10
25.141110
 20
2.641098
 30
0.0
 10
20.141110
 20
2.641098
 30
0.0
  0
LWPOLYLINE
  5
109
100
AcDbEntity
  8
Ebene_1
 62
7
100
AcDbPolyline
 90
5
 70
0
 10
20.141110
 20
10.141097
 30
0.0
 10
20.141110
 20
15.141115
 30
0.0
 10
25.141110
 20
15.141115
 30
0.0
 10
25.141110
 20
10.141097
 30
0.0
 10
20.141110
 20
10.141097
 30
0.0
  0
LWPOLYLINE
  5
10a
100
AcDbEntity
  8
Ebene_1
 62
7
100
AcDbPolyline
 90
5
 70
0
 10
20.141110
 20
17.641096
 30
0.0
 10
20.141110
 20
22.641115
 30
0.0
 10
25.141110
 20
22.641115
 30
0.0
 10
25.141110
 20
17.641096
 30
0.0
 10
20.141110
 20
17.641096
 30
0.0
  0
LWPOLYLINE
  5
10b
100
AcDbEntity
  8
Ebene_1
 62
7
100
AcDbPolyline
 90
51
 70
0
 10
27.641110
 20
42.641106
 30
0.0
 10
27.673110
 20
43.142107
 30
0.0
 10
27.767110
 20
43.636105
 30
0.0
 10
27.922110
 20
44.113106
 30
0.0
 10
28.136110
 20
44.568105
 30
0.0
 10
28.405110
 20
44.992104
 30
0.0
 10
28.725110
 20
45.379104
 30
0.0
 10
29.091110
 20
45.723105
 30
0.0
 10
29.498110
 20
46.018106
 30
0.0
 10
29.938110
 20
46.260106
 30
0.0
 10
30.405110
 20
46.445106
 30
0.0
 10
30.891110
 20
46.570105
 30
0.0
 10
31.390110
 20
46.633105
 30
0.0
 10
31.892110
 20
46.633105
 30
0.0
 10
32.391110
 20
46.570105
 30
0.0
 10
32.877110
 20
46.445106
 30
0.0
 10
33.344110
 20
46.260106
 30
0.0
 10
33.784110
 20
46.018106
 30
0.0
 10
34.191110
 20
45.723105
 30
0.0
 10
34.557110
 20
45.379104
 30
0.0
 10
34.877110
 20
44.992104
 30
0.0
 10
35.146110
 20
44.568105
 30
0.0
 10
35.360110
 20
44.113106
 30
0.0
 10
35.515110
 20
43.636105
 30
0.0
 10
35.609110
 20
43.142107
 30
0.0
 10
35.641110
 20
42.641106
 30
0.0
 10
35.609110
 20
42.140105
 30
0.0
 10
35.515110
 20
41.646106
 30
0.0
 10
35.360110
 20
41.169105
 30
0.0
 10
35.146110
 20
40.714106
 30
0.0
 10
34.877110
 20
40.290104
 30
0.0
 10
34.557110
 20
39.903104
 30
0.0
 10
34.191110
 20
39.559103
 30
0.0
 10
33.784110
 20
39.264105
 30
0.0
 10
33.344110
 20
39.022105
 30
0.0
 10
32.877110
 20
38.837106
 30
0.0
 10
32.391110
 20
38.712104
 30
0.0
 10
31.892110
 20
38.649106
 30
0.0
 10
31.390110
 20
38.649106
 30
0.0
 10
30.891110
 20
38.712104
 30
0.0
 10
30.405110
 20
38.837106
 30
0.0
 10
29.938110
 20
39.022105
 30
0.0
 10
29.498110
 20
39.264105
 30
0.0
 10
29.091110
 20
39.559103
 30
0.0
 10
28.725110
 20
39.903104
 30
0.0
 10
28.405110
 20
40.290104
 30
0.0
 10
28.136110
 20
40.714106
 30
0.0
 10
27.922110
 20
41.169105
 30
0.0
 10
27.767110
 20
41.646106
 30
0.0
 10
27.673110
 20
42.140105
 30
0.0
 10
27.641110
 20
42.641106
 30
0.0
  0
LWPOLYLINE
  5
10c
100
AcDbEntity
  8
Ebene_1
 62
7
100
AcDbPolyline
 90
5
 70
0
 10
29.141110
 20
2.641098
 30
0.0
 10
29.141110
 20
7.641116
 30
0.0
 10
34.141110
 20
7.641116
 30
0.0
 10
34.141110
 20
2.641098
 30
0.0
 10
29.141110
 20
2.641098
 30
0.0
  0
LWPOLYLINE
  5
10d
100
AcDbEntity
  8
Ebene_1
 62
7
100
AcDbPolyline
 90
5
 70
0
 10
29.141110
 20
10.141097
 30
0.0
 10
29.141110
 20
15.141115
 30
0.0
 10
34.141110
 20
15.141115
 30
0.0
 10
34.141110
 20
10.141097
 30
0.0
 10
29.141110
 20
10.141097
 30
0.0
  0
LWPOLYLINE
  5
10e
100
AcDbEntity
  8
Ebene_1
 62
7
100
AcDbPolyline
 90
5
 70
0
 10
29.141110
 20
17.641096
 30
0.0
 10
29.141110
 20
22.641115
 30
0.0
 10
34.141110
 20
22.641115
 30
0.0
 10
34.141110
 20
17.641096
 30
0.0
 10
29.141110
 20
17.641096
 30
0.0
  0
LWPOLYLINE
  5
10f
100
AcDbEntity
  8
Ebene_1
 62
7
100
AcDbPolyline
 90
5
 70
0
 10
38.141110
 20
2.641098
 30
0.0
 10
38.141110
 20
7.641116
 30
0.0
 10
43.141110
 20
7.641116
 30
0.0
 10
43.141110
 20
2.641098
 30
0.0
 10
38.141110
 20
2.641098
 30
0.0
  0
LWPOLYLINE
  5
110
100
AcDbEntity
  8
Ebene_1
 62
7
100
AcDbPolyline
 90
5
 70
0
 10
38.141110
 20
10.141097
 30
0.0
 10
38.141110
 20
15.141115
 30
0.0
 10
43.141110
 20
15.141115
 30
0.0
 10
43.141110
 20
10.141097
 30
0.0
 10
38.141110
 20
10.141097
 30
0.0
  0
LWPOLYLINE
  5
111
100
AcDbEntity
  8
Ebene_1
 62
7
100
AcDbPolyline
 90
5
 70
0
 10
38.141110
 20
17.641096
 30
0.0
 10
38.141110
 20
22.641115
 30
0.0
 10
43.141110
 20
22.641115
 30
0.0
 10
43.141110
 20
17.641096
 30
0.0
 10
38.141110
 20
17.641096
 30
0.0
  0
LWPOLYLINE
  5
112
100
AcDbEntity
  8
Ebene_1
 62
7
100
AcDbPolyline
 90
5
 70
0
 10
39.141110
 20
35.141107
 30
0.0
 10
39.141110
 20
40.141105
 30
0.0
 10
44.141110
 20
40.141105
 30
0.0
 10
44.141110
 20
35.141107
 30
0.0
 10
39.141110
 20
35.141107
 30
0.0
  0
LWPOLYLINE
  5
113
100
AcDbEntity
  8
Ebene_1
 62
7
100
AcDbPolyline
 90
51
 70
0
 10
44.641110
 20
3.641096
 30
0.0
 10
44.653110
 20
3.829113
 30
0.0
 10
44.688110
 20
4.014109
 30
0.0
 10
44.746110
 20
4.193095
 30
0.0
 10
44.827110
 20
4.364093
 30
0.0
 10
44.927110
 20
4.523097
 30
0.0
 10
45.048110
 20
4.668103
 30
0.0
 10
45.185110
 20
4.797107
 30
0.0
 10
45.337110
 20
4.907117
 30
0.0
 10
45.502110
 20
4.998105
 30
0.0
 10
45.677110
 20
5.068096
 30
0.0
 10
45.860110
 20
5.114099
 30
0.0
 10
46.047110
 20
5.138087
 30
0.0
 10
46.235110
 20
5.138116
 30
0.0
 10
46.422110
 20
5.114127
 30
0.0
 10
46.605110
 20
5.068096
 30
0.0
 10
46.780110
 20
4.998105
 30
0.0
 10
46.945110
 20
4.907117
 30
0.0
 10
47.097110
 20
4.797107
 30
0.0
 10
47.234110
 20
4.668103
 30
0.0
 10
47.355110
 20
4.523097
 30
0.0
 10
47.455110
 20
4.364093
 30
0.0
 10
47.536110
 20
4.193095
 30
0.0
 10
47.594110
 20
4.014109
 30
0.0
 10
47.629110
 20
3.829113
 30
0.0
 10
47.641110
 20
3.641096
 30
0.0
 10
47.629110
 20
3.453108
 30
0.0
 10
47.594110
 20
3.268111
 30
0.0
 10
47.536110
 20
3.089098
 30
0.0
 10
47.455110
 20
2.918099
 30
0.0
 10
47.355110
 20
2.759095
 30
0.0
 10
47.234110
 20
2.614118
 30
0.0
 10
47.097110
 20
2.485114
 30
0.0
 10
46.945110
 20
2.375104
 30
0.0
 10
46.780110
 20
2.284115
 30
0.0
 10
46.605110
 20
2.214096
 30
0.0
 10
46.422110
 20
2.168094
 30
0.0
 10
46.235110
 20
2.144105
 30
0.0
 10
46.047110
 20
2.144105
 30
0.0
 10
45.860110
 20
2.168094
 30
0.0
 10
45.677110
 20
2.214096
 30
0.0
 10
45.502110
 20
2.284115
 30
0.0
 10
45.337110
 20
2.375104
 30
0.0
 10
45.185110
 20
2.485114
 30
0.0
 10
45.048110
 20
2.614118
 30
0.0
 10
44.927110
 20
2.759095
 30
0.0
 10
44.827110
 20
2.918099
 30
0.0
 10
44.746110
 20
3.089098
 30
0.0
 10
44.688110
 20
3.268111
 30
0.0
 10
44.653110
 20
3.453108
 30
0.0
 10
44.641110
 20
3.641096
 30
0.0
  0
LWPOLYLINE
  5
114
100
AcDbEntity
  8
Ebene_1
 62
7
100
AcDbPolyline
 90
51
 70
0
 10
44.641110
 20
21.641117
 30
0.0
 10
44.653110
 20
21.829105
 30
0.0
 10
44.688110
 20
22.014101
 30
0.0
 10
44.746110
 20
22.193115
 30
0.0
 10
44.827110
 20
22.364113
 30
0.0
 10
44.927110
 20
22.523117
 30
0.0
 10
45.048110
 20
22.668095
 30
0.0
 10
45.185110
 20
22.797099
 30
0.0
 10
45.337110
 20
22.907109
 30
0.0
 10
45.502110
 20
22.998097
 30
0.0
 10
45.677110
 20
23.068117
 30
0.0
 10
45.860110
 20
23.114119
 30
0.0
 10
46.047110
 20
23.138108
 30
0.0
 10
46.235110
 20
23.138108
 30
0.0
 10
46.422110
 20
23.114119
 30
0.0
 10
46.605110
 20
23.068117
 30
0.0
 10
46.780110
 20
22.998097
 30
0.0
 10
46.945110
 20
22.907109
 30
0.0
 10
47.097110
 20
22.797099
 30
0.0
 10
47.234110
 20
22.668095
 30
0.0
 10
47.355110
 20
22.523117
 30
0.0
 10
47.455110
 20
22.364113
 30
0.0
 10
47.536110
 20
22.193115
 30
0.0
 10
47.594110
 20
22.014101
 30
0.0
 10
47.629110
 20
21.829105
 30
0.0
 10
47.641110
 20
21.641117
 30
0.0
 10
47.629110
 20
21.453100
 30
0.0
 10
47.594110
 20
21.268103
 30
0.0
 10
47.536110
 20
21.089118
 30
0.0
 10
47.455110
 20
20.918091
 30
0.0
 10
47.355110
 20
20.759116
 30
0.0
 10
47.234110
 20
20.614110
 30
0.0
 10
47.097110
 20
20.485106
 30
0.0
 10
46.945110
 20
20.375096
 30
0.0
 10
46.780110
 20
20.284107
 30
0.0
 10
46.605110
 20
20.214116
 30
0.0
 10
46.422110
 20
20.168114
 30
0.0
 10
46.235110
 20
20.144125
 30
0.0
 10
46.047110
 20
20.144097
 30
0.0
 10
45.860110
 20
20.168086
 30
0.0
 10
45.677110
 20
20.214116
 30
0.0
 10
45.502110
 20
20.284107
 30
0.0
 10
45.337110
 20
20.375096
 30
0.0
 10
45.185110
 20
20.485106
 30
0.0
 10
45.048110
 20
20.614110
 30
0.0
 10
44.927110
 20
20.759116
 30
0.0
 10
44.827110
 20
20.918091
 30
0.0
 10
44.746110
 20
21.089118
 30
0.0
 10
44.688110
 20
21.268103
 30
0.0
 10
44.653110
 20
21.453100
 30
0.0
 10
44.641110
 20
21.641117
 30
0.0
  0
LWPOLYLINE
  5
115
100
AcDbEntity
  8
Ebene_1
 62
7
100
AcDbPolyline
 90
5
 70
0
 10
49.141110
 20
2.641098
 30
0.0
 10
49.141110
 20
7.641116
 30
0.0
 10
54.141110
 20
7.641116
 30
0.0
 10
54.141110
 20
2.641098
 30
0.0
 10
49.141110
 20
2.641098
 30
0.0
  0
LWPOLYLINE
  5
116
100
AcDbEntity
  8
Ebene_1
 62
7
100
AcDbPolyline
 90
5
 70
0
 10
49.141110
 20
10.141097
 30
0.0
 10
49.141110
 20
15.141115
 30
0.0
 10
54.141110
 20
15.141115
 30
0.0
 10
54.141110
 20
10.141097
 30
0.0
 10
49.141110
 20
10.141097
 30
0.0
  0
LWPOLYLINE
  5
117
100
AcDbEntity
  8
Ebene_1
 62
7
100
AcDbPolyline
 90
5
 70
0
 10
49.141110
 20
17.641096
 30
0.0
 10
49.141110
 20
22.641115
 30
0.0
 10
54.141110
 20
22.641115
 30
0.0
 10
54.141110
 20
17.641096
 30
0.0
 10
49.141110
 20
17.641096
 30
0.0
  0
LWPOLYLINE
  5
118
100
AcDbEntity
  8
Ebene_1
 62
7
100
AcDbPolyline
 90
51
 70
0
 10
54.291110
 20
47.641104
 30
0.0
 10
54.302111
 20
47.810104
 30
0.0
 10
54.333110
 20
47.977104
 30
0.0
 10
54.386110
 20
48.138106
 30
0.0
 10
54.458110
 20
48.291104
 30
0.0
 10
54.549110
 20
48.435105
 30
0.0
 10
54.657110
 20
48.565105
 30
0.0
 10
54.780110
 20
48.681104
 30
0.0
 10
54.918110
 20
48.781104
 30
0.0
 10
55.066110
 20
48.863107
 30
0.0
 10
55.224110
 20
48.925105
 30
0.0
 10
55.388110
 20
48.967105
 30
0.0
 10
55.556110
 20
48.988103
 30
0.0
 10
55.726110
 20
48.988106
 30
0.0
 10
55.894110
 20
48.967108
 30
0.0
 10
56.058110
 20
48.925105
 30
0.0
 10
56.216110
 20
48.863107
 30
0.0
 10
56.364110
 20
48.781104
 30
0.0
 10
56.502110
 20
48.681104
 30
0.0
 10
56.625110
 20
48.565105
 30
0.0
 10
56.733110
 20
48.435105
 30
0.0
 10
56.824110
 20
48.291104
 30
0.0
 10
56.896110
 20
48.138106
 30
0.0
 10
56.949110
 20
47.977104
 30
0.0
 10
56.980110
 20
47.810104
 30
0.0
 10
56.991111
 20
47.641104
 30
0.0
 10
56.980109
 20
47.472104
 30
0.0
 10
56.949110
 20
47.305104
 30
0.0
 10
56.896110
 20
47.144105
 30
0.0
 10
56.824110
 20
46.991104
 30
0.0
 10
56.733110
 20
46.847106
 30
0.0
 10
56.625110
 20
46.717106
 30
0.0
 10
56.502110
 20
46.601104
 30
0.0
 10
56.364110
 20
46.501104
 30
0.0
 10
56.216110
 20
46.419104
 30
0.0
 10
56.058110
 20
46.357106
 30
0.0
 10
55.894110
 20
46.315106
 30
0.0
 10
55.726110
 20
46.294108
 30
0.0
 10
55.556110
 20
46.294105
 30
0.0
 10
55.388110
 20
46.315103
 30
0.0
 10
55.224110
 20
46.357106
 30
0.0
 10
55.066110
 20
46.419104
 30
0.0
 10
54.918110
 20
46.501104
 30
0.0
 10
54.780110
 20
46.601104
 30
0.0
 10
54.657110
 20
46.717106
 30
0.0
 10
54.549110
 20
46.847106
 30
0.0
 10
54.458110
 20
46.991104
 30
0.0
 10
54.386110
 20
47.144105
 30
0.0
 10
54.333110
 20
47.305104
 30
0.0
 10
54.302110
 20
47.472104
 30
0.0
 10
54.291109
 20
47.641104
 30
0.0
  0
LWPOLYLINE
  5
119
100
AcDbEntity
  8
Ebene_1
 62
7
100
AcDbPolyline
 90
61
 70
0
 10
63.141109
 20
2.641098
 30
0.0
 10
63.141109
 20
7.641116
 30
0.0
 10
68.141108
 20
7.641116
 30
0.0
 10
68.141108
 20
10.141097
 30
0.0
 10
63.141109
 20
10.141097
 30
0.0
 10
63.141109
 20
15.141115
 30
0.0
 10
68.141108
 20
15.141115
 30
0.0
 10
68.141108
 20
17.641096
 30
0.0
 10
63.141109
 20
17.641096
 30
0.0
 10
63.141109
 20
22.641115
 30
0.0
 10
68.141108
 20
22.641115
 30
0.0
 10
68.141108
 20
27.741104
 30
0.0
 10
70.816108
 20
27.741104
 30
0.0
 10
70.816108
 20
26.491105
 30
0.0
 10
72.466108
 20
26.491105
 30
0.0
 10
72.466108
 20
27.741104
 30
0.0
 10
74.641108
 20
27.741104
 30
0.0
 10
74.641108
 20
30.541104
 30
0.0
 10
72.466108
 20
30.541104
 30
0.0
 10
72.466108
 20
31.791106
 30
0.0
 10
70.816108
 20
31.791106
 30
0.0
 10
70.816108
 20
30.541104
 30
0.0
 10
68.141108
 20
30.541104
 30
0.0
 10
68.141108
 20
50.141105
 30
0.0
 10
82.141108
 20
50.141105
 30
0.0
 10
82.141108
 20
45.141106
 30
0.0
 10
87.141108
 20
45.141106
 30
0.0
 10
87.141108
 20
50.141105
 30
0.0
 10
102.141108
 20
50.141105
 30
0.0
 10
102.141108
 20
45.141106
 30
0.0
 10
107.141108
 20
45.141106
 30
0.0
 10
107.141108
 20
50.141105
 30
0.0
 10
121.141108
 20
50.141105
 30
0.0
 10
121.141108
 20
30.541104
 30
0.0
 10
118.466108
 20
30.541104
 30
0.0
 10
118.466108
 20
31.791106
 30
0.0
 10
116.816108
 20
31.791106
 30
0.0
 10
116.816108
 20
30.541104
 30
0.0
 10
114.641108
 20
30.541104
 30
0.0
 10
114.641108
 20
27.741104
 30
0.0
 10
116.816108
 20
27.741104
 30
0.0
 10
116.816108
 20
26.491105
 30
0.0
 10
118.466108
 20
26.491105
 30
0.0
 10
118.466108
 20
27.741104
 30
0.0
 10
121.141108
 20
27.741104
 30
0.0
 10
121.141108
 20
22.641115
 30
0.0
 10
126.141107
 20
22.641115
 30
0.0
 10
126.141107
 20
17.641096
 30
0.0
 10
121.141108
 20
17.641096
 30
0.0
 10
121.141108
 20
15.141115
 30
0.0
 10
126.141107
 20
15.141115
 30
0.0
 10
126.141107
 20
10.141097
 30
0.0
 10
121.141108
 20
10.141097
 30
0.0
 10
121.141108
 20
7.641116
 30
0.0
 10
126.141107
 20
7.641116
 30
0.0
 10
126.141107
 20
2.641098
 30
0.0
 10
121.141108
 20
2.641098
 30
0.0
 10
121.141108
 20
0.141117
 30
0.0
 10
68.141108
 20
0.141117
 30
0.0
 10
68.141108
 20
2.641098
 30
0.0
 10
63.141109
 20
2.641098
 30
0.0
  0
LWPOLYLINE
  5
11a
100
AcDbEntity
  8
Ebene_1
 62
7
100
AcDbPolyline
 90
51
 70
0
 10
69.291108
 20
47.641104
 30
0.0
 10
69.302109
 20
47.810104
 30
0.0
 10
69.333108
 20
47.977104
 30
0.0
 10
69.386109
 20
48.138106
 30
0.0
 10
69.458108
 20
48.291104
 30
0.0
 10
69.549108
 20
48.435105
 30
0.0
 10
69.657108
 20
48.565105
 30
0.0
 10
69.780109
 20
48.681104
 30
0.0
 10
69.918108
 20
48.781104
 30
0.0
 10
70.066108
 20
48.863107
 30
0.0
 10
70.224108
 20
48.925105
 30
0.0
 10
70.388108
 20
48.967105
 30
0.0
 10
70.556108
 20
48.988103
 30
0.0
 10
70.726108
 20
48.988106
 30
0.0
 10
70.894108
 20
48.967108
 30
0.0
 10
71.058108
 20
48.925105
 30
0.0
 10
71.216108
 20
48.863107
 30
0.0
 10
71.364108
 20
48.781104
 30
0.0
 10
71.502108
 20
48.681104
 30
0.0
 10
71.625108
 20
48.565105
 30
0.0
 10
71.733108
 20
48.435105
 30
0.0
 10
71.824108
 20
48.291104
 30
0.0
 10
71.896108
 20
48.138106
 30
0.0
 10
71.949108
 20
47.977104
 30
0.0
 10
71.980108
 20
47.810104
 30
0.0
 10
71.991109
 20
47.641104
 30
0.0
 10
71.980107
 20
47.472104
 30
0.0
 10
71.949108
 20
47.305104
 30
0.0
 10
71.896108
 20
47.144105
 30
0.0
 10
71.824108
 20
46.991104
 30
0.0
 10
71.733108
 20
46.847106
 30
0.0
 10
71.625108
 20
46.717106
 30
0.0
 10
71.502108
 20
46.601104
 30
0.0
 10
71.364108
 20
46.501104
 30
0.0
 10
71.216108
 20
46.419104
 30
0.0
 10
71.058108
 20
46.357106
 30
0.0
 10
70.894108
 20
46.315106
 30
0.0
 10
70.726108
 20
46.294108
 30
0.0
 10
70.556108
 20
46.294105
 30
0.0
 10
70.388108
 20
46.315103
 30
0.0
 10
70.224108
 20
46.357106
 30
0.0
 10
70.066108
 20
46.419104
 30
0.0
 10
69.918108
 20
46.501104
 30
0.0
 10
69.780109
 20
46.601104
 30
0.0
 10
69.657108
 20
46.717106
 30
0.0
 10
69.549108
 20
46.847106
 30
0.0
 10
69.458108
 20
46.991104
 30
0.0
 10
69.386109
 20
47.144105
 30
0.0
 10
69.333108
 20
47.305104
 30
0.0
 10
69.302108
 20
47.472104
 30
0.0
 10
69.291107
 20
47.641104
 30
0.0
  0
LWPOLYLINE
  5
11b
100
AcDbEntity
  8
Ebene_1
 62
7
100
AcDbPolyline
 90
5
 70
0
 10
72.141109
 20
2.641098
 30
0.0
 10
72.141109
 20
7.641116
 30
0.0
 10
77.141108
 20
7.641116
 30
0.0
 10
77.141108
 20
2.641098
 30
0.0
 10
72.141109
 20
2.641098
 30
0.0
  0
LWPOLYLINE
  5
11c
100
AcDbEntity
  8
Ebene_1
 62
7
100
AcDbPolyline
 90
5
 70
0
 10
72.141109
 20
10.141097
 30
0.0
 10
72.141109
 20
15.141115
 30
0.0
 10
77.141108
 20
15.141115
 30
0.0
 10
77.141108
 20
10.141097
 30
0.0
 10
72.141109
 20
10.141097
 30
0.0
  0
LWPOLYLINE
  5
11d
100
AcDbEntity
  8
Ebene_1
 62
7
100
AcDbPolyline
 90
5
 70
0
 10
72.141109
 20
17.641096
 30
0.0
 10
72.141109
 20
22.641115
 30
0.0
 10
77.141108
 20
22.641115
 30
0.0
 10
77.141108
 20
17.641096
 30
0.0
 10
72.141109
 20
17.641096
 30
0.0
  0
LWPOLYLINE
  5
11e
100
AcDbEntity
  8
Ebene_1
 62
7
100
AcDbPolyline
 90
51
 70
0
 10
78.641108
 20
3.641096
 30
0.0
 10
78.653109
 20
3.829113
 30
0.0
 10
78.688108
 20
4.014109
 30
0.0
 10
78.746108
 20
4.193095
 30
0.0
 10
78.827108
 20
4.364093
 30
0.0
 10
78.927108
 20
4.523097
 30
0.0
 10
79.048108
 20
4.668103
 30
0.0
 10
79.185108
 20
4.797107
 30
0.0
 10
79.337108
 20
4.907117
 30
0.0
 10
79.502108
 20
4.998105
 30
0.0
 10
79.677108
 20
5.068096
 30
0.0
 10
79.860108
 20
5.114099
 30
0.0
 10
80.047108
 20
5.138087
 30
0.0
 10
80.235108
 20
5.138116
 30
0.0
 10
80.422109
 20
5.114127
 30
0.0
 10
80.605108
 20
5.068096
 30
0.0
 10
80.780108
 20
4.998105
 30
0.0
 10
80.945108
 20
4.907117
 30
0.0
 10
81.097108
 20
4.797107
 30
0.0
 10
81.234108
 20
4.668103
 30
0.0
 10
81.355108
 20
4.523097
 30
0.0
 10
81.455108
 20
4.364093
 30
0.0
 10
81.536108
 20
4.193095
 30
0.0
 10
81.594108
 20
4.014109
 30
0.0
 10
81.629108
 20
3.829113
 30
0.0
 10
81.641108
 20
3.641096
 30
0.0
 10
81.629108
 20
3.453108
 30
0.0
 10
81.594108
 20
3.268111
 30
0.0
 10
81.536108
 20
3.089098
 30
0.0
 10
81.455108
 20
2.918099
 30
0.0
 10
81.355108
 20
2.759095
 30
0.0
 10
81.234108
 20
2.614118
 30
0.0
 10
81.097108
 20
2.485114
 30
0.0
 10
80.945108
 20
2.375104
 30
0.0
 10
80.780108
 20
2.284115
 30
0.0
 10
80.605108
 20
2.214096
 30
0.0
 10
80.422109
 20
2.168094
 30
0.0
 10
80.235108
 20
2.144105
 30
0.0
 10
80.047108
 20
2.144105
 30
0.0
 10
79.860108
 20
2.168094
 30
0.0
 10
79.677108
 20
2.214096
 30
0.0
 10
79.502108
 20
2.284115
 30
0.0
 10
79.337108
 20
2.375104
 30
0.0
 10
79.185108
 20
2.485114
 30
0.0
 10
79.048108
 20
2.614118
 30
0.0
 10
78.927108
 20
2.759095
 30
0.0
 10
78.827108
 20
2.918099
 30
0.0
 10
78.746108
 20
3.089098
 30
0.0
 10
78.688108
 20
3.268111
 30
0.0
 10
78.653108
 20
3.453108
 30
0.0
 10
78.641108
 20
3.641096
 30
0.0
  0
LWPOLYLINE
  5
11f
100
AcDbEntity
  8
Ebene_1
 62
7
100
AcDbPolyline
 90
51
 70
0
 10
78.641108
 20
21.641117
 30
0.0
 10
78.653109
 20
21.829105
 30
0.0
 10
78.688108
 20
22.014101
 30
0.0
 10
78.746108
 20
22.193115
 30
0.0
 10
78.827108
 20
22.364113
 30
0.0
 10
78.927108
 20
22.523117
 30
0.0
 10
79.048108
 20
22.668095
 30
0.0
 10
79.185108
 20
22.797099
 30
0.0
 10
79.337108
 20
22.907109
 30
0.0
 10
79.502108
 20
22.998097
 30
0.0
 10
79.677108
 20
23.068117
 30
0.0
 10
79.860108
 20
23.114119
 30
0.0
 10
80.047108
 20
23.138108
 30
0.0
 10
80.235108
 20
23.138108
 30
0.0
 10
80.422109
 20
23.114119
 30
0.0
 10
80.605108
 20
23.068117
 30
0.0
 10
80.780108
 20
22.998097
 30
0.0
 10
80.945108
 20
22.907109
 30
0.0
 10
81.097108
 20
22.797099
 30
0.0
 10
81.234108
 20
22.668095
 30
0.0
 10
81.355108
 20
22.523117
 30
0.0
 10
81.455108
 20
22.364113
 30
0.0
 10
81.536108
 20
22.193115
 30
0.0
 10
81.594108
 20
22.014101
 30
0.0
 10
81.629108
 20
21.829105
 30
0.0
 10
81.641108
 20
21.641117
 30
0.0
 10
81.629108
 20
21.453100
 30
0.0
 10
81.594108
 20
21.268103
 30
0.0
 10
81.536108
 20
21.089118
 30
0.0
 10
81.455108
 20
20.918091
 30
0.0
 10
81.355108
 20
20.759116
 30
0.0
 10
81.234108
 20
20.614110
 30
0.0
 10
81.097108
 20
20.485106
 30
0.0
 10
80.945108
 20
20.375096
 30
0.0
 10
80.780108
 20
20.284107
 30
0.0
 10
80.605108
 20
20.214116
 30
0.0
 10
80.422109
 20
20.168114
 30
0.0
 10
80.235108
 20
20.144125
 30
0.0
 10
80.047108
 20
20.144097
 30
0.0
 10
79.860108
 20
20.168086
 30
0.0
 10
79.677108
 20
20.214116
 30
0.0
 10
79.502108
 20
20.284107
 30
0.0
 10
79.337108
 20
20.375096
 30
0.0
 10
79.185108
 20
20.485106
 30
0.0
 10
79.048108
 20
20.614110
 30
0.0
 10
78.927108
 20
20.759116
 30
0.0
 10
78.827108
 20
20.918091
 30
0.0
 10
78.746108
 20
21.089118
 30
0.0
 10
78.688108
 20
21.268103
 30
0.0
 10
78.653108
 20
21.453100
 30
0.0
 10
78.641108
 20
21.641117
 30
0.0
  0
LWPOLYLINE
  5
120
100
AcDbEntity
  8
Ebene_1
 62
7
100
AcDbPolyline
 90
5
 70
0
 10
82.141108
 20
35.141107
 30
0.0
 10
82.141108
 20
40.141105
 30
0.0
 10
87.141108
 20
40.141105
 30
0.0
 10
87.141108
 20
35.141107
 30
0.0
 10
82.141108
 20
35.141107
 30
0.0
  0
LWPOLYLINE
  5
121
100
AcDbEntity
  8
Ebene_1
 62
7
100
AcDbPolyline
 90
5
 70
0
 10
83.141109
 20
2.641098
 30
0.0
 10
83.141109
 20
7.641116
 30
0.0
 10
88.141108
 20
7.641116
 30
0.0
 10
88.141108
 20
2.641098
 30
0.0
 10
83.141109
 20
2.641098
 30
0.0
  0
LWPOLYLINE
  5
122
100
AcDbEntity
  8
Ebene_1
 62
7
100
AcDbPolyline
 90
5
 70
0
 10
83.141109
 20
10.141097
 30
0.0
 10
83.141109
 20
15.141115
 30
0.0
 10
88.141108
 20
15.141115
 30
0.0
 10
88.141108
 20
10.141097
 30
0.0
 10
83.141109
 20
10.141097
 30
0.0
  0
LWPOLYLINE
  5
123
100
AcDbEntity
  8
Ebene_1
 62
7
100
AcDbPolyline
 90
5
 70
0
 10
83.141109
 20
17.641096
 30
0.0
 10
83.141109
 20
22.641115
 30
0.0
 10
88.141108
 20
22.641115
 30
0.0
 10
88.141108
 20
17.641096
 30
0.0
 10
83.141109
 20
17.641096
 30
0.0
  0
LWPOLYLINE
  5
124
100
AcDbEntity
  8
Ebene_1
 62
7
100
AcDbPolyline
 90
51
 70
0
 10
90.641108
 20
42.641106
 30
0.0
 10
90.673108
 20
43.142107
 30
0.0
 10
90.767108
 20
43.636105
 30
0.0
 10
90.922108
 20
44.113106
 30
0.0
 10
91.136108
 20
44.568105
 30
0.0
 10
91.405108
 20
44.992104
 30
0.0
 10
91.725109
 20
45.379104
 30
0.0
 10
92.091108
 20
45.723105
 30
0.0
 10
92.498108
 20
46.018106
 30
0.0
 10
92.938108
 20
46.260106
 30
0.0
 10
93.405108
 20
46.445106
 30
0.0
 10
93.891108
 20
46.570105
 30
0.0
 10
94.390108
 20
46.633105
 30
0.0
 10
94.892108
 20
46.633105
 30
0.0
 10
95.391108
 20
46.570105
 30
0.0
 10
95.877109
 20
46.445106
 30
0.0
 10
96.344108
 20
46.260106
 30
0.0
 10
96.784108
 20
46.018106
 30
0.0
 10
97.191108
 20
45.723105
 30
0.0
 10
97.557108
 20
45.379104
 30
0.0
 10
97.877108
 20
44.992104
 30
0.0
 10
98.146108
 20
44.568105
 30
0.0
 10
98.360108
 20
44.113106
 30
0.0
 10
98.515108
 20
43.636105
 30
0.0
 10
98.609109
 20
43.142107
 30
0.0
 10
98.641108
 20
42.641106
 30
0.0
 10
98.609109
 20
42.140105
 30
0.0
 10
98.515108
 20
41.646106
 30
0.0
 10
98.360108
 20
41.169105
 30
0.0
 10
98.146108
 20
40.714106
 30
0.0
 10
97.877108
 20
40.290104
 30
0.0
 10
97.557108
 20
39.903104
 30
0.0
 10
97.191108
 20
39.559103
 30
0.0
 10
96.784108
 20
39.264105
 30
0.0
 10
96.344108
 20
39.022105
 30
0.0
 10
95.877109
 20
38.837106
 30
0.0
 10
95.391108
 20
38.712104
 30
0.0
 10
94.892108
 20
38.649106
 30
0.0
 10
94.390108
 20
38.649106
 30
0.0
 10
93.891108
 20
38.712104
 30
0.0
 10
93.405108
 20
38.837106
 30
0.0
 10
92.938108
 20
39.022105
 30
0.0
 10
92.498108
 20
39.264105
 30
0.0
 10
92.091108
 20
39.559103
 30
0.0
 10
91.725109
 20
39.903104
 30
0.0
 10
91.405108
 20
40.290104
 30
0.0
 10
91.136108
 20
40.714106
 30
0.0
 10
90.922108
 20
41.169105
 30
0.0
 10
90.767108
 20
41.646106
 30
0.0
 10
90.673108
 20
42.140105
 30
0.0
 10
90.641108
 20
42.641106
 30
0.0
  0
LWPOLYLINE
  5
125
100
AcDbEntity
  8
Ebene_1
 62
7
100
AcDbPolyline
 90
5
 70
0
 10
92.141108
 20
2.641098
 30
0.0
 10
92.141108
 20
7.641116
 30
0.0
 10
97.141108
 20
7.641116
 30
0.0
 10
97.141108
 20
2.641098
 30
0.0
 10
92.141108
 20
2.641098
 30
0.0
  0
LWPOLYLINE
  5
126
100
AcDbEntity
  8
Ebene_1
 62
7
100
AcDbPolyline
 90
5
 70
0
 10
92.141108
 20
10.141097
 30
0.0
 10
92.141108
 20
15.141115
 30
0.0
 10
97.141108
 20
15.141115
 30
0.0
 10
97.141108
 20
10.141097
 30
0.0
 10
92.141108
 20
10.141097
 30
0.0
  0
LWPOLYLINE
  5
127
100
AcDbEntity
  8
Ebene_1
 62
7
100
AcDbPolyline
 90
5
 70
0
 10
92.141108
 20
17.641096
 30
0.0
 10
92.141108
 20
22.641115
 30
0.0
 10
97.141108
 20
22.641115
 30
0.0
 10
97.141108
 20
17.641096
 30
0.0
 10
92.141108
 20
17.641096
 30
0.0
  0
LWPOLYLINE
  5
128
100
AcDbEntity
  8
Ebene_1
 62
7
100
AcDbPolyline
 90
5
 70
0
 10
101.141108
 20
2.641098
 30
0.0
 10
101.141108
 20
7.641116
 30
0.0
 10
106.141108
 20
7.641116
 30
0.0
 10
106.141108
 20
2.641098
 30
0.0
 10
101.141108
 20
2.641098
 30
0.0
  0
LWPOLYLINE
  5
129
100
AcDbEntity
  8
Ebene_1
 62
7
100
AcDbPolyline
 90
5
 70
0
 10
101.141108
 20
10.141097
 30
0.0
 10
101.141108
 20
15.141115
 30
0.0
 10
106.141108
 20
15.141115
 30
0.0
 10
106.141108
 20
10.141097
 30
0.0
 10
101.141108
 20
10.141097
 30
0.0
  0
LWPOLYLINE
  5
12a
100
AcDbEntity
  8
Ebene_1
 62
7
100
AcDbPolyline
 90
5
 70
0
 10
101.141108
 20
17.641096
 30
0.0
 10
101.141108
 20
22.641115
 30
0.0
 10
106.141108
 20
22.641115
 30
0.0
 10
106.141108
 20
17.641096
 30
0.0
 10
101.141108
 20
17.641096
 30
0.0
  0
LWPOLYLINE
  5
12b
100
AcDbEntity
  8
Ebene_1
 62
7
100
AcDbPolyline
 90
5
 70
0
 10
102.141108
 20
35.141107
 30
0.0
 10
102.141108
 20
40.141105
 30
0.0
 10
107.141108
 20
40.141105
 30
0.0
 10
107.141108
 20
35.141107
 30
0.0
 10
102.141108
 20
35.141107
 30
0.0
  0
LWPOLYLINE
  5
12c
100
AcDbEntity
  8
Ebene_1
 62
7
100
AcDbPolyline
 90
51
 70
0
 10
107.641108
 20
3.641096
 30
0.0
 10
107.653108
 20
3.829113
 30
0.0
 10
107.688109
 20
4.014109
 30
0.0
 10
107.746108
 20
4.193095
 30
0.0
 10
107.827108
 20
4.364093
 30
0.0
 10
107.927108
 20
4.523097
 30
0.0
 10
108.048108
 20
4.668103
 30
0.0
 10
108.185108
 20
4.797107
 30
0.0
 10
108.337108
 20
4.907117
 30
0.0
 10
108.502109
 20
4.998105
 30
0.0
 10
108.677108
 20
5.068096
 30
0.0
 10
108.860108
 20
5.114099
 30
0.0
 10
109.047108
 20
5.138087
 30
0.0
 10
109.235108
 20
5.138116
 30
0.0
 10
109.422108
 20
5.114127
 30
0.0
 10
109.605108
 20
5.068096
 30
0.0
 10
109.780108
 20
4.998105
 30
0.0
 10
109.945108
 20
4.907117
 30
0.0
 10
110.097108
 20
4.797107
 30
0.0
 10
110.234108
 20
4.668103
 30
0.0
 10
110.355109
 20
4.523097
 30
0.0
 10
110.455108
 20
4.364093
 30
0.0
 10
110.536108
 20
4.193095
 30
0.0
 10
110.594108
 20
4.014109
 30
0.0
 10
110.629108
 20
3.829113
 30
0.0
 10
110.641109
 20
3.641096
 30
0.0
 10
110.629108
 20
3.453108
 30
0.0
 10
110.594108
 20
3.268111
 30
0.0
 10
110.536108
 20
3.089098
 30
0.0
 10
110.455108
 20
2.918099
 30
0.0
 10
110.355109
 20
2.759095
 30
0.0
 10
110.234108
 20
2.614118
 30
0.0
 10
110.097108
 20
2.485114
 30
0.0
 10
109.945108
 20
2.375104
 30
0.0
 10
109.780108
 20
2.284115
 30
0.0
 10
109.605108
 20
2.214096
 30
0.0
 10
109.422108
 20
2.168094
 30
0.0
 10
109.235108
 20
2.144105
 30
0.0
 10
109.047108
 20
2.144105
 30
0.0
 10
108.860108
 20
2.168094
 30
0.0
 10
108.677108
 20
2.214096
 30
0.0
 10
108.502109
 20
2.284115
 30
0.0
 10
108.337108
 20
2.375104
 30
0.0
 10
108.185108
 20
2.485114
 30
0.0
 10
108.048108
 20
2.614118
 30
0.0
 10
107.927108
 20
2.759095
 30
0.0
 10
107.827108
 20
2.918099
 30
0.0
 10
107.746108
 20
3.089098
 30
0.0
 10
107.688109
 20
3.268111
 30
0.0
 10
107.653108
 20
3.453108
 30
0.0
 10
107.641108
 20
3.641096
 30
0.0
  0
LWPOLYLINE
  5
12d
100
AcDbEntity
  8
Ebene_1
 62
7
100
AcDbPolyline
 90
51
 70
0
 10
107.641108
 20
21.641117
 30
0.0
 10
107.653108
 20
21.829105
 30
0.0
 10
107.688109
 20
22.014101
 30
0.0
 10
107.746108
 20
22.193115
 30
0.0
 10
107.827108
 20
22.364113
 30
0.0
 10
107.927108
 20
22.523117
 30
0.0
 10
108.048108
 20
22.668095
 30
0.0
 10
108.185108
 20
22.797099
 30
0.0
 10
108.337108
 20
22.907109
 30
0.0
 10
108.502109
 20
22.998097
 30
0.0
 10
108.677108
 20
23.068117
 30
0.0
 10
108.860108
 20
23.114119
 30
0.0
 10
109.047108
 20
23.138108
 30
0.0
 10
109.235108
 20
23.138108
 30
0.0
 10
109.422108
 20
23.114119
 30
0.0
 10
109.605108
 20
23.068117
 30
0.0
 10
109.780108
 20
22.998097
 30
0.0
 10
109.945108
 20
22.907109
 30
0.0
 10
110.097108
 20
22.797099
 30
0.0
 10
110.234108
 20
22.668095
 30
0.0
 10
110.355109
 20
22.523117
 30
0.0
 10
110.455108
 20
22.364113
 30
0.0
 10
110.536108
 20
22.193115
 30
0.0
 10
110.594108
 20
22.014101
 30
0.0
 10
110.629108
 20
21.829105
 30
0.0
 10
110.641109
 20
21.641117
 30
0.0
 10
110.629108
 20
21.453100
 30
0.0
 10
110.594108
 20
21.268103
 30
0.0
 10
110.536108
 20
21.089118
 30
0.0
 10
110.455108
 20
20.918091
 30
0.0
 10
110.355109
 20
20.759116
 30
0.0
 10
110.234108
 20
20.614110
 30
0.0
 10
110.097108
 20
20.485106
 30
0.0
 10
109.945108
 20
20.375096
 30
0.0
 10
109.780108
 20
20.284107
 30
0.0
 10
109.605108
 20
20.214116
 30
0.0
 10
109.422108
 20
20.168114
 30
0.0
 10
109.235108
 20
20.144125
 30
0.0
 10
109.047108
 20
20.144097
 30
0.0
 10
108.860108
 20
20.168086
 30
0.0
 10
108.677108
 20
20.214116
 30
0.0
 10
108.502109
 20
20.284107
 30
0.0
 10
108.337108
 20
20.375096
 30
0.0
 10
108.185108
 20
20.485106
 30
0.0
 10
108.048108
 20
20.614110
 30
0.0
 10
107.927108
 20
20.759116
 30
0.0
 10
107.827108
 20
20.918091
 30
0.0
 10
107.746108
 20
21.089118
 30
0.0
 10
107.688109
 20
21.268103
 30
0.0
 10
107.653108
 20
21.453100
 30
0.0
 10
107.641108
 20
21.641117
 30
0.0
  0
LWPOLYLINE
  5
12e
100
AcDbEntity
  8
Ebene_1
 62
7
100
AcDbPolyline
 90
5
 70
0
 10
112.141108
 20
2.641098
 30
0.0
 10
112.141108
 20
7.641116
 30
0.0
 10
117.141108
 20
7.641116
 30
0.0
 10
117.141108
 20
2.641098
 30
0.0
 10
112.141108
 20
2.641098
 30
0.0
  0
LWPOLYLINE
  5
12f
100
AcDbEntity
  8
Ebene_1
 62
7
100
AcDbPolyline
 90
5
 70
0
 10
112.141108
 20
10.141097
 30
0.0
 10
112.141108
 20
15.141115
 30
0.0
 10
117.141108
 20
15.141115
 30
0.0
 10
117.141108
 20
10.141097
 30
0.0
 10
112.141108
 20
10.141097
 30
0.0
  0
LWPOLYLINE
  5
130
100
AcDbEntity
  8
Ebene_1
 62
7
100
AcDbPolyline
 90
5
 70
0
 10
112.141108
 20
17.641096
 30
0.0
 10
112.141108
 20
22.641115
 30
0.0
 10
117.141108
 20
22.641115
 30
0.0
 10
117.141108
 20
17.641096
 30
0.0
 10
112.141108
 20
17.641096
 30
0.0
  0
LWPOLYLINE
  5
131
100
AcDbEntity
  8
Ebene_1
 62
7
100
AcDbPolyline
 90
51
 70
0
 10
117.291109
 20
47.641104
 30
0.0
 10
117.302110
 20
47.810104
 30
0.0
 10
117.333108
 20
47.977104
 30
0.0
 10
117.386108
 20
48.138106
 30
0.0
 10
117.458108
 20
48.291104
 30
0.0
 10
117.549108
 20
48.435105
 30
0.0
 10
117.657108
 20
48.565105
 30
0.0
 10
117.780108
 20
48.681104
 30
0.0
 10
117.918108
 20
48.781104
 30
0.0
 10
118.066109
 20
48.863107
 30
0.0
 10
118.224108
 20
48.925105
 30
0.0
 10
118.388108
 20
48.967105
 30
0.0
 10
118.556108
 20
48.988103
 30
0.0
 10
118.726108
 20
48.988106
 30
0.0
 10
118.894108
 20
48.967108
 30
0.0
 10
119.058108
 20
48.925105
 30
0.0
 10
119.216108
 20
48.863107
 30
0.0
 10
119.364108
 20
48.781104
 30
0.0
 10
119.502108
 20
48.681104
 30
0.0
 10
119.625108
 20
48.565105
 30
0.0
 10
119.733108
 20
48.435105
 30
0.0
 10
119.824108
 20
48.291104
 30
0.0
 10
119.896108
 20
48.138106
 30
0.0
 10
119.949108
 20
47.977104
 30
0.0
 10
119.980108
 20
47.810104
 30
0.0
 10
119.991109
 20
47.641104
 30
0.0
 10
119.980107
 20
47.472104
 30
0.0
 10
119.949108
 20
47.305104
 30
0.0
 10
119.896108
 20
47.144105
 30
0.0
 10
119.824108
 20
46.991104
 30
0.0
 10
119.733108
 20
46.847106
 30
0.0
 10
119.625108
 20
46.717106
 30
0.0
 10
119.502108
 20
46.601104
 30
0.0
 10
119.364108
 20
46.501104
 30
0.0
 10
119.216108
 20
46.419104
 30
0.0
 10
119.058108
 20
46.357106
 30
0.0
 10
118.894108
 20
46.315106
 30
0.0
 10
118.726108
 20
46.294108
 30
0.0
 10
118.556108
 20
46.294105
 30
0.0
 10
118.388108
 20
46.315103
 30
0.0
 10
118.224108
 20
46.357106
 30
0.0
 10
118.066109
 20
46.419104
 30
0.0
 10
117.918108
 20
46.501104
 30
0.0
 10
117.780108
 20
46.601104
 30
0.0
 10
117.657108
 20
46.717106
 30
0.0
 10
117.549108
 20
46.847106
 30
0.0
 10
117.458108
 20
46.991104
 30
0.0
 10
117.386108
 20
47.144105
 30
0.0
 10
117.333108
 20
47.305104
 30
0.0
 10
117.302108
 20
47.472104
 30
0.0
 10
117.291107
 20
47.641104
 30
0.0
  0
LWPOLYLINE
  5
132
100
AcDbEntity
  8
Ebene_1
 62
7
100
AcDbPolyline
 90
61
 70
0
 10
126.141107
 20
2.641098
 30
0.0
 10
126.141107
 20
7.641116
 30
0.0
 10
131.141106
 20
7.641116
 30
0.0
 10
131.141106
 20
10.141097
 30
0.0
 10
126.141107
 20
10.141097
 30
0.0
 10
126.141107
 20
15.141115
 30
0.0
 10
131.141106
 20
15.141115
 30
0.0
 10
131.141106
 20
17.641096
 30
0.0
 10
126.141107
 20
17.641096
 30
0.0
 10
126.141107
 20
22.641115
 30
0.0
 10
131.141106
 20
22.641115
 30
0.0
 10
131.141106
 20
27.741104
 30
0.0
 10
133.816107
 20
27.741104
 30
0.0
 10
133.816107
 20
26.491105
 30
0.0
 10
135.466106
 20
26.491105
 30
0.0
 10
135.466106
 20
27.741104
 30
0.0
 10
137.641106
 20
27.741104
 30
0.0
 10
137.641106
 20
30.541104
 30
0.0
 10
135.466106
 20
30.541104
 30
0.0
 10
135.466106
 20
31.791106
 30
0.0
 10
133.816107
 20
31.791106
 30
0.0
 10
133.816107
 20
30.541104
 30
0.0
 10
131.141106
 20
30.541104
 30
0.0
 10
131.141106
 20
50.141105
 30
0.0
 10
145.141106
 20
50.141105
 30
0.0
 10
145.141106
 20
45.141106
 30
0.0
 10
150.141107
 20
45.141106
 30
0.0
 10
150.141107
 20
50.141105
 30
0.0
 10
165.141107
 20
50.141105
 30
0.0
 10
165.141107
 20
45.141106
 30
0.0
 10
170.141107
 20
45.141106
 30
0.0
 10
170.141107
 20
50.141105
 30
0.0
 10
184.141107
 20
50.141105
 30
0.0
 10
184.141107
 20
30.541104
 30
0.0
 10
181.466106
 20
30.541104
 30
0.0
 10
181.466106
 20
31.791106
 30
0.0
 10
179.816107
 20
31.791106
 30
0.0
 10
179.816107
 20
30.541104
 30
0.0
 10
177.641107
 20
30.541104
 30
0.0
 10
177.641107
 20
27.741104
 30
0.0
 10
179.816107
 20
27.741104
 30
0.0
 10
179.816107
 20
26.491105
 30
0.0
 10
181.466106
 20
26.491105
 30
0.0
 10
181.466106
 20
27.741104
 30
0.0
 10
184.141107
 20
27.741104
 30
0.0
 10
184.141107
 20
22.641115
 30
0.0
 10
189.141106
 20
22.641115
 30
0.0
 10
189.141106
 20
17.641096
 30
0.0
 10
184.141107
 20
17.641096
 30
0.0
 10
184.141107
 20
15.141115
 30
0.0
 10
189.141106
 20
15.141115
 30
0.0
 10
189.141106
 20
10.141097
 30
0.0
 10
184.141107
 20
10.141097
 30
0.0
 10
184.141107
 20
7.641116
 30
0.0
 10
189.141106
 20
7.641116
 30
0.0
 10
189.141106
 20
2.641098
 30
0.0
 10
184.141107
 20
2.641098
 30
0.0
 10
184.141107
 20
0.141117
 30
0.0
 10
131.141106
 20
0.141117
 30
0.0
 10
131.141106
 20
2.641098
 30
0.0
 10
126.141107
 20
2.641098
 30
0.0
  0
LWPOLYLINE
  5
133
100
AcDbEntity
  8
Ebene_1
 62
7
100
AcDbPolyline
 90
51
 70
0
 10
132.291106
 20
47.641104
 30
0.0
 10
132.302107
 20
47.810104
 30
0.0
 10
132.333106
 20
47.977104
 30
0.0
 10
132.386107
 20
48.138106
 30
0.0
 10
132.458107
 20
48.291104
 30
0.0
 10
132.549107
 20
48.435105
 30
0.0
 10
132.657107
 20
48.565105
 30
0.0
 10
132.780107
 20
48.681104
 30
0.0
 10
132.918107
 20
48.781104
 30
0.0
 10
133.066106
 20
48.863107
 30
0.0
 10
133.224107
 20
48.925105
 30
0.0
 10
133.388106
 20
48.967105
 30
0.0
 10
133.556107
 20
48.988103
 30
0.0
 10
133.726107
 20
48.988106
 30
0.0
 10
133.894107
 20
48.967108
 30
0.0
 10
134.058107
 20
48.925105
 30
0.0
 10
134.216106
 20
48.863107
 30
0.0
 10
134.364107
 20
48.781104
 30
0.0
 10
134.502106
 20
48.681104
 30
0.0
 10
134.625107
 20
48.565105
 30
0.0
 10
134.733106
 20
48.435105
 30
0.0
 10
134.824106
 20
48.291104
 30
0.0
 10
134.896106
 20
48.138106
 30
0.0
 10
134.949107
 20
47.977104
 30
0.0
 10
134.980107
 20
47.810104
 30
0.0
 10
134.991108
 20
47.641104
 30
0.0
 10
134.980105
 20
47.472104
 30
0.0
 10
134.949107
 20
47.305104
 30
0.0
 10
134.896106
 20
47.144105
 30
0.0
 10
134.824106
 20
46.991104
 30
0.0
 10
134.733106
 20
46.847106
 30
0.0
 10
134.625107
 20
46.717106
 30
0.0
 10
134.502106
 20
46.601104
 30
0.0
 10
134.364107
 20
46.501104
 30
0.0
 10
134.216106
 20
46.419104
 30
0.0
 10
134.058107
 20
46.357106
 30
0.0
 10
133.894107
 20
46.315106
 30
0.0
 10
133.726107
 20
46.294108
 30
0.0
 10
133.556107
 20
46.294105
 30
0.0
 10
133.388106
 20
46.315103
 30
0.0
 10
133.224107
 20
46.357106
 30
0.0
 10
133.066106
 20
46.419104
 30
0.0
 10
132.918107
 20
46.501104
 30
0.0
 10
132.780107
 20
46.601104
 30
0.0
 10
132.657107
 20
46.717106
 30
0.0
 10
132.549107
 20
46.847106
 30
0.0
 10
132.458107
 20
46.991104
 30
0.0
 10
132.386107
 20
47.144105
 30
0.0
 10
132.333106
 20
47.305104
 30
0.0
 10
132.302107
 20
47.472104
 30
0.0
 10
132.291106
 20
47.641104
 30
0.0
  0
LWPOLYLINE
  5
134
100
AcDbEntity
  8
Ebene_1
 62
7
100
AcDbPolyline
 90
5
 70
0
 10
135.141107
 20
2.641098
 30
0.0
 10
135.141107
 20
7.641116
 30
0.0
 10
140.141107
 20
7.641116
 30
0.0
 10
140.141107
 20
2.641098
 30
0.0
 10
135.141107
 20
2.641098
 30
0.0
  0
LWPOLYLINE
  5
135
100
AcDbEntity
  8
Ebene_1
 62
7
100
AcDbPolyline
 90
5
 70
0
 10
135.141107
 20
10.141097
 30
0.0
 10
135.141107
 20
15.141115
 30
0.0
 10
140.141107
 20
15.141115
 30
0.0
 10
140.141107
 20
10.141097
 30
0.0
 10
135.141107
 20
10.141097
 30
0.0
  0
LWPOLYLINE
  5
136
100
AcDbEntity
  8
Ebene_1
 62
7
100
AcDbPolyline
 90
5
 70
0
 10
135.141107
 20
17.641096
 30
0.0
 10
135.141107
 20
22.641115
 30
0.0
 10
140.141107
 20
22.641115
 30
0.0
 10
140.141107
 20
17.641096
 30
0.0
 10
135.141107
 20
17.641096
 30
0.0
  0
LWPOLYLINE
  5
137
100
AcDbEntity
  8
Ebene_1
 62
7
100
AcDbPolyline
 90
51
 70
0
 10
141.641107
 20
3.641096
 30
0.0
 10
141.653107
 20
3.829113
 30
0.0
 10
141.688107
 20
4.014109
 30
0.0
 10
141.746107
 20
4.193095
 30
0.0
 10
141.827107
 20
4.364093
 30
0.0
 10
141.927106
 20
4.523097
 30
0.0
 10
142.048107
 20
4.668103
 30
0.0
 10
142.185107
 20
4.797107
 30
0.0
 10
142.337106
 20
4.907117
 30
0.0
 10
142.502107
 20
4.998105
 30
0.0
 10
142.677107
 20
5.068096
 30
0.0
 10
142.860107
 20
5.114099
 30
0.0
 10
143.047106
 20
5.138087
 30
0.0
 10
143.235107
 20
5.138116
 30
0.0
 10
143.422107
 20
5.114127
 30
0.0
 10
143.605107
 20
5.068096
 30
0.0
 10
143.780106
 20
4.998105
 30
0.0
 10
143.945107
 20
4.907117
 30
0.0
 10
144.097107
 20
4.797107
 30
0.0
 10
144.234107
 20
4.668103
 30
0.0
 10
144.355107
 20
4.523097
 30
0.0
 10
144.455107
 20
4.364093
 30
0.0
 10
144.536107
 20
4.193095
 30
0.0
 10
144.594106
 20
4.014109
 30
0.0
 10
144.629107
 20
3.829113
 30
0.0
 10
144.641107
 20
3.641096
 30
0.0
 10
144.629107
 20
3.453108
 30
0.0
 10
144.594106
 20
3.268111
 30
0.0
 10
144.536107
 20
3.089098
 30
0.0
 10
144.455107
 20
2.918099
 30
0.0
 10
144.355107
 20
2.759095
 30
0.0
 10
144.234107
 20
2.614118
 30
0.0
 10
144.097107
 20
2.485114
 30
0.0
 10
143.945107
 20
2.375104
 30
0.0
 10
143.780106
 20
2.284115
 30
0.0
 10
143.605107
 20
2.214096
 30
0.0
 10
143.422107
 20
2.168094
 30
0.0
 10
143.235107
 20
2.144105
 30
0.0
 10
143.047106
 20
2.144105
 30
0.0
 10
142.860107
 20
2.168094
 30
0.0
 10
142.677107
 20
2.214096
 30
0.0
 10
142.502107
 20
2.284115
 30
0.0
 10
142.337106
 20
2.375104
 30
0.0
 10
142.185107
 20
2.485114
 30
0.0
 10
142.048107
 20
2.614118
 30
0.0
 10
141.927106
 20
2.759095
 30
0.0
 10
141.827107
 20
2.918099
 30
0.0
 10
141.746107
 20
3.089098
 30
0.0
 10
141.688107
 20
3.268111
 30
0.0
 10
141.653106
 20
3.453108
 30
0.0
 10
141.641106
 20
3.641096
 30
0.0
  0
LWPOLYLINE
  5
138
100
AcDbEntity
  8
Ebene_1
 62
7
100
AcDbPolyline
 90
51
 70
0
 10
141.641107
 20
21.641117
 30
0.0
 10
141.653107
 20
21.829105
 30
0.0
 10
141.688107
 20
22.014101
 30
0.0
 10
141.746107
 20
22.193115
 30
0.0
 10
141.827107
 20
22.364113
 30
0.0
 10
141.927106
 20
22.523117
 30
0.0
 10
142.048107
 20
22.668095
 30
0.0
 10
142.185107
 20
22.797099
 30
0.0
 10
142.337106
 20
22.907109
 30
0.0
 10
142.502107
 20
22.998097
 30
0.0
 10
142.677107
 20
23.068117
 30
0.0
 10
142.860107
 20
23.114119
 30
0.0
 10
143.047106
 20
23.138108
 30
0.0
 10
143.235107
 20
23.138108
 30
0.0
 10
143.422107
 20
23.114119
 30
0.0
 10
143.605107
 20
23.068117
 30
0.0
 10
143.780106
 20
22.998097
 30
0.0
 10
143.945107
 20
22.907109
 30
0.0
 10
144.097107
 20
22.797099
 30
0.0
 10
144.234107
 20
22.668095
 30
0.0
 10
144.355107
 20
22.523117
 30
0.0
 10
144.455107
 20
22.364113
 30
0.0
 10
144.536107
 20
22.193115
 30
0.0
 10
144.594106
 20
22.014101
 30
0.0
 10
144.629107
 20
21.829105
 30
0.0
 10
144.641107
 20
21.641117
 30
0.0
 10
144.629107
 20
21.453100
 30
0.0
 10
144.594106
 20
21.268103
 30
0.0
 10
144.536107
 20
21.089118
 30
0.0
 10
144.455107
 20
20.918091
 30
0.0
 10
144.355107
 20
20.759116
 30
0.0
 10
144.234107
 20
20.614110
 30
0.0
 10
144.097107
 20
20.485106
 30
0.0
 10
143.945107
 20
20.375096
 30
0.0
 10
143.780106
 20
20.284107
 30
0.0
 10
143.605107
 20
20.214116
 30
0.0
 10
143.422107
 20
20.168114
 30
0.0
 10
143.235107
 20
20.144125
 30
0.0
 10
143.047106
 20
20.144097
 30
0.0
 10
142.860107
 20
20.168086
 30
0.0
 10
142.677107
 20
20.214116
 30
0.0
 10
142.502107
 20
20.284107
 30
0.0
 10
142.337106
 20
20.375096
 30
0.0
 10
142.185107
 20
20.485106
 30
0.0
 10
142.048107
 20
20.614110
 30
0.0
 10
141.927106
 20
20.759116
 30
0.0
 10
141.827107
 20
20.918091
 30
0.0
 10
141.746107
 20
21.089118
 30
0.0
 10
141.688107
 20
21.268103
 30
0.0
 10
141.653106
 20
21.453100
 30
0.0
 10
141.641106
 20
21.641117
 30
0.0
  0
LWPOLYLINE
  5
139
100
AcDbEntity
  8
Ebene_1
 62
7
100
AcDbPolyline
 90
5
 70
0
 10
145.141106
 20
35.141107
 30
0.0
 10
145.141106
 20
40.141105
 30
0.0
 10
150.141107
 20
40.141105
 30
0.0
 10
150.141107
 20
35.141107
 30
0.0
 10
145.141106
 20
35.141107
 30
0.0
  0
LWPOLYLINE
  5
13a
100
AcDbEntity
  8
Ebene_1
 62
7
100
AcDbPolyline
 90
5
 70
0
 10
146.141107
 20
2.641098
 30
0.0
 10
146.141107
 20
7.641116
 30
0.0
 10
151.141107
 20
7.641116
 30
0.0
 10
151.141107
 20
2.641098
 30
0.0
 10
146.141107
 20
2.641098
 30
0.0
  0
LWPOLYLINE
  5
13b
100
AcDbEntity
  8
Ebene_1
 62
7
100
AcDbPolyline
 90
5
 70
0
 10
146.141107
 20
10.141097
 30
0.0
 10
146.141107
 20
15.141115
 30
0.0
 10
151.141107
 20
15.141115
 30
0.0
 10
151.141107
 20
10.141097
 30
0.0
 10
146.141107
 20
10.141097
 30
0.0
  0
LWPOLYLINE
  5
13c
100
AcDbEntity
  8
Ebene_1
 62
7
100
AcDbPolyline
 90
5
 70
0
 10
146.141107
 20
17.641096
 30
0.0
 10
146.141107
 20
22.641115
 30
0.0
 10
151.141107
 20
22.641115
 30
0.0
 10
151.141107
 20
17.641096
 30
0.0
 10
146.141107
 20
17.641096
 30
0.0
  0
LWPOLYLINE
  5
13d
100
AcDbEntity
  8
Ebene_1
 62
7
100
AcDbPolyline
 90
51
 70
0
 10
153.641107
 20
42.641106
 30
0.0
 10
153.673106
 20
43.142107
 30
0.0
 10
153.767106
 20
43.636105
 30
0.0
 10
153.922107
 20
44.113106
 30
0.0
 10
154.136107
 20
44.568105
 30
0.0
 10
154.405106
 20
44.992104
 30
0.0
 10
154.725107
 20
45.379104
 30
0.0
 10
155.091107
 20
45.723105
 30
0.0
 10
155.498107
 20
46.018106
 30
0.0
 10
155.938107
 20
46.260106
 30
0.0
 10
156.405106
 20
46.445106
 30
0.0
 10
156.891107
 20
46.570105
 30
0.0
 10
157.390107
 20
46.633105
 30
0.0
 10
157.892107
 20
46.633105
 30
0.0
 10
158.391106
 20
46.570105
 30
0.0
 10
158.877107
 20
46.445106
 30
0.0
 10
159.344107
 20
46.260106
 30
0.0
 10
159.784107
 20
46.018106
 30
0.0
 10
160.191107
 20
45.723105
 30
0.0
 10
160.557106
 20
45.379104
 30
0.0
 10
160.877107
 20
44.992104
 30
0.0
 10
161.146106
 20
44.568105
 30
0.0
 10
161.360107
 20
44.113106
 30
0.0
 10
161.515107
 20
43.636105
 30
0.0
 10
161.609107
 20
43.142107
 30
0.0
 10
161.641106
 20
42.641106
 30
0.0
 10
161.609107
 20
42.140105
 30
0.0
 10
161.515107
 20
41.646106
 30
0.0
 10
161.360107
 20
41.169105
 30
0.0
 10
161.146106
 20
40.714106
 30
0.0
 10
160.877107
 20
40.290104
 30
0.0
 10
160.557106
 20
39.903104
 30
0.0
 10
160.191107
 20
39.559103
 30
0.0
 10
159.784107
 20
39.264105
 30
0.0
 10
159.344107
 20
39.022105
 30
0.0
 10
158.877107
 20
38.837106
 30
0.0
 10
158.391106
 20
38.712104
 30
0.0
 10
157.892107
 20
38.649106
 30
0.0
 10
157.390107
 20
38.649106
 30
0.0
 10
156.891107
 20
38.712104
 30
0.0
 10
156.405106
 20
38.837106
 30
0.0
 10
155.938107
 20
39.022105
 30
0.0
 10
155.498107
 20
39.264105
 30
0.0
 10
155.091107
 20
39.559103
 30
0.0
 10
154.725107
 20
39.903104
 30
0.0
 10
154.405106
 20
40.290104
 30
0.0
 10
154.136107
 20
40.714106
 30
0.0
 10
153.922107
 20
41.169105
 30
0.0
 10
153.767106
 20
41.646106
 30
0.0
 10
153.673106
 20
42.140105
 30
0.0
 10
153.641107
 20
42.641106
 30
0.0
  0
LWPOLYLINE
  5
13e
100
AcDbEntity
  8
Ebene_1
 62
7
100
AcDbPolyline
 90
5
 70
0
 10
155.141106
 20
2.641098
 30
0.0
 10
155.141106
 20
7.641116
 30
0.0
 10
160.141107
 20
7.641116
 30
0.0
 10
160.141107
 20
2.641098
 30
0.0
 10
155.141106
 20
2.641098
 30
0.0
  0
LWPOLYLINE
  5
13f
100
AcDbEntity
  8
Ebene_1
 62
7
100
AcDbPolyline
 90
5
 70
0
 10
155.141106
 20
10.141097
 30
0.0
 10
155.141106
 20
15.141115
 30
0.0
 10
160.141107
 20
15.141115
 30
0.0
 10
160.141107
 20
10.141097
 30
0.0
 10
155.141106
 20
10.141097
 30
0.0
  0
LWPOLYLINE
  5
140
100
AcDbEntity
  8
Ebene_1
 62
7
100
AcDbPolyline
 90
5
 70
0
 10
155.141106
 20
17.641096
 30
0.0
 10
155.141106
 20
22.641115
 30
0.0
 10
160.141107
 20
22.641115
 30
0.0
 10
160.141107
 20
17.641096
 30
0.0
 10
155.141106
 20
17.641096
 30
0.0
  0
LWPOLYLINE
  5
141
100
AcDbEntity
  8
Ebene_1
 62
7
100
AcDbPolyline
 90
5
 70
0
 10
164.141107
 20
2.641098
 30
0.0
 10
164.141107
 20
7.641116
 30
0.0
 10
169.141106
 20
7.641116
 30
0.0
 10
169.141106
 20
2.641098
 30
0.0
 10
164.141107
 20
2.641098
 30
0.0
  0
LWPOLYLINE
  5
142
100
AcDbEntity
  8
Ebene_1
 62
7
100
AcDbPolyline
 90
5
 70
0
 10
164.141107
 20
10.141097
 30
0.0
 10
164.141107
 20
15.141115
 30
0.0
 10
169.141106
 20
15.141115
 30
0.0
 10
169.141106
 20
10.141097
 30
0.0
 10
164.141107
 20
10.141097
 30
0.0
  0
LWPOLYLINE
  5
143
100
AcDbEntity
  8
Ebene_1
 62
7
100
AcDbPolyline
 90
5
 70
0
 10
164.141107
 20
17.641096
 30
0.0
 10
164.141107
 20
22.641115
 30
0.0
 10
169.141106
 20
22.641115
 30
0.0
 10
169.141106
 20
17.641096
 30
0.0
 10
164.141107
 20
17.641096
 30
0.0
  0
LWPOLYLINE
  5
144
100
AcDbEntity
  8
Ebene_1
 62
7
100
AcDbPolyline
 90
5
 70
0
 10
165.141107
 20
35.141107
 30
0.0
 10
165.141107
 20
40.141105
 30
0.0
 10
170.141107
 20
40.141105
 30
0.0
 10
170.141107
 20
35.141107
 30
0.0
 10
165.141107
 20
35.141107
 30
0.0
  0
LWPOLYLINE
  5
145
100
AcDbEntity
  8
Ebene_1
 62
7
100
AcDbPolyline
 90
51
 70
0
 10
170.641107
 20
3.641096
 30
0.0
 10
170.653107
 20
3.829113
 30
0.0
 10
170.688107
 20
4.014109
 30
0.0
 10
170.746106
 20
4.193095
 30
0.0
 10
170.827106
 20
4.364093
 30
0.0
 10
170.927107
 20
4.523097
 30
0.0
 10
171.048107
 20
4.668103
 30
0.0
 10
171.185107
 20
4.797107
 30
0.0
 10
171.337107
 20
4.907117
 30
0.0
 10
171.502107
 20
4.998105
 30
0.0
 10
171.677106
 20
5.068096
 30
0.0
 10
171.860106
 20
5.114099
 30
0.0
 10
172.047107
 20
5.138087
 30
0.0
 10
172.235107
 20
5.138116
 30
0.0
 10
172.422107
 20
5.114127
 30
0.0
 10
172.605106
 20
5.068096
 30
0.0
 10
172.780107
 20
4.998105
 30
0.0
 10
172.945107
 20
4.907117
 30
0.0
 10
173.097106
 20
4.797107
 30
0.0
 10
173.234106
 20
4.668103
 30
0.0
 10
173.355107
 20
4.523097
 30
0.0
 10
173.455106
 20
4.364093
 30
0.0
 10
173.536107
 20
4.193095
 30
0.0
 10
173.594107
 20
4.014109
 30
0.0
 10
173.629107
 20
3.829113
 30
0.0
 10
173.641107
 20
3.641096
 30
0.0
 10
173.629106
 20
3.453108
 30
0.0
 10
173.594107
 20
3.268111
 30
0.0
 10
173.536107
 20
3.089098
 30
0.0
 10
173.455106
 20
2.918099
 30
0.0
 10
173.355107
 20
2.759095
 30
0.0
 10
173.234106
 20
2.614118
 30
0.0
 10
173.097106
 20
2.485114
 30
0.0
 10
172.945107
 20
2.375104
 30
0.0
 10
172.780107
 20
2.284115
 30
0.0
 10
172.605106
 20
2.214096
 30
0.0
 10
172.422107
 20
2.168094
 30
0.0
 10
172.235107
 20
2.144105
 30
0.0
 10
172.047107
 20
2.144105
 30
0.0
 10
171.860106
 20
2.168094
 30
0.0
 10
171.677106
 20
2.214096
 30
0.0
 10
171.502107
 20
2.284115
 30
0.0
 10
171.337107
 20
2.375104
 30
0.0
 10
171.185107
 20
2.485114
 30
0.0
 10
171.048107
 20
2.614118
 30
0.0
 10
170.927107
 20
2.759095
 30
0.0
 10
170.827106
 20
2.918099
 30
0.0
 10
170.746106
 20
3.089098
 30
0.0
 10
170.688107
 20
3.268111
 30
0.0
 10
170.653107
 20
3.453108
 30
0.0
 10
170.641107
 20
3.641096
 30
0.0
  0
LWPOLYLINE
  5
146
100
AcDbEntity
  8
Ebene_1
 62
7
100
AcDbPolyline
 90
51
 70
0
 10
170.641107
 20
21.641117
 30
0.0
 10
170.653107
 20
21.829105
 30
0.0
 10
170.688107
 20
22.014101
 30
0.0
 10
170.746106
 20
22.193115
 30
0.0
 10
170.827106
 20
22.364113
 30
0.0
 10
170.927107
 20
22.523117
 30
0.0
 10
171.048107
 20
22.668095
 30
0.0
 10
171.185107
 20
22.797099
 30
0.0
 10
171.337107
 20
22.907109
 30
0.0
 10
171.502107
 20
22.998097
 30
0.0
 10
171.677106
 20
23.068117
 30
0.0
 10
171.860106
 20
23.114119
 30
0.0
 10
172.047107
 20
23.138108
 30
0.0
 10
172.235107
 20
23.138108
 30
0.0
 10
172.422107
 20
23.114119
 30
0.0
 10
172.605106
 20
23.068117
 30
0.0
 10
172.780107
 20
22.998097
 30
0.0
 10
172.945107
 20
22.907109
 30
0.0
 10
173.097106
 20
22.797099
 30
0.0
 10
173.234106
 20
22.668095
 30
0.0
 10
173.355107
 20
22.523117
 30
0.0
 10
173.455106
 20
22.364113
 30
0.0
 10
173.536107
 20
22.193115
 30
0.0
 10
173.594107
 20
22.014101
 30
0.0
 10
173.629107
 20
21.829105
 30
0.0
 10
173.641107
 20
21.641117
 30
0.0
 10
173.629106
 20
21.453100
 30
0.0
 10
173.594107
 20
21.268103
 30
0.0
 10
173.536107
 20
21.089118
 30
0.0
 10
173.455106
 20
20.918091
 30
0.0
 10
173.355107
 20
20.759116
 30
0.0
 10
173.234106
 20
20.614110
 30
0.0
 10
173.097106
 20
20.485106
 30
0.0
 10
172.945107
 20
20.375096
 30
0.0
 10
172.780107
 20
20.284107
 30
0.0
 10
172.605106
 20
20.214116
 30
0.0
 10
172.422107
 20
20.168114
 30
0.0
 10
172.235107
 20
20.144125
 30
0.0
 10
172.047107
 20
20.144097
 30
0.0
 10
171.860106
 20
20.168086
 30
0.0
 10
171.677106
 20
20.214116
 30
0.0
 10
171.502107
 20
20.284107
 30
0.0
 10
171.337107
 20
20.375096
 30
0.0
 10
171.185107
 20
20.485106
 30
0.0
 10
171.048107
 20
20.614110
 30
0.0
 10
170.927107
 20
20.759116
 30
0.0
 10
170.827106
 20
20.918091
 30
0.0
 10
170.746106
 20
21.089118
 30
0.0
 10
170.688107
 20
21.268103
 30
0.0
 10
170.653107
 20
21.453100
 30
0.0
 10
170.641107
 20
21.641117
 30
0.0
  0
LWPOLYLINE
  5
147
100
AcDbEntity
  8
Ebene_1
 62
7
100
AcDbPolyline
 90
5
 70
0
 10
175.141107
 20
2.641098
 30
0.0
 10
175.141107
 20
7.641116
 30
0.0
 10
180.141106
 20
7.641116
 30
0.0
 10
180.141106
 20
2.641098
 30
0.0
 10
175.141107
 20
2.641098
 30
0.0
  0
LWPOLYLINE
  5
148
100
AcDbEntity
  8
Ebene_1
 62
7
100
AcDbPolyline
 90
5
 70
0
 10
175.141107
 20
10.141097
 30
0.0
 10
175.141107
 20
15.141115
 30
0.0
 10
180.141106
 20
15.141115
 30
0.0
 10
180.141106
 20
10.141097
 30
0.0
 10
175.141107
 20
10.141097
 30
0.0
  0
LWPOLYLINE
  5
149
100
AcDbEntity
  8
Ebene_1
 62
7
100
AcDbPolyline
 90
5
 70
0
 10
175.141107
 20
17.641096
 30
0.0
 10
175.141107
 20
22.641115
 30
0.0
 10
180.141106
 20
22.641115
 30
0.0
 10
180.141106
 20
17.641096
 30
0.0
 10
175.141107
 20
17.641096
 30
0.0
  0
LWPOLYLINE
  5
14a
100
AcDbEntity
  8
Ebene_1
 62
7
100
AcDbPolyline
 90
51
 70
0
 10
180.291107
 20
47.641104
 30
0.0
 10
180.302108
 20
47.810104
 30
0.0
 10
180.333106
 20
47.977104
 30
0.0
 10
180.386107
 20
48.138106
 30
0.0
 10
180.458107
 20
48.291104
 30
0.0
 10
180.549107
 20
48.435105
 30
0.0
 10
180.657107
 20
48.565105
 30
0.0
 10
180.780107
 20
48.681104
 30
0.0
 10
180.918107
 20
48.781104
 30
0.0
 10
181.066107
 20
48.863107
 30
0.0
 10
181.224107
 20
48.925105
 30
0.0
 10
181.388106
 20
48.967105
 30
0.0
 10
181.556107
 20
48.988103
 30
0.0
 10
181.726107
 20
48.988106
 30
0.0
 10
181.894107
 20
48.967108
 30
0.0
 10
182.058107
 20
48.925105
 30
0.0
 10
182.216107
 20
48.863107
 30
0.0
 10
182.364107
 20
48.781104
 30
0.0
 10
182.502106
 20
48.681104
 30
0.0
 10
182.625106
 20
48.565105
 30
0.0
 10
182.733106
 20
48.435105
 30
0.0
 10
182.824106
 20
48.291104
 30
0.0
 10
182.896106
 20
48.138106
 30
0.0
 10
182.949107
 20
47.977104
 30
0.0
 10
182.980106
 20
47.810104
 30
0.0
 10
182.991108
 20
47.641104
 30
0.0
 10
182.980106
 20
47.472104
 30
0.0
 10
182.949107
 20
47.305104
 30
0.0
 10
182.896106
 20
47.144105
 30
0.0
 10
182.824106
 20
46.991104
 30
0.0
 10
182.733106
 20
46.847106
 30
0.0
 10
182.625106
 20
46.717106
 30
0.0
 10
182.502106
 20
46.601104
 30
0.0
 10
182.364107
 20
46.501104
 30
0.0
 10
182.216107
 20
46.419104
 30
0.0
 10
182.058107
 20
46.357106
 30
0.0
 10
181.894107
 20
46.315106
 30
0.0
 10
181.726107
 20
46.294108
 30
0.0
 10
181.556107
 20
46.294105
 30
0.0
 10
181.388106
 20
46.315103
 30
0.0
 10
181.224107
 20
46.357106
 30
0.0
 10
181.066107
 20
46.419104
 30
0.0
 10
180.918107
 20
46.501104
 30
0.0
 10
180.780107
 20
46.601104
 30
0.0
 10
180.657107
 20
46.717106
 30
0.0
 10
180.549107
 20
46.847106
 30
0.0
 10
180.458107
 20
46.991104
 30
0.0
 10
180.386107
 20
47.144105
 30
0.0
 10
180.333106
 20
47.305104
 30
0.0
 10
180.302107
 20
47.472104
 30
0.0
 10
180.291106
 20
47.641104
 30
0.0
  0
LWPOLYLINE
  5
14b
100
AcDbEntity
  8
Ebene_1
 62
7
100
AcDbPolyline
 90
61
 70
0
 10
189.141106
 20
2.641098
 30
0.0
 10
189.141106
 20
7.641116
 30
0.0
 10
194.141105
 20
7.641116
 30
0.0
 10
194.141105
 20
10.141097
 30
0.0
 10
189.141106
 20
10.141097
 30
0.0
 10
189.141106
 20
15.141115
 30
0.0
 10
194.141105
 20
15.141115
 30
0.0
 10
194.141105
 20
17.641096
 30
0.0
 10
189.141106
 20
17.641096
 30
0.0
 10
189.141106
 20
22.641115
 30
0.0
 10
194.141105
 20
22.641115
 30
0.0
 10
194.141105
 20
27.741104
 30
0.0
 10
196.816105
 20
27.741104
 30
0.0
 10
196.816105
 20
26.491105
 30
0.0
 10
198.466105
 20
26.491105
 30
0.0
 10
198.466105
 20
27.741104
 30
0.0
 10
200.641105
 20
27.741104
 30
0.0
 10
200.641105
 20
30.541104
 30
0.0
 10
198.466105
 20
30.541104
 30
0.0
 10
198.466105
 20
31.791106
 30
0.0
 10
196.816105
 20
31.791106
 30
0.0
 10
196.816105
 20
30.541104
 30
0.0
 10
194.141105
 20
30.541104
 30
0.0
 10
194.141105
 20
50.141105
 30
0.0
 10
208.141105
 20
50.141105
 30
0.0
 10
208.141105
 20
45.141106
 30
0.0
 10
213.141105
 20
45.141106
 30
0.0
 10
213.141105
 20
50.141105
 30
0.0
 10
228.141105
 20
50.141105
 30
0.0
 10
228.141105
 20
45.141106
 30
0.0
 10
233.141105
 20
45.141106
 30
0.0
 10
233.141105
 20
50.141105
 30
0.0
 10
247.141105
 20
50.141105
 30
0.0
 10
247.141105
 20
30.541104
 30
0.0
 10
244.466105
 20
30.541104
 30
0.0
 10
244.466105
 20
31.791106
 30
0.0
 10
242.816105
 20
31.791106
 30
0.0
 10
242.816105
 20
30.541104
 30
0.0
 10
240.641105
 20
30.541104
 30
0.0
 10
240.641105
 20
27.741104
 30
0.0
 10
242.816105
 20
27.741104
 30
0.0
 10
242.816105
 20
26.491105
 30
0.0
 10
244.466105
 20
26.491105
 30
0.0
 10
244.466105
 20
27.741104
 30
0.0
 10
247.141105
 20
27.741104
 30
0.0
 10
247.141105
 20
22.641115
 30
0.0
 10
252.141104
 20
22.641115
 30
0.0
 10
252.141104
 20
17.641096
 30
0.0
 10
247.141105
 20
17.641096
 30
0.0
 10
247.141105
 20
15.141115
 30
0.0
 10
252.141104
 20
15.141115
 30
0.0
 10
252.141104
 20
10.141097
 30
0.0
 10
247.141105
 20
10.141097
 30
0.0
 10
247.141105
 20
7.641116
 30
0.0
 10
252.141104
 20
7.641116
 30
0.0
 10
252.141104
 20
2.641098
 30
0.0
 10
247.141105
 20
2.641098
 30
0.0
 10
247.141105
 20
0.141117
 30
0.0
 10
194.141105
 20
0.141117
 30
0.0
 10
194.141105
 20
2.641098
 30
0.0
 10
189.141106
 20
2.641098
 30
0.0
  0
LWPOLYLINE
  5
14c
100
AcDbEntity
  8
Ebene_1
 62
7
100
AcDbPolyline
 90
51
 70
0
 10
195.291105
 20
47.641104
 30
0.0
 10
195.302106
 20
47.810104
 30
0.0
 10
195.333105
 20
47.977104
 30
0.0
 10
195.386105
 20
48.138106
 30
0.0
 10
195.458105
 20
48.291104
 30
0.0
 10
195.549105
 20
48.435105
 30
0.0
 10
195.657105
 20
48.565105
 30
0.0
 10
195.780105
 20
48.681104
 30
0.0
 10
195.918105
 20
48.781104
 30
0.0
 10
196.066105
 20
48.863107
 30
0.0
 10
196.224105
 20
48.925105
 30
0.0
 10
196.388105
 20
48.967105
 30
0.0
 10
196.556105
 20
48.988103
 30
0.0
 10
196.726105
 20
48.988106
 30
0.0
 10
196.894105
 20
48.967108
 30
0.0
 10
197.058105
 20
48.925105
 30
0.0
 10
197.216105
 20
48.863107
 30
0.0
 10
197.364105
 20
48.781104
 30
0.0
 10
197.502105
 20
48.681104
 30
0.0
 10
197.625105
 20
48.565105
 30
0.0
 10
197.733105
 20
48.435105
 30
0.0
 10
197.824105
 20
48.291104
 30
0.0
 10
197.896105
 20
48.138106
 30
0.0
 10
197.949105
 20
47.977104
 30
0.0
 10
197.980105
 20
47.810104
 30
0.0
 10
197.991106
 20
47.641104
 30
0.0
 10
197.980104
 20
47.472104
 30
0.0
 10
197.949105
 20
47.305104
 30
0.0
 10
197.896105
 20
47.144105
 30
0.0
 10
197.824105
 20
46.991104
 30
0.0
 10
197.733105
 20
46.847106
 30
0.0
 10
197.625105
 20
46.717106
 30
0.0
 10
197.502105
 20
46.601104
 30
0.0
 10
197.364105
 20
46.501104
 30
0.0
 10
197.216105
 20
46.419104
 30
0.0
 10
197.058105
 20
46.357106
 30
0.0
 10
196.894105
 20
46.315106
 30
0.0
 10
196.726105
 20
46.294108
 30
0.0
 10
196.556105
 20
46.294105
 30
0.0
 10
196.388105
 20
46.315103
 30
0.0
 10
196.224105
 20
46.357106
 30
0.0
 10
196.066105
 20
46.419104
 30
0.0
 10
195.918105
 20
46.501104
 30
0.0
 10
195.780105
 20
46.601104
 30
0.0
 10
195.657105
 20
46.717106
 30
0.0
 10
195.549105
 20
46.847106
 30
0.0
 10
195.458105
 20
46.991104
 30
0.0
 10
195.386105
 20
47.144105
 30
0.0
 10
195.333105
 20
47.305104
 30
0.0
 10
195.302105
 20
47.472104
 30
0.0
 10
195.291104
 20
47.641104
 30
0.0
  0
LWPOLYLINE
  5
14d
100
AcDbEntity
  8
Ebene_1
 62
7
100
AcDbPolyline
 90
5
 70
0
 10
198.141105
 20
2.641098
 30
0.0
 10
198.141105
 20
7.641116
 30
0.0
 10
203.141105
 20
7.641116
 30
0.0
 10
203.141105
 20
2.641098
 30
0.0
 10
198.141105
 20
2.641098
 30
0.0
  0
LWPOLYLINE
  5
14e
100
AcDbEntity
  8
Ebene_1
 62
7
100
AcDbPolyline
 90
5
 70
0
 10
198.141105
 20
10.141097
 30
0.0
 10
198.141105
 20
15.141115
 30
0.0
 10
203.141105
 20
15.141115
 30
0.0
 10
203.141105
 20
10.141097
 30
0.0
 10
198.141105
 20
10.141097
 30
0.0
  0
LWPOLYLINE
  5
14f
100
AcDbEntity
  8
Ebene_1
 62
7
100
AcDbPolyline
 90
5
 70
0
 10
198.141105
 20
17.641096
 30
0.0
 10
198.141105
 20
22.641115
 30
0.0
 10
203.141105
 20
22.641115
 30
0.0
 10
203.141105
 20
17.641096
 30
0.0
 10
198.141105
 20
17.641096
 30
0.0
  0
LWPOLYLINE
  5
150
100
AcDbEntity
  8
Ebene_1
 62
7
100
AcDbPolyline
 90
51
 70
0
 10
204.641105
 20
3.641096
 30
0.0
 10
204.653105
 20
3.829113
 30
0.0
 10
204.688105
 20
4.014109
 30
0.0
 10
204.746105
 20
4.193095
 30
0.0
 10
204.827105
 20
4.364093
 30
0.0
 10
204.927105
 20
4.523097
 30
0.0
 10
205.048105
 20
4.668103
 30
0.0
 10
205.185105
 20
4.797107
 30
0.0
 10
205.337105
 20
4.907117
 30
0.0
 10
205.502105
 20
4.998105
 30
0.0
 10
205.677105
 20
5.068096
 30
0.0
 10
205.860105
 20
5.114099
 30
0.0
 10
206.047105
 20
5.138087
 30
0.0
 10
206.235105
 20
5.138116
 30
0.0
 10
206.422105
 20
5.114127
 30
0.0
 10
206.605105
 20
5.068096
 30
0.0
 10
206.780105
 20
4.998105
 30
0.0
 10
206.945105
 20
4.907117
 30
0.0
 10
207.097105
 20
4.797107
 30
0.0
 10
207.234105
 20
4.668103
 30
0.0
 10
207.355105
 20
4.523097
 30
0.0
 10
207.455105
 20
4.364093
 30
0.0
 10
207.536105
 20
4.193095
 30
0.0
 10
207.594105
 20
4.014109
 30
0.0
 10
207.629105
 20
3.829113
 30
0.0
 10
207.641105
 20
3.641096
 30
0.0
 10
207.629105
 20
3.453108
 30
0.0
 10
207.594105
 20
3.268111
 30
0.0
 10
207.536105
 20
3.089098
 30
0.0
 10
207.455105
 20
2.918099
 30
0.0
 10
207.355105
 20
2.759095
 30
0.0
 10
207.234105
 20
2.614118
 30
0.0
 10
207.097105
 20
2.485114
 30
0.0
 10
206.945105
 20
2.375104
 30
0.0
 10
206.780105
 20
2.284115
 30
0.0
 10
206.605105
 20
2.214096
 30
0.0
 10
206.422105
 20
2.168094
 30
0.0
 10
206.235105
 20
2.144105
 30
0.0
 10
206.047105
 20
2.144105
 30
0.0
 10
205.860105
 20
2.168094
 30
0.0
 10
205.677105
 20
2.214096
 30
0.0
 10
205.502105
 20
2.284115
 30
0.0
 10
205.337105
 20
2.375104
 30
0.0
 10
205.185105
 20
2.485114
 30
0.0
 10
205.048105
 20
2.614118
 30
0.0
 10
204.927105
 20
2.759095
 30
0.0
 10
204.827105
 20
2.918099
 30
0.0
 10
204.746105
 20
3.089098
 30
0.0
 10
204.688105
 20
3.268111
 30
0.0
 10
204.653105
 20
3.453108
 30
0.0
 10
204.641105
 20
3.641096
 30
0.0
  0
LWPOLYLINE
  5
151
100
AcDbEntity
  8
Ebene_1
 62
7
100
AcDbPolyline
 90
51
 70
0
 10
204.641105
 20
21.641117
 30
0.0
 10
204.653105
 20
21.829105
 30
0.0
 10
204.688105
 20
22.014101
 30
0.0
 10
204.746105
 20
22.193115
 30
0.0
 10
204.827105
 20
22.364113
 30
0.0
 10
204.927105
 20
22.523117
 30
0.0
 10
205.048105
 20
22.668095
 30
0.0
 10
205.185105
 20
22.797099
 30
0.0
 10
205.337105
 20
22.907109
 30
0.0
 10
205.502105
 20
22.998097
 30
0.0
 10
205.677105
 20
23.068117
 30
0.0
 10
205.860105
 20
23.114119
 30
0.0
 10
206.047105
 20
23.138108
 30
0.0
 10
206.235105
 20
23.138108
 30
0.0
 10
206.422105
 20
23.114119
 30
0.0
 10
206.605105
 20
23.068117
 30
0.0
 10
206.780105
 20
22.998097
 30
0.0
 10
206.945105
 20
22.907109
 30
0.0
 10
207.097105
 20
22.797099
 30
0.0
 10
207.234105
 20
22.668095
 30
0.0
 10
207.355105
 20
22.523117
 30
0.0
 10
207.455105
 20
22.364113
 30
0.0
 10
207.536105
 20
22.193115
 30
0.0
 10
207.594105
 20
22.014101
 30
0.0
 10
207.629105
 20
21.829105
 30
0.0
 10
207.641105
 20
21.641117
 30
0.0
 10
207.629105
 20
21.453100
 30
0.0
 10
207.594105
 20
21.268103
 30
0.0
 10
207.536105
 20
21.089118
 30
0.0
 10
207.455105
 20
20.918091
 30
0.0
 10
207.355105
 20
20.759116
 30
0.0
 10
207.234105
 20
20.614110
 30
0.0
 10
207.097105
 20
20.485106
 30
0.0
 10
206.945105
 20
20.375096
 30
0.0
 10
206.780105
 20
20.284107
 30
0.0
 10
206.605105
 20
20.214116
 30
0.0
 10
206.422105
 20
20.168114
 30
0.0
 10
206.235105
 20
20.144125
 30
0.0
 10
206.047105
 20
20.144097
 30
0.0
 10
205.860105
 20
20.168086
 30
0.0
 10
205.677105
 20
20.214116
 30
0.0
 10
205.502105
 20
20.284107
 30
0.0
 10
205.337105
 20
20.375096
 30
0.0
 10
205.185105
 20
20.485106
 30
0.0
 10
205.048105
 20
20.614110
 30
0.0
 10
204.927105
 20
20.759116
 30
0.0
 10
204.827105
 20
20.918091
 30
0.0
 10
204.746105
 20
21.089118
 30
0.0
 10
204.688105
 20
21.268103
 30
0.0
 10
204.653105
 20
21.453100
 30
0.0
 10
204.641105
 20
21.641117
 30
0.0
  0
LWPOLYLINE
  5
152
100
AcDbEntity
  8
Ebene_1
 62
7
100
AcDbPolyline
 90
5
 70
0
 10
208.141105
 20
35.141107
 30
0.0
 10
208.141105
 20
40.141105
 30
0.0
 10
213.141105
 20
40.141105
 30
0.0
 10
213.141105
 20
35.141107
 30
0.0
 10
208.141105
 20
35.141107
 30
0.0
  0
LWPOLYLINE
  5
153
100
AcDbEntity
  8
Ebene_1
 62
7
100
AcDbPolyline
 90
5
 70
0
 10
209.141105
 20
2.641098
 30
0.0
 10
209.141105
 20
7.641116
 30
0.0
 10
214.141105
 20
7.641116
 30
0.0
 10
214.141105
 20
2.641098
 30
0.0
 10
209.141105
 20
2.641098
 30
0.0
  0
LWPOLYLINE
  5
154
100
AcDbEntity
  8
Ebene_1
 62
7
100
AcDbPolyline
 90
5
 70
0
 10
209.141105
 20
10.141097
 30
0.0
 10
209.141105
 20
15.141115
 30
0.0
 10
214.141105
 20
15.141115
 30
0.0
 10
214.141105
 20
10.141097
 30
0.0
 10
209.141105
 20
10.141097
 30
0.0
  0
LWPOLYLINE
  5
155
100
AcDbEntity
  8
Ebene_1
 62
7
100
AcDbPolyline
 90
5
 70
0
 10
209.141105
 20
17.641096
 30
0.0
 10
209.141105
 20
22.641115
 30
0.0
 10
214.141105
 20
22.641115
 30
0.0
 10
214.141105
 20
17.641096
 30
0.0
 10
209.141105
 20
17.641096
 30
0.0
  0
LWPOLYLINE
  5
156
100
AcDbEntity
  8
Ebene_1
 62
7
100
AcDbPolyline
 90
51
 70
0
 10
216.641105
 20
42.641106
 30
0.0
 10
216.673105
 20
43.142107
 30
0.0
 10
216.767105
 20
43.636105
 30
0.0
 10
216.922105
 20
44.113106
 30
0.0
 10
217.136105
 20
44.568105
 30
0.0
 10
217.405105
 20
44.992104
 30
0.0
 10
217.725105
 20
45.379104
 30
0.0
 10
218.091105
 20
45.723105
 30
0.0
 10
218.498105
 20
46.018106
 30
0.0
 10
218.938105
 20
46.260106
 30
0.0
 10
219.405105
 20
46.445106
 30
0.0
 10
219.891105
 20
46.570105
 30
0.0
 10
220.390105
 20
46.633105
 30
0.0
 10
220.892105
 20
46.633105
 30
0.0
 10
221.391105
 20
46.570105
 30
0.0
 10
221.877105
 20
46.445106
 30
0.0
 10
222.344105
 20
46.260106
 30
0.0
 10
222.784105
 20
46.018106
 30
0.0
 10
223.191105
 20
45.723105
 30
0.0
 10
223.557105
 20
45.379104
 30
0.0
 10
223.877105
 20
44.992104
 30
0.0
 10
224.146105
 20
44.568105
 30
0.0
 10
224.360105
 20
44.113106
 30
0.0
 10
224.515105
 20
43.636105
 30
0.0
 10
224.609105
 20
43.142107
 30
0.0
 10
224.641105
 20
42.641106
 30
0.0
 10
224.609105
 20
42.140105
 30
0.0
 10
224.515105
 20
41.646106
 30
0.0
 10
224.360105
 20
41.169105
 30
0.0
 10
224.146105
 20
40.714106
 30
0.0
 10
223.877105
 20
40.290104
 30
0.0
 10
223.557105
 20
39.903104
 30
0.0
 10
223.191105
 20
39.559103
 30
0.0
 10
222.784105
 20
39.264105
 30
0.0
 10
222.344105
 20
39.022105
 30
0.0
 10
221.877105
 20
38.837106
 30
0.0
 10
221.391105
 20
38.712104
 30
0.0
 10
220.892105
 20
38.649106
 30
0.0
 10
220.390105
 20
38.649106
 30
0.0
 10
219.891105
 20
38.712104
 30
0.0
 10
219.405105
 20
38.837106
 30
0.0
 10
218.938105
 20
39.022105
 30
0.0
 10
218.498105
 20
39.264105
 30
0.0
 10
218.091105
 20
39.559103
 30
0.0
 10
217.725105
 20
39.903104
 30
0.0
 10
217.405105
 20
40.290104
 30
0.0
 10
217.136105
 20
40.714106
 30
0.0
 10
216.922105
 20
41.169105
 30
0.0
 10
216.767105
 20
41.646106
 30
0.0
 10
216.673105
 20
42.140105
 30
0.0
 10
216.641105
 20
42.641106
 30
0.0
  0
LWPOLYLINE
  5
157
100
AcDbEntity
  8
Ebene_1
 62
7
100
AcDbPolyline
 90
5
 70
0
 10
218.141105
 20
2.641098
 30
0.0
 10
218.141105
 20
7.641116
 30
0.0
 10
223.141105
 20
7.641116
 30
0.0
 10
223.141105
 20
2.641098
 30
0.0
 10
218.141105
 20
2.641098
 30
0.0
  0
LWPOLYLINE
  5
158
100
AcDbEntity
  8
Ebene_1
 62
7
100
AcDbPolyline
 90
5
 70
0
 10
218.141105
 20
10.141097
 30
0.0
 10
218.141105
 20
15.141115
 30
0.0
 10
223.141105
 20
15.141115
 30
0.0
 10
223.141105
 20
10.141097
 30
0.0
 10
218.141105
 20
10.141097
 30
0.0
  0
LWPOLYLINE
  5
159
100
AcDbEntity
  8
Ebene_1
 62
7
100
AcDbPolyline
 90
5
 70
0
 10
218.141105
 20
17.641096
 30
0.0
 10
218.141105
 20
22.641115
 30
0.0
 10
223.141105
 20
22.641115
 30
0.0
 10
223.141105
 20
17.641096
 30
0.0
 10
218.141105
 20
17.641096
 30
0.0
  0
LWPOLYLINE
  5
15a
100
AcDbEntity
  8
Ebene_1
 62
7
100
AcDbPolyline
 90
5
 70
0
 10
227.141105
 20
2.641098
 30
0.0
 10
227.141105
 20
7.641116
 30
0.0
 10
232.141105
 20
7.641116
 30
0.0
 10
232.141105
 20
2.641098
 30
0.0
 10
227.141105
 20
2.641098
 30
0.0
  0
LWPOLYLINE
  5
15b
100
AcDbEntity
  8
Ebene_1
 62
7
100
AcDbPolyline
 90
5
 70
0
 10
227.141105
 20
10.141097
 30
0.0
 10
227.141105
 20
15.141115
 30
0.0
 10
232.141105
 20
15.141115
 30
0.0
 10
232.141105
 20
10.141097
 30
0.0
 10
227.141105
 20
10.141097
 30
0.0
  0
LWPOLYLINE
  5
15c
100
AcDbEntity
  8
Ebene_1
 62
7
100
AcDbPolyline
 90
5
 70
0
 10
227.141105
 20
17.641096
 30
0.0
 10
227.141105
 20
22.641115
 30
0.0
 10
232.141105
 20
22.641115
 30
0.0
 10
232.141105
 20
17.641096
 30
0.0
 10
227.141105
 20
17.641096
 30
0.0
  0
LWPOLYLINE
  5
15d
100
AcDbEntity
  8
Ebene_1
 62
7
100
AcDbPolyline
 90
5
 70
0
 10
228.141105
 20
35.141107
 30
0.0
 10
228.141105
 20
40.141105
 30
0.0
 10
233.141105
 20
40.141105
 30
0.0
 10
233.141105
 20
35.141107
 30
0.0
 10
228.141105
 20
35.141107
 30
0.0
  0
LWPOLYLINE
  5
15e
100
AcDbEntity
  8
Ebene_1
 62
7
100
AcDbPolyline
 90
51
 70
0
 10
233.641105
 20
3.641096
 30
0.0
 10
233.653105
 20
3.829113
 30
0.0
 10
233.688105
 20
4.014109
 30
0.0
 10
233.746105
 20
4.193095
 30
0.0
 10
233.827105
 20
4.364093
 30
0.0
 10
233.927105
 20
4.523097
 30
0.0
 10
234.048105
 20
4.668103
 30
0.0
 10
234.185105
 20
4.797107
 30
0.0
 10
234.337105
 20
4.907117
 30
0.0
 10
234.502105
 20
4.998105
 30
0.0
 10
234.677105
 20
5.068096
 30
0.0
 10
234.860105
 20
5.114099
 30
0.0
 10
235.047105
 20
5.138087
 30
0.0
 10
235.235105
 20
5.138116
 30
0.0
 10
235.422105
 20
5.114127
 30
0.0
 10
235.605105
 20
5.068096
 30
0.0
 10
235.780105
 20
4.998105
 30
0.0
 10
235.945105
 20
4.907117
 30
0.0
 10
236.097105
 20
4.797107
 30
0.0
 10
236.234105
 20
4.668103
 30
0.0
 10
236.355105
 20
4.523097
 30
0.0
 10
236.455105
 20
4.364093
 30
0.0
 10
236.536105
 20
4.193095
 30
0.0
 10
236.594105
 20
4.014109
 30
0.0
 10
236.629105
 20
3.829113
 30
0.0
 10
236.641105
 20
3.641096
 30
0.0
 10
236.629105
 20
3.453108
 30
0.0
 10
236.594105
 20
3.268111
 30
0.0
 10
236.536105
 20
3.089098
 30
0.0
 10
236.455105
 20
2.918099
 30
0.0
 10
236.355105
 20
2.759095
 30
0.0
 10
236.234105
 20
2.614118
 30
0.0
 10
236.097105
 20
2.485114
 30
0.0
 10
235.945105
 20
2.375104
 30
0.0
 10
235.780105
 20
2.284115
 30
0.0
 10
235.605105
 20
2.214096
 30
0.0
 10
235.422105
 20
2.168094
 30
0.0
 10
235.235105
 20
2.144105
 30
0.0
 10
235.047105
 20
2.144105
 30
0.0
 10
234.860105
 20
2.168094
 30
0.0
 10
234.677105
 20
2.214096
 30
0.0
 10
234.502105
 20
2.284115
 30
0.0
 10
234.337105
 20
2.375104
 30
0.0
 10
234.185105
 20
2.485114
 30
0.0
 10
234.048105
 20
2.614118
 30
0.0
 10
233.927105
 20
2.759095
 30
0.0
 10
233.827105
 20
2.918099
 30
0.0
 10
233.746105
 20
3.089098
 30
0.0
 10
233.688105
 20
3.268111
 30
0.0
 10
233.653105
 20
3.453108
 30
0.0
 10
233.641105
 20
3.641096
 30
0.0
  0
LWPOLYLINE
  5
15f
100
AcDbEntity
  8
Ebene_1
 62
7
100
AcDbPolyline
 90
51
 70
0
 10
233.641105
 20
21.641117
 30
0.0
 10
233.653105
 20
21.829105
 30
0.0
 10
233.688105
 20
22.014101
 30
0.0
 10
233.746105
 20
22.193115
 30
0.0
 10
233.827105
 20
22.364113
 30
0.0
 10
233.927105
 20
22.523117
 30
0.0
 10
234.048105
 20
22.668095
 30
0.0
 10
234.185105
 20
22.797099
 30
0.0
 10
234.337105
 20
22.907109
 30
0.0
 10
234.502105
 20
22.998097
 30
0.0
 10
234.677105
 20
23.068117
 30
0.0
 10
234.860105
 20
23.114119
 30
0.0
 10
235.047105
 20
23.138108
 30
0.0
 10
235.235105
 20
23.138108
 30
0.0
 10
235.422105
 20
23.114119
 30
0.0
 10
235.605105
 20
23.068117
 30
0.0
 10
235.780105
 20
22.998097
 30
0.0
 10
235.945105
 20
22.907109
 30
0.0
 10
236.097105
 20
22.797099
 30
0.0
 10
236.234105
 20
22.668095
 30
0.0
 10
236.355105
 20
22.523117
 30
0.0
 10
236.455105
 20
22.364113
 30
0.0
 10
236.536105
 20
22.193115
 30
0.0
 10
236.594105
 20
22.014101
 30
0.0
 10
236.629105
 20
21.829105
 30
0.0
 10
236.641105
 20
21.641117
 30
0.0
 10
236.629105
 20
21.453100
 30
0.0
 10
236.594105
 20
21.268103
 30
0.0
 10
236.536105
 20
21.089118
 30
0.0
 10
236.455105
 20
20.918091
 30
0.0
 10
236.355105
 20
20.759116
 30
0.0
 10
236.234105
 20
20.614110
 30
0.0
 10
236.097105
 20
20.485106
 30
0.0
 10
235.945105
 20
20.375096
 30
0.0
 10
235.780105
 20
20.284107
 30
0.0
 10
235.605105
 20
20.214116
 30
0.0
 10
235.422105
 20
20.168114
 30
0.0
 10
235.235105
 20
20.144125
 30
0.0
 10
235.047105
 20
20.144097
 30
0.0
 10
234.860105
 20
20.168086
 30
0.0
 10
234.677105
 20
20.214116
 30
0.0
 10
234.502105
 20
20.284107
 30
0.0
 10
234.337105
 20
20.375096
 30
0.0
 10
234.185105
 20
20.485106
 30
0.0
 10
234.048105
 20
20.614110
 30
0.0
 10
233.927105
 20
20.759116
 30
0.0
 10
233.827105
 20
20.918091
 30
0.0
 10
233.746105
 20
21.089118
 30
0.0
 10
233.688105
 20
21.268103
 30
0.0
 10
233.653105
 20
21.453100
 30
0.0
 10
233.641105
 20
21.641117
 30
0.0
  0
LWPOLYLINE
  5
160
100
AcDbEntity
  8
Ebene_1
 62
7
100
AcDbPolyline
 90
5
 70
0
 10
238.141105
 20
2.641098
 30
0.0
 10
238.141105
 20
7.641116
 30
0.0
 10
243.141105
 20
7.641116
 30
0.0
 10
243.141105
 20
2.641098
 30
0.0
 10
238.141105
 20
2.641098
 30
0.0
  0
LWPOLYLINE
  5
161
100
AcDbEntity
  8
Ebene_1
 62
7
100
AcDbPolyline
 90
5
 70
0
 10
238.141105
 20
10.141097
 30
0.0
 10
238.141105
 20
15.141115
 30
0.0
 10
243.141105
 20
15.141115
 30
0.0
 10
243.141105
 20
10.141097
 30
0.0
 10
238.141105
 20
10.141097
 30
0.0
  0
LWPOLYLINE
  5
162
100
AcDbEntity
  8
Ebene_1
 62
7
100
AcDbPolyline
 90
5
 70
0
 10
238.141105
 20
17.641096
 30
0.0
 10
238.141105
 20
22.641115
 30
0.0
 10
243.141105
 20
22.641115
 30
0.0
 10
243.141105
 20
17.641096
 30
0.0
 10
238.141105
 20
17.641096
 30
0.0
  0
LWPOLYLINE
  5
163
100
AcDbEntity
  8
Ebene_1
 62
7
100
AcDbPolyline
 90
51
 70
0
 10
243.291105
 20
47.641104
 30
0.0
 10
243.302106
 20
47.810104
 30
0.0
 10
243.333105
 20
47.977104
 30
0.0
 10
243.386105
 20
48.138106
 30
0.0
 10
243.458105
 20
48.291104
 30
0.0
 10
243.549105
 20
48.435105
 30
0.0
 10
243.657105
 20
48.565105
 30
0.0
 10
243.780105
 20
48.681104
 30
0.0
 10
243.918105
 20
48.781104
 30
0.0
 10
244.066105
 20
48.863107
 30
0.0
 10
244.224105
 20
48.925105
 30
0.0
 10
244.388105
 20
48.967105
 30
0.0
 10
244.556105
 20
48.988103
 30
0.0
 10
244.726105
 20
48.988106
 30
0.0
 10
244.894105
 20
48.967108
 30
0.0
 10
245.058105
 20
48.925105
 30
0.0
 10
245.216105
 20
48.863107
 30
0.0
 10
245.364105
 20
48.781104
 30
0.0
 10
245.502105
 20
48.681104
 30
0.0
 10
245.625105
 20
48.565105
 30
0.0
 10
245.733105
 20
48.435105
 30
0.0
 10
245.824105
 20
48.291104
 30
0.0
 10
245.896105
 20
48.138106
 30
0.0
 10
245.949105
 20
47.977104
 30
0.0
 10
245.980105
 20
47.810104
 30
0.0
 10
245.991106
 20
47.641104
 30
0.0
 10
245.980104
 20
47.472104
 30
0.0
 10
245.949105
 20
47.305104
 30
0.0
 10
245.896105
 20
47.144105
 30
0.0
 10
245.824105
 20
46.991104
 30
0.0
 10
245.733105
 20
46.847106
 30
0.0
 10
245.625105
 20
46.717106
 30
0.0
 10
245.502105
 20
46.601104
 30
0.0
 10
245.364105
 20
46.501104
 30
0.0
 10
245.216105
 20
46.419104
 30
0.0
 10
245.058105
 20
46.357106
 30
0.0
 10
244.894105
 20
46.315106
 30
0.0
 10
244.726105
 20
46.294108
 30
0.0
 10
244.556105
 20
46.294105
 30
0.0
 10
244.388105
 20
46.315103
 30
0.0
 10
244.224105
 20
46.357106
 30
0.0
 10
244.066105
 20
46.419104
 30
0.0
 10
243.918105
 20
46.501104
 30
0.0
 10
243.780105
 20
46.601104
 30
0.0
 10
243.657105
 20
46.717106
 30
0.0
 10
243.549105
 20
46.847106
 30
0.0
 10
243.458105
 20
46.991104
 30
0.0
 10
243.386105
 20
47.144105
 30
0.0
 10
243.333105
 20
47.305104
 30
0.0
 10
243.302105
 20
47.472104
 30
0.0
 10
243.291104
 20
47.641104
 30
0.0
  0
LWPOLYLINE
  5
164
100
AcDbEntity
  8
Ebene_1
 62
7
100
AcDbPolyline
 90
5
 70
0
 10
252.141104
 20
2.641098
 30
0.0
 10
252.141104
 20
29.641101
 30
0.0
 10
275.641105
 20
29.641101
 30
0.0
 10
275.641105
 20
2.641098
 30
0.0
 10
252.141104
 20
2.641098
 30
0.0
  0
LWPOLYLINE
  5
165
100
AcDbEntity
  8
Ebene_1
 62
7
100
AcDbPolyline
 90
51
 70
0
 10
253.641104
 20
16.141113
 30
0.0
 10
253.700104
 20
17.081111
 30
0.0
 10
253.877104
 20
18.006123
 30
0.0
 10
254.168104
 20
18.902122
 30
0.0
 10
254.569104
 20
19.754122
 30
0.0
 10
255.073104
 20
20.549114
 30
0.0
 10
255.674104
 20
21.275103
 30
0.0
 10
256.360104
 20
21.920121
 30
0.0
 10
257.122104
 20
22.473108
 30
0.0
 10
257.948104
 20
22.927119
 30
0.0
 10
258.823104
 20
23.274111
 30
0.0
 10
259.736104
 20
23.508101
 30
0.0
 10
260.670104
 20
23.626098
 30
0.0
 10
261.612104
 20
23.626098
 30
0.0
 10
262.546104
 20
23.508101
 30
0.0
 10
263.459104
 20
23.274111
 30
0.0
 10
264.334104
 20
22.927119
 30
0.0
 10
265.160104
 20
22.473108
 30
0.0
 10
265.922104
 20
21.920121
 30
0.0
 10
266.608104
 20
21.275103
 30
0.0
 10
267.209104
 20
20.549114
 30
0.0
 10
267.713104
 20
19.754122
 30
0.0
 10
268.114104
 20
18.902122
 30
0.0
 10
268.405104
 20
18.006123
 30
0.0
 10
268.582104
 20
17.081111
 30
0.0
 10
268.641104
 20
16.141113
 30
0.0
 10
268.582104
 20
15.201116
 30
0.0
 10
268.405104
 20
14.276104
 30
0.0
 10
268.114104
 20
13.380105
 30
0.0
 10
267.713104
 20
12.528105
 30
0.0
 10
267.209104
 20
11.733113
 30
0.0
 10
266.608104
 20
11.007124
 30
0.0
 10
265.922104
 20
10.362105
 30
0.0
 10
265.160104
 20
9.809119
 30
0.0
 10
264.334104
 20
9.355108
 30
0.0
 10
263.459104
 20
9.008116
 30
0.0
 10
262.546104
 20
8.774126
 30
0.0
 10
261.612104
 20
8.656100
 30
0.0
 10
260.670104
 20
8.656100
 30
0.0
 10
259.736104
 20
8.774126
 30
0.0
 10
258.823104
 20
9.008116
 30
0.0
 10
257.948104
 20
9.355108
 30
0.0
 10
257.122104
 20
9.809119
 30
0.0
 10
256.360104
 20
10.362105
 30
0.0
 10
255.674104
 20
11.007124
 30
0.0
 10
255.073104
 20
11.733113
 30
0.0
 10
254.569104
 20
12.528105
 30
0.0
 10
254.168104
 20
13.380105
 30
0.0
 10
253.877104
 20
14.276104
 30
0.0
 10
253.700104
 20
15.201116
 30
0.0
 10
253.641104
 20
16.141113
 30
0.0
  0
LWPOLYLINE
  5
166
100
AcDbEntity
  8
Ebene_1
 62
7
100
AcDbPolyline
 90
51
 70
0
 10
259.641104
 20
6.141105
 30
0.0
 10
259.653104
 20
6.329122
 30
0.0
 10
259.688104
 20
6.514118
 30
0.0
 10
259.746104
 20
6.693104
 30
0.0
 10
259.827104
 20
6.864102
 30
0.0
 10
259.927104
 20
7.023106
 30
0.0
 10
260.048104
 20
7.168112
 30
0.0
 10
260.185104
 20
7.297116
 30
0.0
 10
260.337104
 20
7.407126
 30
0.0
 10
260.502104
 20
7.498114
 30
0.0
 10
260.677104
 20
7.568105
 30
0.0
 10
260.860104
 20
7.614108
 30
0.0
 10
261.047104
 20
7.638097
 30
0.0
 10
261.235104
 20
7.638125
 30
0.0
 10
261.422104
 20
7.614136
 30
0.0
 10
261.605104
 20
7.568105
 30
0.0
 10
261.780104
 20
7.498114
 30
0.0
 10
261.945104
 20
7.407126
 30
0.0
 10
262.097104
 20
7.297116
 30
0.0
 10
262.234104
 20
7.168112
 30
0.0
 10
262.355104
 20
7.023106
 30
0.0
 10
262.455104
 20
6.864102
 30
0.0
 10
262.536104
 20
6.693104
 30
0.0
 10
262.594104
 20
6.514118
 30
0.0
 10
262.629104
 20
6.329122
 30
0.0
 10
262.641104
 20
6.141105
 30
0.0
 10
262.629104
 20
5.953117
 30
0.0
 10
262.594104
 20
5.768120
 30
0.0
 10
262.536104
 20
5.589107
 30
0.0
 10
262.455104
 20
5.418108
 30
0.0
 10
262.355104
 20
5.259104
 30
0.0
 10
262.234104
 20
5.114099
 30
0.0
 10
262.097104
 20
4.985123
 30
0.0
 10
261.945104
 20
4.875113
 30
0.0
 10
261.780104
 20
4.784124
 30
0.0
 10
261.605104
 20
4.714105
 30
0.0
 10
261.422104
 20
4.668103
 30
0.0
 10
261.235104
 20
4.644114
 30
0.0
 10
261.047104
 20
4.644114
 30
0.0
 10
260.860104
 20
4.668103
 30
0.0
 10
260.677104
 20
4.714105
 30
0.0
 10
260.502104
 20
4.784124
 30
0.0
 10
260.337104
 20
4.875113
 30
0.0
 10
260.185104
 20
4.985123
 30
0.0
 10
260.048104
 20
5.114099
 30
0.0
 10
259.927104
 20
5.259104
 30
0.0
 10
259.827104
 20
5.418108
 30
0.0
 10
259.746104
 20
5.589107
 30
0.0
 10
259.688104
 20
5.768120
 30
0.0
 10
259.653104
 20
5.953117
 30
0.0
 10
259.641104
 20
6.141105
 30
0.0
  0
LWPOLYLINE
  5
167
100
AcDbEntity
  8
Ebene_1
 62
7
100
AcDbPolyline
 90
51
 70
0
 10
259.641104
 20
26.141122
 30
0.0
 10
259.653104
 20
26.329110
 30
0.0
 10
259.688104
 20
26.514107
 30
0.0
 10
259.746104
 20
26.693120
 30
0.0
 10
259.827104
 20
26.864119
 30
0.0
 10
259.927104
 20
27.023123
 30
0.0
 10
260.048104
 20
27.168100
 30
0.0
 10
260.185104
 20
27.297104
 30
0.0
 10
260.337104
 20
27.407114
 30
0.0
 10
260.502104
 20
27.498103
 30
0.0
 10
260.677104
 20
27.568122
 30
0.0
 10
260.860104
 20
27.614124
 30
0.0
 10
261.047104
 20
27.638113
 30
0.0
 10
261.235104
 20
27.638113
 30
0.0
 10
261.422104
 20
27.614124
 30
0.0
 10
261.605104
 20
27.568122
 30
0.0
 10
261.780104
 20
27.498103
 30
0.0
 10
261.945104
 20
27.407114
 30
0.0
 10
262.097104
 20
27.297104
 30
0.0
 10
262.234104
 20
27.168100
 30
0.0
 10
262.355104
 20
27.023123
 30
0.0
 10
262.455104
 20
26.864119
 30
0.0
 10
262.536104
 20
26.693120
 30
0.0
 10
262.594104
 20
26.514107
 30
0.0
 10
262.629104
 20
26.329110
 30
0.0
 10
262.641104
 20
26.141122
 30
0.0
 10
262.629104
 20
25.953105
 30
0.0
 10
262.594104
 20
25.768109
 30
0.0
 10
262.536104
 20
25.589123
 30
0.0
 10
262.455104
 20
25.418125
 30
0.0
 10
262.355104
 20
25.259121
 30
0.0
 10
262.234104
 20
25.114115
 30
0.0
 10
262.097104
 20
24.985111
 30
0.0
 10
261.945104
 20
24.875101
 30
0.0
 10
261.780104
 20
24.784113
 30
0.0
 10
261.605104
 20
24.714121
 30
0.0
 10
261.422104
 20
24.668119
 30
0.0
 10
261.235104
 20
24.644130
 30
0.0
 10
261.047104
 20
24.644102
 30
0.0
 10
260.860104
 20
24.668091
 30
0.0
 10
260.677104
 20
24.714121
 30
0.0
 10
260.502104
 20
24.784113
 30
0.0
 10
260.337104
 20
24.875101
 30
0.0
 10
260.185104
 20
24.985111
 30
0.0
 10
260.048104
 20
25.114115
 30
0.0
 10
259.927104
 20
25.259121
 30
0.0
 10
259.827104
 20
25.418125
 30
0.0
 10
259.746104
 20
25.589123
 30
0.0
 10
259.688104
 20
25.768109
 30
0.0
 10
259.653104
 20
25.953105
 30
0.0
 10
259.641104
 20
26.141122
 30
0.0
  0
LWPOLYLINE
  5
168
100
AcDbEntity
  8
Ebene_1
 62
7
100
AcDbPolyline
 90
51
 70
0
 10
270.641104
 20
6.141105
 30
0.0
 10
270.653098
 20
6.329122
 30
0.0
 10
270.688105
 20
6.514118
 30
0.0
 10
270.746104
 20
6.693104
 30
0.0
 10
270.827105
 20
6.864102
 30
0.0
 10
270.927105
 20
7.023106
 30
0.0
 10
271.048105
 20
7.168112
 30
0.0
 10
271.185104
 20
7.297116
 30
0.0
 10
271.337103
 20
7.407126
 30
0.0
 10
271.502104
 20
7.498114
 30
0.0
 10
271.677105
 20
7.568105
 30
0.0
 10
271.860103
 20
7.614108
 30
0.0
 10
272.047104
 20
7.638097
 30
0.0
 10
272.235103
 20
7.638125
 30
0.0
 10
272.422104
 20
7.614136
 30
0.0
 10
272.605105
 20
7.568105
 30
0.0
 10
272.780105
 20
7.498114
 30
0.0
 10
272.945104
 20
7.407126
 30
0.0
 10
273.097103
 20
7.297116
 30
0.0
 10
273.234105
 20
7.168112
 30
0.0
 10
273.355105
 20
7.023106
 30
0.0
 10
273.455105
 20
6.864102
 30
0.0
 10
273.536105
 20
6.693104
 30
0.0
 10
273.594105
 20
6.514118
 30
0.0
 10
273.629103
 20
6.329122
 30
0.0
 10
273.641098
 20
6.141105
 30
0.0
 10
273.629109
 20
5.953117
 30
0.0
 10
273.594105
 20
5.768120
 30
0.0
 10
273.536105
 20
5.589107
 30
0.0
 10
273.455105
 20
5.418108
 30
0.0
 10
273.355105
 20
5.259104
 30
0.0
 10
273.234105
 20
5.114099
 30
0.0
 10
273.097103
 20
4.985123
 30
0.0
 10
272.945104
 20
4.875113
 30
0.0
 10
272.780105
 20
4.784124
 30
0.0
 10
272.605105
 20
4.714105
 30
0.0
 10
272.422104
 20
4.668103
 30
0.0
 10
272.235103
 20
4.644114
 30
0.0
 10
272.047104
 20
4.644114
 30
0.0
 10
271.860103
 20
4.668103
 30
0.0
 10
271.677105
 20
4.714105
 30
0.0
 10
271.502104
 20
4.784124
 30
0.0
 10
271.337103
 20
4.875113
 30
0.0
 10
271.185104
 20
4.985123
 30
0.0
 10
271.048105
 20
5.114099
 30
0.0
 10
270.927105
 20
5.259104
 30
0.0
 10
270.827105
 20
5.418108
 30
0.0
 10
270.746104
 20
5.589107
 30
0.0
 10
270.688105
 20
5.768120
 30
0.0
 10
270.653104
 20
5.953117
 30
0.0
 10
270.641109
 20
6.141105
 30
0.0
  0
LWPOLYLINE
  5
169
100
AcDbEntity
  8
Ebene_1
 62
7
100
AcDbPolyline
 90
51
 70
0
 10
270.641104
 20
16.141113
 30
0.0
 10
270.653098
 20
16.329102
 30
0.0
 10
270.688105
 20
16.514098
 30
0.0
 10
270.746104
 20
16.693112
 30
0.0
 10
270.827105
 20
16.864110
 30
0.0
 10
270.927105
 20
17.023114
 30
0.0
 10
271.048105
 20
17.168120
 30
0.0
 10
271.185104
 20
17.297124
 30
0.0
 10
271.337103
 20
17.407106
 30
0.0
 10
271.502104
 20
17.498123
 30
0.0
 10
271.677105
 20
17.568114
 30
0.0
 10
271.860103
 20
17.614116
 30
0.0
 10
272.047104
 20
17.638105
 30
0.0
 10
272.235103
 20
17.638105
 30
0.0
 10
272.422104
 20
17.614116
 30
0.0
 10
272.605105
 20
17.568114
 30
0.0
 10
272.780105
 20
17.498123
 30
0.0
 10
272.945104
 20
17.407106
 30
0.0
 10
273.097103
 20
17.297124
 30
0.0
 10
273.234105
 20
17.168120
 30
0.0
 10
273.355105
 20
17.023114
 30
0.0
 10
273.455105
 20
16.864110
 30
0.0
 10
273.536105
 20
16.693112
 30
0.0
 10
273.594105
 20
16.514098
 30
0.0
 10
273.629103
 20
16.329102
 30
0.0
 10
273.641098
 20
16.141113
 30
0.0
 10
273.629109
 20
15.953125
 30
0.0
 10
273.594105
 20
15.768100
 30
0.0
 10
273.536105
 20
15.589115
 30
0.0
 10
273.455105
 20
15.418117
 30
0.0
 10
273.355105
 20
15.259113
 30
0.0
 10
273.234105
 20
15.114107
 30
0.0
 10
273.097103
 20
14.985103
 30
0.0
 10
272.945104
 20
14.875121
 30
0.0
 10
272.780105
 20
14.784104
 30
0.0
 10
272.605105
 20
14.714113
 30
0.0
 10
272.422104
 20
14.668111
 30
0.0
 10
272.235103
 20
14.644122
 30
0.0
 10
272.047104
 20
14.644122
 30
0.0
 10
271.860103
 20
14.668111
 30
0.0
 10
271.677105
 20
14.714113
 30
0.0
 10
271.502104
 20
14.784104
 30
0.0
 10
271.337103
 20
14.875121
 30
0.0
 10
271.185104
 20
14.985103
 30
0.0
 10
271.048105
 20
15.114107
 30
0.0
 10
270.927105
 20
15.259113
 30
0.0
 10
270.827105
 20
15.418117
 30
0.0
 10
270.746104
 20
15.589115
 30
0.0
 10
270.688105
 20
15.768100
 30
0.0
 10
270.653104
 20
15.953125
 30
0.0
 10
270.641109
 20
16.141113
 30
0.0
  0
LWPOLYLINE
  5
16a
100
AcDbEntity
  8
Ebene_1
 62
7
100
AcDbPolyline
 90
51
 70
0
 10
270.641104
 20
26.141122
 30
0.0
 10
270.653098
 20
26.329110
 30
0.0
 10
270.688105
 20
26.514107
 30
0.0
 10
270.746104
 20
26.693120
 30
0.0
 10
270.827105
 20
26.864119
 30
0.0
 10
270.927105
 20
27.023123
 30
0.0
 10
271.048105
 20
27.168100
 30
0.0
 10
271.185104
 20
27.297104
 30
0.0
 10
271.337103
 20
27.407114
 30
0.0
 10
271.502104
 20
27.498103
 30
0.0
 10
271.677105
 20
27.568122
 30
0.0
 10
271.860103
 20
27.614124
 30
0.0
 10
272.047104
 20
27.638113
 30
0.0
 10
272.235103
 20
27.638113
 30
0.0
 10
272.422104
 20
27.614124
 30
0.0
 10
272.605105
 20
27.568122
 30
0.0
 10
272.780105
 20
27.498103
 30
0.0
 10
272.945104
 20
27.407114
 30
0.0
 10
273.097103
 20
27.297104
 30
0.0
 10
273.234105
 20
27.168100
 30
0.0
 10
273.355105
 20
27.023123
 30
0.0
 10
273.455105
 20
26.864119
 30
0.0
 10
273.536105
 20
26.693120
 30
0.0
 10
273.594105
 20
26.514107
 30
0.0
 10
273.629103
 20
26.329110
 30
0.0
 10
273.641098
 20
26.141122
 30
0.0
 10
273.629109
 20
25.953105
 30
0.0
 10
273.594105
 20
25.768109
 30
0.0
 10
273.536105
 20
25.589123
 30
0.0
 10
273.455105
 20
25.418125
 30
0.0
 10
273.355105
 20
25.259121
 30
0.0
 10
273.234105
 20
25.114115
 30
0.0
 10
273.097103
 20
24.985111
 30
0.0
 10
272.945104
 20
24.875101
 30
0.0
 10
272.780105
 20
24.784113
 30
0.0
 10
272.605105
 20
24.714121
 30
0.0
 10
272.422104
 20
24.668119
 30
0.0
 10
272.235103
 20
24.644130
 30
0.0
 10
272.047104
 20
24.644102
 30
0.0
 10
271.860103
 20
24.668091
 30
0.0
 10
271.677105
 20
24.714121
 30
0.0
 10
271.502104
 20
24.784113
 30
0.0
 10
271.337103
 20
24.875101
 30
0.0
 10
271.185104
 20
24.985111
 30
0.0
 10
271.048105
 20
25.114115
 30
0.0
 10
270.927105
 20
25.259121
 30
0.0
 10
270.827105
 20
25.418125
 30
0.0
 10
270.746104
 20
25.589123
 30
0.0
 10
270.688105
 20
25.768109
 30
0.0
 10
270.653104
 20
25.953105
 30
0.0
 10
270.641109
 20
26.141122
 30
0.0
  0
LWPOLYLINE
  5
16b
100
AcDbEntity
  8
Ebene_1
 62
7
100
AcDbPolyline
 90
4
 70
0
 10
275.641105
 20
29.641101
 30
0.0
 10
299.141106
 20
29.641101
 30
0.0
 10
299.141106
 20
2.641098
 30
0.0
 10
275.641105
 20
2.641098
 30
0.0
  0
LWPOLYLINE
  5
16c
100
AcDbEntity
  8
Ebene_1
 62
7
100
AcDbPolyline
 90
51
 70
0
 10
277.141105
 20
16.141113
 30
0.0
 10
277.200105
 20
17.081111
 30
0.0
 10
277.377105
 20
18.006123
 30
0.0
 10
277.668105
 20
18.902122
 30
0.0
 10
278.069105
 20
19.754122
 30
0.0
 10
278.573105
 20
20.549114
 30
0.0
 10
279.174105
 20
21.275103
 30
0.0
 10
279.860105
 20
21.920121
 30
0.0
 10
280.622105
 20
22.473108
 30
0.0
 10
281.448105
 20
22.927119
 30
0.0
 10
282.323105
 20
23.274111
 30
0.0
 10
283.236105
 20
23.508101
 30
0.0
 10
284.170105
 20
23.626098
 30
0.0
 10
285.112105
 20
23.626098
 30
0.0
 10
286.046105
 20
23.508101
 30
0.0
 10
286.959105
 20
23.274111
 30
0.0
 10
287.834105
 20
22.927119
 30
0.0
 10
288.660105
 20
22.473108
 30
0.0
 10
289.422105
 20
21.920121
 30
0.0
 10
290.108105
 20
21.275103
 30
0.0
 10
290.709105
 20
20.549114
 30
0.0
 10
291.213105
 20
19.754122
 30
0.0
 10
291.614105
 20
18.902122
 30
0.0
 10
291.905105
 20
18.006123
 30
0.0
 10
292.082105
 20
17.081111
 30
0.0
 10
292.141105
 20
16.141113
 30
0.0
 10
292.082105
 20
15.201116
 30
0.0
 10
291.905105
 20
14.276104
 30
0.0
 10
291.614105
 20
13.380105
 30
0.0
 10
291.213105
 20
12.528105
 30
0.0
 10
290.709105
 20
11.733113
 30
0.0
 10
290.108105
 20
11.007124
 30
0.0
 10
289.422105
 20
10.362105
 30
0.0
 10
288.660105
 20
9.809119
 30
0.0
 10
287.834105
 20
9.355108
 30
0.0
 10
286.959105
 20
9.008116
 30
0.0
 10
286.046105
 20
8.774126
 30
0.0
 10
285.112105
 20
8.656100
 30
0.0
 10
284.170105
 20
8.656100
 30
0.0
 10
283.236105
 20
8.774126
 30
0.0
 10
282.323105
 20
9.008116
 30
0.0
 10
281.448105
 20
9.355108
 30
0.0
 10
280.622105
 20
9.809119
 30
0.0
 10
279.860105
 20
10.362105
 30
0.0
 10
279.174105
 20
11.007124
 30
0.0
 10
278.573105
 20
11.733113
 30
0.0
 10
278.069105
 20
12.528105
 30
0.0
 10
277.668105
 20
13.380105
 30
0.0
 10
277.377105
 20
14.276104
 30
0.0
 10
277.200105
 20
15.201116
 30
0.0
 10
277.141105
 20
16.141113
 30
0.0
  0
LWPOLYLINE
  5
16d
100
AcDbEntity
  8
Ebene_1
 62
7
100
AcDbPolyline
 90
51
 70
0
 10
283.141105
 20
6.141105
 30
0.0
 10
283.153105
 20
6.329122
 30
0.0
 10
283.188105
 20
6.514118
 30
0.0
 10
283.246105
 20
6.693104
 30
0.0
 10
283.327105
 20
6.864102
 30
0.0
 10
283.427105
 20
7.023106
 30
0.0
 10
283.548105
 20
7.168112
 30
0.0
 10
283.685105
 20
7.297116
 30
0.0
 10
283.837105
 20
7.407126
 30
0.0
 10
284.002105
 20
7.498114
 30
0.0
 10
284.177105
 20
7.568105
 30
0.0
 10
284.360105
 20
7.614108
 30
0.0
 10
284.547105
 20
7.638097
 30
0.0
 10
284.735105
 20
7.638125
 30
0.0
 10
284.922105
 20
7.614136
 30
0.0
 10
285.105105
 20
7.568105
 30
0.0
 10
285.280105
 20
7.498114
 30
0.0
 10
285.445105
 20
7.407126
 30
0.0
 10
285.597105
 20
7.297116
 30
0.0
 10
285.734105
 20
7.168112
 30
0.0
 10
285.855105
 20
7.023106
 30
0.0
 10
285.955105
 20
6.864102
 30
0.0
 10
286.036105
 20
6.693104
 30
0.0
 10
286.094105
 20
6.514118
 30
0.0
 10
286.129105
 20
6.329122
 30
0.0
 10
286.141105
 20
6.141105
 30
0.0
 10
286.129105
 20
5.953117
 30
0.0
 10
286.094105
 20
5.768120
 30
0.0
 10
286.036105
 20
5.589107
 30
0.0
 10
285.955105
 20
5.418108
 30
0.0
 10
285.855105
 20
5.259104
 30
0.0
 10
285.734105
 20
5.114099
 30
0.0
 10
285.597105
 20
4.985123
 30
0.0
 10
285.445105
 20
4.875113
 30
0.0
 10
285.280105
 20
4.784124
 30
0.0
 10
285.105105
 20
4.714105
 30
0.0
 10
284.922105
 20
4.668103
 30
0.0
 10
284.735105
 20
4.644114
 30
0.0
 10
284.547105
 20
4.644114
 30
0.0
 10
284.360105
 20
4.668103
 30
0.0
 10
284.177105
 20
4.714105
 30
0.0
 10
284.002105
 20
4.784124
 30
0.0
 10
283.837105
 20
4.875113
 30
0.0
 10
283.685105
 20
4.985123
 30
0.0
 10
283.548105
 20
5.114099
 30
0.0
 10
283.427105
 20
5.259104
 30
0.0
 10
283.327105
 20
5.418108
 30
0.0
 10
283.246105
 20
5.589107
 30
0.0
 10
283.188105
 20
5.768120
 30
0.0
 10
283.153105
 20
5.953117
 30
0.0
 10
283.141105
 20
6.141105
 30
0.0
  0
LWPOLYLINE
  5
16e
100
AcDbEntity
  8
Ebene_1
 62
7
100
AcDbPolyline
 90
51
 70
0
 10
283.141105
 20
26.141122
 30
0.0
 10
283.153105
 20
26.329110
 30
0.0
 10
283.188105
 20
26.514107
 30
0.0
 10
283.246105
 20
26.693120
 30
0.0
 10
283.327105
 20
26.864119
 30
0.0
 10
283.427105
 20
27.023123
 30
0.0
 10
283.548105
 20
27.168100
 30
0.0
 10
283.685105
 20
27.297104
 30
0.0
 10
283.837105
 20
27.407114
 30
0.0
 10
284.002105
 20
27.498103
 30
0.0
 10
284.177105
 20
27.568122
 30
0.0
 10
284.360105
 20
27.614124
 30
0.0
 10
284.547105
 20
27.638113
 30
0.0
 10
284.735105
 20
27.638113
 30
0.0
 10
284.922105
 20
27.614124
 30
0.0
 10
285.105105
 20
27.568122
 30
0.0
 10
285.280105
 20
27.498103
 30
0.0
 10
285.445105
 20
27.407114
 30
0.0
 10
285.597105
 20
27.297104
 30
0.0
 10
285.734105
 20
27.168100
 30
0.0
 10
285.855105
 20
27.023123
 30
0.0
 10
285.955105
 20
26.864119
 30
0.0
 10
286.036105
 20
26.693120
 30
0.0
 10
286.094105
 20
26.514107
 30
0.0
 10
286.129105
 20
26.329110
 30
0.0
 10
286.141105
 20
26.141122
 30
0.0
 10
286.129105
 20
25.953105
 30
0.0
 10
286.094105
 20
25.768109
 30
0.0
 10
286.036105
 20
25.589123
 30
0.0
 10
285.955105
 20
25.418125
 30
0.0
 10
285.855105
 20
25.259121
 30
0.0
 10
285.734105
 20
25.114115
 30
0.0
 10
285.597105
 20
24.985111
 30
0.0
 10
285.445105
 20
24.875101
 30
0.0
 10
285.280105
 20
24.784113
 30
0.0
 10
285.105105
 20
24.714121
 30
0.0
 10
284.922105
 20
24.668119
 30
0.0
 10
284.735105
 20
24.644130
 30
0.0
 10
284.547105
 20
24.644102
 30
0.0
 10
284.360105
 20
24.668091
 30
0.0
 10
284.177105
 20
24.714121
 30
0.0
 10
284.002105
 20
24.784113
 30
0.0
 10
283.837105
 20
24.875101
 30
0.0
 10
283.685105
 20
24.985111
 30
0.0
 10
283.548105
 20
25.114115
 30
0.0
 10
283.427105
 20
25.259121
 30
0.0
 10
283.327105
 20
25.418125
 30
0.0
 10
283.246105
 20
25.589123
 30
0.0
 10
283.188105
 20
25.768109
 30
0.0
 10
283.153105
 20
25.953105
 30
0.0
 10
283.141105
 20
26.141122
 30
0.0
  0
LWPOLYLINE
  5
16f
100
AcDbEntity
  8
Ebene_1
 62
7
100
AcDbPolyline
 90
51
 70
0
 10
294.141104
 20
6.141105
 30
0.0
 10
294.153099
 20
6.329122
 30
0.0
 10
294.188106
 20
6.514118
 30
0.0
 10
294.246105
 20
6.693104
 30
0.0
 10
294.327106
 20
6.864102
 30
0.0
 10
294.427106
 20
7.023106
 30
0.0
 10
294.548106
 20
7.168112
 30
0.0
 10
294.685105
 20
7.297116
 30
0.0
 10
294.837104
 20
7.407126
 30
0.0
 10
295.002105
 20
7.498114
 30
0.0
 10
295.177106
 20
7.568105
 30
0.0
 10
295.360104
 20
7.614108
 30
0.0
 10
295.547105
 20
7.638097
 30
0.0
 10
295.735104
 20
7.638125
 30
0.0
 10
295.922105
 20
7.614136
 30
0.0
 10
296.105106
 20
7.568105
 30
0.0
 10
296.280106
 20
7.498114
 30
0.0
 10
296.445105
 20
7.407126
 30
0.0
 10
296.597104
 20
7.297116
 30
0.0
 10
296.734106
 20
7.168112
 30
0.0
 10
296.855106
 20
7.023106
 30
0.0
 10
296.955106
 20
6.864102
 30
0.0
 10
297.036106
 20
6.693104
 30
0.0
 10
297.094106
 20
6.514118
 30
0.0
 10
297.129104
 20
6.329122
 30
0.0
 10
297.141098
 20
6.141105
 30
0.0
 10
297.129110
 20
5.953117
 30
0.0
 10
297.094106
 20
5.768120
 30
0.0
 10
297.036106
 20
5.589107
 30
0.0
 10
296.955106
 20
5.418108
 30
0.0
 10
296.855106
 20
5.259104
 30
0.0
 10
296.734106
 20
5.114099
 30
0.0
 10
296.597104
 20
4.985123
 30
0.0
 10
296.445105
 20
4.875113
 30
0.0
 10
296.280106
 20
4.784124
 30
0.0
 10
296.105106
 20
4.714105
 30
0.0
 10
295.922105
 20
4.668103
 30
0.0
 10
295.735104
 20
4.644114
 30
0.0
 10
295.547105
 20
4.644114
 30
0.0
 10
295.360104
 20
4.668103
 30
0.0
 10
295.177106
 20
4.714105
 30
0.0
 10
295.002105
 20
4.784124
 30
0.0
 10
294.837104
 20
4.875113
 30
0.0
 10
294.685105
 20
4.985123
 30
0.0
 10
294.548106
 20
5.114099
 30
0.0
 10
294.427106
 20
5.259104
 30
0.0
 10
294.327106
 20
5.418108
 30
0.0
 10
294.246105
 20
5.589107
 30
0.0
 10
294.188106
 20
5.768120
 30
0.0
 10
294.153105
 20
5.953117
 30
0.0
 10
294.141110
 20
6.141105
 30
0.0
  0
LWPOLYLINE
  5
170
100
AcDbEntity
  8
Ebene_1
 62
7
100
AcDbPolyline
 90
51
 70
0
 10
294.141104
 20
16.141113
 30
0.0
 10
294.153099
 20
16.329102
 30
0.0
 10
294.188106
 20
16.514098
 30
0.0
 10
294.246105
 20
16.693112
 30
0.0
 10
294.327106
 20
16.864110
 30
0.0
 10
294.427106
 20
17.023114
 30
0.0
 10
294.548106
 20
17.168120
 30
0.0
 10
294.685105
 20
17.297124
 30
0.0
 10
294.837104
 20
17.407106
 30
0.0
 10
295.002105
 20
17.498123
 30
0.0
 10
295.177106
 20
17.568114
 30
0.0
 10
295.360104
 20
17.614116
 30
0.0
 10
295.547105
 20
17.638105
 30
0.0
 10
295.735104
 20
17.638105
 30
0.0
 10
295.922105
 20
17.614116
 30
0.0
 10
296.105106
 20
17.568114
 30
0.0
 10
296.280106
 20
17.498123
 30
0.0
 10
296.445105
 20
17.407106
 30
0.0
 10
296.597104
 20
17.297124
 30
0.0
 10
296.734106
 20
17.168120
 30
0.0
 10
296.855106
 20
17.023114
 30
0.0
 10
296.955106
 20
16.864110
 30
0.0
 10
297.036106
 20
16.693112
 30
0.0
 10
297.094106
 20
16.514098
 30
0.0
 10
297.129104
 20
16.329102
 30
0.0
 10
297.141098
 20
16.141113
 30
0.0
 10
297.129110
 20
15.953125
 30
0.0
 10
297.094106
 20
15.768100
 30
0.0
 10
297.036106
 20
15.589115
 30
0.0
 10
296.955106
 20
15.418117
 30
0.0
 10
296.855106
 20
15.259113
 30
0.0
 10
296.734106
 20
15.114107
 30
0.0
 10
296.597104
 20
14.985103
 30
0.0
 10
296.445105
 20
14.875121
 30
0.0
 10
296.280106
 20
14.784104
 30
0.0
 10
296.105106
 20
14.714113
 30
0.0
 10
295.922105
 20
14.668111
 30
0.0
 10
295.735104
 20
14.644122
 30
0.0
 10
295.547105
 20
14.644122
 30
0.0
 10
295.360104
 20
14.668111
 30
0.0
 10
295.177106
 20
14.714113
 30
0.0
 10
295.002105
 20
14.784104
 30
0.0
 10
294.837104
 20
14.875121
 30
0.0
 10
294.685105
 20
14.985103
 30
0.0
 10
294.548106
 20
15.114107
 30
0.0
 10
294.427106
 20
15.259113
 30
0.0
 10
294.327106
 20
15.418117
 30
0.0
 10
294.246105
 20
15.589115
 30
0.0
 10
294.188106
 20
15.768100
 30
0.0
 10
294.153105
 20
15.953125
 30
0.0
 10
294.141110
 20
16.141113
 30
0.0
  0
LWPOLYLINE
  5
171
100
AcDbEntity
  8
Ebene_1
 62
7
100
AcDbPolyline
 90
51
 70
0
 10
294.141104
 20
26.141122
 30
0.0
 10
294.153099
 20
26.329110
 30
0.0
 10
294.188106
 20
26.514107
 30
0.0
 10
294.246105
 20
26.693120
 30
0.0
 10
294.327106
 20
26.864119
 30
0.0
 10
294.427106
 20
27.023123
 30
0.0
 10
294.548106
 20
27.168100
 30
0.0
 10
294.685105
 20
27.297104
 30
0.0
 10
294.837104
 20
27.407114
 30
0.0
 10
295.002105
 20
27.498103
 30
0.0
 10
295.177106
 20
27.568122
 30
0.0
 10
295.360104
 20
27.614124
 30
0.0
 10
295.547105
 20
27.638113
 30
0.0
 10
295.735104
 20
27.638113
 30
0.0
 10
295.922105
 20
27.614124
 30
0.0
 10
296.105106
 20
27.568122
 30
0.0
 10
296.280106
 20
27.498103
 30
0.0
 10
296.445105
 20
27.407114
 30
0.0
 10
296.597104
 20
27.297104
 30
0.0
 10
296.734106
 20
27.168100
 30
0.0
 10
296.855106
 20
27.023123
 30
0.0
 10
296.955106
 20
26.864119
 30
0.0
 10
297.036106
 20
26.693120
 30
0.0
 10
297.094106
 20
26.514107
 30
0.0
 10
297.129104
 20
26.329110
 30
0.0
 10
297.141098
 20
26.141122
 30
0.0
 10
297.129110
 20
25.953105
 30
0.0
 10
297.094106
 20
25.768109
 30
0.0
 10
297.036106
 20
25.589123
 30
0.0
 10
296.955106
 20
25.418125
 30
0.0
 10
296.855106
 20
25.259121
 30
0.0
 10
296.734106
 20
25.114115
 30
0.0
 10
296.597104
 20
24.985111
 30
0.0
 10
296.445105
 20
24.875101
 30
0.0
 10
296.280106
 20
24.784113
 30
0.0
 10
296.105106
 20
24.714121
 30
0.0
 10
295.922105
 20
24.668119
 30
0.0
 10
295.735104
 20
24.644130
 30
0.0
 10
295.547105
 20
24.644102
 30
0.0
 10
295.360104
 20
24.668091
 30
0.0
 10
295.177106
 20
24.714121
 30
0.0
 10
295.002105
 20
24.784113
 30
0.0
 10
294.837104
 20
24.875101
 30
0.0
 10
294.685105
 20
24.985111
 30
0.0
 10
294.548106
 20
25.114115
 30
0.0
 10
294.427106
 20
25.259121
 30
0.0
 10
294.327106
 20
25.418125
 30
0.0
 10
294.246105
 20
25.589123
 30
0.0
 10
294.188106
 20
25.768109
 30
0.0
 10
294.153105
 20
25.953105
 30
0.0
 10
294.141110
 20
26.141122
 30
0.0
  0
LWPOLYLINE
  5
172
100
AcDbEntity
  8
Ebene_1
 62
7
100
AcDbPolyline
 90
4
 70
0
 10
299.141098
 20
29.641101
 30
0.0
 10
322.641098
 20
29.641101
 30
0.0
 10
322.641098
 20
2.641098
 30
0.0
 10
299.141098
 20
2.641098
 30
0.0
  0
LWPOLYLINE
  5
173
100
AcDbEntity
  8
Ebene_1
 62
7
100
AcDbPolyline
 90
51
 70
0
 10
300.641097
 20
16.141113
 30
0.0
 10
300.700098
 20
17.081111
 30
0.0
 10
300.877098
 20
18.006123
 30
0.0
 10
301.168097
 20
18.902122
 30
0.0
 10
301.569097
 20
19.754122
 30
0.0
 10
302.073097
 20
20.549114
 30
0.0
 10
302.674098
 20
21.275103
 30
0.0
 10
303.360097
 20
21.920121
 30
0.0
 10
304.122097
 20
22.473108
 30
0.0
 10
304.948098
 20
22.927119
 30
0.0
 10
305.823098
 20
23.274111
 30
0.0
 10
306.736098
 20
23.508101
 30
0.0
 10
307.670098
 20
23.626098
 30
0.0
 10
308.612097
 20
23.626098
 30
0.0
 10
309.546098
 20
23.508101
 30
0.0
 10
310.459097
 20
23.274111
 30
0.0
 10
311.334098
 20
22.927119
 30
0.0
 10
312.160098
 20
22.473108
 30
0.0
 10
312.922098
 20
21.920121
 30
0.0
 10
313.608097
 20
21.275103
 30
0.0
 10
314.209098
 20
20.549114
 30
0.0
 10
314.713098
 20
19.754122
 30
0.0
 10
315.114098
 20
18.902122
 30
0.0
 10
315.405097
 20
18.006123
 30
0.0
 10
315.582098
 20
17.081111
 30
0.0
 10
315.641098
 20
16.141113
 30
0.0
 10
315.582098
 20
15.201116
 30
0.0
 10
315.405097
 20
14.276104
 30
0.0
 10
315.114098
 20
13.380105
 30
0.0
 10
314.713098
 20
12.528105
 30
0.0
 10
314.209098
 20
11.733113
 30
0.0
 10
313.608097
 20
11.007124
 30
0.0
 10
312.922098
 20
10.362105
 30
0.0
 10
312.160098
 20
9.809119
 30
0.0
 10
311.334098
 20
9.355108
 30
0.0
 10
310.459097
 20
9.008116
 30
0.0
 10
309.546098
 20
8.774126
 30
0.0
 10
308.612097
 20
8.656100
 30
0.0
 10
307.670098
 20
8.656100
 30
0.0
 10
306.736098
 20
8.774126
 30
0.0
 10
305.823098
 20
9.008116
 30
0.0
 10
304.948098
 20
9.355108
 30
0.0
 10
304.122097
 20
9.809119
 30
0.0
 10
303.360097
 20
10.362105
 30
0.0
 10
302.674098
 20
11.007124
 30
0.0
 10
302.073097
 20
11.733113
 30
0.0
 10
301.569097
 20
12.528105
 30
0.0
 10
301.168097
 20
13.380105
 30
0.0
 10
300.877098
 20
14.276104
 30
0.0
 10
300.700098
 20
15.201116
 30
0.0
 10
300.641097
 20
16.141113
 30
0.0
  0
LWPOLYLINE
  5
174
100
AcDbEntity
  8
Ebene_1
 62
7
100
AcDbPolyline
 90
51
 70
0
 10
306.641098
 20
6.141105
 30
0.0
 10
306.653098
 20
6.329122
 30
0.0
 10
306.688097
 20
6.514118
 30
0.0
 10
306.746097
 20
6.693104
 30
0.0
 10
306.827098
 20
6.864102
 30
0.0
 10
306.927098
 20
7.023106
 30
0.0
 10
307.048098
 20
7.168112
 30
0.0
 10
307.185098
 20
7.297116
 30
0.0
 10
307.337098
 20
7.407126
 30
0.0
 10
307.502097
 20
7.498114
 30
0.0
 10
307.677098
 20
7.568105
 30
0.0
 10
307.860097
 20
7.614108
 30
0.0
 10
308.047098
 20
7.638097
 30
0.0
 10
308.235098
 20
7.638125
 30
0.0
 10
308.422098
 20
7.614136
 30
0.0
 10
308.605098
 20
7.568105
 30
0.0
 10
308.780098
 20
7.498114
 30
0.0
 10
308.945098
 20
7.407126
 30
0.0
 10
309.097097
 20
7.297116
 30
0.0
 10
309.234097
 20
7.168112
 30
0.0
 10
309.355097
 20
7.023106
 30
0.0
 10
309.455098
 20
6.864102
 30
0.0
 10
309.536098
 20
6.693104
 30
0.0
 10
309.594098
 20
6.514118
 30
0.0
 10
309.629098
 20
6.329122
 30
0.0
 10
309.641098
 20
6.141105
 30
0.0
 10
309.629097
 20
5.953117
 30
0.0
 10
309.594098
 20
5.768120
 30
0.0
 10
309.536098
 20
5.589107
 30
0.0
 10
309.455098
 20
5.418108
 30
0.0
 10
309.355097
 20
5.259104
 30
0.0
 10
309.234097
 20
5.114099
 30
0.0
 10
309.097097
 20
4.985123
 30
0.0
 10
308.945098
 20
4.875113
 30
0.0
 10
308.780098
 20
4.784124
 30
0.0
 10
308.605098
 20
4.714105
 30
0.0
 10
308.422098
 20
4.668103
 30
0.0
 10
308.235098
 20
4.644114
 30
0.0
 10
308.047098
 20
4.644114
 30
0.0
 10
307.860097
 20
4.668103
 30
0.0
 10
307.677098
 20
4.714105
 30
0.0
 10
307.502097
 20
4.784124
 30
0.0
 10
307.337098
 20
4.875113
 30
0.0
 10
307.185098
 20
4.985123
 30
0.0
 10
307.048098
 20
5.114099
 30
0.0
 10
306.927098
 20
5.259104
 30
0.0
 10
306.827098
 20
5.418108
 30
0.0
 10
306.746097
 20
5.589107
 30
0.0
 10
306.688097
 20
5.768120
 30
0.0
 10
306.653098
 20
5.953117
 30
0.0
 10
306.641098
 20
6.141105
 30
0.0
  0
LWPOLYLINE
  5
175
100
AcDbEntity
  8
Ebene_1
 62
7
100
AcDbPolyline
 90
51
 70
0
 10
306.641098
 20
26.141122
 30
0.0
 10
306.653098
 20
26.329110
 30
0.0
 10
306.688097
 20
26.514107
 30
0.0
 10
306.746097
 20
26.693120
 30
0.0
 10
306.827098
 20
26.864119
 30
0.0
 10
306.927098
 20
27.023123
 30
0.0
 10
307.048098
 20
27.168100
 30
0.0
 10
307.185098
 20
27.297104
 30
0.0
 10
307.337098
 20
27.407114
 30
0.0
 10
307.502097
 20
27.498103
 30
0.0
 10
307.677098
 20
27.568122
 30
0.0
 10
307.860097
 20
27.614124
 30
0.0
 10
308.047098
 20
27.638113
 30
0.0
 10
308.235098
 20
27.638113
 30
0.0
 10
308.422098
 20
27.614124
 30
0.0
 10
308.605098
 20
27.568122
 30
0.0
 10
308.780098
 20
27.498103
 30
0.0
 10
308.945098
 20
27.407114
 30
0.0
 10
309.097097
 20
27.297104
 30
0.0
 10
309.234097
 20
27.168100
 30
0.0
 10
309.355097
 20
27.023123
 30
0.0
 10
309.455098
 20
26.864119
 30
0.0
 10
309.536098
 20
26.693120
 30
0.0
 10
309.594098
 20
26.514107
 30
0.0
 10
309.629098
 20
26.329110
 30
0.0
 10
309.641098
 20
26.141122
 30
0.0
 10
309.629097
 20
25.953105
 30
0.0
 10
309.594098
 20
25.768109
 30
0.0
 10
309.536098
 20
25.589123
 30
0.0
 10
309.455098
 20
25.418125
 30
0.0
 10
309.355097
 20
25.259121
 30
0.0
 10
309.234097
 20
25.114115
 30
0.0
 10
309.097097
 20
24.985111
 30
0.0
 10
308.945098
 20
24.875101
 30
0.0
 10
308.780098
 20
24.784113
 30
0.0
 10
308.605098
 20
24.714121
 30
0.0
 10
308.422098
 20
24.668119
 30
0.0
 10
308.235098
 20
24.644130
 30
0.0
 10
308.047098
 20
24.644102
 30
0.0
 10
307.860097
 20
24.668091
 30
0.0
 10
307.677098
 20
24.714121
 30
0.0
 10
307.502097
 20
24.784113
 30
0.0
 10
307.337098
 20
24.875101
 30
0.0
 10
307.185098
 20
24.985111
 30
0.0
 10
307.048098
 20
25.114115
 30
0.0
 10
306.927098
 20
25.259121
 30
0.0
 10
306.827098
 20
25.418125
 30
0.0
 10
306.746097
 20
25.589123
 30
0.0
 10
306.688097
 20
25.768109
 30
0.0
 10
306.653098
 20
25.953105
 30
0.0
 10
306.641098
 20
26.141122
 30
0.0
  0
LWPOLYLINE
  5
176
100
AcDbEntity
  8
Ebene_1
 62
7
100
AcDbPolyline
 90
51
 70
0
 10
317.641097
 20
6.141105
 30
0.0
 10
317.653091
 20
6.329122
 30
0.0
 10
317.688098
 20
6.514118
 30
0.0
 10
317.746098
 20
6.693104
 30
0.0
 10
317.827098
 20
6.864102
 30
0.0
 10
317.927098
 20
7.023106
 30
0.0
 10
318.048098
 20
7.168112
 30
0.0
 10
318.185097
 20
7.297116
 30
0.0
 10
318.337097
 20
7.407126
 30
0.0
 10
318.502098
 20
7.498114
 30
0.0
 10
318.677098
 20
7.568105
 30
0.0
 10
318.860097
 20
7.614108
 30
0.0
 10
319.047097
 20
7.638097
 30
0.0
 10
319.235097
 20
7.638125
 30
0.0
 10
319.422097
 20
7.614136
 30
0.0
 10
319.605098
 20
7.568105
 30
0.0
 10
319.780099
 20
7.498114
 30
0.0
 10
319.945097
 20
7.407126
 30
0.0
 10
320.097096
 20
7.297116
 30
0.0
 10
320.234098
 20
7.168112
 30
0.0
 10
320.355098
 20
7.023106
 30
0.0
 10
320.455098
 20
6.864102
 30
0.0
 10
320.536099
 20
6.693104
 30
0.0
 10
320.594098
 20
6.514118
 30
0.0
 10
320.629097
 20
6.329122
 30
0.0
 10
320.641091
 20
6.141105
 30
0.0
 10
320.629102
 20
5.953117
 30
0.0
 10
320.594098
 20
5.768120
 30
0.0
 10
320.536099
 20
5.589107
 30
0.0
 10
320.455098
 20
5.418108
 30
0.0
 10
320.355098
 20
5.259104
 30
0.0
 10
320.234098
 20
5.114099
 30
0.0
 10
320.097096
 20
4.985123
 30
0.0
 10
319.945097
 20
4.875113
 30
0.0
 10
319.780099
 20
4.784124
 30
0.0
 10
319.605098
 20
4.714105
 30
0.0
 10
319.422097
 20
4.668103
 30
0.0
 10
319.235097
 20
4.644114
 30
0.0
 10
319.047097
 20
4.644114
 30
0.0
 10
318.860097
 20
4.668103
 30
0.0
 10
318.677098
 20
4.714105
 30
0.0
 10
318.502098
 20
4.784124
 30
0.0
 10
318.337097
 20
4.875113
 30
0.0
 10
318.185097
 20
4.985123
 30
0.0
 10
318.048098
 20
5.114099
 30
0.0
 10
317.927098
 20
5.259104
 30
0.0
 10
317.827098
 20
5.418108
 30
0.0
 10
317.746098
 20
5.589107
 30
0.0
 10
317.688098
 20
5.768120
 30
0.0
 10
317.653097
 20
5.953117
 30
0.0
 10
317.641103
 20
6.141105
 30
0.0
  0
LWPOLYLINE
  5
177
100
AcDbEntity
  8
Ebene_1
 62
7
100
AcDbPolyline
 90
51
 70
0
 10
317.641097
 20
16.141113
 30
0.0
 10
317.653091
 20
16.329102
 30
0.0
 10
317.688098
 20
16.514098
 30
0.0
 10
317.746098
 20
16.693112
 30
0.0
 10
317.827098
 20
16.864110
 30
0.0
 10
317.927098
 20
17.023114
 30
0.0
 10
318.048098
 20
17.168120
 30
0.0
 10
318.185097
 20
17.297124
 30
0.0
 10
318.337097
 20
17.407106
 30
0.0
 10
318.502098
 20
17.498123
 30
0.0
 10
318.677098
 20
17.568114
 30
0.0
 10
318.860097
 20
17.614116
 30
0.0
 10
319.047097
 20
17.638105
 30
0.0
 10
319.235097
 20
17.638105
 30
0.0
 10
319.422097
 20
17.614116
 30
0.0
 10
319.605098
 20
17.568114
 30
0.0
 10
319.780099
 20
17.498123
 30
0.0
 10
319.945097
 20
17.407106
 30
0.0
 10
320.097096
 20
17.297124
 30
0.0
 10
320.234098
 20
17.168120
 30
0.0
 10
320.355098
 20
17.023114
 30
0.0
 10
320.455098
 20
16.864110
 30
0.0
 10
320.536099
 20
16.693112
 30
0.0
 10
320.594098
 20
16.514098
 30
0.0
 10
320.629097
 20
16.329102
 30
0.0
 10
320.641091
 20
16.141113
 30
0.0
 10
320.629102
 20
15.953125
 30
0.0
 10
320.594098
 20
15.768100
 30
0.0
 10
320.536099
 20
15.589115
 30
0.0
 10
320.455098
 20
15.418117
 30
0.0
 10
320.355098
 20
15.259113
 30
0.0
 10
320.234098
 20
15.114107
 30
0.0
 10
320.097096
 20
14.985103
 30
0.0
 10
319.945097
 20
14.875121
 30
0.0
 10
319.780099
 20
14.784104
 30
0.0
 10
319.605098
 20
14.714113
 30
0.0
 10
319.422097
 20
14.668111
 30
0.0
 10
319.235097
 20
14.644122
 30
0.0
 10
319.047097
 20
14.644122
 30
0.0
 10
318.860097
 20
14.668111
 30
0.0
 10
318.677098
 20
14.714113
 30
0.0
 10
318.502098
 20
14.784104
 30
0.0
 10
318.337097
 20
14.875121
 30
0.0
 10
318.185097
 20
14.985103
 30
0.0
 10
318.048098
 20
15.114107
 30
0.0
 10
317.927098
 20
15.259113
 30
0.0
 10
317.827098
 20
15.418117
 30
0.0
 10
317.746098
 20
15.589115
 30
0.0
 10
317.688098
 20
15.768100
 30
0.0
 10
317.653097
 20
15.953125
 30
0.0
 10
317.641103
 20
16.141113
 30
0.0
  0
LWPOLYLINE
  5
178
100
AcDbEntity
  8
Ebene_1
 62
7
100
AcDbPolyline
 90
51
 70
0
 10
317.641097
 20
26.141122
 30
0.0
 10
317.653091
 20
26.329110
 30
0.0
 10
317.688098
 20
26.514107
 30
0.0
 10
317.746098
 20
26.693120
 30
0.0
 10
317.827098
 20
26.864119
 30
0.0
 10
317.927098
 20
27.023123
 30
0.0
 10
318.048098
 20
27.168100
 30
0.0
 10
318.185097
 20
27.297104
 30
0.0
 10
318.337097
 20
27.407114
 30
0.0
 10
318.502098
 20
27.498103
 30
0.0
 10
318.677098
 20
27.568122
 30
0.0
 10
318.860097
 20
27.614124
 30
0.0
 10
319.047097
 20
27.638113
 30
0.0
 10
319.235097
 20
27.638113
 30
0.0
 10
319.422097
 20
27.614124
 30
0.0
 10
319.605098
 20
27.568122
 30
0.0
 10
319.780099
 20
27.498103
 30
0.0
 10
319.945097
 20
27.407114
 30
0.0
 10
320.097096
 20
27.297104
 30
0.0
 10
320.234098
 20
27.168100
 30
0.0
 10
320.355098
 20
27.023123
 30
0.0
 10
320.455098
 20
26.864119
 30
0.0
 10
320.536099
 20
26.693120
 30
0.0
 10
320.594098
 20
26.514107
 30
0.0
 10
320.629097
 20
26.329110
 30
0.0
 10
320.641091
 20
26.141122
 30
0.0
 10
320.629102
 20
25.953105
 30
0.0
 10
320.594098
 20
25.768109
 30
0.0
 10
320.536099
 20
25.589123
 30
0.0
 10
320.455098
 20
25.418125
 30
0.0
 10
320.355098
 20
25.259121
 30
0.0
 10
320.234098
 20
25.114115
 30
0.0
 10
320.097096
 20
24.985111
 30
0.0
 10
319.945097
 20
24.875101
 30
0.0
 10
319.780099
 20
24.784113
 30
0.0
 10
319.605098
 20
24.714121
 30
0.0
 10
319.422097
 20
24.668119
 30
0.0
 10
319.235097
 20
24.644130
 30
0.0
 10
319.047097
 20
24.644102
 30
0.0
 10
318.860097
 20
24.668091
 30
0.0
 10
318.677098
 20
24.714121
 30
0.0
 10
318.502098
 20
24.784113
 30
0.0
 10
318.337097
 20
24.875101
 30
0.0
 10
318.185097
 20
24.985111
 30
0.0
 10
318.048098
 20
25.114115
 30
0.0
 10
317.927098
 20
25.259121
 30
0.0
 10
317.827098
 20
25.418125
 30
0.0
 10
317.746098
 20
25.589123
 30
0.0
 10
317.688098
 20
25.768109
 30
0.0
 10
317.653097
 20
25.953105
 30
0.0
 10
317.641103
 20
26.141122
 30
0.0
  0
LWPOLYLINE
  5
179
100
AcDbEntity
  8
Ebene_1
 62
7
100
AcDbPolyline
 90
4
 70
0
 10
322.641093
 20
29.641101
 30
0.0
 10
346.141094
 20
29.641101
 30
0.0
 10
346.141094
 20
2.641098
 30
0.0
 10
322.641093
 20
2.641098
 30
0.0
  0
LWPOLYLINE
  5
17a
100
AcDbEntity
  8
Ebene_1
 62
7
100
AcDbPolyline
 90
51
 70
0
 10
324.141093
 20
16.141113
 30
0.0
 10
324.200093
 20
17.081111
 30
0.0
 10
324.377093
 20
18.006123
 30
0.0
 10
324.668093
 20
18.902122
 30
0.0
 10
325.069093
 20
19.754122
 30
0.0
 10
325.573093
 20
20.549114
 30
0.0
 10
326.174093
 20
21.275103
 30
0.0
 10
326.860093
 20
21.920121
 30
0.0
 10
327.622093
 20
22.473108
 30
0.0
 10
328.448093
 20
22.927119
 30
0.0
 10
329.323093
 20
23.274111
 30
0.0
 10
330.236093
 20
23.508101
 30
0.0
 10
331.170093
 20
23.626098
 30
0.0
 10
332.112093
 20
23.626098
 30
0.0
 10
333.046093
 20
23.508101
 30
0.0
 10
333.959093
 20
23.274111
 30
0.0
 10
334.834093
 20
22.927119
 30
0.0
 10
335.660093
 20
22.473108
 30
0.0
 10
336.422093
 20
21.920121
 30
0.0
 10
337.108093
 20
21.275103
 30
0.0
 10
337.709093
 20
20.549114
 30
0.0
 10
338.213093
 20
19.754122
 30
0.0
 10
338.614093
 20
18.902122
 30
0.0
 10
338.905093
 20
18.006123
 30
0.0
 10
339.082093
 20
17.081111
 30
0.0
 10
339.141093
 20
16.141113
 30
0.0
 10
339.082093
 20
15.201116
 30
0.0
 10
338.905093
 20
14.276104
 30
0.0
 10
338.614093
 20
13.380105
 30
0.0
 10
338.213093
 20
12.528105
 30
0.0
 10
337.709093
 20
11.733113
 30
0.0
 10
337.108093
 20
11.007124
 30
0.0
 10
336.422093
 20
10.362105
 30
0.0
 10
335.660093
 20
9.809119
 30
0.0
 10
334.834093
 20
9.355108
 30
0.0
 10
333.959093
 20
9.008116
 30
0.0
 10
333.046093
 20
8.774126
 30
0.0
 10
332.112093
 20
8.656100
 30
0.0
 10
331.170093
 20
8.656100
 30
0.0
 10
330.236093
 20
8.774126
 30
0.0
 10
329.323093
 20
9.008116
 30
0.0
 10
328.448093
 20
9.355108
 30
0.0
 10
327.622093
 20
9.809119
 30
0.0
 10
326.860093
 20
10.362105
 30
0.0
 10
326.174093
 20
11.007124
 30
0.0
 10
325.573093
 20
11.733113
 30
0.0
 10
325.069093
 20
12.528105
 30
0.0
 10
324.668093
 20
13.380105
 30
0.0
 10
324.377093
 20
14.276104
 30
0.0
 10
324.200093
 20
15.201116
 30
0.0
 10
324.141093
 20
16.141113
 30
0.0
  0
LWPOLYLINE
  5
17b
100
AcDbEntity
  8
Ebene_1
 62
7
100
AcDbPolyline
 90
51
 70
0
 10
330.141093
 20
6.141105
 30
0.0
 10
330.153093
 20
6.329122
 30
0.0
 10
330.188093
 20
6.514118
 30
0.0
 10
330.246093
 20
6.693104
 30
0.0
 10
330.327093
 20
6.864102
 30
0.0
 10
330.427093
 20
7.023106
 30
0.0
 10
330.548093
 20
7.168112
 30
0.0
 10
330.685093
 20
7.297116
 30
0.0
 10
330.837093
 20
7.407126
 30
0.0
 10
331.002093
 20
7.498114
 30
0.0
 10
331.177093
 20
7.568105
 30
0.0
 10
331.360093
 20
7.614108
 30
0.0
 10
331.547093
 20
7.638097
 30
0.0
 10
331.735093
 20
7.638125
 30
0.0
 10
331.922093
 20
7.614136
 30
0.0
 10
332.105093
 20
7.568105
 30
0.0
 10
332.280093
 20
7.498114
 30
0.0
 10
332.445093
 20
7.407126
 30
0.0
 10
332.597093
 20
7.297116
 30
0.0
 10
332.734093
 20
7.168112
 30
0.0
 10
332.855093
 20
7.023106
 30
0.0
 10
332.955093
 20
6.864102
 30
0.0
 10
333.036093
 20
6.693104
 30
0.0
 10
333.094093
 20
6.514118
 30
0.0
 10
333.129093
 20
6.329122
 30
0.0
 10
333.141093
 20
6.141105
 30
0.0
 10
333.129093
 20
5.953117
 30
0.0
 10
333.094093
 20
5.768120
 30
0.0
 10
333.036093
 20
5.589107
 30
0.0
 10
332.955093
 20
5.418108
 30
0.0
 10
332.855093
 20
5.259104
 30
0.0
 10
332.734093
 20
5.114099
 30
0.0
 10
332.597093
 20
4.985123
 30
0.0
 10
332.445093
 20
4.875113
 30
0.0
 10
332.280093
 20
4.784124
 30
0.0
 10
332.105093
 20
4.714105
 30
0.0
 10
331.922093
 20
4.668103
 30
0.0
 10
331.735093
 20
4.644114
 30
0.0
 10
331.547093
 20
4.644114
 30
0.0
 10
331.360093
 20
4.668103
 30
0.0
 10
331.177093
 20
4.714105
 30
0.0
 10
331.002093
 20
4.784124
 30
0.0
 10
330.837093
 20
4.875113
 30
0.0
 10
330.685093
 20
4.985123
 30
0.0
 10
330.548093
 20
5.114099
 30
0.0
 10
330.427093
 20
5.259104
 30
0.0
 10
330.327093
 20
5.418108
 30
0.0
 10
330.246093
 20
5.589107
 30
0.0
 10
330.188093
 20
5.768120
 30
0.0
 10
330.153093
 20
5.953117
 30
0.0
 10
330.141093
 20
6.141105
 30
0.0
  0
LWPOLYLINE
  5
17c
100
AcDbEntity
  8
Ebene_1
 62
7
100
AcDbPolyline
 90
51
 70
0
 10
330.141093
 20
26.141122
 30
0.0
 10
330.153093
 20
26.329110
 30
0.0
 10
330.188093
 20
26.514107
 30
0.0
 10
330.246093
 20
26.693120
 30
0.0
 10
330.327093
 20
26.864119
 30
0.0
 10
330.427093
 20
27.023123
 30
0.0
 10
330.548093
 20
27.168100
 30
0.0
 10
330.685093
 20
27.297104
 30
0.0
 10
330.837093
 20
27.407114
 30
0.0
 10
331.002093
 20
27.498103
 30
0.0
 10
331.177093
 20
27.568122
 30
0.0
 10
331.360093
 20
27.614124
 30
0.0
 10
331.547093
 20
27.638113
 30
0.0
 10
331.735093
 20
27.638113
 30
0.0
 10
331.922093
 20
27.614124
 30
0.0
 10
332.105093
 20
27.568122
 30
0.0
 10
332.280093
 20
27.498103
 30
0.0
 10
332.445093
 20
27.407114
 30
0.0
 10
332.597093
 20
27.297104
 30
0.0
 10
332.734093
 20
27.168100
 30
0.0
 10
332.855093
 20
27.023123
 30
0.0
 10
332.955093
 20
26.864119
 30
0.0
 10
333.036093
 20
26.693120
 30
0.0
 10
333.094093
 20
26.514107
 30
0.0
 10
333.129093
 20
26.329110
 30
0.0
 10
333.141093
 20
26.141122
 30
0.0
 10
333.129093
 20
25.953105
 30
0.0
 10
333.094093
 20
25.768109
 30
0.0
 10
333.036093
 20
25.589123
 30
0.0
 10
332.955093
 20
25.418125
 30
0.0
 10
332.855093
 20
25.259121
 30
0.0
 10
332.734093
 20
25.114115
 30
0.0
 10
332.597093
 20
24.985111
 30
0.0
 10
332.445093
 20
24.875101
 30
0.0
 10
332.280093
 20
24.784113
 30
0.0
 10
332.105093
 20
24.714121
 30
0.0
 10
331.922093
 20
24.668119
 30
0.0
 10
331.735093
 20
24.644130
 30
0.0
 10
331.547093
 20
24.644102
 30
0.0
 10
331.360093
 20
24.668091
 30
0.0
 10
331.177093
 20
24.714121
 30
0.0
 10
331.002093
 20
24.784113
 30
0.0
 10
330.837093
 20
24.875101
 30
0.0
 10
330.685093
 20
24.985111
 30
0.0
 10
330.548093
 20
25.114115
 30
0.0
 10
330.427093
 20
25.259121
 30
0.0
 10
330.327093
 20
25.418125
 30
0.0
 10
330.246093
 20
25.589123
 30
0.0
 10
330.188093
 20
25.768109
 30
0.0
 10
330.153093
 20
25.953105
 30
0.0
 10
330.141093
 20
26.141122
 30
0.0
  0
LWPOLYLINE
  5
17d
100
AcDbEntity
  8
Ebene_1
 62
7
100
AcDbPolyline
 90
51
 70
0
 10
341.141092
 20
6.141105
 30
0.0
 10
341.153087
 20
6.329122
 30
0.0
 10
341.188094
 20
6.514118
 30
0.0
 10
341.246093
 20
6.693104
 30
0.0
 10
341.327094
 20
6.864102
 30
0.0
 10
341.427094
 20
7.023106
 30
0.0
 10
341.548093
 20
7.168112
 30
0.0
 10
341.685093
 20
7.297116
 30
0.0
 10
341.837092
 20
7.407126
 30
0.0
 10
342.002093
 20
7.498114
 30
0.0
 10
342.177093
 20
7.568105
 30
0.0
 10
342.360092
 20
7.614108
 30
0.0
 10
342.547092
 20
7.638097
 30
0.0
 10
342.735092
 20
7.638125
 30
0.0
 10
342.922092
 20
7.614136
 30
0.0
 10
343.105094
 20
7.568105
 30
0.0
 10
343.280094
 20
7.498114
 30
0.0
 10
343.445092
 20
7.407126
 30
0.0
 10
343.597092
 20
7.297116
 30
0.0
 10
343.734094
 20
7.168112
 30
0.0
 10
343.855094
 20
7.023106
 30
0.0
 10
343.955093
 20
6.864102
 30
0.0
 10
344.036094
 20
6.693104
 30
0.0
 10
344.094094
 20
6.514118
 30
0.0
 10
344.129092
 20
6.329122
 30
0.0
 10
344.141086
 20
6.141105
 30
0.0
 10
344.129098
 20
5.953117
 30
0.0
 10
344.094094
 20
5.768120
 30
0.0
 10
344.036094
 20
5.589107
 30
0.0
 10
343.955093
 20
5.418108
 30
0.0
 10
343.855094
 20
5.259104
 30
0.0
 10
343.734094
 20
5.114099
 30
0.0
 10
343.597092
 20
4.985123
 30
0.0
 10
343.445092
 20
4.875113
 30
0.0
 10
343.280094
 20
4.784124
 30
0.0
 10
343.105094
 20
4.714105
 30
0.0
 10
342.922092
 20
4.668103
 30
0.0
 10
342.735092
 20
4.644114
 30
0.0
 10
342.547092
 20
4.644114
 30
0.0
 10
342.360092
 20
4.668103
 30
0.0
 10
342.177093
 20
4.714105
 30
0.0
 10
342.002093
 20
4.784124
 30
0.0
 10
341.837092
 20
4.875113
 30
0.0
 10
341.685093
 20
4.985123
 30
0.0
 10
341.548093
 20
5.114099
 30
0.0
 10
341.427094
 20
5.259104
 30
0.0
 10
341.327094
 20
5.418108
 30
0.0
 10
341.246093
 20
5.589107
 30
0.0
 10
341.188094
 20
5.768120
 30
0.0
 10
341.153092
 20
5.953117
 30
0.0
 10
341.141098
 20
6.141105
 30
0.0
  0
LWPOLYLINE
  5
17e
100
AcDbEntity
  8
Ebene_1
 62
7
100
AcDbPolyline
 90
51
 70
0
 10
341.141092
 20
16.141113
 30
0.0
 10
341.153087
 20
16.329102
 30
0.0
 10
341.188094
 20
16.514098
 30
0.0
 10
341.246093
 20
16.693112
 30
0.0
 10
341.327094
 20
16.864110
 30
0.0
 10
341.427094
 20
17.023114
 30
0.0
 10
341.548093
 20
17.168120
 30
0.0
 10
341.685093
 20
17.297124
 30
0.0
 10
341.837092
 20
17.407106
 30
0.0
 10
342.002093
 20
17.498123
 30
0.0
 10
342.177093
 20
17.568114
 30
0.0
 10
342.360092
 20
17.614116
 30
0.0
 10
342.547092
 20
17.638105
 30
0.0
 10
342.735092
 20
17.638105
 30
0.0
 10
342.922092
 20
17.614116
 30
0.0
 10
343.105094
 20
17.568114
 30
0.0
 10
343.280094
 20
17.498123
 30
0.0
 10
343.445092
 20
17.407106
 30
0.0
 10
343.597092
 20
17.297124
 30
0.0
 10
343.734094
 20
17.168120
 30
0.0
 10
343.855094
 20
17.023114
 30
0.0
 10
343.955093
 20
16.864110
 30
0.0
 10
344.036094
 20
16.693112
 30
0.0
 10
344.094094
 20
16.514098
 30
0.0
 10
344.129092
 20
16.329102
 30
0.0
 10
344.141086
 20
16.141113
 30
0.0
 10
344.129098
 20
15.953125
 30
0.0
 10
344.094094
 20
15.768100
 30
0.0
 10
344.036094
 20
15.589115
 30
0.0
 10
343.955093
 20
15.418117
 30
0.0
 10
343.855094
 20
15.259113
 30
0.0
 10
343.734094
 20
15.114107
 30
0.0
 10
343.597092
 20
14.985103
 30
0.0
 10
343.445092
 20
14.875121
 30
0.0
 10
343.280094
 20
14.784104
 30
0.0
 10
343.105094
 20
14.714113
 30
0.0
 10
342.922092
 20
14.668111
 30
0.0
 10
342.735092
 20
14.644122
 30
0.0
 10
342.547092
 20
14.644122
 30
0.0
 10
342.360092
 20
14.668111
 30
0.0
 10
342.177093
 20
14.714113
 30
0.0
 10
342.002093
 20
14.784104
 30
0.0
 10
341.837092
 20
14.875121
 30
0.0
 10
341.685093
 20
14.985103
 30
0.0
 10
341.548093
 20
15.114107
 30
0.0
 10
341.427094
 20
15.259113
 30
0.0
 10
341.327094
 20
15.418117
 30
0.0
 10
341.246093
 20
15.589115
 30
0.0
 10
341.188094
 20
15.768100
 30
0.0
 10
341.153092
 20
15.953125
 30
0.0
 10
341.141098
 20
16.141113
 30
0.0
  0
LWPOLYLINE
  5
17f
100
AcDbEntity
  8
Ebene_1
 62
7
100
AcDbPolyline
 90
51
 70
0
 10
341.141092
 20
26.141122
 30
0.0
 10
341.153087
 20
26.329110
 30
0.0
 10
341.188094
 20
26.514107
 30
0.0
 10
341.246093
 20
26.693120
 30
0.0
 10
341.327094
 20
26.864119
 30
0.0
 10
341.427094
 20
27.023123
 30
0.0
 10
341.548093
 20
27.168100
 30
0.0
 10
341.685093
 20
27.297104
 30
0.0
 10
341.837092
 20
27.407114
 30
0.0
 10
342.002093
 20
27.498103
 30
0.0
 10
342.177093
 20
27.568122
 30
0.0
 10
342.360092
 20
27.614124
 30
0.0
 10
342.547092
 20
27.638113
 30
0.0
 10
342.735092
 20
27.638113
 30
0.0
 10
342.922092
 20
27.614124
 30
0.0
 10
343.105094
 20
27.568122
 30
0.0
 10
343.280094
 20
27.498103
 30
0.0
 10
343.445092
 20
27.407114
 30
0.0
 10
343.597092
 20
27.297104
 30
0.0
 10
343.734094
 20
27.168100
 30
0.0
 10
343.855094
 20
27.023123
 30
0.0
 10
343.955093
 20
26.864119
 30
0.0
 10
344.036094
 20
26.693120
 30
0.0
 10
344.094094
 20
26.514107
 30
0.0
 10
344.129092
 20
26.329110
 30
0.0
 10
344.141086
 20
26.141122
 30
0.0
 10
344.129098
 20
25.953105
 30
0.0
 10
344.094094
 20
25.768109
 30
0.0
 10
344.036094
 20
25.589123
 30
0.0
 10
343.955093
 20
25.418125
 30
0.0
 10
343.855094
 20
25.259121
 30
0.0
 10
343.734094
 20
25.114115
 30
0.0
 10
343.597092
 20
24.985111
 30
0.0
 10
343.445092
 20
24.875101
 30
0.0
 10
343.280094
 20
24.784113
 30
0.0
 10
343.105094
 20
24.714121
 30
0.0
 10
342.922092
 20
24.668119
 30
0.0
 10
342.735092
 20
24.644130
 30
0.0
 10
342.547092
 20
24.644102
 30
0.0
 10
342.360092
 20
24.668091
 30
0.0
 10
342.177093
 20
24.714121
 30
0.0
 10
342.002093
 20
24.784113
 30
0.0
 10
341.837092
 20
24.875101
 30
0.0
 10
341.685093
 20
24.985111
 30
0.0
 10
341.548093
 20
25.114115
 30
0.0
 10
341.427094
 20
25.259121
 30
0.0
 10
341.327094
 20
25.418125
 30
0.0
 10
341.246093
 20
25.589123
 30
0.0
 10
341.188094
 20
25.768109
 30
0.0
 10
341.153092
 20
25.953105
 30
0.0
 10
341.141098
 20
26.141122
 30
0.0
  0
ENDSEC
  0
SECTION
  2
OBJECTS
  0
DICTIONARY
  5
C
330
0
100
AcDbDictionary
  3
ACAD_GROUP
350
D
  3
ACAD_MLINESTYLE
350
17
  0
DICTIONARY
  5
D
330
C
100
AcDbDictionary
  0
DICTIONARY
  5
1A
330
C
100
AcDbDictionary
  0
DICTIONARY
  5
17
330
C
100
AcDbDictionary
  3
STANDARD
350
18
  0
DICTIONARY
  5
19
330
C
100
AcDbDictionary
  0
ENDSEC
  0
EOF
