  0
SECTION
  2
BLOCKS
  0
ENDSEC
  0
SECTION
  2
ENTITIES
  0
LINE
  8
0
 10
-32.5
 11
-32.5
 20
-32.5
 21
32.5
  0
LINE
  8
0
 10
-32.5
 11
32.5
 20
32.5
 21
32.5
  0
LINE
  8
0
 10
32.5
 11
32.5
 20
32.5
 21
-32.5
  0
LINE
  8
0
 10
32.5
 11
-32.5
 20
-32.5
 21
-32.5
  0
LINE
  8
0
 10
-27.5
 11
-27.488
 20
-26
 21
-25.812
  0
LINE
  8
0
 10
-27.488
 11
-27.453
 20
-25.812
 21
-25.627
  0
LINE
  8
0
 10
-27.453
 11
-27.395
 20
-25.627
 21
-25.448
  0
LINE
  8
0
 10
-27.395
 11
-27.314
 20
-25.448
 21
-25.277
  0
LINE
  8
0
 10
-27.314
 11
-27.214
 20
-25.277
 21
-25.118
  0
LINE
  8
0
 10
-27.214
 11
-27.093
 20
-25.118
 21
-24.973
  0
LINE
  8
0
 10
-27.093
 11
-26.956
 20
-24.973
 21
-24.844
  0
LINE
  8
0
 10
-26.956
 11
-26.804
 20
-24.844
 21
-24.734
  0
LINE
  8
0
 10
-26.804
 11
-26.639
 20
-24.734
 21
-24.643
  0
LINE
  8
0
 10
-26.639
 11
-26.464
 20
-24.643
 21
-24.573
  0
LINE
  8
0
 10
-26.464
 11
-26.281
 20
-24.573
 21
-24.527
  0
LINE
  8
0
 10
-26.281
 11
-26.094
 20
-24.527
 21
-24.503
  0
LINE
  8
0
 10
-26.094
 11
-25.906
 20
-24.503
 21
-24.503
  0
LINE
  8
0
 10
-25.906
 11
-25.719
 20
-24.503
 21
-24.527
  0
LINE
  8
0
 10
-25.719
 11
-25.536
 20
-24.527
 21
-24.573
  0
LINE
  8
0
 10
-25.536
 11
-25.361
 20
-24.573
 21
-24.643
  0
LINE
  8
0
 10
-25.361
 11
-25.196
 20
-24.643
 21
-24.734
  0
LINE
  8
0
 10
-25.196
 11
-25.044
 20
-24.734
 21
-24.844
  0
LINE
  8
0
 10
-25.044
 11
-24.907
 20
-24.844
 21
-24.973
  0
LINE
  8
0
 10
-24.907
 11
-24.786
 20
-24.973
 21
-25.118
  0
LINE
  8
0
 10
-24.786
 11
-24.686
 20
-25.118
 21
-25.277
  0
LINE
  8
0
 10
-24.686
 11
-24.605
 20
-25.277
 21
-25.448
  0
LINE
  8
0
 10
-24.605
 11
-24.547
 20
-25.448
 21
-25.627
  0
LINE
  8
0
 10
-24.547
 11
-24.512
 20
-25.627
 21
-25.812
  0
LINE
  8
0
 10
-24.512
 11
-24.5
 20
-25.812
 21
-26
  0
LINE
  8
0
 10
-24.5
 11
-24.512
 20
-26
 21
-26.188
  0
LINE
  8
0
 10
-24.512
 11
-24.547
 20
-26.188
 21
-26.373
  0
LINE
  8
0
 10
-24.547
 11
-24.605
 20
-26.373
 21
-26.552
  0
LINE
  8
0
 10
-24.605
 11
-24.686
 20
-26.552
 21
-26.723
  0
LINE
  8
0
 10
-24.686
 11
-24.786
 20
-26.723
 21
-26.882
  0
LINE
  8
0
 10
-24.786
 11
-24.907
 20
-26.882
 21
-27.027
  0
LINE
  8
0
 10
-24.907
 11
-25.044
 20
-27.027
 21
-27.156
  0
LINE
  8
0
 10
-25.044
 11
-25.196
 20
-27.156
 21
-27.266
  0
LINE
  8
0
 10
-25.196
 11
-25.361
 20
-27.266
 21
-27.357
  0
LINE
  8
0
 10
-25.361
 11
-25.536
 20
-27.357
 21
-27.427
  0
LINE
  8
0
 10
-25.536
 11
-25.719
 20
-27.427
 21
-27.473
  0
LINE
  8
0
 10
-25.719
 11
-25.906
 20
-27.473
 21
-27.497
  0
LINE
  8
0
 10
-25.906
 11
-26.094
 20
-27.497
 21
-27.497
  0
LINE
  8
0
 10
-26.094
 11
-26.281
 20
-27.497
 21
-27.473
  0
LINE
  8
0
 10
-26.281
 11
-26.464
 20
-27.473
 21
-27.427
  0
LINE
  8
0
 10
-26.464
 11
-26.639
 20
-27.427
 21
-27.357
  0
LINE
  8
0
 10
-26.639
 11
-26.804
 20
-27.357
 21
-27.266
  0
LINE
  8
0
 10
-26.804
 11
-26.956
 20
-27.266
 21
-27.156
  0
LINE
  8
0
 10
-26.956
 11
-27.093
 20
-27.156
 21
-27.027
  0
LINE
  8
0
 10
-27.093
 11
-27.214
 20
-27.027
 21
-26.882
  0
LINE
  8
0
 10
-27.214
 11
-27.314
 20
-26.882
 21
-26.723
  0
LINE
  8
0
 10
-27.314
 11
-27.395
 20
-26.723
 21
-26.552
  0
LINE
  8
0
 10
-27.395
 11
-27.453
 20
-26.552
 21
-26.373
  0
LINE
  8
0
 10
-27.453
 11
-27.488
 20
-26.373
 21
-26.188
  0
LINE
  8
0
 10
-27.488
 11
-27.5
 20
-26.188
 21
-26
  0
LINE
  8
0
 10
-27.497
 11
-27.497
 20
25.906
 21
26.094
  0
LINE
  8
0
 10
-27.497
 11
-27.473
 20
26.094
 21
26.281
  0
LINE
  8
0
 10
-27.473
 11
-27.427
 20
26.281
 21
26.464
  0
LINE
  8
0
 10
-27.427
 11
-27.357
 20
26.464
 21
26.639
  0
LINE
  8
0
 10
-27.357
 11
-27.266
 20
26.639
 21
26.804
  0
LINE
  8
0
 10
-27.266
 11
-27.156
 20
26.804
 21
26.956
  0
LINE
  8
0
 10
-27.156
 11
-27.027
 20
26.956
 21
27.093
  0
LINE
  8
0
 10
-27.027
 11
-26.882
 20
27.093
 21
27.214
  0
LINE
  8
0
 10
-26.882
 11
-26.723
 20
27.214
 21
27.314
  0
LINE
  8
0
 10
-26.723
 11
-26.552
 20
27.314
 21
27.395
  0
LINE
  8
0
 10
-26.552
 11
-26.373
 20
27.395
 21
27.453
  0
LINE
  8
0
 10
-26.373
 11
-26.188
 20
27.453
 21
27.488
  0
LINE
  8
0
 10
-26.188
 11
-26
 20
27.488
 21
27.5
  0
LINE
  8
0
 10
-26
 11
-25.812
 20
27.5
 21
27.488
  0
LINE
  8
0
 10
-25.812
 11
-25.627
 20
27.488
 21
27.453
  0
LINE
  8
0
 10
-25.627
 11
-25.448
 20
27.453
 21
27.395
  0
LINE
  8
0
 10
-25.448
 11
-25.277
 20
27.395
 21
27.314
  0
LINE
  8
0
 10
-25.277
 11
-25.118
 20
27.314
 21
27.214
  0
LINE
  8
0
 10
-25.118
 11
-24.973
 20
27.214
 21
27.093
  0
LINE
  8
0
 10
-24.973
 11
-24.844
 20
27.093
 21
26.956
  0
LINE
  8
0
 10
-24.844
 11
-24.734
 20
26.956
 21
26.804
  0
LINE
  8
0
 10
-24.734
 11
-24.643
 20
26.804
 21
26.639
  0
LINE
  8
0
 10
-24.643
 11
-24.573
 20
26.639
 21
26.464
  0
LINE
  8
0
 10
-24.573
 11
-24.527
 20
26.464
 21
26.281
  0
LINE
  8
0
 10
-24.527
 11
-24.503
 20
26.281
 21
26.094
  0
LINE
  8
0
 10
-24.503
 11
-24.503
 20
26.094
 21
25.906
  0
LINE
  8
0
 10
-24.503
 11
-24.527
 20
25.906
 21
25.719
  0
LINE
  8
0
 10
-24.527
 11
-24.573
 20
25.719
 21
25.536
  0
LINE
  8
0
 10
-24.573
 11
-24.643
 20
25.536
 21
25.361
  0
LINE
  8
0
 10
-24.643
 11
-24.734
 20
25.361
 21
25.196
  0
LINE
  8
0
 10
-24.734
 11
-24.844
 20
25.196
 21
25.044
  0
LINE
  8
0
 10
-24.844
 11
-24.973
 20
25.044
 21
24.907
  0
LINE
  8
0
 10
-24.973
 11
-25.118
 20
24.907
 21
24.786
  0
LINE
  8
0
 10
-25.118
 11
-25.277
 20
24.786
 21
24.686
  0
LINE
  8
0
 10
-25.277
 11
-25.448
 20
24.686
 21
24.605
  0
LINE
  8
0
 10
-25.448
 11
-25.627
 20
24.605
 21
24.547
  0
LINE
  8
0
 10
-25.627
 11
-25.812
 20
24.547
 21
24.512
  0
LINE
  8
0
 10
-25.812
 11
-26
 20
24.512
 21
24.5
  0
LINE
  8
0
 10
-26
 11
-26.188
 20
24.5
 21
24.512
  0
LINE
  8
0
 10
-26.188
 11
-26.373
 20
24.512
 21
24.547
  0
LINE
  8
0
 10
-26.373
 11
-26.552
 20
24.547
 21
24.605
  0
LINE
  8
0
 10
-26.552
 11
-26.723
 20
24.605
 21
24.686
  0
LINE
  8
0
 10
-26.723
 11
-26.882
 20
24.686
 21
24.786
  0
LINE
  8
0
 10
-26.882
 11
-27.027
 20
24.786
 21
24.907
  0
LINE
  8
0
 10
-27.027
 11
-27.156
 20
24.907
 21
25.044
  0
LINE
  8
0
 10
-27.156
 11
-27.266
 20
25.044
 21
25.196
  0
LINE
  8
0
 10
-27.266
 11
-27.357
 20
25.196
 21
25.361
  0
LINE
  8
0
 10
-27.357
 11
-27.427
 20
25.361
 21
25.536
  0
LINE
  8
0
 10
-27.427
 11
-27.473
 20
25.536
 21
25.719
  0
LINE
  8
0
 10
-27.473
 11
-27.497
 20
25.719
 21
25.906
  0
LINE
  8
0
 10
24.5
 11
24.512
 20
26
 21
26.188
  0
LINE
  8
0
 10
24.512
 11
24.547
 20
26.188
 21
26.373
  0
LINE
  8
0
 10
24.547
 11
24.605
 20
26.373
 21
26.552
  0
LINE
  8
0
 10
24.605
 11
24.686
 20
26.552
 21
26.723
  0
LINE
  8
0
 10
24.686
 11
24.786
 20
26.723
 21
26.882
  0
LINE
  8
0
 10
24.786
 11
24.907
 20
26.882
 21
27.027
  0
LINE
  8
0
 10
24.907
 11
25.044
 20
27.027
 21
27.156
  0
LINE
  8
0
 10
25.044
 11
25.196
 20
27.156
 21
27.266
  0
LINE
  8
0
 10
25.196
 11
25.361
 20
27.266
 21
27.357
  0
LINE
  8
0
 10
25.361
 11
25.536
 20
27.357
 21
27.427
  0
LINE
  8
0
 10
25.536
 11
25.719
 20
27.427
 21
27.473
  0
LINE
  8
0
 10
25.719
 11
25.906
 20
27.473
 21
27.497
  0
LINE
  8
0
 10
25.906
 11
26.094
 20
27.497
 21
27.497
  0
LINE
  8
0
 10
26.094
 11
26.281
 20
27.497
 21
27.473
  0
LINE
  8
0
 10
26.281
 11
26.464
 20
27.473
 21
27.427
  0
LINE
  8
0
 10
26.464
 11
26.639
 20
27.427
 21
27.357
  0
LINE
  8
0
 10
26.639
 11
26.804
 20
27.357
 21
27.266
  0
LINE
  8
0
 10
26.804
 11
26.956
 20
27.266
 21
27.156
  0
LINE
  8
0
 10
26.956
 11
27.093
 20
27.156
 21
27.027
  0
LINE
  8
0
 10
27.093
 11
27.214
 20
27.027
 21
26.882
  0
LINE
  8
0
 10
27.214
 11
27.314
 20
26.882
 21
26.723
  0
LINE
  8
0
 10
27.314
 11
27.395
 20
26.723
 21
26.552
  0
LINE
  8
0
 10
27.395
 11
27.453
 20
26.552
 21
26.373
  0
LINE
  8
0
 10
27.453
 11
27.488
 20
26.373
 21
26.188
  0
LINE
  8
0
 10
27.488
 11
27.5
 20
26.188
 21
26
  0
LINE
  8
0
 10
27.5
 11
27.488
 20
26
 21
25.812
  0
LINE
  8
0
 10
27.488
 11
27.453
 20
25.812
 21
25.627
  0
LINE
  8
0
 10
27.453
 11
27.395
 20
25.627
 21
25.448
  0
LINE
  8
0
 10
27.395
 11
27.314
 20
25.448
 21
25.277
  0
LINE
  8
0
 10
27.314
 11
27.214
 20
25.277
 21
25.118
  0
LINE
  8
0
 10
27.214
 11
27.093
 20
25.118
 21
24.973
  0
LINE
  8
0
 10
27.093
 11
26.956
 20
24.973
 21
24.844
  0
LINE
  8
0
 10
26.956
 11
26.804
 20
24.844
 21
24.734
  0
LINE
  8
0
 10
26.804
 11
26.639
 20
24.734
 21
24.643
  0
LINE
  8
0
 10
26.639
 11
26.464
 20
24.643
 21
24.573
  0
LINE
  8
0
 10
26.464
 11
26.281
 20
24.573
 21
24.527
  0
LINE
  8
0
 10
26.281
 11
26.094
 20
24.527
 21
24.503
  0
LINE
  8
0
 10
26.094
 11
25.906
 20
24.503
 21
24.503
  0
LINE
  8
0
 10
25.906
 11
25.719
 20
24.503
 21
24.527
  0
LINE
  8
0
 10
25.719
 11
25.536
 20
24.527
 21
24.573
  0
LINE
  8
0
 10
25.536
 11
25.361
 20
24.573
 21
24.643
  0
LINE
  8
0
 10
25.361
 11
25.196
 20
24.643
 21
24.734
  0
LINE
  8
0
 10
25.196
 11
25.044
 20
24.734
 21
24.844
  0
LINE
  8
0
 10
25.044
 11
24.907
 20
24.844
 21
24.973
  0
LINE
  8
0
 10
24.907
 11
24.786
 20
24.973
 21
25.118
  0
LINE
  8
0
 10
24.786
 11
24.686
 20
25.118
 21
25.277
  0
LINE
  8
0
 10
24.686
 11
24.605
 20
25.277
 21
25.448
  0
LINE
  8
0
 10
24.605
 11
24.547
 20
25.448
 21
25.627
  0
LINE
  8
0
 10
24.547
 11
24.512
 20
25.627
 21
25.812
  0
LINE
  8
0
 10
24.512
 11
24.5
 20
25.812
 21
26
  0
LINE
  8
0
 10
24.503
 11
24.503
 20
-26.094
 21
-25.906
  0
LINE
  8
0
 10
24.503
 11
24.527
 20
-25.906
 21
-25.719
  0
LINE
  8
0
 10
24.527
 11
24.573
 20
-25.719
 21
-25.536
  0
LINE
  8
0
 10
24.573
 11
24.643
 20
-25.536
 21
-25.361
  0
LINE
  8
0
 10
24.643
 11
24.734
 20
-25.361
 21
-25.196
  0
LINE
  8
0
 10
24.734
 11
24.844
 20
-25.196
 21
-25.044
  0
LINE
  8
0
 10
24.844
 11
24.973
 20
-25.044
 21
-24.907
  0
LINE
  8
0
 10
24.973
 11
25.118
 20
-24.907
 21
-24.786
  0
LINE
  8
0
 10
25.118
 11
25.277
 20
-24.786
 21
-24.686
  0
LINE
  8
0
 10
25.277
 11
25.448
 20
-24.686
 21
-24.605
  0
LINE
  8
0
 10
25.448
 11
25.627
 20
-24.605
 21
-24.547
  0
LINE
  8
0
 10
25.627
 11
25.812
 20
-24.547
 21
-24.512
  0
LINE
  8
0
 10
25.812
 11
26
 20
-24.512
 21
-24.5
  0
LINE
  8
0
 10
26
 11
26.188
 20
-24.5
 21
-24.512
  0
LINE
  8
0
 10
26.188
 11
26.373
 20
-24.512
 21
-24.547
  0
LINE
  8
0
 10
26.373
 11
26.552
 20
-24.547
 21
-24.605
  0
LINE
  8
0
 10
26.552
 11
26.723
 20
-24.605
 21
-24.686
  0
LINE
  8
0
 10
26.723
 11
26.882
 20
-24.686
 21
-24.786
  0
LINE
  8
0
 10
26.882
 11
27.027
 20
-24.786
 21
-24.907
  0
LINE
  8
0
 10
27.027
 11
27.156
 20
-24.907
 21
-25.044
  0
LINE
  8
0
 10
27.156
 11
27.266
 20
-25.044
 21
-25.196
  0
LINE
  8
0
 10
27.266
 11
27.357
 20
-25.196
 21
-25.361
  0
LINE
  8
0
 10
27.357
 11
27.427
 20
-25.361
 21
-25.536
  0
LINE
  8
0
 10
27.427
 11
27.473
 20
-25.536
 21
-25.719
  0
LINE
  8
0
 10
27.473
 11
27.497
 20
-25.719
 21
-25.906
  0
LINE
  8
0
 10
27.497
 11
27.497
 20
-25.906
 21
-26.094
  0
LINE
  8
0
 10
27.497
 11
27.473
 20
-26.094
 21
-26.281
  0
LINE
  8
0
 10
27.473
 11
27.427
 20
-26.281
 21
-26.464
  0
LINE
  8
0
 10
27.427
 11
27.357
 20
-26.464
 21
-26.639
  0
LINE
  8
0
 10
27.357
 11
27.266
 20
-26.639
 21
-26.804
  0
LINE
  8
0
 10
27.266
 11
27.156
 20
-26.804
 21
-26.956
  0
LINE
  8
0
 10
27.156
 11
27.027
 20
-26.956
 21
-27.093
  0
LINE
  8
0
 10
27.027
 11
26.882
 20
-27.093
 21
-27.214
  0
LINE
  8
0
 10
26.882
 11
26.723
 20
-27.214
 21
-27.314
  0
LINE
  8
0
 10
26.723
 11
26.552
 20
-27.314
 21
-27.395
  0
LINE
  8
0
 10
26.552
 11
26.373
 20
-27.395
 21
-27.453
  0
LINE
  8
0
 10
26.373
 11
26.188
 20
-27.453
 21
-27.488
  0
LINE
  8
0
 10
26.188
 11
26
 20
-27.488
 21
-27.5
  0
LINE
  8
0
 10
26
 11
25.812
 20
-27.5
 21
-27.488
  0
LINE
  8
0
 10
25.812
 11
25.627
 20
-27.488
 21
-27.453
  0
LINE
  8
0
 10
25.627
 11
25.448
 20
-27.453
 21
-27.395
  0
LINE
  8
0
 10
25.448
 11
25.277
 20
-27.395
 21
-27.314
  0
LINE
  8
0
 10
25.277
 11
25.118
 20
-27.314
 21
-27.214
  0
LINE
  8
0
 10
25.118
 11
24.973
 20
-27.214
 21
-27.093
  0
LINE
  8
0
 10
24.973
 11
24.844
 20
-27.093
 21
-26.956
  0
LINE
  8
0
 10
24.844
 11
24.734
 20
-26.956
 21
-26.804
  0
LINE
  8
0
 10
24.734
 11
24.643
 20
-26.804
 21
-26.639
  0
LINE
  8
0
 10
24.643
 11
24.573
 20
-26.639
 21
-26.464
  0
LINE
  8
0
 10
24.573
 11
24.527
 20
-26.464
 21
-26.281
  0
LINE
  8
0
 10
24.527
 11
24.503
 20
-26.281
 21
-26.094
  0
ENDSEC
  0
SECTION
  2
OBJECTS
  0
DICTIONARY
  0
ENDSEC
  0
EOF
