  0
SECTION
  2
BLOCKS
  0
ENDSEC
  0
SECTION
  2
ENTITIES
  0
LINE
  8
0
 10
-32.5
 11
-32.5
 20
-32.5
 21
32.5
  0
LINE
  8
0
 10
-32.5
 11
32.5
 20
32.5
 21
32.5
  0
LINE
  8
0
 10
32.5
 11
32.5
 20
32.5
 21
-32.5
  0
LINE
  8
0
 10
32.5
 11
-32.5
 20
-32.5
 21
-32.5
  0
LINE
  8
0
 10
-28.5
 11
-28.5
 20
-17.5
 21
-12.5
  0
LINE
  8
0
 10
-28.5
 11
-23.5
 20
-12.5
 21
-12.5
  0
LINE
  8
0
 10
-23.5
 11
-23.5
 20
-12.5
 21
-17.5
  0
LINE
  8
0
 10
-23.5
 11
-28.5
 20
-17.5
 21
-17.5
  0
LINE
  8
0
 10
-28.5
 11
-28.5
 20
12.5
 21
17.5
  0
LINE
  8
0
 10
-28.5
 11
-23.5
 20
17.5
 21
17.5
  0
LINE
  8
0
 10
-23.5
 11
-23.5
 20
17.5
 21
12.5
  0
LINE
  8
0
 10
-23.5
 11
-28.5
 20
12.5
 21
12.5
  0
LINE
  8
0
 10
-27.5
 11
-27.488
 20
-26
 21
-25.812
  0
LINE
  8
0
 10
-27.488
 11
-27.453
 20
-25.812
 21
-25.627
  0
LINE
  8
0
 10
-27.453
 11
-27.395
 20
-25.627
 21
-25.448
  0
LINE
  8
0
 10
-27.395
 11
-27.314
 20
-25.448
 21
-25.277
  0
LINE
  8
0
 10
-27.314
 11
-27.214
 20
-25.277
 21
-25.118
  0
LINE
  8
0
 10
-27.214
 11
-27.093
 20
-25.118
 21
-24.973
  0
LINE
  8
0
 10
-27.093
 11
-26.956
 20
-24.973
 21
-24.844
  0
LINE
  8
0
 10
-26.956
 11
-26.804
 20
-24.844
 21
-24.734
  0
LINE
  8
0
 10
-26.804
 11
-26.639
 20
-24.734
 21
-24.643
  0
LINE
  8
0
 10
-26.639
 11
-26.464
 20
-24.643
 21
-24.573
  0
LINE
  8
0
 10
-26.464
 11
-26.281
 20
-24.573
 21
-24.527
  0
LINE
  8
0
 10
-26.281
 11
-26.094
 20
-24.527
 21
-24.503
  0
LINE
  8
0
 10
-26.094
 11
-25.906
 20
-24.503
 21
-24.503
  0
LINE
  8
0
 10
-25.906
 11
-25.719
 20
-24.503
 21
-24.527
  0
LINE
  8
0
 10
-25.719
 11
-25.536
 20
-24.527
 21
-24.573
  0
LINE
  8
0
 10
-25.536
 11
-25.361
 20
-24.573
 21
-24.643
  0
LINE
  8
0
 10
-25.361
 11
-25.196
 20
-24.643
 21
-24.734
  0
LINE
  8
0
 10
-25.196
 11
-25.044
 20
-24.734
 21
-24.844
  0
LINE
  8
0
 10
-25.044
 11
-24.907
 20
-24.844
 21
-24.973
  0
LINE
  8
0
 10
-24.907
 11
-24.786
 20
-24.973
 21
-25.118
  0
LINE
  8
0
 10
-24.786
 11
-24.686
 20
-25.118
 21
-25.277
  0
LINE
  8
0
 10
-24.686
 11
-24.605
 20
-25.277
 21
-25.448
  0
LINE
  8
0
 10
-24.605
 11
-24.547
 20
-25.448
 21
-25.627
  0
LINE
  8
0
 10
-24.547
 11
-24.512
 20
-25.627
 21
-25.812
  0
LINE
  8
0
 10
-24.512
 11
-24.5
 20
-25.812
 21
-26
  0
LINE
  8
0
 10
-24.5
 11
-24.512
 20
-26
 21
-26.188
  0
LINE
  8
0
 10
-24.512
 11
-24.547
 20
-26.188
 21
-26.373
  0
LINE
  8
0
 10
-24.547
 11
-24.605
 20
-26.373
 21
-26.552
  0
LINE
  8
0
 10
-24.605
 11
-24.686
 20
-26.552
 21
-26.723
  0
LINE
  8
0
 10
-24.686
 11
-24.786
 20
-26.723
 21
-26.882
  0
LINE
  8
0
 10
-24.786
 11
-24.907
 20
-26.882
 21
-27.027
  0
LINE
  8
0
 10
-24.907
 11
-25.044
 20
-27.027
 21
-27.156
  0
LINE
  8
0
 10
-25.044
 11
-25.196
 20
-27.156
 21
-27.266
  0
LINE
  8
0
 10
-25.196
 11
-25.361
 20
-27.266
 21
-27.357
  0
LINE
  8
0
 10
-25.361
 11
-25.536
 20
-27.357
 21
-27.427
  0
LINE
  8
0
 10
-25.536
 11
-25.719
 20
-27.427
 21
-27.473
  0
LINE
  8
0
 10
-25.719
 11
-25.906
 20
-27.473
 21
-27.497
  0
LINE
  8
0
 10
-25.906
 11
-26.094
 20
-27.497
 21
-27.497
  0
LINE
  8
0
 10
-26.094
 11
-26.281
 20
-27.497
 21
-27.473
  0
LINE
  8
0
 10
-26.281
 11
-26.464
 20
-27.473
 21
-27.427
  0
LINE
  8
0
 10
-26.464
 11
-26.639
 20
-27.427
 21
-27.357
  0
LINE
  8
0
 10
-26.639
 11
-26.804
 20
-27.357
 21
-27.266
  0
LINE
  8
0
 10
-26.804
 11
-26.956
 20
-27.266
 21
-27.156
  0
LINE
  8
0
 10
-26.956
 11
-27.093
 20
-27.156
 21
-27.027
  0
LINE
  8
0
 10
-27.093
 11
-27.214
 20
-27.027
 21
-26.882
  0
LINE
  8
0
 10
-27.214
 11
-27.314
 20
-26.882
 21
-26.723
  0
LINE
  8
0
 10
-27.314
 11
-27.395
 20
-26.723
 21
-26.552
  0
LINE
  8
0
 10
-27.395
 11
-27.453
 20
-26.552
 21
-26.373
  0
LINE
  8
0
 10
-27.453
 11
-27.488
 20
-26.373
 21
-26.188
  0
LINE
  8
0
 10
-27.488
 11
-27.5
 20
-26.188
 21
-26
  0
LINE
  8
0
 10
-27.497
 11
-27.497
 20
25.906
 21
26.094
  0
LINE
  8
0
 10
-27.497
 11
-27.473
 20
26.094
 21
26.281
  0
LINE
  8
0
 10
-27.473
 11
-27.427
 20
26.281
 21
26.464
  0
LINE
  8
0
 10
-27.427
 11
-27.357
 20
26.464
 21
26.639
  0
LINE
  8
0
 10
-27.357
 11
-27.266
 20
26.639
 21
26.804
  0
LINE
  8
0
 10
-27.266
 11
-27.156
 20
26.804
 21
26.956
  0
LINE
  8
0
 10
-27.156
 11
-27.027
 20
26.956
 21
27.093
  0
LINE
  8
0
 10
-27.027
 11
-26.882
 20
27.093
 21
27.214
  0
LINE
  8
0
 10
-26.882
 11
-26.723
 20
27.214
 21
27.314
  0
LINE
  8
0
 10
-26.723
 11
-26.552
 20
27.314
 21
27.395
  0
LINE
  8
0
 10
-26.552
 11
-26.373
 20
27.395
 21
27.453
  0
LINE
  8
0
 10
-26.373
 11
-26.188
 20
27.453
 21
27.488
  0
LINE
  8
0
 10
-26.188
 11
-26
 20
27.488
 21
27.5
  0
LINE
  8
0
 10
-26
 11
-25.812
 20
27.5
 21
27.488
  0
LINE
  8
0
 10
-25.812
 11
-25.627
 20
27.488
 21
27.453
  0
LINE
  8
0
 10
-25.627
 11
-25.448
 20
27.453
 21
27.395
  0
LINE
  8
0
 10
-25.448
 11
-25.277
 20
27.395
 21
27.314
  0
LINE
  8
0
 10
-25.277
 11
-25.118
 20
27.314
 21
27.214
  0
LINE
  8
0
 10
-25.118
 11
-24.973
 20
27.214
 21
27.093
  0
LINE
  8
0
 10
-24.973
 11
-24.844
 20
27.093
 21
26.956
  0
LINE
  8
0
 10
-24.844
 11
-24.734
 20
26.956
 21
26.804
  0
LINE
  8
0
 10
-24.734
 11
-24.643
 20
26.804
 21
26.639
  0
LINE
  8
0
 10
-24.643
 11
-24.573
 20
26.639
 21
26.464
  0
LINE
  8
0
 10
-24.573
 11
-24.527
 20
26.464
 21
26.281
  0
LINE
  8
0
 10
-24.527
 11
-24.503
 20
26.281
 21
26.094
  0
LINE
  8
0
 10
-24.503
 11
-24.503
 20
26.094
 21
25.906
  0
LINE
  8
0
 10
-24.503
 11
-24.527
 20
25.906
 21
25.719
  0
LINE
  8
0
 10
-24.527
 11
-24.573
 20
25.719
 21
25.536
  0
LINE
  8
0
 10
-24.573
 11
-24.643
 20
25.536
 21
25.361
  0
LINE
  8
0
 10
-24.643
 11
-24.734
 20
25.361
 21
25.196
  0
LINE
  8
0
 10
-24.734
 11
-24.844
 20
25.196
 21
25.044
  0
LINE
  8
0
 10
-24.844
 11
-24.973
 20
25.044
 21
24.907
  0
LINE
  8
0
 10
-24.973
 11
-25.118
 20
24.907
 21
24.786
  0
LINE
  8
0
 10
-25.118
 11
-25.277
 20
24.786
 21
24.686
  0
LINE
  8
0
 10
-25.277
 11
-25.448
 20
24.686
 21
24.605
  0
LINE
  8
0
 10
-25.448
 11
-25.627
 20
24.605
 21
24.547
  0
LINE
  8
0
 10
-25.627
 11
-25.812
 20
24.547
 21
24.512
  0
LINE
  8
0
 10
-25.812
 11
-26
 20
24.512
 21
24.5
  0
LINE
  8
0
 10
-26
 11
-26.188
 20
24.5
 21
24.512
  0
LINE
  8
0
 10
-26.188
 11
-26.373
 20
24.512
 21
24.547
  0
LINE
  8
0
 10
-26.373
 11
-26.552
 20
24.547
 21
24.605
  0
LINE
  8
0
 10
-26.552
 11
-26.723
 20
24.605
 21
24.686
  0
LINE
  8
0
 10
-26.723
 11
-26.882
 20
24.686
 21
24.786
  0
LINE
  8
0
 10
-26.882
 11
-27.027
 20
24.786
 21
24.907
  0
LINE
  8
0
 10
-27.027
 11
-27.156
 20
24.907
 21
25.044
  0
LINE
  8
0
 10
-27.156
 11
-27.266
 20
25.044
 21
25.196
  0
LINE
  8
0
 10
-27.266
 11
-27.357
 20
25.196
 21
25.361
  0
LINE
  8
0
 10
-27.357
 11
-27.427
 20
25.361
 21
25.536
  0
LINE
  8
0
 10
-27.427
 11
-27.473
 20
25.536
 21
25.719
  0
LINE
  8
0
 10
-27.473
 11
-27.497
 20
25.719
 21
25.906
  0
LINE
  8
0
 10
-17.5
 11
-17.5
 20
-28.5
 21
-23.5
  0
LINE
  8
0
 10
-17.5
 11
-12.5
 20
-23.5
 21
-23.5
  0
LINE
  8
0
 10
-12.5
 11
-12.5
 20
-23.5
 21
-28.5
  0
LINE
  8
0
 10
-12.5
 11
-17.5
 20
-28.5
 21
-28.5
  0
LINE
  8
0
 10
-17.5
 11
-17.5
 20
23.5
 21
28.5
  0
LINE
  8
0
 10
-17.5
 11
-12.5
 20
28.5
 21
28.5
  0
LINE
  8
0
 10
-12.5
 11
-12.5
 20
28.5
 21
23.5
  0
LINE
  8
0
 10
-12.5
 11
-17.5
 20
23.5
 21
23.5
  0
LINE
  8
0
 10
-17
 11
-16.988
 20
-15.5
 21
-15.312
  0
LINE
  8
0
 10
-16.988
 11
-16.953
 20
-15.312
 21
-15.127
  0
LINE
  8
0
 10
-16.953
 11
-16.895
 20
-15.127
 21
-14.948
  0
LINE
  8
0
 10
-16.895
 11
-16.814
 20
-14.948
 21
-14.777
  0
LINE
  8
0
 10
-16.814
 11
-16.714
 20
-14.777
 21
-14.618
  0
LINE
  8
0
 10
-16.714
 11
-16.593
 20
-14.618
 21
-14.473
  0
LINE
  8
0
 10
-16.593
 11
-16.456
 20
-14.473
 21
-14.344
  0
LINE
  8
0
 10
-16.456
 11
-16.304
 20
-14.344
 21
-14.234
  0
LINE
  8
0
 10
-16.304
 11
-16.139
 20
-14.234
 21
-14.143
  0
LINE
  8
0
 10
-16.139
 11
-15.964
 20
-14.143
 21
-14.073
  0
LINE
  8
0
 10
-15.964
 11
-15.781
 20
-14.073
 21
-14.027
  0
LINE
  8
0
 10
-15.781
 11
-15.594
 20
-14.027
 21
-14.003
  0
LINE
  8
0
 10
-15.594
 11
-15.406
 20
-14.003
 21
-14.003
  0
LINE
  8
0
 10
-15.406
 11
-15.219
 20
-14.003
 21
-14.027
  0
LINE
  8
0
 10
-15.219
 11
-15.036
 20
-14.027
 21
-14.073
  0
LINE
  8
0
 10
-15.036
 11
-14.861
 20
-14.073
 21
-14.143
  0
LINE
  8
0
 10
-14.861
 11
-14.696
 20
-14.143
 21
-14.234
  0
LINE
  8
0
 10
-14.696
 11
-14.544
 20
-14.234
 21
-14.344
  0
LINE
  8
0
 10
-14.544
 11
-14.407
 20
-14.344
 21
-14.473
  0
LINE
  8
0
 10
-14.407
 11
-14.286
 20
-14.473
 21
-14.618
  0
LINE
  8
0
 10
-14.286
 11
-14.186
 20
-14.618
 21
-14.777
  0
LINE
  8
0
 10
-14.186
 11
-14.105
 20
-14.777
 21
-14.948
  0
LINE
  8
0
 10
-14.105
 11
-14.047
 20
-14.948
 21
-15.127
  0
LINE
  8
0
 10
-14.047
 11
-14.012
 20
-15.127
 21
-15.312
  0
LINE
  8
0
 10
-14.012
 11
-14
 20
-15.312
 21
-15.5
  0
LINE
  8
0
 10
-14
 11
-14.012
 20
-15.5
 21
-15.688
  0
LINE
  8
0
 10
-14.012
 11
-14.047
 20
-15.688
 21
-15.873
  0
LINE
  8
0
 10
-14.047
 11
-14.105
 20
-15.873
 21
-16.052
  0
LINE
  8
0
 10
-14.105
 11
-14.186
 20
-16.052
 21
-16.223
  0
LINE
  8
0
 10
-14.186
 11
-14.286
 20
-16.223
 21
-16.382
  0
LINE
  8
0
 10
-14.286
 11
-14.407
 20
-16.382
 21
-16.527
  0
LINE
  8
0
 10
-14.407
 11
-14.544
 20
-16.527
 21
-16.656
  0
LINE
  8
0
 10
-14.544
 11
-14.696
 20
-16.656
 21
-16.766
  0
LINE
  8
0
 10
-14.696
 11
-14.861
 20
-16.766
 21
-16.857
  0
LINE
  8
0
 10
-14.861
 11
-15.036
 20
-16.857
 21
-16.927
  0
LINE
  8
0
 10
-15.036
 11
-15.219
 20
-16.927
 21
-16.973
  0
LINE
  8
0
 10
-15.219
 11
-15.406
 20
-16.973
 21
-16.997
  0
LINE
  8
0
 10
-15.406
 11
-15.594
 20
-16.997
 21
-16.997
  0
LINE
  8
0
 10
-15.594
 11
-15.781
 20
-16.997
 21
-16.973
  0
LINE
  8
0
 10
-15.781
 11
-15.964
 20
-16.973
 21
-16.927
  0
LINE
  8
0
 10
-15.964
 11
-16.139
 20
-16.927
 21
-16.857
  0
LINE
  8
0
 10
-16.139
 11
-16.304
 20
-16.857
 21
-16.766
  0
LINE
  8
0
 10
-16.304
 11
-16.456
 20
-16.766
 21
-16.656
  0
LINE
  8
0
 10
-16.456
 11
-16.593
 20
-16.656
 21
-16.527
  0
LINE
  8
0
 10
-16.593
 11
-16.714
 20
-16.527
 21
-16.382
  0
LINE
  8
0
 10
-16.714
 11
-16.814
 20
-16.382
 21
-16.223
  0
LINE
  8
0
 10
-16.814
 11
-16.895
 20
-16.223
 21
-16.052
  0
LINE
  8
0
 10
-16.895
 11
-16.953
 20
-16.052
 21
-15.873
  0
LINE
  8
0
 10
-16.953
 11
-16.988
 20
-15.873
 21
-15.688
  0
LINE
  8
0
 10
-16.988
 11
-17
 20
-15.688
 21
-15.5
  0
LINE
  8
0
 10
-16.997
 11
-16.997
 20
15.406
 21
15.594
  0
LINE
  8
0
 10
-16.997
 11
-16.973
 20
15.594
 21
15.781
  0
LINE
  8
0
 10
-16.973
 11
-16.927
 20
15.781
 21
15.964
  0
LINE
  8
0
 10
-16.927
 11
-16.857
 20
15.964
 21
16.139
  0
LINE
  8
0
 10
-16.857
 11
-16.766
 20
16.139
 21
16.304
  0
LINE
  8
0
 10
-16.766
 11
-16.656
 20
16.304
 21
16.456
  0
LINE
  8
0
 10
-16.656
 11
-16.527
 20
16.456
 21
16.593
  0
LINE
  8
0
 10
-16.527
 11
-16.382
 20
16.593
 21
16.714
  0
LINE
  8
0
 10
-16.382
 11
-16.223
 20
16.714
 21
16.814
  0
LINE
  8
0
 10
-16.223
 11
-16.052
 20
16.814
 21
16.895
  0
LINE
  8
0
 10
-16.052
 11
-15.873
 20
16.895
 21
16.953
  0
LINE
  8
0
 10
-15.873
 11
-15.688
 20
16.953
 21
16.988
  0
LINE
  8
0
 10
-15.688
 11
-15.5
 20
16.988
 21
17
  0
LINE
  8
0
 10
-15.5
 11
-15.312
 20
17
 21
16.988
  0
LINE
  8
0
 10
-15.312
 11
-15.127
 20
16.988
 21
16.953
  0
LINE
  8
0
 10
-15.127
 11
-14.948
 20
16.953
 21
16.895
  0
LINE
  8
0
 10
-14.948
 11
-14.777
 20
16.895
 21
16.814
  0
LINE
  8
0
 10
-14.777
 11
-14.618
 20
16.814
 21
16.714
  0
LINE
  8
0
 10
-14.618
 11
-14.473
 20
16.714
 21
16.593
  0
LINE
  8
0
 10
-14.473
 11
-14.344
 20
16.593
 21
16.456
  0
LINE
  8
0
 10
-14.344
 11
-14.234
 20
16.456
 21
16.304
  0
LINE
  8
0
 10
-14.234
 11
-14.143
 20
16.304
 21
16.139
  0
LINE
  8
0
 10
-14.143
 11
-14.073
 20
16.139
 21
15.964
  0
LINE
  8
0
 10
-14.073
 11
-14.027
 20
15.964
 21
15.781
  0
LINE
  8
0
 10
-14.027
 11
-14.003
 20
15.781
 21
15.594
  0
LINE
  8
0
 10
-14.003
 11
-14.003
 20
15.594
 21
15.406
  0
LINE
  8
0
 10
-14.003
 11
-14.027
 20
15.406
 21
15.219
  0
LINE
  8
0
 10
-14.027
 11
-14.073
 20
15.219
 21
15.036
  0
LINE
  8
0
 10
-14.073
 11
-14.143
 20
15.036
 21
14.861
  0
LINE
  8
0
 10
-14.143
 11
-14.234
 20
14.861
 21
14.696
  0
LINE
  8
0
 10
-14.234
 11
-14.344
 20
14.696
 21
14.544
  0
LINE
  8
0
 10
-14.344
 11
-14.473
 20
14.544
 21
14.407
  0
LINE
  8
0
 10
-14.473
 11
-14.618
 20
14.407
 21
14.286
  0
LINE
  8
0
 10
-14.618
 11
-14.777
 20
14.286
 21
14.186
  0
LINE
  8
0
 10
-14.777
 11
-14.948
 20
14.186
 21
14.105
  0
LINE
  8
0
 10
-14.948
 11
-15.127
 20
14.105
 21
14.047
  0
LINE
  8
0
 10
-15.127
 11
-15.312
 20
14.047
 21
14.012
  0
LINE
  8
0
 10
-15.312
 11
-15.5
 20
14.012
 21
14
  0
LINE
  8
0
 10
-15.5
 11
-15.688
 20
14
 21
14.012
  0
LINE
  8
0
 10
-15.688
 11
-15.873
 20
14.012
 21
14.047
  0
LINE
  8
0
 10
-15.873
 11
-16.052
 20
14.047
 21
14.105
  0
LINE
  8
0
 10
-16.052
 11
-16.223
 20
14.105
 21
14.186
  0
LINE
  8
0
 10
-16.223
 11
-16.382
 20
14.186
 21
14.286
  0
LINE
  8
0
 10
-16.382
 11
-16.527
 20
14.286
 21
14.407
  0
LINE
  8
0
 10
-16.527
 11
-16.656
 20
14.407
 21
14.544
  0
LINE
  8
0
 10
-16.656
 11
-16.766
 20
14.544
 21
14.696
  0
LINE
  8
0
 10
-16.766
 11
-16.857
 20
14.696
 21
14.861
  0
LINE
  8
0
 10
-16.857
 11
-16.927
 20
14.861
 21
15.036
  0
LINE
  8
0
 10
-16.927
 11
-16.973
 20
15.036
 21
15.219
  0
LINE
  8
0
 10
-16.973
 11
-16.997
 20
15.219
 21
15.406
  0
LINE
  8
0
 10
-11
 11
-10.913
 20
0
 21
1.379
  0
LINE
  8
0
 10
-10.913
 11
-10.654
 20
1.379
 21
2.736
  0
LINE
  8
0
 10
-10.654
 11
-10.228
 20
2.736
 21
4.049
  0
LINE
  8
0
 10
-10.228
 11
-9.639
 20
4.049
 21
5.299
  0
LINE
  8
0
 10
-9.639
 11
-8.899
 20
5.299
 21
6.466
  0
LINE
  8
0
 10
-8.899
 11
-8.019
 20
6.466
 21
7.53
  0
LINE
  8
0
 10
-8.019
 11
-7.012
 20
7.53
 21
8.476
  0
LINE
  8
0
 10
-7.012
 11
-5.894
 20
8.476
 21
9.288
  0
LINE
  8
0
 10
-5.894
 11
-4.684
 20
9.288
 21
9.953
  0
LINE
  8
0
 10
-4.684
 11
-3.399
 20
9.953
 21
10.462
  0
LINE
  8
0
 10
-3.399
 11
-2.061
 20
10.462
 21
10.805
  0
LINE
  8
0
 10
-2.061
 11
-0.691
 20
10.805
 21
10.978
  0
LINE
  8
0
 10
-0.691
 11
0.691
 20
10.978
 21
10.978
  0
LINE
  8
0
 10
0.691
 11
2.061
 20
10.978
 21
10.805
  0
LINE
  8
0
 10
2.061
 11
3.399
 20
10.805
 21
10.462
  0
LINE
  8
0
 10
3.399
 11
4.684
 20
10.462
 21
9.953
  0
LINE
  8
0
 10
4.684
 11
5.894
 20
9.953
 21
9.288
  0
LINE
  8
0
 10
5.894
 11
7.012
 20
9.288
 21
8.476
  0
LINE
  8
0
 10
7.012
 11
8.019
 20
8.476
 21
7.53
  0
LINE
  8
0
 10
8.019
 11
8.899
 20
7.53
 21
6.466
  0
LINE
  8
0
 10
8.899
 11
9.639
 20
6.466
 21
5.299
  0
LINE
  8
0
 10
9.639
 11
10.228
 20
5.299
 21
4.049
  0
LINE
  8
0
 10
10.228
 11
10.654
 20
4.049
 21
2.736
  0
LINE
  8
0
 10
10.654
 11
10.913
 20
2.736
 21
1.379
  0
LINE
  8
0
 10
10.913
 11
11
 20
1.379
 21
0
  0
LINE
  8
0
 10
11
 11
10.913
 20
0
 21
-1.379
  0
LINE
  8
0
 10
10.913
 11
10.654
 20
-1.379
 21
-2.736
  0
LINE
  8
0
 10
10.654
 11
10.228
 20
-2.736
 21
-4.049
  0
LINE
  8
0
 10
10.228
 11
9.639
 20
-4.049
 21
-5.299
  0
LINE
  8
0
 10
9.639
 11
8.899
 20
-5.299
 21
-6.466
  0
LINE
  8
0
 10
8.899
 11
8.019
 20
-6.466
 21
-7.53
  0
LINE
  8
0
 10
8.019
 11
7.012
 20
-7.53
 21
-8.476
  0
LINE
  8
0
 10
7.012
 11
5.894
 20
-8.476
 21
-9.288
  0
LINE
  8
0
 10
5.894
 11
4.684
 20
-9.288
 21
-9.953
  0
LINE
  8
0
 10
4.684
 11
3.399
 20
-9.953
 21
-10.462
  0
LINE
  8
0
 10
3.399
 11
2.061
 20
-10.462
 21
-10.805
  0
LINE
  8
0
 10
2.061
 11
0.691
 20
-10.805
 21
-10.978
  0
LINE
  8
0
 10
0.691
 11
-0.691
 20
-10.978
 21
-10.978
  0
LINE
  8
0
 10
-0.691
 11
-2.061
 20
-10.978
 21
-10.805
  0
LINE
  8
0
 10
-2.061
 11
-3.399
 20
-10.805
 21
-10.462
  0
LINE
  8
0
 10
-3.399
 11
-4.684
 20
-10.462
 21
-9.953
  0
LINE
  8
0
 10
-4.684
 11
-5.894
 20
-9.953
 21
-9.288
  0
LINE
  8
0
 10
-5.894
 11
-7.012
 20
-9.288
 21
-8.476
  0
LINE
  8
0
 10
-7.012
 11
-8.019
 20
-8.476
 21
-7.53
  0
LINE
  8
0
 10
-8.019
 11
-8.899
 20
-7.53
 21
-6.466
  0
LINE
  8
0
 10
-8.899
 11
-9.639
 20
-6.466
 21
-5.299
  0
LINE
  8
0
 10
-9.639
 11
-10.228
 20
-5.299
 21
-4.049
  0
LINE
  8
0
 10
-10.228
 11
-10.654
 20
-4.049
 21
-2.736
  0
LINE
  8
0
 10
-10.654
 11
-10.913
 20
-2.736
 21
-1.379
  0
LINE
  8
0
 10
-10.913
 11
-11
 20
-1.379
 21
0
  0
LINE
  8
0
 10
12.5
 11
12.5
 20
-28.5
 21
-23.5
  0
LINE
  8
0
 10
12.5
 11
17.5
 20
-23.5
 21
-23.5
  0
LINE
  8
0
 10
17.5
 11
17.5
 20
-23.5
 21
-28.5
  0
LINE
  8
0
 10
17.5
 11
12.5
 20
-28.5
 21
-28.5
  0
LINE
  8
0
 10
12.5
 11
12.5
 20
23.5
 21
28.5
  0
LINE
  8
0
 10
12.5
 11
17.5
 20
28.5
 21
28.5
  0
LINE
  8
0
 10
17.5
 11
17.5
 20
28.5
 21
23.5
  0
LINE
  8
0
 10
17.5
 11
12.5
 20
23.5
 21
23.5
  0
LINE
  8
0
 10
14
 11
14.012
 20
15.5
 21
15.688
  0
LINE
  8
0
 10
14.012
 11
14.047
 20
15.688
 21
15.873
  0
LINE
  8
0
 10
14.047
 11
14.105
 20
15.873
 21
16.052
  0
LINE
  8
0
 10
14.105
 11
14.186
 20
16.052
 21
16.223
  0
LINE
  8
0
 10
14.186
 11
14.286
 20
16.223
 21
16.382
  0
LINE
  8
0
 10
14.286
 11
14.407
 20
16.382
 21
16.527
  0
LINE
  8
0
 10
14.407
 11
14.544
 20
16.527
 21
16.656
  0
LINE
  8
0
 10
14.544
 11
14.696
 20
16.656
 21
16.766
  0
LINE
  8
0
 10
14.696
 11
14.861
 20
16.766
 21
16.857
  0
LINE
  8
0
 10
14.861
 11
15.036
 20
16.857
 21
16.927
  0
LINE
  8
0
 10
15.036
 11
15.219
 20
16.927
 21
16.973
  0
LINE
  8
0
 10
15.219
 11
15.406
 20
16.973
 21
16.997
  0
LINE
  8
0
 10
15.406
 11
15.594
 20
16.997
 21
16.997
  0
LINE
  8
0
 10
15.594
 11
15.781
 20
16.997
 21
16.973
  0
LINE
  8
0
 10
15.781
 11
15.964
 20
16.973
 21
16.927
  0
LINE
  8
0
 10
15.964
 11
16.139
 20
16.927
 21
16.857
  0
LINE
  8
0
 10
16.139
 11
16.304
 20
16.857
 21
16.766
  0
LINE
  8
0
 10
16.304
 11
16.456
 20
16.766
 21
16.656
  0
LINE
  8
0
 10
16.456
 11
16.593
 20
16.656
 21
16.527
  0
LINE
  8
0
 10
16.593
 11
16.714
 20
16.527
 21
16.382
  0
LINE
  8
0
 10
16.714
 11
16.814
 20
16.382
 21
16.223
  0
LINE
  8
0
 10
16.814
 11
16.895
 20
16.223
 21
16.052
  0
LINE
  8
0
 10
16.895
 11
16.953
 20
16.052
 21
15.873
  0
LINE
  8
0
 10
16.953
 11
16.988
 20
15.873
 21
15.688
  0
LINE
  8
0
 10
16.988
 11
17
 20
15.688
 21
15.5
  0
LINE
  8
0
 10
17
 11
16.988
 20
15.5
 21
15.312
  0
LINE
  8
0
 10
16.988
 11
16.953
 20
15.312
 21
15.127
  0
LINE
  8
0
 10
16.953
 11
16.895
 20
15.127
 21
14.948
  0
LINE
  8
0
 10
16.895
 11
16.814
 20
14.948
 21
14.777
  0
LINE
  8
0
 10
16.814
 11
16.714
 20
14.777
 21
14.618
  0
LINE
  8
0
 10
16.714
 11
16.593
 20
14.618
 21
14.473
  0
LINE
  8
0
 10
16.593
 11
16.456
 20
14.473
 21
14.344
  0
LINE
  8
0
 10
16.456
 11
16.304
 20
14.344
 21
14.234
  0
LINE
  8
0
 10
16.304
 11
16.139
 20
14.234
 21
14.143
  0
LINE
  8
0
 10
16.139
 11
15.964
 20
14.143
 21
14.073
  0
LINE
  8
0
 10
15.964
 11
15.781
 20
14.073
 21
14.027
  0
LINE
  8
0
 10
15.781
 11
15.594
 20
14.027
 21
14.003
  0
LINE
  8
0
 10
15.594
 11
15.406
 20
14.003
 21
14.003
  0
LINE
  8
0
 10
15.406
 11
15.219
 20
14.003
 21
14.027
  0
LINE
  8
0
 10
15.219
 11
15.036
 20
14.027
 21
14.073
  0
LINE
  8
0
 10
15.036
 11
14.861
 20
14.073
 21
14.143
  0
LINE
  8
0
 10
14.861
 11
14.696
 20
14.143
 21
14.234
  0
LINE
  8
0
 10
14.696
 11
14.544
 20
14.234
 21
14.344
  0
LINE
  8
0
 10
14.544
 11
14.407
 20
14.344
 21
14.473
  0
LINE
  8
0
 10
14.407
 11
14.286
 20
14.473
 21
14.618
  0
LINE
  8
0
 10
14.286
 11
14.186
 20
14.618
 21
14.777
  0
LINE
  8
0
 10
14.186
 11
14.105
 20
14.777
 21
14.948
  0
LINE
  8
0
 10
14.105
 11
14.047
 20
14.948
 21
15.127
  0
LINE
  8
0
 10
14.047
 11
14.012
 20
15.127
 21
15.312
  0
LINE
  8
0
 10
14.012
 11
14
 20
15.312
 21
15.5
  0
LINE
  8
0
 10
14.003
 11
14.003
 20
-15.594
 21
-15.406
  0
LINE
  8
0
 10
14.003
 11
14.027
 20
-15.406
 21
-15.219
  0
LINE
  8
0
 10
14.027
 11
14.073
 20
-15.219
 21
-15.036
  0
LINE
  8
0
 10
14.073
 11
14.143
 20
-15.036
 21
-14.861
  0
LINE
  8
0
 10
14.143
 11
14.234
 20
-14.861
 21
-14.696
  0
LINE
  8
0
 10
14.234
 11
14.344
 20
-14.696
 21
-14.544
  0
LINE
  8
0
 10
14.344
 11
14.473
 20
-14.544
 21
-14.407
  0
LINE
  8
0
 10
14.473
 11
14.618
 20
-14.407
 21
-14.286
  0
LINE
  8
0
 10
14.618
 11
14.777
 20
-14.286
 21
-14.186
  0
LINE
  8
0
 10
14.777
 11
14.948
 20
-14.186
 21
-14.105
  0
LINE
  8
0
 10
14.948
 11
15.127
 20
-14.105
 21
-14.047
  0
LINE
  8
0
 10
15.127
 11
15.312
 20
-14.047
 21
-14.012
  0
LINE
  8
0
 10
15.312
 11
15.5
 20
-14.012
 21
-14
  0
LINE
  8
0
 10
15.5
 11
15.688
 20
-14
 21
-14.012
  0
LINE
  8
0
 10
15.688
 11
15.873
 20
-14.012
 21
-14.047
  0
LINE
  8
0
 10
15.873
 11
16.052
 20
-14.047
 21
-14.105
  0
LINE
  8
0
 10
16.052
 11
16.223
 20
-14.105
 21
-14.186
  0
LINE
  8
0
 10
16.223
 11
16.382
 20
-14.186
 21
-14.286
  0
LINE
  8
0
 10
16.382
 11
16.527
 20
-14.286
 21
-14.407
  0
LINE
  8
0
 10
16.527
 11
16.656
 20
-14.407
 21
-14.544
  0
LINE
  8
0
 10
16.656
 11
16.766
 20
-14.544
 21
-14.696
  0
LINE
  8
0
 10
16.766
 11
16.857
 20
-14.696
 21
-14.861
  0
LINE
  8
0
 10
16.857
 11
16.927
 20
-14.861
 21
-15.036
  0
LINE
  8
0
 10
16.927
 11
16.973
 20
-15.036
 21
-15.219
  0
LINE
  8
0
 10
16.973
 11
16.997
 20
-15.219
 21
-15.406
  0
LINE
  8
0
 10
16.997
 11
16.997
 20
-15.406
 21
-15.594
  0
LINE
  8
0
 10
16.997
 11
16.973
 20
-15.594
 21
-15.781
  0
LINE
  8
0
 10
16.973
 11
16.927
 20
-15.781
 21
-15.964
  0
LINE
  8
0
 10
16.927
 11
16.857
 20
-15.964
 21
-16.139
  0
LINE
  8
0
 10
16.857
 11
16.766
 20
-16.139
 21
-16.304
  0
LINE
  8
0
 10
16.766
 11
16.656
 20
-16.304
 21
-16.456
  0
LINE
  8
0
 10
16.656
 11
16.527
 20
-16.456
 21
-16.593
  0
LINE
  8
0
 10
16.527
 11
16.382
 20
-16.593
 21
-16.714
  0
LINE
  8
0
 10
16.382
 11
16.223
 20
-16.714
 21
-16.814
  0
LINE
  8
0
 10
16.223
 11
16.052
 20
-16.814
 21
-16.895
  0
LINE
  8
0
 10
16.052
 11
15.873
 20
-16.895
 21
-16.953
  0
LINE
  8
0
 10
15.873
 11
15.688
 20
-16.953
 21
-16.988
  0
LINE
  8
0
 10
15.688
 11
15.5
 20
-16.988
 21
-17
  0
LINE
  8
0
 10
15.5
 11
15.312
 20
-17
 21
-16.988
  0
LINE
  8
0
 10
15.312
 11
15.127
 20
-16.988
 21
-16.953
  0
LINE
  8
0
 10
15.127
 11
14.948
 20
-16.953
 21
-16.895
  0
LINE
  8
0
 10
14.948
 11
14.777
 20
-16.895
 21
-16.814
  0
LINE
  8
0
 10
14.777
 11
14.618
 20
-16.814
 21
-16.714
  0
LINE
  8
0
 10
14.618
 11
14.473
 20
-16.714
 21
-16.593
  0
LINE
  8
0
 10
14.473
 11
14.344
 20
-16.593
 21
-16.456
  0
LINE
  8
0
 10
14.344
 11
14.234
 20
-16.456
 21
-16.304
  0
LINE
  8
0
 10
14.234
 11
14.143
 20
-16.304
 21
-16.139
  0
LINE
  8
0
 10
14.143
 11
14.073
 20
-16.139
 21
-15.964
  0
LINE
  8
0
 10
14.073
 11
14.027
 20
-15.964
 21
-15.781
  0
LINE
  8
0
 10
14.027
 11
14.003
 20
-15.781
 21
-15.594
  0
LINE
  8
0
 10
23.5
 11
23.5
 20
-17.5
 21
-12.5
  0
LINE
  8
0
 10
23.5
 11
28.5
 20
-12.5
 21
-12.5
  0
LINE
  8
0
 10
28.5
 11
28.5
 20
-12.5
 21
-17.5
  0
LINE
  8
0
 10
28.5
 11
23.5
 20
-17.5
 21
-17.5
  0
LINE
  8
0
 10
23.5
 11
23.5
 20
12.5
 21
17.5
  0
LINE
  8
0
 10
23.5
 11
28.5
 20
17.5
 21
17.5
  0
LINE
  8
0
 10
28.5
 11
28.5
 20
17.5
 21
12.5
  0
LINE
  8
0
 10
28.5
 11
23.5
 20
12.5
 21
12.5
  0
LINE
  8
0
 10
24.5
 11
24.512
 20
26
 21
26.188
  0
LINE
  8
0
 10
24.512
 11
24.547
 20
26.188
 21
26.373
  0
LINE
  8
0
 10
24.547
 11
24.605
 20
26.373
 21
26.552
  0
LINE
  8
0
 10
24.605
 11
24.686
 20
26.552
 21
26.723
  0
LINE
  8
0
 10
24.686
 11
24.786
 20
26.723
 21
26.882
  0
LINE
  8
0
 10
24.786
 11
24.907
 20
26.882
 21
27.027
  0
LINE
  8
0
 10
24.907
 11
25.044
 20
27.027
 21
27.156
  0
LINE
  8
0
 10
25.044
 11
25.196
 20
27.156
 21
27.266
  0
LINE
  8
0
 10
25.196
 11
25.361
 20
27.266
 21
27.357
  0
LINE
  8
0
 10
25.361
 11
25.536
 20
27.357
 21
27.427
  0
LINE
  8
0
 10
25.536
 11
25.719
 20
27.427
 21
27.473
  0
LINE
  8
0
 10
25.719
 11
25.906
 20
27.473
 21
27.497
  0
LINE
  8
0
 10
25.906
 11
26.094
 20
27.497
 21
27.497
  0
LINE
  8
0
 10
26.094
 11
26.281
 20
27.497
 21
27.473
  0
LINE
  8
0
 10
26.281
 11
26.464
 20
27.473
 21
27.427
  0
LINE
  8
0
 10
26.464
 11
26.639
 20
27.427
 21
27.357
  0
LINE
  8
0
 10
26.639
 11
26.804
 20
27.357
 21
27.266
  0
LINE
  8
0
 10
26.804
 11
26.956
 20
27.266
 21
27.156
  0
LINE
  8
0
 10
26.956
 11
27.093
 20
27.156
 21
27.027
  0
LINE
  8
0
 10
27.093
 11
27.214
 20
27.027
 21
26.882
  0
LINE
  8
0
 10
27.214
 11
27.314
 20
26.882
 21
26.723
  0
LINE
  8
0
 10
27.314
 11
27.395
 20
26.723
 21
26.552
  0
LINE
  8
0
 10
27.395
 11
27.453
 20
26.552
 21
26.373
  0
LINE
  8
0
 10
27.453
 11
27.488
 20
26.373
 21
26.188
  0
LINE
  8
0
 10
27.488
 11
27.5
 20
26.188
 21
26
  0
LINE
  8
0
 10
27.5
 11
27.488
 20
26
 21
25.812
  0
LINE
  8
0
 10
27.488
 11
27.453
 20
25.812
 21
25.627
  0
LINE
  8
0
 10
27.453
 11
27.395
 20
25.627
 21
25.448
  0
LINE
  8
0
 10
27.395
 11
27.314
 20
25.448
 21
25.277
  0
LINE
  8
0
 10
27.314
 11
27.214
 20
25.277
 21
25.118
  0
LINE
  8
0
 10
27.214
 11
27.093
 20
25.118
 21
24.973
  0
LINE
  8
0
 10
27.093
 11
26.956
 20
24.973
 21
24.844
  0
LINE
  8
0
 10
26.956
 11
26.804
 20
24.844
 21
24.734
  0
LINE
  8
0
 10
26.804
 11
26.639
 20
24.734
 21
24.643
  0
LINE
  8
0
 10
26.639
 11
26.464
 20
24.643
 21
24.573
  0
LINE
  8
0
 10
26.464
 11
26.281
 20
24.573
 21
24.527
  0
LINE
  8
0
 10
26.281
 11
26.094
 20
24.527
 21
24.503
  0
LINE
  8
0
 10
26.094
 11
25.906
 20
24.503
 21
24.503
  0
LINE
  8
0
 10
25.906
 11
25.719
 20
24.503
 21
24.527
  0
LINE
  8
0
 10
25.719
 11
25.536
 20
24.527
 21
24.573
  0
LINE
  8
0
 10
25.536
 11
25.361
 20
24.573
 21
24.643
  0
LINE
  8
0
 10
25.361
 11
25.196
 20
24.643
 21
24.734
  0
LINE
  8
0
 10
25.196
 11
25.044
 20
24.734
 21
24.844
  0
LINE
  8
0
 10
25.044
 11
24.907
 20
24.844
 21
24.973
  0
LINE
  8
0
 10
24.907
 11
24.786
 20
24.973
 21
25.118
  0
LINE
  8
0
 10
24.786
 11
24.686
 20
25.118
 21
25.277
  0
LINE
  8
0
 10
24.686
 11
24.605
 20
25.277
 21
25.448
  0
LINE
  8
0
 10
24.605
 11
24.547
 20
25.448
 21
25.627
  0
LINE
  8
0
 10
24.547
 11
24.512
 20
25.627
 21
25.812
  0
LINE
  8
0
 10
24.512
 11
24.5
 20
25.812
 21
26
  0
LINE
  8
0
 10
24.503
 11
24.503
 20
-26.094
 21
-25.906
  0
LINE
  8
0
 10
24.503
 11
24.527
 20
-25.906
 21
-25.719
  0
LINE
  8
0
 10
24.527
 11
24.573
 20
-25.719
 21
-25.536
  0
LINE
  8
0
 10
24.573
 11
24.643
 20
-25.536
 21
-25.361
  0
LINE
  8
0
 10
24.643
 11
24.734
 20
-25.361
 21
-25.196
  0
LINE
  8
0
 10
24.734
 11
24.844
 20
-25.196
 21
-25.044
  0
LINE
  8
0
 10
24.844
 11
24.973
 20
-25.044
 21
-24.907
  0
LINE
  8
0
 10
24.973
 11
25.118
 20
-24.907
 21
-24.786
  0
LINE
  8
0
 10
25.118
 11
25.277
 20
-24.786
 21
-24.686
  0
LINE
  8
0
 10
25.277
 11
25.448
 20
-24.686
 21
-24.605
  0
LINE
  8
0
 10
25.448
 11
25.627
 20
-24.605
 21
-24.547
  0
LINE
  8
0
 10
25.627
 11
25.812
 20
-24.547
 21
-24.512
  0
LINE
  8
0
 10
25.812
 11
26
 20
-24.512
 21
-24.5
  0
LINE
  8
0
 10
26
 11
26.188
 20
-24.5
 21
-24.512
  0
LINE
  8
0
 10
26.188
 11
26.373
 20
-24.512
 21
-24.547
  0
LINE
  8
0
 10
26.373
 11
26.552
 20
-24.547
 21
-24.605
  0
LINE
  8
0
 10
26.552
 11
26.723
 20
-24.605
 21
-24.686
  0
LINE
  8
0
 10
26.723
 11
26.882
 20
-24.686
 21
-24.786
  0
LINE
  8
0
 10
26.882
 11
27.027
 20
-24.786
 21
-24.907
  0
LINE
  8
0
 10
27.027
 11
27.156
 20
-24.907
 21
-25.044
  0
LINE
  8
0
 10
27.156
 11
27.266
 20
-25.044
 21
-25.196
  0
LINE
  8
0
 10
27.266
 11
27.357
 20
-25.196
 21
-25.361
  0
LINE
  8
0
 10
27.357
 11
27.427
 20
-25.361
 21
-25.536
  0
LINE
  8
0
 10
27.427
 11
27.473
 20
-25.536
 21
-25.719
  0
LINE
  8
0
 10
27.473
 11
27.497
 20
-25.719
 21
-25.906
  0
LINE
  8
0
 10
27.497
 11
27.497
 20
-25.906
 21
-26.094
  0
LINE
  8
0
 10
27.497
 11
27.473
 20
-26.094
 21
-26.281
  0
LINE
  8
0
 10
27.473
 11
27.427
 20
-26.281
 21
-26.464
  0
LINE
  8
0
 10
27.427
 11
27.357
 20
-26.464
 21
-26.639
  0
LINE
  8
0
 10
27.357
 11
27.266
 20
-26.639
 21
-26.804
  0
LINE
  8
0
 10
27.266
 11
27.156
 20
-26.804
 21
-26.956
  0
LINE
  8
0
 10
27.156
 11
27.027
 20
-26.956
 21
-27.093
  0
LINE
  8
0
 10
27.027
 11
26.882
 20
-27.093
 21
-27.214
  0
LINE
  8
0
 10
26.882
 11
26.723
 20
-27.214
 21
-27.314
  0
LINE
  8
0
 10
26.723
 11
26.552
 20
-27.314
 21
-27.395
  0
LINE
  8
0
 10
26.552
 11
26.373
 20
-27.395
 21
-27.453
  0
LINE
  8
0
 10
26.373
 11
26.188
 20
-27.453
 21
-27.488
  0
LINE
  8
0
 10
26.188
 11
26
 20
-27.488
 21
-27.5
  0
LINE
  8
0
 10
26
 11
25.812
 20
-27.5
 21
-27.488
  0
LINE
  8
0
 10
25.812
 11
25.627
 20
-27.488
 21
-27.453
  0
LINE
  8
0
 10
25.627
 11
25.448
 20
-27.453
 21
-27.395
  0
LINE
  8
0
 10
25.448
 11
25.277
 20
-27.395
 21
-27.314
  0
LINE
  8
0
 10
25.277
 11
25.118
 20
-27.314
 21
-27.214
  0
LINE
  8
0
 10
25.118
 11
24.973
 20
-27.214
 21
-27.093
  0
LINE
  8
0
 10
24.973
 11
24.844
 20
-27.093
 21
-26.956
  0
LINE
  8
0
 10
24.844
 11
24.734
 20
-26.956
 21
-26.804
  0
LINE
  8
0
 10
24.734
 11
24.643
 20
-26.804
 21
-26.639
  0
LINE
  8
0
 10
24.643
 11
24.573
 20
-26.639
 21
-26.464
  0
LINE
  8
0
 10
24.573
 11
24.527
 20
-26.464
 21
-26.281
  0
LINE
  8
0
 10
24.527
 11
24.503
 20
-26.281
 21
-26.094
  0
ENDSEC
  0
SECTION
  2
OBJECTS
  0
DICTIONARY
  0
ENDSEC
  0
EOF
