  0
SECTION
  2
BLOCKS
  0
ENDSEC
  0
SECTION
  2
ENTITIES
  0
LINE
  8
0
 10
-15
 11
-15
 20
-10
 21
-5
  0
LINE
  8
0
 10
-15
 11
-10
 20
-5
 21
-5
  0
LINE
  8
0
 10
-10
 11
-10
 20
-5
 21
5
  0
LINE
  8
0
 10
-10
 11
-15
 20
5
 21
5
  0
LINE
  8
0
 10
-15
 11
-15
 20
5
 21
10
  0
LINE
  8
0
 10
-15
 11
15
 20
10
 21
10
  0
LINE
  8
0
 10
15
 11
15
 20
10
 21
5
  0
LINE
  8
0
 10
15
 11
10
 20
5
 21
5
  0
LINE
  8
0
 10
10
 11
10
 20
5
 21
-5
  0
LINE
  8
0
 10
10
 11
15
 20
-5
 21
-5
  0
LINE
  8
0
 10
15
 11
15
 20
-5
 21
-10
  0
LINE
  8
0
 10
15
 11
-15
 20
-10
 21
-10
  0
LINE
  8
0
 10
-4
 11
-3.968
 20
0
 21
0.501
  0
LINE
  8
0
 10
-3.968
 11
-3.874
 20
0.501
 21
0.995
  0
LINE
  8
0
 10
-3.874
 11
-3.719
 20
0.995
 21
1.472
  0
LINE
  8
0
 10
-3.719
 11
-3.505
 20
1.472
 21
1.927
  0
LINE
  8
0
 10
-3.505
 11
-3.236
 20
1.927
 21
2.351
  0
LINE
  8
0
 10
-3.236
 11
-2.916
 20
2.351
 21
2.738
  0
LINE
  8
0
 10
-2.916
 11
-2.55
 20
2.738
 21
3.082
  0
LINE
  8
0
 10
-2.55
 11
-2.143
 20
3.082
 21
3.377
  0
LINE
  8
0
 10
-2.143
 11
-1.703
 20
3.377
 21
3.619
  0
LINE
  8
0
 10
-1.703
 11
-1.236
 20
3.619
 21
3.804
  0
LINE
  8
0
 10
-1.236
 11
-0.75
 20
3.804
 21
3.929
  0
LINE
  8
0
 10
-0.75
 11
-0.251
 20
3.929
 21
3.992
  0
LINE
  8
0
 10
-0.251
 11
0.251
 20
3.992
 21
3.992
  0
LINE
  8
0
 10
0.251
 11
0.75
 20
3.992
 21
3.929
  0
LINE
  8
0
 10
0.75
 11
1.236
 20
3.929
 21
3.804
  0
LINE
  8
0
 10
1.236
 11
1.703
 20
3.804
 21
3.619
  0
LINE
  8
0
 10
1.703
 11
2.143
 20
3.619
 21
3.377
  0
LINE
  8
0
 10
2.143
 11
2.55
 20
3.377
 21
3.082
  0
LINE
  8
0
 10
2.55
 11
2.916
 20
3.082
 21
2.738
  0
LINE
  8
0
 10
2.916
 11
3.236
 20
2.738
 21
2.351
  0
LINE
  8
0
 10
3.236
 11
3.505
 20
2.351
 21
1.927
  0
LINE
  8
0
 10
3.505
 11
3.719
 20
1.927
 21
1.472
  0
LINE
  8
0
 10
3.719
 11
3.874
 20
1.472
 21
0.995
  0
LINE
  8
0
 10
3.874
 11
3.968
 20
0.995
 21
0.501
  0
LINE
  8
0
 10
3.968
 11
4
 20
0.501
 21
0
  0
LINE
  8
0
 10
4
 11
3.968
 20
0
 21
-0.501
  0
LINE
  8
0
 10
3.968
 11
3.874
 20
-0.501
 21
-0.995
  0
LINE
  8
0
 10
3.874
 11
3.719
 20
-0.995
 21
-1.472
  0
LINE
  8
0
 10
3.719
 11
3.505
 20
-1.472
 21
-1.927
  0
LINE
  8
0
 10
3.505
 11
3.236
 20
-1.927
 21
-2.351
  0
LINE
  8
0
 10
3.236
 11
2.916
 20
-2.351
 21
-2.738
  0
LINE
  8
0
 10
2.916
 11
2.55
 20
-2.738
 21
-3.082
  0
LINE
  8
0
 10
2.55
 11
2.143
 20
-3.082
 21
-3.377
  0
LINE
  8
0
 10
2.143
 11
1.703
 20
-3.377
 21
-3.619
  0
LINE
  8
0
 10
1.703
 11
1.236
 20
-3.619
 21
-3.804
  0
LINE
  8
0
 10
1.236
 11
0.75
 20
-3.804
 21
-3.929
  0
LINE
  8
0
 10
0.75
 11
0.251
 20
-3.929
 21
-3.992
  0
LINE
  8
0
 10
0.251
 11
-0.251
 20
-3.992
 21
-3.992
  0
LINE
  8
0
 10
-0.251
 11
-0.75
 20
-3.992
 21
-3.929
  0
LINE
  8
0
 10
-0.75
 11
-1.236
 20
-3.929
 21
-3.804
  0
LINE
  8
0
 10
-1.236
 11
-1.703
 20
-3.804
 21
-3.619
  0
LINE
  8
0
 10
-1.703
 11
-2.143
 20
-3.619
 21
-3.377
  0
LINE
  8
0
 10
-2.143
 11
-2.55
 20
-3.377
 21
-3.082
  0
LINE
  8
0
 10
-2.55
 11
-2.916
 20
-3.082
 21
-2.738
  0
LINE
  8
0
 10
-2.916
 11
-3.236
 20
-2.738
 21
-2.351
  0
LINE
  8
0
 10
-3.236
 11
-3.505
 20
-2.351
 21
-1.927
  0
LINE
  8
0
 10
-3.505
 11
-3.719
 20
-1.927
 21
-1.472
  0
LINE
  8
0
 10
-3.719
 11
-3.874
 20
-1.472
 21
-0.995
  0
LINE
  8
0
 10
-3.874
 11
-3.968
 20
-0.995
 21
-0.501
  0
LINE
  8
0
 10
-3.968
 11
-4
 20
-0.501
 21
0
  0
ENDSEC
  0
SECTION
  2
OBJECTS
  0
DICTIONARY
  0
ENDSEC
  0
EOF
